<svg id="filter" xmlns="http://www.w3.org/2000/svg" width="40" height="40" viewBox="0 0 40 40">
  <path id="Path_26743" data-name="Path 26743" d="M32.844,0H7.156A7.164,7.164,0,0,0,0,7.156V32.844A7.164,7.164,0,0,0,7.156,40H32.844A7.164,7.164,0,0,0,40,32.844V7.156A7.164,7.164,0,0,0,32.844,0Zm4.812,32.844a4.818,4.818,0,0,1-4.812,4.812H7.156a4.818,4.818,0,0,1-4.812-4.812V7.156A4.818,4.818,0,0,1,7.156,2.344H32.844a4.818,4.818,0,0,1,4.812,4.812Z" fill="#32a214"/>
  <path id="Path_26744" data-name="Path 26744" d="M93.053,82.844H75.2a3.681,3.681,0,0,0-6.98,0H65.439a1.172,1.172,0,0,0,0,2.344h2.786a3.681,3.681,0,0,0,6.98,0H93.053a1.172,1.172,0,1,0,0-2.344Zm-21.339,2.51a1.339,1.339,0,1,1,1.339-1.339A1.34,1.34,0,0,1,71.715,85.355Z" transform="translate(-59.246 -74.058)" fill="#32a214"/>
  <path id="Path_26745" data-name="Path 26745" d="M93.053,211.377H90.267a3.681,3.681,0,0,0-6.98,0H65.439a1.172,1.172,0,0,0,0,2.344H83.287a3.681,3.681,0,0,0,6.98,0h2.786a1.172,1.172,0,1,0,0-2.344Zm-6.276,2.51a1.339,1.339,0,1,1,1.339-1.339A1.34,1.34,0,0,1,86.777,213.888Z" transform="translate(-59.246 -192.549)" fill="#32a214"/>
  <path id="Path_26746" data-name="Path 26746" d="M93.053,339.91H80.226a3.681,3.681,0,0,0-6.98,0H65.439a1.172,1.172,0,0,0,0,2.344h7.807a3.681,3.681,0,0,0,6.98,0H93.053a1.172,1.172,0,1,0,0-2.344Zm-16.318,2.51a1.339,1.339,0,1,1,1.339-1.339A1.34,1.34,0,0,1,76.736,342.421Z" transform="translate(-59.246 -311.041)" fill="#32a214"/>
</svg>
