<?xml version="1.0" standalone="no"?>
<!DOCTYPE svg PUBLIC "-//W3C//DTD SVG 1.1//EN" "http://www.w3.org/Graphics/SVG/1.1/DTD/svg11.dtd" >
<svg xmlns="http://www.w3.org/2000/svg" xmlns:xlink="http://www.w3.org/1999/xlink" version="1.1">
<metadata>
Created by FontForge 20170731 at Mon Apr 26 12:26:52 2021
 By Aleksey,,,
Modern and elegant sans serif font family.
</metadata>
<defs>
<font id="Mont-BlackItalic" horiz-adv-x="0" >
  <font-face 
    font-family="Mont Black Italic"
    font-weight="950"
    font-style="italic"
    font-stretch="normal"
    units-per-em="2048"
    panose-1="0 0 10 0 0 0 0 0 0 0"
    ascent="1638"
    descent="-410"
    x-height="1106"
    cap-height="1434"
    bbox="-1577 -803 2792 2037"
    underline-thickness="102"
    underline-position="-307"
    slope="-11.31"
    unicode-range="U+0020-25CA"
  />
<missing-glyph horiz-adv-x="946" 
d="M776 1495v-1893h-600v1893h600zM630 1368h-312v-62h123v-70h-125v-63h314v63h-125v70h125v62zM505 1124h-189v-197h314v64h-125v133zM441 1060v-69h-62v69h62zM630 876h-314v-62h125v-70h-125v-63h189v133h125v62zM630 762h-62v-124h-252v-65h314v189zM630 531h-189v-106
h64v44h63v-89h-189v151h-63v-213h314v213zM630 204h-314v-214h314v214zM568 142v-89h-189v89h189zM630 -53h-314v-63h133l-133 -89v-62h314v62h-193l133 89h60v63z" />
    <glyph glyph-name="f_f.liga" unicode="ff" horiz-adv-x="1732" 
d="M1681 1228q-37 0 -61.5 -21t-31.5 -58l-11 -58h246l-66 -326h-228l-154 -765h-440l153 765h-388l-154 -765h-440l152 765h-179l66 326h186l25 122q36 178 134.5 258.5t278.5 80.5h294l-65 -324h-146q-37 0 -61.5 -21t-31.5 -58l-11 -58h412l25 122q36 178 134.5 258.5
t278.5 80.5h315l-66 -324h-166z" />
    <glyph glyph-name="f_f_t.liga" unicode="fft" horiz-adv-x="2619" 
d="M2603 765h-263q-52 -259 -52 -284q0 -48 28.5 -70t90.5 -22h125l-77 -389h-226q-203 0 -302.5 80.5t-99.5 246.5q0 52 12.5 127.5t59.5 310.5h-370l-154 -765h-440l153 765h-388l-154 -765h-440l152 765h-179l66 326h186l25 122q36 178 134.5 258.5t278.5 80.5h311
l-65 -324h-163q-37 0 -61.5 -21t-31.5 -58l-11 -58h412l25 122q36 178 134.5 258.5t278.5 80.5h283l-65 -324h-135q-37 0 -61.5 -21t-31.5 -58l-11 -58h388q10 50 31 157t32 160h441q-11 -55 -32 -162t-31 -155h263z" />
    <glyph glyph-name="f_t.liga" unicode="ft" horiz-adv-x="1828" 
d="M1811 766h-262q-52 -260 -52 -285q0 -48 28.5 -70t90.5 -22h125l-77 -389h-226q-203 0 -302.5 80.5t-99.5 246.5q0 52 12.5 127.5t59.5 311.5h-406l-154 -766h-440l152 766h-180l65 324h188l25 123q36 178 134 258.5t278 80.5h316l-68 -333h-166q-37 0 -61.5 -21
t-31.5 -58l-10 -50h424q19 93 64 318h440q-14 -71 -36.5 -184.5t-26.5 -133.5h262z" />
    <glyph glyph-name="f_t_t.liga" unicode="ftt" horiz-adv-x="2744" 
d="M2727 768h-262q-53 -267 -53 -287q0 -48 28.5 -70t90.5 -22h125l-77 -389h-226q-203 0 -302.5 80.5t-99.5 246.5q0 50 12 124t61 317h-481q-53 -267 -53 -287q0 -48 28.5 -70t90.5 -22h125l-77 -389h-226q-203 0 -302.5 80.5t-99.5 246.5q0 50 12 124t61 317h-402
l-154 -768h-440l153 768h-179l65 323h186l25 122q36 178 134.5 258.5t278.5 80.5h315l-67 -332h-167q-37 0 -61.5 -21t-31.5 -58l-9 -50h419q10 50 31 157t32 160h441q-11 -55 -32 -162t-31 -155h481q10 50 31 157t32 160h440q-11 -55 -32 -162t-31 -155h263z" />
    <glyph glyph-name="r_t.liga" unicode="rt" horiz-adv-x="1910" 
d="M1891 763h-256q-52 -261 -52 -282q0 -48 28.5 -70t90.5 -22h125l-77 -389h-225q-203 0 -303 82t-100 248q0 51 12 123.5t60 309.5h-206l68 341h206q9 45 29 146t32 158h440q-7 -36 -28.5 -144.5t-31.5 -159.5h257zM555 999q124 111 302 111h106l-77 -393h-148
q-156 0 -192 -149l-114 -568h-441l221 1106h308z" />
    <glyph glyph-name="t_f.liga" unicode="tf" horiz-adv-x="1785" 
d="M1732 1222q-37 0 -61.5 -21t-31.5 -58l-10 -53h244l-63 -324h-229l-154 -766h-440l153 766h-457q-60 -294 -60 -308q0 -35 22 -54.5t62 -19.5h151l-77 -384h-272q-160 0 -252.5 87t-92.5 234q0 9 0.5 17.5l1 17t2.5 21.5t3.5 24t5.5 32.5t7.5 40t10.5 52.5t13 63.5
t16 80.5t19 96h-206l19 95l686 607h68l-76 -378h478l26 125q36 178 134 258.5t278 80.5h316l-68 -332h-166z" />
    <glyph glyph-name=".notdef" horiz-adv-x="946" 
d="M776 1495v-1893h-600v1893h600zM630 1368h-312v-62h123v-70h-125v-63h314v63h-125v70h125v62zM505 1124h-189v-197h314v64h-125v133zM441 1060v-69h-62v69h62zM630 876h-314v-62h125v-70h-125v-63h189v133h125v62zM630 762h-62v-124h-252v-65h314v189zM630 531h-189v-106
h64v44h63v-89h-189v151h-63v-213h314v213zM630 204h-314v-214h314v214zM568 142v-89h-189v89h189zM630 -53h-314v-63h133l-133 -89v-62h314v62h-193l133 89h60v63z" />
    <glyph glyph-name=".null" 
 />
    <glyph glyph-name="nonmarkingreturn" horiz-adv-x="682" 
 />
    <glyph glyph-name="space" unicode=" " horiz-adv-x="411" 
 />
    <glyph glyph-name="exclam" unicode="!" horiz-adv-x="634" 
d="M110 477l199 998h384l-199 -998h-384zM6 0l73 368h400l-73 -368h-400z" />
    <glyph glyph-name="quotedbl" unicode="&#x22;" horiz-adv-x="1024" 
d="M156 885l110 553h347l-111 -553h-346zM647 885l110 553h347l-111 -553h-346z" />
    <glyph glyph-name="numbersign" unicode="#" horiz-adv-x="1380" 
d="M1371 840h-182l-87 -253h172l-60 -301h-222l-99 -284h-346l100 284h-166l-103 -284h-348l102 284h-118l60 301h167l92 253h-161l58 292h207l107 302h348l-107 -302h157l107 302h346l-107 -302h142zM760 587l86 253h-170l-92 -253h176z" />
    <glyph glyph-name="dollar" unicode="$" horiz-adv-x="1257" 
d="M1238 969h-440q9 35 -13.5 58.5t-65.5 23.5q-45 0 -75 -23.5t-30 -60.5q0 -39 41.5 -61.5t132.5 -47.5q44 -12 75.5 -22t75 -28t74.5 -36.5t65 -47t54.5 -60.5t34 -76t13.5 -94q0 -196 -115 -326.5t-311 -178.5l-32 -156h-360l29 141q-175 28 -268 126t-93 254q0 32 7 81
h458q-10 -45 15.5 -75t73.5 -30q50 0 86.5 28.5t36.5 74.5q0 41 -40.5 63t-131.5 46q-95 24 -161 53.5t-118.5 74.5t-78 110.5t-25.5 154.5q0 171 115.5 290t309.5 161l30 146h360l-29 -142q148 -31 226.5 -122t78.5 -229q0 -30 -5 -70z" />
    <glyph glyph-name="percent" unicode="%" horiz-adv-x="1902" 
d="M454 683q-143 0 -232 79t-89 202q0 171 131.5 297.5t310.5 126.5q143 0 234 -80.5t91 -202.5q0 -111 -61 -208.5t-164.5 -155.5t-220.5 -58zM272 0l1094 1362h297l-1093 -1362h-298zM495 932q51 0 89 36.5t38 89.5q0 37 -22.5 59t-62.5 22q-53 0 -90.5 -36.5t-37.5 -91.5
q0 -36 23.5 -57.5t62.5 -21.5zM1372 -28q-143 0 -232 79t-89 202q0 174 130.5 298.5t313.5 124.5q143 0 233 -80t90 -201q0 -115 -60 -212.5t-162.5 -154t-223.5 -56.5zM1413 221q53 0 90 36.5t37 91.5q0 37 -22 58t-62 21q-53 0 -91 -36.5t-38 -91.5q0 -36 23.5 -57.5
t62.5 -21.5z" />
    <glyph glyph-name="ampersand" unicode="&#x26;" horiz-adv-x="1357" 
d="M1317 688q-45 -235 -216 -420q29 -41 92 -130t97 -138h-405q-10 13 -27.5 36t-22.5 30q-204 -105 -421 -105q-181 0 -290 103t-109 263q0 81 25.5 151.5t73.5 128.5t104 103.5t131 91.5q-84 172 -84 290q0 129 66 226t174.5 146.5t241.5 49.5q113 0 209.5 -38.5
t158.5 -118t62 -184.5q0 -84 -29 -155.5t-85 -129t-115 -100t-142 -89.5q92 -137 101 -151q45 70 60 140h350zM736 1209q-45 0 -77.5 -32t-32.5 -90q0 -50 28 -119q73 40 113 80t40 92q0 32 -21 50.5t-50 18.5zM495 289q69 0 151 37q-108 155 -141 206q-111 -75 -111 -152
q0 -41 27 -66t74 -25z" />
    <glyph glyph-name="quotesingle" unicode="'" horiz-adv-x="532" 
d="M156 885l110 553h347l-111 -553h-346z" />
    <glyph glyph-name="parenleft" unicode="(" horiz-adv-x="778" 
d="M191 -345q-136 289 -136 670q0 365 130.5 724t365.5 629h472q-249 -267 -402.5 -635t-153.5 -730q0 -199 42 -370.5t106 -287.5h-424z" />
    <glyph glyph-name="parenright" unicode=")" horiz-adv-x="784" 
d="M-205 -345q256 264 411 632t155 732q0 200 -41.5 371.5t-105.5 287.5h424q136 -293 136 -670q0 -368 -128 -726t-362 -627h-489z" />
    <glyph glyph-name="asterisk" unicode="*" horiz-adv-x="880" 
d="M940 1132l-171 -58l88 -130l-240 -176l-103 160l-168 -161l-171 177l137 132l-147 58l140 251l154 -58l37 185h267l-37 -185l176 58z" />
    <glyph glyph-name="plus" unicode="+" horiz-adv-x="1110" 
d="M1114 829l-66 -329h-315l-71 -355h-371l71 355h-320l66 329h320l70 347h370l-69 -347h315z" />
    <glyph glyph-name="comma" unicode="," horiz-adv-x="581" 
d="M-68 -383l45 222q75 5 125.5 48.5t64.5 112.5h-173l73 368h400l-72 -362q-35 -171 -159 -274t-304 -115z" />
    <glyph glyph-name="hyphen" unicode="-" horiz-adv-x="1028" 
d="M66 384l72 365h831l-72 -365h-831z" />
    <glyph glyph-name="period" unicode="." horiz-adv-x="581" 
d="M-6 0l73 368h400l-73 -368h-400z" />
    <glyph glyph-name="slash" unicode="/" horiz-adv-x="1185" 
d="M-97 -172l975 1731h460l-974 -1731h-461z" />
    <glyph glyph-name="zero" unicode="0" horiz-adv-x="1404" 
d="M601 -48q-240 0 -381.5 158t-141.5 414q0 179 56 339t155 279t245.5 189t318.5 70q240 0 382 -158t142 -413q0 -178 -56 -338.5t-155.5 -280t-246 -189.5t-318.5 -70zM654 308q68 0 126.5 51t94.5 130t56 168t20 171q0 104 -38.5 160.5t-112.5 56.5q-56 0 -105 -33.5
t-83.5 -88t-59.5 -123t-37 -139.5t-12 -136q0 -104 38.5 -160.5t112.5 -56.5z" />
    <glyph glyph-name="one" unicode="1" horiz-adv-x="796" 
d="M211 1362h626l-273 -1362h-425l207 1038h-199z" />
    <glyph glyph-name="two" unicode="2" horiz-adv-x="1183" 
d="M1171 1032q0 -46 -7.5 -89.5t-26.5 -87t-38.5 -79.5t-56.5 -81.5t-66 -79t-82.5 -85t-90 -85.5t-103.5 -95h371l-70 -350h-1065l19 101q59 56 146.5 139t139.5 132t123 117t113 110.5t92.5 95.5t79 88.5t55 73t38 65.5t11.5 50q0 36 -21 57.5t-58 21.5q-50 0 -84 -31.5
t-45 -88.5l-6 -29h-403l4 22q46 230 196 353.5t385 123.5q200 0 325 -102t125 -267z" />
    <glyph glyph-name="three" unicode="3" horiz-adv-x="1181" 
d="M1237 1362l-14 -68l-358 -439q109 -40 172 -135t63 -217q0 -160 -82.5 -284.5t-224 -191t-315.5 -66.5q-210 0 -333.5 110t-123.5 294q0 40 6 82h382q-13 -66 19.5 -110t98.5 -44q79 0 132 58.5t53 134.5q0 54 -35 85t-98 31h-230l19 92l282 347h-467l64 321h990z" />
    <glyph glyph-name="four" unicode="4" horiz-adv-x="1251" 
d="M1220 567l-68 -334h-133l-47 -233h-404l46 233h-663l15 78l641 1051h421l-484 -795h184l164 295h254l-60 -295h134z" />
    <glyph glyph-name="five" unicode="5" horiz-adv-x="1175" 
d="M1122 1043h-550l-43 -142h106q212 0 341 -115t129 -292q0 -161 -81 -283.5t-220.5 -186t-314.5 -63.5q-212 0 -335 108.5t-123 291.5q0 35 7 86h375q-14 -72 22.5 -113t100.5 -41q74 0 127.5 53t53.5 130q0 53 -35 84t-93 31h-432l-54 69l214 702h869z" />
    <glyph glyph-name="six" unicode="6" horiz-adv-x="1206" 
d="M757 930q184 0 297.5 -113t113.5 -283q0 -171 -85 -302.5t-231.5 -201t-330.5 -69.5q-216 0 -349.5 126t-133.5 317q0 79 19.5 152.5t62 148t84.5 133t112 144.5l305 380h441q-58 -73 -176 -216.5t-176 -216.5q15 1 47 1zM573 295q90 0 152 63t62 157q0 64 -41.5 102.5
t-109.5 38.5q-90 0 -152 -64.5t-62 -151.5q0 -66 41 -105.5t110 -39.5z" />
    <glyph glyph-name="seven" unicode="7" horiz-adv-x="1165" 
d="M194 1362h1108l-13 -66l-775 -1296h-441l619 1025h-566z" />
    <glyph glyph-name="eight" unicode="8" horiz-adv-x="1255" 
d="M1036 699q128 -98 128 -259q0 -117 -51 -209.5t-141 -150.5t-207 -88.5t-253 -30.5q-223 0 -353 103.5t-130 269.5q0 260 258 404q-94 98 -94 227q0 104 49 188.5t132.5 137.5t192 81.5t230.5 28.5q207 0 327.5 -100.5t120.5 -256.5q0 -111 -54 -193t-155 -152zM692 867
q72 0 120.5 43t48.5 108q0 45 -31.5 71.5t-87.5 26.5q-72 0 -120.5 -43t-48.5 -108q0 -45 31.5 -71.5t87.5 -26.5zM569 258q83 0 142 51t59 130q0 54 -37 85.5t-103 31.5q-86 0 -143 -51.5t-57 -130.5q0 -53 36.5 -84.5t102.5 -31.5z" />
    <glyph glyph-name="nine" unicode="9" horiz-adv-x="1206" 
d="M740 1401q217 0 350.5 -122t133.5 -312q0 -78 -20 -153.5t-62 -150.5t-85.5 -137t-111.5 -146l-307 -380h-439q59 72 176 217t176 217q-30 -2 -48 -2q-185 0 -299 110t-114 279q0 170 86 303t233.5 205t330.5 72zM625 706q90 0 153 61.5t63 154.5q0 66 -42 106t-112 40
q-91 0 -152.5 -60.5t-61.5 -154.5q0 -67 40.5 -107t111.5 -40z" />
    <glyph glyph-name="colon" unicode=":" horiz-adv-x="602" 
d="M139 735l73 368h400l-73 -368h-400zM-9 0l73 368h400l-73 -368h-400z" />
    <glyph glyph-name="semicolon" unicode=";" horiz-adv-x="604" 
d="M139 735l73 368h400l-73 -368h-400zM-69 -383l45 222q75 5 126 48.5t65 112.5h-174l73 368h401l-73 -362q-35 -171 -159 -274t-304 -115z" />
    <glyph glyph-name="less" unicode="&#x3c;" horiz-adv-x="1048" 
d="M1069 1267l-90 -446l-409 -174l341 -168l-84 -424l-777 522l32 155z" />
    <glyph glyph-name="equal" unicode="=" horiz-adv-x="1140" 
d="M140 745l62 304h937l-61 -304h-938zM45 270l61 304h937l-61 -304h-937z" />
    <glyph glyph-name="greater" unicode="&#x3e;" horiz-adv-x="1050" 
d="M267 1267l775 -535l-31 -155l-985 -522l94 470l406 169l-339 173z" />
    <glyph glyph-name="question" unicode="?" horiz-adv-x="1173" 
d="M351 457q33 168 97 261.5t201 177.5q36 22 57.5 37.5t45 38.5t34.5 49t11 57q0 40 -25.5 64t-69.5 24q-52 0 -92 -32t-52 -86h-415q30 219 196.5 343.5t413.5 124.5q216 0 343 -111.5t127 -281.5q0 -69 -16.5 -126.5t-39 -97t-66 -80t-78 -65t-94.5 -62.5
q-103 -65 -139.5 -110.5t-50.5 -124.5h-388zM254 0l73 368h400l-73 -368h-400z" />
    <glyph glyph-name="at" unicode="@" horiz-adv-x="2121" 
d="M1221 1471q249 0 444.5 -99t304 -276t108.5 -401q0 -181 -59 -325t-180 -232t-287 -88q-99 0 -175.5 37t-115.5 104q-140 -127 -336 -127q-179 0 -288 107t-109 278q0 153 74.5 281t204.5 202.5t286 74.5q171 0 269 -135l55 62h171q-95 -488 -96 -501q0 -97 96 -97
q48 0 86 33.5t60 87t33.5 113t11.5 118.5q0 220 -157 355t-420 135q-179 0 -336 -57t-270.5 -157t-179 -243t-65.5 -309q0 -156 72 -271.5t194 -173.5t276 -58q158 0 318 60l-56 -284q-180 -63 -351 -63q-161 0 -300.5 56t-241 156.5t-159.5 247.5t-58 320q0 235 90 435.5
t246.5 339t373.5 216.5t466 78zM1008 363q83 0 143.5 63t60.5 141q0 62 -39 102t-103 40q-83 0 -142.5 -60t-59.5 -145q0 -62 38 -101.5t102 -39.5z" />
    <glyph glyph-name="A" unicode="A" horiz-adv-x="1568" 
d="M993 0l-21 207h-471l-110 -207h-517l856 1434h457l289 -1434h-483zM879 938l-231 -423h291z" />
    <glyph glyph-name="B" unicode="B" horiz-adv-x="1349" 
d="M1111 734q77 -44 119 -118t42 -166q0 -137 -72.5 -240.5t-194.5 -156.5t-273 -53h-726l287 1434h662q182 0 294.5 -94t112.5 -235q0 -115 -69.5 -214t-181.5 -157zM776 871q62 0 103 41.5t41 105.5q0 45 -27 71.5t-74 26.5h-160l-49 -245h166zM681 332q64 0 109.5 44
t45.5 109q0 49 -29.5 77t-80.5 28h-173l-52 -258h180z" />
    <glyph glyph-name="C" unicode="C" horiz-adv-x="1634" 
d="M736 -40q-195 0 -346.5 84t-233.5 229t-82 326q0 184 72 347t195.5 278t294 182t360.5 67q139 0 265 -52t214.5 -138t135.5 -204.5t34 -245.5h-471q-16 100 -82 160t-163 60q-102 0 -187.5 -57.5t-133 -152t-47.5 -202.5q0 -118 66 -188.5t181 -70.5q105 0 195.5 66.5
t133.5 174.5h470q-89 -312 -324.5 -487.5t-546.5 -175.5z" />
    <glyph glyph-name="D" unicode="D" horiz-adv-x="1527" 
d="M880 1434q191 0 337 -77.5t223.5 -213t77.5 -308.5q0 -180 -67.5 -336t-185 -265t-281 -171.5t-350.5 -62.5h-628l287 1434h587zM648 395q178 0 289.5 114t111.5 284q0 116 -71.5 181t-207.5 65h-96l-130 -644h104z" />
    <glyph glyph-name="E" unicode="E" horiz-adv-x="1169" 
d="M1189 1084h-513l-40 -200h457l-64 -326h-459l-41 -203h527l-72 -355h-978l287 1434h966z" />
    <glyph glyph-name="F" unicode="F" horiz-adv-x="1142" 
d="M1178 1056h-497l-42 -210h442l-70 -353h-443l-98 -493h-464l287 1434h960z" />
    <glyph glyph-name="G" unicode="G" horiz-adv-x="1660" 
d="M924 1051q-110 0 -197 -57t-133 -150t-46 -202q0 -119 70 -189.5t192 -70.5q112 0 187.5 40.5t112.5 111.5h-317l50 241h811q-57 -393 -300.5 -604t-615.5 -211q-148 0 -272.5 48t-209.5 132.5t-132.5 202t-47.5 253.5q0 186 70.5 349.5t192.5 279t292.5 182t363.5 66.5
q144 0 272.5 -49t216.5 -129.5t137.5 -187.5t43.5 -220h-488q-20 73 -90 118.5t-163 45.5z" />
    <glyph glyph-name="H" unicode="H" horiz-adv-x="1519" 
d="M1115 1434h463l-287 -1434h-463l108 542h-358l-108 -542h-464l287 1434h463l-102 -514h358z" />
    <glyph glyph-name="I" unicode="I" horiz-adv-x="700" 
d="M6 0l287 1434h467l-287 -1434h-467z" />
    <glyph glyph-name="J" unicode="J" horiz-adv-x="1296" 
d="M508 -40q-231 0 -372 121t-142 318q0 60 18 147h468q-8 -29 -8 -62q0 -48 24.5 -75t73.5 -27q52 0 93 36t53 95l184 921h466l-197 -982q-47 -234 -222.5 -363t-438.5 -129z" />
    <glyph glyph-name="K" unicode="K" horiz-adv-x="1413" 
d="M1596 1434l-588 -713l333 -721h-515l-247 582l-116 -582h-457l287 1434h456l-106 -530l399 530h554z" />
    <glyph glyph-name="L" unicode="L" horiz-adv-x="1091" 
d="M552 394h485l-79 -394h-952l287 1434h467z" />
    <glyph glyph-name="M" unicode="M" horiz-adv-x="2017" 
d="M1491 1434h454l-77 -1434h-440l57 732l-492 -733h-152l-198 731l-235 -730h-477l499 1434h450l160 -704z" />
    <glyph glyph-name="N" unicode="N" horiz-adv-x="1566" 
d="M1188 1434h438l-287 -1434h-374l-382 692l-138 -692h-439l287 1434h372l383 -696z" />
    <glyph glyph-name="O" unicode="O" horiz-adv-x="1726" 
d="M767 -40q-209 0 -366.5 81.5t-241 224.5t-83.5 328q0 194 72.5 359t198.5 278.5t301.5 177.5t376.5 64q315 0 503 -176t188 -457q0 -194 -72.5 -359t-198.5 -279t-301.5 -178t-376.5 -64zM840 382q111 0 201.5 56.5t139 148.5t48.5 198q0 123 -74.5 195t-202.5 72
q-111 0 -201.5 -56.5t-139 -149t-48.5 -198.5q0 -122 74.5 -194t202.5 -72z" />
    <glyph glyph-name="P" unicode="P" horiz-adv-x="1361" 
d="M937 1434q209 0 340 -126t131 -320q0 -131 -50.5 -248t-136.5 -201t-206 -133.5t-254 -49.5h-225l-72 -356h-458l287 1434h644zM718 717q95 0 153.5 64.5t58.5 153.5q0 65 -37.5 102t-110.5 37h-103l-71 -357h110z" />
    <glyph glyph-name="Q" unicode="Q" horiz-adv-x="1736" 
d="M1716 842q1 -211 -83 -385.5t-235 -293.5l237 -385h-518l-124 204q-113 -22 -226 -22q-314 0 -502 176t-189 456q0 259 123.5 460.5t339.5 311t486 109.5q314 0 502 -175.5t189 -455.5zM563 648q0 -122 74.5 -194t202.5 -72q111 0 201.5 56.5t139 148.5t48.5 198
q0 123 -74.5 195t-202.5 72q-167 0 -278 -120t-111 -284z" />
    <glyph glyph-name="R" unicode="R" horiz-adv-x="1406" 
d="M1412 992q0 -164 -76.5 -291.5t-212.5 -203.5l153 -497h-482l-115 401h-136l-80 -401h-457l287 1434h639q215 0 347.5 -123t132.5 -319zM673 1050l-61 -302h127q88 0 142 53t54 131q0 54 -35.5 86t-104.5 32h-122z" />
    <glyph glyph-name="S" unicode="S" horiz-adv-x="1292" 
d="M547 -40q-250 0 -386 108t-136 303q0 44 7 86h479q-3 -15 -3 -28q0 -39 25 -62.5t72 -23.5q54 0 90.5 29t36.5 81q0 21 -11 37.5t-27 28t-45.5 22.5t-53 17t-64.5 16q-46 11 -74 18.5t-72.5 23.5t-73 32.5t-61.5 43t-52 57.5t-32 74.5t-13 95.5q0 130 48 235t134.5 174.5
t205 107t259.5 37.5q233 0 361 -99t128 -277q0 -41 -6 -86h-463q3 12 3 23q0 32 -20.5 51t-58.5 19q-48 0 -78.5 -24t-30.5 -66q0 -18 11 -33.5t26 -26t45 -22t52.5 -18.5t64.5 -19q50 -14 78 -22.5t76 -27t76.5 -35t64.5 -45t55.5 -59.5t33.5 -74.5t14 -94.5
q0 -176 -90.5 -308.5t-245 -200.5t-349.5 -68z" />
    <glyph glyph-name="T" unicode="T" horiz-adv-x="1282" 
d="M1432 1434l-74 -364h-386l-214 -1070h-459l213 1070h-388l73 364h1235z" />
    <glyph glyph-name="U" unicode="U" horiz-adv-x="1507" 
d="M654 -40q-255 0 -408.5 140t-153.5 367q0 15 0.5 28.5t3.5 36t7 44t12 64t16.5 85t23.5 118l30 151t39.5 197t48.5 243.5h474q-126 -626 -151.5 -756.5t-25.5 -156.5q0 -64 39 -101.5t109 -37.5q82 0 141.5 52.5t76.5 136.5l172 863h474l-186 -915
q-56 -272 -250.5 -415.5t-491.5 -143.5z" />
    <glyph glyph-name="V" unicode="V" horiz-adv-x="1513" 
d="M1159 1434h546l-848 -1434h-420l-277 1434h519l84 -792z" />
    <glyph glyph-name="W" unicode="W" horiz-adv-x="2156" 
d="M1830 1434h510l-730 -1434h-390l-120 619l-365 -619h-407l-160 1434h476l51 -730l453 729h178l162 -735z" />
    <glyph glyph-name="X" unicode="X" horiz-adv-x="1409" 
d="M1592 1434l-564 -717l282 -717h-503l-124 362l-266 -362h-552l596 764l-270 670h488l119 -328l240 328h554z" />
    <glyph glyph-name="Y" unicode="Y" horiz-adv-x="1462" 
d="M1640 1434l-679 -892l-110 -542h-462l108 540l-321 894h494l116 -465l302 465h552z" />
    <glyph glyph-name="Z" unicode="Z" horiz-adv-x="1269" 
d="M1379 1434l-23 -122l-687 -907h528l-80 -405h-1180l23 119l687 910h-486l80 405h1138z" />
    <glyph glyph-name="bracketleft" unicode="[" horiz-adv-x="755" 
d="M875 1394h-219l-290 -1444h227l-58 -293h-590l405 2026h585z" />
    <glyph glyph-name="backslash" unicode="\" horiz-adv-x="1134" 
d="M511 -172l-283 1731h452l282 -1731h-451z" />
    <glyph glyph-name="bracketright" unicode="]" horiz-adv-x="757" 
d="M275 1683h585l-405 -2026h-590l59 293h225l290 1444h-223z" />
    <glyph glyph-name="asciicircum" unicode="^" horiz-adv-x="1204" 
d="M1190 694h-405l-78 266l-183 -266h-447l618 744h173z" />
    <glyph glyph-name="underscore" unicode="_" horiz-adv-x="1091" 
d="M-193 -442l67 339h1092l-66 -339h-1093z" />
    <glyph glyph-name="grave" unicode="`" horiz-adv-x="956" 
d="M877 1234h-315l-171 368h434z" />
    <glyph glyph-name="a" unicode="a" horiz-adv-x="1421" 
d="M1102 1106h331l-221 -1106h-310l-26 81q-172 -121 -372 -121q-96 0 -180 31t-149 90.5t-102.5 153.5t-37.5 211q0 128 38.5 241t104 195.5t151 143t181.5 90.5t193 30q203 0 331 -131zM481 513q0 -79 48.5 -129t128.5 -50q103 0 178.5 79t75.5 184q0 78 -49 127.5
t-130 49.5q-104 0 -178 -76.5t-74 -184.5z" />
    <glyph glyph-name="b" unicode="b" horiz-adv-x="1419" 
d="M912 1147q96 0 181.5 -31.5t151 -90.5t104 -151t38.5 -206q0 -190 -90.5 -353t-245.5 -259t-335 -96q-206 0 -335 138l-62 -98h-328l301 1505h432l-85 -422q130 64 273 64zM686 334q102 0 178.5 77.5t76.5 186.5q0 78 -50.5 127.5t-130.5 49.5q-103 0 -178 -77.5
t-75 -186.5q0 -79 49.5 -128t129.5 -49z" />
    <glyph glyph-name="c" unicode="c" horiz-adv-x="1316" 
d="M578 -40q-243 0 -391.5 141t-148.5 361q0 201 95.5 358t262.5 242.5t377 85.5q162 0 283.5 -68.5t182 -186t54.5 -263.5h-425q-3 63 -48.5 99t-112.5 36q-105 0 -169 -79.5t-60 -187.5q1 -74 45.5 -113.5t111.5 -39.5q69 0 128 38.5t84 107.5h423q-60 -249 -250 -390
t-442 -141z" />
    <glyph glyph-name="d" unicode="d" horiz-adv-x="1417" 
d="M1076 1505h431l-301 -1505h-291l-28 95q-172 -135 -386 -135q-217 0 -342.5 137t-125.5 348q0 144 54 273.5t145.5 222.5t217 148t263.5 55q158 0 272 -88zM480 511q0 -80 49 -130t129 -50q102 0 177 77.5t75 186.5q0 80 -49 130t-129 50q-102 0 -177 -77.5t-75 -186.5z
" />
    <glyph glyph-name="e" unicode="e" horiz-adv-x="1333" 
d="M1304 667q0 -99 -30 -209h-827q4 -83 50 -126t128 -43q64 0 117 25t85 72h416q-70 -197 -256.5 -311.5t-415.5 -114.5q-235 0 -384 146t-149 364q0 146 56 272.5t153 215.5t231.5 139.5t287.5 50.5q252 0 395 -130.5t143 -350.5zM714 820q-151 0 -225 -151h407
q-7 72 -54.5 111.5t-127.5 39.5z" />
    <glyph glyph-name="f" unicode="f" horiz-adv-x="903" 
d="M852 1228q-37 0 -61.5 -21t-31.5 -58l-11 -58h246l-66 -326h-228l-154 -765h-440l152 765h-179l66 326h186l25 122q36 178 134.5 258.5t278.5 80.5h315l-66 -324h-166z" />
    <glyph glyph-name="g" unicode="g" horiz-adv-x="1390" 
d="M1104 1106h298l-204 -1019q-52 -262 -235.5 -398.5t-470.5 -136.5q-240 0 -378 115t-152 317h415q7 -41 53 -66.5t110 -25.5q89 0 155.5 52.5t84.5 140.5l4 19q-139 -72 -289 -72q-207 0 -330.5 123.5t-123.5 323.5q0 137 52.5 260.5t140 211.5t207.5 139.5t251 51.5
q101 0 188.5 -37t150.5 -104zM489 548q0 -75 45.5 -121t122.5 -46q98 0 168.5 71t70.5 175q0 76 -46 123t-123 47q-99 0 -168.5 -72t-69.5 -177z" />
    <glyph glyph-name="h" unicode="h" horiz-adv-x="1325" 
d="M901 1146q169 0 269.5 -103.5t100.5 -270.5q0 -18 -1 -34t-3 -34t-8 -50t-11.5 -63.5t-18 -93.5t-24.5 -121.5t-33.5 -166t-42.5 -209.5h-441q40 199 87 433q45 220 45 242q0 49 -24 75t-68 26q-63 0 -107.5 -40.5t-64.5 -114.5l-124 -621h-441l301 1505h441l-85 -422
q114 63 253 63z" />
    <glyph glyph-name="i" unicode="i" horiz-adv-x="641" 
d="M248 1237l72 361h418l-72 -361h-418zM-9 0l221 1106h441l-221 -1106h-441z" />
    <glyph glyph-name="j" unicode="j" horiz-adv-x="665" 
d="M265 1237l72 361h418l-72 -361h-418zM-281 -444l75 377h85q59 0 98.5 36.5t53.5 104.5l206 1032h440l-221 -1110q-47 -236 -188 -338t-404 -102h-145z" />
    <glyph glyph-name="k" unicode="k" horiz-adv-x="1249" 
d="M1362 1106l-436 -544l243 -562h-466l-181 454l-90 -454h-441l301 1505h441l-153 -764l270 365h512z" />
    <glyph glyph-name="l" unicode="l" horiz-adv-x="641" 
d="M-9 0l301 1505h441l-301 -1505h-441z" />
    <glyph glyph-name="m" unicode="m" horiz-adv-x="1929" 
d="M1552 1146q152 0 239.5 -98.5t87.5 -254.5q0 -16 -1 -31t-3.5 -33t-8 -49.5t-12 -65t-19.5 -96.5t-25.5 -126.5t-34.5 -172.5t-44 -219h-440q134 659 136 690q1 5 1 11q0 82 -77 82q-110 0 -148 -146q-8 -44 -23.5 -119t-46 -226.5t-58.5 -291.5h-428q39 196 87 432
q35 174 41.5 209t6.5 51q0 91 -76 91q-55 0 -94.5 -42.5t-56.5 -120.5l-123 -620h-441l221 1106h312l23 -92q153 132 345 132q93 0 166 -41t115 -114q160 155 379 155z" />
    <glyph glyph-name="n" unicode="n" horiz-adv-x="1325" 
d="M902 1146q169 0 268.5 -104t99.5 -272q0 -16 -0.5 -29t-3 -33.5t-5 -37.5t-9 -52.5t-12.5 -67t-18.5 -92.5t-24 -117t-31 -153t-37.5 -188h-441q127 634 130 655q1 10 1 19q0 49 -23.5 75.5t-67.5 26.5q-63 0 -108.5 -41.5t-64.5 -116.5l-123 -618h-441l221 1106h315
l21 -87q142 127 354 127z" />
    <glyph glyph-name="o" unicode="o" horiz-adv-x="1363" 
d="M601 -40q-156 0 -282.5 58.5t-203.5 175.5t-77 275q0 197 98.5 353.5t264 241t364.5 84.5q155 0 281 -59t203.5 -177t77.5 -275q0 -150 -57 -277.5t-155 -214.5t-231 -136t-283 -49zM642 345q102 0 175 74t73 182q0 73 -45 118.5t-121 45.5q-102 0 -175 -74.5t-73 -183.5
q0 -73 45 -117.5t121 -44.5z" />
    <glyph glyph-name="p" unicode="p" horiz-adv-x="1409" 
d="M906 1149q202 0 335.5 -135t133.5 -354q0 -145 -52 -274.5t-141 -223t-213 -148t-263 -54.5q-158 0 -274 84l-89 -443h-432l301 1505h307l24 -80q168 123 363 123zM676 334q102 0 177.5 78t75.5 189q0 79 -48.5 128.5t-128.5 49.5q-103 0 -178 -78t-75 -189
q0 -79 48.5 -128.5t128.5 -49.5z" />
    <glyph glyph-name="q" unicode="q" horiz-adv-x="1411" 
d="M1123 1106h298l-303 -1505h-431l83 418q-128 -59 -264 -59q-216 0 -343.5 136.5t-127.5 349.5q0 149 52.5 279.5t143.5 222.5t217.5 145t269.5 53q210 0 331 -142zM481 511q0 -79 49.5 -129.5t128.5 -50.5q103 0 178 78t75 188q0 79 -49 129t-129 50q-102 0 -177.5 -78.5
t-75.5 -186.5z" />
    <glyph glyph-name="r" unicode="r" horiz-adv-x="888" 
d="M857 1110h122l-78 -393h-163q-156 0 -192 -147l-114 -570h-441l221 1106h308l35 -107q124 111 302 111z" />
    <glyph glyph-name="s" unicode="s" horiz-adv-x="1105" 
d="M453 -40q-214 0 -333.5 88t-119.5 239q0 33 6 69h419q-4 -13 -4 -28q0 -34 22 -52t56 -18q36 0 63.5 22t27.5 61q0 33 -39 50.5t-124 35.5q-33 7 -49.5 11t-49 13.5t-51 17t-46.5 21t-44.5 27t-36.5 34t-30 43t-17.5 52t-7.5 63.5q0 210 154 323.5t401 113.5
q201 0 320 -87t119 -232q0 -16 -4 -54h-408q2 12 2 19q0 29 -18 47.5t-54 18.5q-33 0 -60 -20.5t-27 -56.5q0 -18 12 -31t31.5 -21t48.5 -15.5t59 -13.5q11 -2 17 -3q43 -9 65.5 -14t64.5 -17t66 -24.5t55 -34.5t47.5 -47.5t28.5 -62.5t12 -82q0 -143 -77 -247.5
t-205.5 -156t-291.5 -51.5z" />
    <glyph glyph-name="t" unicode="t" horiz-adv-x="948" 
d="M932 769h-246q-61 -296 -61 -310q0 -35 22.5 -55t61.5 -20h152l-77 -384h-273q-160 0 -252.5 87t-92.5 234q0 10 0.5 18t1.5 21t2.5 23t5.5 31.5t7.5 39t10.5 53.5t13 67t17.5 87.5t21.5 107.5h-206l21 107l656 580h94l-70 -350h259z" />
    <glyph glyph-name="u" unicode="u" horiz-adv-x="1302" 
d="M554 -40q-221 0 -356 121.5t-135 316.5q0 48 13.5 124t67.5 340q31 149 50 244h441q-22 -108 -42 -209.5t-32.5 -160.5t-23.5 -113t-16 -81t-9.5 -50t-5.5 -33.5t-1 -19.5q0 -46 27 -71t75 -25q57 0 98.5 37.5t54.5 102.5l124 623h442l-131 -652q-48 -238 -216.5 -366
t-424.5 -128z" />
    <glyph glyph-name="v" unicode="v" horiz-adv-x="1280" 
d="M911 1106h493l-676 -1106h-393l-236 1106h477l48 -595z" />
    <glyph glyph-name="w" unicode="w" horiz-adv-x="1798" 
d="M1441 1106h471l-568 -1106h-339l-106 451l-287 -451h-372l-136 1106h463l22 -525l348 524h121l149 -537z" />
    <glyph glyph-name="x" unicode="x" horiz-adv-x="1241" 
d="M1355 1106l-447 -536l255 -570h-457l-111 293l-215 -293h-519l489 595l-236 511h451l101 -245l189 245h500z" />
    <glyph glyph-name="y" unicode="y" horiz-adv-x="1300" 
d="M931 1106h492l-685 -1107q-80 -129 -150 -209.5t-150 -129t-166.5 -66.5t-206.5 -18h-171l73 365h101q109 0 166.5 33t110.5 123l-248 1009h461l88 -549z" />
    <glyph glyph-name="z" unicode="z" horiz-adv-x="1071" 
d="M1127 1106l-17 -83l-519 -658h397l-73 -365h-988l16 82l526 660h-366l73 364h951z" />
    <glyph glyph-name="braceleft" unicode="{" horiz-adv-x="821" 
d="M980 1688l-59 -300h-160l-94 -464q-18 -91 -74 -158.5t-138 -93.5q54 -26 83 -79t29 -123q0 -36 -73 -398q-15 -73 -23 -114h164l-60 -303h-258q-104 0 -172 67.5t-68 169.5q0 34 49 278t54 286q2 40 -24 66t-68 26h-46l54 266h46q47 0 86.5 32.5t48.5 79.5l106 534
q21 108 100.5 168t192.5 60h304z" />
    <glyph glyph-name="bar" unicode="|" horiz-adv-x="673" 
d="M-64 -389l422 2109h425l-422 -2109h-425z" />
    <glyph glyph-name="braceright" unicode="}" horiz-adv-x="819" 
d="M778 789h46l-53 -266h-46q-47 0 -86.5 -33t-48.5 -80l-105 -526q-21 -109 -100 -169t-191 -60h-306l59 301h160l93 459q19 92 74.5 159t137.5 93q-55 25 -83.5 78.5t-28.5 123.5q0 28 11.5 89.5t57.5 290.5q18 86 28 137h-164l60 302h257q104 0 172.5 -67.5t68.5 -168.5
q0 -40 -52.5 -294.5t-52.5 -280.5q0 -39 25.5 -63.5t66.5 -24.5z" />
    <glyph glyph-name="asciitilde" unicode="~" horiz-adv-x="1208" 
d="M815 457q-53 0 -105.5 13.5t-82 27.5t-71.5 37q-75 42 -108 42q-44 0 -65.5 -28t-33.5 -88h-283q43 223 125.5 313t252.5 90q74 0 133.5 -22.5t123.5 -60.5q71 -43 105 -43q46 0 66 28t33 96h286q-41 -222 -124 -313.5t-252 -91.5z" />
    <glyph glyph-name="uni00A0" unicode="&#xa0;" horiz-adv-x="411" 
 />
    <glyph glyph-name="exclamdown" unicode="&#xa1;" horiz-adv-x="618" 
d="M623 1106l-73 -368h-400l73 368h400zM519 629l-199 -998h-384l199 998h384z" />
    <glyph glyph-name="cent" unicode="&#xa2;" horiz-adv-x="1302" 
d="M706 725q-100 0 -164.5 -73t-64.5 -175q0 -69 40 -109t111 -40q65 0 122 39.5t79 98.5h407q-46 -184 -183 -311.5t-324 -167.5l-32 -154h-360l35 169q-147 51 -231 170.5t-84 277.5q0 240 145 405.5t382 212.5l37 176h360l-38 -185q153 -46 236.5 -167t79.5 -293h-405
q-3 55 -45 90.5t-103 35.5z" />
    <glyph glyph-name="sterling" unicode="&#xa3;" horiz-adv-x="1267" 
d="M1258 956h-372q10 41 10 64q0 40 -25.5 63.5t-68.5 23.5q-49 0 -86.5 -32t-48.5 -86l-40 -202h233l-51 -252h-233l-49 -243h290l32 155h339l-89 -447h-1140l39 200l137 71l52 264h-103l51 252h102l46 234q38 189 183 284.5t379 95.5q197 0 310.5 -97t113.5 -251
q0 -34 -11 -97z" />
    <glyph glyph-name="currency" unicode="&#xa4;" horiz-adv-x="1327" 
d="M1176 674q0 -149 -93 -284l132 -163l-250 -208l-129 163q-118 -54 -238 -54q-98 0 -188 50l-189 -159l-198 244l185 153q-29 76 -29 158q0 150 92 284l-126 161l250 210l129 -161q117 52 236 52q97 0 186 -49l188 158l194 -244l-181 -152q29 -76 29 -159zM503 590
q0 -58 38.5 -96.5t98.5 -38.5q83 0 146.5 59t63.5 144q0 59 -39.5 98t-100.5 39q-83 0 -145 -59.5t-62 -145.5z" />
    <glyph glyph-name="yen" unicode="&#xa5;" horiz-adv-x="1472" 
d="M1582 1362l-572 -703h270l-42 -210h-327l-20 -100h327l-40 -200h-327l-29 -149h-408l30 149h-326l39 200h327l20 100h-326l42 210h267l-288 703h442l143 -460l327 460h471z" />
    <glyph glyph-name="brokenbar" unicode="&#xa6;" horiz-adv-x="673" 
d="M178 819l180 901h425l-181 -901h-424zM-64 -389l184 921h425l-184 -921h-425z" />
    <glyph glyph-name="section" unicode="&#xa7;" horiz-adv-x="1103" 
d="M1109 1104h-364q6 31 -9.5 50t-54.5 19q-35 0 -59 -18t-24 -48q0 -33 40 -53.5t119 -41.5q307 -83 307 -316q0 -218 -196 -314q53 -74 53 -153q0 -193 -133.5 -289.5t-363.5 -96.5q-189 0 -291.5 80t-102.5 226q0 9 5 56h363q-6 -31 10.5 -50t55.5 -19q36 0 59.5 18
t23.5 48q0 33 -39.5 53t-119.5 41q-307 83 -307 314q0 225 197 318q-54 73 -54 153q0 192 132.5 288.5t361.5 96.5q191 0 292.5 -80.5t101.5 -227.5q0 -28 -3 -54zM690 660q0 36 -36 57.5t-114 37.5q-37 -10 -60.5 -35.5t-23.5 -61.5q0 -62 147 -95q87 24 87 97z" />
    <glyph glyph-name="dieresis" unicode="&#xa8;" horiz-adv-x="1353" 
d="M252 1240l69 349h353l-70 -349h-352zM806 1240l70 349h352l-70 -349h-352z" />
    <glyph glyph-name="copyright" unicode="&#xa9;" horiz-adv-x="1718" 
d="M763 -38q-195 0 -349 82.5t-240 229t-86 329.5q0 189 71.5 351t195 275.5t295.5 177.5t369 64q194 0 349 -83.5t241.5 -230.5t86.5 -329q0 -188 -71.5 -350t-196 -275t-297 -177t-368.5 -64zM803 180q138 0 259.5 48.5t208.5 132t137.5 199.5t50.5 246q0 196 -133 322.5
t-347 126.5q-136 0 -258.5 -50t-210 -135t-138.5 -201.5t-51 -245.5q0 -195 133.5 -319t348.5 -124zM825 322q-164 0 -261.5 91.5t-97.5 237.5q0 203 143.5 333.5t361.5 130.5q165 0 263.5 -94.5t81.5 -251.5h-287q-1 39 -32 64t-74 25q-71 0 -115 -49.5t-44 -118.5
q0 -51 29.5 -81t80.5 -30q45 0 85 27t56 69h283q-51 -160 -179.5 -256.5t-293.5 -96.5z" />
    <glyph glyph-name="ordfeminine" unicode="&#xaa;" horiz-adv-x="927" 
d="M802 1449h203l-136 -678h-208l-14 44q-97 -65 -212 -65q-132 0 -209 79t-77 206q0 187 122 312t306 125q113 0 187 -74zM420 1080q0 -45 29.5 -74t77.5 -29q63 0 111.5 48t48.5 114q0 47 -29.5 76t-77.5 29q-65 0 -112.5 -48.5t-47.5 -115.5z" />
    <glyph glyph-name="guillemotleft" unicode="&#xab;" horiz-adv-x="1558" 
d="M932 1020l-420 -471l236 -476h-467l-232 460l6 37l408 450h469zM1600 1020l-422 -473l235 -474h-467l-231 458l6 36l409 453h470z" />
    <glyph glyph-name="logicalnot" unicode="&#xac;" horiz-adv-x="1226" 
d="M141 940h1059l-141 -704h-385l71 360h-674z" />
    <glyph glyph-name="registered" unicode="&#xae;" horiz-adv-x="1067" 
d="M709 1470q178 0 283 -105.5t105 -274.5q0 -240 -159.5 -399.5t-402.5 -159.5q-178 0 -283.5 106t-105.5 275q0 238 160.5 398t402.5 160zM560 687q108 0 196 53.5t136.5 142.5t48.5 193q0 108 -68.5 173t-188.5 65q-162 0 -272 -114.5t-110 -273.5q0 -109 69.5 -174
t188.5 -65zM694 1213q61 0 99.5 -37.5t38.5 -94.5q0 -102 -83 -148l40 -138h-150l-32 114h-37l-23 -114h-143l84 418h206zM607 1096l-16 -80h39q22 0 37.5 14t15.5 35q0 31 -37 31h-39z" />
    <glyph glyph-name="macron" unicode="&#xaf;" horiz-adv-x="1048" 
d="M317 1270l56 274h696l-56 -274h-696z" />
    <glyph glyph-name="degree" unicode="&#xb0;" horiz-adv-x="823" 
d="M495 997q-135 0 -221.5 86t-86.5 217q0 173 135.5 296t317.5 123q136 0 222.5 -86.5t86.5 -217.5q0 -114 -63.5 -211t-168 -152t-222.5 -55zM549 1249q53 0 91.5 38t38.5 90q0 40 -26 65t-68 25q-53 0 -90.5 -38t-37.5 -92q0 -39 25 -63.5t67 -24.5z" />
    <glyph glyph-name="plusminus" unicode="&#xb1;" horiz-adv-x="1132" 
d="M855 1052h284l-68 -345h-285l-48 -246h-371l49 246h-287l68 345h287l55 275h370zM-24 0l63 312h965l-62 -312h-966z" />
    <glyph glyph-name="acute" unicode="&#xb4;" horiz-adv-x="974" 
d="M317 1234l198 368h432l-316 -368h-314z" />
    <glyph glyph-name="paragraph" unicode="&#xb6;" horiz-adv-x="1556" 
d="M1663 1434l-70 -351h-191l-261 -1303h-361l261 1303h-155l-261 -1303h-360l144 717q-137 36 -215 132.5t-78 228.5q0 118 51 225t136.5 183.5t201.5 122t240 45.5h918z" />
    <glyph glyph-name="periodcentered" unicode="&#xb7;" horiz-adv-x="598" 
d="M100 559l73 368h400l-73 -368h-400z" />
    <glyph glyph-name="cedilla" unicode="&#xb8;" horiz-adv-x="1169" 
d="M300 -73q78 -9 122.5 -51t44.5 -109q0 -110 -78 -181t-194 -71h-216l35 171h142q31 0 51.5 17.5t20.5 45.5q0 19 -14 30.5t-37 11.5h-99l-17 33l137 291h191z" />
    <glyph glyph-name="ordmasculine" unicode="&#xba;" horiz-adv-x="874" 
d="M472 750q-151 0 -239 76t-88 204q0 124 63.5 226t171.5 159t237 57q154 0 241 -76t87 -206q0 -187 -137.5 -313.5t-335.5 -126.5zM520 985q61 0 106 44.5t45 105.5q0 45 -28 73.5t-74 28.5q-61 0 -105.5 -46t-44.5 -108q0 -44 27.5 -71t73.5 -27z" />
    <glyph glyph-name="guillemotright" unicode="&#xbb;" horiz-adv-x="1560" 
d="M841 565l-6 -37l-413 -455h-467l420 473l-232 474h468zM1281 1020l230 -455l-6 -37l-412 -455h-468l420 473l-232 474h468z" />
    <glyph glyph-name="onequarter" unicode="&#xbc;" horiz-adv-x="2060" 
d="M1383 1495h274l-1139 -1556h-274zM465 602h-273l126 633h-139l38 199h413zM1974 330l-40 -193h-80l-28 -139h-255l27 139h-404l13 69l388 624h266l-303 -500h97l123 208h156l-42 -208h82z" />
    <glyph glyph-name="onehalf" unicode="&#xbd;" horiz-adv-x="1978" 
d="M1383 1495h274l-1139 -1556h-274zM465 602h-273l126 633h-139l38 199h413zM1913 619q0 -42 -16 -85t-36.5 -76.5t-67 -82.5t-78.5 -80t-100 -92h236l-41 -204h-656l19 84q30 27 82.5 75t80.5 74t72.5 67t69 65.5t57.5 57t50.5 54t35 45t25 40.5t7.5 30q0 48 -47 48
q-37 0 -54.5 -22.5t-24.5 -69.5h-250q21 152 111 230.5t244 78.5q122 0 201.5 -67.5t79.5 -169.5z" />
    <glyph glyph-name="threequarters" unicode="&#xbe;" horiz-adv-x="2269" 
d="M1592 1495h273l-1138 -1556h-274zM774 910q0 -147 -106 -239t-268 -92q-141 0 -222.5 82t-63.5 215h236q-5 -42 13 -67t60 -25q46 0 77 33t31 82q0 32 -20.5 50.5t-56.5 18.5h-141l12 58l175 213h-289l41 195h607l-8 -41l-222 -270q67 -26 106 -83t39 -130zM2183 330
l-40 -193h-80l-28 -139h-255l27 139h-404l13 69l388 624h266l-303 -500h96l123 208h157l-42 -208h82z" />
    <glyph glyph-name="questiondown" unicode="&#xbf;" horiz-adv-x="1165" 
d="M442 738l73 368h400l-73 -368h-400zM416 -420q-218 0 -343 111t-125 283q0 66 15.5 122t38.5 96.5t64 80.5t79 67t95 63q108 68 140 109.5t50 126.5h388q-33 -168 -96 -262t-202 -178q-37 -23 -58.5 -37.5t-45 -37t-34 -48.5t-10.5 -58q0 -41 26 -65t69 -24q53 0 93 32
t52 86h414q-20 -145 -103.5 -251.5t-214 -161t-292.5 -54.5z" />
    <glyph glyph-name="Agrave" unicode="&#xc0;" horiz-adv-x="1568" 
d="M1128 1553h-314l-254 345h453zM993 0l-21 207h-471l-110 -207h-517l856 1434h457l289 -1434h-483zM879 938l-231 -423h291z" />
    <glyph glyph-name="Aacute" unicode="&#xc1;" horiz-adv-x="1568" 
d="M1497 1898l-390 -345h-314l250 345h454zM730 1434h457l289 -1434h-483l-21 207h-471l-110 -207h-517zM879 938l-231 -423h291z" />
    <glyph glyph-name="Acircumflex" unicode="&#xc2;" horiz-adv-x="1568" 
d="M1006 1716l-186 -163h-336l321 345h436l185 -345h-299zM993 0l-21 207h-471l-110 -207h-517l856 1434h457l289 -1434h-483zM879 938l-231 -423h291z" />
    <glyph glyph-name="Atilde" unicode="&#xc3;" horiz-adv-x="1568" 
d="M835 1654q-71 0 -81 -100h-243q29 174 121 261t232 87q87 0 185 -69q57 -41 89 -41q37 0 55 26t26 79h245q-31 -173 -123.5 -259.5t-229.5 -86.5q-94 0 -189 65q-55 38 -87 38zM993 0l-21 207h-471l-110 -207h-517l856 1434h457l289 -1434h-483zM879 938l-231 -423h291z
" />
    <glyph glyph-name="Adieresis" unicode="&#xc4;" horiz-adv-x="1568" 
d="M955 1914l-73 -361h-372l73 361h372zM1525 1914l-73 -361h-372l73 361h372zM730 1434h457l289 -1434h-483l-21 207h-471l-110 -207h-517zM879 938l-231 -423h291z" />
    <glyph glyph-name="Aring" unicode="&#xc5;" horiz-adv-x="1568" 
d="M966 1474q-113 0 -181.5 61.5t-68.5 163.5q0 140 106 239t254 99q112 0 180 -60.5t68 -159.5q0 -148 -105.5 -245.5t-252.5 -97.5zM1039 1860q-52 0 -89.5 -36.5t-37.5 -89.5q0 -38 24.5 -60.5t66.5 -22.5q52 0 88.5 37.5t36.5 90.5q0 36 -24.5 58.5t-64.5 22.5zM993 0
l-21 207h-471l-110 -207h-517l856 1434h457l289 -1434h-483zM879 938l-231 -423h291z" />
    <glyph glyph-name="AE" unicode="&#xc6;" horiz-adv-x="1972" 
d="M1988 1078h-495l-40 -197h442l-64 -327h-443l-40 -198h510l-71 -356h-915l40 203h-425l-150 -203h-489l1101 1434h1111zM710 506h263l98 490z" />
    <glyph glyph-name="Ccedilla" unicode="&#xc7;" horiz-adv-x="1634" 
d="M929 1053q-102 0 -187.5 -57.5t-133 -152t-47.5 -202.5q0 -118 66 -188.5t181 -70.5q105 0 195.5 66.5t133.5 174.5h470q-80 -282 -282.5 -453.5t-474.5 -202.5l-18 -39q77 -14 117.5 -62t40.5 -113q0 -99 -83.5 -177t-216.5 -78h-226l38 189h164q32 0 52 19t20 43
q0 19 -13.5 30t-37.5 11h-128l-13 23l73 155q-247 37 -396 211t-149 420q0 184 72 347t195.5 278t294 182t360.5 67q139 0 265 -52t214.5 -138t135.5 -204.5t34 -245.5h-471q-16 100 -82 160t-163 60z" />
    <glyph glyph-name="Egrave" unicode="&#xc8;" horiz-adv-x="1169" 
d="M954 1553h-315l-254 345h454zM1189 1084h-513l-40 -200h457l-64 -326h-459l-41 -203h527l-72 -355h-978l287 1434h966z" />
    <glyph glyph-name="Eacute" unicode="&#xc9;" horiz-adv-x="1169" 
d="M1322 1898l-389 -345h-315l251 345h453zM6 0l287 1434h966l-70 -350h-513l-40 -200h457l-64 -326h-459l-41 -203h527l-72 -355h-978z" />
    <glyph glyph-name="Ecircumflex" unicode="&#xca;" horiz-adv-x="1169" 
d="M831 1716l-185 -163h-336l321 345h435l186 -345h-299zM1189 1084h-513l-40 -200h457l-64 -326h-459l-41 -203h527l-72 -355h-978l287 1434h966z" />
    <glyph glyph-name="Edieresis" unicode="&#xcb;" horiz-adv-x="1169" 
d="M781 1914l-74 -361h-371l73 361h372zM979 1914h372l-73 -361h-372zM6 0l287 1434h966l-70 -350h-513l-40 -200h457l-64 -326h-459l-41 -203h527l-72 -355h-978z" />
    <glyph glyph-name="Igrave" unicode="&#xcc;" horiz-adv-x="700" 
d="M712 1554h-325l-118 350h443v-350zM6 0l287 1434h467l-287 -1434h-467z" />
    <glyph glyph-name="Iacute" unicode="&#xcd;" horiz-adv-x="700" 
d="M359 1554l225 350h452l-362 -350h-315zM6 0l287 1434h467l-287 -1434h-467z" />
    <glyph glyph-name="Icircumflex" unicode="&#xce;" horiz-adv-x="700" 
d="M582 1706l-159 -150h-334l281 349h468l143 -349h-300zM6 0l287 1434h467l-287 -1434h-467z" />
    <glyph glyph-name="Idieresis" unicode="&#xcf;" horiz-adv-x="700" 
d="M91 1553l74 361h361l-73 -361h-362zM642 1553l74 361h361l-73 -361h-362zM6 0l287 1434h467l-287 -1434h-467z" />
    <glyph glyph-name="Eth" unicode="&#xd0;" horiz-adv-x="1583" 
d="M935 1434q144 0 264 -45t202 -124.5t127.5 -190t45.5 -239.5q0 -180 -68 -336t-185.5 -265t-281 -171.5t-350.5 -62.5h-627l111 557h-146l65 325h146l111 552h586zM704 395q178 0 289.5 114t111.5 284q0 116 -72 181t-208 65h-96l-31 -157h189l-64 -325h-191l-32 -162
h104z" />
    <glyph glyph-name="Ntilde" unicode="&#xd1;" horiz-adv-x="1566" 
d="M848 1654q-72 0 -82 -100h-243q29 174 121 261t232 87q88 0 186 -69q57 -41 88 -41q37 0 55 26t26 79h245q-31 -173 -123 -259.5t-229 -86.5q-94 0 -189 65q-55 38 -87 38zM1188 1434h438l-287 -1434h-374l-382 692l-138 -692h-439l287 1434h372l383 -696z" />
    <glyph glyph-name="Ograve" unicode="&#xd2;" horiz-adv-x="1726" 
d="M898 1553l-254 345h454l114 -345h-314zM767 -40q-209 0 -366.5 81.5t-241 224.5t-83.5 328q0 194 72.5 359t198.5 278.5t301.5 177.5t376.5 64q315 0 503 -176t188 -457q0 -194 -72.5 -359t-198.5 -279t-301.5 -178t-376.5 -64zM840 382q111 0 201.5 56.5t139 148.5
t48.5 198q0 123 -74.5 195t-202.5 72q-111 0 -201.5 -56.5t-139 -149t-48.5 -198.5q0 -122 74.5 -194t202.5 -72z" />
    <glyph glyph-name="Oacute" unicode="&#xd3;" horiz-adv-x="1726" 
d="M877 1553l250 345h454l-390 -345h-314zM767 -40q-209 0 -366.5 81.5t-241 224.5t-83.5 328q0 194 72.5 359t198.5 278.5t301.5 177.5t376.5 64q315 0 503 -176t188 -457q0 -194 -72.5 -359t-198.5 -279t-301.5 -178t-376.5 -64zM840 382q111 0 201.5 56.5t139 148.5
t48.5 198q0 123 -74.5 195t-202.5 72q-111 0 -201.5 -56.5t-139 -149t-48.5 -198.5q0 -122 74.5 -194t202.5 -72z" />
    <glyph glyph-name="Ocircumflex" unicode="&#xd4;" horiz-adv-x="1726" 
d="M1090 1716l-186 -163h-336l321 345h436l185 -345h-298zM1025 1473q315 0 503 -176t188 -457q0 -194 -72.5 -359t-198.5 -279t-301.5 -178t-376.5 -64q-209 0 -366.5 81.5t-241 224.5t-83.5 328q0 194 72.5 359t198.5 278.5t301.5 177.5t376.5 64zM840 382
q111 0 201.5 56.5t139 148.5t48.5 198q0 123 -74.5 195t-202.5 72q-111 0 -201.5 -56.5t-139 -149t-48.5 -198.5q0 -122 74.5 -194t202.5 -72z" />
    <glyph glyph-name="Otilde" unicode="&#xd5;" horiz-adv-x="1726" 
d="M1195 1551q-93 0 -188 65q-55 38 -88 38q-71 0 -81 -100h-243q29 174 121 261t232 87q88 0 186 -69q57 -41 88 -41q37 0 55 26t26 79h245q-31 -173 -123.5 -259.5t-229.5 -86.5zM767 -40q-209 0 -366.5 81.5t-241 224.5t-83.5 328q0 194 72.5 359t198.5 278.5
t301.5 177.5t376.5 64q315 0 503 -176t188 -457q0 -194 -72.5 -359t-198.5 -279t-301.5 -178t-376.5 -64zM840 382q111 0 201.5 56.5t139 148.5t48.5 198q0 123 -74.5 195t-202.5 72q-111 0 -201.5 -56.5t-139 -149t-48.5 -198.5q0 -122 74.5 -194t202.5 -72z" />
    <glyph glyph-name="Odieresis" unicode="&#xd6;" horiz-adv-x="1726" 
d="M594 1553l73 361h372l-73 -361h-372zM1164 1553l74 361h371l-73 -361h-372zM767 -40q-209 0 -366.5 81.5t-241 224.5t-83.5 328q0 194 72.5 359t198.5 278.5t301.5 177.5t376.5 64q315 0 503 -176t188 -457q0 -194 -72.5 -359t-198.5 -279t-301.5 -178t-376.5 -64z
M840 382q111 0 201.5 56.5t139 148.5t48.5 198q0 123 -74.5 195t-202.5 72q-111 0 -201.5 -56.5t-139 -149t-48.5 -198.5q0 -122 74.5 -194t202.5 -72z" />
    <glyph glyph-name="multiply" unicode="&#xd7;" horiz-adv-x="1179" 
d="M1201 936l-337 -281l225 -282l-300 -248l-224 280l-337 -281l-208 258l338 282l-219 273l301 249l217 -272l336 280z" />
    <glyph glyph-name="Oslash" unicode="&#xd8;" horiz-adv-x="1755" 
d="M1554 1291q95 -87 148 -210t53 -256q0 -181 -78.5 -342.5t-209.5 -275.5t-307.5 -180.5t-367.5 -66.5q-124 0 -249 36l-89 -109h-406l216 259q-92 88 -143.5 210t-51.5 253q0 180 78.5 341.5t209.5 275.5t307.5 180.5t367.5 66.5q118 0 241 -33l80 101h408zM958 1084
q-116 0 -216.5 -60t-158 -157.5t-57.5 -205.5q0 -83 41 -151l442 569q-28 5 -51 5zM866 350q116 0 216.5 60t158 157.5t57.5 205.5q0 88 -46 158l-446 -575q30 -6 60 -6z" />
    <glyph glyph-name="Ugrave" unicode="&#xd9;" horiz-adv-x="1507" 
d="M767 1553l-254 345h453l115 -345h-314zM654 -40q-255 0 -408.5 140t-153.5 367q0 15 0.5 28.5t3.5 36t7 44t12 64t16.5 85t23.5 118l30 151t39.5 197t48.5 243.5h474q-126 -626 -151.5 -756.5t-25.5 -156.5q0 -64 39 -101.5t109 -37.5q82 0 141.5 52.5t76.5 136.5
l172 863h474l-186 -915q-56 -272 -250.5 -415.5t-491.5 -143.5z" />
    <glyph glyph-name="Uacute" unicode="&#xda;" horiz-adv-x="1507" 
d="M746 1553l250 345h454l-390 -345h-314zM654 -40q-255 0 -408.5 140t-153.5 367q0 15 0.5 28.5t3.5 36t7 44t12 64t16.5 85t23.5 118l30 151t39.5 197t48.5 243.5h474q-126 -626 -151.5 -756.5t-25.5 -156.5q0 -64 39 -101.5t109 -37.5q82 0 141.5 52.5t76.5 136.5
l172 863h474l-186 -915q-56 -272 -250.5 -415.5t-491.5 -143.5z" />
    <glyph glyph-name="Ucircumflex" unicode="&#xdb;" horiz-adv-x="1507" 
d="M959 1716l-186 -163h-336l321 345h436l185 -345h-298zM1108 1434h474l-186 -915q-56 -272 -250.5 -415.5t-491.5 -143.5q-255 0 -408.5 140t-153.5 367q0 15 0.5 28.5t3.5 36t7 44t12 64t16.5 85t23.5 118l30 151t39.5 197t48.5 243.5h474q-126 -626 -151.5 -756.5
t-25.5 -156.5q0 -64 39 -101.5t109 -37.5q82 0 141.5 52.5t76.5 136.5z" />
    <glyph glyph-name="Udieresis" unicode="&#xdc;" horiz-adv-x="1507" 
d="M463 1553l73 361h372l-73 -361h-372zM1033 1553l73 361h372l-73 -361h-372zM654 -40q-255 0 -408.5 140t-153.5 367q0 15 0.5 28.5t3.5 36t7 44t12 64t16.5 85t23.5 118l30 151t39.5 197t48.5 243.5h474q-126 -626 -151.5 -756.5t-25.5 -156.5q0 -64 39 -101.5t109 -37.5
q82 0 141.5 52.5t76.5 136.5l172 863h474l-186 -915q-56 -272 -250.5 -415.5t-491.5 -143.5z" />
    <glyph glyph-name="Yacute" unicode="&#xdd;" horiz-adv-x="1462" 
d="M1430 1898l-389 -345h-315l251 345h453zM1640 1434l-679 -892l-110 -542h-462l108 540l-321 894h494l116 -465l302 465h552z" />
    <glyph glyph-name="Thorn" unicode="&#xde;" horiz-adv-x="1376" 
d="M902 1254q207 0 337.5 -129t130.5 -325q0 -175 -84.5 -318.5t-232.5 -224.5t-329 -81h-224l-36 -176h-458l287 1434h458l-36 -180h187zM682 537q96 0 154 63.5t58 152.5q0 66 -37.5 104t-110.5 38h-103l-71 -358h110z" />
    <glyph glyph-name="germandbls" unicode="&#xdf;" horiz-adv-x="1353" 
d="M1141 775q72 -48 111 -121.5t39 -162.5q0 -98 -34.5 -179t-96 -138t-146.5 -96.5t-185.5 -58.5t-213.5 -19h-96l69 349h77q88 0 142 45.5t54 117.5q0 51 -37.5 79.5t-106.5 28.5h-69l64 320h49q80 0 134.5 47.5t54.5 117.5q0 47 -33.5 74t-91.5 27q-75 0 -123 -45.5
t-64 -127.5l-206 -1033h-441l203 1016q52 263 225 395.5t440 132.5q216 0 358.5 -106.5t142.5 -292.5q0 -121 -56.5 -210t-162.5 -160z" />
    <glyph glyph-name="agrave" unicode="&#xe0;" horiz-adv-x="1421" 
d="M969 1234h-314l-172 368h434zM1102 1106h331l-221 -1106h-310l-26 81q-172 -121 -372 -121q-96 0 -180 31t-149 90.5t-102.5 153.5t-37.5 211q0 128 38.5 241t104 195.5t151 143t181.5 90.5t193 30q203 0 331 -131zM481 513q0 -79 48.5 -129t128.5 -50q103 0 178.5 79
t75.5 184q0 78 -49 127.5t-130 49.5q-104 0 -178 -76.5t-74 -184.5z" />
    <glyph glyph-name="aacute" unicode="&#xe1;" horiz-adv-x="1421" 
d="M1248 1602l-316 -368h-315l198 368h433zM1102 1106h331l-221 -1106h-310l-26 81q-172 -121 -372 -121q-96 0 -180 31t-149 90.5t-102.5 153.5t-37.5 211q0 128 38.5 241t104 195.5t151 143t181.5 90.5t193 30q203 0 331 -131zM481 513q0 -79 48.5 -129t128.5 -50
q103 0 178.5 79t75.5 184q0 78 -49 127.5t-130 49.5q-104 0 -178 -76.5t-74 -184.5z" />
    <glyph glyph-name="acircumflex" unicode="&#xe2;" horiz-adv-x="1421" 
d="M856 1406l-187 -172h-340l325 368h438l183 -368h-298zM1102 1106h331l-221 -1106h-310l-26 81q-172 -121 -372 -121q-96 0 -180 31t-149 90.5t-102.5 153.5t-37.5 211q0 128 38.5 241t104 195.5t151 143t181.5 90.5t193 30q203 0 331 -131zM481 513q0 -79 48.5 -129
t128.5 -50q103 0 178.5 79t75.5 184q0 78 -49 127.5t-130 49.5q-104 0 -178 -76.5t-74 -184.5z" />
    <glyph glyph-name="atilde" unicode="&#xe3;" horiz-adv-x="1421" 
d="M689 1343q-35 0 -52.5 -23.5t-28.5 -73.5h-243q76 339 353 339q103 0 190 -67q48 -37 83 -37q38 0 54.5 23.5t27.5 77.5h244q-75 -339 -350 -339q-103 0 -194 65q-51 35 -84 35zM1102 1106h331l-221 -1106h-310l-26 81q-172 -121 -372 -121q-96 0 -180 31t-149 90.5
t-102.5 153.5t-37.5 211q0 128 38.5 241t104 195.5t151 143t181.5 90.5t193 30q203 0 331 -131zM481 513q0 -79 48.5 -129t128.5 -50q103 0 178.5 79t75.5 184q0 78 -49 127.5t-130 49.5q-104 0 -178 -76.5t-74 -184.5z" />
    <glyph glyph-name="adieresis" unicode="&#xe4;" horiz-adv-x="1421" 
d="M790 1589l-69 -349h-353l70 349h352zM1345 1589l-70 -349h-352l69 349h353zM1102 1106h331l-221 -1106h-310l-26 81q-172 -121 -372 -121q-96 0 -180 31t-149 90.5t-102.5 153.5t-37.5 211q0 128 38.5 241t104 195.5t151 143t181.5 90.5t193 30q203 0 331 -131zM481 513
q0 -79 48.5 -129t128.5 -50q103 0 178.5 79t75.5 184q0 78 -49 127.5t-130 49.5q-104 0 -178 -76.5t-74 -184.5z" />
    <glyph glyph-name="aring" unicode="&#xe5;" horiz-adv-x="1421" 
d="M811 1185q-106 0 -170 57.5t-64 151.5q0 131 100 223.5t237 92.5q104 0 168 -56.5t64 -149.5q0 -137 -99 -228t-236 -91zM880 1546q-48 0 -84.5 -33.5t-36.5 -81.5q0 -36 23 -58.5t63 -22.5q49 0 83.5 34t34.5 83q0 35 -22.5 57t-60.5 22zM1102 1106h331l-221 -1106h-310
l-26 81q-172 -121 -372 -121q-96 0 -180 31t-149 90.5t-102.5 153.5t-37.5 211q0 128 38.5 241t104 195.5t151 143t181.5 90.5t193 30q203 0 331 -131zM481 513q0 -79 48.5 -129t128.5 -50q103 0 178.5 79t75.5 184q0 78 -49 127.5t-130 49.5q-104 0 -178 -76.5t-74 -184.5z
" />
    <glyph glyph-name="ae" unicode="&#xe6;" horiz-adv-x="2197" 
d="M2167 658q0 -96 -30 -203h-837q7 -78 54.5 -120t129.5 -42q68 0 123 25t88 70h417q-79 -191 -257.5 -308.5t-383.5 -117.5q-223 0 -354 142l-33 -104h-230l4 77q-173 -117 -376 -117q-195 0 -319.5 141t-124.5 353q0 187 82.5 344.5t231 250.5t330.5 93q213 0 344 -129
l32 93h235l-3 -83q165 117 371 117q233 0 369.5 -133t136.5 -349zM1577 815q-80 0 -140 -39t-95 -107h420q-7 69 -56 107.5t-129 38.5zM659 334q107 0 182.5 80t75.5 183q0 78 -50 127.5t-132 49.5q-106 0 -180.5 -77.5t-74.5 -187.5q0 -78 49 -126.5t130 -48.5z" />
    <glyph glyph-name="ccedilla" unicode="&#xe7;" horiz-adv-x="1316" 
d="M707 765q-105 0 -169 -79.5t-60 -187.5q1 -74 45.5 -113.5t111.5 -39.5q69 0 128 38.5t84 107.5h423q-54 -226 -218 -364t-387 -162l-18 -38q78 -9 123 -51.5t45 -108.5q0 -110 -78.5 -181t-194.5 -71h-215l34 171h142q31 0 51.5 17.5t20.5 45.5q0 19 -14 30.5t-37 11.5
h-99l-17 33l68 143q-200 29 -319 164.5t-119 330.5q0 201 95.5 358t262.5 242.5t377 85.5q162 0 283.5 -68.5t182 -186t54.5 -263.5h-425q-3 63 -48.5 99t-112.5 36z" />
    <glyph glyph-name="egrave" unicode="&#xe8;" horiz-adv-x="1333" 
d="M953 1234h-314l-172 368h434zM1304 667q0 -99 -30 -209h-827q4 -83 50 -126t128 -43q64 0 117 25t85 72h416q-70 -197 -256.5 -311.5t-415.5 -114.5q-235 0 -384 146t-149 364q0 146 56 272.5t153 215.5t231.5 139.5t287.5 50.5q252 0 395 -130.5t143 -350.5zM714 820
q-151 0 -225 -151h407q-7 72 -54.5 111.5t-127.5 39.5z" />
    <glyph glyph-name="eacute" unicode="&#xe9;" horiz-adv-x="1333" 
d="M1232 1602l-316 -368h-314l198 368h432zM1304 667q0 -99 -30 -209h-827q4 -83 50 -126t128 -43q64 0 117 25t85 72h416q-70 -197 -256.5 -311.5t-415.5 -114.5q-235 0 -384 146t-149 364q0 195 95.5 350t261.5 241t371 86q252 0 395 -130t143 -350zM714 820
q-151 0 -225 -151h407q-7 72 -54.5 111.5t-127.5 39.5z" />
    <glyph glyph-name="ecircumflex" unicode="&#xea;" horiz-adv-x="1333" 
d="M840 1406l-187 -172h-339l325 368h437l183 -368h-298zM1304 667q0 -99 -30 -209h-827q4 -83 50 -126t128 -43q64 0 117 25t85 72h416q-70 -197 -256.5 -311.5t-415.5 -114.5q-235 0 -384 146t-149 364q0 146 56 272.5t153 215.5t231.5 139.5t287.5 50.5q252 0 395 -130.5
t143 -350.5zM714 820q-151 0 -225 -151h407q-7 72 -54.5 111.5t-127.5 39.5z" />
    <glyph glyph-name="edieresis" unicode="&#xeb;" horiz-adv-x="1333" 
d="M775 1589l-70 -349h-353l70 349h353zM1329 1589l-70 -349h-352l70 349h352zM766 1148q252 0 395 -130.5t143 -350.5q0 -99 -30 -209h-827q4 -83 50 -126t128 -43q64 0 117 25t85 72h416q-70 -197 -256.5 -311.5t-415.5 -114.5q-235 0 -384 146t-149 364q0 146 56 272.5
t153 215.5t231.5 139.5t287.5 50.5zM714 820q-151 0 -225 -151h407q-7 72 -54.5 111.5t-127.5 39.5z" />
    <glyph glyph-name="igrave" unicode="&#xec;" horiz-adv-x="641" 
d="M609 1234h-325l-115 367h442zM-9 0l221 1106h441l-221 -1106h-441z" />
    <glyph glyph-name="iacute" unicode="&#xed;" horiz-adv-x="641" 
d="M277 1234l143 367h442l-259 -367h-326zM-9 0l221 1106h441l-221 -1106h-441z" />
    <glyph glyph-name="icircumflex" unicode="&#xee;" horiz-adv-x="641" 
d="M893 1234h-305l-104 157l-159 -157h-335l286 368h473zM-9 0l221 1106h441l-221 -1106h-441z" />
    <glyph glyph-name="idieresis" unicode="&#xef;" horiz-adv-x="641" 
d="M22 1237l71 361h361l-71 -361h-361zM549 1237l72 361h361l-72 -361h-361zM-9 0l221 1106h441l-221 -1106h-441z" />
    <glyph glyph-name="eth" unicode="&#xf0;" horiz-adv-x="1378" 
d="M1109 1503q260 -192 260 -579q0 -195 -49 -360q-80 -275 -270.5 -439.5t-468.5 -164.5q-158 0 -283 66.5t-193.5 182t-68.5 258.5q0 127 49.5 241t134.5 196t203.5 130t250.5 48q101 0 191 -37t158 -105q2 20 2 29q0 216 -198 310l-218 -173l-102 121l133 107
q-84 13 -186 13l64 318q259 0 441 -77l165 131l102 -122zM639 338q100 0 170.5 73t70.5 174q0 75 -46.5 120.5t-124.5 45.5q-99 0 -170 -71t-71 -172q0 -75 46.5 -122.5t124.5 -47.5z" />
    <glyph glyph-name="ntilde" unicode="&#xf1;" horiz-adv-x="1325" 
d="M692 1343q-35 0 -52.5 -23.5t-28.5 -73.5h-243q76 339 353 339q104 0 191 -67q48 -37 83 -37q37 0 53.5 23t27.5 78h245q-75 -339 -351 -339q-103 0 -194 65q-51 35 -84 35zM902 1146q169 0 268.5 -104t99.5 -272q0 -16 -0.5 -29t-3 -33.5t-5 -37.5t-9 -52.5t-12.5 -67
t-18.5 -92.5t-24 -117t-31 -153t-37.5 -188h-441q127 634 130 655q1 10 1 19q0 49 -23.5 75.5t-67.5 26.5q-63 0 -108.5 -41.5t-64.5 -116.5l-123 -618h-441l221 1106h315l21 -87q142 127 354 127z" />
    <glyph glyph-name="ograve" unicode="&#xf2;" horiz-adv-x="1363" 
d="M967 1234h-315l-172 368h434zM601 -40q-156 0 -282.5 58.5t-203.5 175.5t-77 275q0 197 98.5 353.5t264 241t364.5 84.5q155 0 281 -59t203.5 -177t77.5 -275q0 -150 -57 -277.5t-155 -214.5t-231 -136t-283 -49zM642 345q102 0 175 74t73 182q0 73 -45 118.5t-121 45.5
q-102 0 -175 -74.5t-73 -183.5q0 -73 45 -117.5t121 -44.5z" />
    <glyph glyph-name="oacute" unicode="&#xf3;" horiz-adv-x="1363" 
d="M615 1234l198 368h432l-316 -368h-314zM601 -40q-156 0 -282.5 58.5t-203.5 175.5t-77 275q0 197 98.5 353.5t264 241t364.5 84.5q155 0 281 -59t203.5 -177t77.5 -275q0 -150 -57 -277.5t-155 -214.5t-231 -136t-283 -49zM642 345q102 0 175 74t73 182q0 73 -45 118.5
t-121 45.5q-102 0 -175 -74.5t-73 -183.5q0 -73 45 -117.5t121 -44.5z" />
    <glyph glyph-name="ocircumflex" unicode="&#xf4;" horiz-adv-x="1363" 
d="M1272 1234h-298l-121 172l-186 -172h-340l325 368h437zM601 -40q-156 0 -282.5 58.5t-203.5 175.5t-77 275q0 197 98.5 353.5t264 241t364.5 84.5q155 0 281 -59t203.5 -177t77.5 -275q0 -150 -57 -277.5t-155 -214.5t-231 -136t-283 -49zM642 345q102 0 175 74t73 182
q0 73 -45 118.5t-121 45.5q-102 0 -175 -74.5t-73 -183.5q0 -73 45 -117.5t121 -44.5z" />
    <glyph glyph-name="otilde" unicode="&#xf5;" horiz-adv-x="1363" 
d="M964 1243q-103 0 -194 65q-51 35 -84 35q-35 0 -52.5 -23.5t-28.5 -73.5h-243q76 339 353 339q104 0 191 -67q48 -37 83 -37q37 0 53.5 23t27.5 78h245q-75 -339 -351 -339zM601 -40q-156 0 -282.5 58.5t-203.5 175.5t-77 275q0 197 98.5 353.5t264 241t364.5 84.5
q155 0 281 -59t203.5 -177t77.5 -275q0 -150 -57 -277.5t-155 -214.5t-231 -136t-283 -49zM642 345q102 0 175 74t73 182q0 73 -45 118.5t-121 45.5q-102 0 -175 -74.5t-73 -183.5q0 -73 45 -117.5t121 -44.5z" />
    <glyph glyph-name="odieresis" unicode="&#xf6;" horiz-adv-x="1363" 
d="M366 1240l69 349h353l-70 -349h-352zM920 1240l70 349h352l-70 -349h-352zM601 -40q-156 0 -282.5 58.5t-203.5 175.5t-77 275q0 197 98.5 353.5t264 241t364.5 84.5q155 0 281 -59t203.5 -177t77.5 -275q0 -150 -57 -277.5t-155 -214.5t-231 -136t-283 -49zM642 345
q102 0 175 74t73 182q0 73 -45 118.5t-121 45.5q-102 0 -175 -74.5t-73 -183.5q0 -73 45 -117.5t121 -44.5z" />
    <glyph glyph-name="divide" unicode="&#xf7;" horiz-adv-x="1075" 
d="M611 909q-70 0 -114 43t-44 109q0 94 71.5 163t162.5 69q70 0 114 -43t44 -110q0 -94 -71 -162.5t-163 -68.5zM46 505l63 314h965l-62 -314h-966zM434 31q-71 0 -114.5 43.5t-43.5 110.5q0 93 72 161.5t164 68.5q69 0 112.5 -43t43.5 -109q0 -94 -71 -163t-163 -69z" />
    <glyph glyph-name="oslash" unicode="&#xf8;" horiz-adv-x="1368" 
d="M1171 1013q78 -62 119.5 -157t41.5 -209q0 -205 -96 -362t-264.5 -241t-383.5 -84q-106 0 -203 27l-85 -112h-272l164 215q-75 60 -115 154t-40 208q0 207 95.5 364.5t264 241.5t385.5 84q104 0 195 -25l86 114h272zM724 765q-111 0 -190 -76t-79 -183q0 -48 21 -84
l263 343h-15zM644 337q111 0 190 76t79 182q0 51 -22 86l-264 -343q3 0 8.5 -0.5t8.5 -0.5z" />
    <glyph glyph-name="ugrave" unicode="&#xf9;" horiz-adv-x="1302" 
d="M933 1234h-314l-172 368h434zM554 -40q-221 0 -356 121.5t-135 316.5q0 48 13.5 124t67.5 340q31 149 50 244h441q-22 -108 -42 -209.5t-32.5 -160.5t-23.5 -113t-16 -81t-9.5 -50t-5.5 -33.5t-1 -19.5q0 -46 27 -71t75 -25q57 0 98.5 37.5t54.5 102.5l124 623h442
l-131 -652q-48 -238 -216.5 -366t-424.5 -128z" />
    <glyph glyph-name="uacute" unicode="&#xfa;" horiz-adv-x="1302" 
d="M581 1234l198 368h433l-316 -368h-315zM554 -40q-221 0 -356 121.5t-135 316.5q0 48 13.5 124t67.5 340q31 149 50 244h441q-22 -108 -42 -209.5t-32.5 -160.5t-23.5 -113t-16 -81t-9.5 -50t-5.5 -33.5t-1 -19.5q0 -46 27 -71t75 -25q57 0 98.5 37.5t54.5 102.5l124 623
h442l-131 -652q-48 -238 -216.5 -366t-424.5 -128z" />
    <glyph glyph-name="ucircumflex" unicode="&#xfb;" horiz-adv-x="1302" 
d="M1239 1234h-299l-120 172l-187 -172h-340l325 368h438zM554 -40q-221 0 -356 121.5t-135 316.5q0 48 13.5 124t67.5 340q31 149 50 244h441q-22 -108 -42 -209.5t-32.5 -160.5t-23.5 -113t-16 -81t-9.5 -50t-5.5 -33.5t-1 -19.5q0 -46 27 -71t75 -25q57 0 98.5 37.5
t54.5 102.5l124 623h442l-131 -652q-48 -238 -216.5 -366t-424.5 -128z" />
    <glyph glyph-name="udieresis" unicode="&#xfc;" horiz-adv-x="1302" 
d="M332 1240l70 349h352l-70 -349h-352zM886 1240l70 349h352l-69 -349h-353zM554 -40q-221 0 -356 121.5t-135 316.5q0 48 13.5 124t67.5 340q31 149 50 244h441q-22 -108 -42 -209.5t-32.5 -160.5t-23.5 -113t-16 -81t-9.5 -50t-5.5 -33.5t-1 -19.5q0 -46 27 -71t75 -25
q57 0 98.5 37.5t54.5 102.5l124 623h442l-131 -652q-48 -238 -216.5 -366t-424.5 -128z" />
    <glyph glyph-name="yacute" unicode="&#xfd;" horiz-adv-x="1300" 
d="M1214 1602l-316 -368h-315l198 368h433zM931 1106h492l-685 -1107q-80 -129 -150 -209.5t-150 -129t-166.5 -66.5t-206.5 -18h-171l73 365h101q109 0 166.5 33t110.5 123l-248 1009h461l88 -549z" />
    <glyph glyph-name="thorn" unicode="&#xfe;" horiz-adv-x="1411" 
d="M907 1146q213 0 340.5 -136t127.5 -350q0 -149 -53 -279.5t-143.5 -222.5t-216 -145t-266.5 -53q-156 0 -265 78l-88 -437h-432l381 1903h431l-84 -424q129 66 268 66zM676 330q102 0 177.5 78t75.5 188q0 80 -48.5 129.5t-128.5 49.5q-102 0 -177.5 -77.5t-75.5 -188.5
q0 -80 48.5 -129.5t128.5 -49.5z" />
    <glyph glyph-name="ydieresis" unicode="&#xff;" horiz-adv-x="1300" 
d="M756 1589l-70 -349h-352l70 349h352zM1310 1589l-69 -349h-353l70 349h352zM931 1106h492l-685 -1107q-80 -129 -150 -209.5t-150 -129t-166.5 -66.5t-206.5 -18h-171l73 365h101q109 0 166.5 33t110.5 123l-248 1009h461l88 -549z" />
    <glyph glyph-name="Amacron" unicode="&#x100;" horiz-adv-x="1568" 
d="M1404 1865l-59 -294h-731l58 294h732zM993 0l-21 207h-471l-110 -207h-517l856 1434h457l289 -1434h-483zM879 938l-231 -423h291z" />
    <glyph glyph-name="amacron" unicode="&#x101;" horiz-adv-x="1421" 
d="M1228 1544l-56 -274h-696l56 274h696zM1102 1106h331l-221 -1106h-310l-26 81q-172 -121 -372 -121q-96 0 -180 31t-149 90.5t-102.5 153.5t-37.5 211q0 128 38.5 241t104 195.5t151 143t181.5 90.5t193 30q203 0 331 -131zM481 513q0 -79 48.5 -129t128.5 -50
q103 0 178.5 79t75.5 184q0 78 -49 127.5t-130 49.5q-104 0 -178 -76.5t-74 -184.5z" />
    <glyph glyph-name="Abreve" unicode="&#x102;" horiz-adv-x="1568" 
d="M952 1538q-158 0 -251 75.5t-93 205.5q0 41 8 78h283q-2 -10 -2 -31q0 -89 98 -89q56 0 94 32t50 88h282q-31 -162 -159 -260.5t-310 -98.5zM993 0l-21 207h-471l-110 -207h-517l856 1434h457l289 -1434h-483zM879 938l-231 -423h291z" />
    <glyph glyph-name="abreve" unicode="&#x103;" horiz-adv-x="1421" 
d="M823 1222q-164 0 -264 87t-100 219q0 22 8 70h294q-6 -18 -6 -35q0 -46 29 -69.5t78 -23.5q60 0 100 34t52 94h293q-35 -182 -163 -279t-321 -97zM1102 1106h331l-221 -1106h-310l-26 81q-172 -121 -372 -121q-96 0 -180 31t-149 90.5t-102.5 153.5t-37.5 211
q0 128 38.5 241t104 195.5t151 143t181.5 90.5t193 30q203 0 331 -131zM481 513q0 -79 48.5 -129t128.5 -50q103 0 178.5 79t75.5 184q0 78 -49 127.5t-130 49.5q-104 0 -178 -76.5t-74 -184.5z" />
    <glyph glyph-name="Aogonek" unicode="&#x104;" horiz-adv-x="1568" 
d="M1060 -225q0 -58 80 -58q62 0 131 25l-40 -200q-120 -54 -243 -54q-107 0 -173.5 48t-66.5 135q0 89 63.5 174t181.5 157l-21 205h-471l-110 -207h-517l856 1434h457l289 -1434q-102 -4 -185 -28t-131.5 -57.5t-74 -70t-25.5 -69.5zM880 938l-221 -403h278z" />
    <glyph glyph-name="aogonek" unicode="&#x105;" horiz-adv-x="1421" 
d="M1212 0q-129 -55 -190.5 -115t-61.5 -109q0 -29 21.5 -44t58.5 -15q59 0 123 25l-41 -200q-127 -54 -234 -54t-172.5 48.5t-65.5 134.5q0 94 65.5 185t181.5 160l-21 65q-172 -121 -372 -121q-96 0 -180 31t-149 90.5t-102.5 153.5t-37.5 211q0 128 38.5 241t104 195.5
t151 143t181.5 90.5t193 30q203 0 331 -131l68 91h331zM481 513q0 -79 48.5 -129t128.5 -50q103 0 178.5 79t75.5 184q0 78 -49 127.5t-130 49.5q-104 0 -178 -76.5t-74 -184.5z" />
    <glyph glyph-name="Cacute" unicode="&#x106;" horiz-adv-x="1634" 
d="M836 1553l250 345h454l-390 -345h-314zM736 -40q-195 0 -346.5 84t-233.5 229t-82 326q0 184 72 347t195.5 278t294 182t360.5 67q139 0 265 -52t214.5 -138t135.5 -204.5t34 -245.5h-471q-16 100 -82 160t-163 60q-102 0 -187.5 -57.5t-133 -152t-47.5 -202.5
q0 -118 66 -188.5t181 -70.5q105 0 195.5 66.5t133.5 174.5h470q-89 -312 -324.5 -487.5t-546.5 -175.5z" />
    <glyph glyph-name="cacute" unicode="&#x107;" horiz-adv-x="1316" 
d="M589 1234l198 368h432l-316 -368h-314zM578 -40q-243 0 -391.5 141t-148.5 361q0 201 95.5 358t262.5 242.5t377 85.5q162 0 283.5 -68.5t182 -186t54.5 -263.5h-425q-3 63 -48.5 99t-112.5 36q-105 0 -169 -79.5t-60 -187.5q1 -74 45.5 -113.5t111.5 -39.5
q69 0 128 38.5t84 107.5h423q-60 -249 -250 -390t-442 -141z" />
    <glyph glyph-name="Ccircumflex" unicode="&#x108;" horiz-adv-x="1634" 
d="M1049 1716l-186 -163h-336l321 345h436l185 -345h-298zM929 1053q-102 0 -187.5 -57.5t-133 -152t-47.5 -202.5q0 -118 66 -188.5t181 -70.5q105 0 195.5 66.5t133.5 174.5h470q-89 -312 -324.5 -487.5t-546.5 -175.5q-195 0 -346.5 84t-233.5 229t-82 326q0 184 72 347
t195.5 278t294 182t360.5 67q139 0 265 -52t214.5 -138t135.5 -204.5t34 -245.5h-471q-16 100 -82 160t-163 60z" />
    <glyph glyph-name="ccircumflex" unicode="&#x109;" horiz-adv-x="1316" 
d="M827 1406l-187 -172h-340l325 368h438l183 -368h-298zM707 765q-105 0 -169 -79.5t-60 -187.5q1 -74 45.5 -113.5t111.5 -39.5q69 0 128 38.5t84 107.5h423q-60 -249 -250 -390t-442 -141q-243 0 -391.5 141t-148.5 361q0 201 95.5 358t262.5 242.5t377 85.5
q162 0 283.5 -68.5t182 -186t54.5 -263.5h-425q-3 63 -48.5 99t-112.5 36z" />
    <glyph glyph-name="Cdotaccent" unicode="&#x10a;" horiz-adv-x="1634" 
d="M794 1553l71 361h452l-71 -361h-452zM736 -40q-195 0 -346.5 84t-233.5 229t-82 326q0 184 72 347t195.5 278t294 182t360.5 67q139 0 265 -52t214.5 -138t135.5 -204.5t34 -245.5h-471q-16 100 -82 160t-163 60q-102 0 -187.5 -57.5t-133 -152t-47.5 -202.5
q0 -118 66 -188.5t181 -70.5q105 0 195.5 66.5t133.5 174.5h470q-89 -312 -324.5 -487.5t-546.5 -175.5z" />
    <glyph glyph-name="cdotaccent" unicode="&#x10b;" horiz-adv-x="1316" 
d="M582 1237l72 361h418l-72 -361h-418zM578 -40q-243 0 -391.5 141t-148.5 361q0 201 95.5 358t262.5 242.5t377 85.5q162 0 283.5 -68.5t182 -186t54.5 -263.5h-425q-3 63 -48.5 99t-112.5 36q-105 0 -169 -79.5t-60 -187.5q1 -74 45.5 -113.5t111.5 -39.5q69 0 128 38.5
t84 107.5h423q-60 -249 -250 -390t-442 -141z" />
    <glyph glyph-name="Ccaron" unicode="&#x10c;" horiz-adv-x="1634" 
d="M1188 1553h-436l-185 345h308l120 -164l184 164h330zM929 1053q-102 0 -187.5 -57.5t-133 -152t-47.5 -202.5q0 -118 66 -188.5t181 -70.5q105 0 195.5 66.5t133.5 174.5h470q-89 -312 -324.5 -487.5t-546.5 -175.5q-195 0 -346.5 84t-233.5 229t-82 326q0 184 72 347
t195.5 278t294 182t360.5 67q139 0 265 -52t214.5 -138t135.5 -204.5t34 -245.5h-471q-16 100 -82 160t-163 60z" />
    <glyph glyph-name="ccaron" unicode="&#x10d;" horiz-adv-x="1316" 
d="M1004 1234h-438l-181 368h319l119 -173l189 173h319zM773 1148q162 0 283.5 -68.5t182 -186t54.5 -263.5h-425q-3 63 -48.5 99t-112.5 36q-105 0 -169 -79.5t-60 -187.5q1 -74 45.5 -113.5t111.5 -39.5q69 0 128 38.5t84 107.5h423q-60 -249 -250 -390t-442 -141
q-243 0 -391.5 141t-148.5 361q0 201 95.5 358t262.5 242.5t377 85.5z" />
    <glyph glyph-name="Dcaron" unicode="&#x10e;" horiz-adv-x="1527" 
d="M964 1553h-436l-185 345h308l120 -164l184 164h330zM880 1434q191 0 337 -77.5t223.5 -213t77.5 -308.5q0 -180 -67.5 -336t-185 -265t-281 -171.5t-350.5 -62.5h-628l287 1434h587zM648 395q178 0 289.5 114t111.5 284q0 116 -71.5 181t-207.5 65h-96l-130 -644h104z
" />
    <glyph glyph-name="dcaron" unicode="&#x10f;" horiz-adv-x="1689" 
d="M1079 1505h432l-301 -1505h-327l-20 86q-168 -126 -360 -126q-217 0 -344.5 123.5t-127.5 329.5q0 148 55 283t148.5 234t225.5 157.5t279 58.5t253 -75zM1609 1505h342l-56 -277q-30 -147 -138.5 -243.5t-261.5 -112.5l38 191q63 3 106 38.5t55 93.5h-147zM482 504
q0 -77 47.5 -125t126.5 -48q103 0 181 80t78 191q0 77 -47.5 125t-126.5 48q-103 0 -181 -80t-78 -191z" />
    <glyph glyph-name="Dcroat" unicode="&#x110;" horiz-adv-x="1583" 
d="M935 1434q144 0 264 -45t202 -124.5t127.5 -190t45.5 -239.5q0 -180 -68 -336t-185.5 -265t-281 -171.5t-350.5 -62.5h-627l111 557h-146l65 325h146l111 552h586zM704 395q178 0 289.5 114t111.5 284q0 116 -72 181t-208 65h-96l-31 -157h189l-64 -325h-191l-32 -162
h104z" />
    <glyph glyph-name="dcroat" unicode="&#x111;" horiz-adv-x="1417" 
d="M1646 1422l-43 -212h-155l-242 -1210h-291l-28 95q-172 -135 -386 -135q-217 0 -342.5 137t-125.5 348q0 144 54 273.5t145.5 222.5t217 148t263.5 55q158 0 272 -88l31 154h-276l42 212h277l17 83h431l-16 -83h155zM480 511q0 -80 49 -130t129 -50q102 0 177 77.5
t75 186.5q0 80 -49 130t-129 50q-102 0 -177 -77.5t-75 -186.5z" />
    <glyph glyph-name="Emacron" unicode="&#x112;" horiz-adv-x="1169" 
d="M1229 1865l-58 -294h-731l58 294h731zM1189 1084h-513l-40 -200h457l-64 -326h-459l-41 -203h527l-72 -355h-978l287 1434h966z" />
    <glyph glyph-name="emacron" unicode="&#x113;" horiz-adv-x="1333" 
d="M1213 1544l-57 -274h-695l56 274h696zM1304 667q0 -99 -30 -209h-827q4 -83 50 -126t128 -43q64 0 117 25t85 72h416q-70 -197 -256.5 -311.5t-415.5 -114.5q-235 0 -384 146t-149 364q0 146 56 272.5t153 215.5t231.5 139.5t287.5 50.5q252 0 395 -130.5t143 -350.5z
M714 820q-151 0 -225 -151h407q-7 72 -54.5 111.5t-127.5 39.5z" />
    <glyph glyph-name="Ebreve" unicode="&#x114;" horiz-adv-x="1169" 
d="M778 1538q-159 0 -252 75.5t-93 205.5q0 41 8 78h284q-3 -15 -3 -31q0 -89 99 -89q56 0 94 32t50 88h282q-31 -162 -159 -260.5t-310 -98.5zM1189 1084h-513l-40 -200h457l-64 -326h-459l-41 -203h527l-72 -355h-978l287 1434h966z" />
    <glyph glyph-name="ebreve" unicode="&#x115;" horiz-adv-x="1333" 
d="M807 1222q-164 0 -264 87t-100 219q0 22 8 70h294q-6 -18 -6 -35q0 -46 29.5 -69.5t78.5 -23.5q60 0 100 34t52 94h292q-35 -182 -163 -279t-321 -97zM1304 667q0 -99 -30 -209h-827q4 -83 50 -126t128 -43q64 0 117 25t85 72h416q-70 -197 -256.5 -311.5t-415.5 -114.5
q-235 0 -384 146t-149 364q0 146 56 272.5t153 215.5t231.5 139.5t287.5 50.5q252 0 395 -130.5t143 -350.5zM714 820q-151 0 -225 -151h407q-7 72 -54.5 111.5t-127.5 39.5z" />
    <glyph glyph-name="Edotaccent" unicode="&#x116;" horiz-adv-x="1169" 
d="M1099 1914l-71 -361h-452l72 361h451zM1189 1084h-513l-40 -200h457l-64 -326h-459l-41 -203h527l-72 -355h-978l287 1434h966z" />
    <glyph glyph-name="edotaccent" unicode="&#x117;" horiz-adv-x="1333" 
d="M1085 1598l-72 -361h-417l71 361h418zM1304 667q0 -99 -30 -209h-827q4 -83 50 -126t128 -43q64 0 117 25t85 72h416q-70 -197 -256.5 -311.5t-415.5 -114.5q-235 0 -384 146t-149 364q0 195 95.5 350t261.5 241t371 86q252 0 395 -130t143 -350zM714 820
q-151 0 -225 -151h407q-7 72 -54.5 111.5t-127.5 39.5z" />
    <glyph glyph-name="Eogonek" unicode="&#x118;" horiz-adv-x="1169" 
d="M1189 1084h-513l-40 -200h457l-64 -326h-459l-41 -203h527l-72 -355q-117 -55 -175.5 -115.5t-58.5 -108.5q0 -29 21.5 -44t58.5 -15q59 0 123 25l-41 -200q-127 -54 -234 -54t-172.5 48.5t-65.5 134.5q0 89 62.5 173.5t178.5 155.5h-675l287 1434h966z" />
    <glyph glyph-name="eogonek" unicode="&#x119;" horiz-adv-x="1333" 
d="M1304 665q0 -97 -30 -207h-828q1 -83 45.5 -126t126.5 -43q64 0 118.5 25t87.5 72h419q-28 -61 -66 -115t-71.5 -90t-83.5 -75.5t-79 -58.5t-80 -52q-91 -57 -148 -111t-57 -109q0 -58 82 -58q55 0 123 26l-41 -200q-113 -55 -227 -55q-106 0 -175.5 53.5t-69.5 142.5
q0 148 182 278q-220 13 -356.5 157t-136.5 353q0 145 56.5 271t153.5 214t231.5 138.5t286.5 50.5q254 0 395.5 -130.5t141.5 -350.5zM723 820q-151 0 -230 -151h405q-5 72 -50 111.5t-125 39.5z" />
    <glyph glyph-name="Ecaron" unicode="&#x11a;" horiz-adv-x="1169" 
d="M970 1553h-435l-185 345h308l119 -164l184 164h330zM6 0l287 1434h966l-70 -350h-513l-40 -200h457l-64 -326h-459l-41 -203h527l-72 -355h-978z" />
    <glyph glyph-name="ecaron" unicode="&#x11b;" horiz-adv-x="1333" 
d="M1017 1234h-438l-180 368h319l118 -173l189 173h319zM766 1148q252 0 395 -130.5t143 -350.5q0 -99 -30 -209h-827q4 -83 50 -126t128 -43q64 0 117 25t85 72h416q-70 -197 -256.5 -311.5t-415.5 -114.5q-235 0 -384 146t-149 364q0 146 56 272.5t153 215.5t231.5 139.5
t287.5 50.5zM714 820q-151 0 -225 -151h407q-7 72 -54.5 111.5t-127.5 39.5z" />
    <glyph glyph-name="Gcircumflex" unicode="&#x11c;" horiz-adv-x="1660" 
d="M1078 1716l-186 -163h-336l321 345h435l186 -345h-299zM924 1051q-110 0 -197 -57t-133 -150t-46 -202q0 -119 70 -189.5t192 -70.5q112 0 187.5 40.5t112.5 111.5h-317l50 241h811q-57 -393 -300.5 -604t-615.5 -211q-148 0 -272.5 48t-209.5 132.5t-132.5 202
t-47.5 253.5q0 186 70.5 349.5t192.5 279t292.5 182t363.5 66.5q144 0 272.5 -49t216.5 -129.5t137.5 -187.5t43.5 -220h-488q-20 73 -90 118.5t-163 45.5z" />
    <glyph glyph-name="gcircumflex" unicode="&#x11d;" horiz-adv-x="1390" 
d="M806 1406l-187 -172h-340l325 368h438l183 -368h-298zM1104 1106h298l-204 -1019q-52 -262 -235.5 -398.5t-470.5 -136.5q-240 0 -378 115t-152 317h415q7 -41 53 -66.5t110 -25.5q89 0 155.5 52.5t84.5 140.5l4 19q-139 -72 -289 -72q-207 0 -330.5 123.5t-123.5 323.5
q0 137 52.5 260.5t140 211.5t207.5 139.5t251 51.5q101 0 188.5 -37t150.5 -104zM489 548q0 -75 45.5 -121t122.5 -46q98 0 168.5 71t70.5 175q0 76 -46 123t-123 47q-99 0 -168.5 -72t-69.5 -177z" />
    <glyph glyph-name="Gbreve" unicode="&#x11e;" horiz-adv-x="1660" 
d="M1024 1538q-158 0 -251 75.5t-93 205.5q0 41 8 78h283q-3 -15 -3 -31q0 -89 99 -89q56 0 94 32t50 88h282q-31 -162 -159 -260.5t-310 -98.5zM924 1051q-110 0 -197 -57t-133 -150t-46 -202q0 -119 70 -189.5t192 -70.5q112 0 187.5 40.5t112.5 111.5h-317l50 241h811
q-57 -393 -300.5 -604t-615.5 -211q-148 0 -272.5 48t-209.5 132.5t-132.5 202t-47.5 253.5q0 186 70.5 349.5t192.5 279t292.5 182t363.5 66.5q144 0 272.5 -49t216.5 -129.5t137.5 -187.5t43.5 -220h-488q-20 73 -90 118.5t-163 45.5z" />
    <glyph glyph-name="gbreve" unicode="&#x11f;" horiz-adv-x="1390" 
d="M773 1222q-164 0 -264 87t-100 219q0 22 8 70h294q-6 -18 -6 -35q0 -46 29 -69.5t78 -23.5q60 0 100 34t52 94h293q-35 -182 -163 -279t-321 -97zM1104 1106h298l-204 -1019q-52 -262 -235.5 -398.5t-470.5 -136.5q-240 0 -378 115t-152 317h415q7 -41 53 -66.5
t110 -25.5q89 0 155.5 52.5t84.5 140.5l4 19q-139 -72 -289 -72q-207 0 -330.5 123.5t-123.5 323.5q0 137 52.5 260.5t140 211.5t207.5 139.5t251 51.5q101 0 188.5 -37t150.5 -104zM489 548q0 -75 45.5 -121t122.5 -46q98 0 168.5 71t70.5 175q0 76 -46 123t-123 47
q-99 0 -168.5 -72t-69.5 -177z" />
    <glyph glyph-name="Gdotaccent" unicode="&#x120;" horiz-adv-x="1660" 
d="M1346 1914l-72 -361h-452l72 361h452zM924 1051q-110 0 -197 -57t-133 -150t-46 -202q0 -119 70 -189.5t192 -70.5q112 0 187.5 40.5t112.5 111.5h-317l50 241h811q-57 -393 -300.5 -604t-615.5 -211q-148 0 -272.5 48t-209.5 132.5t-132.5 202t-47.5 253.5
q0 186 70.5 349.5t192.5 279t292.5 182t363.5 66.5q144 0 272.5 -49t216.5 -129.5t137.5 -187.5t43.5 -220h-488q-20 73 -90 118.5t-163 45.5z" />
    <glyph glyph-name="gdotaccent" unicode="&#x121;" horiz-adv-x="1390" 
d="M1051 1598l-72 -361h-418l72 361h418zM1104 1106h298l-204 -1019q-52 -262 -235.5 -398.5t-470.5 -136.5q-240 0 -378 115t-152 317h415q7 -41 53 -66.5t110 -25.5q89 0 155.5 52.5t84.5 140.5l4 19q-139 -72 -289 -72q-207 0 -330.5 123.5t-123.5 323.5
q0 137 52.5 260.5t140 211.5t207.5 139.5t251 51.5q101 0 188.5 -37t150.5 -104zM489 548q0 -75 45.5 -121t122.5 -46q98 0 168.5 71t70.5 175q0 76 -46 123t-123 47q-99 0 -168.5 -72t-69.5 -177z" />
    <glyph glyph-name="uni0122" unicode="&#x122;" horiz-adv-x="1660" 
d="M924 1051q-110 0 -197 -57t-133 -150t-46 -202q0 -119 70 -189.5t192 -70.5q112 0 187.5 40.5t112.5 111.5h-317l50 241h811q-57 -393 -300.5 -604t-615.5 -211q-148 0 -272.5 48t-209.5 132.5t-132.5 202t-47.5 253.5q0 186 70.5 349.5t192.5 279t292.5 182t363.5 66.5
q144 0 272.5 -49t216.5 -129.5t137.5 -187.5t43.5 -220h-488q-20 73 -90 118.5t-163 45.5zM510 -444l63 310h342l-56 -278q-30 -148 -138.5 -243.5t-261.5 -111.5l37 190q63 3 106 39.5t54 93.5h-146z" />
    <glyph glyph-name="uni0123" unicode="&#x123;" horiz-adv-x="1390" 
d="M986 1544l-63 -310h-342l56 277q30 148 138.5 244t261.5 112l-37 -191q-63 -3 -106 -39t-54 -93h146zM1104 1106h298l-204 -1019q-52 -262 -235.5 -398.5t-470.5 -136.5q-240 0 -378 115t-152 317h415q7 -41 53 -66.5t110 -25.5q89 0 155.5 52.5t84.5 140.5l4 19
q-139 -72 -289 -72q-207 0 -330.5 123.5t-123.5 323.5q0 137 52.5 260.5t140 211.5t207.5 139.5t251 51.5q101 0 188.5 -37t150.5 -104zM489 548q0 -75 45.5 -121t122.5 -46q98 0 168.5 71t70.5 175q0 76 -46 123t-123 47q-99 0 -168.5 -72t-69.5 -177z" />
    <glyph glyph-name="Hcircumflex" unicode="&#x124;" horiz-adv-x="1519" 
d="M985 1716l-186 -163h-336l321 345h435l186 -345h-299zM1115 1434h463l-287 -1434h-463l108 542h-358l-108 -542h-464l287 1434h463l-102 -514h358z" />
    <glyph glyph-name="hcircumflex" unicode="&#x125;" horiz-adv-x="1325" 
d="M561 1779l-186 -164h-335l320 346h436l185 -346h-298zM901 1146q169 0 269.5 -103.5t100.5 -270.5q0 -18 -1 -34t-3 -34t-8 -50t-11.5 -63.5t-18 -93.5t-24.5 -121.5t-33.5 -166t-42.5 -209.5h-441q40 199 87 433q45 220 45 242q0 49 -24 75t-68 26q-63 0 -107.5 -40.5
t-64.5 -114.5l-124 -621h-441l301 1505h441l-85 -422q114 63 253 63z" />
    <glyph glyph-name="Hbar" unicode="&#x126;" horiz-adv-x="1558" 
d="M1682 1313l-47 -241h-110l-215 -1072h-463l105 523h-358l-105 -523h-463l214 1072h-110l48 241h110l24 121h464l-24 -121h358l24 121h463l-24 -121h109zM1029 911l33 161h-359l-32 -161h358z" />
    <glyph glyph-name="hbar" unicode="&#x127;" horiz-adv-x="1325" 
d="M901 1146q169 0 269.5 -103.5t100.5 -270.5q0 -18 -1 -34t-3 -34t-8 -50t-11.5 -63.5t-18 -93.5t-24.5 -121.5t-33.5 -166t-42.5 -209.5h-441q40 199 87 433q45 220 45 242q0 49 -24 75t-68 26q-63 0 -107.5 -40.5t-64.5 -114.5l-124 -621h-441l242 1210h-154l42 212h155
l16 83h441l-17 -83h269l-43 -212h-268l-26 -127q114 63 253 63z" />
    <glyph glyph-name="Itilde" unicode="&#x128;" horiz-adv-x="700" 
d="M696 1560q-40 0 -75.5 11t-54.5 22t-43 30q-42 33 -66 33q-34 0 -51.5 -23.5t-24.5 -69.5h-231q31 161 112 241t203 80q35 0 68 -11t52 -22t45 -30q51 -36 75 -36q34 0 50 23t25 73h232q-30 -158 -113.5 -239.5t-202.5 -81.5zM6 0l287 1434h467l-287 -1434h-467z" />
    <glyph glyph-name="itilde" unicode="&#x129;" horiz-adv-x="641" 
d="M607 1236q-41 0 -77.5 11.5t-54.5 22.5t-44 31q-47 35 -79 35q-63 0 -79 -97h-244q35 169 120.5 254t211.5 85q41 0 78.5 -13t50 -21.5t46.5 -32.5q19 -14 27 -19.5t22 -11.5t28 -6q37 0 54 24t26 77h244q-35 -168 -121 -253.5t-209 -85.5zM-9 0l221 1106h441l-221 -1106
h-441z" />
    <glyph glyph-name="Imacron" unicode="&#x12a;" horiz-adv-x="700" 
d="M184 1585l56 272h720l-56 -272h-720zM6 0l287 1434h467l-287 -1434h-467z" />
    <glyph glyph-name="imacron" unicode="&#x12b;" horiz-adv-x="641" 
d="M141 1267l55 275h649l-55 -275h-649zM-9 0l221 1106h441l-221 -1106h-441z" />
    <glyph glyph-name="Ibreve" unicode="&#x12c;" horiz-adv-x="700" 
d="M547 1538q-171 0 -258.5 99t-56.5 260h283q-8 -55 11 -87.5t64 -32.5q49 0 81 32t43 88h282q-29 -162 -152 -260.5t-297 -98.5zM6 0l287 1434h467l-287 -1434h-467z" />
    <glyph glyph-name="ibreve" unicode="&#x12d;" horiz-adv-x="641" 
d="M460 1222q-166 0 -258 107t-64 269h292q-13 -62 3 -95t70 -33q51 0 76.5 31.5t38.5 96.5h293q-36 -181 -155 -278.5t-296 -97.5zM-9 0l221 1106h441l-221 -1106h-441z" />
    <glyph glyph-name="Iogonek" unicode="&#x12e;" horiz-adv-x="700" 
d="M473 0q-117 -55 -175.5 -115.5t-58.5 -108.5q0 -29 21.5 -44t58.5 -15q59 0 123 25l-41 -200q-127 -54 -234 -54t-172.5 48.5t-65.5 134.5q0 89 62.5 173.5t178.5 155.5h-164l287 1434h467z" />
    <glyph glyph-name="iogonek" unicode="&#x12f;" horiz-adv-x="641" 
d="M320 1598h418l-72 -361h-418zM-9 0l221 1106h441l-221 -1106q-117 -55 -175.5 -115.5t-58.5 -108.5q0 -29 21.5 -44t58.5 -15q58 0 122 25l-40 -200q-127 -54 -234 -54t-173 48.5t-66 134.5q0 89 62.5 173.5t179.5 155.5h-138z" />
    <glyph glyph-name="Idotaccent" unicode="&#x130;" horiz-adv-x="700" 
d="M320 1553l72 361h452l-72 -361h-452zM6 0l287 1434h467l-287 -1434h-467z" />
    <glyph glyph-name="dotlessi" unicode="&#x131;" horiz-adv-x="641" 
d="M-9 0l221 1106h441l-221 -1106h-441z" />
    <glyph glyph-name="IJ" unicode="&#x132;" horiz-adv-x="1970" 
d="M6 0l287 1434h467l-287 -1434h-467zM1182 -40q-231 0 -372 121t-142 318q0 60 18 147h468q-8 -35 -8 -62q0 -48 24.5 -75t73.5 -27q52 0 93 36t53 95l184 921h466l-196 -982q-47 -234 -223 -363t-439 -129z" />
    <glyph glyph-name="ij" unicode="&#x133;" horiz-adv-x="1402" 
d="M248 1237l72 361h418l-72 -361h-418zM1002 1237l71 361h418l-72 -361h-417zM-9 0l221 1106h441l-221 -1106h-441zM456 -444l75 377h85q59 0 98.5 36.5t53.5 104.5l205 1032h441l-222 -1110q-47 -236 -187.5 -338t-403.5 -102h-145z" />
    <glyph glyph-name="Jcircumflex" unicode="&#x134;" horiz-adv-x="1296" 
d="M1187 1706l-159 -150h-334l281 349h467l144 -349h-300zM716 513l184 921h466l-197 -982q-47 -234 -222.5 -363t-438.5 -129q-231 0 -372 121t-142 318q0 60 18 147h468q-8 -29 -8 -62q0 -48 24.5 -75t73.5 -27q52 0 93 36t53 95z" />
    <glyph glyph-name="jcircumflex" unicode="&#x135;" horiz-adv-x="665" 
d="M922 1234h-305l-104 157l-160 -157h-334l286 368h473zM-318 -435l75 377h106q67 0 111.5 36.5t58.5 104.5l204 1023h440l-212 -1066q-47 -233 -192 -354t-380 -121h-211z" />
    <glyph glyph-name="uni0136" unicode="&#x136;" horiz-adv-x="1413" 
d="M1596 1434l-588 -713l333 -721h-515l-247 582l-116 -582h-457l287 1434h456l-106 -530l399 530h554zM405 -444l64 310h341l-55 -278q-30 -148 -139 -243.5t-262 -111.5l37 190q63 3 106.5 39.5t54.5 93.5h-147z" />
    <glyph glyph-name="uni0137" unicode="&#x137;" horiz-adv-x="1249" 
d="M1362 1106l-436 -544l243 -562h-466l-181 454l-90 -454h-441l301 1505h441l-153 -764l270 365h512zM282 -430l63 310h342l-56 -277q-30 -148 -138.5 -244t-261.5 -112l37 190q63 3 106 39.5t54 93.5h-146z" />
    <glyph glyph-name="kgreenlandic" unicode="&#x138;" horiz-adv-x="1249" 
d="M1362 1106l-436 -541l243 -565h-466l-180 457l-91 -457h-441l221 1106h441l-73 -364l270 364h512z" />
    <glyph glyph-name="Lacute" unicode="&#x139;" horiz-adv-x="1091" 
d="M1097 1898l-390 -345h-315l251 345h454zM760 1434l-208 -1040h485l-79 -394h-952l287 1434h467z" />
    <glyph glyph-name="lacute" unicode="&#x13a;" horiz-adv-x="641" 
d="M349 1624l250 346h454l-390 -346h-314zM-9 0l301 1505h441l-301 -1505h-441z" />
    <glyph glyph-name="uni013B" unicode="&#x13b;" horiz-adv-x="1091" 
d="M552 394h485l-79 -394h-952l287 1434h467zM249 -444l63 310h342l-56 -278q-30 -148 -138.5 -243.5t-261.5 -111.5l37 190q63 3 106 39.5t54 93.5h-146z" />
    <glyph glyph-name="uni013C" unicode="&#x13c;" horiz-adv-x="641" 
d="M-9 0l301 1505h441l-301 -1505h-441zM-98 -753l37 190q63 3 106 39.5t54 93.5h-146l63 310h342l-56 -277q-30 -148 -138.5 -244t-261.5 -112z" />
    <glyph glyph-name="Lcaron" unicode="&#x13d;" horiz-adv-x="1120" 
d="M892 1505h342l-56 -277q-29 -148 -138.5 -244t-262.5 -112l39 191q63 3 106 39t55 93h-147zM760 1434l-204 -1020h485l-83 -414h-952l287 1434h467z" />
    <glyph glyph-name="lcaron" unicode="&#x13e;" horiz-adv-x="911" 
d="M292 1505h441l-301 -1505h-441zM832 1505h342l-56 -277q-30 -148 -138.5 -244t-261.5 -112l39 191q62 2 105 38t55 94h-147z" />
    <glyph glyph-name="Ldot" unicode="&#x13f;" horiz-adv-x="1140" 
d="M760 1434l-204 -1020h485l-83 -414h-952l287 1434h467zM770 898h361l-71 -358h-362z" />
    <glyph glyph-name="ldot" unicode="&#x140;" horiz-adv-x="1079" 
d="M-9 0l301 1505h441l-301 -1505h-441zM663 559l73 368h400l-73 -368h-400z" />
    <glyph glyph-name="Lslash" unicode="&#x141;" horiz-adv-x="1140" 
d="M601 394h485l-79 -394h-951l89 449l-137 -54l72 355l137 55l125 629h467l-84 -422l241 98l-72 -362l-242 -96z" />
    <glyph glyph-name="lslash" unicode="&#x142;" horiz-adv-x="841" 
d="M910 1142l-75 -379l-174 -78l-137 -685h-440l93 467l-159 -72l77 379l158 72l132 659h440l-88 -441z" />
    <glyph glyph-name="Nacute" unicode="&#x143;" horiz-adv-x="1566" 
d="M1509 1898l-390 -345h-314l250 345h454zM1188 1434h438l-287 -1434h-374l-382 692l-138 -692h-439l287 1434h372l383 -696z" />
    <glyph glyph-name="nacute" unicode="&#x144;" horiz-adv-x="1325" 
d="M1251 1602l-316 -368h-314l198 368h432zM902 1146q169 0 268.5 -104t99.5 -272q0 -16 -0.5 -29t-3 -33.5t-5 -37.5t-9 -52.5t-12.5 -67t-18.5 -92.5t-24 -117t-31 -153t-37.5 -188h-441q127 634 130 655q1 10 1 19q0 49 -23.5 75.5t-67.5 26.5q-63 0 -108.5 -41.5
t-64.5 -116.5l-123 -618h-441l221 1106h315l21 -87q142 127 354 127z" />
    <glyph glyph-name="uni0145" unicode="&#x145;" horiz-adv-x="1566" 
d="M1188 1434h438l-287 -1434h-374l-382 692l-138 -692h-439l287 1434h372l383 -696zM482 -444l63 310h342l-56 -278q-30 -148 -138.5 -243.5t-261.5 -111.5l37 190q63 3 106 39.5t54 93.5h-146z" />
    <glyph glyph-name="uni0146" unicode="&#x146;" horiz-adv-x="1325" 
d="M902 1146q169 0 268.5 -104t99.5 -272q0 -16 -0.5 -29t-3 -33.5t-5 -37.5t-9 -52.5t-12.5 -67t-18.5 -92.5t-24 -117t-31 -153t-37.5 -188h-441q127 634 130 655q1 10 1 19q0 49 -23.5 75.5t-67.5 26.5q-63 0 -108.5 -41.5t-64.5 -116.5l-123 -618h-441l221 1106h315
l21 -87q142 127 354 127zM296 -430l63 310h342l-56 -277q-30 -148 -138.5 -244t-261.5 -112l37 190q63 3 106 39.5t54 93.5h-146z" />
    <glyph glyph-name="Ncaron" unicode="&#x147;" horiz-adv-x="1566" 
d="M1157 1553h-436l-185 345h308l120 -164l184 164h330zM1188 1434h438l-287 -1434h-374l-382 692l-138 -692h-439l287 1434h372l383 -696z" />
    <glyph glyph-name="ncaron" unicode="&#x148;" horiz-adv-x="1325" 
d="M1036 1234h-438l-180 368h319l118 -173l189 173h319zM902 1146q169 0 268.5 -104t99.5 -272q0 -16 -0.5 -29t-3 -33.5t-5 -37.5t-9 -52.5t-12.5 -67t-18.5 -92.5t-24 -117t-31 -153t-37.5 -188h-441q127 634 130 655q1 10 1 19q0 49 -23.5 75.5t-67.5 26.5
q-63 0 -108.5 -41.5t-64.5 -116.5l-123 -618h-441l221 1106h315l21 -87q142 127 354 127z" />
    <glyph glyph-name="Eng" unicode="&#x14a;" horiz-adv-x="1566" 
d="M1188 1434h438l-283 -1415q-40 -206 -183.5 -325.5t-349.5 -119.5h-129l71 349h65q130 0 154 132l-387 648l-140 -703h-438l287 1434h390l371 -674z" />
    <glyph glyph-name="eng" unicode="&#x14b;" horiz-adv-x="1325" 
d="M903 1145q168 0 268 -102.5t100 -269.5q0 -14 -0.5 -27t-2 -27t-4.5 -35t-6.5 -41t-10.5 -56.5t-13.5 -70t-18.5 -93t-23 -114.5t-29.5 -145t-35.5 -174q-42 -207 -173 -311t-344 -104h-163l68 339h50q50 0 83.5 28.5t44.5 81.5q87 422 106.5 523t19.5 127
q0 48 -23.5 74.5t-67.5 26.5q-63 0 -108.5 -41.5t-64.5 -116.5l-123 -617h-441l221 1106h315l22 -89q143 128 354 128z" />
    <glyph glyph-name="Omacron" unicode="&#x14c;" horiz-adv-x="1726" 
d="M698 1571l59 294h731l-58 -294h-732zM767 -40q-209 0 -366.5 81.5t-241 224.5t-83.5 328q0 194 72.5 359t198.5 278.5t301.5 177.5t376.5 64q315 0 503 -176t188 -457q0 -194 -72.5 -359t-198.5 -279t-301.5 -178t-376.5 -64zM840 382q111 0 201.5 56.5t139 148.5
t48.5 198q0 123 -74.5 195t-202.5 72q-111 0 -201.5 -56.5t-139 -149t-48.5 -198.5q0 -122 74.5 -194t202.5 -72z" />
    <glyph glyph-name="omacron" unicode="&#x14d;" horiz-adv-x="1363" 
d="M474 1270l56 274h696l-57 -274h-695zM601 -40q-156 0 -282.5 58.5t-203.5 175.5t-77 275q0 197 98.5 353.5t264 241t364.5 84.5q155 0 281 -59t203.5 -177t77.5 -275q0 -150 -57 -277.5t-155 -214.5t-231 -136t-283 -49zM642 345q102 0 175 74t73 182q0 73 -45 118.5
t-121 45.5q-102 0 -175 -74.5t-73 -183.5q0 -73 45 -117.5t121 -44.5z" />
    <glyph glyph-name="Obreve" unicode="&#x14e;" horiz-adv-x="1726" 
d="M1036 1538q-158 0 -251 75.5t-93 205.5q0 41 8 78h283q-2 -10 -2 -31q0 -89 98 -89q56 0 94 32t50 88h283q-31 -162 -159.5 -260.5t-310.5 -98.5zM767 -40q-209 0 -366.5 81.5t-241 224.5t-83.5 328q0 194 72.5 359t198.5 278.5t301.5 177.5t376.5 64q315 0 503 -176
t188 -457q0 -194 -72.5 -359t-198.5 -279t-301.5 -178t-376.5 -64zM840 382q111 0 201.5 56.5t139 148.5t48.5 198q0 123 -74.5 195t-202.5 72q-111 0 -201.5 -56.5t-139 -149t-48.5 -198.5q0 -122 74.5 -194t202.5 -72z" />
    <glyph glyph-name="obreve" unicode="&#x14f;" horiz-adv-x="1363" 
d="M820 1222q-164 0 -264 87t-100 219q0 22 8 70h294q-6 -18 -6 -35q0 -46 29.5 -69.5t78.5 -23.5q60 0 100 34t52 94h293q-35 -182 -163.5 -279t-321.5 -97zM601 -40q-156 0 -282.5 58.5t-203.5 175.5t-77 275q0 197 98.5 353.5t264 241t364.5 84.5q155 0 281 -59
t203.5 -177t77.5 -275q0 -150 -57 -277.5t-155 -214.5t-231 -136t-283 -49zM642 345q102 0 175 74t73 182q0 73 -45 118.5t-121 45.5q-102 0 -175 -74.5t-73 -183.5q0 -73 45 -117.5t121 -44.5z" />
    <glyph glyph-name="Ohungarumlaut" unicode="&#x150;" horiz-adv-x="1726" 
d="M651 1553l185 345h396l-253 -345h-328zM1100 1553l228 345h411l-309 -345h-330zM767 -40q-209 0 -366.5 81.5t-241 224.5t-83.5 328q0 194 72.5 359t198.5 278.5t301.5 177.5t376.5 64q315 0 503 -176t188 -457q0 -194 -72.5 -359t-198.5 -279t-301.5 -178t-376.5 -64z
M840 382q111 0 201.5 56.5t139 148.5t48.5 198q0 123 -74.5 195t-202.5 72q-111 0 -201.5 -56.5t-139 -149t-48.5 -198.5q0 -122 74.5 -194t202.5 -72z" />
    <glyph glyph-name="ohungarumlaut" unicode="&#x151;" horiz-adv-x="1363" 
d="M395 1234l183 368h399l-252 -368h-330zM845 1234l228 368h410l-305 -368h-333zM601 -40q-156 0 -282.5 58.5t-203.5 175.5t-77 275q0 197 98.5 353.5t264 241t364.5 84.5q155 0 281 -59t203.5 -177t77.5 -275q0 -150 -57 -277.5t-155 -214.5t-231 -136t-283 -49zM642 345
q102 0 175 74t73 182q0 73 -45 118.5t-121 45.5q-102 0 -175 -74.5t-73 -183.5q0 -73 45 -117.5t121 -44.5z" />
    <glyph glyph-name="OE" unicode="&#x152;" horiz-adv-x="1996" 
d="M2014 1084h-487l-40 -200h434l-64 -326h-436l-40 -203h503l-72 -355h-741q-146 -40 -304 -40q-156 0 -286 47t-218.5 130.5t-137.5 201t-49 255.5q0 194 72 358.5t197.5 278.5t301.5 178t379 64q146 0 264 -39h794zM563 648q0 -122 74.5 -194t202.5 -72q58 0 111 15
l127 632q-57 23 -125 23q-168 0 -279 -119t-111 -285z" />
    <glyph glyph-name="oe" unicode="&#x153;" horiz-adv-x="2148" 
d="M2120 665q0 -97 -30 -207h-830q1 -83 45.5 -126t126.5 -43q64 0 118.5 25t87.5 72h421q-45 -131 -148 -228.5t-238.5 -147.5t-283.5 -50q-216 0 -351 154q-184 -154 -451 -154q-163 0 -288.5 66.5t-193 182t-67.5 260.5q0 198 97 353.5t265.5 239.5t378.5 84
q229 0 367 -157q186 157 436 157q254 0 396 -130.5t142 -350.5zM1538 820q-151 0 -230 -151h406q-4 72 -50 111.5t-126 39.5zM642 343q102 0 175 74t73 182q0 73 -45 118.5t-121 45.5q-102 0 -175 -74.5t-73 -183.5q0 -73 45 -117.5t121 -44.5z" />
    <glyph glyph-name="Racute" unicode="&#x154;" horiz-adv-x="1406" 
d="M1370 1898l-389 -345h-315l251 345h453zM1412 992q0 -164 -76.5 -291.5t-212.5 -203.5l153 -497h-482l-115 401h-136l-80 -401h-457l287 1434h639q215 0 347.5 -123t132.5 -319zM673 1050l-61 -302h127q88 0 142 53t54 131q0 54 -35.5 86t-104.5 32h-122z" />
    <glyph glyph-name="racute" unicode="&#x155;" horiz-adv-x="888" 
d="M1065 1602l-316 -368h-315l198 368h433zM555 999q124 111 302 111h122l-78 -393h-163q-156 0 -192 -147l-114 -570h-441l221 1106h308z" />
    <glyph glyph-name="uni0156" unicode="&#x156;" horiz-adv-x="1406" 
d="M1412 992q0 -164 -76.5 -291.5t-212.5 -203.5l153 -497h-482l-115 401h-136l-80 -401h-457l287 1434h639q215 0 347.5 -123t132.5 -319zM673 1050l-61 -302h127q88 0 142 53t54 131q0 54 -35.5 86t-104.5 32h-122zM393 -444l64 310h341l-56 -278q-30 -148 -138.5 -243.5
t-261.5 -111.5l37 190q63 3 106.5 39.5t54.5 93.5h-147z" />
    <glyph glyph-name="uni0157" unicode="&#x157;" horiz-adv-x="888" 
d="M857 1110h122l-78 -393h-163q-156 0 -192 -147l-114 -570h-441l221 1106h308l35 -107q124 111 302 111zM-45 -430l63 310h342l-56 -277q-30 -148 -138.5 -244t-261.5 -112l37 190q63 3 106 39.5t54 93.5h-146z" />
    <glyph glyph-name="Rcaron" unicode="&#x158;" horiz-adv-x="1406" 
d="M1018 1553h-436l-185 345h308l120 -164l184 164h330zM1412 992q0 -164 -76.5 -291.5t-212.5 -203.5l153 -497h-482l-115 401h-136l-80 -401h-457l287 1434h639q215 0 347.5 -123t132.5 -319zM673 1050l-61 -302h127q88 0 142 53t54 131q0 54 -35.5 86t-104.5 32h-122z
" />
    <glyph glyph-name="rcaron" unicode="&#x159;" horiz-adv-x="888" 
d="M849 1234h-437l-181 368h319l119 -173l188 173h319zM555 999q124 111 302 111h122l-78 -393h-163q-156 0 -192 -147l-114 -570h-441l221 1106h308z" />
    <glyph glyph-name="Sacute" unicode="&#x15a;" horiz-adv-x="1292" 
d="M648 1553l251 345h453l-389 -345h-315zM547 -40q-250 0 -386 108t-136 303q0 44 7 86h479q-3 -15 -3 -28q0 -39 25 -62.5t72 -23.5q54 0 90.5 29t36.5 81q0 21 -11 37.5t-27 28t-45.5 22.5t-53 17t-64.5 16q-46 11 -74 18.5t-72.5 23.5t-73 32.5t-61.5 43t-52 57.5
t-32 74.5t-13 95.5q0 130 48 235t134.5 174.5t205 107t259.5 37.5q233 0 361 -99t128 -277q0 -41 -6 -86h-463q3 12 3 23q0 32 -20.5 51t-58.5 19q-48 0 -78.5 -24t-30.5 -66q0 -18 11 -33.5t26 -26t45 -22t52.5 -18.5t64.5 -19q50 -14 78 -22.5t76 -27t76.5 -35t64.5 -45
t55.5 -59.5t33.5 -74.5t14 -94.5q0 -176 -90.5 -308.5t-245 -200.5t-349.5 -68z" />
    <glyph glyph-name="sacute" unicode="&#x15b;" horiz-adv-x="1105" 
d="M474 1234l198 368h433l-316 -368h-315zM453 -40q-214 0 -333.5 88t-119.5 239q0 33 6 69h419q-4 -13 -4 -28q0 -34 22 -52t56 -18q36 0 63.5 22t27.5 61q0 33 -39 50.5t-124 35.5q-33 7 -49.5 11t-49 13.5t-51 17t-46.5 21t-44.5 27t-36.5 34t-30 43t-17.5 52t-7.5 63.5
q0 210 154 323.5t401 113.5q201 0 320 -87t119 -232q0 -16 -4 -54h-408q2 12 2 19q0 29 -18 47.5t-54 18.5q-33 0 -60 -20.5t-27 -56.5q0 -18 12 -31t31.5 -21t48.5 -15.5t59 -13.5q11 -2 17 -3q43 -9 65.5 -14t64.5 -17t66 -24.5t55 -34.5t47.5 -47.5t28.5 -62.5t12 -82
q0 -143 -77 -247.5t-205.5 -156t-291.5 -51.5z" />
    <glyph glyph-name="Scircumflex" unicode="&#x15c;" horiz-adv-x="1292" 
d="M861 1716l-185 -163h-336l321 345h435l185 -345h-298zM1283 1011h-463q3 12 3 23q0 32 -20.5 51t-58.5 19q-48 0 -78.5 -24t-30.5 -66q0 -18 11 -33.5t26 -26t45 -22t52.5 -18.5t64.5 -19q50 -14 78 -22.5t76 -27t76.5 -35t64.5 -45t55.5 -59.5t33.5 -74.5t14 -94.5
q0 -176 -90.5 -308.5t-245 -200.5t-349.5 -68q-250 0 -386 108t-136 303q0 44 7 86h479q-3 -15 -3 -28q0 -39 25 -62.5t72 -23.5q54 0 90.5 29t36.5 81q0 21 -11 37.5t-27 28t-45.5 22.5t-53 17t-64.5 16q-46 11 -74 18.5t-72.5 23.5t-73 32.5t-61.5 43t-52 57.5t-32 74.5
t-13 95.5q0 130 48 235t134.5 174.5t205 107t259.5 37.5q233 0 361 -99t128 -277q0 -41 -6 -86z" />
    <glyph glyph-name="scircumflex" unicode="&#x15d;" horiz-adv-x="1105" 
d="M1132 1234h-299l-120 172l-187 -172h-340l325 368h438zM453 -40q-214 0 -333.5 88t-119.5 239q0 33 6 69h419q-4 -13 -4 -28q0 -34 22 -52t56 -18q36 0 63.5 22t27.5 61q0 33 -39 50.5t-124 35.5q-33 7 -49.5 11t-49 13.5t-51 17t-46.5 21t-44.5 27t-36.5 34t-30 43
t-17.5 52t-7.5 63.5q0 210 154 323.5t401 113.5q201 0 320 -87t119 -232q0 -16 -4 -54h-408q2 12 2 19q0 29 -18 47.5t-54 18.5q-33 0 -60 -20.5t-27 -56.5q0 -18 12 -31t31.5 -21t48.5 -15.5t59 -13.5q11 -2 17 -3q43 -9 65.5 -14t64.5 -17t66 -24.5t55 -34.5t47.5 -47.5
t28.5 -62.5t12 -82q0 -143 -77 -247.5t-205.5 -156t-291.5 -51.5z" />
    <glyph glyph-name="Scedilla" unicode="&#x15e;" horiz-adv-x="1292" 
d="M1283 1011h-463q3 12 3 23q0 32 -20.5 51t-58.5 19q-48 0 -78.5 -24t-30.5 -66q0 -18 11 -33.5t26 -26t45 -22t52.5 -18.5t64.5 -19q50 -14 78 -22.5t76 -27t76.5 -35t64.5 -45t55.5 -59.5t33.5 -74.5t14 -94.5q0 -239 -159.5 -390.5t-417.5 -180.5l-19 -41
q77 -14 117.5 -62t40.5 -113q0 -99 -83.5 -177t-216.5 -78h-226l38 189h164q32 0 52 19.5t20 43.5q0 40 -51 40h-127l-14 23l74 158q-193 25 -296 129t-103 274q0 44 7 86h479q-3 -15 -3 -28q0 -39 25 -62.5t72 -23.5q54 0 90.5 29t36.5 81q0 21 -11 37.5t-27 28t-45.5 22.5
t-53 17t-64.5 16q-46 11 -74 18.5t-72.5 23.5t-73 32.5t-61.5 43t-52 57.5t-32 74.5t-13 95.5q0 130 48 235t134.5 174.5t205 107t259.5 37.5q233 0 361 -99t128 -277q0 -41 -6 -86z" />
    <glyph glyph-name="scedilla" unicode="&#x15f;" horiz-adv-x="1105" 
d="M1085 773h-408q2 12 2 19q0 29 -18 47.5t-54 18.5q-33 0 -60 -20.5t-27 -56.5q0 -18 12 -31t31.5 -21t48.5 -15.5t59 -13.5q11 -2 17 -3q43 -9 65.5 -14t64.5 -17t66 -24.5t55 -34.5t47.5 -47.5t28.5 -62.5t12 -82q0 -195 -135 -313t-353 -138l-20 -40q78 -9 123 -51.5
t45 -108.5q0 -110 -78 -181t-194 -71h-216l35 171h142q31 0 51 17.5t20 45.5q0 19 -13.5 30.5t-36.5 11.5h-100l-16 32l68 146q-167 21 -258 105.5t-91 215.5q0 33 6 69h419q-4 -13 -4 -28q0 -34 22 -52t56 -18q36 0 63.5 22t27.5 61q0 33 -39 50.5t-124 35.5
q-33 7 -49.5 11t-49 13.5t-51 17t-46.5 21t-44.5 27t-36.5 34t-30 43t-17.5 52t-7.5 63.5q0 210 154 323.5t401 113.5q201 0 320 -87t119 -232q0 -16 -4 -54z" />
    <glyph glyph-name="Scaron" unicode="&#x160;" horiz-adv-x="1292" 
d="M1000 1553h-436l-184 345h308l119 -164l184 164h330zM800 1473q233 0 361 -99t128 -277q0 -41 -6 -86h-463q3 12 3 23q0 32 -20.5 51t-58.5 19q-48 0 -78.5 -24t-30.5 -66q0 -18 11 -33.5t26 -26t45 -22t52.5 -18.5t64.5 -19q50 -14 78 -22.5t76 -27t76.5 -35t64.5 -45
t55.5 -59.5t33.5 -74.5t14 -94.5q0 -176 -90.5 -308.5t-245 -200.5t-349.5 -68q-250 0 -386 108t-136 303q0 44 7 86h479q-3 -15 -3 -28q0 -39 25 -62.5t72 -23.5q54 0 90.5 29t36.5 81q0 21 -11 37.5t-27 28t-45.5 22.5t-53 17t-64.5 16q-46 11 -74 18.5t-72.5 23.5
t-73 32.5t-61.5 43t-52 57.5t-32 74.5t-13 95.5q0 130 48 235t134.5 174.5t205 107t259.5 37.5z" />
    <glyph glyph-name="scaron" unicode="&#x161;" horiz-adv-x="1105" 
d="M897 1602h319l-327 -368h-437l-181 368h319l119 -173zM453 -40q-214 0 -333.5 88t-119.5 239q0 33 6 69h419q-4 -13 -4 -28q0 -34 22 -52t56 -18q36 0 63.5 22t27.5 61q0 33 -39 50.5t-124 35.5q-33 7 -49.5 11t-49 13.5t-51 17t-46.5 21t-44.5 27t-36.5 34t-30 43
t-17.5 52t-7.5 63.5q0 210 154 323.5t401 113.5q201 0 320 -87t119 -232q0 -16 -4 -54h-408q2 12 2 19q0 29 -18 47.5t-54 18.5q-33 0 -60 -20.5t-27 -56.5q0 -18 12 -31t31.5 -21t48.5 -15.5t59 -13.5q11 -2 17 -3q43 -9 65.5 -14t64.5 -17t66 -24.5t55 -34.5t47.5 -47.5
t28.5 -62.5t12 -82q0 -143 -77 -247.5t-205.5 -156t-291.5 -51.5z" />
    <glyph glyph-name="uni0162" unicode="&#x162;" horiz-adv-x="1282" 
d="M758 0h-107l-35 -76q73 -19 114 -75t41 -122q0 -104 -81.5 -166.5t-204.5 -62.5h-235l38 189h163q32 0 52 19t20 43q0 19 -13 30t-37 11h-130l-12 23l88 187h-120l213 1070h-388l73 364h1235l-74 -364h-386z" />
    <glyph glyph-name="uni0163" unicode="&#x163;" horiz-adv-x="948" 
d="M932 769h-246q-61 -297 -61 -311q0 -35 22.5 -54.5t62.5 -19.5h151l-77 -384h-208l-35 -74q75 -11 117.5 -52.5t42.5 -106.5q0 -115 -82 -183.5t-209 -68.5h-197l35 171h142q31 0 51 17.5t20 45.5q0 19 -13.5 30.5t-36.5 11.5h-99l-17 33l91 193q-104 31 -162 110.5
t-58 193.5q0 12 0.5 22.5t2 21.5t4.5 30.5t6.5 37.5l10.5 54t14 69.5t19 94t23 118.5h-206l21 107l656 580h94l-70 -350h259z" />
    <glyph glyph-name="Tcaron" unicode="&#x164;" horiz-adv-x="1282" 
d="M1026 1553h-436l-184 345h308l119 -164l184 164h330zM1432 1434l-74 -364h-386l-214 -1070h-459l213 1070h-388l73 364h1235z" />
    <glyph glyph-name="tcaron" unicode="&#x165;" horiz-adv-x="1173" 
d="M1133 1507h342l-56 -277q-30 -148 -139 -244t-262 -112l39 190q63 3 106 39t55 94h-147zM811 1456l-70 -350h252l-68 -337h-239q-61 -296 -61 -310q0 -35 22.5 -55t61.5 -20h152l-77 -384h-273q-160 0 -252.5 87t-92.5 234q0 10 0.5 18t1.5 21t2.5 23t5.5 31.5t7.5 39
t10.5 53.5t13 67t17.5 87.5t21.5 107.5h-206l21 107l656 580h94z" />
    <glyph glyph-name="Tbar" unicode="&#x166;" horiz-adv-x="1300" 
d="M1366 1070h-386l-45 -223h210l-67 -325h-208l-104 -522h-460l105 522h-208l67 325h205l45 223h-389l73 364h1235z" />
    <glyph glyph-name="tbar" unicode="&#x167;" horiz-adv-x="972" 
d="M955 769h-245l-19 -90h248l-43 -217h-248q-2 -11 -2 -20q0 -35 22 -55.5t61 -20.5h152l-74 -366h-272q-160 0 -252.5 87t-92.5 234q0 48 18 141h-204l43 217h205q3 14 9 44t9 46h-207l22 107l656 580h94l-70 -350h258z" />
    <glyph glyph-name="Utilde" unicode="&#x168;" horiz-adv-x="1507" 
d="M1064 1551q-94 0 -189 65q-55 38 -87 38q-71 0 -81 -100h-243q29 174 121 261t232 87q87 0 185 -69q57 -41 89 -41q37 0 55 26t26 79h245q-31 -173 -123.5 -259.5t-229.5 -86.5zM654 -40q-255 0 -408.5 140t-153.5 367q0 15 0.5 28.5t3.5 36t7 44t12 64t16.5 85t23.5 118
l30 151t39.5 197t48.5 243.5h474q-126 -626 -151.5 -756.5t-25.5 -156.5q0 -64 39 -101.5t109 -37.5q82 0 141.5 52.5t76.5 136.5l172 863h474l-186 -915q-56 -272 -250.5 -415.5t-491.5 -143.5z" />
    <glyph glyph-name="utilde" unicode="&#x169;" horiz-adv-x="1302" 
d="M930 1243q-102 0 -193 65q-51 35 -84 35q-35 0 -52.5 -23.5t-28.5 -73.5h-243q76 339 353 339q103 0 190 -67q48 -37 83 -37q38 0 54.5 23.5t27.5 77.5h244q-75 -339 -351 -339zM554 -40q-221 0 -356 121.5t-135 316.5q0 48 13.5 124t67.5 340q31 149 50 244h441
q-22 -108 -42 -209.5t-32.5 -160.5t-23.5 -113t-16 -81t-9.5 -50t-5.5 -33.5t-1 -19.5q0 -46 27.5 -71t75.5 -25q57 0 98 37.5t54 102.5l124 623h442l-131 -652q-48 -238 -216.5 -366t-424.5 -128z" />
    <glyph glyph-name="Umacron" unicode="&#x16a;" horiz-adv-x="1507" 
d="M567 1571l58 294h732l-59 -294h-731zM654 -40q-255 0 -408.5 140t-153.5 367q0 15 0.5 28.5t3.5 36t7 44t12 64t16.5 85t23.5 118l30 151t39.5 197t48.5 243.5h474q-126 -626 -151.5 -756.5t-25.5 -156.5q0 -64 39 -101.5t109 -37.5q82 0 141.5 52.5t76.5 136.5l172 863
h474l-186 -915q-56 -272 -250.5 -415.5t-491.5 -143.5z" />
    <glyph glyph-name="umacron" unicode="&#x16b;" horiz-adv-x="1302" 
d="M440 1270l56 274h696l-56 -274h-696zM554 -40q-221 0 -356 121.5t-135 316.5q0 48 13.5 124t67.5 340q31 149 50 244h441q-22 -108 -42 -209.5t-32.5 -160.5t-23.5 -113t-16 -81t-9.5 -50t-5.5 -33.5t-1 -19.5q0 -46 27 -71t75 -25q57 0 98.5 37.5t54.5 102.5l124 623
h442l-131 -652q-48 -238 -216.5 -366t-424.5 -128z" />
    <glyph glyph-name="Ubreve" unicode="&#x16c;" horiz-adv-x="1507" 
d="M905 1538q-158 0 -251 75.5t-93 205.5q0 41 8 78h283q-2 -10 -2 -31q0 -89 98 -89q56 0 94 32t50 88h282q-31 -162 -159 -260.5t-310 -98.5zM654 -40q-255 0 -408.5 140t-153.5 367q0 15 0.5 28.5t3.5 36t7 44t12 64t16.5 85t23.5 118l30 151t39.5 197t48.5 243.5h474
q-126 -626 -151.5 -756.5t-25.5 -156.5q0 -64 39 -101.5t109 -37.5q82 0 141.5 52.5t76.5 136.5l172 863h474l-186 -915q-56 -272 -250.5 -415.5t-491.5 -143.5z" />
    <glyph glyph-name="ubreve" unicode="&#x16d;" horiz-adv-x="1302" 
d="M787 1222q-164 0 -264 87t-100 219q0 22 8 70h293q-5 -15 -5 -35q0 -46 29 -69.5t78 -23.5q60 0 100 34t52 94h293q-35 -182 -163 -279t-321 -97zM554 -40q-221 0 -356 121.5t-135 316.5q0 48 13.5 124t67.5 340q31 149 50 244h441q-22 -108 -42 -209.5t-32.5 -160.5
t-23.5 -113t-16 -81t-9.5 -50t-5.5 -33.5t-1 -19.5q0 -46 27.5 -71t75.5 -25q57 0 98 37.5t54 102.5l124 623h442l-131 -652q-48 -238 -216.5 -366t-424.5 -128z" />
    <glyph glyph-name="Uring" unicode="&#x16e;" horiz-adv-x="1507" 
d="M919 1474q-113 0 -181.5 61.5t-68.5 163.5q0 140 106 239t254 99q112 0 180 -60.5t68 -159.5q0 -148 -105.5 -245.5t-252.5 -97.5zM956 1651q52 0 88.5 37.5t36.5 90.5q0 36 -24 58.5t-64 22.5q-52 0 -90 -36.5t-38 -89.5q0 -38 24.5 -60.5t66.5 -22.5zM654 -40
q-255 0 -408.5 140t-153.5 367q0 15 0.5 28.5t3.5 36t7 44t12 64t16.5 85t23.5 118l30 151t39.5 197t48.5 243.5h474q-126 -626 -151.5 -756.5t-25.5 -156.5q0 -64 39 -101.5t109 -37.5q82 0 141.5 52.5t76.5 136.5l172 863h474l-186 -915q-56 -272 -250.5 -415.5
t-491.5 -143.5z" />
    <glyph glyph-name="uring" unicode="&#x16f;" horiz-adv-x="1302" 
d="M777 1185q-106 0 -170 57.5t-64 151.5q0 131 99.5 223.5t236.5 92.5q104 0 168 -56.5t64 -149.5q0 -137 -98.5 -228t-235.5 -91zM810 1350q49 0 84 34t35 83q0 35 -22.5 57t-60.5 22q-48 0 -84.5 -33.5t-36.5 -81.5q0 -36 22.5 -58.5t62.5 -22.5zM554 -40
q-221 0 -356 121.5t-135 316.5q0 48 13.5 124t67.5 340q31 149 50 244h441q-22 -108 -42 -209.5t-32.5 -160.5t-23.5 -113t-16 -81t-9.5 -50t-5.5 -33.5t-1 -19.5q0 -46 27 -71t75 -25q57 0 98.5 37.5t54.5 102.5l124 623h442l-131 -652q-48 -238 -216.5 -366t-424.5 -128z
" />
    <glyph glyph-name="Uhungarumlaut" unicode="&#x170;" horiz-adv-x="1507" 
d="M520 1553l184 345h397l-253 -345h-328zM969 1553l228 345h411l-309 -345h-330zM654 -40q-255 0 -408.5 140t-153.5 367q0 15 0.5 28.5t3.5 36t7 44t12 64t16.5 85t23.5 118l30 151t39.5 197t48.5 243.5h474q-126 -626 -151.5 -756.5t-25.5 -156.5q0 -64 39 -101.5
t109 -37.5q82 0 141.5 52.5t76.5 136.5l172 863h474l-186 -915q-56 -272 -250.5 -415.5t-491.5 -143.5z" />
    <glyph glyph-name="uhungarumlaut" unicode="&#x171;" horiz-adv-x="1302" 
d="M361 1234l183 368h399l-252 -368h-330zM812 1234l227 368h410l-304 -368h-333zM554 -40q-221 0 -356 121.5t-135 316.5q0 48 13.5 124t67.5 340q31 149 50 244h441q-22 -108 -42 -209.5t-32.5 -160.5t-23.5 -113t-16 -81t-9.5 -50t-5.5 -33.5t-1 -19.5q0 -46 27 -71
t75 -25q57 0 98.5 37.5t54.5 102.5l124 623h442l-131 -652q-48 -238 -216.5 -366t-424.5 -128z" />
    <glyph glyph-name="Uogonek" unicode="&#x172;" horiz-adv-x="1511" 
d="M1112 1434h474l-173 -864q-15 -73 -40.5 -138t-53.5 -112t-70 -92t-74.5 -73.5t-83.5 -60.5t-82 -48.5t-83 -42.5q-109 -55 -172.5 -110t-63.5 -118q0 -58 81 -58q52 0 124 26l-41 -200q-117 -55 -226 -55q-110 0 -178.5 52.5t-68.5 141.5q0 156 181 282
q-221 19 -346.5 144.5t-125.5 326.5q0 15 1 29t2 29.5t5 40t8.5 50t13.5 70.5t17.5 89.5t24 120t30.5 149.5t38 190.5t46 230.5h474q-127 -626 -151.5 -754t-24.5 -156q0 -65 38.5 -103t108.5 -38q82 0 142 52t77 135z" />
    <glyph glyph-name="uogonek" unicode="&#x173;" horiz-adv-x="1300" 
d="M882 1106h441l-131 -657q-10 -52 -26 -97t-34 -78.5t-43 -65t-47.5 -53t-54.5 -45.5t-57 -40t-62 -39q-17 -11 -26 -16q-113 -69 -147 -98q-79 -66 -79 -136q0 -31 21.5 -47.5t61.5 -16.5q55 0 116 25l-40 -200q-123 -54 -234 -54t-175 49.5t-64 135.5q0 158 191 292
q-197 15 -312.5 137.5t-115.5 307.5q0 16 1 30.5t3 31t7 45.5t10.5 57.5t16.5 84.5t22 109.5t30.5 149.5t37.5 188h440q-18 -92 -35 -176.5t-28.5 -141t-21.5 -108t-16.5 -82.5t-12 -58t-8 -41t-4.5 -26t-2.5 -17.5t-0.5 -10.5q0 -47 26 -72t76 -25q58 0 99.5 38t53.5 102z
" />
    <glyph glyph-name="Wcircumflex" unicode="&#x174;" horiz-adv-x="2156" 
d="M1284 1716l-186 -163h-336l321 345h435l186 -345h-299zM1830 1434h510l-730 -1434h-390l-120 619l-365 -619h-407l-160 1434h476l51 -730l453 729h178l162 -735z" />
    <glyph glyph-name="wcircumflex" unicode="&#x175;" horiz-adv-x="1798" 
d="M1063 1406l-187 -172h-340l325 368h438l183 -368h-299zM1441 1106h471l-568 -1106h-339l-106 451l-287 -451h-372l-136 1106h463l22 -525l348 524h121l149 -537z" />
    <glyph glyph-name="Ycircumflex" unicode="&#x176;" horiz-adv-x="1462" 
d="M939 1716l-185 -163h-336l321 345h435l186 -345h-299zM1640 1434l-679 -892l-109 -542h-463l108 540l-321 894h494l116 -465l302 465h552z" />
    <glyph glyph-name="ycircumflex" unicode="&#x177;" horiz-adv-x="1300" 
d="M822 1406l-187 -172h-340l325 368h438l183 -368h-299zM931 1106h492l-685 -1107q-80 -129 -150 -209.5t-150 -129t-166.5 -66.5t-206.5 -18h-171l73 365h101q109 0 166.5 33t110.5 123l-248 1009h461l88 -549z" />
    <glyph glyph-name="Ydieresis" unicode="&#x178;" horiz-adv-x="1462" 
d="M889 1914l-74 -361h-372l74 361h372zM1459 1914l-73 -361h-372l73 361h372zM1640 1434l-679 -892l-109 -542h-463l108 540l-321 894h494l116 -465l302 465h552z" />
    <glyph glyph-name="Zacute" unicode="&#x179;" horiz-adv-x="1269" 
d="M1360 1898l-390 -345h-315l251 345h454zM1379 1434l-23 -122l-687 -907h528l-80 -405h-1180l23 119l687 910h-486l80 405h1138z" />
    <glyph glyph-name="zacute" unicode="&#x17a;" horiz-adv-x="1071" 
d="M1107 1602l-316 -368h-314l198 368h432zM1127 1106l-17 -83l-519 -658h397l-73 -365h-988l16 82l526 660h-366l73 364h951z" />
    <glyph glyph-name="Zdotaccent" unicode="&#x17b;" horiz-adv-x="1269" 
d="M1137 1914l-72 -361h-452l72 361h452zM1379 1434l-23 -122l-687 -907h528l-80 -405h-1180l23 119l687 910h-486l80 405h1138z" />
    <glyph glyph-name="zdotaccent" unicode="&#x17c;" horiz-adv-x="1071" 
d="M960 1598l-72 -361h-417l71 361h418zM1127 1106l-17 -83l-519 -658h397l-73 -365h-988l16 82l526 660h-366l73 364h951z" />
    <glyph glyph-name="Zcaron" unicode="&#x17d;" horiz-adv-x="1269" 
d="M1007 1553h-435l-185 345h308l119 -164l185 164h329zM1379 1434l-23 -122l-687 -907h528l-80 -405h-1180l23 119l687 910h-486l80 405h1138z" />
    <glyph glyph-name="zcaron" unicode="&#x17e;" horiz-adv-x="1071" 
d="M892 1234h-438l-180 368h319l118 -173l189 173h319zM103 742l73 364h951l-17 -83l-519 -658h397l-73 -365h-988l16 82l526 660h-366z" />
    <glyph glyph-name="longs" unicode="&#x17f;" horiz-adv-x="686" 
d="M-9 0l229 1145q39 190 150 279.5t302 89.5h291l-71 -355h-144q-80 0 -97 -83l-216 -1076h-444z" />
    <glyph glyph-name="florin" unicode="&#x192;" horiz-adv-x="991" 
d="M902 1052q-51 0 -82.5 -23t-51.5 -74l-27 -75h212l-109 -308h-205l-261 -750q-55 -157 -147.5 -228t-240.5 -71h-285l114 342h72q62 0 101 30.5t61 96.5l206 580h-195l108 308h196l85 238q47 134 134 194.5t233 60.5h298l-109 -321h-107z" />
    <glyph glyph-name="AEacute" unicode="&#x1fc;" horiz-adv-x="1972" 
d="M1877 1898l-390 -345h-314l250 345h454zM1988 1078h-495l-40 -197h442l-64 -327h-443l-40 -198h510l-71 -356h-915l40 203h-425l-150 -203h-489l1101 1434h1111zM710 506h263l98 490z" />
    <glyph glyph-name="aeacute" unicode="&#x1fd;" horiz-adv-x="2197" 
d="M1654 1602l-316 -368h-315l198 368h433zM2167 658q0 -96 -30 -203h-837q7 -78 54.5 -120t129.5 -42q68 0 123 25t88 70h417q-79 -191 -257.5 -308.5t-383.5 -117.5q-223 0 -354 142l-33 -104h-230l4 77q-173 -117 -376 -117q-195 0 -319.5 141t-124.5 353
q0 187 82.5 344.5t231 250.5t330.5 93q213 0 344 -129l32 93h235l-3 -83q165 117 371 117q233 0 369.5 -133t136.5 -349zM1577 815q-80 0 -140 -39t-95 -107h420q-7 69 -56 107.5t-129 38.5zM659 334q107 0 182.5 80t75.5 183q0 78 -50 127.5t-132 49.5q-106 0 -180.5 -77.5
t-74.5 -187.5q0 -78 49 -126.5t130 -48.5z" />
    <glyph glyph-name="Oslashacute" unicode="&#x1fe;" horiz-adv-x="1755" 
d="M1568 1898l-390 -345h-315l251 345h454zM1554 1291q95 -87 148 -210t53 -256q0 -181 -78.5 -342.5t-209.5 -275.5t-307.5 -180.5t-367.5 -66.5q-124 0 -249 36l-89 -109h-406l216 259q-92 88 -143.5 210t-51.5 253q0 180 78.5 341.5t209.5 275.5t307.5 180.5t367.5 66.5
q118 0 241 -33l80 101h408zM958 1084q-116 0 -216.5 -60t-158.5 -157.5t-58 -205.5q0 -82 42 -151l442 569q-28 5 -51 5zM866 350q116 0 216.5 60t158 157.5t57.5 205.5q0 88 -46 158l-446 -575q30 -6 60 -6z" />
    <glyph glyph-name="oslashacute" unicode="&#x1ff;" horiz-adv-x="1368" 
d="M1246 1602l-316 -368h-314l198 368h432zM1171 1013q78 -62 119.5 -157t41.5 -209q0 -205 -96 -362t-264.5 -241t-383.5 -84q-106 0 -203 27l-85 -112h-272l164 215q-75 60 -115 154t-40 208q0 207 95.5 364.5t264 241.5t385.5 84q104 0 195 -25l86 114h272zM724 765
q-111 0 -190 -76t-79 -183q0 -48 21 -84l263 343h-15zM644 337q111 0 190 76t79 182q0 51 -22 86l-264 -343q3 0 8.5 -0.5t8.5 -0.5z" />
    <glyph glyph-name="uni0218" unicode="&#x218;" horiz-adv-x="1292" 
d="M547 -40q-250 0 -386 108t-136 303q0 44 7 86h479q-3 -15 -3 -28q0 -39 25 -62.5t72 -23.5q54 0 90.5 29t36.5 81q0 21 -11 37.5t-27 28t-45.5 22.5t-53 17t-64.5 16q-46 11 -74 18.5t-72.5 23.5t-73 32.5t-61.5 43t-52 57.5t-32 74.5t-13 95.5q0 130 48 235t134.5 174.5
t205 107t259.5 37.5q233 0 361 -99t128 -277q0 -41 -6 -86h-463q3 12 3 23q0 32 -20.5 51t-58.5 19q-48 0 -78.5 -24t-30.5 -66q0 -18 11 -33.5t26 -26t45 -22t52.5 -18.5t64.5 -19q50 -14 78 -22.5t76 -27t76.5 -35t64.5 -45t55.5 -59.5t33.5 -74.5t14 -94.5
q0 -176 -90.5 -308.5t-245 -200.5t-349.5 -68zM289 -770l37 190q63 3 106 39.5t54 93.5h-146l63 310h342l-56 -277q-30 -148 -138.5 -244t-261.5 -112z" />
    <glyph glyph-name="uni0219" unicode="&#x219;" horiz-adv-x="1105" 
d="M453 -40q-214 0 -333.5 88t-119.5 239q0 33 6 69h419q-4 -13 -4 -28q0 -34 22 -52t56 -18q36 0 63.5 22t27.5 61q0 33 -39 50.5t-124 35.5q-33 7 -49.5 11t-49 13.5t-51 17t-46.5 21t-44.5 27t-36.5 34t-30 43t-17.5 52t-7.5 63.5q0 210 154 323.5t401 113.5
q201 0 320 -87t119 -232q0 -16 -4 -54h-408q2 12 2 19q0 29 -18 47.5t-54 18.5q-33 0 -60 -20.5t-27 -56.5q0 -18 12 -31t31.5 -21t48.5 -15.5t59 -13.5q11 -2 17 -3q43 -9 65.5 -14t64.5 -17t66 -24.5t55 -34.5t47.5 -47.5t28.5 -62.5t12 -82q0 -143 -77 -247.5
t-205.5 -156t-291.5 -51.5zM168 -756l37 190q63 3 106 39t54 93h-147l64 311h342l-56 -278q-30 -148 -138.5 -243.5t-261.5 -111.5z" />
    <glyph glyph-name="uni021A" unicode="&#x21a;" horiz-adv-x="1282" 
d="M1432 1434l-74 -364h-386l-214 -1070h-459l213 1070h-388l73 364h1235zM278 -444l64 310h342l-56 -278q-30 -148 -138.5 -243.5t-261.5 -111.5l37 190q63 3 106 39.5t54 93.5h-147z" />
    <glyph glyph-name="uni021B" unicode="&#x21b;" horiz-adv-x="948" 
d="M932 769h-246q-61 -296 -61 -310q0 -35 22.5 -55t61.5 -20h152l-77 -384h-273q-160 0 -252.5 87t-92.5 234q0 10 0.5 18t1.5 21t2.5 23t5.5 31.5t7.5 39t10.5 53.5t13 67t17.5 87.5t21.5 107.5h-206l21 107l656 580h94l-70 -350h259zM242 -430l64 310h342l-56 -277
q-30 -148 -139 -244t-262 -112l37 190q63 3 106.5 39.5t54.5 93.5h-147z" />
    <glyph glyph-name="circumflex" unicode="&#x2c6;" horiz-adv-x="1228" 
d="M1255 1234h-298l-121 172l-187 -172h-339l325 368h437z" />
    <glyph glyph-name="caron" unicode="&#x2c7;" horiz-adv-x="1228" 
d="M941 1602h319l-327 -368h-437l-181 368h319l119 -173z" />
    <glyph glyph-name="breve" unicode="&#x2d8;" horiz-adv-x="1228" 
d="M726 1222q-164 0 -264 87t-100 219q0 22 8 70h294q-6 -18 -6 -35q0 -46 29.5 -69.5t78.5 -23.5q60 0 100 34t52 94h293q-35 -182 -163.5 -279t-321.5 -97z" />
    <glyph glyph-name="dotaccent" unicode="&#x2d9;" horiz-adv-x="843" 
d="M236 1237l71 361h418l-72 -361h-417z" />
    <glyph glyph-name="ring" unicode="&#x2da;" horiz-adv-x="1177" 
d="M610 1185q-106 0 -170 57.5t-64 151.5q0 131 99.5 223.5t236.5 92.5q104 0 168 -56.5t64 -149.5q0 -137 -98.5 -228t-235.5 -91zM643 1350q49 0 84 34t35 83q0 35 -22.5 57t-60.5 22q-48 0 -84.5 -33.5t-36.5 -81.5q0 -36 22.5 -58.5t62.5 -22.5z" />
    <glyph glyph-name="ogonek" unicode="&#x2db;" horiz-adv-x="1181" 
d="M273 -509q-108 0 -173.5 49t-65.5 136q0 123 115.5 233t316.5 190l121 -93q-122 -54 -183.5 -114.5t-61.5 -111.5q0 -60 84 -60q55 0 124 27l-40 -199q-123 -57 -237 -57z" />
    <glyph glyph-name="tilde" unicode="&#x2dc;" horiz-adv-x="1228" 
d="M900 1243q-103 0 -194 65q-51 35 -83 35q-35 0 -52.5 -23.5t-28.5 -73.5h-244q76 339 353 339q104 0 191 -67q48 -37 83 -37q37 0 53 23t28 78h245q-75 -339 -351 -339z" />
    <glyph glyph-name="hungarumlaut" unicode="&#x2dd;" horiz-adv-x="1341" 
d="M293 1234l183 368h399l-252 -368h-330zM744 1234l227 368h410l-304 -368h-333z" />
    <glyph glyph-name="gravecomb" unicode="&#x300;" 
d="M-47 1234h-314l-172 368h434z" />
    <glyph glyph-name="acutecomb" unicode="&#x301;" 
d="M-607 1234l198 368h433l-316 -368h-315z" />
    <glyph glyph-name="uni0302" unicode="&#x302;" 
d="M17 1234h-298l-121 172l-186 -172h-340l325 368h437z" />
    <glyph glyph-name="tildecomb" unicode="&#x303;" 
d="M-329 1243q-103 0 -194 65q-51 35 -83 35q-35 0 -52.5 -23.5t-28.5 -73.5h-244q76 339 353 339q104 0 191 -67q48 -37 83 -37q37 0 53 23t28 78h245q-75 -339 -351 -339z" />
    <glyph glyph-name="uni0304" unicode="&#x304;" 
d="M-732 1270l56 274h696l-56 -274h-696z" />
    <glyph glyph-name="uni0306" unicode="&#x306;" 
d="M-450 1222q-164 0 -264 87t-100 219q0 22 8 70h294q-6 -18 -6 -35q0 -46 29.5 -69.5t78.5 -23.5q59 0 99 34t52 94h293q-35 -182 -163 -279t-321 -97z" />
    <glyph glyph-name="uni0307" unicode="&#x307;" 
d="M-507 1237l72 361h418l-72 -361h-418z" />
    <glyph glyph-name="uni0308" unicode="&#x308;" 
d="M-1119 1240l69 349h353l-70 -349h-352zM-565 1240l70 349h352l-70 -349h-352z" />
    <glyph glyph-name="uni030A" unicode="&#x30a;" 
d="M-352 1185q-106 0 -170 57.5t-64 151.5q0 131 99.5 223.5t236.5 92.5q104 0 168 -56.5t64 -149.5q0 -137 -98.5 -228t-235.5 -91zM-319 1350q49 0 84 34t35 83q0 35 -22.5 57t-60.5 22q-48 0 -84.5 -33.5t-36.5 -81.5q0 -36 22.5 -58.5t62.5 -22.5z" />
    <glyph glyph-name="uni030B" unicode="&#x30b;" 
d="M-1061 1234l183 368h400l-252 -368h-331zM-610 1234l227 368h410l-304 -368h-333z" />
    <glyph glyph-name="uni030C" unicode="&#x30c;" 
d="M-287 1602h318l-327 -368h-437l-181 368h319l119 -173z" />
    <glyph glyph-name="uni0312" unicode="&#x312;" 
d="M-466 1234l56 277q30 148 138.5 244t261.5 112l-37 -191q-63 -3 -106 -39t-54 -93h146l-63 -310h-342z" />
    <glyph glyph-name="uni0326" unicode="&#x326;" 
d="M-663 -753l37 190q63 3 106.5 39.5t54.5 93.5h-147l64 310h342l-56 -277q-30 -148 -139 -244t-262 -112z" />
    <glyph glyph-name="uni0327" unicode="&#x327;" 
d="M-870 -73q78 -9 123 -51.5t45 -108.5q0 -110 -78.5 -181t-194.5 -71h-215l34 171h142q31 0 51.5 17.5t20.5 45.5q0 19 -14 30.5t-37 11.5h-99l-17 33l137 291h192z" />
    <glyph glyph-name="uni0328" unicode="&#x328;" 
d="M-644 -509q-108 0 -173.5 49t-65.5 136q0 123 115.5 233t316.5 190l121 -93q-122 -54 -183.5 -114.5t-61.5 -111.5q0 -60 84 -60q55 0 124 27l-40 -199q-123 -57 -237 -57z" />
    <glyph glyph-name="uni0335" unicode="&#x335;" 
d="M-904 1230l42 212h863l-42 -212h-863z" />
    <glyph glyph-name="uni0337" unicode="&#x337;" 
d="M-1068 385l77 379l815 369l-75 -379z" />
    <glyph glyph-name="tonos" unicode="&#x384;" horiz-adv-x="923" 
d="M317 1234l198 368h432l-316 -368h-314z" />
    <glyph glyph-name="dieresistonos" unicode="&#x385;" horiz-adv-x="1460" 
d="M580 1234l160 368h369l-249 -368h-280zM240 1291l47 241h284l-46 -241h-285zM1071 1291l46 241h285l-47 -241h-284z" />
    <glyph glyph-name="Alphatonos" unicode="&#x386;" horiz-adv-x="1785" 
d="M714 1434l-362 -338h-290l235 338h417zM1209 0l-22 207h-471l-109 -207h-517l856 1434h457l289 -1434h-483zM1095 938l-231 -423h291z" />
    <glyph glyph-name="Epsilontonos" unicode="&#x388;" horiz-adv-x="1650" 
d="M290 1434h416l-362 -338h-290zM1671 1084h-513l-40 -200h457l-64 -326h-459l-41 -203h527l-72 -355h-978l287 1434h966z" />
    <glyph glyph-name="Etatonos" unicode="&#x389;" horiz-adv-x="2000" 
d="M290 1434h416l-362 -338h-290zM1597 1434h463l-287 -1434h-463l108 542h-358l-108 -542h-464l287 1434h463l-102 -514h358z" />
    <glyph glyph-name="Iotatonos" unicode="&#x38a;" horiz-adv-x="1181" 
d="M54 1096l236 338h416l-362 -338h-290zM487 0l286 1434h467l-287 -1434h-466z" />
    <glyph glyph-name="Omicrontonos" unicode="&#x38c;" horiz-adv-x="2164" 
d="M1205 -40q-209 0 -366.5 81.5t-241 224.5t-83.5 328q0 194 72.5 359t198.5 278.5t301.5 177.5t376.5 64q314 0 502.5 -176t188.5 -457q0 -194 -72.5 -359t-198.5 -279t-301.5 -178t-376.5 -64zM55 1096l235 338h417l-362 -338h-290zM1278 382q111 0 201.5 56.5t139 148.5
t48.5 198q0 123 -74.5 195t-202.5 72q-111 0 -201.5 -56.5t-139.5 -149t-49 -198.5q0 -122 75 -194t203 -72z" />
    <glyph glyph-name="Upsilontonos" unicode="&#x38e;" horiz-adv-x="2095" 
d="M156 1096l235 338h416l-362 -338h-289zM2274 1434l-679 -892l-109 -542h-463l109 540l-321 894h494l115 -465l303 465h551z" />
    <glyph glyph-name="Omegatonos" unicode="&#x38f;" horiz-adv-x="2076" 
d="M2022 893q0 -290 -227 -527h175l-73 -366h-767l65 326q146 56 249 191t103 277q0 114 -74.5 186t-196.5 72q-172 0 -287.5 -117.5t-115.5 -280.5q0 -102 50 -192t139 -132l-64 -330h-754l73 366h200q-87 158 -87 341q0 145 49.5 270t135.5 215.5t200 155.5t244 97t267 32
q139 0 263.5 -38t221.5 -109.5t154 -184.5t57 -252zM718 1434l-362 -338h-290l236 338h416z" />
    <glyph glyph-name="iotadieresistonos" unicode="&#x390;" horiz-adv-x="804" 
d="M281 1234l141 367h355l-212 -367h-284zM-35 1291l48 241h285l-48 -241h-285zM740 1291l49 241h284l-48 -241h-285zM461 -1q-198 0 -299.5 87.5t-101.5 255.5q0 13 0.5 25t1.5 25t4.5 33t6.5 38.5t9.5 54.5t13 68.5t18.5 91t22.5 112.5t28.5 143.5t35 172.5h440
q-115 -566 -120 -606q-1 -13 -1 -24q0 -46 27 -67.5t85 -21.5h126l-77 -388h-219z" />
    <glyph glyph-name="Alpha" unicode="&#x391;" horiz-adv-x="1568" 
d="M993 0l-21 207h-471l-110 -207h-517l856 1434h457l289 -1434h-483zM879 938l-231 -423h291z" />
    <glyph glyph-name="Beta" unicode="&#x392;" horiz-adv-x="1349" 
d="M1111 734q77 -44 119 -118t42 -166q0 -137 -72.5 -240.5t-194.5 -156.5t-273 -53h-726l287 1434h662q182 0 294.5 -94t112.5 -235q0 -115 -69.5 -214t-181.5 -157zM776 871q62 0 103 41.5t41 105.5q0 45 -27 71.5t-74 26.5h-160l-49 -245h166zM681 332q64 0 109.5 44
t45.5 109q0 49 -29.5 77t-80.5 28h-173l-52 -258h180z" />
    <glyph glyph-name="Gamma" unicode="&#x393;" horiz-adv-x="1073" 
d="M1217 1434l-73 -369h-461l-213 -1065h-464l287 1434h924z" />
    <glyph glyph-name="uni0394" unicode="&#x394;" horiz-adv-x="1527" 
d="M1151 1434l282 -1434h-1557l851 1434h424zM862 911l-312 -571h396z" />
    <glyph glyph-name="Epsilon" unicode="&#x395;" horiz-adv-x="1169" 
d="M1189 1084h-513l-40 -200h457l-64 -326h-459l-41 -203h527l-72 -355h-978l287 1434h966z" />
    <glyph glyph-name="Zeta" unicode="&#x396;" horiz-adv-x="1269" 
d="M1379 1434l-23 -122l-687 -907h528l-80 -405h-1180l23 119l687 910h-486l80 405h1138z" />
    <glyph glyph-name="Eta" unicode="&#x397;" horiz-adv-x="1519" 
d="M1115 1434h463l-287 -1434h-463l108 542h-358l-108 -542h-464l287 1434h463l-102 -514h358z" />
    <glyph glyph-name="Theta" unicode="&#x398;" horiz-adv-x="1726" 
d="M767 -40q-209 0 -366.5 81.5t-241 224.5t-83.5 328q0 194 72.5 359t198.5 278.5t301.5 177.5t376.5 64q315 0 503 -176t188 -457q0 -194 -72.5 -359t-198.5 -279t-301.5 -178t-376.5 -64zM840 382q114 0 207.5 55.5t145 147t51.5 197.5q0 123 -79.5 196.5t-212.5 73.5
q-171 0 -287.5 -118.5t-116.5 -281.5q0 -123 79.5 -196.5t212.5 -73.5zM673 595l49 240h401l-49 -240h-401z" />
    <glyph glyph-name="Iota" unicode="&#x399;" horiz-adv-x="700" 
d="M6 0l287 1434h467l-287 -1434h-467z" />
    <glyph glyph-name="Kappa" unicode="&#x39a;" horiz-adv-x="1413" 
d="M1596 1434l-588 -713l333 -721h-515l-247 582l-116 -582h-457l287 1434h456l-106 -530l399 530h554z" />
    <glyph glyph-name="Lambda" unicode="&#x39b;" horiz-adv-x="1456" 
d="M1359 0h-509l-58 780l-377 -780h-533l814 1434h424z" />
    <glyph glyph-name="Mu" unicode="&#x39c;" horiz-adv-x="2017" 
d="M1491 1434h454l-77 -1434h-440l57 732l-492 -733h-152l-198 731l-235 -730h-477l499 1434h450l160 -704z" />
    <glyph glyph-name="Nu" unicode="&#x39d;" horiz-adv-x="1566" 
d="M1188 1434h438l-287 -1434h-374l-382 692l-138 -692h-439l287 1434h372l383 -696z" />
    <glyph glyph-name="Xi" unicode="&#x39e;" horiz-adv-x="1153" 
d="M191 1060l75 374h975l-74 -374h-976zM167 549l68 345h815l-68 -345h-815zM-37 0l76 380h1006l-76 -380h-1006z" />
    <glyph glyph-name="Omicron" unicode="&#x39f;" horiz-adv-x="1726" 
d="M767 -40q-209 0 -366.5 81.5t-241 224.5t-83.5 328q0 194 72.5 359t198.5 278.5t301.5 177.5t376.5 64q315 0 503 -176t188 -457q0 -194 -72.5 -359t-198.5 -279t-301.5 -178t-376.5 -64zM840 382q111 0 201.5 56.5t139 148.5t48.5 198q0 123 -74.5 195t-202.5 72
q-111 0 -201.5 -56.5t-139 -149t-48.5 -198.5q0 -122 74.5 -194t202.5 -72z" />
    <glyph glyph-name="Pi" unicode="&#x3a0;" horiz-adv-x="1505" 
d="M293 1434h1272l-287 -1434h-466l212 1060h-338l-213 -1060h-467z" />
    <glyph glyph-name="Rho" unicode="&#x3a1;" horiz-adv-x="1361" 
d="M937 1434q209 0 340 -126t131 -320q0 -131 -50.5 -248t-136.5 -201t-206 -133.5t-254 -49.5h-225l-72 -356h-458l287 1434h644zM718 717q95 0 153.5 64.5t58.5 153.5q0 65 -37.5 102t-110.5 37h-103l-71 -357h110z" />
    <glyph glyph-name="Sigma" unicode="&#x3a3;" horiz-adv-x="1191" 
d="M1288 1434l-72 -363h-478l218 -333l-9 -53l-293 -322h438l-72 -363h-1114l23 110l592 645l-339 568l23 111h1083z" />
    <glyph glyph-name="Tau" unicode="&#x3a4;" horiz-adv-x="1282" 
d="M1432 1434l-74 -364h-386l-214 -1070h-459l213 1070h-388l73 364h1235z" />
    <glyph glyph-name="Upsilon" unicode="&#x3a5;" horiz-adv-x="1462" 
d="M1640 1434l-679 -892l-110 -542h-462l108 540l-321 894h494l116 -465l302 465h552z" />
    <glyph glyph-name="Phi" unicode="&#x3a6;" horiz-adv-x="1855" 
d="M1852 817q0 -212 -109.5 -383.5t-295 -271.5t-414.5 -117l-30 -147h-411l30 149q-251 33 -401.5 194.5t-150.5 387.5q0 158 64.5 296.5t176 236.5t262 159t320.5 73l27 138h407l-28 -138q256 -23 404.5 -185t148.5 -392zM513 656q0 -93 52 -154t145 -73l117 585
q-140 -17 -227 -119t-87 -239zM1096 429q140 15 226.5 117.5t86.5 241.5q0 92 -52 152.5t-144 73.5z" />
    <glyph glyph-name="Chi" unicode="&#x3a7;" horiz-adv-x="1409" 
d="M1592 1434l-564 -717l282 -717h-503l-124 362l-266 -362h-552l596 764l-270 670h488l119 -328l240 328h554z" />
    <glyph glyph-name="Psi" unicode="&#x3a8;" horiz-adv-x="1785" 
d="M1435 1434h453l-115 -575q-52 -261 -237 -411.5t-452 -150.5h-17l-57 -297h-464l61 297q-223 5 -354.5 134.5t-131.5 337.5q0 14 0.5 25t2.5 29t4 32.5t8 46t11 58t15.5 80t20.5 101t26.5 131.5t32.5 162h452q-121 -599 -121 -626q0 -55 32.5 -86t90.5 -31h5l149 743h430
l-149 -743h5q69 0 118.5 42.5t63.5 113.5z" />
    <glyph glyph-name="uni03A9" unicode="&#x3a9;" horiz-adv-x="1794" 
d="M1739 893q0 -290 -227 -527h175l-74 -366h-766l65 326q146 56 249 191t103 277q0 114 -74.5 186t-196.5 72q-172 0 -288 -117.5t-116 -280.5q0 -102 50.5 -192t139.5 -132l-64 -330h-754l73 366h200q-87 158 -87 341q0 145 49.5 270t135.5 215.5t200 155.5t244 97t267 32
q139 0 263.5 -38t221.5 -109.5t154 -184.5t57 -252z" />
    <glyph glyph-name="Iotadieresis" unicode="&#x3aa;" horiz-adv-x="700" 
d="M91 1553l74 361h361l-73 -361h-362zM642 1553l74 361h361l-73 -361h-362zM6 0l287 1434h467l-287 -1434h-467z" />
    <glyph glyph-name="Upsilondieresis" unicode="&#x3ab;" horiz-adv-x="1462" 
d="M889 1914l-74 -361h-372l74 361h372zM1459 1914l-73 -361h-372l73 361h372zM1640 1434l-679 -892l-109 -542h-463l108 540l-321 894h494l116 -465l302 465h552z" />
    <glyph glyph-name="alphatonos" unicode="&#x3ac;" horiz-adv-x="1421" 
d="M1250 1602l-316 -368h-315l198 368h433zM1102 1106h331l-221 -1106h-310l-26 81q-172 -121 -372 -121q-96 0 -180 31t-149 90.5t-102.5 153.5t-37.5 211q0 128 38.5 241t104 195.5t151 143t181.5 90.5t193 30q203 0 331 -131zM481 513q0 -79 48.5 -129t128.5 -50
q103 0 178.5 79t75.5 184q0 78 -49 127.5t-130 49.5q-104 0 -178 -76.5t-74 -184.5z" />
    <glyph glyph-name="epsilontonos" unicode="&#x3ad;" horiz-adv-x="1093" 
d="M1123 1602l-316 -368h-315l198 368h433zM645 1142q138 0 241 -38t163 -120t55 -201h-400q-1 35 -25.5 56.5t-62.5 21.5q-48 0 -76.5 -25.5t-28.5 -60.5q0 -33 23.5 -52t63.5 -19h139l-53 -267h-149q-48 0 -81.5 -27.5t-33.5 -71.5q0 -35 24 -55.5t64 -20.5q43 0 76.5 28
t43.5 73h413q-21 -126 -107 -220t-207 -140t-258 -46q-124 0 -229.5 39.5t-172.5 119t-67 184.5q0 98 62 180t162 122q-50 36 -76.5 89.5t-26.5 113.5q0 111 73 189t189 113t262 35z" />
    <glyph glyph-name="etatonos" unicode="&#x3ae;" horiz-adv-x="1325" 
d="M1277 1602l-316 -368h-315l198 368h433zM902 1146q169 0 268.5 -104t99.5 -272q0 -18 -0.5 -32t-4 -39.5t-7.5 -49t-13.5 -73.5t-19.5 -100t-28.5 -141.5t-37.5 -185.5t-49 -243.5t-61 -304.5h-441q64 321 140 697q71 351 71 376q0 49 -23.5 75.5t-67.5 26.5
q-63 0 -108.5 -41.5t-64.5 -116.5l-123 -618h-441l221 1106h315l21 -87q142 127 354 127z" />
    <glyph glyph-name="iotatonos" unicode="&#x3af;" horiz-adv-x="804" 
d="M246 1234l198 368h433l-316 -368h-315zM461 -1q-198 0 -299.5 87.5t-101.5 255.5q0 13 0.5 25t1.5 25t4.5 33t6.5 38.5t9.5 54.5t13 68.5t18.5 91t22.5 112.5t28.5 143.5t35 172.5h440q-115 -566 -120 -606q-1 -13 -1 -24q0 -46 27 -67.5t85 -21.5h126l-77 -388h-219z
" />
    <glyph glyph-name="upsilondieresistonos" unicode="&#x3b0;" horiz-adv-x="1302" 
d="M565 1234l160 368h369l-249 -368h-280zM225 1291l47 241h284l-46 -241h-285zM1056 1291l46 241h285l-47 -241h-284zM554 -40q-221 0 -356 121.5t-135 316.5q0 48 13.5 124t67.5 340q31 149 50 244h441q-22 -108 -42 -209.5t-32.5 -160.5t-23.5 -113t-16 -81t-9.5 -50
t-5.5 -33.5t-1 -19.5q0 -46 27 -71t75 -25q57 0 98.5 37.5t54.5 102.5l124 623h442l-131 -652q-48 -238 -216.5 -366t-424.5 -128z" />
    <glyph glyph-name="alpha" unicode="&#x3b1;" horiz-adv-x="1421" 
d="M1102 1106h331l-221 -1106h-310l-26 81q-172 -121 -372 -121q-96 0 -180 31t-149 90.5t-102.5 153.5t-37.5 211q0 128 38.5 241t104 195.5t151 143t181.5 90.5t193 30q203 0 331 -131zM481 513q0 -79 48.5 -129t128.5 -50q103 0 178.5 79t75.5 184q0 78 -49 127.5
t-130 49.5q-104 0 -178 -76.5t-74 -184.5z" />
    <glyph glyph-name="beta" unicode="&#x3b2;" horiz-adv-x="1314" 
d="M1107 765q139 -101 139 -282q0 -125 -49 -225t-135.5 -164t-201 -97.5t-249.5 -33.5q-121 0 -212 25l-77 -387h-412l285 1414q53 265 221.5 398t444.5 133q212 0 340 -109.5t128 -279.5q0 -123 -59.5 -228t-162.5 -164zM754 931q84 0 141 51.5t57 122.5q0 54 -37 87.5
t-96 33.5q-84 0 -139 -53t-73 -147l-141 -702q73 -26 148 -26q110 0 178 53.5t68 143.5q0 66 -43 100t-126 34h-68l60 302h71z" />
    <glyph glyph-name="gamma" unicode="&#x3b3;" horiz-adv-x="1261" 
d="M1381 1106l-629 -1033l-94 -472h-436l95 476l-220 1029h433l70 -619l316 619h465z" />
    <glyph glyph-name="delta" unicode="&#x3b4;" horiz-adv-x="1275" 
d="M1324 1479l-61 -301h-462q211 -108 321 -262t110 -332q0 -136 -54 -253t-147 -198t-220.5 -127t-272.5 -46q-226 0 -369 134.5t-143 341.5q0 122 46 226t125.5 175.5t189.5 112t235 40.5q-170 112 -394 187l60 302h1036zM597 306q97 0 166 69.5t69 170.5q0 73 -45 118.5
t-121 45.5q-97 0 -167 -71.5t-70 -168.5q0 -72 46.5 -118t121.5 -46z" />
    <glyph glyph-name="epsilon" unicode="&#x3b5;" horiz-adv-x="1093" 
d="M616 861q-48 0 -76.5 -25.5t-28.5 -60.5q0 -33 23.5 -52t63.5 -19h139l-53 -267h-149q-48 0 -81.5 -27.5t-33.5 -71.5q0 -35 24 -55.5t64 -20.5q43 0 76.5 28t43.5 73h413q-21 -126 -107 -220t-207 -140t-258 -46q-124 0 -229.5 39.5t-172.5 119t-67 184.5q0 98 62 180
t162 122q-50 36 -76.5 89.5t-26.5 113.5q0 111 73 189t189 113t262 35q138 0 241 -38t163 -120t55 -201h-400q-1 35 -25.5 56.5t-62.5 21.5z" />
    <glyph glyph-name="zeta" unicode="&#x3b6;" horiz-adv-x="1124" 
d="M1252 1212q-131 -75 -234.5 -142t-208 -147t-173.5 -153t-112.5 -154.5t-43.5 -156.5q0 -50 20.5 -87t54.5 -58t77.5 -40.5t88.5 -33.5t88.5 -38t77.5 -52.5t54.5 -78.5t20.5 -115q0 -130 -87 -355h-403q42 126 42 173q0 53 -28 92.5t-73 65t-99.5 48t-109 49.5
t-99.5 61.5t-73 91t-28 130.5q0 116 49 231t138 219.5t197 196t243 178.5h-441l73 368h1047z" />
    <glyph glyph-name="eta" unicode="&#x3b7;" horiz-adv-x="1325" 
d="M902 1146q169 0 268.5 -104t99.5 -272q0 -18 -0.5 -32t-4 -39.5t-7.5 -49t-13.5 -73.5t-19.5 -100t-28.5 -141.5t-37.5 -185.5t-49 -243.5t-61 -304.5h-441q64 321 140 697q71 351 71 376q0 49 -23.5 75.5t-67.5 26.5q-63 0 -108.5 -41.5t-64.5 -116.5l-123 -618h-441
l221 1106h315l21 -87q142 127 354 127z" />
    <glyph glyph-name="theta" unicode="&#x3b8;" horiz-adv-x="1482" 
d="M1474 884q0 -152 -36 -290.5t-107.5 -254t-171 -200.5t-232.5 -132t-285 -47q-174 0 -304 78t-197.5 216t-67.5 318q0 152 36.5 290.5t108 252.5t170.5 198.5t231.5 131t284.5 46.5q262 0 415.5 -167.5t154.5 -439.5zM842 1114q-105 0 -183.5 -70.5t-121.5 -186.5h516
q-2 124 -55.5 190.5t-155.5 66.5zM705 339q108 0 186 72.5t121 191.5h-518q2 -128 55 -196t156 -68z" />
    <glyph glyph-name="iota" unicode="&#x3b9;" horiz-adv-x="804" 
d="M461 -1q-198 0 -299.5 87.5t-101.5 255.5q0 13 0.5 25t1.5 25t4.5 33t6.5 38.5t9.5 54.5t13 68.5t18.5 91t22.5 112.5t28.5 143.5t35 172.5h440q-115 -566 -120 -606q-1 -13 -1 -24q0 -46 27 -67.5t85 -21.5h126l-77 -388h-219z" />
    <glyph glyph-name="kappa" unicode="&#x3ba;" horiz-adv-x="1249" 
d="M1362 1106l-436 -541l243 -565h-466l-180 457l-91 -457h-441l221 1106h441l-73 -364l270 364h512z" />
    <glyph glyph-name="lambda" unicode="&#x3bb;" horiz-adv-x="1261" 
d="M1164 0h-452l-50 576l-281 -576h-500l640 1042q-19 71 -70 97.5t-163 26.5h-53l73 364h100q166 0 269.5 -46t166 -149t99.5 -285z" />
    <glyph glyph-name="uni03BC" unicode="&#x3bc;" horiz-adv-x="1355" 
d="M927 1106h440l-221 -1106h-303l-35 105q-61 -61 -144 -96t-172 -35q-51 0 -91 11l-77 -384h-413l301 1505h441q-121 -600 -125 -630q-3 -19 -3 -35q0 -102 98 -102q71 0 119 44t64 123z" />
    <glyph glyph-name="nu" unicode="&#x3bd;" horiz-adv-x="1280" 
d="M907 1106h493l-676 -1106h-393l-236 1106h477l48 -595z" />
    <glyph glyph-name="xi" unicode="&#x3be;" horiz-adv-x="1179" 
d="M1318 1050h-448q2 46 -24 72t-73 26q-55 0 -95.5 -38t-40.5 -89q0 -39 26 -60.5t74 -21.5h123l-71 -353h-124q-66 0 -108.5 -38.5t-42.5 -99.5q0 -31 14 -56t44 -44.5t57.5 -32t74.5 -29.5q136 -52 188 -84q142 -87 147 -242v-12q0 -111 -84 -347h-404q43 129 43 176
q0 28 -8.5 51.5t-28.5 43t-38.5 34t-53 30.5t-57.5 25t-65 25q-157 63 -242 149.5t-85 215.5q0 304 318 438q-145 97 -145 270q0 108 51.5 196t139.5 143.5t199.5 85.5t235.5 30q255 0 395.5 -120.5t107.5 -343.5z" />
    <glyph glyph-name="omicron" unicode="&#x3bf;" horiz-adv-x="1363" 
d="M601 -40q-156 0 -282.5 58.5t-203.5 175.5t-77 275q0 197 98.5 353.5t264 241t364.5 84.5q155 0 281 -59t203.5 -177t77.5 -275q0 -150 -57 -277.5t-155 -214.5t-231 -136t-283 -49zM642 345q102 0 175 74t73 182q0 73 -45 118.5t-121 45.5q-102 0 -175 -74.5t-73 -183.5
q0 -73 45 -117.5t121 -44.5z" />
    <glyph glyph-name="pi" unicode="&#x3c0;" horiz-adv-x="1316" 
d="M212 1106h1115l-221 -1106h-441l152 762h-234l-152 -762h-440z" />
    <glyph glyph-name="rho" unicode="&#x3c1;" horiz-adv-x="1409" 
d="M810 1148q155 0 281 -59t203.5 -177t77.5 -275q0 -193 -95.5 -349.5t-256 -243t-349.5 -86.5q-140 0 -261 67l-84 -424h-432l193 969q55 274 250.5 426t472.5 152zM687 345q102 0 175 74t73 182q0 73 -45 118.5t-121 45.5q-102 0 -175 -74.5t-73 -183.5q0 -73 45 -117.5
t121 -44.5z" />
    <glyph glyph-name="uni03C2" unicode="&#x3c2;" horiz-adv-x="1269" 
d="M611 -399q38 116 38 161q0 29 -8 54t-26.5 45.5t-35.5 35t-50 31t-55 26t-63 25.5q-47 18 -76.5 31t-73 37t-71.5 47t-59.5 59t-50 76t-30.5 95.5t-12 119.5q0 209 91.5 367.5t257.5 244.5t383 86q238 0 379.5 -143t145.5 -371h-424q-3 58 -47 95.5t-109 37.5
q-105 0 -172.5 -78.5t-67.5 -181.5q0 -36 15 -66t35 -49.5t59 -39t68 -30t81 -27.5q36 -12 56.5 -19t54.5 -20.5t54.5 -24.5t49 -28.5t46 -35t37 -42t30 -51t17.5 -60t7 -71.5q0 -121 -71 -336h-403z" />
    <glyph glyph-name="sigma" unicode="&#x3c3;" horiz-adv-x="1486" 
d="M1574 1106l-73 -351h-237q43 -86 43 -189q0 -131 -58 -244.5t-156 -191t-228 -122t-271 -44.5q-250 0 -403.5 141t-153.5 360q0 193 95.5 339.5t260.5 224t373 77.5h808zM648 334q97 0 165 70t68 170q0 74 -44.5 120t-120.5 46q-96 0 -165.5 -70t-69.5 -169
q0 -74 45.5 -120.5t121.5 -46.5z" />
    <glyph glyph-name="tau" unicode="&#x3c4;" horiz-adv-x="1054" 
d="M1029 755h-272q-52 -255 -52 -288q0 -46 27.5 -67.5t85.5 -21.5h125l-75 -379h-219q-198 0 -299.5 87.5t-101.5 255.5q0 48 11 112.5t59 300.5h-254l71 351h966z" />
    <glyph glyph-name="upsilon" unicode="&#x3c5;" horiz-adv-x="1302" 
d="M554 -40q-221 0 -356 121.5t-135 316.5q0 48 13.5 124t67.5 340q31 149 50 244h441q-22 -108 -42 -209.5t-32.5 -160.5t-23.5 -113t-16 -81t-9.5 -50t-5.5 -33.5t-1 -19.5q0 -46 27 -71t75 -25q57 0 98.5 37.5t54.5 102.5l124 623h442l-131 -652q-48 -238 -216.5 -366
t-424.5 -128z" />
    <glyph glyph-name="phi" unicode="&#x3c6;" horiz-adv-x="1689" 
d="M1652 627q0 -196 -92 -344.5t-253.5 -229t-371.5 -89.5l-64 -320h-408l65 322q-219 19 -353 166.5t-134 371.5q0 217 144.5 391.5t377.5 242.5l74 -341q-80 -38 -128.5 -110t-48.5 -151q0 -84 47 -139t127 -64l161 803h318q241 0 390 -143t149 -366zM976 332
q116 9 187 85.5t71 185.5q0 71 -45 113.5t-127 49.5z" />
    <glyph glyph-name="chi" unicode="&#x3c7;" horiz-adv-x="1241" 
d="M1355 1106l-447 -536l255 -570h-457l-111 293l-215 -293h-519l489 595l-236 511h451l101 -245l189 245h500z" />
    <glyph glyph-name="psi" unicode="&#x3c8;" horiz-adv-x="1740" 
d="M1360 1106h403l-127 -641q-48 -241 -199.5 -372.5t-379.5 -131.5h-85l-70 -350h-443l69 350h-45q-194 0 -307.5 113t-113.5 301q0 48 12 117t68 349q32 161 53 265h403q-116 -579 -121 -619q-1 -12 -1 -22q0 -62 36 -98.5t100 -36.5h8l155 774h408l-155 -774h11
q75 0 130.5 50t71.5 131z" />
    <glyph glyph-name="omega" unicode="&#x3c9;" horiz-adv-x="1775" 
d="M1697 1106q44 -154 44 -351q0 -128 -22 -243.5t-67.5 -214t-111.5 -170.5t-159.5 -112.5t-205.5 -40.5q-140 0 -228 71.5t-105 198.5q-64 -129 -172 -199.5t-245 -70.5q-181 0 -285.5 114t-104.5 309q-5 316 265 709h431q-100 -139 -173 -319t-73 -307q0 -107 75 -107
q89 0 115 124l75 378h405q-80 -401 -80 -424q0 -78 71 -78q46 0 80.5 41t52 107.5t25.5 135t8 138.5q0 155 -45 311h430z" />
    <glyph glyph-name="iotadieresis" unicode="&#x3ca;" horiz-adv-x="804" 
d="M-5 1240l70 349h352l-69 -349h-353zM550 1240l69 349h353l-70 -349h-352zM461 -1q-198 0 -299.5 87.5t-101.5 255.5q0 13 0.5 25t1.5 25t4.5 33t6.5 38.5t9.5 54.5t13 68.5t18.5 91t22.5 112.5t28.5 143.5t35 172.5h440q-115 -566 -120 -606q-1 -13 -1 -24
q0 -46 27 -67.5t85 -21.5h126l-77 -388h-219z" />
    <glyph glyph-name="upsilondieresis" unicode="&#x3cb;" horiz-adv-x="1302" 
d="M332 1240l70 349h352l-70 -349h-352zM886 1240l70 349h352l-69 -349h-353zM554 -40q-221 0 -356 121.5t-135 316.5q0 48 13.5 124t67.5 340q31 149 50 244h441q-22 -108 -42 -209.5t-32.5 -160.5t-23.5 -113t-16 -81t-9.5 -50t-5.5 -33.5t-1 -19.5q0 -46 27 -71t75 -25
q57 0 98.5 37.5t54.5 102.5l124 623h442l-131 -652q-48 -238 -216.5 -366t-424.5 -128z" />
    <glyph glyph-name="omicrontonos" unicode="&#x3cc;" horiz-adv-x="1363" 
d="M617 1234l198 368h432l-316 -368h-314zM601 -40q-156 0 -282.5 58.5t-203.5 175.5t-77 275q0 197 98.5 353.5t264 241t364.5 84.5q155 0 281 -59t203.5 -177t77.5 -275q0 -150 -57 -277.5t-155 -214.5t-231 -136t-283 -49zM642 345q102 0 175 74t73 182q0 73 -45 118.5
t-121 45.5q-102 0 -175 -74.5t-73 -183.5q0 -73 45 -117.5t121 -44.5z" />
    <glyph glyph-name="upsilontonos" unicode="&#x3cd;" horiz-adv-x="1302" 
d="M583 1234l198 368h433l-317 -368h-314zM554 -40q-221 0 -356 121.5t-135 316.5q0 48 13.5 124t67.5 340q31 149 50 244h441q-22 -108 -42 -209.5t-32.5 -160.5t-23.5 -113t-16 -81t-9.5 -50t-5.5 -33.5t-1 -19.5q0 -46 27 -71t75 -25q57 0 98.5 37.5t54.5 102.5l124 623
h442l-131 -652q-48 -238 -216.5 -366t-424.5 -128z" />
    <glyph glyph-name="omegatonos" unicode="&#x3ce;" horiz-adv-x="1775" 
d="M1455 1602l-316 -368h-314l198 368h432zM1697 1106q44 -154 44 -351q0 -128 -22 -243.5t-67.5 -214t-111.5 -170.5t-159.5 -112.5t-205.5 -40.5q-140 0 -228 71.5t-105 198.5q-64 -129 -172 -199.5t-245 -70.5q-181 0 -285.5 114t-104.5 309q-5 316 265 709h431
q-100 -139 -173 -319t-73 -307q0 -107 75 -107q89 0 115 124l75 378h405q-80 -401 -80 -424q0 -78 71 -78q46 0 80.5 41t52 107.5t25.5 135t8 138.5q0 155 -45 311h430z" />
    <glyph glyph-name="uni0401" unicode="&#x401;" horiz-adv-x="1169" 
d="M777 1917l-70 -349h-352l70 349h352zM979 1917h352l-69 -349h-353zM6 0l287 1434h966l-70 -350h-513l-40 -200h457l-64 -326h-459l-41 -203h527l-72 -355h-978z" />
    <glyph glyph-name="uni0402" unicode="&#x402;" horiz-adv-x="1595" 
d="M1162 927q173 0 284 -98t111 -269q0 -161 -78.5 -294.5t-216.5 -210.5t-304 -77h-79l69 348h32q70 0 117.5 45.5t47.5 115.5q0 46 -30 73.5t-82 27.5q-46 0 -102 -19t-103 -51l-103 -518h-432l212 1059h-381l74 375h1208l-75 -375h-395l-39 -193q129 61 265 61z" />
    <glyph glyph-name="uni0403" unicode="&#x403;" horiz-adv-x="1073" 
d="M1224 1898l-390 -345h-314l250 345h454zM6 0l287 1434h924l-73 -369h-461l-213 -1065h-464z" />
    <glyph glyph-name="uni0404" unicode="&#x404;" horiz-adv-x="1638" 
d="M929 1059q-108 0 -194.5 -53.5t-138.5 -143.5h408l-59 -294h-407q16 -91 82 -142.5t172 -51.5q114 0 211 66.5t146 178.5h462q-96 -306 -333.5 -482t-558.5 -176q-291 0 -470.5 168t-179.5 433q0 152 45.5 291.5t129.5 251t197 194.5t255 128t297 45q148 0 275.5 -50
t214 -135t132.5 -202t37 -247h-470q-8 100 -77.5 160.5t-175.5 60.5z" />
    <glyph glyph-name="uni0405" unicode="&#x405;" horiz-adv-x="1292" 
d="M547 -40q-250 0 -386 108t-136 303q0 44 7 86h479q-3 -15 -3 -28q0 -39 25 -62.5t72 -23.5q54 0 90.5 29t36.5 81q0 21 -11 37.5t-27 28t-45.5 22.5t-53 17t-64.5 16q-46 11 -74 18.5t-72.5 23.5t-73 32.5t-61.5 43t-52 57.5t-32 74.5t-13 95.5q0 130 48 235t134.5 174.5
t205 107t259.5 37.5q233 0 361 -99t128 -277q0 -41 -6 -86h-463q3 12 3 23q0 32 -20.5 51t-58.5 19q-48 0 -78.5 -24t-30.5 -66q0 -18 11 -33.5t26 -26t45 -22t52.5 -18.5t64.5 -19q50 -14 78 -22.5t76 -27t76.5 -35t64.5 -45t55.5 -59.5t33.5 -74.5t14 -94.5
q0 -176 -90.5 -308.5t-245 -200.5t-349.5 -68z" />
    <glyph glyph-name="uni0406" unicode="&#x406;" horiz-adv-x="700" 
d="M6 0l287 1434h467l-287 -1434h-467z" />
    <glyph glyph-name="uni0407" unicode="&#x407;" horiz-adv-x="700" 
d="M91 1553l74 361h361l-73 -361h-362zM642 1553l74 361h361l-73 -361h-362zM6 0l287 1434h467l-287 -1434h-467z" />
    <glyph glyph-name="uni0408" unicode="&#x408;" horiz-adv-x="1296" 
d="M508 -40q-231 0 -372 121t-142 318q0 60 18 147h468q-8 -29 -8 -62q0 -48 24.5 -75t73.5 -27q52 0 93 36t53 95l184 921h466l-197 -982q-47 -234 -222.5 -363t-438.5 -129z" />
    <glyph glyph-name="uni0409" unicode="&#x409;" horiz-adv-x="2250" 
d="M1761 1021q206 0 333 -126t127 -318q0 -256 -175.5 -416.5t-446.5 -160.5h-659l214 1067h-234l-147 -476q-94 -305 -259 -450t-418 -145h-168l80 398h48q105 0 170 62t109 202l244 776h1074l-83 -413h191zM1567 346q85 0 143 56t58 140q0 62 -37.5 97.5t-105.5 35.5h-124
l-66 -329h132z" />
    <glyph glyph-name="uni040A" unicode="&#x40a;" horiz-adv-x="2154" 
d="M1668 1009q203 0 329.5 -124.5t126.5 -314.5q0 -168 -80 -298.5t-220 -201t-316 -70.5h-685l109 544h-354l-108 -544h-464l287 1434h463l-102 -514h353l103 514h457l-85 -425h186zM1473 345q85 0 141.5 54t56.5 136q0 60 -36.5 94.5t-105.5 34.5h-123l-64 -319h131z" />
    <glyph glyph-name="uni040B" unicode="&#x40b;" horiz-adv-x="1630" 
d="M1138 915q193 0 304 -112t111 -302q0 -17 -1 -33.5t-2 -31t-5.5 -39t-7.5 -44t-11.5 -61t-15 -73.5t-20 -98.5t-24.5 -120.5h-462q55 270 66 329.5t11 81.5q0 61 -30 95.5t-86 34.5q-50 0 -119 -23l-103 -518h-461l213 1070h-370l73 364h1218l-73 -364h-386l-39 -193
q119 38 220 38z" />
    <glyph glyph-name="uni040E" unicode="&#x40e;" horiz-adv-x="1429" 
d="M1303 1801l-56 -285h-693l56 285h693zM1085 1434h517l-575 -953q-91 -151 -171 -246.5t-167.5 -150t-176 -75t-209.5 -20.5h-223l81 408h114q134 0 206 62l-311 975h514l117 -552z" />
    <glyph glyph-name="uni040F" unicode="&#x40f;" horiz-adv-x="1488" 
d="M1549 1434l-287 -1434h-417l-53 -265h-418l53 265h-421l287 1434h463l-211 -1053h329l212 1053h463z" />
    <glyph glyph-name="uni0410" unicode="&#x410;" horiz-adv-x="1568" 
d="M993 0l-21 207h-471l-110 -207h-517l856 1434h457l289 -1434h-483zM879 938l-231 -423h291z" />
    <glyph glyph-name="uni0411" unicode="&#x411;" horiz-adv-x="1306" 
d="M854 907q179 0 287.5 -109t108.5 -279q0 -233 -148 -376t-389 -143h-707l287 1434h1015l-72 -359h-585l-33 -168h236zM623 321q78 0 124.5 46.5t46.5 119.5q0 48 -31 75t-91 27h-118l-54 -268h123z" />
    <glyph glyph-name="uni0412" unicode="&#x412;" horiz-adv-x="1349" 
d="M1111 734q77 -44 119 -118t42 -166q0 -137 -72.5 -240.5t-194.5 -156.5t-273 -53h-726l287 1434h662q182 0 294.5 -94t112.5 -235q0 -115 -69.5 -214t-181.5 -157zM776 871q62 0 103 41.5t41 105.5q0 45 -27 71.5t-74 26.5h-160l-49 -245h166zM681 332q64 0 109.5 44
t45.5 109q0 49 -29.5 77t-80.5 28h-173l-52 -258h180z" />
    <glyph glyph-name="uni0413" unicode="&#x413;" horiz-adv-x="1073" 
d="M1217 1434l-73 -369h-461l-213 -1065h-464l287 1434h924z" />
    <glyph glyph-name="uni0414" unicode="&#x414;" horiz-adv-x="1636" 
d="M1607 1434l-213 -1066h153l-127 -631h-415l53 263h-718l-53 -263h-415l126 631h133q17 18 32 40t31 56.5t29 67t31 89.5t32 106.5t37.5 135.5t42.5 157.5t51.5 192.5t59.5 221h1130zM827 1074q-124 -527 -236 -706h361l142 706h-267z" />
    <glyph glyph-name="uni0415" unicode="&#x415;" horiz-adv-x="1169" 
d="M1189 1084h-513l-40 -200h457l-64 -326h-459l-41 -203h527l-72 -355h-978l287 1434h966z" />
    <glyph glyph-name="uni0416" unicode="&#x416;" horiz-adv-x="2107" 
d="M2290 1434l-575 -719l298 -715h-475l-244 622l-124 -622h-442l124 621l-435 -621h-557l618 831l-268 603h483l218 -521l104 521h442l-104 -519l401 519h536z" />
    <glyph glyph-name="uni0417" unicode="&#x417;" horiz-adv-x="1271" 
d="M1024 721q169 -94 169 -279q0 -97 -35.5 -177.5t-97 -136t-146 -94t-181.5 -56.5t-204 -18q-233 0 -374 119t-142 314q0 41 5 74h462q-3 -17 -3 -30q0 -44 27.5 -71t73.5 -27q60 0 103.5 39.5t43.5 96.5q0 38 -29 62.5t-82 24.5h-113l70 348h103q69 0 110.5 36.5
t41.5 83.5q0 37 -24.5 60.5t-68.5 23.5q-51 0 -90 -32.5t-50 -84.5h-451q17 119 79 212.5t154.5 149.5t202.5 85t231 29q127 0 236 -45.5t176.5 -133t67.5 -198.5q0 -242 -265 -375z" />
    <glyph glyph-name="uni0418" unicode="&#x418;" horiz-adv-x="1562" 
d="M1245 1434h378l-287 -1434h-442l137 684l-643 -684h-382l287 1434h442l-140 -699z" />
    <glyph glyph-name="uni0419" unicode="&#x419;" horiz-adv-x="1562" 
d="M1401 1801l-56 -285h-693l56 285h693zM1245 1434h378l-287 -1434h-442l137 684l-643 -684h-382l287 1434h442l-140 -699z" />
    <glyph glyph-name="uni041A" unicode="&#x41a;" horiz-adv-x="1413" 
d="M1596 1434l-588 -713l333 -721h-515l-247 582l-116 -582h-457l287 1434h456l-106 -530l399 530h554z" />
    <glyph glyph-name="uni041B" unicode="&#x41b;" horiz-adv-x="1593" 
d="M579 1434h1074l-286 -1434h-457l215 1067h-205l-147 -476q-95 -308 -259 -451.5t-418 -143.5h-168l80 398h48q105 0 170 62t109 202z" />
    <glyph glyph-name="uni041C" unicode="&#x41c;" horiz-adv-x="2017" 
d="M1491 1434h454l-77 -1434h-440l57 732l-492 -733h-152l-198 731l-235 -730h-477l499 1434h450l160 -704z" />
    <glyph glyph-name="uni041D" unicode="&#x41d;" horiz-adv-x="1519" 
d="M1115 1434h463l-287 -1434h-463l108 542h-358l-108 -542h-464l287 1434h463l-102 -514h358z" />
    <glyph glyph-name="uni041E" unicode="&#x41e;" horiz-adv-x="1726" 
d="M767 -40q-209 0 -366.5 81.5t-241 224.5t-83.5 328q0 194 72.5 359t198.5 278.5t301.5 177.5t376.5 64q315 0 503 -176t188 -457q0 -194 -72.5 -359t-198.5 -279t-301.5 -178t-376.5 -64zM840 382q111 0 201.5 56.5t139 148.5t48.5 198q0 123 -74.5 195t-202.5 72
q-111 0 -201.5 -56.5t-139 -149t-48.5 -198.5q0 -122 74.5 -194t202.5 -72z" />
    <glyph glyph-name="uni041F" unicode="&#x41f;" horiz-adv-x="1505" 
d="M293 1434h1272l-287 -1434h-466l212 1060h-338l-213 -1060h-467z" />
    <glyph glyph-name="uni0420" unicode="&#x420;" horiz-adv-x="1361" 
d="M937 1434q209 0 340 -126t131 -320q0 -131 -50.5 -248t-136.5 -201t-206 -133.5t-254 -49.5h-225l-72 -356h-458l287 1434h644zM718 717q95 0 153.5 64.5t58.5 153.5q0 65 -37.5 102t-110.5 37h-103l-71 -357h110z" />
    <glyph glyph-name="uni0421" unicode="&#x421;" horiz-adv-x="1634" 
d="M736 -40q-195 0 -346.5 84t-233.5 229t-82 326q0 184 72 347t195.5 278t294 182t360.5 67q139 0 265 -52t214.5 -138t135.5 -204.5t34 -245.5h-471q-16 100 -82 160t-163 60q-102 0 -187.5 -57.5t-133 -152t-47.5 -202.5q0 -118 66 -188.5t181 -70.5q105 0 195.5 66.5
t133.5 174.5h470q-89 -312 -324.5 -487.5t-546.5 -175.5z" />
    <glyph glyph-name="uni0422" unicode="&#x422;" horiz-adv-x="1282" 
d="M1432 1434l-74 -364h-386l-214 -1070h-459l213 1070h-388l73 364h1235z" />
    <glyph glyph-name="uni0423" unicode="&#x423;" horiz-adv-x="1429" 
d="M1085 1434h517l-575 -953q-91 -151 -171 -246.5t-167.5 -150t-176 -75t-209.5 -20.5h-223l81 408h114q134 0 206 62l-311 975h514l117 -552z" />
    <glyph glyph-name="uni0424" unicode="&#x424;" horiz-adv-x="1945" 
d="M1939 828q0 -174 -66 -326.5t-180.5 -261.5t-271.5 -177t-337 -81l-40 -201h-451l40 202q-253 27 -407 200.5t-154 419.5q0 174 66 326.5t180 262.5t271.5 178.5t337.5 81.5l34 170h451l-33 -172q253 -27 406.5 -201t153.5 -421zM522 638q0 -104 58.5 -177t158.5 -89
l139 689q-149 -23 -252.5 -148t-103.5 -275zM1133 372q147 23 251 144.5t104 273.5q0 107 -58 181t-158 90z" />
    <glyph glyph-name="uni0425" unicode="&#x425;" horiz-adv-x="1409" 
d="M1592 1434l-564 -717l282 -717h-503l-124 362l-266 -362h-552l596 764l-270 670h488l119 -328l240 328h554z" />
    <glyph glyph-name="uni0426" unicode="&#x426;" horiz-adv-x="1560" 
d="M1531 1434l-211 -1057h152l-128 -640h-415l53 263h-976l287 1434h463l-212 -1057h312l212 1057h463z" />
    <glyph glyph-name="uni0427" unicode="&#x427;" horiz-adv-x="1398" 
d="M991 1432h466l-286 -1434h-467l80 401q-94 -19 -183 -19q-215 0 -342.5 113t-127.5 324q0 22 1 39.5t4.5 45t7.5 50t14 73.5t19 95.5t27.5 136t35.5 175.5h467q-15 -77 -30.5 -152t-24 -116.5t-16.5 -82t-12 -60.5t-7 -38.5t-4 -29t-1 -20.5q0 -65 37 -98.5t103 -33.5
q46 0 117 21z" />
    <glyph glyph-name="uni0428" unicode="&#x428;" horiz-adv-x="2054" 
d="M1656 1434h458l-287 -1434h-1821l287 1434h458l-212 -1057h241l212 1057h423l-212 -1057h241z" />
    <glyph glyph-name="uni0429" unicode="&#x429;" horiz-adv-x="2142" 
d="M2114 1434l-211 -1057h153l-128 -640h-415l53 263h-1560l287 1434h458l-212 -1057h241l212 1057h423l-212 -1057h241l212 1057h458z" />
    <glyph glyph-name="uni042A" unicode="&#x42a;" horiz-adv-x="1619" 
d="M1129 1021q206 0 333 -126t127 -318q0 -256 -175 -416.5t-446 -160.5h-677l208 1037h-380l80 397h823l-83 -413h190zM937 346q84 0 141.5 56t57.5 140q0 62 -36.5 97.5t-103.5 35.5h-127l-66 -329h134z" />
    <glyph glyph-name="uni042B" unicode="&#x42b;" horiz-adv-x="2019" 
d="M845 1021q206 0 333 -126t127 -318q0 -256 -175.5 -416.5t-446.5 -160.5h-677l287 1434h444l-83 -413h191zM1611 1434h467l-287 -1434h-467zM651 346q85 0 142.5 56t57.5 140q0 62 -37 97.5t-105 35.5h-124l-66 -329h132z" />
    <glyph glyph-name="uni042C" unicode="&#x42c;" horiz-adv-x="1335" 
d="M845 1021q206 0 333 -126t127 -318q0 -256 -175.5 -416.5t-446.5 -160.5h-677l287 1434h444l-83 -413h191zM651 346q85 0 142.5 56t57.5 140q0 62 -37 97.5t-105 35.5h-124l-66 -329h132z" />
    <glyph glyph-name="uni042D" unicode="&#x42d;" horiz-adv-x="1636" 
d="M973 1472q144 0 267 -49t208 -134.5t132.5 -203t47.5 -251.5q0 -182 -72 -344t-194.5 -278t-292 -183.5t-357.5 -67.5q-203 0 -354.5 83t-230 232t-74.5 343h461q4 -112 75.5 -178.5t185.5 -66.5q106 0 191.5 52.5t138.5 141.5h-410l59 294h412q-15 93 -81.5 145
t-173.5 52q-106 0 -199 -60.5t-143 -160.5h-470q53 187 183.5 331.5t310.5 223.5t380 79z" />
    <glyph glyph-name="uni042E" unicode="&#x42e;" horiz-adv-x="2295" 
d="M1591 1473q200 0 356 -74t247 -219t91 -340q0 -156 -47.5 -294.5t-133.5 -245t-203 -183.5t-260 -117.5t-300 -40.5q-266 0 -444.5 145.5t-207.5 398.5h-124l-101 -503h-458l287 1434h458l-106 -531h88q90 262 320 416t538 154zM1409 382q111 0 201.5 56.5t139 148.5
t48.5 198q0 123 -74.5 195t-202.5 72q-167 0 -278 -120t-111 -284q0 -122 74.5 -194t202.5 -72z" />
    <glyph glyph-name="uni042F" unicode="&#x42f;" horiz-adv-x="1402" 
d="M758 1434h704l-287 -1434h-445l82 409h-81l-289 -409h-518l369 504q-78 58 -120 144.5t-42 190.5q0 172 80.5 308t223.5 211.5t323 75.5zM748 736h129l66 331h-136q-87 0 -143 -58.5t-56 -137.5q0 -63 37 -99t103 -36z" />
    <glyph glyph-name="uni0430" unicode="&#x430;" horiz-adv-x="1421" 
d="M1102 1106h331l-221 -1106h-310l-26 81q-172 -121 -372 -121q-96 0 -180 31t-149 90.5t-102.5 153.5t-37.5 211q0 128 38.5 241t104 195.5t151 143t181.5 90.5t193 30q203 0 331 -131zM481 513q0 -79 48.5 -129t128.5 -50q103 0 178.5 79t75.5 184q0 78 -49 127.5
t-130 49.5q-104 0 -178 -76.5t-74 -184.5z" />
    <glyph glyph-name="uni0431" unicode="&#x431;" horiz-adv-x="1359" 
d="M850 1056q203 0 334 -132t131 -334q0 -137 -56 -256t-149 -200t-216 -127.5t-256 -46.5q-262 0 -415.5 154.5t-153.5 419.5q0 184 50 342t148.5 286.5t254 220t358.5 135.5l462 100l-78 -393l-459 -104q-226 -52 -305 -180q169 115 350 115zM663 324q96 0 168 72t72 172
q0 75 -46 121.5t-124 46.5q-99 0 -170 -71.5t-71 -172.5q0 -74 47 -121t124 -47z" />
    <glyph glyph-name="uni0432" unicode="&#x432;" horiz-adv-x="1189" 
d="M957 560q69 -34 106 -94t37 -132q0 -63 -27.5 -122t-79 -107t-134.5 -76.5t-185 -28.5h-683l221 1106h650q146 0 227 -73.5t81 -179.5q0 -90 -56 -171t-157 -122zM665 674q50 0 82 32t32 85q0 35 -21 54.5t-60 19.5h-140l-39 -191h146zM589 255q53 0 86 33.5t33 86.5
q0 37 -22 57.5t-62 20.5h-149l-40 -199z" />
    <glyph glyph-name="uni0433" unicode="&#x433;" horiz-adv-x="937" 
d="M1026 1106l-70 -344h-380l-152 -762h-433l221 1106h814z" />
    <glyph glyph-name="uni0434" unicode="&#x434;" horiz-adv-x="1417" 
d="M1328 1106l-147 -756h144l-126 -613h-361l52 263h-614l-53 -263h-362l126 613h129q58 64 114.5 219.5t163.5 536.5h934zM692 770q-79 -298 -151 -420h248l81 420h-178z" />
    <glyph glyph-name="uni0435" unicode="&#x435;" horiz-adv-x="1333" 
d="M1304 667q0 -99 -30 -209h-827q4 -83 50 -126t128 -43q64 0 117 25t85 72h416q-70 -197 -256.5 -311.5t-415.5 -114.5q-235 0 -384 146t-149 364q0 146 56 272.5t153 215.5t231.5 139.5t287.5 50.5q252 0 395 -130.5t143 -350.5zM714 820q-151 0 -225 -151h407
q-7 72 -54.5 111.5t-127.5 39.5z" />
    <glyph glyph-name="uni0436" unicode="&#x436;" horiz-adv-x="1818" 
d="M1929 1106l-419 -548l205 -558h-448l-161 493l-99 -493h-419l94 469l-320 -469h-494l453 627l-185 479h426l160 -438l87 438h420l-84 -416l293 416h491z" />
    <glyph glyph-name="uni0437" unicode="&#x437;" horiz-adv-x="1095" 
d="M882 556q62 -33 94 -92t32 -130q0 -119 -76 -205.5t-193.5 -127.5t-258.5 -41q-222 0 -362.5 107.5t-138.5 293.5h410q-8 -41 16.5 -69.5t71.5 -28.5q52 0 83 31t31 71q0 33 -21.5 54.5t-63.5 21.5h-132l54 263h140q48 0 75.5 27t27.5 63q0 31 -21 51.5t-60 20.5
q-38 0 -71 -22.5t-42 -61.5h-402q32 173 180.5 269.5t381.5 96.5q120 0 219 -38t159 -112t60 -171q0 -83 -51.5 -154t-141.5 -117z" />
    <glyph glyph-name="uni0438" unicode="&#x438;" horiz-adv-x="1288" 
d="M1041 1106h259l-222 -1106h-422l88 444l-488 -444h-265l221 1106h423l-88 -439z" />
    <glyph glyph-name="uni0439" unicode="&#x439;" horiz-adv-x="1288" 
d="M1165 1461l-50 -255h-605l51 255h604zM1041 1106h259l-222 -1106h-422l88 444l-488 -444h-265l221 1106h423l-88 -439z" />
    <glyph glyph-name="uni043A" unicode="&#x43a;" horiz-adv-x="1249" 
d="M1362 1106l-436 -541l243 -565h-466l-180 457l-91 -457h-441l221 1106h441l-73 -364l270 364h512z" />
    <glyph glyph-name="uni043B" unicode="&#x43b;" horiz-adv-x="1335" 
d="M421 1106h925l-222 -1106h-436l153 765h-115l-94 -305q-75 -243 -205.5 -353t-337.5 -110h-167l66 337h16q99 0 149 42t85 154z" />
    <glyph glyph-name="uni043C" unicode="&#x43c;" horiz-adv-x="1662" 
d="M1180 1106h387l-45 -1106h-398l29 484l-348 -485h-132l-157 493l-167 -492h-419l382 1106h384l139 -514z" />
    <glyph glyph-name="uni043D" unicode="&#x43d;" horiz-adv-x="1314" 
d="M890 1106h436l-221 -1106h-436l75 376h-242l-75 -376h-436l221 1106h436l-73 -368h242z" />
    <glyph glyph-name="uni043E" unicode="&#x43e;" horiz-adv-x="1363" 
d="M601 -40q-156 0 -282.5 58.5t-203.5 175.5t-77 275q0 197 98.5 353.5t264 241t364.5 84.5q155 0 281 -59t203.5 -177t77.5 -275q0 -150 -57 -277.5t-155 -214.5t-231 -136t-283 -49zM642 345q102 0 175 74t73 182q0 73 -45 118.5t-121 45.5q-102 0 -175 -74.5t-73 -183.5
q0 -73 45 -117.5t121 -44.5z" />
    <glyph glyph-name="uni043F" unicode="&#x43f;" horiz-adv-x="1316" 
d="M212 1106h1115l-221 -1106h-441l152 762h-234l-152 -762h-440z" />
    <glyph glyph-name="uni0440" unicode="&#x440;" horiz-adv-x="1409" 
d="M906 1149q202 0 335.5 -135t133.5 -354q0 -145 -52 -274.5t-141 -223t-213 -148t-263 -54.5q-158 0 -274 84l-89 -443h-432l301 1505h307l24 -80q168 123 363 123zM676 334q102 0 177.5 78t75.5 189q0 79 -48.5 128.5t-128.5 49.5q-103 0 -178 -78t-75 -189
q0 -79 48.5 -128.5t128.5 -49.5z" />
    <glyph glyph-name="uni0441" unicode="&#x441;" horiz-adv-x="1316" 
d="M578 -40q-243 0 -391.5 141t-148.5 361q0 201 95.5 358t262.5 242.5t377 85.5q162 0 283.5 -68.5t182 -186t54.5 -263.5h-425q-3 63 -48.5 99t-112.5 36q-105 0 -169 -79.5t-60 -187.5q1 -74 45.5 -113.5t111.5 -39.5q69 0 128 38.5t84 107.5h423q-60 -249 -250 -390
t-442 -141z" />
    <glyph glyph-name="uni0442" unicode="&#x442;" horiz-adv-x="1165" 
d="M1253 1106l-70 -349h-342l-151 -757h-432l151 757h-350l70 349h1124z" />
    <glyph glyph-name="uni0443" unicode="&#x443;" horiz-adv-x="1300" 
d="M931 1106h492l-685 -1107q-80 -129 -150 -209.5t-150 -129t-166.5 -66.5t-206.5 -18h-171l73 365h101q109 0 166.5 33t110.5 123l-248 1009h461l88 -549z" />
    <glyph glyph-name="uni0444" unicode="&#x444;" horiz-adv-x="1681" 
d="M1646 638q0 -196 -93 -346.5t-255 -233t-371 -92.5l-63 -314h-404l63 314q-218 16 -351.5 155t-133.5 345q0 197 93 348t255 233.5t371 92.5l61 304h404l-60 -304q218 -15 351 -154.5t133 -347.5zM967 330q115 7 187 86t72 191q0 74 -45.5 118.5t-126.5 49.5zM457 500
q0 -73 45.5 -117.5t126.5 -51.5l87 444q-116 -9 -187.5 -87.5t-71.5 -187.5z" />
    <glyph glyph-name="uni0445" unicode="&#x445;" horiz-adv-x="1241" 
d="M1355 1106l-447 -536l255 -570h-457l-111 293l-215 -293h-519l489 595l-236 511h451l101 -245l189 245h500z" />
    <glyph glyph-name="uni0446" unicode="&#x446;" horiz-adv-x="1384" 
d="M1297 1106l-152 -763h146l-121 -606h-363l53 263h-869l221 1106h440l-153 -763h206l153 763h439z" />
    <glyph glyph-name="uni0447" unicode="&#x447;" horiz-adv-x="1228" 
d="M800 1106h439l-221 -1106h-439l62 314q-93 -21 -175 -21q-180 0 -283.5 100t-103.5 275q0 53 11.5 119t62.5 319h441q-70 -348 -70 -369q0 -90 96 -90q41 0 91 16z" />
    <glyph glyph-name="uni0448" unicode="&#x448;" horiz-adv-x="1794" 
d="M1380 1106h424l-221 -1106h-1592l221 1106h424l-153 -763h179l152 763h388l-152 -763h178z" />
    <glyph glyph-name="uni0449" unicode="&#x449;" horiz-adv-x="1892" 
d="M1804 1106l-153 -763h148l-122 -606h-364l53 263h-1375l221 1106h424l-153 -763h179l152 763h388l-152 -763h178l152 763h424z" />
    <glyph glyph-name="uni044A" unicode="&#x44a;" horiz-adv-x="1372" 
d="M938 836q179 0 283.5 -103t104.5 -262q0 -217 -140 -344t-373 -127h-591l156 777h-319l66 329h708l-54 -270h159zM789 304q67 0 106 37t39 104q0 41 -26.5 64t-78.5 23h-111l-46 -228h117z" />
    <glyph glyph-name="uni044B" unicode="&#x44b;" horiz-adv-x="1779" 
d="M708 836q179 0 283 -103t104 -262q0 -218 -140.5 -344.5t-373.5 -126.5h-590l221 1106h390l-54 -270h160zM1354 1106h437l-221 -1106h-437zM558 304q67 0 106 37t39 104q0 41 -26.5 64t-78.5 23h-111l-46 -228h117z" />
    <glyph glyph-name="uni044C" unicode="&#x44c;" horiz-adv-x="1140" 
d="M708 836q179 0 283 -103t104 -262q0 -218 -140.5 -344.5t-373.5 -126.5h-590l221 1106h390l-54 -270h160zM558 304q67 0 106 37t39 104q0 41 -26.5 64t-78.5 23h-111l-46 -228h117z" />
    <glyph glyph-name="uni044D" unicode="&#x44d;" horiz-adv-x="1296" 
d="M739 1142q236 0 379 -140t143 -359q0 -199 -91.5 -355t-254.5 -242t-368 -86q-238 0 -384 140.5t-150 354.5h419q3 -75 44.5 -114t119.5 -39q143 0 217 133h-278l47 235h277q-18 130 -166 130q-75 0 -133 -37.5t-92 -107.5h-414q64 229 251.5 358t433.5 129z" />
    <glyph glyph-name="uni044E" unicode="&#x44e;" horiz-adv-x="1890" 
d="M1303 1146q151 0 275.5 -59.5t200.5 -176.5t76 -270q0 -150 -57 -278t-154.5 -215.5t-230.5 -137t-283 -49.5q-208 0 -348.5 109.5t-167.5 303.5h-109l-74 -373h-440l221 1106h440l-76 -381h81q76 193 250 307t396 114zM1171 343q100 0 171.5 73.5t71.5 177.5
q0 75 -46 122t-124 47q-101 0 -171 -73t-70 -178q0 -76 45.5 -122.5t122.5 -46.5z" />
    <glyph glyph-name="uni044F" unicode="&#x44f;" horiz-adv-x="1220" 
d="M547 1106h685l-221 -1106h-396l67 336h-68l-239 -336h-466l328 421q-65 42 -101.5 111.5t-36.5 151.5q0 186 126 304t322 118zM632 601h104l46 229h-113q-68 0 -107.5 -37t-39.5 -102q0 -42 28 -66t82 -24z" />
    <glyph glyph-name="uni0451" unicode="&#x451;" horiz-adv-x="1333" 
d="M775 1589l-70 -349h-353l70 349h353zM1329 1589l-70 -349h-352l70 349h352zM766 1148q252 0 395 -130.5t143 -350.5q0 -99 -30 -209h-827q4 -83 50 -126t128 -43q64 0 117 25t85 72h416q-70 -197 -256.5 -311.5t-415.5 -114.5q-235 0 -384 146t-149 364q0 146 56 272.5
t153 215.5t231.5 139.5t287.5 50.5zM714 820q-151 0 -225 -151h407q-7 72 -54.5 111.5t-127.5 39.5z" />
    <glyph glyph-name="uni0452" unicode="&#x452;" horiz-adv-x="1327" 
d="M926 1142q155 0 251.5 -102.5t96.5 -268.5q0 -62 -92 -511q-9 -47 -14.5 -74t-15 -74t-18.5 -89q-42 -208 -187 -328t-355 -120h-133l68 339h38q50 0 83.5 28.5t44.5 81.5q94 459 110.5 543.5t16.5 107.5q0 49 -24 74.5t-68 25.5q-67 0 -114 -46.5t-63 -130.5l-119 -598
h-441l240 1199h-167l42 214h168l18 92h441l-19 -92h256l-43 -214h-256l-29 -147q143 90 284 90z" />
    <glyph glyph-name="uni0453" unicode="&#x453;" horiz-adv-x="937" 
d="M1088 1602l-316 -368h-314l198 368h432zM-9 0l221 1106h814l-70 -344h-380l-152 -762h-433z" />
    <glyph glyph-name="uni0454" unicode="&#x454;" horiz-adv-x="1300" 
d="M607 302q153 0 225 147h415q-64 -230 -252 -359.5t-434 -129.5q-235 0 -378.5 140.5t-143.5 359.5q0 199 91.5 355t254 241.5t368.5 85.5q238 0 383.5 -139t150.5 -353h-418q-3 74 -45 112t-120 38q-145 0 -217 -131h278l-47 -235h-277q18 -132 166 -132z" />
    <glyph glyph-name="uni0455" unicode="&#x455;" horiz-adv-x="1105" 
d="M453 -40q-214 0 -333.5 88t-119.5 239q0 33 6 69h419q-4 -13 -4 -28q0 -34 22 -52t56 -18q36 0 63.5 22t27.5 61q0 33 -39 50.5t-124 35.5q-33 7 -49.5 11t-49 13.5t-51 17t-46.5 21t-44.5 27t-36.5 34t-30 43t-17.5 52t-7.5 63.5q0 210 154 323.5t401 113.5
q201 0 320 -87t119 -232q0 -16 -4 -54h-408q2 12 2 19q0 29 -18 47.5t-54 18.5q-33 0 -60 -20.5t-27 -56.5q0 -18 12 -31t31.5 -21t48.5 -15.5t59 -13.5q11 -2 17 -3q43 -9 65.5 -14t64.5 -17t66 -24.5t55 -34.5t47.5 -47.5t28.5 -62.5t12 -82q0 -143 -77 -247.5
t-205.5 -156t-291.5 -51.5z" />
    <glyph glyph-name="uni0456" unicode="&#x456;" horiz-adv-x="641" 
d="M248 1237l72 361h418l-72 -361h-418zM-9 0l221 1106h441l-221 -1106h-441z" />
    <glyph glyph-name="uni0457" unicode="&#x457;" horiz-adv-x="641" 
d="M20 1237l71 361h361l-71 -361h-361zM547 1237l72 361h361l-72 -361h-361zM-9 0l221 1106h441l-221 -1106h-441z" />
    <glyph glyph-name="uni0458" unicode="&#x458;" horiz-adv-x="665" 
d="M265 1237l72 361h418l-72 -361h-418zM-281 -444l75 377h85q59 0 98.5 36.5t53.5 104.5l206 1032h440l-221 -1110q-47 -236 -188 -338t-404 -102h-145z" />
    <glyph glyph-name="uni0459" unicode="&#x459;" horiz-adv-x="1884" 
d="M1451 836q179 0 283 -103t104 -262q0 -218 -139.5 -344.5t-372.5 -126.5h-591l154 772h-161l-91 -294q-149 -481 -566 -481h-149l66 337h16q99 0 149 42t85 154l183 576h924l-54 -270h160zM1311 304q61 0 98.5 36.5t37.5 104.5q0 43 -25 65.5t-72 22.5h-120l-46 -229h127
z" />
    <glyph glyph-name="uni045A" unicode="&#x45a;" horiz-adv-x="1865" 
d="M1447 834q178 0 277.5 -88.5t99.5 -238.5q0 -145 -70 -261t-193 -181t-274 -65h-608l74 370h-252l-74 -370h-436l221 1106h436l-71 -357h251l72 357h430l-54 -272h171zM1288 314q62 0 100 34t38 96q0 76 -95 76h-123l-42 -206h122z" />
    <glyph glyph-name="uni045B" unicode="&#x45b;" horiz-adv-x="1325" 
d="M901 1146q169 0 269.5 -103.5t100.5 -270.5q0 -18 -1 -34t-3 -34t-8 -50t-11.5 -63.5t-18 -93.5t-24.5 -121.5t-33.5 -166t-42.5 -209.5h-441q40 199 87 433q45 220 45 242q0 49 -24 75t-68 26q-63 0 -107.5 -40.5t-64.5 -114.5l-124 -621h-441l242 1210h-154l42 212h155
l16 83h441l-17 -83h269l-43 -212h-268l-26 -127q114 63 253 63z" />
    <glyph glyph-name="uni045C" unicode="&#x45c;" horiz-adv-x="1249" 
d="M1207 1602l-316 -368h-314l198 368h432zM1362 1106l-436 -541l243 -565h-466l-180 457l-91 -457h-441l221 1106h441l-73 -364l270 364h512z" />
    <glyph glyph-name="uni045D" unicode="&#x45d;" horiz-adv-x="1288" 
d="M965 1234h-314l-172 368h434zM1041 1106h259l-222 -1106h-422l88 444l-488 -444h-265l221 1106h423l-88 -439z" />
    <glyph glyph-name="uni045E" unicode="&#x45e;" horiz-adv-x="1300" 
d="M1135 1461l-51 -255h-604l50 255h605zM931 1106h492l-685 -1107q-80 -129 -150 -209.5t-150 -129t-166.5 -66.5t-206.5 -18h-171l73 365h101q109 0 166.5 33t110.5 123l-248 1009h461l88 -549z" />
    <glyph glyph-name="uni045F" unicode="&#x45f;" horiz-adv-x="1286" 
d="M1298 1106l-221 -1106h-333l-53 -265h-420l53 265h-333l221 1106h440l-145 -724h206l145 724h440z" />
    <glyph glyph-name="uni0490" unicode="&#x490;" horiz-adv-x="1071" 
d="M1257 1649l-120 -601h-457l-210 -1048h-464l287 1434h512l44 215h408z" />
    <glyph glyph-name="uni0491" unicode="&#x491;" horiz-adv-x="937" 
d="M1066 1309l-110 -547h-380l-152 -762h-433l221 1106h453l39 203h362z" />
    <glyph glyph-name="Wgrave" unicode="&#x1e80;" horiz-adv-x="2156" 
d="M1406 1553h-315l-254 345h454zM1830 1434h510l-730 -1434h-390l-120 619l-365 -619h-407l-160 1434h476l51 -730l453 729h178l162 -735z" />
    <glyph glyph-name="wgrave" unicode="&#x1e81;" horiz-adv-x="1798" 
d="M1176 1234h-314l-172 368h434zM1441 1106h471l-568 -1106h-339l-106 451l-287 -451h-372l-136 1106h463l22 -525l348 524h121l149 -537z" />
    <glyph glyph-name="Wacute" unicode="&#x1e82;" horiz-adv-x="2156" 
d="M1774 1898l-389 -345h-315l251 345h453zM1830 1434h510l-730 -1434h-390l-120 619l-365 -619h-407l-160 1434h476l51 -730l453 729h178l162 -735z" />
    <glyph glyph-name="wacute" unicode="&#x1e83;" horiz-adv-x="1798" 
d="M1455 1602l-316 -368h-315l198 368h433zM1441 1106h471l-568 -1106h-339l-106 451l-287 -451h-372l-136 1106h463l22 -525l348 524h121l149 -537z" />
    <glyph glyph-name="Wdieresis" unicode="&#x1e84;" horiz-adv-x="2156" 
d="M1233 1914l-74 -361h-371l73 361h372zM1803 1914l-73 -361h-372l73 361h372zM1830 1434h510l-730 -1434h-390l-120 619l-365 -619h-407l-160 1434h476l51 -730l453 729h178l162 -735z" />
    <glyph glyph-name="wdieresis" unicode="&#x1e85;" horiz-adv-x="1798" 
d="M997 1589l-70 -349h-352l70 349h352zM1551 1589l-69 -349h-353l70 349h352zM1441 1106h471l-568 -1106h-339l-106 451l-287 -451h-372l-136 1106h463l22 -525l348 524h121l149 -537z" />
    <glyph glyph-name="uni1E9E" unicode="&#x1e9e;" horiz-adv-x="1544" 
d="M1586 1434l-11 -52l-312 -460q106 -48 166 -144.5t60 -218.5q0 -166 -83 -294t-226.5 -196.5t-322.5 -68.5h-274l74 368h195q83 0 129.5 46.5t46.5 119.5q0 47 -33.5 75t-90.5 28h-183l18 83l230 340h-138q-86 0 -128 -34.5t-59 -120.5l-182 -905h-464l191 957
q49 243 196 360t396 117h805z" />
    <glyph glyph-name="Ygrave" unicode="&#x1ef2;" horiz-adv-x="1462" 
d="M1062 1553h-315l-254 345h454zM1640 1434l-679 -892l-110 -542h-462l108 540l-321 894h494l116 -465l302 465h552z" />
    <glyph glyph-name="ygrave" unicode="&#x1ef3;" horiz-adv-x="1300" 
d="M935 1234h-314l-172 368h434zM931 1106h492l-685 -1107q-80 -129 -150 -209.5t-150 -129t-166.5 -66.5t-206.5 -18h-171l73 365h101q109 0 166.5 33t110.5 123l-248 1009h461l88 -549z" />
    <glyph glyph-name="endash" unicode="&#x2013;" horiz-adv-x="1230" 
d="M66 384l73 365h1033l-72 -365h-1034z" />
    <glyph glyph-name="emdash" unicode="&#x2014;" horiz-adv-x="1525" 
d="M66 384l72 365h1329l-73 -365h-1328z" />
    <glyph glyph-name="quoteleft" unicode="&#x2018;" horiz-adv-x="571" 
d="M129 807l71 353q35 171 160.5 276.5t304.5 122.5l-45 -223q-75 -5 -126 -48t-65 -112h174l-73 -369h-401z" />
    <glyph glyph-name="quoteright" unicode="&#x2019;" horiz-adv-x="563" 
d="M132 695l45 223q75 5 125.5 48t64.5 112h-174l75 368h401l-71 -352q-35 -171 -161 -276.5t-305 -122.5z" />
    <glyph glyph-name="quotesinglbase" unicode="&#x201a;" horiz-adv-x="581" 
d="M-68 -383l45 222q75 5 125.5 48.5t64.5 112.5h-173l73 368h400l-70 -352q-35 -171 -160.5 -276.5t-304.5 -122.5z" />
    <glyph glyph-name="quotedblleft" unicode="&#x201c;" horiz-adv-x="1077" 
d="M129 807l71 353q35 171 160.5 276.5t304.5 122.5l-45 -223q-75 -5 -126 -48t-65 -112h174l-73 -369h-401zM636 807l70 353q35 171 160.5 276.5t304.5 122.5l-45 -223q-75 -5 -125.5 -48t-64.5 -112h173l-73 -369h-400z" />
    <glyph glyph-name="quotedblright" unicode="&#x201d;" horiz-adv-x="1069" 
d="M132 695l45 223q75 5 125.5 48t64.5 112h-174l75 368h401l-71 -352q-35 -171 -161 -276.5t-305 -122.5zM638 695l45 223q75 5 125.5 48t64.5 112h-173l74 368h401l-70 -352q-35 -171 -161.5 -276.5t-305.5 -122.5z" />
    <glyph glyph-name="quotedblbase" unicode="&#x201e;" horiz-adv-x="1089" 
d="M-68 -383l45 222q75 5 125.5 48.5t64.5 112.5h-173l73 368h400l-70 -352q-35 -171 -160.5 -276.5t-304.5 -122.5zM438 -383l45 222q75 5 125.5 48.5t64.5 112.5h-173l73 368h400l-70 -352q-35 -171 -160.5 -276.5t-304.5 -122.5z" />
    <glyph glyph-name="dagger" unicode="&#x2020;" horiz-adv-x="1054" 
d="M1118 1123l-68 -344h-286l-179 -896h-388l179 896h-283l68 344h284l62 311h388l-62 -311h285z" />
    <glyph glyph-name="daggerdbl" unicode="&#x2021;" horiz-adv-x="1103" 
d="M1076 779h-285l-48 -236h286l-70 -350h-286l-62 -310h-388l62 310h-283l70 350h283l47 236h-283l69 344h283l62 311h388l-62 -311h286z" />
    <glyph glyph-name="bullet" unicode="&#x2022;" horiz-adv-x="831" 
d="M368 319q-116 0 -187.5 69.5t-71.5 178.5q0 104 54.5 193.5t143.5 140.5t188 51q118 0 189.5 -69t71.5 -180q0 -156 -116 -270t-272 -114z" />
    <glyph glyph-name="ellipsis" unicode="&#x2026;" horiz-adv-x="1624" 
d="M-6 0l73 368h400l-73 -368h-400zM515 0l73 368h400l-73 -368h-400zM1036 0l73 368h400l-73 -368h-400z" />
    <glyph glyph-name="perthousand" unicode="&#x2030;" horiz-adv-x="2785" 
d="M454 683q-143 0 -232 79t-89 202q0 171 131.5 297.5t310.5 126.5q143 0 234 -80.5t91 -202.5q0 -111 -61 -208.5t-164.5 -155.5t-220.5 -58zM272 0l1094 1362h297l-1093 -1362h-298zM495 932q51 0 89 36.5t38 89.5q0 37 -22.5 59t-62.5 22q-53 0 -90.5 -36.5t-37.5 -91.5
q0 -36 23.5 -57.5t62.5 -21.5zM1372 -28q-143 0 -232 79t-89 202q0 174 130.5 298.5t313.5 124.5q143 0 233 -80t90 -201q0 -115 -60 -212.5t-162.5 -154t-223.5 -56.5zM2257 -28q-143 0 -232 79t-89 202q0 174 130.5 298.5t313.5 124.5q143 0 233 -80t90 -201
q0 -115 -60 -212.5t-162.5 -154t-223.5 -56.5zM1413 221q53 0 90 36.5t37 91.5q0 37 -22 58t-62 21q-53 0 -91 -36.5t-38 -91.5q0 -36 23.5 -57.5t62.5 -21.5zM2298 221q53 0 90 36.5t37 91.5q0 36 -22.5 57.5t-62.5 21.5q-53 0 -90.5 -36.5t-37.5 -91.5q0 -36 23.5 -57.5
t62.5 -21.5z" />
    <glyph glyph-name="guilsinglleft" unicode="&#x2039;" horiz-adv-x="890" 
d="M935 1020l-423 -474l234 -473h-467l-231 455l6 37l413 455h468z" />
    <glyph glyph-name="guilsinglright" unicode="&#x203a;" horiz-adv-x="888" 
d="M611 1020l230 -455l-6 -37l-413 -455h-467l420 473l-232 474h468z" />
    <glyph glyph-name="fraction" unicode="&#x2044;" horiz-adv-x="403" 
d="M-470 -61l1139 1556h273l-1138 -1556h-274z" />
    <glyph glyph-name="Euro" unicode="&#x20ac;" horiz-adv-x="1380" 
d="M1337 1028q-82 32 -176 32q-180 0 -311 -118h447l-102 -209h-479q-16 -54 -21 -113h458l-103 -209l-302 1q84 -107 266 -107q84 0 170 23l-68 -343q-105 -24 -200 -24q-229 0 -385.5 120.5t-202.5 322.5h-304l105 216h185q5 67 14 113h-239l106 217h205
q104 212 306.5 337.5t457.5 125.5q176 0 324 -59z" />
    <glyph glyph-name="uni20BD" unicode="&#x20bd;" horiz-adv-x="1361" 
d="M819 501h-181l-19 -99h316l-46 -234h-317l-34 -168h-384l33 168h-176l46 234h177l25 122h-176l52 252h174l119 593h563q190 0 294.5 -98t104.5 -262q0 -242 -154 -375t-417 -133zM1005 961q0 52 -32 82t-91 30h-130l-55 -276h135q76 0 124.5 48t48.5 116z" />
    <glyph glyph-name="uni2113" unicode="&#x2113;" horiz-adv-x="1054" 
d="M544 259q36 0 61 24.5t32 64.5h312q-23 -179 -144 -281t-301 -102q-154 0 -248.5 92.5t-94.5 233.5q0 27 5 59q-63 -19 -164 -43l62 314q78 20 163 47q9 47 38 189.5t49 242.5q34 169 152 262t298 93q156 0 252 -88t96 -227q0 -106 -45.5 -204t-129 -180.5t-189.5 -151.5
t-237 -128q-29 -146 -29 -158q0 -26 16 -42.5t46 -16.5zM633 1080q-9 -45 -26.5 -132t-25.5 -126q205 128 205 282q0 29 -16.5 46.5t-45.5 17.5q-34 0 -58.5 -24t-32.5 -64z" />
    <glyph glyph-name="uni2116" unicode="&#x2116;" horiz-adv-x="2336" 
d="M1137 1362h417l-273 -1362h-354l-363 668l-133 -668h-416l272 1362h369l353 -637zM2013 1300q155 0 247 -86.5t92 -224.5q0 -192 -134.5 -311t-341.5 -119q-155 0 -246 85t-91 222q0 193 133.5 313.5t340.5 120.5zM1923 805q59 0 102 43.5t43 105.5q0 45 -27 72t-74 27
q-59 0 -102 -43.5t-43 -105.5q0 -45 27 -72t74 -27zM1437 143l57 289h702l-57 -289h-702z" />
    <glyph glyph-name="uni2117" unicode="&#x2117;" horiz-adv-x="1720" 
d="M1021 1471q194 0 348.5 -83.5t240.5 -230t86 -328.5q0 -189 -69.5 -350.5t-192.5 -275t-297 -177.5t-377 -64q-194 0 -348 82t-239.5 228.5t-85.5 329.5q0 190 69.5 352t192 275.5t296 177.5t376.5 64zM801 180q137 0 259.5 49t209.5 132.5t138 200t51 246.5
q0 195 -133 321t-346 126q-136 0 -258.5 -50.5t-210.5 -135.5t-139.5 -202t-51.5 -245q0 -195 133 -318.5t348 -123.5zM1047 1090q115 0 187 -68.5t72 -175.5q0 -144 -104 -244.5t-254 -100.5h-128l-40 -192h-262l157 781h372zM927 711q44 0 75.5 29.5t31.5 73.5
q0 31 -19 49t-52 18h-75l-34 -170h73z" />
    <glyph glyph-name="trademark" unicode="&#x2122;" horiz-adv-x="1773" 
d="M875 1292h-128l-73 -370h-169l74 370h-141l29 142h437zM1399 1434h165l-28 -512h-156l19 257l-175 -257h-54l-72 254l-82 -254h-170l178 512h155l60 -245z" />
    <glyph glyph-name="estimated" unicode="&#x212e;" horiz-adv-x="1511" 
d="M1474 616h-1067v-374q161 -148 383 -148q125 0 242.5 47.5t197.5 129.5l147 -3q-94 -136 -255 -212t-332 -76q-140 0 -267 53.5t-218.5 145t-145.5 218.5t-54 267q0 184 93 342t251 250t341 92q135 0 262 -54.5t220 -145t149.5 -213t56.5 -251.5q0 -29 -4 -68zM790 1233
q-107 0 -206 -40t-177 -112v-352h768v352q-79 71 -179 111.5t-206 40.5z" />
    <glyph glyph-name="uni2150" unicode="&#x2150;" horiz-adv-x="2002" 
d="M1385 1495h274l-1139 -1556h-274zM467 602h-273l126 633h-139l38 199h413zM1338 830h676l-11 -59l-471 -773h-269l385 630h-350z" />
    <glyph glyph-name="uni2151" unicode="&#x2151;" horiz-adv-x="2021" 
d="M1383 1495h274l-1139 -1556h-274zM465 602h-273l126 633h-139l38 199h413zM1687 856q133 0 212 -68t79 -181q0 -95 -44.5 -182t-131.5 -196l-186 -230h-280l183 222q11 13 33 41q-10 -1 -32 -1q-112 0 -179.5 61t-67.5 160q0 159 120.5 266.5t293.5 107.5zM1607 437
q52 0 87.5 37t35.5 91q-2 36 -24.5 57t-62.5 21q-54 0 -88.5 -37.5t-34.5 -86.5q2 -38 25 -60t62 -22z" />
    <glyph glyph-name="uni2152" unicode="&#x2152;" horiz-adv-x="2652" 
d="M1383 1495h274l-1139 -1556h-274zM465 602h-273l126 633h-139l38 199h413zM2270 857q146 0 229 -94t83 -248q0 -109 -35.5 -207.5t-98 -171.5t-154 -116t-198.5 -43q-145 0 -227.5 93t-82.5 246q0 148 59 270.5t170.5 196.5t254.5 74zM1273 632l39 199h413l-166 -831
h-272l126 632h-140zM2142 210q42 0 76 28t54 72.5t30.5 94.5t10.5 99q0 119 -89 119q-55 0 -96 -50t-58 -115.5t-17 -132.5q0 -115 89 -115z" />
    <glyph glyph-name="uni2153" unicode="&#x2153;" horiz-adv-x="1980" 
d="M1383 1495h274l-1139 -1556h-274zM465 602h-273l126 633h-139l38 199h413zM1953 830l-9 -41l-221 -270q67 -25 105.5 -82.5t38.5 -130.5q0 -148 -105.5 -239.5t-267.5 -91.5q-141 0 -222.5 82t-63.5 215h236q-5 -42 13 -67t60 -25q46 0 77 33t31 82q0 32 -20.5 50.5
t-56.5 18.5h-141l12 58l175 213h-289l40 195h608z" />
    <glyph glyph-name="uni2154" unicode="&#x2154;" horiz-adv-x="2125" 
d="M1538 1495h274l-1139 -1556h-274zM757 807l-41 -204h-656l19 84q30 27 82.5 75t80.5 74t72.5 67t69 65.5t57.5 57t50.5 54t35 45t25 40.5t7.5 30q0 48 -47 48q-37 0 -54.5 -22.5t-24.5 -69.5h-250q21 152 111.5 230.5t244.5 78.5q122 0 201 -67.5t79 -169.5
q0 -42 -16 -85t-36.5 -76.5t-67 -82.5t-78.5 -80t-100 -92h236zM2108 830l-8 -41l-222 -270q67 -26 106 -83t39 -130q0 -147 -106 -239t-268 -92q-141 0 -222.5 82t-63.5 215h236q-5 -42 13 -67t60 -25q45 0 76.5 33t31.5 82q0 32 -20.5 50.5t-56.5 18.5h-141l12 58l175 213
h-289l41 195h607z" />
    <glyph glyph-name="uni2155" unicode="&#x2155;" horiz-adv-x="1994" 
d="M1383 1495h274l-1139 -1556h-274zM465 602h-273l126 633h-139l38 199h413zM1896 642h-324l-26 -86h49q128 0 209 -73t81 -180q0 -144 -101 -229t-261 -85q-140 0 -218.5 78t-61.5 215h230q-7 -35 10.5 -62.5t58.5 -27.5q43 0 74 31.5t31 74.5q0 60 -76 60l-280 -9l-15 44
l134 437h524z" />
    <glyph glyph-name="uni2156" unicode="&#x2156;" horiz-adv-x="2146" 
d="M1542 1495h273l-1138 -1556h-274zM761 807l-41 -204h-656l19 84q30 27 82.5 75t80.5 74t72.5 67t69 65.5t57.5 57t50.5 54t35 45t25 40.5t7.5 30q0 48 -47 48q-37 0 -54.5 -22.5t-24.5 -69.5h-250q21 152 111 230.5t244 78.5q122 0 201.5 -67.5t79.5 -169.5
q0 -42 -16 -85t-36.5 -76.5t-67 -82.5t-78.5 -80t-100 -92h236zM2055 642h-324l-26 -86h49q128 0 209 -73t81 -180q0 -144 -101 -229t-261 -85q-140 0 -218.5 78t-61.5 215h230q-7 -35 10.5 -62.5t58.5 -27.5q43 0 74 31.5t31 74.5q0 60 -76 60l-281 -9l-14 44l134 437h524z
" />
    <glyph glyph-name="uni2157" unicode="&#x2157;" horiz-adv-x="2195" 
d="M1589 1495h274l-1139 -1556h-274zM771 910q0 -148 -105.5 -239.5t-267.5 -91.5q-141 0 -223 82t-64 215h237q-5 -42 13 -67t60 -25q46 0 76.5 33t30.5 82q0 32 -20 50.5t-56 18.5h-141l11 58l176 213h-289l40 195h607l-8 -41l-222 -270q67 -26 106 -83t39 -130zM2102 642
h-324l-26 -86h49q128 0 209 -73t81 -180q0 -144 -101 -229t-261 -85q-140 0 -218.5 78t-61.5 215h230q-7 -35 10.5 -62.5t58.5 -27.5q43 0 74 31.5t31 74.5q0 60 -75 60l-281 -9l-15 44l134 437h524z" />
    <glyph glyph-name="uni2158" unicode="&#x2158;" horiz-adv-x="2254" 
d="M1641 1495h274l-1139 -1556h-274zM710 602h-255l27 139h-403l13 69l387 624h266l-302 -500h96l123 208h156l-41 -208h81l-40 -193h-80zM2154 642h-324l-26 -86h49q128 0 209 -73t81 -180q0 -144 -101 -229t-261 -85q-140 0 -218.5 78t-61.5 215h230q-7 -35 10.5 -62.5
t58.5 -27.5q43 0 74 31.5t31 74.5q0 60 -75 60l-281 -9l-15 44l134 437h524z" />
    <glyph glyph-name="uni2159" unicode="&#x2159;" horiz-adv-x="2021" 
d="M1383 1495h274l-1139 -1556h-274zM465 602h-273l126 633h-139l38 199h413zM1676 568q106 0 178 -72t72 -179q0 -157 -110.5 -251t-285.5 -94q-134 0 -215 78t-81 196q0 50 11.5 94.5t38.5 91t50.5 78.5t68.5 89l185 231h281l-183 -226q-10 -10 -30 -37q7 1 20 1z
M1562 185q52 0 87.5 35.5t35.5 92.5q-2 35 -24 56.5t-61 21.5q-52 0 -88 -37t-36 -91q3 -78 86 -78z" />
    <glyph glyph-name="uni215A" unicode="&#x215a;" horiz-adv-x="2205" 
d="M1566 1495h274l-1139 -1556h-273zM764 907q0 -144 -101.5 -229t-261.5 -85q-140 0 -218.5 78t-61.5 215h230q-7 -35 10.5 -62.5t58.5 -27.5q43 0 74 31.5t31 74.5q0 60 -75 60l-281 -8l-15 43l134 437h524l-38 -188h-324l-26 -86h49q128 0 209.5 -73t81.5 -180zM1860 568
q106 0 178 -72t72 -179q0 -157 -110.5 -251t-285.5 -94q-134 0 -215 78t-81 196q0 66 24.5 129.5t54 106.5t89.5 117l186 231h281l-184 -226q-10 -10 -30 -37q7 1 21 1zM1746 185q52 0 87.5 35.5t35.5 92.5q-2 35 -24 56.5t-61 21.5q-52 0 -88.5 -37t-36.5 -91
q2 -37 24 -57.5t63 -20.5z" />
    <glyph glyph-name="oneeighth" unicode="&#x215b;" horiz-adv-x="2039" 
d="M1383 1495h274l-1139 -1556h-274zM465 602h-273l126 633h-139l38 199h413zM1849 427q77 -54 77 -152q0 -143 -109 -219.5t-292 -76.5q-137 0 -217 64t-80 167q0 160 163 246q-64 64 -64 143q0 82 53 142t136 89t183 29q126 0 201 -60.5t75 -155.5q0 -129 -126 -216z
M1637 538q43 0 70.5 24.5t27.5 64.5q0 25 -19 40.5t-51 15.5q-43 0 -70 -25t-27 -63q0 -25 19 -41t50 -16zM1564 159q48 0 81 30t33 75q0 32 -23.5 51t-61.5 19q-47 0 -80 -29t-33 -73q0 -33 22.5 -53t61.5 -20z" />
    <glyph glyph-name="threeeighths" unicode="&#x215c;" horiz-adv-x="2242" 
d="M1589 1495h274l-1139 -1556h-274zM771 910q0 -148 -105.5 -239.5t-267.5 -91.5q-141 0 -223 82t-64 215h237q-5 -42 13 -67t60 -25q46 0 76.5 33t30.5 82q0 32 -20 50.5t-56 18.5h-141l11 58l176 213h-289l40 195h607l-8 -41l-222 -270q67 -26 106 -83t39 -130zM2055 427
q77 -54 77 -152q0 -143 -109 -219.5t-292 -76.5q-137 0 -217 64t-80 167q0 160 163 246q-64 64 -64 143q0 82 53 142t136 89t183 29q126 0 201 -60.5t75 -155.5q0 -129 -126 -216zM1843 538q43 0 70.5 24.5t27.5 64.5q0 25 -19 40.5t-51 15.5q-43 0 -70 -25t-27 -63
q0 -25 19 -41t50 -16zM1770 159q48 0 81.5 30t33.5 75q0 31 -24 50.5t-62 19.5q-47 0 -79.5 -29t-32.5 -73q0 -33 22 -53t61 -20z" />
    <glyph glyph-name="fiveeighths" unicode="&#x215d;" horiz-adv-x="2211" 
d="M1560 1495h274l-1139 -1556h-274zM757 907q0 -144 -101 -229t-261 -85q-140 0 -218.5 78t-61.5 215h230q-7 -35 10.5 -62.5t58.5 -27.5q43 0 74 31.5t31 74.5q0 60 -76 60l-281 -8l-14 43l134 437h524l-38 -188h-324l-26 -86h49q128 0 209 -73t81 -180zM2026 427
q77 -54 77 -152q0 -143 -109 -219.5t-292 -76.5q-137 0 -217 64t-80 167q0 160 163 246q-64 64 -64 143q0 82 53 142t136 89t183 29q126 0 201 -60.5t75 -155.5q0 -129 -126 -216zM1814 538q43 0 70.5 24.5t27.5 64.5q0 25 -19 40.5t-51 15.5q-43 0 -70 -25t-27 -63
q0 -25 19 -41t50 -16zM1741 159q48 0 81 30t33 75q0 32 -23.5 51t-61.5 19q-47 0 -79.5 -29t-32.5 -73q0 -33 22 -53t61 -20z" />
    <glyph glyph-name="seveneighths" unicode="&#x215e;" horiz-adv-x="2191" 
d="M1535 1495h274l-1139 -1556h-274zM413 604h-269l385 630h-350l40 202h676l-11 -59zM2001 427q77 -54 77 -152q0 -143 -109 -219.5t-292 -76.5q-137 0 -217 64t-80 167q0 160 163 246q-64 64 -64 143q0 82 53 142t136 89t183 29q126 0 201 -60.5t75 -155.5
q0 -129 -126 -216zM1789 538q43 0 70.5 24.5t27.5 64.5q0 25 -19 40.5t-51 15.5q-43 0 -70 -25t-27 -63q0 -25 19 -41t50 -16zM1716 159q48 0 81 30t33 75q0 32 -23.5 51t-61.5 19q-47 0 -80 -29t-33 -73q0 -33 22.5 -53t61.5 -20z" />
    <glyph glyph-name="uni215F" unicode="&#x215f;" horiz-adv-x="1298" 
d="M1557 1495h274l-1139 -1556h-274zM639 602h-273l127 633h-140l39 199h413z" />
    <glyph glyph-name="uni2189" unicode="&#x2189;" horiz-adv-x="2263" 
d="M1669 1495h274l-1138 -1556h-274zM928 1121q0 -109 -35.5 -207.5t-98 -171.5t-154 -116t-198.5 -43q-145 0 -227.5 93t-82.5 246q0 148 59 270.5t170.5 196.5t254.5 74q146 0 229 -94t83 -248zM488 817q42 0 76 28t54 72.5t30.5 94t10.5 98.5q0 119 -89 119
q-55 0 -96 -49.5t-58 -115t-17 -132.5q0 -115 89 -115zM2239 830l-8 -41l-222 -270q67 -26 106 -83t39 -130q0 -148 -105.5 -239.5t-267.5 -91.5q-141 0 -223 82t-64 215h237q-5 -42 13 -67t60 -25q46 0 76.5 33t30.5 82q0 32 -20 50.5t-56 18.5h-141l11 58l176 213h-289
l40 195h607z" />
    <glyph glyph-name="arrowleft" unicode="&#x2190;" horiz-adv-x="1441" 
d="M1377 873v-392h-689l256 -261l-254 -225l-615 654v57l615 653l254 -225l-257 -261h690z" />
    <glyph glyph-name="arrowup" unicode="&#x2191;" horiz-adv-x="1433" 
d="M1438 755l-226 -254l-260 256v-688h-393v690l-260 -258l-226 254l654 615h57z" />
    <glyph glyph-name="arrowright" unicode="&#x2192;" horiz-adv-x="1439" 
d="M803 1359l615 -653v-57l-615 -654l-254 225l255 261h-688v392h690l-257 261z" />
    <glyph glyph-name="arrowdown" unicode="&#x2193;" horiz-adv-x="1437" 
d="M1202 934l226 -254l-654 -615h-57l-654 615l226 254l260 -257v690h393v-689z" />
    <glyph glyph-name="uni2196" unicode="&#x2196;" horiz-adv-x="1341" 
d="M1272 365l-256 -254l-514 515v-357h-326v897l39 39h898v-326h-353z" />
    <glyph glyph-name="uni2197" unicode="&#x2197;" horiz-adv-x="1224" 
d="M1084 1205l39 -39v-897h-325v357l-515 -515l-256 254l513 514h-354v326h898z" />
    <glyph glyph-name="uni2198" unicode="&#x2198;" horiz-adv-x="1363" 
d="M887 1076h326v-896l-39 -39h-898v326h354l-513 513l256 254l514 -515v357z" />
    <glyph glyph-name="uni2199" unicode="&#x2199;" horiz-adv-x="1230" 
d="M1253 980l-512 -513h354v-326h-898l-39 39v896h325v-357l515 515z" />
    <glyph glyph-name="partialdiff" unicode="&#x2202;" horiz-adv-x="1343" 
d="M747 1460q294 0 445 -121.5t151 -358.5q0 -225 -75 -422q-99 -269 -312 -433t-493 -164q-221 0 -346.5 104t-125.5 278q0 177 102 326.5t272.5 234.5t366.5 85q159 0 262 -76q4 30 4 40q0 201 -331 201q-105 0 -254 -22l60 305q168 23 274 23zM551 282q117 0 203.5 84.5
t86.5 190.5q0 60 -40 95.5t-111 35.5q-117 0 -204 -83t-87 -188q0 -62 40.5 -98.5t111.5 -36.5z" />
    <glyph glyph-name="emptyset" unicode="&#x2205;" horiz-adv-x="1423" 
d="M1231 979q68 -59 103.5 -149.5t35.5 -198.5q0 -192 -94 -345.5t-256.5 -238.5t-361.5 -85q-131 0 -236 35l-95 -118h-342l209 253q-67 59 -102 149t-35 197q0 192 94 345.5t256.5 238t360.5 84.5q129 0 234 -34l88 112h336zM724 824q-127 0 -212.5 -89t-85.5 -218
q0 -66 28 -103l331 401q-30 9 -61 9zM702 283q128 0 213 90t85 219q0 64 -28 101l-330 -401q28 -9 60 -9z" />
    <glyph glyph-name="product" unicode="&#x220f;" horiz-adv-x="1693" 
d="M1811 1434l-78 -394h-194l-274 -1368h-464l274 1368h-260l-274 -1368h-464l273 1368h-194l79 394h1576z" />
    <glyph glyph-name="summation" unicode="&#x2211;" horiz-adv-x="1286" 
d="M1382 1434l-70 -346h-549l261 -521l-15 -74l-411 -475h509l-69 -348h-1161l24 122l684 774l-380 746l24 122h1153z" />
    <glyph glyph-name="minus" unicode="&#x2212;" horiz-adv-x="1167" 
d="M90 496l66 331h965l-66 -331h-965z" />
    <glyph glyph-name="radical" unicode="&#x221a;" horiz-adv-x="1505" 
d="M1293 1536h434l-941 -1536h-271l-149 761h-309l70 345h560l76 -483z" />
    <glyph glyph-name="infinity" unicode="&#x221e;" horiz-adv-x="2002" 
d="M1598 1139q171 0 274.5 -100t103.5 -263q0 -109 -44.5 -209t-119.5 -173.5t-177.5 -117t-213.5 -43.5q-75 0 -140.5 19t-118 55.5t-91.5 76.5t-80 93q-131 -113 -260 -178.5t-274 -65.5q-169 0 -273.5 100t-104.5 261q0 145 75.5 271t203.5 200t276 74q75 0 140.5 -19
t119 -55.5t94 -76.5t81.5 -93q133 114 259 179t270 65zM437 656q0 -48 32.5 -78.5t93.5 -30.5q65 0 131.5 36.5t145.5 104.5q-53 67 -105 102t-117 35q-81 0 -131 -52t-50 -117zM1444 547q79 0 129 52.5t50 116.5q0 48 -32 78.5t-92 30.5q-111 0 -279 -141
q52 -66 105.5 -101.5t118.5 -35.5z" />
    <glyph glyph-name="integral" unicode="&#x222b;" horiz-adv-x="917" 
d="M-228 -610l75 381h87q77 0 125 40t64 116l331 1651q45 220 170.5 319t351.5 99h228l-77 -381h-88q-154 0 -186 -156l-332 -1651q-42 -207 -175 -312.5t-345 -105.5h-229z" />
    <glyph glyph-name="approxequal" unicode="&#x2248;" horiz-adv-x="1226" 
d="M879 720q-53 0 -105.5 13.5t-82 27.5t-71.5 37q-73 41 -107 41q-44 0 -65.5 -27.5t-33.5 -87.5h-284q43 223 125.5 313t252.5 90q74 0 133.5 -22.5t123.5 -60.5q71 -43 106 -43q46 0 66 28t33 96h286q-41 -222 -124.5 -313.5t-252.5 -91.5zM777 215q-53 0 -106 14
t-81.5 27.5t-71.5 37.5q-73 41 -107 41q-44 0 -65.5 -27.5t-33.5 -87.5h-284q43 223 125.5 313t252.5 90q74 0 133.5 -22.5t123.5 -60.5q71 -43 106 -43q46 0 66 28t33 96h286q-41 -222 -124.5 -314t-252.5 -92z" />
    <glyph glyph-name="notequal" unicode="&#x2260;" horiz-adv-x="1140" 
d="M1088 748h-292l-78 -171h334l-61 -304h-411l-108 -237h-329l108 237h-215l61 304h292l78 171h-334l61 304h412l106 233h329l-107 -233h215z" />
    <glyph glyph-name="lessequal" unicode="&#x2264;" horiz-adv-x="1095" 
d="M1161 1406l-78 -386l-453 -156l391 -147l-71 -359l-830 421l38 196zM-38 0l61 300h921l-61 -300h-921z" />
    <glyph glyph-name="greaterequal" unicode="&#x2265;" horiz-adv-x="1105" 
d="M278 1406l829 -431l-39 -196l-1001 -421l78 395l451 146l-389 156zM-5 0l61 300h939l-61 -300h-939z" />
    <glyph glyph-name="lozenge" unicode="&#x25ca;" horiz-adv-x="1220" 
d="M817 1427l394 -691l-10 -50l-669 -679h-64l-395 679l10 50l670 691h64zM439 696l137 -231l271 274l-136 232z" />
    <glyph glyph-name="K.ss01" horiz-adv-x="1413" 
d="M1596 1434l-588 -713l333 -721h-515l-247 582l-116 -582h-457l287 1434h456l-106 -530l398 530h555z" />
    <glyph glyph-name="K.ss03" horiz-adv-x="1413" 
d="M1596 1434l-588 -713l333 -721h-515l-247 582l-116 -582h-457l287 1434h456l-106 -530l398 530h555z" />
    <glyph glyph-name="K.ss04" horiz-adv-x="1413" 
d="M1596 1434l-588 -713l333 -721h-515l-247 582l-116 -582h-457l287 1434h456l-106 -530l398 530h555z" />
    <glyph glyph-name="germandbls.calt" horiz-adv-x="1529" 
d="M1579 1434l-10 -52l-313 -460q106 -48 166 -144.5t60 -218.5q0 -166 -83 -294t-226.5 -196.5t-322.5 -68.5h-274l75 368h194q83 0 130 47t47 119q0 47 -33.5 75t-90.5 28h-183l17 83l231 340h-139q-86 0 -128 -34.5t-59 -120.5l-181 -905h-465l191 957q49 243 196 360
t396 117h805z" />
    <glyph glyph-name="i.loclTRK" horiz-adv-x="641" 
d="M248 1237l72 361h418l-72 -361h-418zM-9 0l221 1106h441l-221 -1106h-441z" />
    <glyph glyph-name="k.ss01" horiz-adv-x="1249" 
d="M1362 1106l-436 -544l243 -562h-466l-180 455l-91 -455h-441l301 1505h441l-153 -763l270 364h512z" />
    <glyph glyph-name="k.ss03" horiz-adv-x="1249" 
d="M1362 1106l-436 -544l243 -562h-466l-180 455l-91 -455h-441l301 1505h441l-153 -763l270 364h512z" />
    <glyph glyph-name="k.ss04" horiz-adv-x="1249" 
d="M1362 1106l-436 -544l243 -562h-466l-180 455l-91 -455h-441l301 1505h441l-153 -763l270 364h512z" />
    <glyph glyph-name="uni0414.loclBGR" horiz-adv-x="1605" 
d="M1421 373h115l-126 -628h-415l51 255h-706l-51 -255h-415l126 628h113l655 1061h423zM875 908l-298 -547h378z" />
    <glyph glyph-name="uni041B.loclBGR" horiz-adv-x="1456" 
d="M1355 0h-509l-58 780l-377 -780h-534l815 1434h424z" />
    <glyph glyph-name="uni0416.ss01" horiz-adv-x="2117" 
d="M2293 1434l-581 -707l323 -727h-529l-213 599l-119 -599h-442l118 593l-447 -593h-540l618 735l-294 699h530l187 -573l114 573h442l-114 -572l412 572h535z" />
    <glyph glyph-name="uni041A.ss01" horiz-adv-x="1413" 
d="M1596 1434l-588 -713l333 -721h-515l-247 582l-116 -582h-457l287 1434h456l-106 -530l398 530h555z" />
    <glyph glyph-name="uni0424.ss01" horiz-adv-x="1945" 
d="M1939 828q0 -174 -66 -326.5t-180.5 -261.5t-271.5 -177t-337 -81l-40 -201h-451l40 202q-253 27 -407 200.5t-154 419.5q0 174 66 326.5t180 262.5t271.5 178.5t337.5 81.5l34 170h451l-33 -172q253 -27 406.5 -201t153.5 -421zM522 638q0 -104 58.5 -177t158.5 -89
l139 689q-149 -23 -252.5 -148t-103.5 -275zM1133 372q147 23 251 144.5t104 273.5q0 107 -58 181t-158 90z" />
    <glyph glyph-name="uni0414.ss02" horiz-adv-x="1605" 
d="M1421 373h115l-126 -628h-415l51 255h-706l-51 -255h-415l126 628h113l655 1061h423zM875 908l-298 -547h378z" />
    <glyph glyph-name="uni041B.ss02" horiz-adv-x="1456" 
d="M1355 0h-509l-58 780l-377 -780h-534l815 1434h424z" />
    <glyph glyph-name="uni0414.ss03" horiz-adv-x="1605" 
d="M1421 373h115l-126 -628h-415l51 255h-706l-51 -255h-415l126 628h113l655 1061h423zM875 908l-298 -547h378z" />
    <glyph glyph-name="uni0416.ss03" horiz-adv-x="2117" 
d="M2293 1434l-581 -707l323 -727h-529l-213 599l-119 -599h-442l118 593l-447 -593h-540l618 735l-294 699h530l187 -573l114 573h442l-114 -572l412 572h535z" />
    <glyph glyph-name="uni041A.ss03" horiz-adv-x="1413" 
d="M1596 1434l-588 -713l333 -721h-515l-247 582l-116 -582h-457l287 1434h456l-106 -530l398 530h555z" />
    <glyph glyph-name="uni041B.ss03" horiz-adv-x="1456" 
d="M1355 0h-509l-58 780l-377 -780h-534l815 1434h424z" />
    <glyph glyph-name="uni0416.ss04" horiz-adv-x="2117" 
d="M2293 1434l-581 -707l323 -727h-529l-213 599l-119 -599h-442l118 593l-447 -593h-540l618 735l-294 699h530l187 -573l114 573h442l-114 -572l412 572h535z" />
    <glyph glyph-name="uni041A.ss04" horiz-adv-x="1413" 
d="M1596 1434l-588 -713l333 -721h-515l-247 582l-116 -582h-457l287 1434h456l-106 -530l398 530h555z" />
    <glyph glyph-name="uni0424.ss04" horiz-adv-x="1855" 
d="M1852 817q0 -212 -109.5 -383.5t-295 -271.5t-414.5 -117l-30 -147h-411l30 149q-251 33 -401.5 194.5t-150.5 387.5q0 158 64.5 296.5t176 236.5t262 159t320.5 73l27 138h407l-28 -138q256 -23 404.5 -185t148.5 -392zM513 656q0 -93 52 -154t145 -73l117 585
q-140 -17 -227 -119t-87 -239zM1096 429q140 15 226.5 117.5t86.5 241.5q0 92 -52 152.5t-144 73.5z" />
    <glyph glyph-name="uni0424.ss05" horiz-adv-x="1855" 
d="M1852 817q0 -212 -109.5 -383.5t-295 -271.5t-414.5 -117l-30 -147h-411l30 149q-251 33 -401.5 194.5t-150.5 387.5q0 158 64.5 296.5t176 236.5t262 159t320.5 73l27 138h407l-28 -138q256 -23 404.5 -185t148.5 -392zM513 656q0 -93 52 -154t145 -73l117 585
q-140 -17 -227 -119t-87 -239zM1096 429q140 15 226.5 117.5t86.5 241.5q0 92 -52 152.5t-144 73.5z" />
    <glyph glyph-name="uni0432.loclBGR" horiz-adv-x="1335" 
d="M1130 770q141 -93 141 -273q0 -127 -54.5 -230t-148.5 -169t-218 -101.5t-266 -35.5q-241 0 -380 126.5t-139 338.5q0 12 0.5 24.5t1.5 25t4 31.5t5.5 34.5t8 44.5t10 52.5t13 67t15.5 78.5t19.5 97t22.5 113q50 254 229.5 396t448.5 142q221 0 366.5 -106.5
t145.5 -271.5q0 -224 -225 -384zM740 910q79 0 136.5 56t57.5 136q0 50 -36.5 78.5t-100.5 28.5q-160 0 -202 -211q-8 -41 -18 -88h163zM634 319q89 0 148.5 52.5t59.5 134.5q0 60 -39 94t-109 34h-173q-28 -139 -28 -177q0 -138 141 -138z" />
    <glyph glyph-name="uni0433.loclBGR" horiz-adv-x="1110" 
d="M460 -40q-205 0 -331.5 93.5t-126.5 239.5q0 63 13.5 114.5t35.5 89t58.5 67.5t74 50t90.5 35.5t100 24.5t110 18q35 5 53 8t45 9t40.5 12.5t28.5 16t21 22t6 29.5q0 24 -18 37t-46 13q-74 0 -93 -72h-409q35 175 180.5 275t361.5 100q199 0 321.5 -87.5t122.5 -229.5
q0 -87 -25 -152t-64 -105t-104 -68.5t-126.5 -42.5t-149.5 -26q-43 -6 -64 -10t-51.5 -12t-45 -17t-25.5 -24.5t-11 -36.5q0 -25 20 -40t51 -15q35 0 64 20.5t39 62.5h419q-36 -188 -182.5 -293.5t-382.5 -105.5z" />
    <glyph glyph-name="uni0434.loclBGR" horiz-adv-x="1390" 
d="M1104 1106h298l-204 -1019q-52 -262 -235.5 -398.5t-470.5 -136.5q-240 0 -378 115t-152 317h415q7 -41 53 -66.5t110 -25.5q89 0 155.5 52.5t84.5 140.5l4 19q-139 -72 -289 -72q-207 0 -330.5 123.5t-123.5 323.5q0 137 52.5 260.5t140 211.5t207.5 139.5t251 51.5
q101 0 188.5 -37t150.5 -104zM489 548q0 -75 45.5 -121t122.5 -46q98 0 168.5 71t70.5 175q0 76 -46 123t-123 47q-99 0 -168.5 -72t-69.5 -177z" />
    <glyph glyph-name="uni0436.loclBGR" horiz-adv-x="1818" 
d="M1929 1106l-419 -548l205 -558h-448l-161 493l-99 -493h-419l94 469l-320 -469h-494l453 627l-185 479h426l160 -438l167 837h419l-163 -815l293 416h491z" />
    <glyph glyph-name="uni0437.loclBGR" horiz-adv-x="1220" 
d="M928 379q81 -51 122.5 -126t41.5 -163q0 -119 -54.5 -221.5t-145 -171.5t-208.5 -108t-245 -39q-163 0 -289.5 63.5t-188.5 182.5t-34 270h415q-12 -77 25 -116.5t108 -39.5q83 0 140 50.5t57 126.5q0 55 -43 86.5t-114 31.5h-130l68 339h123q78 0 130.5 43t52.5 107
q0 48 -31 74.5t-88 26.5q-62 0 -108 -34.5t-63 -90.5h-397q32 145 123 253t216.5 163.5t269.5 55.5q209 0 348.5 -115.5t139.5 -278.5q0 -226 -241 -369z" />
    <glyph glyph-name="uni0438.loclBGR" horiz-adv-x="1325" 
d="M895 1106h440l-221 -1106h-299l-28 95q-144 -135 -362 -135q-169 0 -268.5 104t-99.5 272q0 18 1 34.5t3 34.5t8 50t11.5 63.5t18 92.5t24.5 121t33 165.5t42 208.5h440q-128 -637 -130 -657q-1 -10 -1 -18q0 -49 24 -75t68 -26q65 0 111 44t64 124z" />
    <glyph glyph-name="uni0439.loclBGR" horiz-adv-x="1325" 
d="M1141 1461l-50 -255h-605l51 255h604zM895 1106h440l-221 -1106h-299l-28 95q-144 -135 -362 -135q-169 0 -268.5 104t-99.5 272q0 18 1 34.5t3 34.5t8 50t11.5 63.5t18 92.5t24.5 121t33 165.5t42 208.5h440q-128 -637 -130 -657q-1 -10 -1 -18q0 -49 24 -75t68 -26
q65 0 111 44t64 124z" />
    <glyph glyph-name="uni043A.loclBGR" horiz-adv-x="1249" 
d="M1362 1106l-436 -544l243 -562h-466l-181 454l-90 -454h-441l301 1505h441l-153 -764l270 365h512z" />
    <glyph glyph-name="uni043B.loclBGR" horiz-adv-x="1245" 
d="M1144 0h-447l-51 568l-278 -568h-487l651 1106h404z" />
    <glyph glyph-name="uni043F.loclBGR" horiz-adv-x="1325" 
d="M902 1146q169 0 268.5 -104t99.5 -272q0 -16 -0.5 -29t-3 -33.5t-5 -37.5t-9 -52.5t-12.5 -67t-18.5 -92.5t-24 -117t-31 -153t-37.5 -188h-441q127 634 130 655q1 10 1 19q0 49 -23.5 75.5t-67.5 26.5q-63 0 -108.5 -41.5t-64.5 -116.5l-123 -618h-441l221 1106h315
l21 -87q142 127 354 127z" />
    <glyph glyph-name="uni0442.loclBGR" horiz-adv-x="1929" 
d="M1552 1146q152 0 239.5 -98.5t87.5 -254.5q0 -16 -1 -31t-3.5 -33t-8 -49.5t-12 -65t-19.5 -96.5t-25.5 -126.5t-34.5 -172.5t-44 -219h-440q134 659 136 690q1 5 1 11q0 82 -77 82q-110 0 -148 -146q-8 -44 -23.5 -119t-46 -226.5t-58.5 -291.5h-428q39 196 87 432
q35 174 41.5 209t6.5 51q0 91 -76 91q-55 0 -94.5 -42.5t-56.5 -120.5l-123 -620h-441l221 1106h312l23 -92q153 132 345 132q93 0 166 -41t115 -114q160 155 379 155z" />
    <glyph glyph-name="uni0446.loclBGR" horiz-adv-x="1433" 
d="M1188 332q0 -68 36.5 -96.5t119.5 -28.5l-93 -470h-379l50 246q-94 32 -130 118q-144 -141 -367 -141q-169 0 -268.5 104t-99.5 272q0 18 1 34.5t3 34.5t8 49.5t11.5 63.5t18 93t24.5 120.5t33 165t42 208.5h440q-128 -636 -130 -656q-1 -10 -1 -18q0 -49 24 -75t68 -26
q67 0 113 46t63 128l122 602h440q-44 -220 -96 -482q-53 -261 -53 -292z" />
    <glyph glyph-name="uni0448.loclBGR" horiz-adv-x="1929" 
d="M1500 1109h440l-221 -1105h-295l-31 100q-154 -140 -354 -140q-94 0 -166.5 41t-114.5 114q-77 -74 -175 -114.5t-204 -40.5q-152 0 -239 98.5t-87 254.5q0 14 0.5 26t3 31.5t5.5 37t9.5 53t13 69.5t19 96.5t25 122t32.5 159.5t39 197h440q-134 -660 -137 -691v-11
q0 -80 77 -80q114 0 150 159q7 38 47.5 233.5t78.5 389.5h428q-131 -651 -134 -680q-1 -8 -1 -15q0 -87 76 -87q55 0 94.5 42.5t56.5 120.5z" />
    <glyph glyph-name="uni0449.loclBGR" horiz-adv-x="2035" 
d="M1793 333q0 -67 36.5 -96.5t117.5 -29.5l-94 -470h-378l49 245q-88 30 -132 117q-155 -139 -353 -139q-93 0 -165.5 41t-114.5 114q-76 -74 -174.5 -114.5t-205.5 -40.5q-152 0 -239 98.5t-87 254.5q0 14 0.5 26t3 31.5t5.5 37t9.5 53.5t13 69.5t19 96t25 122.5t32.5 160
t39 197h440q-96 -474 -116 -576.5t-20 -124.5q0 -82 76 -82q110 0 148 145q8 44 23.5 120t45.5 225.5t59 292.5h428q-132 -658 -134 -679q-1 -6 -1 -14q0 -90 76 -90q52 0 90 38.5t57 109.5q22 111 65 323.5t63 311.5h440q-19 -95 -50 -249q-93 -456 -96 -499q-1 -11 -1 -25
z" />
    <glyph glyph-name="uni044E.loclBGR" horiz-adv-x="1890" 
d="M1312 1148q248 0 395.5 -140t147.5 -362q0 -203 -97.5 -359.5t-268 -240.5t-384.5 -84q-202 0 -333.5 113.5t-157.5 298.5h-108l-75 -374h-440l301 1505h440l-158 -788h79q74 198 249.5 314.5t409.5 116.5zM1171 345q101 0 172 72.5t71 177.5q0 75 -46 122.5t-124 47.5
q-101 0 -171 -74.5t-70 -180.5q0 -75 45.5 -120t122.5 -45z" />
    <glyph glyph-name="uni0436.ss01" horiz-adv-x="1822" 
d="M1929 1106l-420 -528l228 -578h-491l-147 458l-92 -458h-419l89 442l-318 -442h-491l458 577l-208 529h471l138 -410l82 410h420l-86 -426l315 426h471z" />
    <glyph glyph-name="uni043A.ss01" horiz-adv-x="1247" 
d="M1362 1106l-436 -530l243 -576h-505l-148 420l-84 -420h-441l221 1106h441l-76 -380l293 380h492z" />
    <glyph glyph-name="uni0432.ss02" horiz-adv-x="1335" 
d="M1130 770q141 -93 141 -273q0 -127 -54.5 -230t-148.5 -169t-218 -101.5t-266 -35.5q-241 0 -380 126.5t-139 338.5q0 12 0.5 24.5t1.5 25t4 31.5t5.5 34.5t8 44.5t10 52.5t13 67t15.5 78.5t19.5 97t22.5 113q50 254 229.5 396t448.5 142q221 0 366.5 -106.5
t145.5 -271.5q0 -224 -225 -384zM740 910q79 0 136.5 56t57.5 136q0 50 -36.5 78.5t-100.5 28.5q-160 0 -202 -211q-8 -41 -18 -88h163zM634 319q89 0 148.5 52.5t59.5 134.5q0 60 -39 94t-109 34h-173q-28 -139 -28 -177q0 -138 141 -138z" />
    <glyph glyph-name="uni0433.ss02" horiz-adv-x="1110" 
d="M460 -40q-205 0 -331.5 93.5t-126.5 239.5q0 63 13.5 114.5t35.5 89t58.5 67.5t74 50t90.5 35.5t100 24.5t110 18q35 5 53 8t45 9t40.5 12.5t28.5 16t21 22t6 29.5q0 24 -18 37t-46 13q-74 0 -93 -72h-409q35 175 180.5 275t361.5 100q199 0 321.5 -87.5t122.5 -229.5
q0 -87 -25 -152t-64 -105t-104 -68.5t-126.5 -42.5t-149.5 -26q-43 -6 -64 -10t-51.5 -12t-45 -17t-25.5 -24.5t-11 -36.5q0 -25 20 -40t51 -15q35 0 64 20.5t39 62.5h419q-36 -188 -182.5 -293.5t-382.5 -105.5z" />
    <glyph glyph-name="uni0434.ss02" horiz-adv-x="1390" 
d="M1104 1106h298l-204 -1019q-52 -262 -235.5 -398.5t-470.5 -136.5q-240 0 -378 115t-152 317h415q7 -41 53 -66.5t110 -25.5q89 0 155.5 52.5t84.5 140.5l4 19q-139 -72 -289 -72q-207 0 -330.5 123.5t-123.5 323.5q0 137 52.5 260.5t140 211.5t207.5 139.5t251 51.5
q101 0 188.5 -37t150.5 -104zM489 548q0 -75 45.5 -121t122.5 -46q98 0 168.5 71t70.5 175q0 76 -46 123t-123 47q-99 0 -168.5 -72t-69.5 -177z" />
    <glyph glyph-name="uni0436.ss02" horiz-adv-x="1818" 
d="M1929 1106l-419 -548l205 -558h-448l-161 493l-99 -493h-419l94 469l-320 -469h-494l453 627l-185 479h426l160 -438l167 837h419l-163 -815l293 416h491z" />
    <glyph glyph-name="uni0437.ss02" horiz-adv-x="1220" 
d="M928 379q81 -51 122.5 -126t41.5 -163q0 -119 -54.5 -221.5t-145 -171.5t-208.5 -108t-245 -39q-163 0 -289.5 63.5t-188.5 182.5t-34 270h415q-12 -77 25 -116.5t108 -39.5q83 0 140 50.5t57 126.5q0 55 -43 86.5t-114 31.5h-130l68 339h123q78 0 130.5 43t52.5 107
q0 48 -31 74.5t-88 26.5q-62 0 -108 -34.5t-63 -90.5h-397q32 145 123 253t216.5 163.5t269.5 55.5q209 0 348.5 -115.5t139.5 -278.5q0 -226 -241 -369z" />
    <glyph glyph-name="uni0438.ss02" horiz-adv-x="1325" 
d="M895 1106h440l-221 -1106h-299l-28 95q-144 -135 -362 -135q-169 0 -268.5 104t-99.5 272q0 18 1 34.5t3 34.5t8 50t11.5 63.5t18 92.5t24.5 121t33 165.5t42 208.5h440q-128 -637 -130 -657q-1 -10 -1 -18q0 -49 24 -75t68 -26q65 0 111 44t64 124z" />
    <glyph glyph-name="uni0439.ss02" horiz-adv-x="1325" 
d="M1141 1461l-50 -255h-605l51 255h604zM895 1106h440l-221 -1106h-299l-28 95q-144 -135 -362 -135q-169 0 -268.5 104t-99.5 272q0 18 1 34.5t3 34.5t8 50t11.5 63.5t18 92.5t24.5 121t33 165.5t42 208.5h440q-128 -637 -130 -657q-1 -10 -1 -18q0 -49 24 -75t68 -26
q65 0 111 44t64 124z" />
    <glyph glyph-name="uni043A.ss02" horiz-adv-x="1249" 
d="M1362 1106l-436 -544l243 -562h-466l-181 454l-90 -454h-441l301 1505h441l-153 -764l270 365h512z" />
    <glyph glyph-name="uni043B.ss02" horiz-adv-x="1245" 
d="M1144 0h-447l-51 568l-278 -568h-487l651 1106h404z" />
    <glyph glyph-name="uni043F.ss02" horiz-adv-x="1325" 
d="M902 1146q169 0 268.5 -104t99.5 -272q0 -16 -0.5 -29t-3 -33.5t-5 -37.5t-9 -52.5t-12.5 -67t-18.5 -92.5t-24 -117t-31 -153t-37.5 -188h-441q127 634 130 655q1 10 1 19q0 49 -23.5 75.5t-67.5 26.5q-63 0 -108.5 -41.5t-64.5 -116.5l-123 -618h-441l221 1106h315
l21 -87q142 127 354 127z" />
    <glyph glyph-name="uni0442.ss02" horiz-adv-x="1929" 
d="M1552 1146q152 0 239.5 -98.5t87.5 -254.5q0 -16 -1 -31t-3.5 -33t-8 -49.5t-12 -65t-19.5 -96.5t-25.5 -126.5t-34.5 -172.5t-44 -219h-440q134 659 136 690q1 5 1 11q0 82 -77 82q-110 0 -148 -146q-8 -44 -23.5 -119t-46 -226.5t-58.5 -291.5h-428q39 196 87 432
q35 174 41.5 209t6.5 51q0 91 -76 91q-55 0 -94.5 -42.5t-56.5 -120.5l-123 -620h-441l221 1106h312l23 -92q153 132 345 132q93 0 166 -41t115 -114q160 155 379 155z" />
    <glyph glyph-name="uni0446.ss02" horiz-adv-x="1433" 
d="M1188 332q0 -68 36.5 -96.5t119.5 -28.5l-93 -470h-379l50 246q-94 32 -130 118q-144 -141 -367 -141q-169 0 -268.5 104t-99.5 272q0 18 1 34.5t3 34.5t8 49.5t11.5 63.5t18 93t24.5 120.5t33 165t42 208.5h440q-128 -636 -130 -656q-1 -10 -1 -18q0 -49 24 -75t68 -26
q67 0 113 46t63 128l122 602h440q-44 -220 -96 -482q-53 -261 -53 -292z" />
    <glyph glyph-name="uni0448.ss02" horiz-adv-x="1929" 
d="M1500 1106h440l-221 -1106h-295l-31 100q-154 -140 -354 -140q-94 0 -166.5 41t-114.5 114q-77 -74 -175 -114.5t-204 -40.5q-152 0 -239 98.5t-87 254.5q0 14 0.5 26t3 31.5t5.5 37t9.5 53.5t13 69.5t19 96.5t25 122.5t32.5 159.5t39 197h440q-134 -660 -137 -691v-11
q0 -81 77 -81q114 0 150 159q7 38 47.5 234.5t78.5 389.5h428q-131 -651 -134 -681q-1 -8 -1 -15q0 -87 76 -87q55 0 94.5 42.5t56.5 120.5z" />
    <glyph glyph-name="uni0449.ss02" horiz-adv-x="2035" 
d="M1793 333q0 -67 36.5 -96.5t117.5 -29.5l-94 -470h-378l49 245q-88 30 -132 117q-155 -139 -353 -139q-93 0 -165.5 41t-114.5 114q-76 -74 -174.5 -114.5t-205.5 -40.5q-152 0 -239 98.5t-87 254.5q0 14 0.5 26t3 31.5t5.5 37t9.5 53.5t13 69.5t19 96t25 122.5t32.5 160
t39 197h440q-96 -474 -116 -576.5t-20 -124.5q0 -82 76 -82q110 0 148 145q8 44 23.5 120t45.5 225.5t59 292.5h428q-132 -658 -134 -679q-1 -6 -1 -14q0 -90 76 -90q52 0 90 38.5t57 109.5q22 111 65 323.5t63 311.5h440q-19 -95 -50 -249q-93 -456 -96 -499q-1 -11 -1 -25
z" />
    <glyph glyph-name="uni044E.ss02" horiz-adv-x="1890" 
d="M1312 1148q248 0 395.5 -140t147.5 -362q0 -203 -97.5 -359.5t-268 -240.5t-384.5 -84q-202 0 -333.5 113.5t-157.5 298.5h-108l-75 -374h-440l301 1505h440l-158 -788h79q74 198 249.5 314.5t409.5 116.5zM1171 345q101 0 172 72.5t71 177.5q0 75 -46 122.5t-124 47.5
q-101 0 -171 -74.5t-70 -180.5q0 -75 45.5 -120t122.5 -45z" />
    <glyph glyph-name="uni0432.ss03" horiz-adv-x="1335" 
d="M1130 770q141 -93 141 -273q0 -127 -54.5 -230t-148.5 -169t-218 -101.5t-266 -35.5q-241 0 -380 126.5t-139 338.5q0 12 0.5 24.5t1.5 25t4 31.5t5.5 34.5t8 44.5t10 52.5t13 67t15.5 78.5t19.5 97t22.5 113q50 254 229.5 396t448.5 142q221 0 366.5 -106.5
t145.5 -271.5q0 -224 -225 -384zM740 910q79 0 136.5 56t57.5 136q0 50 -36.5 78.5t-100.5 28.5q-160 0 -202 -211q-8 -41 -18 -88h163zM634 319q89 0 148.5 52.5t59.5 134.5q0 60 -39 94t-109 34h-173q-28 -139 -28 -177q0 -138 141 -138z" />
    <glyph glyph-name="uni0433.ss03" horiz-adv-x="1110" 
d="M460 -40q-205 0 -331.5 93.5t-126.5 239.5q0 63 13.5 114.5t35.5 89t58.5 67.5t74 50t90.5 35.5t100 24.5t110 18q35 5 53 8t45 9t40.5 12.5t28.5 16t21 22t6 29.5q0 24 -18 37t-46 13q-74 0 -93 -72h-409q35 175 180.5 275t361.5 100q199 0 321.5 -87.5t122.5 -229.5
q0 -87 -25 -152t-64 -105t-104 -68.5t-126.5 -42.5t-149.5 -26q-43 -6 -64 -10t-51.5 -12t-45 -17t-25.5 -24.5t-11 -36.5q0 -25 20 -40t51 -15q35 0 64 20.5t39 62.5h419q-36 -188 -182.5 -293.5t-382.5 -105.5z" />
    <glyph glyph-name="uni0434.ss03" horiz-adv-x="1390" 
d="M1104 1106h298l-204 -1019q-52 -262 -235.5 -398.5t-470.5 -136.5q-240 0 -378 115t-152 317h415q7 -41 53 -66.5t110 -25.5q89 0 155.5 52.5t84.5 140.5l4 19q-139 -72 -289 -72q-207 0 -330.5 123.5t-123.5 323.5q0 137 52.5 260.5t140 211.5t207.5 139.5t251 51.5
q101 0 188.5 -37t150.5 -104zM489 548q0 -75 45.5 -121t122.5 -46q98 0 168.5 71t70.5 175q0 76 -46 123t-123 47q-99 0 -168.5 -72t-69.5 -177z" />
    <glyph glyph-name="uni0436.ss03" horiz-adv-x="1814" 
d="M1926 1106l-420 -548l205 -558h-448l-161 493l-98 -493h-419l94 469l-320 -469h-494l452 627l-185 479h427l159 -438l168 837h419l-163 -815l292 416h492z" />
    <glyph glyph-name="uni0437.ss03" horiz-adv-x="1220" 
d="M928 379q81 -51 122.5 -126t41.5 -163q0 -119 -54.5 -221.5t-145 -171.5t-208.5 -108t-245 -39q-163 0 -289.5 63.5t-188.5 182.5t-34 270h415q-12 -77 25 -116.5t108 -39.5q83 0 140 50.5t57 126.5q0 55 -43 86.5t-114 31.5h-130l68 339h123q78 0 130.5 43t52.5 107
q0 48 -31 74.5t-88 26.5q-62 0 -108 -34.5t-63 -90.5h-397q32 145 123 253t216.5 163.5t269.5 55.5q209 0 348.5 -115.5t139.5 -278.5q0 -226 -241 -369z" />
    <glyph glyph-name="uni0438.ss03" horiz-adv-x="1325" 
d="M895 1106h440l-221 -1106h-299l-28 95q-144 -135 -362 -135q-169 0 -268.5 104t-99.5 272q0 18 1 34.5t3 34.5t8 50t11.5 63.5t18 92.5t24.5 121t33 165.5t42 208.5h440q-128 -637 -130 -657q-1 -10 -1 -18q0 -49 24 -75t68 -26q65 0 111 44t64 124z" />
    <glyph glyph-name="uni0439.ss03" horiz-adv-x="1325" 
d="M1141 1461l-50 -255h-605l51 255h604zM895 1106h440l-221 -1106h-299l-28 95q-144 -135 -362 -135q-169 0 -268.5 104t-99.5 272q0 18 1 34.5t3 34.5t8 50t11.5 63.5t18 92.5t24.5 121t33 165.5t42 208.5h440q-128 -637 -130 -657q-1 -10 -1 -18q0 -49 24 -75t68 -26
q65 0 111 44t64 124z" />
    <glyph glyph-name="uni043A.ss03" horiz-adv-x="1247" 
d="M1362 1106l-436 -544l243 -562h-466l-180 455l-91 -455h-441l301 1505h441l-153 -763l270 364h512z" />
    <glyph glyph-name="uni043B.ss03" horiz-adv-x="1245" 
d="M1144 0h-447l-51 568l-278 -568h-487l651 1106h404z" />
    <glyph glyph-name="uni043F.ss03" horiz-adv-x="1325" 
d="M902 1146q169 0 268.5 -104t99.5 -272q0 -16 -0.5 -29t-3 -33.5t-5 -37.5t-9 -52.5t-12.5 -67t-18.5 -92.5t-24 -117t-31 -153t-37.5 -188h-441q127 634 130 655q1 10 1 19q0 49 -23.5 75.5t-67.5 26.5q-63 0 -108.5 -41.5t-64.5 -116.5l-123 -618h-441l221 1106h315
l21 -87q142 127 354 127z" />
    <glyph glyph-name="uni0442.ss03" horiz-adv-x="1929" 
d="M1552 1146q152 0 239.5 -98.5t87.5 -254.5q0 -16 -1 -31t-3.5 -33t-8 -49.5t-12 -65t-19.5 -96.5t-25.5 -126.5t-34.5 -172.5t-44 -219h-440q134 659 136 690q1 5 1 11q0 82 -77 82q-110 0 -148 -146q-8 -44 -23.5 -119t-46 -226.5t-58.5 -291.5h-428q39 196 87 432
q35 174 41.5 209t6.5 51q0 91 -76 91q-55 0 -94.5 -42.5t-56.5 -120.5l-123 -620h-441l221 1106h312l23 -92q153 132 345 132q93 0 166 -41t115 -114q160 155 379 155z" />
    <glyph glyph-name="uni0446.ss03" horiz-adv-x="1433" 
d="M1188 332q0 -68 36.5 -96.5t119.5 -28.5l-93 -470h-379l50 246q-94 32 -130 118q-144 -141 -367 -141q-169 0 -268.5 104t-99.5 272q0 18 1 34.5t3 34.5t8 49.5t11.5 63.5t18 93t24.5 120.5t33 165t42 208.5h440q-128 -636 -130 -656q-1 -10 -1 -18q0 -49 24 -75t68 -26
q67 0 113 46t63 128l122 602h440q-44 -220 -96 -482q-53 -261 -53 -292z" />
    <glyph glyph-name="uni0448.ss03" horiz-adv-x="1929" 
d="M1500 1106h440l-221 -1106h-295l-31 100q-154 -140 -354 -140q-94 0 -166.5 41t-114.5 114q-77 -74 -175 -114.5t-204 -40.5q-152 0 -239 98.5t-87 254.5q0 14 0.5 26t3 31.5t5.5 37t9.5 53.5t13 69.5t19 96.5t25 122.5t32.5 159.5t39 197h440q-134 -660 -137 -691v-11
q0 -81 77 -81q114 0 150 159q7 38 47.5 234.5t78.5 389.5h428q-131 -651 -134 -681q-1 -8 -1 -15q0 -87 76 -87q55 0 94.5 42.5t56.5 120.5z" />
    <glyph glyph-name="uni0449.ss03" horiz-adv-x="2035" 
d="M1793 333q0 -67 36.5 -96.5t117.5 -29.5l-94 -470h-378l49 245q-88 30 -132 117q-155 -139 -353 -139q-93 0 -165.5 41t-114.5 114q-76 -74 -174.5 -114.5t-205.5 -40.5q-152 0 -239 98.5t-87 254.5q0 14 0.5 26t3 31.5t5.5 37t9.5 53.5t13 69.5t19 96t25 122.5t32.5 160
t39 197h440q-96 -474 -116 -576.5t-20 -124.5q0 -82 76 -82q110 0 148 145q8 44 23.5 120t45.5 225.5t59 292.5h428q-132 -658 -134 -679q-1 -6 -1 -14q0 -90 76 -90q52 0 90 38.5t57 109.5q22 111 65 323.5t63 311.5h440q-19 -95 -50 -249q-93 -456 -96 -499q-1 -11 -1 -25
z" />
    <glyph glyph-name="uni044E.ss03" horiz-adv-x="1890" 
d="M1312 1148q248 0 395.5 -140t147.5 -362q0 -203 -97.5 -359.5t-268 -240.5t-384.5 -84q-202 0 -333.5 113.5t-157.5 298.5h-108l-75 -374h-440l301 1505h440l-158 -788h79q74 198 249.5 314.5t409.5 116.5zM1171 345q101 0 172 72.5t71 177.5q0 75 -46 122.5t-124 47.5
q-101 0 -171 -74.5t-70 -180.5q0 -75 45.5 -120t122.5 -45z" />
    <glyph glyph-name="uni0436.ss04" horiz-adv-x="1822" 
d="M1929 1106l-420 -528l228 -578h-491l-147 458l-92 -458h-419l89 442l-318 -442h-491l458 577l-208 529h471l138 -410l82 410h420l-86 -426l315 426h471z" />
    <glyph glyph-name="uni043A.ss04" horiz-adv-x="1247" 
d="M1362 1106l-436 -530l243 -576h-505l-148 420l-84 -420h-441l221 1106h441l-76 -380l293 380h492z" />
    <glyph glyph-name="zero.sinf" horiz-adv-x="872" 
d="M288 -201q-145 0 -227.5 93t-82.5 246q0 148 59 270.5t170.5 196.5t254.5 74q146 0 229.5 -94t83.5 -248q0 -147 -60 -269t-172.5 -195.5t-254.5 -73.5zM335 33q55 0 95.5 48.5t57.5 113t17 131.5q0 119 -89 119q-55 0 -96 -49.5t-58 -115t-17 -132.5q0 -115 90 -115z
" />
    <glyph glyph-name="one.sinf" horiz-adv-x="518" 
d="M43 651h413l-166 -831h-272l126 632h-139z" />
    </font>
</defs>
</svg>
