<?xml version="1.0" standalone="no"?>
<!DOCTYPE svg PUBLIC "-//W3C//DTD SVG 1.1//EN" "http://www.w3.org/Graphics/SVG/1.1/DTD/svg11.dtd" >
<svg xmlns="http://www.w3.org/2000/svg" xmlns:xlink="http://www.w3.org/1999/xlink" version="1.1">
<metadata>
Created by FontForge 20170731 at Mon Apr 26 12:26:47 2021
 By Aleksey,,,
Modern and elegant sans serif font family.
</metadata>
<defs>
<font id="Mont-RegularItalic" horiz-adv-x="0" >
  <font-face 
    font-family="Mont Italic"
    font-weight="600"
    font-style="italic"
    font-stretch="normal"
    units-per-em="2048"
    panose-1="0 0 7 0 0 0 0 0 0 0"
    ascent="1638"
    descent="-410"
    x-height="1106"
    cap-height="1434"
    bbox="-1528 -616 2355 2023"
    underline-thickness="102"
    underline-position="-307"
    slope="-11.31"
    unicode-range="U+0020-25CA"
  />
<missing-glyph horiz-adv-x="942" 
d="M773 1495v-1884h-598v1884h598zM627 1369h-310v-62h122v-70h-124v-62h312v62h-124v70h124v62zM503 1126h-188v-196h312v64h-124v132zM439 1062v-68h-62v68h62zM627 879h-312v-62h124v-70h-124v-62h188v132h124v62zM627 766h-62v-124h-250v-65h312v189zM627 536h-188v-106
h64v44h62v-89h-188v151h-62v-213h312v213zM627 210h-312v-213h312v213zM565 148v-89h-188v89h188zM627 -46h-312v-62h132l-132 -89v-62h312v62h-192l132 89h60v62z" />
    <glyph glyph-name="f_f.liga" unicode="ff" horiz-adv-x="1499" 
d="M1515 1407q-121 0 -179 -49.5t-84 -172.5l-18 -86h348l-27 -136h-343l-192 -963h-166l193 963h-546l-193 -963h-166l193 963h-220l27 136h220l19 96q37 180 134 263t282 83h141l-25 -134h-109q-121 0 -179.5 -50t-84.5 -172l-17 -86h550l20 96q37 180 134 263t282 83h159
l-25 -134h-128z" />
    <glyph glyph-name="f_f_t.liga" unicode="fft" horiz-adv-x="2215" 
d="M2247 959h-365q-14 -69 -37 -184q-60 -297 -72 -362t-12 -91q0 -80 50.5 -124t142.5 -44h135l-31 -156h-145q-151 0 -237 77t-86 211q0 38 14.5 117.5t75.5 379.5q23 111 36 176h-250l1 4h-255l-192 -963h-166l193 963h-546l-193 -963h-166l193 963h-220l27 136h220
l19 96q37 180 134 263t282 83h160l-26 -134h-127q-121 0 -179.5 -50t-84.5 -172l-17 -86h550l20 96q37 180 134 263t282 83h159l-25 -134h-128q-121 0 -179 -49.5t-84 -172.5l-18 -86h510q7 38 29.5 148t35.5 178h166q-13 -68 -35.5 -178t-29.5 -148h364z" />
    <glyph glyph-name="f_t.liga" unicode="ft" horiz-adv-x="1548" 
d="M1578 959h-364q-14 -69 -37 -184q-60 -297 -72 -362t-12 -91q0 -80 50.5 -124t142.5 -44h135l-31 -156h-145q-151 0 -237 77t-86 211q0 38 14.5 117.5t75.5 379.5q23 111 36 176h-548l-192 -959h-166l192 959h-219l27 140h220l19 96q36 180 134 263t282 83h160l-26 -134
h-127q-121 0 -179.5 -50t-84.5 -172l-17 -86h553q7 38 29.5 148t35.5 178h166q-13 -68 -35.5 -178t-29.5 -148h363z" />
    <glyph glyph-name="f_t_t.liga" unicode="ftt" horiz-adv-x="2295" 
d="M2328 959h-368q-14 -69 -37 -184q-60 -297 -72 -362t-12 -91q0 -80 50.5 -124t142.5 -44h134l-30 -156h-145q-151 0 -237 77t-86 211q0 42 17 132t108 541h-593q-14 -69 -37 -184q-60 -297 -72 -362t-12 -91q0 -80 50.5 -124t142.5 -44h134l-30 -156h-145q-151 0 -237 77
t-86 211q0 42 17 132t108 541h-533l-192 -959h-166l192 959h-219l27 140h220l19 96q37 180 134 263t282 83h160l-26 -134h-127q-121 0 -179.5 -50t-84.5 -172l-17 -86h538q8 42 30.5 151t35.5 175h166q-13 -68 -35.5 -178t-29.5 -148h593q8 42 30.5 151t35.5 175h166
q-13 -68 -35.5 -178t-29.5 -148h367z" />
    <glyph glyph-name="r_t.liga" unicode="rt" horiz-adv-x="1632" 
d="M1661 959h-362q-115 -575 -119 -601q-2 -18 -2 -35q0 -81 50 -125.5t143 -44.5h135l-31 -155h-154q-149 0 -231.5 75.5t-82.5 210.5q0 41 15.5 122.5t110.5 552.5h-232l29 143h231q9 44 30.5 152t34.5 171h166q-14 -69 -36 -179.5t-29 -143.5h362zM399 930
q158 181 394 181h71l-33 -157h-84q-146 0 -247 -86.5t-139 -238.5l-126 -629h-166l221 1106h118z" />
    <glyph glyph-name="t_f.liga" unicode="tf" horiz-adv-x="1488" 
d="M1508 1428q-121 0 -180 -50.5t-84 -172.5l-22 -106h348l-27 -140h-343l-192 -959h-166l192 959h-574q-32 -161 -73 -366q-48 -240 -48 -269q0 -81 50 -125.5t143 -44.5h126l-31 -156h-136q-151 0 -237 77t-86 211q0 11 0.5 20t2.5 25t4 30t8 44t11.5 58t16 81t21 105
t27.5 137l34 170h-195l5 27l410 354h23l-48 -238h573l24 117q36 181 134 263.5t282 82.5h160l-26 -134h-127z" />
    <glyph glyph-name=".notdef" horiz-adv-x="942" 
d="M773 1495v-1884h-598v1884h598zM627 1369h-310v-62h122v-70h-124v-62h312v62h-124v70h124v62zM503 1126h-188v-196h312v64h-124v132zM439 1062v-68h-62v68h62zM627 879h-312v-62h124v-70h-124v-62h188v132h124v62zM627 766h-62v-124h-250v-65h312v189zM627 536h-188v-106
h64v44h62v-89h-188v151h-62v-213h312v213zM627 210h-312v-213h312v213zM565 148v-89h-188v89h188zM627 -46h-312v-62h132l-132 -89v-62h312v62h-192l132 89h60v62z" />
    <glyph glyph-name=".null" 
 />
    <glyph glyph-name="nonmarkingreturn" horiz-adv-x="682" 
 />
    <glyph glyph-name="space" unicode=" " horiz-adv-x="542" 
 />
    <glyph glyph-name="exclam" unicode="!" horiz-adv-x="567" 
d="M165 391l217 1084h168l-217 -1084h-168zM76 0l41 211h192l-41 -211h-192z" />
    <glyph glyph-name="quotedbl" unicode="&#x22;" horiz-adv-x="747" 
d="M213 939l99 499h156l-99 -499h-156zM523 939l99 499h156l-99 -499h-156z" />
    <glyph glyph-name="numbersign" unicode="#" horiz-adv-x="1310" 
d="M1292 897h-188l-116 -335h192l-29 -142h-215l-147 -418h-153l144 418h-393l-151 -418h-153l150 418h-173l29 142h195l120 335h-203l29 136h223l144 401h154l-143 -401h388l141 401h154l-142 -401h172zM832 562l116 335h-389l-120 -335h393z" />
    <glyph glyph-name="dollar" unicode="$" horiz-adv-x="1144" 
d="M1112 986h-161q24 117 -48 184.5t-197 67.5q-144 0 -246.5 -71.5t-102.5 -184.5q0 -27 9 -49t21 -38.5t36.5 -31.5t44 -24t55.5 -19.5t59 -16t65 -15.5q67 -16 113.5 -29.5t103.5 -40t92 -58.5t59.5 -83t24.5 -114q0 -202 -142.5 -334.5t-362.5 -149.5l-32 -162h-139
l32 164q-165 18 -259 107t-94 237q0 52 8 95h166q-28 -127 53 -204t226 -77q151 0 262 83t111 204q0 32 -10.5 57.5t-34 45.5t-47 34t-63.5 27.5t-68.5 21t-77.5 19.5q-46 11 -79 20t-75.5 24.5t-72 31t-60.5 39.5t-49.5 51t-30.5 64t-12 80q0 192 132.5 314t344.5 139
l31 157h145l-32 -160q146 -19 230 -101t84 -207q0 -46 -12 -97z" />
    <glyph glyph-name="percent" unicode="%" horiz-adv-x="1546" 
d="M424 771q-117 0 -189 69t-72 178q0 152 105.5 257t261.5 105q117 0 187.5 -68.5t70.5 -177.5q0 -152 -105 -257.5t-259 -105.5zM162 0l1094 1362h166l-1094 -1362h-166zM441 898q88 0 152.5 63.5t64.5 155.5q0 61 -39.5 98.5t-105.5 37.5q-88 0 -152.5 -63.5
t-64.5 -153.5q0 -63 39.5 -100.5t105.5 -37.5zM1073 -8q-117 0 -188.5 68t-71.5 176q0 149 105 254t259 105q116 0 187.5 -68.5t71.5 -177.5q0 -150 -105 -253.5t-258 -103.5zM1090 119q89 0 151.5 64t62.5 149q0 61 -39 98.5t-105 37.5q-88 0 -150.5 -62t-62.5 -153
q0 -61 39 -97.5t104 -36.5z" />
    <glyph glyph-name="ampersand" unicode="&#x26;" horiz-adv-x="1257" 
d="M1176 636q-48 -237 -194 -407q84 -117 166 -229h-181q-19 26 -51.5 71t-40.5 56q-193 -149 -445 -149q-173 0 -277.5 86.5t-104.5 227.5q0 86 30 160.5t87 135t118.5 106t146.5 93.5q-95 173 -95 293q0 173 114.5 274.5t302.5 101.5q140 0 225 -68.5t85 -178.5
q0 -55 -16.5 -106.5t-49 -95t-69.5 -80t-89.5 -72.5t-96.5 -62t-102 -57q90 -149 260 -390q102 125 136 290h141zM736 1325q-109 0 -179.5 -59.5t-70.5 -153.5t82 -251q49 25 70 36t65.5 37t67 42.5t54.5 44.5t47.5 52t27.5 55.5t12 63.5q0 60 -47.5 96.5t-128.5 36.5z
M455 128q182 0 336 115q-195 272 -288 421q-66 -36 -112.5 -68t-91.5 -74.5t-68 -94t-23 -110.5q0 -87 66 -138t181 -51z" />
    <glyph glyph-name="quotesingle" unicode="'" horiz-adv-x="438" 
d="M213 939l99 499h156l-99 -499h-156z" />
    <glyph glyph-name="parenleft" unicode="(" horiz-adv-x="612" 
d="M226 -271q-133 269 -133 616q0 345 134.5 677.5t376.5 600.5h185q-240 -256 -386.5 -595.5t-146.5 -666.5q0 -351 154 -632h-184z" />
    <glyph glyph-name="parenright" unicode=")" horiz-adv-x="612" 
d="M-128 -271q241 255 387.5 593.5t146.5 667.5q0 351 -155 633h185q134 -271 134 -617q0 -343 -137 -678t-376 -599h-185z" />
    <glyph glyph-name="asterisk" unicode="*" horiz-adv-x="806" 
d="M845 1170l-234 -72l103 -179l-109 -78l-105 188l-189 -195l-91 85l184 185l-201 72l65 120l197 -73l45 225h129l-45 -226l228 74z" />
    <glyph glyph-name="plus" unicode="+" horiz-adv-x="1071" 
d="M1050 777l-31 -150h-387l-81 -406h-163l82 406h-389l31 150h388l80 397h162l-80 -397h388z" />
    <glyph glyph-name="comma" unicode="," horiz-adv-x="479" 
d="M-1 -268l19 94q110 37 139 174h-114l42 209h203l-39 -203q-44 -221 -250 -274z" />
    <glyph glyph-name="hyphen" unicode="-" horiz-adv-x="937" 
d="M134 492l32 160h649l-33 -160h-648z" />
    <glyph glyph-name="period" unicode="." horiz-adv-x="462" 
d="M42 0l41 211h193l-42 -211h-192z" />
    <glyph glyph-name="slash" unicode="/" horiz-adv-x="917" 
d="M-66 -139l936 1698h173l-934 -1698h-175z" />
    <glyph glyph-name="zero" unicode="0" horiz-adv-x="1273" 
d="M532 -24q-196 0 -305.5 133t-109.5 364q0 137 28.5 269t86 248.5t137.5 205t190.5 139.5t236.5 51q196 0 304.5 -132t108.5 -363q0 -113 -20.5 -224.5t-59.5 -213t-98.5 -189t-132.5 -151.5t-167.5 -100.5t-198.5 -36.5zM555 135q92 0 172 44.5t137.5 119.5t99 171
t61.5 200t20 206q0 168 -71 259.5t-202 91.5q-114 0 -209.5 -67.5t-155.5 -176.5t-92.5 -238.5t-32.5 -259.5q0 -167 71 -258.5t202 -91.5z" />
    <glyph glyph-name="one" unicode="1" horiz-adv-x="661" 
d="M203 1362h423l-272 -1362h-163l245 1219h-262z" />
    <glyph glyph-name="two" unicode="2" horiz-adv-x="1069" 
d="M1034 1062q0 -183 -176 -395q-114 -139 -384 -378q-38 -33 -164 -144h601l-28 -146h-915l12 53q46 40 134 116q85 73 127 109.5t116 101.5t111.5 100.5t97 92t90 91.5t72 83t62.5 82.5t42.5 75t30 75.5t8.5 69q0 84 -55.5 133.5t-151.5 49.5q-117 0 -197 -65t-106 -173
l-8 -33h-161l8 33q48 194 173 293.5t315 99.5q156 0 251 -91t95 -233z" />
    <glyph glyph-name="three" unicode="3" horiz-adv-x="1083" 
d="M1091 1362l-8 -38l-422 -479q138 -21 219 -117.5t81 -233.5q0 -142 -71 -261t-195 -188t-274 -69q-171 0 -274 98.5t-103 257.5q0 20 4 64h157q-16 -116 52 -190.5t189 -74.5q149 0 252.5 106t103.5 248q0 104 -72 168t-191 64h-150l6 33l413 467h-550l29 145h804z" />
    <glyph glyph-name="four" unicode="4" horiz-adv-x="1097" 
d="M1023 432l-29 -143h-148l-59 -289h-153l58 289h-700l8 39l688 1035h166l-621 -931h489l113 427h125l-86 -427h149z" />
    <glyph glyph-name="five" unicode="5" horiz-adv-x="1071" 
d="M1025 1217h-540l-111 -358h208q174 0 277.5 -105t103.5 -264q0 -104 -42 -199t-113.5 -164t-171 -110t-208.5 -41q-171 0 -276.5 97.5t-105.5 251.5q0 36 6 71h157q-19 -115 49.5 -191.5t189.5 -76.5q144 0 249.5 103.5t105.5 248.5q0 104 -71 169t-187 65h-342l-20 26
l193 622h678z" />
    <glyph glyph-name="six" unicode="6" horiz-adv-x="1122" 
d="M659 883q163 0 275 -105t112 -267q0 -148 -75.5 -271t-206.5 -193.5t-289 -70.5q-184 0 -296 108t-112 275q0 127 64.5 255t179.5 278l369 483h178q-156 -205 -282 -370t-129 -169q103 47 212 47zM495 130q164 0 279 110t115 262q0 109 -73.5 175.5t-197.5 66.5
q-162 0 -279 -110t-117 -259q0 -109 75 -177t198 -68z" />
    <glyph glyph-name="seven" unicode="7" horiz-adv-x="1011" 
d="M205 1362h918l-6 -29l-803 -1333h-169l739 1217h-707z" />
    <glyph glyph-name="eight" unicode="8" horiz-adv-x="1171" 
d="M905 722q65 -39 100 -108t35 -154q0 -142 -75 -253.5t-202 -171t-283 -59.5q-188 0 -299.5 96.5t-111.5 251.5q0 136 75 247.5t198 169.5q-97 77 -97 224q0 127 66 223.5t178.5 147t254.5 50.5q168 0 269 -85.5t101 -222.5q0 -104 -58.5 -204t-150.5 -152zM724 1248
q-138 0 -229 -76t-91 -192q0 -84 62.5 -133.5t167.5 -49.5q134 0 228.5 78t94.5 194q0 81 -63 130t-170 49zM498 119q163 0 271.5 91.5t108.5 231.5q0 99 -73.5 157.5t-197.5 58.5q-159 0 -269 -92t-110 -231q0 -98 72 -157t198 -59z" />
    <glyph glyph-name="nine" unicode="9" horiz-adv-x="1122" 
d="M701 1386q182 0 294 -107t112 -274q0 -127 -64.5 -257t-178.5 -278l-369 -473h-177q309 399 401 521q-100 -39 -204 -39q-169 0 -277 107.5t-108 268.5q0 147 76 269.5t207 192t288 69.5zM558 618q106 0 196.5 49t144 134t53.5 186q0 109 -74 177t-197 68
q-164 0 -280 -110.5t-116 -261.5q0 -109 74.5 -175.5t198.5 -66.5z" />
    <glyph glyph-name="colon" unicode=":" horiz-adv-x="481" 
d="M190 777l43 211h193l-44 -211h-192zM36 0l41 211h192l-41 -211h-192z" />
    <glyph glyph-name="semicolon" unicode=";" horiz-adv-x="497" 
d="M201 779l41 211h192l-41 -211h-192zM-5 -268l19 94q110 37 139 174h-114l42 209h203l-39 -203q-44 -221 -250 -274z" />
    <glyph glyph-name="less" unicode="&#x3c;" horiz-adv-x="1083" 
d="M1081 1268l-38 -200l-696 -390l540 -385l-36 -171l-771 551l6 31z" />
    <glyph glyph-name="equal" unicode="=" horiz-adv-x="1284" 
d="M208 851l30 150h983l-30 -150h-983zM117 397l31 150h983l-31 -150h-983z" />
    <glyph glyph-name="greater" unicode="&#x3e;" horiz-adv-x="1081" 
d="M289 1268l767 -564l-6 -31l-990 -551l39 204l689 382l-533 392z" />
    <glyph glyph-name="question" unicode="?" horiz-adv-x="1042" 
d="M373 391q31 156 83 238t180 166q49 33 77.5 53.5t70.5 58t64.5 71.5t40 82t17.5 101q0 93 -64.5 146t-172.5 53q-121 0 -216.5 -68t-126.5 -183h-158q47 191 193 299t330 108q166 0 271.5 -92t105.5 -248q0 -84 -23.5 -153.5t-71.5 -126.5t-98 -98t-126 -92
q-107 -71 -147 -132.5t-64 -182.5h-165zM290 0l41 211h192l-41 -211h-192z" />
    <glyph glyph-name="at" unicode="@" horiz-adv-x="2070" 
d="M1179 1398q181 0 331.5 -51.5t253.5 -144t160 -224t57 -289.5q0 -121 -30 -233t-84 -199.5t-138.5 -140t-185.5 -52.5q-88 0 -152 44.5t-84 118.5q-75 -88 -179 -137.5t-222 -49.5q-170 0 -276.5 105.5t-106.5 269.5q0 147 73 275t200.5 204.5t278.5 76.5
q110 0 194 -47.5t130 -130.5l51 132h88q-25 -127 -60 -300q-52 -256 -52 -290q0 -66 35 -105t97 -39q68 0 125 45t93 117.5t55.5 159t19.5 173.5q0 266 -178 424.5t-487 158.5q-202 0 -385.5 -75t-315 -201.5t-209.5 -301.5t-78 -367q0 -262 170 -414.5t466 -152.5
q221 0 394 92l-27 -132q-183 -90 -385 -90q-341 0 -545 192.5t-204 508.5q0 223 86.5 422t234.5 341t354 224.5t437 82.5zM936 181q162 0 278 118.5t116 280.5q0 113 -71 182.5t-191 69.5q-105 0 -196.5 -54.5t-145 -146.5t-53.5 -196q0 -113 72 -183.5t191 -70.5z" />
    <glyph glyph-name="A" unicode="A" horiz-adv-x="1425" 
d="M1104 0l-76 349h-695l-212 -349h-191l875 1434h159l318 -1434h-178zM842 1201l-419 -700h570z" />
    <glyph glyph-name="B" unicode="B" horiz-adv-x="1327" 
d="M1024 735q74 -35 114 -106t40 -163q0 -97 -40.5 -184t-109 -148.5t-162 -97.5t-196.5 -36h-583l287 1434h558q151 0 245.5 -89t94.5 -222q0 -117 -71.5 -225.5t-176.5 -162.5zM1087 1091q0 79 -52.5 129.5t-137.5 50.5h-387l-90 -451h390q110 0 193.5 81t83.5 190z
M684 164q130 0 221 88.5t91 209.5q0 89 -58.5 145t-153.5 56h-395l-100 -499h395z" />
    <glyph glyph-name="C" unicode="C" horiz-adv-x="1587" 
d="M726 -22q-277 0 -442.5 161t-165.5 422q0 179 70 344t189 286t284 193t346 72q241 0 402 -137t180 -366h-171q-26 160 -136 248.5t-287 88.5q-142 0 -273 -58t-225 -155t-150 -228.5t-56 -273.5q0 -200 118.5 -315.5t329.5 -115.5q188 0 346.5 95t243.5 263h182
q-106 -251 -315.5 -387.5t-469.5 -136.5z" />
    <glyph glyph-name="D" unicode="D" horiz-adv-x="1497" 
d="M834 1434q275 0 442.5 -161t167.5 -418q0 -138 -43.5 -267.5t-124 -235t-187 -185t-239.5 -123.5t-275 -44h-488l287 1434h460zM581 157q139 0 267 57t220.5 151.5t147.5 223t55 265.5q0 193 -120.5 308.5t-329.5 115.5h-306l-225 -1121h291z" />
    <glyph glyph-name="E" unicode="E" horiz-adv-x="1126" 
d="M1150 1273h-637l-91 -458h585l-32 -155h-585l-99 -498h660l-33 -162h-831l287 1434h809z" />
    <glyph glyph-name="F" unicode="F" horiz-adv-x="1071" 
d="M1146 1277h-630l-98 -492h576l-30 -153h-577l-127 -632h-171l285 1434h802z" />
    <glyph glyph-name="G" unicode="G" horiz-adv-x="1632" 
d="M773 548l32 159h768q-68 -332 -294 -531t-552 -199q-275 0 -441 165.5t-166 429.5q0 175 68 337.5t183.5 282.5t276.5 191.5t339 71.5q168 0 303.5 -66t213.5 -185t81 -269h-171q-18 161 -135 257.5t-297 96.5q-188 0 -347.5 -99.5t-251 -265.5t-91.5 -358
q0 -196 117 -310t325 -114q218 0 379 109.5t234 296.5h-574z" />
    <glyph glyph-name="H" unicode="H" horiz-adv-x="1492" 
d="M1300 1434h172l-287 -1434h-171l132 662h-755l-133 -662h-171l287 1434h171l-123 -617h755z" />
    <glyph glyph-name="I" unicode="I" horiz-adv-x="567" 
d="M87 0l287 1434h171l-287 -1434h-171z" />
    <glyph glyph-name="J" unicode="J" horiz-adv-x="1214" 
d="M445 -24q-192 0 -305.5 109t-113.5 291q0 49 14 126h168q-11 -64 -11 -98q0 -120 68 -191t191 -71q139 0 250 100t140 249l188 943h173l-192 -972q-43 -217 -199 -351.5t-371 -134.5z" />
    <glyph glyph-name="K" unicode="K" horiz-adv-x="1286" 
d="M1419 1434l-667 -707l428 -727h-201l-388 661h-200l-133 -661h-171l287 1434h171l-122 -612h193l574 612h229z" />
    <glyph glyph-name="L" unicode="L" horiz-adv-x="1032" 
d="M290 157h634l-30 -157h-807l287 1434h171z" />
    <glyph glyph-name="M" unicode="M" horiz-adv-x="1955" 
d="M1632 1434h170l-48 -1434h-168l37 1132l-717 -1093h-47l-279 1093l-417 -1132h-181l527 1434h163l266 -1067z" />
    <glyph glyph-name="N" unicode="N" horiz-adv-x="1533" 
d="M1340 1434h173l-287 -1434h-141l-599 1131l-226 -1131h-173l287 1434h151l591 -1120z" />
    <glyph glyph-name="O" unicode="O" horiz-adv-x="1697" 
d="M748 -24q-187 0 -330.5 80t-220 218.5t-76.5 314.5t68.5 336t186 277.5t284.5 186.5t355 69q187 0 330.5 -80t220 -218.5t76.5 -314.5t-68 -336t-186 -277.5t-285 -186.5t-355 -69zM775 142q147 0 277 56t220.5 150t143.5 220.5t53 263.5q0 204 -132 332t-349 128
q-146 0 -276.5 -56.5t-221 -150.5t-143.5 -219.5t-53 -261.5q0 -206 132 -334t349 -128z" />
    <glyph glyph-name="P" unicode="P" horiz-adv-x="1247" 
d="M873 1434q178 0 290 -107t112 -272q0 -145 -75 -268.5t-204 -195.5t-280 -72h-353l-105 -519h-171l287 1434h499zM721 682q154 0 267.5 109t113.5 256q0 102 -68 163t-185 61h-336l-118 -589h326z" />
    <glyph glyph-name="Q" unicode="Q" horiz-adv-x="1699" 
d="M1642 845q0 -218 -100.5 -405.5t-275.5 -307.5l205 -309h-190l-154 232q-180 -79 -379 -79q-187 0 -330.5 80t-220 218.5t-76.5 314.5t68.5 336t186 277.5t284.5 186.5t355 69q187 0 330.5 -80t220 -218.5t76.5 -314.5zM775 142q139 0 261 49l-264 397h190l214 -321
q137 97 215 246.5t78 318.5q0 204 -132 332t-349 128q-148 0 -278.5 -57t-220.5 -151.5t-142.5 -219.5t-52.5 -260q0 -205 132 -333.5t349 -128.5z" />
    <glyph glyph-name="R" unicode="R" horiz-adv-x="1316" 
d="M1300 1075q0 -180 -115 -316t-293 -178l227 -581h-184l-219 566h-344l-114 -566h-171l287 1434h530q176 0 286 -100.5t110 -258.5zM760 724q153 0 260 101t107 241q0 96 -65.5 152.5t-180.5 56.5h-367l-110 -551h356z" />
    <glyph glyph-name="S" unicode="S" horiz-adv-x="1218" 
d="M506 -23q-206 0 -325.5 96t-119.5 270q0 46 9 97h175q-7 -38 -7 -62q0 -111 84 -173.5t215 -62.5q102 0 190 39t141.5 109.5t53.5 156.5q0 39 -18 71t-44 53t-71 39.5t-82.5 29.5t-95.5 25q-51 12 -82.5 20.5t-78 24.5t-75.5 31.5t-62.5 40t-52.5 52t-32 65.5t-13 83
q0 144 76 253t205 165.5t290 56.5q191 0 296.5 -88t105.5 -243q0 -40 -10 -97h-169q7 35 7 59q0 96 -73 151.5t-192 55.5q-151 0 -257 -76.5t-106 -195.5q0 -37 17.5 -66.5t42.5 -48.5t70 -37.5t80.5 -28.5t94.5 -24q54 -13 84.5 -21.5t80 -25.5t78.5 -32.5t64.5 -41
t55 -54.5t33 -69.5t13.5 -88.5q0 -149 -80 -266t-215.5 -179.5t-300.5 -62.5z" />
    <glyph glyph-name="T" unicode="T" horiz-adv-x="1122" 
d="M1256 1434l-32 -157h-438l-255 -1277h-171l255 1277h-439l32 157h1048z" />
    <glyph glyph-name="U" unicode="U" horiz-adv-x="1480" 
d="M640 -24q-211 0 -343.5 124t-132.5 321q0 16 0.5 29.5t3.5 36.5t7 44.5t12.5 65.5t17 87.5t25 123t32.5 159t42.5 208.5t52.5 259h173q-25 -128 -50 -252.5t-41 -204.5t-31.5 -158t-24.5 -123t-17 -88t-12 -65t-7 -43t-4 -32.5t-1 -22.5q0 -140 82.5 -221.5t227.5 -81.5
q175 0 308 111.5t168 290.5l177 890h173l-185 -910q-47 -245 -227.5 -396.5t-425.5 -151.5z" />
    <glyph glyph-name="V" unicode="V" horiz-adv-x="1386" 
d="M1325 1434h198l-858 -1434h-157l-296 1434h179l235 -1177z" />
    <glyph glyph-name="W" unicode="W" horiz-adv-x="2097" 
d="M2034 1434h190l-739 -1434h-149l-192 1036l-597 -1036h-153l-175 1434h173l131 -1153l652 1123h61l213 -1125z" />
    <glyph glyph-name="X" unicode="X" horiz-adv-x="1224" 
d="M1346 1434l-587 -689l340 -745h-184l-277 609l-519 -609h-212l640 751l-314 683h184l253 -551l470 551h206z" />
    <glyph glyph-name="Y" unicode="Y" horiz-adv-x="1339" 
d="M1465 1434l-703 -863l-115 -571h-176l114 571l-354 863h177l287 -701l572 701h198z" />
    <glyph glyph-name="Z" unicode="Z" horiz-adv-x="1144" 
d="M1249 1434l-7 -33l-994 -1244h770l-33 -157h-1043l5 30l996 1247h-715l32 157h989z" />
    <glyph glyph-name="bracketleft" unicode="[" horiz-adv-x="679" 
d="M818 1479h-279l-324 -1615h284l-29 -144h-439l379 1901h435z" />
    <glyph glyph-name="backslash" unicode="\" horiz-adv-x="870" 
d="M509 -139l-256 1698h173l258 -1698h-175z" />
    <glyph glyph-name="bracketright" unicode="]" horiz-adv-x="681" 
d="M262 1621h435l-379 -1901h-439l29 144h283l323 1615h-279z" />
    <glyph glyph-name="asciicircum" unicode="^" horiz-adv-x="1089" 
d="M1053 694h-176l-193 467l-382 -467h-200l610 744h31z" />
    <glyph glyph-name="underscore" unicode="_" horiz-adv-x="1058" 
d="M-156 -260l32 159h1057l-33 -159h-1056z" />
    <glyph glyph-name="grave" unicode="`" horiz-adv-x="1228" 
d="M676 1236h-130l-125 312h177z" />
    <glyph glyph-name="a" unicode="a" horiz-adv-x="1429" 
d="M1230 1106h133l-222 -1106h-137l15 161q-92 -87 -211 -136t-251 -49q-214 0 -346 132.5t-132 340.5q0 135 54 260t145 217.5t217.5 148t264.5 55.5q139 0 244 -56.5t165 -158.5zM587 135q100 0 193.5 43t161.5 113.5t108.5 165.5t40.5 195q0 144 -92 231.5t-246 87.5
q-133 0 -250 -72t-186 -191t-69 -252q0 -144 93 -232.5t246 -88.5z" />
    <glyph glyph-name="b" unicode="b" horiz-adv-x="1417" 
d="M862 1130q216 0 346 -131t130 -338q0 -183 -89.5 -340.5t-245.5 -251t-342 -93.5q-133 0 -237 53.5t-166 149.5l-60 -179h-129l301 1500h165l-107 -536q190 166 434 166zM667 135q133 0 249.5 72t184.5 191.5t68 253.5q0 144 -92 231.5t-245 87.5q-133 0 -250.5 -73.5
t-185.5 -192.5t-68 -249q0 -143 93.5 -232t245.5 -89z" />
    <glyph glyph-name="c" unicode="c" horiz-adv-x="1263" 
d="M559 -24q-214 0 -346 133t-132 341q0 135 54.5 260t146 217t218 147.5t264.5 55.5q195 0 320.5 -106.5t145.5 -286.5h-162q-29 110 -112 172t-206 62q-131 0 -247 -73t-184.5 -193t-68.5 -252q0 -142 89 -230t235 -88q127 0 237.5 63t183.5 177h173
q-83 -182 -247.5 -290.5t-361.5 -108.5z" />
    <glyph glyph-name="d" unicode="d" horiz-adv-x="1415" 
d="M1262 1500h166l-301 -1500h-128l8 150q-192 -174 -450 -174q-214 0 -346 132.5t-132 340.5q0 135 54 260t145 217.5t217.5 148t264.5 55.5q128 0 228 -49t162 -137zM587 138q133 0 250 72t185.5 190.5t68.5 251.5q0 143 -92 229.5t-246 86.5q-134 0 -251.5 -73.5
t-186 -191.5t-68.5 -247q0 -143 93 -230.5t247 -87.5z" />
    <glyph glyph-name="e" unicode="e" horiz-adv-x="1290" 
d="M1193 489h-951q0 -5 -1 -14.5t-1.5 -17.5t-0.5 -15q0 -143 86 -225t236 -82q120 0 223.5 52.5t171.5 147.5h186q-103 -172 -254 -265.5t-332 -93.5q-211 0 -343 133t-132 340q0 178 89 335t244 251.5t336 94.5q214 0 340 -132.5t126 -342.5q0 -81 -23 -166zM743 975
q-157 0 -282.5 -93t-182.5 -239h783v11q0 149 -84.5 235t-233.5 86z" />
    <glyph glyph-name="f" unicode="f" horiz-adv-x="786" 
d="M804 1407q-121 0 -179.5 -50t-84.5 -172l-17 -86h347l-27 -136h-342l-193 -963h-166l193 963h-220l27 136h220l19 96q37 180 134 263t282 83h160l-26 -134h-127z" />
    <glyph glyph-name="g" unicode="g" horiz-adv-x="1378" 
d="M1200 1106h111l-192 -960q-54 -268 -223 -416t-422 -148q-201 0 -320 98.5t-136 274.5h166q16 -105 101 -163.5t210 -58.5q172 0 298.5 111.5t163.5 298.5l10 51q-185 -158 -426 -158q-201 0 -327.5 126.5t-126.5 322.5q0 127 51.5 245.5t138 206t205.5 140.5t248 53
q134 0 239 -57.5t163 -158.5zM575 194q127 0 237.5 69t173.5 180t63 233q0 133 -87 214t-230 81q-127 0 -238 -68.5t-175.5 -179.5t-64.5 -233q0 -132 88.5 -214t232.5 -82z" />
    <glyph glyph-name="h" unicode="h" horiz-adv-x="1314" 
d="M835 1130q167 0 260.5 -95t93.5 -259q0 -16 -0.5 -28.5t-3 -32.5t-5 -36.5t-9 -52.5t-12.5 -67t-18.5 -93.5t-24 -118.5t-31.5 -155t-39 -192h-166q26 131 64 323q53 264 64 327.5t11 105.5q0 108 -57.5 160.5t-176.5 52.5q-150 0 -274.5 -106t-155.5 -262l-120 -601
h-166l301 1500h165l-107 -538q162 168 407 168z" />
    <glyph glyph-name="i" unicode="i" horiz-adv-x="522" 
d="M316 1302l39 193h182l-40 -193h-181zM69 0l221 1106h166l-221 -1106h-166z" />
    <glyph glyph-name="j" unicode="j" horiz-adv-x="546" 
d="M335 1302l39 193h182l-40 -193h-181zM-274 -394l31 151h55q108 0 183 63t96 171l224 1115h165l-228 -1143q-33 -165 -148.5 -261t-281.5 -96h-96z" />
    <glyph glyph-name="k" unicode="k" horiz-adv-x="1097" 
d="M1170 1106l-513 -530l333 -576h-188l-289 500h-178l-100 -500h-166l301 1500h165l-169 -847h149l439 453h216z" />
    <glyph glyph-name="l" unicode="l" horiz-adv-x="522" 
d="M69 0l301 1500h165l-300 -1500h-166z" />
    <glyph glyph-name="m" unicode="m" horiz-adv-x="1945" 
d="M1508 1130q146 0 233.5 -88t87.5 -232q-3 -49 -75 -413q-46 -231 -79 -397h-166q18 92 36.5 182t30.5 149t23.5 117t18.5 93t13.5 68.5t10 52t6.5 35.5t4 27.5t1.5 19t0.5 18.5q0 104 -51.5 159t-147.5 55q-125 0 -233.5 -99t-141.5 -246q-9 -48 -24.5 -125.5t-46 -227
t-56.5 -278.5h-162q30 152 73 365q50 248 60.5 305.5t10.5 91.5q0 104 -51.5 159t-147.5 55q-126 0 -234.5 -99.5t-140.5 -245.5l-126 -631h-166l221 1106h120l-4 -145q77 81 176.5 125t206.5 44q114 0 193 -56t109 -154q78 99 187.5 154.5t229.5 55.5z" />
    <glyph glyph-name="n" unicode="n" horiz-adv-x="1314" 
d="M831 1130q168 0 263 -95t95 -259q0 -16 -0.5 -28.5t-3 -32.5t-5 -36.5t-9 -52.5t-12.5 -67t-18.5 -93.5t-24 -118.5t-31.5 -155t-39 -192h-166q127 628 134 676q5 36 5 65q0 235 -244 235q-144 0 -263 -103t-154 -256l-123 -617h-166l221 1106h118l-3 -169
q78 92 188 142.5t238 50.5z" />
    <glyph glyph-name="o" unicode="o" horiz-adv-x="1343" 
d="M569 -24q-220 0 -355 133t-135 342q0 137 55.5 262.5t148.5 216.5t222 145.5t269 54.5q220 0 355 -133t135 -342q0 -137 -55.5 -262.5t-148.5 -216.5t-222 -145.5t-269 -54.5zM588 135q137 0 254.5 71t184.5 190t67 255q0 146 -92.5 233t-247.5 87q-102 0 -196 -42
t-162 -111.5t-108 -164.5t-40 -198q0 -146 92.5 -233t247.5 -87z" />
    <glyph glyph-name="p" unicode="p" horiz-adv-x="1419" 
d="M866 1130q214 0 344 -131.5t130 -339.5q0 -136 -53 -261.5t-142.5 -218t-215.5 -148t-264 -55.5q-129 0 -231.5 52t-164.5 144l-114 -566h-166l301 1500h115l-2 -170q93 91 212 142.5t251 51.5zM661 135q101 0 195 43t163 113.5t110.5 165.5t41.5 195q0 143 -90.5 231
t-242.5 88q-101 0 -195 -43t-162.5 -113.5t-109.5 -166.5t-41 -197q0 -142 89.5 -229t241.5 -87z" />
    <glyph glyph-name="q" unicode="q" horiz-adv-x="1419" 
d="M1237 1106h115l-301 -1500h-166l107 530q-184 -160 -430 -160q-214 0 -347.5 133.5t-133.5 341.5q0 134 53.5 259t144 217t216 147.5t263.5 55.5q137 0 242 -56.5t165 -156.5zM589 135q133 0 248.5 72t183 191.5t67.5 253.5q0 145 -90.5 232t-242.5 87q-134 0 -251.5 -73
t-185.5 -192t-68 -250q0 -143 93.5 -232t245.5 -89z" />
    <glyph glyph-name="r" unicode="r" horiz-adv-x="806" 
d="M793 1111h98l-32 -157h-112q-146 0 -247 -86.5t-139 -238.5l-126 -629h-166l221 1106h118l-9 -176q158 181 394 181z" />
    <glyph glyph-name="s" unicode="s" horiz-adv-x="1044" 
d="M417 -24q-174 0 -278 80t-104 217q0 37 5 63h163q-4 -24 -4 -35q0 -85 71.5 -129t173.5 -44q132 0 219 58t87 155q0 26 -9 46.5t-28.5 35.5t-40.5 26.5t-53.5 20.5t-59.5 14.5t-67 12.5q-44 8 -71 13.5t-67 16.5t-65.5 23t-54.5 31t-45.5 42t-27.5 55.5t-11 71.5
q0 174 134.5 277t339.5 103q163 0 263.5 -75.5t100.5 -202.5q0 -28 -6 -61h-157q4 26 4 36q0 77 -65 116.5t-163 39.5q-128 0 -207.5 -54t-79.5 -140q0 -28 14 -50t34 -35.5t57 -25t66 -17.5t78 -14q34 -6 56 -10t55 -11t54.5 -14.5t49.5 -19t46 -25t37.5 -32t30.5 -40
t18 -49.5t7 -60q0 -190 -141 -300t-359 -110z" />
    <glyph glyph-name="t" unicode="t" horiz-adv-x="788" 
d="M811 956h-351q-115 -579 -119 -608q-1 -13 -1 -25q0 -81 50.5 -125t142.5 -44h132l-31 -156h-142q-151 0 -237 77t-86 211q0 12 1 24t2.5 26.5t6.5 40.5t10.5 54t16 81t22 108t30 148t37.5 188h-194l8 30l403 351h27l-47 -231h350z" />
    <glyph glyph-name="u" unicode="u" horiz-adv-x="1292" 
d="M548 -24q-192 0 -304 104t-115 281q0 13 0.5 24t3 29.5t5 35t9 50.5t13 66t18.5 91t23.5 115t30.5 149.5t37 184.5h166q-17 -86 -34 -171l-28 -140t-21.5 -109.5t-17 -87t-13 -64.5t-9.5 -49.5t-5.5 -33.5t-3.5 -26.5t-1.5 -19t-0.5 -18.5q0 -119 69 -185.5t193 -66.5
q153 0 258 95t137 258l122 618h166l-131 -648q-45 -225 -194 -353.5t-373 -128.5z" />
    <glyph glyph-name="v" unicode="v" horiz-adv-x="1163" 
d="M1063 1106h177l-689 -1106h-151l-259 1106h166l203 -890z" />
    <glyph glyph-name="w" unicode="w" horiz-adv-x="1730" 
d="M1637 1106h168l-597 -1106h-135l-163 768l-471 -768h-137l-153 1106h164l115 -828l505 810h60l180 -818z" />
    <glyph glyph-name="x" unicode="x" horiz-adv-x="1044" 
d="M1111 1106l-485 -535l296 -571h-177l-230 450l-406 -450h-203l523 576l-267 530h177l205 -414l370 414h197z" />
    <glyph glyph-name="y" unicode="y" horiz-adv-x="1193" 
d="M1088 1106h184l-763 -1164q-128 -194 -231 -265t-260 -71h-108l30 150h80q113 0 177.5 45.5t160.5 186.5l66 96l-285 1022h173l230 -846z" />
    <glyph glyph-name="z" unicode="z" horiz-adv-x="978" 
d="M1021 1106l-5 -29l-774 -925h593l-30 -152h-864l5 25l777 931h-554l31 150h821z" />
    <glyph glyph-name="braceleft" unicode="{" horiz-adv-x="704" 
d="M676 1605h188l-29 -146h-122q-72 0 -121 -41t-63 -111l-89 -441q-13 -66 -56 -115t-99 -69q37 -21 59 -64.5t22 -96.5q0 -48 -48.5 -275t-48.5 -258q0 -54 32 -83.5t94 -29.5h125l-28 -147h-173q-94 0 -156.5 64t-62.5 157q0 41 53 296t53 279q0 41 -27 67t-70 26h-29
l27 139h29q50 0 91 34t51 84l97 482q23 109 107 179t194 70z" />
    <glyph glyph-name="bar" unicode="|" horiz-adv-x="550" 
d="M9 -389l422 2109h155l-422 -2109h-155z" />
    <glyph glyph-name="braceright" unicode="}" horiz-adv-x="702" 
d="M644 739h29l-27 -140h-29q-50 0 -91 -34t-51 -84l-102 -504q-23 -109 -106.5 -179t-193.5 -70h-189l29 147h123q72 0 121 41t63 111l93 463q13 66 57 117t100 70q-37 19 -60 62.5t-23 95.5q0 49 46.5 265t46.5 246q0 53 -33 83t-94 30h-124l29 146h172q94 0 156.5 -63.5
t62.5 -156.5q0 -37 -51 -283.5t-51 -270.5q0 -41 27 -66.5t70 -25.5z" />
    <glyph glyph-name="asciitilde" unicode="~" horiz-adv-x="1187" 
d="M798 485q-49 0 -93 19t-70.5 41t-63.5 60q-44 47 -76.5 69t-72.5 22q-57 0 -95.5 -52t-54.5 -152h-138q62 348 308 348q76 0 128 -32.5t106 -92.5q29 -31 45.5 -46t42 -28t52.5 -13q109 0 148 201h137q-33 -173 -107 -258.5t-196 -85.5z" />
    <glyph glyph-name="uni00A0" unicode="&#xa0;" horiz-adv-x="542" 
 />
    <glyph glyph-name="exclamdown" unicode="&#xa1;" horiz-adv-x="518" 
d="M467 1106l-41 -211h-192l41 211h192zM378 715l-217 -1084h-167l216 1084h168z" />
    <glyph glyph-name="cent" unicode="&#xa2;" horiz-adv-x="1224" 
d="M557 133q120 0 224.5 60t174.5 168h161q-73 -160 -212.5 -262t-308.5 -118l-32 -164h-134l32 166q-171 23 -276 144t-105 295q0 164 79.5 308.5t217.5 236.5t303 107l35 174h134l-36 -176q156 -21 254.5 -120t114.5 -251h-159q-27 104 -108.5 162.5t-199.5 58.5
q-127 0 -237.5 -70.5t-173.5 -183t-63 -234.5q0 -134 86.5 -217.5t228.5 -83.5z" />
    <glyph glyph-name="sterling" unicode="&#xa3;" horiz-adv-x="1210" 
d="M1156 978h-149q7 40 7 64q0 94 -58.5 149.5t-154.5 55.5q-116 0 -206.5 -80.5t-114.5 -198.5l-48 -244h378l-29 -136h-376l-89 -450h575l37 188h149l-65 -326h-1030l24 113l149 22l89 453h-124l29 136h122l54 271q37 183 174 294.5t323 111.5q156 0 249.5 -89.5
t93.5 -237.5q0 -45 -9 -96z" />
    <glyph glyph-name="currency" unicode="&#xa4;" horiz-adv-x="1220" 
d="M1011 861q45 -81 45 -178q0 -184 -134 -328l127 -162l-109 -96l-130 165q-123 -77 -263 -77q-137 0 -237 84l-200 -170l-82 98l202 171q-42 78 -42 171q0 191 142 338l-126 157l109 96l132 -162q120 71 253 71q132 0 230 -79l206 172l82 -98zM324 550q0 -98 68.5 -162.5
t173.5 -64.5q135 0 244 110t109 245q0 98 -66 160.5t-171 62.5q-136 0 -247 -108.5t-111 -242.5z" />
    <glyph glyph-name="yen" unicode="&#xa5;" horiz-adv-x="1302" 
d="M738 607l-9 -46h397l-22 -110h-397l-28 -138h397l-21 -108h-397l-41 -205h-164l41 205h-396l22 108h395l28 138h-396l22 110h396l9 48l-350 753h164l287 -620l539 620h181z" />
    <glyph glyph-name="brokenbar" unicode="&#xa6;" horiz-adv-x="550" 
d="M251 819l180 901h155l-180 -901h-155zM9 -389l184 921h156l-185 -921h-155z" />
    <glyph glyph-name="section" unicode="&#xa7;" horiz-adv-x="1044" 
d="M1010 1135h-139q16 97 -43 145.5t-165 48.5q-103 0 -172 -53.5t-69 -141.5q0 -63 55 -98t161 -64q56 -16 92.5 -28.5t85.5 -37t78 -52.5t50 -71.5t21 -97.5q0 -211 -230 -321q79 -65 79 -170q0 -157 -113.5 -245t-296.5 -88q-152 0 -244.5 68.5t-92.5 192.5q0 31 6 64
h140q-15 -99 43.5 -146.5t166.5 -47.5q109 0 180.5 52t71.5 137q0 34 -16 60t-50.5 45.5t-69 31.5t-89.5 27q-51 13 -92 27.5t-87 40t-76.5 55.5t-51 75t-20.5 99q0 119 62.5 194.5t177.5 122.5q-81 63 -81 166q0 156 111 245t289 89q152 0 243 -70.5t91 -189.5
q0 -31 -6 -64zM820 665q0 18 -4 34t-9 28.5t-17.5 25.5t-20.5 21t-27.5 18.5t-29 15.5t-34.5 14.5t-35 13t-39 13.5t-39 13q-43 15 -81 30q-102 -30 -160 -93t-58 -144q0 -34 15 -62t34 -45.5t58 -35t65.5 -26t77.5 -23.5q63 -18 98 -32q96 30 151 90.5t55 143.5z" />
    <glyph glyph-name="dieresis" unicode="&#xa8;" horiz-adv-x="1228" 
d="M123 1302l39 193h192l-39 -193h-192zM522 1302l39 193h192l-39 -193h-192z" />
    <glyph glyph-name="copyright" unicode="&#xa9;" horiz-adv-x="1720" 
d="M754 -22q-288 0 -461.5 162.5t-173.5 424.5q0 121 32.5 236t91.5 212t143 179t184.5 139t219 89t243.5 32q287 0 461 -162t174 -424q0 -181 -72 -345.5t-194.5 -283.5t-291.5 -189t-356 -70zM768 84q163 0 310 62t252 166.5t166.5 247t61.5 297.5q0 222 -145 355.5
t-390 133.5q-162 0 -309.5 -62t-253 -166t-168 -246t-62.5 -296q0 -223 146 -357.5t392 -134.5zM823 343q-140 0 -227 85.5t-87 217.5q0 119 60.5 222t165.5 164t228 61q125 0 210.5 -73.5t89.5 -182.5h-111q-18 70 -72 108.5t-133 38.5q-134 0 -229.5 -98.5t-95.5 -225.5
q0 -91 60 -148.5t159 -57.5q80 0 147.5 38.5t112.5 109.5h116q-57 -119 -162 -189t-232 -70z" />
    <glyph glyph-name="ordfeminine" unicode="&#xaa;" horiz-adv-x="950" 
d="M875 1446h101l-137 -683h-104l6 100q-120 -110 -273 -110q-122 0 -200.5 84.5t-78.5 206.5q0 169 123 290.5t287 121.5q77 0 138 -31.5t99 -86.5zM502 874q112 0 195.5 83t83.5 200q0 80 -49.5 130t-132.5 50q-112 0 -195.5 -83.5t-83.5 -197.5q0 -81 49.5 -131.5
t132.5 -50.5z" />
    <glyph glyph-name="guillemotleft" unicode="&#xab;" horiz-adv-x="1218" 
d="M718 973l-455 -434l272 -419h-184l-273 420l6 31l419 402h215zM1204 973l-455 -434l272 -419h-184l-273 420l6 31l418 402h216z" />
    <glyph glyph-name="logicalnot" unicode="&#xac;" horiz-adv-x="1191" 
d="M161 815h929l-113 -561h-164l82 409h-766z" />
    <glyph glyph-name="registered" unicode="&#xae;" horiz-adv-x="964" 
d="M648 1454q141 0 233 -91t92 -228q0 -116 -63 -221.5t-170.5 -170t-228.5 -64.5q-140 0 -232.5 92.5t-92.5 228.5q0 119 64 224t171 167.5t227 62.5zM517 751q100 0 190 54.5t143 142t53 182.5q0 108 -73 180t-187 72q-152 0 -269.5 -115t-117.5 -265q0 -109 73 -180
t188 -71zM648 1273q49 0 80 -33.5t31 -81.5q0 -51 -29 -86t-77 -48l60 -153h-76l-56 147h-72l-30 -147h-72l81 402h160zM608 1083q35 0 58.5 20.5t23.5 52.5q0 23 -14.5 36.5t-41.5 13.5h-87l-25 -123h86z" />
    <glyph glyph-name="macron" unicode="&#xaf;" horiz-adv-x="1038" 
d="M355 1332l27 133h641l-27 -133h-641z" />
    <glyph glyph-name="degree" unicode="&#xb0;" horiz-adv-x="761" 
d="M485 1124q-108 0 -177 70t-69 175q0 145 111 248t255 103q109 0 180 -71t71 -176q0 -93 -53.5 -174t-139 -128t-178.5 -47zM508 1233q91 0 163 68t72 158q0 66 -44.5 109t-113.5 43q-93 0 -163 -68.5t-70 -159.5q0 -66 43 -108t113 -42z" />
    <glyph glyph-name="plusminus" unicode="&#xb1;" horiz-adv-x="1234" 
d="M773 936h409l-30 -150h-410l-77 -381h-162l77 381h-410l31 150h409l77 383h163zM29 46l30 153h983l-30 -153h-983z" />
    <glyph glyph-name="acute" unicode="&#xb4;" horiz-adv-x="901" 
d="M342 1236l201 312h177l-247 -312h-131z" />
    <glyph glyph-name="paragraph" unicode="&#xb6;" horiz-adv-x="1255" 
d="M1351 1434l-31 -143h-188l-282 -1417h-150l282 1417h-253l-283 -1417h-150l147 738q-137 16 -216.5 100t-79.5 214q0 138 71 255t194 185t269 68h670z" />
    <glyph glyph-name="periodcentered" unicode="&#xb7;" horiz-adv-x="479" 
d="M144 559l42 211h192l-42 -211h-192z" />
    <glyph glyph-name="cedilla" unicode="&#xb8;" horiz-adv-x="796" 
d="M265 -90q73 -10 116 -55.5t43 -108.5q0 -100 -74.5 -160t-191.5 -60h-156l18 100h130q63 0 104.5 34t41.5 84q0 36 -27.5 57.5t-75.5 21.5h-59l-15 18l99 214h117z" />
    <glyph glyph-name="ordmasculine" unicode="&#xba;" horiz-adv-x="897" 
d="M490 754q-133 0 -217.5 80t-84.5 202q0 172 126.5 295t302.5 123q133 0 216 -80t83 -204q0 -172 -125.5 -294t-300.5 -122zM507 876q116 0 198 81t82 198q0 80 -51 128.5t-136 48.5q-115 0 -198 -81.5t-83 -197.5q0 -80 51 -128.5t137 -48.5z" />
    <glyph glyph-name="guillemotright" unicode="&#xbb;" horiz-adv-x="1218" 
d="M653 553l-5 -31l-418 -402h-223l463 443l-267 410h178zM866 973l273 -420l-6 -31l-418 -402h-222l463 443l-267 410h177z" />
    <glyph glyph-name="onequarter" unicode="&#xbc;" horiz-adv-x="1730" 
d="M1258 1495h135l-1139 -1556h-135zM347 660h-134l131 657h-129l23 117h264zM1617 268l-23 -112h-75l-31 -156h-127l32 156h-383l6 26l380 591h139l-329 -505h212l63 213h103l-43 -213h76z" />
    <glyph glyph-name="onehalf" unicode="&#xbd;" horiz-adv-x="1685" 
d="M1254 1495h135l-1139 -1556h-135zM344 660h-134l131 657h-130l24 117h263zM1594 586q0 -32 -10 -64.5t-22.5 -60t-42.5 -64.5t-50.5 -61.5t-67 -68.5t-72 -67.5t-84.5 -76.5h282l-27 -123h-528l5 32q28 26 83 75q75 67 111 100.5t93 87.5t84.5 86t58.5 71.5t43 70
t12 57.5q0 41 -25.5 64.5t-67.5 23.5q-115 0 -145 -133h-130q53 253 290 253q94 0 152 -57t58 -145z" />
    <glyph glyph-name="threequarters" unicode="&#xbe;" horiz-adv-x="1990" 
d="M1519 1495h135l-1139 -1556h-135zM672 938q0 -125 -86 -208.5t-219 -83.5q-113 0 -177.5 67.5t-50.5 180.5h129q-10 -53 20 -89t86 -36q72 0 120.5 51t48.5 117q0 48 -34 77t-90 29h-102l5 26l207 248h-284l24 117h478l-6 -29l-226 -261q71 -18 114 -74.5t43 -131.5z
M1878 268l-24 -112h-74l-31 -156h-127l32 156h-383l6 26l380 591h139l-329 -505h212l63 213h103l-43 -213h76z" />
    <glyph glyph-name="questiondown" unicode="&#xbf;" horiz-adv-x="1024" 
d="M508 895l41 211h193l-42 -211h-192zM337 -418q-166 0 -271.5 92t-105.5 248q0 68 17 128t43.5 104.5t71 89t86 76t101.5 71.5q109 73 149 135t61 181h166q-28 -154 -81.5 -235.5t-181.5 -169.5q-51 -34 -78 -54t-69.5 -58.5t-65 -71.5t-40 -81.5t-17.5 -100.5
q0 -93 64 -146t173 -53q120 0 215.5 68.5t127.5 183.5h157q-32 -128 -111.5 -221.5t-185 -139.5t-225.5 -46z" />
    <glyph glyph-name="Agrave" unicode="&#xc0;" horiz-adv-x="1425" 
d="M953 1595h-131l-140 291h177zM1104 0l-76 349h-695l-212 -349h-191l875 1434h159l318 -1434h-178zM842 1201l-419 -700h570z" />
    <glyph glyph-name="Aacute" unicode="&#xc1;" horiz-adv-x="1425" 
d="M1202 1886l-255 -291h-131l208 291h178zM1104 0l-76 349h-695l-212 -349h-191l875 1434h159l318 -1434h-178zM842 1201l-419 -700h570z" />
    <glyph glyph-name="Acircumflex" unicode="&#xc2;" horiz-adv-x="1425" 
d="M935 1792l-227 -197h-161l300 291h189l185 -291h-134zM1104 0l-76 349h-695l-212 -349h-191l875 1434h159l318 -1434h-178zM842 1201l-419 -700h570z" />
    <glyph glyph-name="Atilde" unicode="&#xc3;" horiz-adv-x="1425" 
d="M775 1766q-46 0 -79 -39.5t-48 -117.5h-108q56 275 256 275q60 0 95 -23.5t71 -70.5q28 -37 52 -54.5t60 -17.5q93 0 124 153h110q-26 -134 -92.5 -202.5t-160.5 -68.5q-58 0 -96 24t-77 71q-30 36 -53.5 53.5t-53.5 17.5zM805 1434h159l318 -1434h-178l-76 349h-695
l-212 -349h-191zM842 1201l-419 -700h570z" />
    <glyph glyph-name="Adieresis" unicode="&#xc4;" horiz-adv-x="1425" 
d="M819 1829l-38 -193h-192l37 193h193zM1261 1829l-37 -193h-193l38 193h192zM1104 0l-76 349h-695l-212 -349h-191l875 1434h159l318 -1434h-178zM842 1201l-419 -700h570z" />
    <glyph glyph-name="Aring" unicode="&#xc5;" horiz-adv-x="1425" 
d="M902 1560q-90 0 -145 53.5t-55 137.5q0 119 80.5 195.5t201.5 76.5q92 0 147.5 -54t55.5 -138q0 -116 -83 -193.5t-202 -77.5zM969 1924q-69 0 -117 -46t-48 -116q0 -47 30.5 -74.5t82.5 -27.5q69 0 118 46.5t49 115.5q0 47 -31.5 74.5t-83.5 27.5zM1104 0l-76 349h-695
l-212 -349h-191l875 1434h159l318 -1434h-178zM842 1201l-419 -700h570z" />
    <glyph glyph-name="AE" unicode="&#xc6;" horiz-adv-x="1832" 
d="M1858 1275h-637l-93 -461h586l-33 -156h-584l-99 -497h660l-32 -161h-832l65 322h-526l-257 -322h-207l1148 1434h873zM454 474h435l146 728z" />
    <glyph glyph-name="Ccedilla" unicode="&#xc7;" horiz-adv-x="1587" 
d="M739 144q188 0 346.5 95t243.5 263h182q-103 -242 -301.5 -378.5t-447.5 -145.5l-33 -68q71 -10 112.5 -51t41.5 -102q0 -98 -84.5 -164.5t-203.5 -66.5h-138l20 102h136q57 0 96.5 32.5t39.5 80.5q0 34 -27 55.5t-73 21.5h-51l-16 25l63 139q-243 24 -385 181.5
t-142 397.5q0 179 70 344t189 286t284 193t346 72q241 0 402 -137t180 -366h-171q-26 160 -136 248.5t-287 88.5q-142 0 -273 -58t-225 -155t-150 -228.5t-56 -273.5q0 -200 118.5 -315.5t329.5 -115.5z" />
    <glyph glyph-name="Egrave" unicode="&#xc8;" horiz-adv-x="1126" 
d="M860 1595h-131l-140 291h177zM1150 1273h-637l-91 -458h585l-32 -155h-585l-99 -498h660l-33 -162h-831l287 1434h809z" />
    <glyph glyph-name="Eacute" unicode="&#xc9;" horiz-adv-x="1126" 
d="M1109 1886l-255 -291h-132l209 291h178zM1150 1273h-637l-91 -458h585l-32 -155h-585l-99 -498h660l-33 -162h-831l287 1434h809z" />
    <glyph glyph-name="Ecircumflex" unicode="&#xca;" horiz-adv-x="1126" 
d="M842 1792l-228 -197h-160l300 291h188l186 -291h-134zM1150 1273h-637l-91 -458h585l-32 -155h-585l-99 -498h660l-33 -162h-831l287 1434h809z" />
    <glyph glyph-name="Edieresis" unicode="&#xcb;" horiz-adv-x="1126" 
d="M725 1829l-37 -193h-192l37 193h192zM1168 1829l-38 -193h-192l38 193h192zM1150 1273h-637l-91 -458h585l-32 -155h-585l-99 -498h660l-33 -162h-831l287 1434h809z" />
    <glyph glyph-name="Igrave" unicode="&#xcc;" horiz-adv-x="567" 
d="M545 1595h-133l-81 291h173zM87 0l287 1434h171l-287 -1434h-171z" />
    <glyph glyph-name="Iacute" unicode="&#xcd;" horiz-adv-x="567" 
d="M405 1595l161 291h170l-204 -291h-127zM87 0l287 1434h171l-287 -1434h-171z" />
    <glyph glyph-name="Icircumflex" unicode="&#xce;" horiz-adv-x="567" 
d="M621 1886l154 -291h-129l-119 194l-194 -194h-150l269 291h169zM87 0l287 1434h171l-287 -1434h-171z" />
    <glyph glyph-name="Idieresis" unicode="&#xcf;" horiz-adv-x="567" 
d="M273 1634l36 176h183l-36 -176h-183zM543 1634l36 176h184l-36 -176h-184zM87 0l287 1434h171l-287 -1434h-171z" />
    <glyph glyph-name="Eth" unicode="&#xd0;" horiz-adv-x="1540" 
d="M878 1434q276 0 443.5 -161t167.5 -418q0 -138 -43.5 -267.5t-124 -235t-187 -185t-239.5 -123.5t-275 -44h-488l129 649h-211l28 139h211l129 646h460zM625 157q186 0 345.5 96t252.5 257t93 344q0 193 -120.5 308.5t-329.5 115.5h-307l-98 -490h416l-29 -139h-415
l-99 -492h291z" />
    <glyph glyph-name="Ntilde" unicode="&#xd1;" horiz-adv-x="1533" 
d="M858 1766q-46 0 -79 -39.5t-48 -117.5h-107q56 275 256 275q60 0 95 -23.5t71 -70.5q28 -37 52 -54.5t60 -17.5q93 0 124 153h109q-26 -134 -92.5 -202.5t-160.5 -68.5q-58 0 -96 24t-77 71q-30 36 -53.5 53.5t-53.5 17.5zM1340 1434h173l-287 -1434h-141l-599 1131
l-226 -1131h-173l287 1434h151l591 -1120z" />
    <glyph glyph-name="Ograve" unicode="&#xd2;" horiz-adv-x="1697" 
d="M982 1595l-140 291h177l94 -291h-131zM748 -24q-187 0 -330.5 80t-220 218.5t-76.5 314.5t68.5 336t186 277.5t284.5 186.5t355 69q187 0 330.5 -80t220 -218.5t76.5 -314.5t-68 -336t-186 -277.5t-285 -186.5t-355 -69zM775 142q147 0 277 56t220.5 150t143.5 220.5
t53 263.5q0 204 -132 332t-349 128q-146 0 -276.5 -56.5t-221 -150.5t-143.5 -219.5t-53 -261.5q0 -206 132 -334t349 -128z" />
    <glyph glyph-name="Oacute" unicode="&#xd3;" horiz-adv-x="1697" 
d="M975 1595l209 291h178l-255 -291h-132zM748 -24q-187 0 -330.5 80t-220 218.5t-76.5 314.5t68.5 336t186 277.5t284.5 186.5t355 69q187 0 330.5 -80t220 -218.5t76.5 -314.5t-68 -336t-186 -277.5t-285 -186.5t-355 -69zM775 142q147 0 277 56t220.5 150t143.5 220.5
t53 263.5q0 204 -132 332t-349 128q-146 0 -276.5 -56.5t-221 -150.5t-143.5 -219.5t-53 -261.5q0 -206 132 -334t349 -128z" />
    <glyph glyph-name="Ocircumflex" unicode="&#xd4;" horiz-adv-x="1697" 
d="M1095 1792l-228 -197h-160l300 291h188l186 -291h-135zM1015 1458q187 0 330.5 -80t220 -218.5t76.5 -314.5t-68 -336t-186 -277.5t-285 -186.5t-355 -69q-187 0 -330.5 80t-220 218.5t-76.5 314.5t68.5 336t186 277.5t284.5 186.5t355 69zM775 142q147 0 277 56
t220.5 150t143.5 220.5t53 263.5q0 204 -132 332t-349 128q-146 0 -276.5 -56.5t-221 -150.5t-143.5 -219.5t-53 -261.5q0 -206 132 -334t349 -128z" />
    <glyph glyph-name="Otilde" unicode="&#xd5;" horiz-adv-x="1697" 
d="M1214 1600q-58 0 -96 24t-77 71q-30 37 -53 54t-53 17q-46 0 -79 -39.5t-48 -117.5h-108q56 275 256 275q60 0 95 -23.5t71 -70.5q28 -37 52 -54.5t60 -17.5q93 0 124 153h110q-26 -134 -93 -202.5t-161 -68.5zM748 -24q-187 0 -330.5 80t-220 218.5t-76.5 314.5
t68.5 336t186 277.5t284.5 186.5t355 69q187 0 330.5 -80t220 -218.5t76.5 -314.5t-68 -336t-186 -277.5t-285 -186.5t-355 -69zM775 142q147 0 277 56t220.5 150t143.5 220.5t53 263.5q0 204 -132 332t-349 128q-146 0 -276.5 -56.5t-221 -150.5t-143.5 -219.5t-53 -261.5
q0 -206 132 -334t349 -128z" />
    <glyph glyph-name="Odieresis" unicode="&#xd6;" horiz-adv-x="1697" 
d="M749 1636l37 193h192l-37 -193h-192zM1191 1636l38 193h192l-38 -193h-192zM748 -24q-187 0 -330.5 80t-220 218.5t-76.5 314.5t68.5 336t186 277.5t284.5 186.5t355 69q187 0 330.5 -80t220 -218.5t76.5 -314.5t-68 -336t-186 -277.5t-285 -186.5t-355 -69zM775 142
q147 0 277 56t220.5 150t143.5 220.5t53 263.5q0 204 -132 332t-349 128q-146 0 -276.5 -56.5t-221 -150.5t-143.5 -219.5t-53 -261.5q0 -206 132 -334t349 -128z" />
    <glyph glyph-name="multiply" unicode="&#xd7;" horiz-adv-x="1040" 
d="M1021 997l-364 -308l242 -306l-119 -99l-242 305l-361 -305l-100 119l365 308l-243 306l123 96l239 -302l357 302z" />
    <glyph glyph-name="Oslash" unicode="&#xd8;" horiz-adv-x="1712" 
d="M1460 1304q95 -79 146.5 -197t51.5 -259q0 -175 -71 -336t-190 -278.5t-284.5 -187.5t-346.5 -70q-176 0 -316 66l-135 -169h-186l199 244q-101 80 -155 199.5t-54 263.5q0 233 120.5 435t327 321.5t446.5 119.5q180 0 326 -72l142 177h186zM995 1290q-186 0 -348.5 -97
t-258.5 -258t-96 -343q0 -211 151 -335l787 985q-104 48 -235 48zM780 142q141 0 272.5 58t225.5 153t150.5 223t56.5 262q0 200 -140 326l-783 -980q102 -41 218 -42z" />
    <glyph glyph-name="Ugrave" unicode="&#xd9;" horiz-adv-x="1480" 
d="M852 1595l-140 291h177l94 -291h-131zM640 -24q-211 0 -343.5 124t-132.5 321q0 16 0.5 29.5t3.5 36.5t7 44.5t12.5 65.5t17 87.5t25 123t32.5 159t42.5 208.5t52.5 259h173q-25 -128 -50 -252.5t-41 -204.5t-31.5 -158t-24.5 -123t-17 -88t-12 -65t-7 -43t-4 -32.5
t-1 -22.5q0 -140 82.5 -221.5t227.5 -81.5q175 0 308 111.5t168 290.5l177 890h173l-185 -910q-47 -245 -227.5 -396.5t-425.5 -151.5z" />
    <glyph glyph-name="Uacute" unicode="&#xda;" horiz-adv-x="1480" 
d="M846 1595l208 291h178l-255 -291h-131zM640 -24q-211 0 -343.5 124t-132.5 321q0 16 0.5 29.5t3.5 36.5t7 44.5t12.5 65.5t17 87.5t25 123t32.5 159t42.5 208.5t52.5 259h173q-25 -128 -50 -252.5t-41 -204.5t-31.5 -158t-24.5 -123t-17 -88t-12 -65t-7 -43t-4 -32.5
t-1 -22.5q0 -140 82.5 -221.5t227.5 -81.5q175 0 308 111.5t168 290.5l177 890h173l-185 -910q-47 -245 -227.5 -396.5t-425.5 -151.5z" />
    <glyph glyph-name="Ucircumflex" unicode="&#xdb;" horiz-adv-x="1480" 
d="M965 1792l-227 -197h-161l300 291h189l185 -291h-134zM1305 1434h173l-185 -910q-47 -245 -227.5 -396.5t-425.5 -151.5q-211 0 -343.5 124t-132.5 321q0 16 0.5 29.5t3.5 36.5t7 44.5t12.5 65.5t17 87.5t25 123t32.5 159t42.5 208.5t52.5 259h173q-25 -128 -50 -252.5
t-41 -204.5t-31.5 -158t-24.5 -123t-17 -88t-12 -65t-7 -43t-4 -32.5t-1 -22.5q0 -140 82.5 -221.5t227.5 -81.5q175 0 308 111.5t168 290.5z" />
    <glyph glyph-name="Udieresis" unicode="&#xdc;" horiz-adv-x="1480" 
d="M619 1636l37 193h193l-38 -193h-192zM1061 1636l38 193h192l-37 -193h-193zM640 -24q-211 0 -343.5 124t-132.5 321q0 16 0.5 29.5t3.5 36.5t7 44.5t12.5 65.5t17 87.5t25 123t32.5 159t42.5 208.5t52.5 259h173q-25 -128 -50 -252.5t-41 -204.5t-31.5 -158t-24.5 -123
t-17 -88t-12 -65t-7 -43t-4 -32.5t-1 -22.5q0 -140 82.5 -221.5t227.5 -81.5q175 0 308 111.5t168 290.5l177 890h173l-185 -910q-47 -245 -227.5 -396.5t-425.5 -151.5z" />
    <glyph glyph-name="Yacute" unicode="&#xdd;" horiz-adv-x="1339" 
d="M1163 1886l-254 -291h-132l209 291h177zM1465 1434l-703 -863l-115 -571h-176l114 571l-354 863h177l287 -701l572 701h198z" />
    <glyph glyph-name="Thorn" unicode="&#xde;" horiz-adv-x="1271" 
d="M819 1176q181 0 292.5 -106.5t111.5 -273.5q0 -151 -72.5 -274.5t-200 -193.5t-285.5 -70h-355l-52 -258h-171l287 1434h171l-51 -258h325zM676 417q157 0 265.5 108.5t108.5 258.5q0 105 -70 169t-186 64h-332l-120 -600h334z" />
    <glyph glyph-name="germandbls" unicode="&#xdf;" horiz-adv-x="1249" 
d="M977 777q78 -35 120 -106t42 -166q0 -227 -163 -366.5t-412 -139.5h-149l32 158h148q163 0 273.5 95.5t110.5 238.5q0 97 -69.5 155t-187.5 58h-147l30 155h128q135 0 233 90.5t98 213.5q0 94 -66 150t-179 56q-149 0 -248.5 -91t-132.5 -257l-203 -1021h-166l207 1039
q48 238 193 362.5t373 124.5q169 0 272.5 -97.5t103.5 -246.5q0 -121 -67.5 -234t-173.5 -171z" />
    <glyph glyph-name="agrave" unicode="&#xe0;" horiz-adv-x="1429" 
d="M869 1236h-131l-124 312h177zM1230 1106h133l-222 -1106h-137l15 161q-92 -87 -211 -136t-251 -49q-214 0 -346 132.5t-132 340.5q0 135 54 260t145 217.5t217.5 148t264.5 55.5q139 0 244 -56.5t165 -158.5zM587 135q100 0 193.5 43t161.5 113.5t108.5 165.5t40.5 195
q0 144 -92 231.5t-246 87.5q-133 0 -250 -72t-186 -191t-69 -252q0 -144 93 -232.5t246 -88.5z" />
    <glyph glyph-name="aacute" unicode="&#xe1;" horiz-adv-x="1429" 
d="M1104 1548l-247 -312h-131l201 312h177zM1230 1106h133l-222 -1106h-137l15 161q-92 -87 -211 -136t-251 -49q-214 0 -346 132.5t-132 340.5q0 135 54 260t145 217.5t217.5 148t264.5 55.5q139 0 244 -56.5t165 -158.5zM587 135q100 0 193.5 43t161.5 113.5t108.5 165.5
t40.5 195q0 144 -92 231.5t-246 87.5q-133 0 -250 -72t-186 -191t-69 -252q0 -144 93 -232.5t246 -88.5z" />
    <glyph glyph-name="acircumflex" unicode="&#xe2;" horiz-adv-x="1429" 
d="M863 1446l-231 -210h-159l305 312h188l183 -312h-136zM1230 1106h133l-222 -1106h-137l15 161q-92 -87 -211 -136t-251 -49q-214 0 -346 132.5t-132 340.5q0 135 54 260t145 217.5t217.5 148t264.5 55.5q139 0 244 -56.5t165 -158.5zM587 135q100 0 193.5 43t161.5 113.5
t108.5 165.5t40.5 195q0 144 -92 231.5t-246 87.5q-133 0 -250 -72t-186 -191t-69 -252q0 -144 93 -232.5t246 -88.5z" />
    <glyph glyph-name="atilde" unicode="&#xe3;" horiz-adv-x="1429" 
d="M703 1411q-95 0 -122 -151h-107q53 271 250 271q42 0 75 -14.5t50 -31t40 -47.5q28 -35 50.5 -51.5t57.5 -16.5q95 0 120 147h108q-26 -132 -90 -199t-158 -67q-44 0 -80 15.5t-53.5 32t-42.5 46.5q-26 34 -47 50t-51 16zM1230 1106h133l-222 -1106h-137l15 161
q-92 -87 -211 -136t-251 -49q-214 0 -346 132.5t-132 340.5q0 135 54 260t145 217.5t217.5 148t264.5 55.5q139 0 244 -56.5t165 -158.5zM587 135q100 0 193.5 43t161.5 113.5t108.5 165.5t40.5 195q0 144 -92 231.5t-246 87.5q-133 0 -250 -72t-186 -191t-69 -252
q0 -144 93 -232.5t246 -88.5z" />
    <glyph glyph-name="adieresis" unicode="&#xe4;" horiz-adv-x="1429" 
d="M764 1495l-39 -193h-192l39 193h192zM1163 1495l-39 -193h-192l39 193h192zM1230 1106h133l-222 -1106h-137l15 161q-92 -87 -211 -136t-251 -49q-214 0 -346 132.5t-132 340.5q0 135 54 260t145 217.5t217.5 148t264.5 55.5q139 0 244 -56.5t165 -158.5zM587 135
q100 0 193.5 43t161.5 113.5t108.5 165.5t40.5 195q0 144 -92 231.5t-246 87.5q-133 0 -250 -72t-186 -191t-69 -252q0 -144 93 -232.5t246 -88.5z" />
    <glyph glyph-name="aring" unicode="&#xe5;" horiz-adv-x="1429" 
d="M824 1208q-85 0 -137 51t-52 129q0 112 76.5 184.5t190.5 72.5q86 0 138 -51t52 -131q0 -109 -77.5 -182t-190.5 -73zM887 1552q-65 0 -110 -43.5t-45 -110.5q0 -44 28.5 -69.5t77.5 -25.5q66 0 111.5 43.5t45.5 108.5q0 45 -29.5 71t-78.5 26zM1230 1106h133l-222 -1106
h-137l15 161q-92 -87 -211 -136t-251 -49q-214 0 -346 132.5t-132 340.5q0 135 54 260t145 217.5t217.5 148t264.5 55.5q139 0 244 -56.5t165 -158.5zM587 135q100 0 193.5 43t161.5 113.5t108.5 165.5t40.5 195q0 144 -92 231.5t-246 87.5q-133 0 -250 -72t-186 -191
t-69 -252q0 -144 93 -232.5t246 -88.5z" />
    <glyph glyph-name="ae" unicode="&#xe6;" horiz-adv-x="2271" 
d="M2174 489h-951q-2 -32 -2 -47q0 -143 85.5 -225t235.5 -82q119 0 222.5 52.5t172.5 147.5h185q-107 -172 -259 -265.5t-332 -93.5q-124 0 -223 52.5t-158 146.5l-40 -175h-126l21 150q-193 -174 -451 -174q-211 0 -343 130.5t-132 333.5q0 182 92 341t251 254t345 95
q129 0 229.5 -49.5t161.5 -139.5l39 165h125l-22 -153q89 84 201 130.5t235 46.5q212 0 337.5 -129.5t125.5 -333.5q0 -91 -25 -178zM1724 975q-157 0 -282.5 -93t-182.5 -239h783v11q0 149 -84.5 235t-233.5 86zM589 135q134 0 251.5 72t186 191.5t68.5 253.5
q0 145 -92.5 232t-247.5 87q-134 0 -251.5 -72t-186.5 -191t-69 -252q0 -144 93.5 -232.5t247.5 -88.5z" />
    <glyph glyph-name="ccedilla" unicode="&#xe7;" horiz-adv-x="1263" 
d="M574 135q127 0 237.5 63t183.5 177h173q-81 -177 -238 -284.5t-347 -114.5l-31 -66q73 -10 116 -55.5t43 -108.5q0 -100 -74.5 -160t-191.5 -60h-157l18 100h131q63 0 104 34t41 84q0 36 -27.5 57.5t-74.5 21.5h-59l-15 18l65 142q-178 28 -284 155.5t-106 311.5
q0 135 54.5 260t146 217t218 147.5t264.5 55.5q195 0 320.5 -106.5t145.5 -286.5h-162q-29 110 -112 172t-206 62q-131 0 -247 -73t-184.5 -193t-68.5 -252q0 -142 89 -230t235 -88z" />
    <glyph glyph-name="egrave" unicode="&#xe8;" horiz-adv-x="1290" 
d="M829 1236h-131l-124 312h176zM1193 489h-951q0 -5 -1 -14.5t-1.5 -17.5t-0.5 -15q0 -143 86 -225t236 -82q120 0 223.5 52.5t171.5 147.5h186q-103 -172 -254 -265.5t-332 -93.5q-211 0 -343 133t-132 340q0 178 89 335t244 251.5t336 94.5q214 0 340 -132.5t126 -342.5
q0 -81 -23 -166zM743 975q-157 0 -282.5 -93t-182.5 -239h783v11q0 149 -84.5 235t-233.5 86z" />
    <glyph glyph-name="eacute" unicode="&#xe9;" horiz-adv-x="1290" 
d="M1064 1548l-247 -312h-131l201 312h177zM1193 489h-951q0 -5 -1 -14.5t-1.5 -17.5t-0.5 -15q0 -143 86 -225t236 -82q120 0 223.5 52.5t171.5 147.5h186q-103 -172 -254 -265.5t-332 -93.5q-211 0 -343 133t-132 340q0 178 89 335t244 251.5t336 94.5q214 0 340 -132.5
t126 -342.5q0 -81 -23 -166zM743 975q-157 0 -282.5 -93t-182.5 -239h783v11q0 149 -84.5 235t-233.5 86z" />
    <glyph glyph-name="ecircumflex" unicode="&#xea;" horiz-adv-x="1290" 
d="M823 1446l-231 -210h-159l305 312h188l183 -312h-136zM1193 489h-951q0 -5 -1 -14.5t-1.5 -17.5t-0.5 -15q0 -143 86 -225t236 -82q120 0 223.5 52.5t171.5 147.5h186q-103 -172 -254 -265.5t-332 -93.5q-211 0 -343 133t-132 340q0 178 89 335t244 251.5t336 94.5
q214 0 340 -132.5t126 -342.5q0 -81 -23 -166zM743 975q-157 0 -282.5 -93t-182.5 -239h783v11q0 149 -84.5 235t-233.5 86z" />
    <glyph glyph-name="edieresis" unicode="&#xeb;" horiz-adv-x="1290" 
d="M724 1495l-39 -193h-192l39 193h192zM1123 1495l-39 -193h-192l39 193h192zM1193 489h-951q0 -5 -1 -14.5t-1.5 -17.5t-0.5 -15q0 -143 86 -225t236 -82q120 0 223.5 52.5t171.5 147.5h186q-103 -172 -254 -265.5t-332 -93.5q-211 0 -343 133t-132 340q0 178 89 335
t244 251.5t336 94.5q214 0 340 -132.5t126 -342.5q0 -81 -23 -166zM743 975q-157 0 -282.5 -93t-182.5 -239h783v11q0 149 -84.5 235t-233.5 86z" />
    <glyph glyph-name="igrave" unicode="&#xec;" horiz-adv-x="522" 
d="M464 1236h-133l-81 312h174zM69 0l221 1106h166l-221 -1106h-166z" />
    <glyph glyph-name="iacute" unicode="&#xed;" horiz-adv-x="522" 
d="M326 1236l164 312h173l-204 -312h-133zM69 0l221 1106h166l-221 -1106h-166z" />
    <glyph glyph-name="icircumflex" unicode="&#xee;" horiz-adv-x="522" 
d="M686 1236h-126l-128 209l-188 -209h-153l275 312h169zM69 0l221 1106h166l-221 -1106h-166z" />
    <glyph glyph-name="idieresis" unicode="&#xef;" horiz-adv-x="522" 
d="M133 1302l39 193h183l-39 -193h-183zM517 1302l39 193h184l-40 -193h-183zM69 0l221 1106h166l-221 -1106h-166z" />
    <glyph glyph-name="eth" unicode="&#xf0;" horiz-adv-x="1310" 
d="M970 1432q127 -98 193.5 -247.5t66.5 -335.5q0 -177 -37 -321q-60 -252 -229 -401t-425 -149q-211 0 -337.5 123.5t-126.5 319.5q0 171 83 316t229 230t322 85q113 0 211 -41.5t159 -116.5q-1 139 -61.5 252.5t-169.5 188.5l-281 -224l-73 90l244 194q-138 59 -306 59
l27 134q231 0 408 -91l187 149l71 -90zM548 131q127 0 240.5 67.5t181 179t67.5 235.5q0 133 -88.5 215t-232.5 82q-96 0 -185.5 -40t-154.5 -106t-103.5 -155t-38.5 -184q0 -132 85 -213t229 -81z" />
    <glyph glyph-name="ntilde" unicode="&#xf1;" horiz-adv-x="1314" 
d="M688 1411q-94 0 -121 -151h-108q27 136 91 203.5t160 67.5q42 0 74.5 -14.5t49 -31t40.5 -47.5q28 -35 51 -51.5t58 -16.5q95 0 120 147h108q-26 -132 -90 -199t-158 -67q-44 0 -80 15.5t-53.5 32t-42.5 46.5q-25 34 -47 50t-52 16zM831 1130q168 0 263 -95t95 -259
q0 -16 -0.5 -28.5t-3 -32.5t-5 -36.5t-9 -52.5t-12.5 -67t-18.5 -93.5t-24 -118.5t-31.5 -155t-39 -192h-166q127 628 134 676q5 36 5 65q0 235 -244 235q-144 0 -263 -103t-154 -256l-123 -617h-166l221 1106h118l-3 -169q78 92 188 142.5t238 50.5z" />
    <glyph glyph-name="ograve" unicode="&#xf2;" horiz-adv-x="1343" 
d="M852 1236h-131l-124 312h176zM569 -24q-220 0 -355 133t-135 342q0 137 55.5 262.5t148.5 216.5t222 145.5t269 54.5q220 0 355 -133t135 -342q0 -137 -55.5 -262.5t-148.5 -216.5t-222 -145.5t-269 -54.5zM588 135q137 0 254.5 71t184.5 190t67 255q0 146 -92.5 233
t-247.5 87q-102 0 -196 -42t-162 -111.5t-108 -164.5t-40 -198q0 -146 92.5 -233t247.5 -87z" />
    <glyph glyph-name="oacute" unicode="&#xf3;" horiz-adv-x="1343" 
d="M709 1236l201 312h177l-247 -312h-131zM569 -24q-220 0 -355 133t-135 342q0 137 55.5 262.5t148.5 216.5t222 145.5t269 54.5q220 0 355 -133t135 -342q0 -137 -55.5 -262.5t-148.5 -216.5t-222 -145.5t-269 -54.5zM588 135q137 0 254.5 71t184.5 190t67 255
q0 146 -92.5 233t-247.5 87q-102 0 -196 -42t-162 -111.5t-108 -164.5t-40 -198q0 -146 92.5 -233t247.5 -87z" />
    <glyph glyph-name="ocircumflex" unicode="&#xf4;" horiz-adv-x="1343" 
d="M1132 1236h-136l-150 210l-231 -210h-159l305 312h188zM569 -24q-220 0 -355 133t-135 342q0 137 55.5 262.5t148.5 216.5t222 145.5t269 54.5q220 0 355 -133t135 -342q0 -137 -55.5 -262.5t-148.5 -216.5t-222 -145.5t-269 -54.5zM588 135q137 0 254.5 71t184.5 190
t67 255q0 146 -92.5 233t-247.5 87q-102 0 -196 -42t-162 -111.5t-108 -164.5t-40 -198q0 -146 92.5 -233t247.5 -87z" />
    <glyph glyph-name="otilde" unicode="&#xf5;" horiz-adv-x="1343" 
d="M960 1251q-44 0 -80 15.5t-53.5 32t-42.5 46.5q-26 34 -47 50t-51 16q-95 0 -122 -151h-108q27 136 91 203.5t160 67.5q42 0 74.5 -14.5t49 -31t40.5 -47.5q28 -35 51 -51.5t58 -16.5q94 0 120 147h108q-26 -132 -90 -199t-158 -67zM569 -24q-220 0 -355 133t-135 342
q0 137 55.5 262.5t148.5 216.5t222 145.5t269 54.5q220 0 355 -133t135 -342q0 -137 -55.5 -262.5t-148.5 -216.5t-222 -145.5t-269 -54.5zM588 135q137 0 254.5 71t184.5 190t67 255q0 146 -92.5 233t-247.5 87q-102 0 -196 -42t-162 -111.5t-108 -164.5t-40 -198
q0 -146 92.5 -233t247.5 -87z" />
    <glyph glyph-name="odieresis" unicode="&#xf6;" horiz-adv-x="1343" 
d="M516 1302l39 193h192l-39 -193h-192zM915 1302l39 193h192l-39 -193h-192zM569 -24q-220 0 -355 133t-135 342q0 137 55.5 262.5t148.5 216.5t222 145.5t269 54.5q220 0 355 -133t135 -342q0 -137 -55.5 -262.5t-148.5 -216.5t-222 -145.5t-269 -54.5zM588 135
q137 0 254.5 71t184.5 190t67 255q0 146 -92.5 233t-247.5 87q-102 0 -196 -42t-162 -111.5t-108 -164.5t-40 -198q0 -146 92.5 -233t247.5 -87z" />
    <glyph glyph-name="divide" unicode="&#xf7;" horiz-adv-x="1210" 
d="M685 965q-35 0 -57 21t-22 55q0 46 36 81t82 35q36 0 58 -22t22 -56q0 -47 -36.5 -80.5t-82.5 -33.5zM125 622l31 150h983l-31 -150h-983zM540 237q-36 0 -58 22t-22 57q0 46 36.5 79.5t82.5 33.5q35 0 56.5 -21t21.5 -54q0 -47 -35.5 -82t-81.5 -35z" />
    <glyph glyph-name="oslash" unicode="&#xf8;" horiz-adv-x="1353" 
d="M1104 1029q81 -60 125.5 -158t44.5 -216q0 -184 -93.5 -340.5t-253 -247.5t-346.5 -91q-130 0 -230 47l-111 -148h-162l160 212q-76 61 -116.5 156t-40.5 207q0 184 94.5 341t254.5 248t347 91q117 0 211 -40l104 141h161zM753 978q-140 0 -258.5 -73.5t-186 -193
t-67.5 -253.5q0 -150 100 -239l555 740q-66 19 -143 19zM606 128q103 0 198.5 43t163 113.5t108 164.5t40.5 192q0 158 -115 251l-554 -738q70 -26 159 -26z" />
    <glyph glyph-name="ugrave" unicode="&#xf9;" horiz-adv-x="1292" 
d="M826 1236h-131l-124 312h176zM548 -24q-192 0 -304 104t-115 281q0 13 0.5 24t3 29.5t5 35t9 50.5t13 66t18.5 91t23.5 115t30.5 149.5t37 184.5h166q-17 -86 -34 -171l-28 -140t-21.5 -109.5t-17 -87t-13 -64.5t-9.5 -49.5t-5.5 -33.5t-3.5 -26.5t-1.5 -19t-0.5 -18.5
q0 -119 69 -185.5t193 -66.5q153 0 258 95t137 258l122 618h166l-131 -648q-45 -225 -194 -353.5t-373 -128.5z" />
    <glyph glyph-name="uacute" unicode="&#xfa;" horiz-adv-x="1292" 
d="M683 1236l201 312h177l-247 -312h-131zM548 -24q-192 0 -304 104t-115 281q0 13 0.5 24t3 29.5t5 35t9 50.5t13 66t18.5 91t23.5 115t30.5 149.5t37 184.5h166q-17 -86 -34 -171l-28 -140t-21.5 -109.5t-17 -87t-13 -64.5t-9.5 -49.5t-5.5 -33.5t-3.5 -26.5t-1.5 -19
t-0.5 -18.5q0 -119 69 -185.5t193 -66.5q153 0 258 95t137 258l122 618h166l-131 -648q-45 -225 -194 -353.5t-373 -128.5z" />
    <glyph glyph-name="ucircumflex" unicode="&#xfb;" horiz-adv-x="1292" 
d="M1106 1236h-136l-150 210l-231 -210h-159l305 312h188zM548 -24q-192 0 -304 104t-115 281q0 13 0.5 24t3 29.5t5 35t9 50.5t13 66t18.5 91t23.5 115t30.5 149.5t37 184.5h166q-17 -86 -34 -171l-28 -140t-21.5 -109.5t-17 -87t-13 -64.5t-9.5 -49.5t-5.5 -33.5
t-3.5 -26.5t-1.5 -19t-0.5 -18.5q0 -119 69 -185.5t193 -66.5q153 0 258 95t137 258l122 618h166l-131 -648q-45 -225 -194 -353.5t-373 -128.5z" />
    <glyph glyph-name="udieresis" unicode="&#xfc;" horiz-adv-x="1292" 
d="M490 1302l39 193h192l-39 -193h-192zM889 1302l39 193h192l-39 -193h-192zM548 -24q-192 0 -304 104t-115 281q0 13 0.5 24t3 29.5t5 35t9 50.5t13 66t18.5 91t23.5 115t30.5 149.5t37 184.5h166q-17 -86 -34 -171l-28 -140t-21.5 -109.5t-17 -87t-13 -64.5t-9.5 -49.5
t-5.5 -33.5t-3.5 -26.5t-1.5 -19t-0.5 -18.5q0 -119 69 -185.5t193 -66.5q153 0 258 95t137 258l122 618h166l-131 -648q-45 -225 -194 -353.5t-373 -128.5z" />
    <glyph glyph-name="yacute" unicode="&#xfd;" horiz-adv-x="1193" 
d="M1016 1548l-247 -312h-131l201 312h177zM1088 1106h184l-763 -1164q-128 -194 -231 -265t-260 -71h-108l30 150h80q113 0 177.5 45.5t160.5 186.5l66 96l-285 1022h173l230 -846z" />
    <glyph glyph-name="thorn" unicode="&#xfe;" horiz-adv-x="1419" 
d="M866 1130q214 0 344 -131.5t130 -339.5q0 -136 -53 -261.5t-142.5 -218t-215.5 -148t-264 -55.5q-128 0 -230 51t-165 143l-115 -564h-166l379 1889h166l-106 -537q193 172 438 172zM661 135q101 0 195 43t163 113.5t110.5 165.5t41.5 195q0 143 -90.5 231t-242.5 88
q-134 0 -251 -72t-185.5 -192.5t-68.5 -255.5q0 -142 89 -229t239 -87z" />
    <glyph glyph-name="ydieresis" unicode="&#xff;" horiz-adv-x="1193" 
d="M676 1495l-39 -193h-192l39 193h192zM1075 1495l-39 -193h-192l39 193h192zM1088 1106h184l-763 -1164q-128 -194 -231 -265t-260 -71h-108l30 150h80q113 0 177.5 45.5t160.5 186.5l66 96l-285 1022h173l230 -846z" />
    <glyph glyph-name="Amacron" unicode="&#x100;" horiz-adv-x="1425" 
d="M1263 1811l-29 -143h-641l29 143h641zM1104 0l-76 349h-695l-212 -349h-191l875 1434h159l318 -1434h-178zM842 1201l-419 -700h570z" />
    <glyph glyph-name="amacron" unicode="&#x101;" horiz-adv-x="1429" 
d="M1192 1465l-28 -133h-641l28 133h641zM1230 1106h133l-222 -1106h-137l15 161q-92 -87 -211 -136t-251 -49q-214 0 -346 132.5t-132 340.5q0 135 54 260t145 217.5t217.5 148t264.5 55.5q139 0 244 -56.5t165 -158.5zM587 135q100 0 193.5 43t161.5 113.5t108.5 165.5
t40.5 195q0 144 -92 231.5t-246 87.5q-133 0 -250 -72t-186 -191t-69 -252q0 -144 93 -232.5t246 -88.5z" />
    <glyph glyph-name="Abreve" unicode="&#x102;" horiz-adv-x="1425" 
d="M907 1584q-123 0 -197 64t-74 172q0 32 6 66h131q-5 -22 -5 -52q0 -68 39.5 -102.5t112.5 -34.5q87 0 144 49t76 140h135q-27 -143 -126 -222.5t-242 -79.5zM1104 0l-76 349h-695l-212 -349h-191l875 1434h159l318 -1434h-178zM842 1201l-419 -700h570z" />
    <glyph glyph-name="abreve" unicode="&#x103;" horiz-adv-x="1429" 
d="M832 1226q-127 0 -202.5 67.5t-75.5 181.5q0 23 8 73h131q-7 -39 -7 -60q0 -74 41.5 -111.5t117.5 -37.5q94 0 153.5 54.5t79.5 154.5h134q-29 -153 -130 -237.5t-250 -84.5zM1230 1106h133l-222 -1106h-137l15 161q-92 -87 -211 -136t-251 -49q-214 0 -346 132.5
t-132 340.5q0 135 54 260t145 217.5t217.5 148t264.5 55.5q139 0 244 -56.5t165 -158.5zM587 135q100 0 193.5 43t161.5 113.5t108.5 165.5t40.5 195q0 144 -92 231.5t-246 87.5q-133 0 -250 -72t-186 -191t-69 -252q0 -144 93 -232.5t246 -88.5z" />
    <glyph glyph-name="Aogonek" unicode="&#x104;" horiz-adv-x="1425" 
d="M1005 -267q0 -41 28.5 -65t79.5 -24q55 0 108 16l-22 -108q-68 -26 -151 -26q-84 0 -135 40.5t-51 110.5q0 92 66.5 180.5t175.5 147.5l-75 344h-696l-212 -349h-191l875 1434h159l318 -1434q-106 -44 -191.5 -119.5t-85.5 -147.5zM849 1199l-421 -693h568z" />
    <glyph glyph-name="aogonek" unicode="&#x105;" horiz-adv-x="1429" 
d="M1141 0q-257 -135 -257 -277q0 -79 100 -79q63 0 116 16l-22 -108q-68 -26 -151 -26q-84 0 -135 40.5t-51 110.5q0 192 266 360l12 124q-92 -87 -211 -136t-251 -49q-214 0 -346 132.5t-132 340.5q0 135 54 260t145 217.5t217.5 148t264.5 55.5q139 0 244 -56.5
t165 -158.5l61 191h133zM587 135q100 0 193.5 43t161.5 113.5t108.5 165.5t40.5 195q0 144 -92 231.5t-246 87.5q-133 0 -250 -72t-186 -191t-69 -252q0 -144 93 -232.5t246 -88.5z" />
    <glyph glyph-name="Cacute" unicode="&#x106;" horiz-adv-x="1587" 
d="M950 1595l208 291h178l-255 -291h-131zM726 -22q-277 0 -442.5 161t-165.5 422q0 179 70 344t189 286t284 193t346 72q241 0 402 -137t180 -366h-171q-26 160 -136 248.5t-287 88.5q-142 0 -273 -58t-225 -155t-150 -228.5t-56 -273.5q0 -200 118.5 -315.5t329.5 -115.5
q188 0 346.5 95t243.5 263h182q-106 -251 -315.5 -387.5t-469.5 -136.5z" />
    <glyph glyph-name="cacute" unicode="&#x107;" horiz-adv-x="1263" 
d="M697 1236l201 312h177l-247 -312h-131zM559 -24q-214 0 -346 133t-132 341q0 135 54.5 260t146 217t218 147.5t264.5 55.5q195 0 320.5 -106.5t145.5 -286.5h-162q-29 110 -112 172t-206 62q-131 0 -247 -73t-184.5 -193t-68.5 -252q0 -142 89 -230t235 -88
q127 0 237.5 63t183.5 177h173q-83 -182 -247.5 -290.5t-361.5 -108.5z" />
    <glyph glyph-name="Ccircumflex" unicode="&#x108;" horiz-adv-x="1587" 
d="M1070 1792l-228 -197h-161l300 291h189l186 -291h-135zM739 144q188 0 346.5 95t243.5 263h182q-106 -251 -315.5 -387.5t-469.5 -136.5q-277 0 -442.5 161t-165.5 422q0 179 70 344t189 286t284 193t346 72q241 0 402 -137t180 -366h-171q-26 160 -136 248.5t-287 88.5
q-142 0 -273 -58t-225 -155t-150 -228.5t-56 -273.5q0 -200 118.5 -315.5t329.5 -115.5z" />
    <glyph glyph-name="ccircumflex" unicode="&#x109;" horiz-adv-x="1263" 
d="M834 1446l-231 -210h-159l304 312h189l183 -312h-136zM574 135q127 0 237.5 63t183.5 177h173q-83 -182 -247.5 -290.5t-361.5 -108.5q-214 0 -346 133t-132 341q0 135 54.5 260t146 217t218 147.5t264.5 55.5q195 0 320.5 -106.5t145.5 -286.5h-162q-29 110 -112 172
t-206 62q-131 0 -247 -73t-184.5 -193t-68.5 -252q0 -142 89 -230t235 -88z" />
    <glyph glyph-name="Cdotaccent" unicode="&#x10a;" horiz-adv-x="1587" 
d="M947 1636l37 193h192l-37 -193h-192zM726 -22q-277 0 -442.5 161t-165.5 422q0 179 70 344t189 286t284 193t346 72q241 0 402 -137t180 -366h-171q-26 160 -136 248.5t-287 88.5q-142 0 -273 -58t-225 -155t-150 -228.5t-56 -273.5q0 -200 118.5 -315.5t329.5 -115.5
q188 0 346.5 95t243.5 263h182q-106 -251 -315.5 -387.5t-469.5 -136.5z" />
    <glyph glyph-name="cdotaccent" unicode="&#x10b;" horiz-adv-x="1263" 
d="M712 1302l40 193h181l-39 -193h-182zM559 -24q-214 0 -346 133t-132 341q0 135 54.5 260t146 217t218 147.5t264.5 55.5q195 0 320.5 -106.5t145.5 -286.5h-162q-29 110 -112 172t-206 62q-131 0 -247 -73t-184.5 -193t-68.5 -252q0 -142 89 -230t235 -88q127 0 237.5 63
t183.5 177h173q-83 -182 -247.5 -290.5t-361.5 -108.5z" />
    <glyph glyph-name="Ccaron" unicode="&#x10c;" horiz-adv-x="1587" 
d="M1128 1595h-189l-185 291h138l150 -196l225 196h160zM739 144q188 0 346.5 95t243.5 263h182q-106 -251 -315.5 -387.5t-469.5 -136.5q-277 0 -442.5 161t-165.5 422q0 179 70 344t189 286t284 193t346 72q241 0 402 -137t180 -366h-171q-26 160 -136 248.5t-287 88.5
q-142 0 -273 -58t-225 -155t-150 -228.5t-56 -273.5q0 -200 118.5 -315.5t329.5 -115.5z" />
    <glyph glyph-name="ccaron" unicode="&#x10d;" horiz-adv-x="1263" 
d="M889 1236h-188l-182 312h147l140 -214l227 214h162zM574 135q127 0 237.5 63t183.5 177h173q-83 -182 -247.5 -290.5t-361.5 -108.5q-214 0 -346 133t-132 341q0 135 54.5 260t146 217t218 147.5t264.5 55.5q195 0 320.5 -106.5t145.5 -286.5h-162q-29 110 -112 172
t-206 62q-131 0 -247 -73t-184.5 -193t-68.5 -252q0 -142 89 -230t235 -88z" />
    <glyph glyph-name="Dcaron" unicode="&#x10e;" horiz-adv-x="1497" 
d="M909 1595h-189l-185 291h138l150 -196l225 196h161zM834 1434q275 0 442.5 -161t167.5 -418q0 -138 -43.5 -267.5t-124 -235t-187 -185t-239.5 -123.5t-275 -44h-488l287 1434h460zM581 157q139 0 267 57t220.5 151.5t147.5 223t55 265.5q0 193 -120.5 308.5
t-329.5 115.5h-306l-225 -1121h291z" />
    <glyph glyph-name="dcaron" unicode="&#x10f;" horiz-adv-x="1417" 
d="M1153 951l111 549h166l-301 -1500h-129l10 161q-94 -87 -213.5 -136t-248.5 -49q-214 0 -341.5 127.5t-127.5 331.5q0 184 92.5 344.5t251.5 255.5t344 95q126 0 225 -47t161 -132zM1549 1500h174l-28 -145q-14 -69 -72.5 -123t-133.5 -66l17 80q78 16 102 96h-91z
M587 137q136 0 253 70t185 187t68 251q0 146 -92 236t-246 90q-136 0 -253 -69.5t-185.5 -187t-68.5 -252.5q0 -145 92.5 -235t246.5 -90z" />
    <glyph glyph-name="Dcroat" unicode="&#x110;" horiz-adv-x="1540" 
d="M878 1434q276 0 443.5 -161t167.5 -418q0 -138 -43.5 -267.5t-124 -235t-187 -185t-239.5 -123.5t-275 -44h-488l129 649h-211l28 139h211l129 646h460zM625 157q186 0 345.5 96t252.5 257t93 344q0 193 -120.5 308.5t-329.5 115.5h-307l-98 -490h416l-29 -139h-415
l-99 -492h291z" />
    <glyph glyph-name="dcroat" unicode="&#x111;" horiz-adv-x="1415" 
d="M1564 1358l-28 -136h-164l-245 -1222h-128l8 150q-192 -174 -450 -174q-214 0 -346 132.5t-132 340.5q0 135 54 260t145 217.5t217.5 148t264.5 55.5q128 0 228 -49t162 -137l56 278h-412l27 136h413l28 142h166l-28 -142h164zM587 138q133 0 250 72t185.5 190.5
t68.5 251.5q0 143 -92 229.5t-246 86.5q-134 0 -251.5 -73.5t-186 -191.5t-68.5 -247q0 -143 93 -230.5t247 -87.5z" />
    <glyph glyph-name="Emacron" unicode="&#x112;" horiz-adv-x="1126" 
d="M1170 1811l-29 -143h-641l29 143h641zM1150 1273h-637l-91 -458h585l-32 -155h-585l-99 -498h660l-33 -162h-831l287 1434h809z" />
    <glyph glyph-name="emacron" unicode="&#x113;" horiz-adv-x="1290" 
d="M1152 1465l-28 -132h-641l28 132h641zM1193 489h-951q0 -5 -1 -14.5t-1.5 -17.5t-0.5 -15q0 -143 86 -225t236 -82q119 0 222.5 53t172.5 148h186q-103 -172 -254 -266t-332 -94q-211 0 -343 133t-132 340q0 178 89 335t244 251.5t336 94.5q214 0 340 -132.5t126 -342.5
q0 -81 -23 -166zM743 975q-157 0 -282.5 -93t-182.5 -239h783v11q0 149 -84.5 235t-233.5 86z" />
    <glyph glyph-name="Ebreve" unicode="&#x114;" horiz-adv-x="1126" 
d="M814 1584q-124 0 -198 64t-74 172q0 26 7 66h130q-4 -18 -4 -52q0 -68 39.5 -102.5t112.5 -34.5q87 0 144.5 49t75.5 140h134q-27 -143 -125.5 -222.5t-241.5 -79.5zM1150 1273h-637l-91 -458h585l-32 -155h-585l-99 -498h660l-33 -162h-831l287 1434h809z" />
    <glyph glyph-name="ebreve" unicode="&#x115;" horiz-adv-x="1290" 
d="M792 1226q-127 0 -202.5 67.5t-75.5 182.5q0 22 8 72h131q-7 -39 -7 -60q0 -74 41.5 -111.5t117.5 -37.5q94 0 153.5 54.5t79.5 154.5h134q-29 -153 -130 -237.5t-250 -84.5zM1193 489h-951q0 -5 -1 -14.5t-1.5 -17.5t-0.5 -15q0 -143 86 -225t236 -82q119 0 222.5 53
t172.5 148h186q-103 -172 -254 -266t-332 -94q-211 0 -343 133t-132 340q0 178 89 335t244 251.5t336 94.5q214 0 340 -132.5t126 -342.5q0 -81 -23 -166zM743 975q-157 0 -282.5 -93t-182.5 -239h783v11q0 149 -84.5 235t-233.5 86z" />
    <glyph glyph-name="Edotaccent" unicode="&#x116;" horiz-adv-x="1126" 
d="M949 1829l-38 -193h-192l38 193h192zM1150 1273h-637l-91 -458h585l-32 -155h-585l-99 -498h660l-33 -162h-831l287 1434h809z" />
    <glyph glyph-name="edotaccent" unicode="&#x117;" horiz-adv-x="1290" 
d="M923 1495l-40 -193h-181l39 193h182zM1193 489h-951q0 -5 -1 -14.5t-1.5 -17.5t-0.5 -15q0 -143 86 -225t236 -82q120 0 223.5 52.5t171.5 147.5h186q-103 -172 -254 -265.5t-332 -93.5q-211 0 -343 133t-132 340q0 178 89 335t244 251.5t336 94.5q214 0 340 -132.5
t126 -342.5q0 -81 -23 -166zM743 975q-157 0 -282.5 -93t-182.5 -239h783v11q0 149 -84.5 235t-233.5 86z" />
    <glyph glyph-name="Eogonek" unicode="&#x118;" horiz-adv-x="1126" 
d="M1150 1273h-637l-91 -458h585l-32 -155h-585l-99 -498h660l-33 -162q-112 -53 -184.5 -125.5t-72.5 -141.5q0 -41 29 -65t80 -24q54 0 107 16l-22 -108q-68 -26 -156 -26q-83 0 -132 40.5t-49 110.5q0 90 63.5 178t163.5 145h-658l287 1434h809z" />
    <glyph glyph-name="eogonek" unicode="&#x119;" horiz-adv-x="1288" 
d="M1193 489h-952q-2 -32 -2 -47q0 -143 86 -225t236 -82q117 0 220 52t179 148h176q-120 -204 -353 -323q-108 -55 -181 -126.5t-73 -152.5q0 -41 29 -65t80 -24q66 0 125 25l-22 -108q-78 -35 -156 -35q-84 0 -139.5 48t-55.5 122t48 148.5t124 131.5h-12
q-208 0 -339.5 130.5t-131.5 333.5q0 180 91 339t247.5 255t337.5 96q211 0 337 -129.5t126 -333.5q0 -91 -25 -178zM742 975q-155 0 -280.5 -93t-183.5 -239h782q0 2 0.5 6t0.5 6q0 149 -85.5 234.5t-233.5 85.5z" />
    <glyph glyph-name="Ecaron" unicode="&#x11a;" horiz-adv-x="1126" 
d="M900 1595h-188l-186 291h139l149 -196l226 196h160zM87 0l287 1434h809l-33 -161h-637l-91 -458h585l-32 -155h-585l-99 -498h660l-33 -162h-831z" />
    <glyph glyph-name="ecaron" unicode="&#x11b;" horiz-adv-x="1290" 
d="M878 1236h-188l-181 312h147l139 -214l227 214h162zM1193 489h-951q0 -5 -1 -14.5t-1.5 -17.5t-0.5 -15q0 -143 86 -225t236 -82q120 0 223.5 52.5t171.5 147.5h186q-103 -172 -254 -265.5t-332 -93.5q-211 0 -343 133t-132 340q0 178 89 335t244 251.5t336 94.5
q214 0 340 -132.5t126 -342.5q0 -81 -23 -166zM743 975q-157 0 -282.5 -93t-182.5 -239h783v11q0 149 -84.5 235t-233.5 86z" />
    <glyph glyph-name="Gcircumflex" unicode="&#x11c;" horiz-adv-x="1632" 
d="M1073 1792l-227 -197h-161l300 291h189l185 -291h-134zM773 548l32 159h768q-68 -332 -294 -531t-552 -199q-275 0 -441 165.5t-166 429.5q0 175 68 337.5t183.5 282.5t276.5 191.5t339 71.5q168 0 303.5 -66t213.5 -185t81 -269h-171q-18 161 -135 257.5t-297 96.5
q-188 0 -347.5 -99.5t-251 -265.5t-91.5 -358q0 -196 117 -310t325 -114q218 0 379 109.5t234 296.5h-574z" />
    <glyph glyph-name="gcircumflex" unicode="&#x11d;" horiz-adv-x="1378" 
d="M829 1446l-231 -210h-159l304 312h189l183 -312h-136zM1200 1106h111l-192 -960q-54 -268 -223 -416t-422 -148q-201 0 -320 98.5t-136 274.5h166q16 -105 101 -163.5t210 -58.5q172 0 298.5 111.5t163.5 298.5l10 51q-185 -158 -426 -158q-201 0 -327.5 126.5
t-126.5 322.5q0 127 51.5 245.5t138 206t205.5 140.5t248 53q134 0 239 -57.5t163 -158.5zM575 194q127 0 237.5 69t173.5 180t63 233q0 133 -87 214t-230 81q-127 0 -238 -68.5t-175.5 -179.5t-64.5 -233q0 -132 88.5 -214t232.5 -82z" />
    <glyph glyph-name="Gbreve" unicode="&#x11e;" horiz-adv-x="1632" 
d="M1046 1584q-124 0 -198 64t-74 172q0 32 6 66h131q-5 -22 -5 -52q0 -68 39.5 -102.5t112.5 -34.5q87 0 144 49t76 140h135q-27 -143 -125.5 -222.5t-241.5 -79.5zM773 548l32 159h768q-68 -332 -294 -531t-552 -199q-275 0 -441 165.5t-166 429.5q0 175 68 337.5
t183.5 282.5t276.5 191.5t339 71.5q168 0 303.5 -66t213.5 -185t81 -269h-171q-18 161 -135 257.5t-297 96.5q-188 0 -347.5 -99.5t-251 -265.5t-91.5 -358q0 -196 117 -310t325 -114q218 0 379 109.5t234 296.5h-574z" />
    <glyph glyph-name="gbreve" unicode="&#x11f;" horiz-adv-x="1378" 
d="M798 1226q-127 0 -202.5 67.5t-75.5 181.5q0 23 8 73h131q-7 -39 -7 -60q0 -74 41.5 -111.5t117.5 -37.5q94 0 153.5 54.5t79.5 154.5h134q-29 -153 -130 -237.5t-250 -84.5zM1200 1106h111l-192 -960q-54 -268 -223 -416t-422 -148q-201 0 -320 98.5t-136 274.5h166
q16 -105 101 -163.5t210 -58.5q172 0 298.5 111.5t163.5 298.5l10 51q-185 -158 -426 -158q-201 0 -327.5 126.5t-126.5 322.5q0 127 51.5 245.5t138 206t205.5 140.5t248 53q134 0 239 -57.5t163 -158.5zM575 194q127 0 237.5 69t173.5 180t63 233q0 133 -87 214t-230 81
q-127 0 -238 -68.5t-175.5 -179.5t-64.5 -233q0 -132 88.5 -214t232.5 -82z" />
    <glyph glyph-name="Gdotaccent" unicode="&#x120;" horiz-adv-x="1632" 
d="M1180 1829l-37 -193h-193l38 193h192zM773 548l32 159h768q-68 -332 -294 -531t-552 -199q-275 0 -441 165.5t-166 429.5q0 175 68 337.5t183.5 282.5t276.5 191.5t339 71.5q168 0 303.5 -66t213.5 -185t81 -269h-171q-18 161 -135 257.5t-297 96.5q-188 0 -347.5 -99.5
t-251 -265.5t-91.5 -358q0 -196 117 -310t325 -114q218 0 379 109.5t234 296.5h-574z" />
    <glyph glyph-name="gdotaccent" unicode="&#x121;" horiz-adv-x="1378" 
d="M928 1495l-39 -193h-181l39 193h181zM1200 1106h111l-192 -960q-54 -268 -223 -416t-422 -148q-201 0 -320 98.5t-136 274.5h166q16 -105 101 -163.5t210 -58.5q172 0 298.5 111.5t163.5 298.5l10 51q-185 -158 -426 -158q-201 0 -327.5 126.5t-126.5 322.5
q0 127 51.5 245.5t138 206t205.5 140.5t248 53q134 0 239 -57.5t163 -158.5zM575 194q127 0 237.5 69t173.5 180t63 233q0 133 -87 214t-230 81q-127 0 -238 -68.5t-175.5 -179.5t-64.5 -233q0 -132 88.5 -214t232.5 -82z" />
    <glyph glyph-name="uni0122" unicode="&#x122;" horiz-adv-x="1632" 
d="M773 548l32 159h768q-68 -332 -294 -531t-552 -199q-275 0 -441 165.5t-166 429.5q0 175 68 337.5t183.5 282.5t276.5 191.5t339 71.5q168 0 303.5 -66t213.5 -185t81 -269h-171q-18 161 -135 257.5t-297 96.5q-188 0 -347.5 -99.5t-251 -265.5t-91.5 -358
q0 -196 117 -310t325 -114q218 0 379 109.5t234 296.5h-574zM583 -275l32 159h174l-28 -146q-15 -78 -71 -126.5t-135 -61.5l17 78q39 8 64.5 34t33.5 63h-87z" />
    <glyph glyph-name="uni0123" unicode="&#x123;" horiz-adv-x="1378" 
d="M900 1457l-32 -159h-174l29 146q13 69 71 122.5t134 65.5l-17 -79q-81 -17 -97 -96h86zM1200 1106h111l-192 -960q-54 -268 -223 -416t-422 -148q-201 0 -320 98.5t-136 274.5h166q16 -105 101 -163.5t210 -58.5q172 0 298.5 111.5t163.5 298.5l10 51
q-185 -158 -426 -158q-201 0 -327.5 126.5t-126.5 322.5q0 127 51.5 245.5t138 206t205.5 140.5t248 53q134 0 239 -57.5t163 -158.5zM575 194q127 0 237.5 69t173.5 180t63 233q0 133 -87 214t-230 81q-127 0 -238 -68.5t-175.5 -179.5t-64.5 -233q0 -132 88.5 -214
t232.5 -82z" />
    <glyph glyph-name="Hcircumflex" unicode="&#x124;" horiz-adv-x="1492" 
d="M998 1792l-228 -197h-160l300 291h188l186 -291h-135zM1300 1434h172l-287 -1434h-171l132 662h-755l-133 -662h-171l287 1434h171l-123 -617h755z" />
    <glyph glyph-name="hcircumflex" unicode="&#x125;" horiz-adv-x="1314" 
d="M513 1825l-228 -196h-160l300 290h188l186 -290h-135zM835 1130q167 0 260.5 -95t93.5 -259q0 -16 -0.5 -28.5t-3 -32.5t-5 -36.5t-9 -52.5t-12.5 -67t-18.5 -93.5t-24 -118.5t-31.5 -155t-39 -192h-166q26 131 64 323q53 264 64 327.5t11 105.5q0 108 -57.5 160.5
t-176.5 52.5q-150 0 -274.5 -106t-155.5 -262l-120 -601h-166l301 1500h165l-107 -538q162 168 407 168z" />
    <glyph glyph-name="Hbar" unicode="&#x126;" horiz-adv-x="1527" 
d="M1619 1236l-27 -132h-172l-220 -1104h-172l132 658h-755l-132 -658h-171l221 1104h-165l27 132h164l40 198h171l-40 -198h756l39 198h171l-39 -198h172zM1192 819l57 285h-755l-57 -285h755z" />
    <glyph glyph-name="hbar" unicode="&#x127;" horiz-adv-x="1314" 
d="M835 1130q167 0 260.5 -95t93.5 -259q0 -16 -0.5 -28.5t-3 -32.5t-5 -36.5t-9 -52.5t-12.5 -67t-18.5 -93.5t-24 -118.5t-31.5 -155t-39 -192h-166q26 131 64 323q53 264 64 327.5t11 105.5q0 108 -57.5 160.5t-176.5 52.5q-150 0 -274.5 -106t-155.5 -262l-120 -601
h-166l245 1222h-194l27 136h194l29 142h165l-28 -142h383l-27 -136h-383l-52 -260q162 168 407 168z" />
    <glyph glyph-name="Itilde" unicode="&#x128;" horiz-adv-x="567" 
d="M636 1600q-39 0 -71.5 17t-46.5 33t-38 48q-26 37 -46 54t-47 17q-47 0 -69 -34t-39 -116h-109q23 140 79.5 208t151.5 68q32 0 56 -7.5t44.5 -27t28.5 -29t27 -37.5q16 -24 26 -36t28 -23.5t39 -11.5q46 0 66 33t37 114h110q-39 -270 -227 -270zM87 0l287 1434h171
l-287 -1434h-171z" />
    <glyph glyph-name="itilde" unicode="&#x129;" horiz-adv-x="522" 
d="M548 1246q-40 0 -73 17.5t-48 35t-37 48.5q-20 26 -27.5 35.5t-25.5 21.5t-38 12q-47 0 -68.5 -33.5t-39.5 -116.5h-109q29 143 83 209t148 66q42 0 75 -17t48 -34.5t35 -48.5q23 -35 43 -53t48 -18q46 0 66.5 34t36.5 113h110q-25 -137 -80 -204t-147 -67zM69 0
l221 1106h166l-221 -1106h-166z" />
    <glyph glyph-name="Imacron" unicode="&#x12a;" horiz-adv-x="567" 
d="M235 1648l29 149h527l-30 -149h-526zM87 0l287 1434h171l-287 -1434h-171z" />
    <glyph glyph-name="imacron" unicode="&#x12b;" horiz-adv-x="522" 
d="M166 1333l28 132h501l-25 -132h-504zM69 0l221 1106h166l-221 -1106h-166z" />
    <glyph glyph-name="Ibreve" unicode="&#x12c;" horiz-adv-x="567" 
d="M499 1584q-134 0 -201 84.5t-43 217.5h130q-19 -81 16 -135t110 -54q80 0 131 48.5t68 140.5h134q-26 -144 -117 -223t-228 -79zM87 0l287 1434h171l-287 -1434h-171z" />
    <glyph glyph-name="ibreve" unicode="&#x12d;" horiz-adv-x="522" 
d="M401 1226q-140 0 -207.5 88.5t-42.5 233.5h131q-19 -94 15 -151.5t116 -57.5q86 0 140.5 54.5t72.5 154.5h135q-28 -153 -123.5 -237.5t-236.5 -84.5zM69 0l221 1106h166l-221 -1106h-166z" />
    <glyph glyph-name="Iogonek" unicode="&#x12e;" horiz-adv-x="567" 
d="M258 0q-112 -53 -184.5 -125.5t-72.5 -141.5q0 -41 29 -65t80 -24q54 0 107 16l-22 -108q-68 -26 -151 -26q-84 0 -135 40.5t-51 110.5q0 91 64 179t166 145l286 1433h171z" />
    <glyph glyph-name="iogonek" unicode="&#x12f;" horiz-adv-x="522" 
d="M355 1495h182l-40 -193h-181zM70 5l220 1101h166l-221 -1106q-113 -54 -185.5 -126t-72.5 -141q0 -41 29 -65t80 -24q54 0 107 16l-21 -108q-68 -26 -152 -26t-135 40.5t-51 110.5q0 93 66 182.5t170 145.5z" />
    <glyph glyph-name="Idotaccent" unicode="&#x130;" horiz-adv-x="567" 
d="M402 1636l37 193h193l-38 -193h-192zM87 0l287 1434h171l-287 -1434h-171z" />
    <glyph glyph-name="dotlessi" unicode="&#x131;" horiz-adv-x="522" 
d="M69 0l221 1106h166l-221 -1106h-166z" />
    <glyph glyph-name="IJ" unicode="&#x132;" horiz-adv-x="1691" 
d="M87 0l287 1434h171l-287 -1434h-171zM921 -24q-192 0 -305.5 109t-113.5 291q0 44 15 126h167q-10 -58 -10 -98q0 -120 67.5 -191t190.5 -71q139 0 250 100t140 249l188 943h173l-191 -972q-43 -217 -199.5 -351.5t-371.5 -134.5z" />
    <glyph glyph-name="ij" unicode="&#x133;" horiz-adv-x="1177" 
d="M316 1302l39 193h182l-40 -193h-181zM964 1302l39 193h182l-39 -193h-182zM69 0l221 1106h166l-221 -1106h-166zM355 -394l31 151h55q108 0 183.5 63t96.5 171l223 1115h166l-229 -1143q-33 -165 -148.5 -261t-281.5 -96h-96z" />
    <glyph glyph-name="Jcircumflex" unicode="&#x134;" horiz-adv-x="1214" 
d="M1280 1886l154 -291h-129l-118 194l-195 -194h-150l269 291h169zM846 491l188 943h173l-192 -972q-43 -217 -199 -351.5t-371 -134.5q-192 0 -305.5 109t-113.5 291q0 49 14 126h168q-11 -64 -11 -98q0 -120 68 -191t191 -71q139 0 250 100t140 249z" />
    <glyph glyph-name="jcircumflex" unicode="&#x135;" horiz-adv-x="546" 
d="M701 1236h-126l-128 209l-188 -209h-153l275 312h168zM-273 -394l31 151h54q107 0 182.5 63.5t96.5 170.5l224 1115h166l-229 -1143q-33 -164 -148.5 -260.5t-281.5 -96.5h-95z" />
    <glyph glyph-name="uni0136" unicode="&#x136;" horiz-adv-x="1286" 
d="M1419 1434l-667 -707l428 -727h-201l-388 661h-200l-133 -661h-171l287 1434h171l-122 -612h193l574 612h229zM448 -275l32 159h175l-29 -146q-15 -78 -70.5 -127t-134.5 -61l16 78q39 8 65 34t34 63h-88z" />
    <glyph glyph-name="uni0137" unicode="&#x137;" horiz-adv-x="1097" 
d="M1170 1106l-513 -530l333 -576h-188l-289 500h-178l-100 -500h-166l301 1500h165l-169 -847h149l439 453h216zM350 -275l32 159h175l-29 -146q-14 -70 -72 -124.5t-134 -66.5l17 80q39 8 64.5 34t33.5 64h-87z" />
    <glyph glyph-name="kgreenlandic" unicode="&#x138;" horiz-adv-x="1097" 
d="M1171 1106l-514 -530l333 -576h-188l-289 500h-178l-100 -500h-166l221 1106h166l-91 -453h150l439 453h217z" />
    <glyph glyph-name="Lacute" unicode="&#x139;" horiz-adv-x="1032" 
d="M817 1886l-255 -291h-132l209 291h178zM290 157h634l-30 -157h-807l287 1434h171z" />
    <glyph glyph-name="lacute" unicode="&#x13a;" horiz-adv-x="522" 
d="M402 1662l209 291h177l-254 -291h-132zM69 0l301 1500h165l-300 -1500h-166z" />
    <glyph glyph-name="uni013B" unicode="&#x13b;" horiz-adv-x="1032" 
d="M290 157h634l-30 -157h-807l287 1434h171zM340 -275l32 159h174l-28 -146q-15 -78 -71 -126.5t-135 -61.5l17 78q39 8 64.5 34t33.5 63h-87z" />
    <glyph glyph-name="uni013C" unicode="&#x13c;" horiz-adv-x="522" 
d="M69 0l301 1500h165l-300 -1500h-166zM-21 -453l17 80q39 8 64.5 34t33.5 64h-86l32 159h174l-29 -146q-14 -70 -72 -124.5t-134 -66.5z" />
    <glyph glyph-name="Lcaron" unicode="&#x13d;" horiz-adv-x="1050" 
d="M937 1500h174l-30 -145q-13 -69 -71.5 -123t-132.5 -66l15 80q39 8 65 33.5t34 62.5h-86zM545 1434l-255 -1273h636l-32 -161h-807l287 1434h171z" />
    <glyph glyph-name="lcaron" unicode="&#x13e;" horiz-adv-x="522" 
d="M69 0l301 1500h165l-300 -1500h-166zM663 1500h174l-30 -145q-14 -69 -72 -123t-132 -66l15 79q39 7 65.5 33.5t34.5 63.5h-87z" />
    <glyph glyph-name="Ldot" unicode="&#x13f;" horiz-adv-x="1040" 
d="M290 161h636l-32 -161h-807l287 1434h171zM921 816l-42 -211h-192l42 211h192z" />
    <glyph glyph-name="ldot" unicode="&#x140;" horiz-adv-x="696" 
d="M69 0l301 1500h165l-300 -1500h-166zM531 635l41 211h192l-41 -211h-192z" />
    <glyph glyph-name="Lslash" unicode="&#x141;" horiz-adv-x="1069" 
d="M321 157h635l-31 -157h-806l103 515l-193 -90l29 148l194 93l154 768h171l-136 -678l492 234l-31 -155l-491 -231z" />
    <glyph glyph-name="lslash" unicode="&#x142;" horiz-adv-x="704" 
d="M756 1087l-32 -161l-234 -122l-161 -804h-166l142 707l-236 -123l33 162l235 122l127 632h165l-107 -535z" />
    <glyph glyph-name="Nacute" unicode="&#x143;" horiz-adv-x="1533" 
d="M1285 1886l-254 -291h-132l209 291h177zM1340 1434h173l-287 -1434h-141l-599 1131l-226 -1131h-173l287 1434h151l591 -1120z" />
    <glyph glyph-name="nacute" unicode="&#x144;" horiz-adv-x="1314" 
d="M1090 1548l-247 -312h-131l201 312h177zM831 1130q168 0 263 -95t95 -259q0 -16 -0.5 -28.5t-3 -32.5t-5 -36.5t-9 -52.5t-12.5 -67t-18.5 -93.5t-24 -118.5t-31.5 -155t-39 -192h-166q127 628 134 676q5 36 5 65q0 235 -244 235q-144 0 -263 -103t-154 -256l-123 -617
h-166l221 1106h118l-3 -169q78 92 188 142.5t238 50.5z" />
    <glyph glyph-name="uni0145" unicode="&#x145;" horiz-adv-x="1533" 
d="M1340 1434h173l-287 -1434h-141l-599 1131l-226 -1131h-173l287 1434h151l591 -1120zM519 -275l32 159h174l-29 -146q-15 -78 -70.5 -127t-134.5 -61l17 78q39 8 64.5 34t33.5 63h-87z" />
    <glyph glyph-name="uni0146" unicode="&#x146;" horiz-adv-x="1314" 
d="M831 1130q168 0 263 -95t95 -259q0 -16 -0.5 -28.5t-3 -32.5t-5 -36.5t-9 -52.5t-12.5 -67t-18.5 -93.5t-24 -118.5t-31.5 -155t-39 -192h-166q127 628 134 676q5 36 5 65q0 235 -244 235q-144 0 -263 -103t-154 -256l-123 -617h-166l221 1106h118l-3 -169
q78 92 188 142.5t238 50.5zM432 -275l32 159h174l-28 -146q-14 -70 -72 -124.5t-134 -66.5l17 80q39 8 64.5 34t33.5 64h-87z" />
    <glyph glyph-name="Ncaron" unicode="&#x147;" horiz-adv-x="1533" 
d="M1077 1595h-188l-186 291h138l150 -196l226 196h160zM1340 1434h173l-287 -1434h-141l-599 1131l-226 -1131h-173l287 1434h151l591 -1120z" />
    <glyph glyph-name="ncaron" unicode="&#x148;" horiz-adv-x="1314" 
d="M904 1236h-188l-182 312h147l140 -214l227 214h162zM831 1130q168 0 263 -95t95 -259q0 -16 -0.5 -28.5t-3 -32.5t-5 -36.5t-9 -52.5t-12.5 -67t-18.5 -93.5t-24 -118.5t-31.5 -155t-39 -192h-166q127 628 134 676q5 36 5 65q0 235 -244 235q-144 0 -263 -103t-154 -256
l-123 -617h-166l221 1106h118l-3 -169q78 92 188 142.5t238 50.5z" />
    <glyph glyph-name="Eng" unicode="&#x14a;" horiz-adv-x="1533" 
d="M1345 1434h168l-282 -1403q-41 -201 -174 -313t-332 -112h-42l32 158h56q111 0 194.5 69t104.5 179l-588 1122l-227 -1134h-168l287 1434h155l592 -1124z" />
    <glyph glyph-name="eng" unicode="&#x14b;" horiz-adv-x="1314" 
d="M835 1130q167 0 260.5 -95t93.5 -259q0 -16 -0.5 -28t-3 -32t-5 -37.5t-9 -53t-13.5 -68.5t-19.5 -94.5t-24.5 -120.5t-32 -158t-39 -195q-37 -181 -157.5 -279.5t-304.5 -98.5h-68l30 152h38q115 0 195.5 63.5t102.5 173.5q26 130 65 321q52 254 63.5 318t11.5 102
q0 228 -243 228q-142 0 -263.5 -102t-155.5 -251l-122 -616h-166l221 1106h118l-3 -171q80 93 191 144t239 51z" />
    <glyph glyph-name="Omacron" unicode="&#x14c;" horiz-adv-x="1697" 
d="M753 1668l29 143h641l-29 -143h-641zM748 -24q-187 0 -330.5 80t-220 218.5t-76.5 314.5t68.5 336t186 277.5t284.5 186.5t355 69q187 0 330.5 -80t220 -218.5t76.5 -314.5t-68 -336t-186 -277.5t-285 -186.5t-355 -69zM775 142q147 0 277 56t220.5 150t143.5 220.5
t53 263.5q0 204 -132 332t-349 128q-146 0 -276.5 -56.5t-221 -150.5t-143.5 -219.5t-53 -261.5q0 -206 132 -334t349 -128z" />
    <glyph glyph-name="omacron" unicode="&#x14d;" horiz-adv-x="1343" 
d="M506 1332l28 133h641l-28 -133h-641zM569 -24q-220 0 -355 133t-135 342q0 137 55.5 262.5t148.5 216.5t222 145.5t269 54.5q220 0 355 -133t135 -342q0 -137 -55.5 -262.5t-148.5 -216.5t-222 -145.5t-269 -54.5zM588 135q137 0 254.5 71t184.5 190t67 255
q0 146 -92.5 233t-247.5 87q-102 0 -196 -42t-162 -111.5t-108 -164.5t-40 -198q0 -146 92.5 -233t247.5 -87z" />
    <glyph glyph-name="Obreve" unicode="&#x14e;" horiz-adv-x="1697" 
d="M1067 1584q-124 0 -198 64t-74 172q0 26 7 66h130q-4 -18 -4 -52q0 -68 39.5 -102.5t112.5 -34.5q87 0 144.5 49t75.5 140h134q-27 -143 -125.5 -222.5t-241.5 -79.5zM748 -24q-187 0 -330.5 80t-220 218.5t-76.5 314.5t68.5 336t186 277.5t284.5 186.5t355 69
q187 0 330.5 -80t220 -218.5t76.5 -314.5t-68 -336t-186 -277.5t-285 -186.5t-355 -69zM775 142q147 0 277 56t220.5 150t143.5 220.5t53 263.5q0 204 -132 332t-349 128q-146 0 -276.5 -56.5t-221 -150.5t-143.5 -219.5t-53 -261.5q0 -206 132 -334t349 -128z" />
    <glyph glyph-name="obreve" unicode="&#x14f;" horiz-adv-x="1343" 
d="M815 1226q-127 0 -202.5 67.5t-75.5 181.5q0 23 8 73h131q-7 -39 -7 -60q0 -74 41.5 -111.5t117.5 -37.5q94 0 153.5 54.5t79.5 154.5h134q-29 -153 -130 -237.5t-250 -84.5zM569 -24q-220 0 -355 133t-135 342q0 137 55.5 262.5t148.5 216.5t222 145.5t269 54.5
q220 0 355 -133t135 -342q0 -137 -55.5 -262.5t-148.5 -216.5t-222 -145.5t-269 -54.5zM588 135q137 0 254.5 71t184.5 190t67 255q0 146 -92.5 233t-247.5 87q-102 0 -196 -42t-162 -111.5t-108 -164.5t-40 -198q0 -146 92.5 -233t247.5 -87z" />
    <glyph glyph-name="Ohungarumlaut" unicode="&#x150;" horiz-adv-x="1697" 
d="M808 1595l188 291h157l-221 -291h-124zM1145 1595l224 291h165l-263 -291h-126zM748 -24q-187 0 -330.5 80t-220 218.5t-76.5 314.5t68.5 336t186 277.5t284.5 186.5t355 69q187 0 330.5 -80t220 -218.5t76.5 -314.5t-68 -336t-186 -277.5t-285 -186.5t-355 -69zM775 142
q147 0 277 56t220.5 150t143.5 220.5t53 263.5q0 204 -132 332t-349 128q-146 0 -276.5 -56.5t-221 -150.5t-143.5 -219.5t-53 -261.5q0 -206 132 -334t349 -128z" />
    <glyph glyph-name="ohungarumlaut" unicode="&#x151;" horiz-adv-x="1343" 
d="M553 1236l192 312h168l-232 -312h-128zM908 1236l219 312h163l-257 -312h-125zM569 -24q-220 0 -355 133t-135 342q0 137 55.5 262.5t148.5 216.5t222 145.5t269 54.5q220 0 355 -133t135 -342q0 -137 -55.5 -262.5t-148.5 -216.5t-222 -145.5t-269 -54.5zM588 135
q137 0 254.5 71t184.5 190t67 255q0 146 -92.5 233t-247.5 87q-102 0 -196 -42t-162 -111.5t-108 -164.5t-40 -198q0 -146 92.5 -233t247.5 -87z" />
    <glyph glyph-name="OE" unicode="&#x152;" horiz-adv-x="1957" 
d="M1981 1275h-651l-93 -464h598l-31 -155h-598l-99 -495h675l-33 -161h-798q-103 -24 -213 -24q-184 0 -325.5 79.5t-216.5 217.5t-75 312q0 175 70 336t188 279t282 188t344 70q104 0 194 -24h814zM294 603q0 -204 129 -332.5t342 -128.5q89 0 171 21l221 1103
q-88 26 -179 26q-139 0 -267 -57.5t-218.5 -152t-144.5 -220.5t-54 -259z" />
    <glyph glyph-name="oe" unicode="&#x153;" horiz-adv-x="2281" 
d="M2186 489h-952q-2 -28 -2 -43q0 -145 85 -228t236 -83q119 0 223.5 52t175.5 148h178q-101 -171 -254.5 -265t-332.5 -94q-153 0 -266 73t-164 199q-96 -126 -238.5 -199t-305.5 -73q-220 0 -355 133t-135 342q0 136 55.5 261.5t149 217t222 146t267.5 54.5
q157 0 273 -74t169 -201q95 127 234.5 201t297.5 74q212 0 337 -132t125 -342q0 -77 -23 -167zM1735 971q-155 0 -280.5 -92t-183.5 -236h782v11q0 146 -85.5 231.5t-232.5 85.5zM588 135q134 0 251 71t186 190.5t69 254.5q0 144 -92.5 231t-247.5 87q-133 0 -250 -70.5
t-186.5 -189.5t-69.5 -254q0 -146 92.5 -233t247.5 -87z" />
    <glyph glyph-name="Racute" unicode="&#x154;" horiz-adv-x="1316" 
d="M1123 1886l-255 -291h-131l208 291h178zM1300 1075q0 -180 -115 -316t-293 -178l227 -581h-184l-219 566h-344l-114 -566h-171l287 1434h530q176 0 286 -100.5t110 -258.5zM760 724q153 0 260 101t107 241q0 96 -65.5 152.5t-180.5 56.5h-367l-110 -551h356z" />
    <glyph glyph-name="racute" unicode="&#x155;" horiz-adv-x="806" 
d="M890 1549l-247 -311h-131l201 311h177zM793 1111h98l-32 -157h-112q-146 0 -247 -86.5t-139 -238.5l-126 -629h-166l221 1106h118l-9 -176q158 181 394 181z" />
    <glyph glyph-name="uni0156" unicode="&#x156;" horiz-adv-x="1316" 
d="M1300 1075q0 -180 -115 -316t-293 -178l227 -581h-184l-219 566h-344l-114 -566h-171l287 1434h530q176 0 286 -100.5t110 -258.5zM760 724q153 0 260 101t107 241q0 96 -65.5 152.5t-180.5 56.5h-367l-110 -551h356zM434 -275l32 159h174l-28 -146q-15 -78 -71 -126.5
t-135 -61.5l17 78q39 8 64.5 34t33.5 63h-87z" />
    <glyph glyph-name="uni0157" unicode="&#x157;" horiz-adv-x="806" 
d="M793 1111h98l-32 -157h-112q-146 0 -247 -86.5t-139 -238.5l-126 -629h-166l221 1106h118l-9 -176q158 181 394 181zM10 -275l32 159h174l-29 -146q-14 -70 -72 -124.5t-134 -66.5l17 80q39 8 64.5 34t33.5 64h-86z" />
    <glyph glyph-name="Rcaron" unicode="&#x158;" horiz-adv-x="1316" 
d="M915 1595h-189l-185 291h138l150 -196l225 196h160zM1300 1075q0 -180 -115 -316t-293 -178l227 -581h-184l-219 566h-344l-114 -566h-171l287 1434h530q176 0 286 -100.5t110 -258.5zM760 724q153 0 260 101t107 241q0 96 -65.5 152.5t-180.5 56.5h-367l-110 -551h356z
" />
    <glyph glyph-name="rcaron" unicode="&#x159;" horiz-adv-x="806" 
d="M704 1238h-188l-181 311h147l139 -213l227 213h162zM399 930q158 181 394 181h98l-32 -157h-112q-146 0 -247 -86.5t-139 -238.5l-126 -629h-166l221 1106h118z" />
    <glyph glyph-name="Sacute" unicode="&#x15a;" horiz-adv-x="1218" 
d="M717 1595l208 291h178l-255 -291h-131zM506 -23q-206 0 -325.5 96t-119.5 270q0 46 9 97h175q-7 -38 -7 -62q0 -111 84 -173.5t215 -62.5q102 0 190 39t141.5 109.5t53.5 156.5q0 39 -18 71t-44 53t-71 39.5t-82.5 29.5t-95.5 25q-51 12 -82.5 20.5t-78 24.5t-75.5 31.5
t-62.5 40t-52.5 52t-32 65.5t-13 83q0 144 76 253t205 165.5t290 56.5q191 0 296.5 -88t105.5 -243q0 -40 -10 -97h-169q7 35 7 59q0 96 -73 151.5t-192 55.5q-151 0 -257 -76.5t-106 -195.5q0 -37 17.5 -66.5t42.5 -48.5t70 -37.5t80.5 -28.5t94.5 -24q54 -13 84.5 -21.5
t80 -25.5t78.5 -32.5t64.5 -41t55 -54.5t33 -69.5t13.5 -88.5q0 -149 -80 -266t-215.5 -179.5t-300.5 -62.5z" />
    <glyph glyph-name="sacute" unicode="&#x15b;" horiz-adv-x="1044" 
d="M559 1236l201 312h177l-247 -312h-131zM417 -24q-174 0 -278 80t-104 217q0 37 5 63h163q-4 -24 -4 -35q0 -85 71.5 -129t173.5 -44q132 0 219 58t87 155q0 26 -9 46.5t-28.5 35.5t-40.5 26.5t-53.5 20.5t-59.5 14.5t-67 12.5q-44 8 -71 13.5t-67 16.5t-65.5 23t-54.5 31
t-45.5 42t-27.5 55.5t-11 71.5q0 174 134.5 277t339.5 103q163 0 263.5 -75.5t100.5 -202.5q0 -28 -6 -61h-157q4 26 4 36q0 77 -65 116.5t-163 39.5q-128 0 -207.5 -54t-79.5 -140q0 -28 14 -50t34 -35.5t57 -25t66 -17.5t78 -14q34 -6 56 -10t55 -11t54.5 -14.5t49.5 -19
t46 -25t37.5 -32t30.5 -40t18 -49.5t7 -60q0 -190 -141 -300t-359 -110z" />
    <glyph glyph-name="Scircumflex" unicode="&#x15c;" horiz-adv-x="1218" 
d="M836 1792l-228 -197h-160l300 291h189l185 -291h-134zM1178 1029h-169q7 35 7 59q0 96 -73 151.5t-192 55.5q-151 0 -257 -76.5t-106 -195.5q0 -37 17.5 -66.5t42.5 -48.5t70 -37.5t80.5 -28.5t94.5 -24q54 -13 84.5 -21.5t80 -25.5t78.5 -32.5t64.5 -41t55 -54.5
t33 -69.5t13.5 -88.5q0 -149 -80 -266t-215.5 -179.5t-300.5 -62.5q-206 0 -325.5 96t-119.5 270q0 46 9 97h175q-7 -38 -7 -62q0 -111 84 -173.5t215 -62.5q102 0 190 39t141.5 109.5t53.5 156.5q0 39 -18 71t-44 53t-71 39.5t-82.5 29.5t-95.5 25q-51 12 -82.5 20.5
t-78 24.5t-75.5 31.5t-62.5 40t-52.5 52t-32 65.5t-13 83q0 144 76 253t205 165.5t290 56.5q191 0 296.5 -88t105.5 -243q0 -40 -10 -97z" />
    <glyph glyph-name="scircumflex" unicode="&#x15d;" horiz-adv-x="1044" 
d="M982 1236h-136l-150 210l-231 -210h-159l304 312h189zM417 -24q-174 0 -278 80t-104 217q0 37 5 63h163q-4 -24 -4 -35q0 -85 71.5 -129t173.5 -44q132 0 219 58t87 155q0 26 -9 46.5t-28.5 35.5t-40.5 26.5t-53.5 20.5t-59.5 14.5t-67 12.5q-44 8 -71 13.5t-67 16.5
t-65.5 23t-54.5 31t-45.5 42t-27.5 55.5t-11 71.5q0 174 134.5 277t339.5 103q163 0 263.5 -75.5t100.5 -202.5q0 -28 -6 -61h-157q4 26 4 36q0 77 -65 116.5t-163 39.5q-128 0 -207.5 -54t-79.5 -140q0 -28 14 -50t34 -35.5t57 -25t66 -17.5t78 -14q34 -6 56 -10t55 -11
t54.5 -14.5t49.5 -19t46 -25t37.5 -32t30.5 -40t18 -49.5t7 -60q0 -190 -141 -300t-359 -110z" />
    <glyph glyph-name="Scedilla" unicode="&#x15e;" horiz-adv-x="1218" 
d="M1178 1029h-169q7 35 7 59q0 96 -73 151.5t-192 55.5q-151 0 -257 -76.5t-106 -195.5q0 -37 17.5 -66.5t42.5 -48.5t70 -37.5t80.5 -28.5t94.5 -24q54 -13 84.5 -21.5t80 -25.5t78.5 -32.5t64.5 -41t55 -54.5t33 -69.5t13.5 -88.5q0 -212 -153.5 -351.5t-386.5 -155.5
l-37 -77q71 -10 112.5 -51t41.5 -102q0 -98 -85 -164.5t-204 -66.5h-137l20 102h135q57 0 97 32.5t40 80.5q0 34 -27.5 55.5t-72.5 21.5h-51l-16 25l66 145q-179 14 -281 109t-102 255q0 46 9 97h175q-7 -38 -7 -62q0 -111 84 -173.5t215 -62.5q102 0 190 39t141.5 109.5
t53.5 156.5q0 39 -18 71t-44 53t-71 39.5t-82.5 29.5t-95.5 25q-51 12 -82.5 20.5t-78 24.5t-75.5 31.5t-62.5 40t-52.5 52t-32 65.5t-13 83q0 144 76 253t205 165.5t290 56.5q191 0 296.5 -88t105.5 -243q0 -40 -10 -97z" />
    <glyph glyph-name="scedilla" unicode="&#x15f;" horiz-adv-x="1044" 
d="M982 791h-157q4 26 4 36q0 77 -65 116.5t-163 39.5q-128 0 -207.5 -54t-79.5 -140q0 -28 14 -50t34 -35.5t57 -25t66 -17.5t78 -14q34 -6 56 -10t55 -11t54.5 -14.5t49.5 -19t46 -25t37.5 -32t30.5 -40t18 -49.5t7 -60q0 -178 -124 -286t-321 -122l-38 -80
q73 -10 116 -55.5t43 -108.5q0 -101 -74.5 -161t-191.5 -60h-157l18 101h131q63 0 104 34t41 84q0 36 -27 57t-75 21h-59l-15 19l69 150q-149 14 -235.5 91.5t-86.5 202.5q0 37 5 63h163q-4 -24 -4 -35q0 -85 71.5 -129t173.5 -44q132 0 219 58t87 155q0 26 -9 46.5
t-28.5 35.5t-40.5 26.5t-53.5 20.5t-59.5 14.5t-67 12.5q-44 8 -71 13.5t-67 16.5t-65.5 23t-54.5 31t-45.5 42t-27.5 55.5t-11 71.5q0 174 134.5 277t339.5 103q163 0 263.5 -75.5t100.5 -202.5q0 -28 -6 -61z" />
    <glyph glyph-name="Scaron" unicode="&#x160;" horiz-adv-x="1218" 
d="M895 1595h-189l-185 291h138l149 -196l226 196h160zM786 1457q191 0 296.5 -88t105.5 -243q0 -40 -10 -97h-169q7 35 7 59q0 96 -73 151.5t-192 55.5q-151 0 -257 -76.5t-106 -195.5q0 -37 17.5 -66.5t42.5 -48.5t70 -37.5t80.5 -28.5t94.5 -24q54 -13 84.5 -21.5
t80 -25.5t78.5 -32.5t64.5 -41t55 -54.5t33 -69.5t13.5 -88.5q0 -149 -80 -266t-215.5 -179.5t-300.5 -62.5q-206 0 -325.5 96t-119.5 270q0 46 9 97h175q-7 -38 -7 -62q0 -111 84 -173.5t215 -62.5q102 0 190 39t141.5 109.5t53.5 156.5q0 39 -18 71t-44 53t-71 39.5
t-82.5 29.5t-95.5 25q-51 12 -82.5 20.5t-78 24.5t-75.5 31.5t-62.5 40t-52.5 52t-32 65.5t-13 83q0 144 76 253t205 165.5t290 56.5z" />
    <glyph glyph-name="scaron" unicode="&#x161;" horiz-adv-x="1044" 
d="M895 1548h162l-306 -312h-188l-182 312h147l140 -214zM417 -24q-174 0 -278 80t-104 217q0 37 5 63h163q-4 -24 -4 -35q0 -85 71.5 -129t173.5 -44q132 0 219 58t87 155q0 26 -9 46.5t-28.5 35.5t-40.5 26.5t-53.5 20.5t-59.5 14.5t-67 12.5q-44 8 -71 13.5t-67 16.5
t-65.5 23t-54.5 31t-45.5 42t-27.5 55.5t-11 71.5q0 174 134.5 277t339.5 103q163 0 263.5 -75.5t100.5 -202.5q0 -28 -6 -61h-157q4 26 4 36q0 77 -65 116.5t-163 39.5q-128 0 -207.5 -54t-79.5 -140q0 -28 14 -50t34 -35.5t57 -25t66 -17.5t78 -14q34 -6 56 -10t55 -11
t54.5 -14.5t49.5 -19t46 -25t37.5 -32t30.5 -40t18 -49.5t7 -60q0 -190 -141 -300t-359 -110z" />
    <glyph glyph-name="uni0162" unicode="&#x162;" horiz-adv-x="1122" 
d="M531 0h-22l-43 -91q69 -13 110.5 -59.5t41.5 -110.5q0 -100 -79 -156.5t-201 -56.5h-143l20 102h136q57 0 96.5 32.5t39.5 80.5q0 34 -27.5 55.5t-72.5 21.5h-51l-16 25l71 157h-31l255 1277h-439l32 157h1048l-32 -157h-438z" />
    <glyph glyph-name="uni0163" unicode="&#x163;" horiz-adv-x="788" 
d="M810 956h-350q-114 -572 -117 -595q-3 -20 -3 -39q0 -82 49 -125t145 -43h123l-31 -154h-143h-12l-43 -90q73 -9 114.5 -50.5t41.5 -103.5q0 -97 -84.5 -163.5t-199.5 -66.5h-135l18 95h130q62 0 104 35.5t42 87.5q0 37 -28 59t-76 22h-54l-11 18l77 171q-97 25 -148 95
t-51 176q0 14 1 26t2.5 26t6 39.5t10 53t16.5 80t22 107.5t30 148.5t38 190.5h-194l8 30l404 351h26l-46 -231h349z" />
    <glyph glyph-name="Tcaron" unicode="&#x164;" horiz-adv-x="1122" 
d="M859 1595h-189l-185 291h138l150 -196l225 196h160zM1256 1434l-32 -157h-438l-255 -1277h-171l255 1277h-439l32 157h1048z" />
    <glyph glyph-name="tcaron" unicode="&#x165;" horiz-adv-x="792" 
d="M952 1500h174l-30 -145q-15 -71 -75 -132.5t-132 -73.5l15 78q39 7 67 40t36 75h-87zM538 1337l-46 -231h328l-31 -150h-329q-115 -578 -119 -607q-1 -13 -1 -25q0 -81 50 -125.5t143 -44.5h131l-30 -156h-143q-151 0 -237 77t-86 211q0 12 1 24t2.5 26.5t6.5 40.5
t10.5 54t16 81t22 108t30 148t37.5 188h-194l6 30l406 351h26z" />
    <glyph glyph-name="Tbar" unicode="&#x166;" horiz-adv-x="1177" 
d="M1252 1277h-438l-95 -473h317l-31 -150h-316l-130 -654h-171l130 654h-312l31 150h311l95 473h-440l33 157h1048z" />
    <glyph glyph-name="tbar" unicode="&#x167;" horiz-adv-x="825" 
d="M836 956h-351q-41 -207 -61 -307h351l-29 -150h-352q-29 -147 -29 -176q0 -81 50.5 -125t142.5 -44h132l-31 -156h-142q-151 0 -237 77t-86 211q0 42 34 213h-189l31 150h188q11 55 61 307h-193l7 30l404 351h27l-47 -231h350z" />
    <glyph glyph-name="Utilde" unicode="&#x168;" horiz-adv-x="1480" 
d="M1085 1600q-58 0 -96 24t-77 71q-30 36 -53.5 53.5t-53.5 17.5q-46 0 -79 -39.5t-48 -117.5h-108q56 275 256 275q60 0 95 -23.5t71 -70.5q28 -37 52 -54.5t60 -17.5q93 0 124 153h110q-26 -134 -92.5 -202.5t-160.5 -68.5zM640 -24q-211 0 -343.5 124t-132.5 321
q0 16 0.5 29.5t3.5 36.5t7 44.5t12.5 65.5t17 87.5t25 123t32.5 159t42.5 208.5t52.5 259h173q-25 -128 -50 -252.5t-41 -204.5t-31.5 -158t-24.5 -123t-17 -88t-12 -65t-7 -43t-4 -32.5t-1 -22.5q0 -140 82.5 -221.5t227.5 -81.5q175 0 308 111.5t168 290.5l177 890h173
l-185 -910q-47 -245 -227.5 -396.5t-425.5 -151.5z" />
    <glyph glyph-name="utilde" unicode="&#x169;" horiz-adv-x="1292" 
d="M934 1251q-44 0 -80 15.5t-53.5 32t-42.5 46.5q-26 34 -47 50t-51 16q-95 0 -122 -151h-108q27 136 91 203.5t160 67.5q42 0 74.5 -14.5t49 -31t40.5 -47.5q28 -35 51 -51.5t58 -16.5q94 0 120 147h108q-26 -132 -90 -199t-158 -67zM548 -24q-192 0 -304 104t-115 281
q0 13 0.5 24t3 29.5t5 35t9 50.5t13 66t18.5 91t23.5 115t30.5 149.5t37 184.5h166q-17 -86 -34 -171l-28 -140t-21.5 -109.5t-17 -87t-13 -64.5t-9.5 -49.5t-5.5 -33.5t-3.5 -26.5t-1.5 -19t-0.5 -18.5q0 -119 69 -185.5t193 -66.5q153 0 258 95t137 258l122 618h166
l-131 -648q-45 -225 -194 -353.5t-373 -128.5z" />
    <glyph glyph-name="Umacron" unicode="&#x16a;" horiz-adv-x="1480" 
d="M623 1668l29 143h641l-29 -143h-641zM640 -24q-211 0 -343.5 124t-132.5 321q0 16 0.5 29.5t3.5 36.5t7 44.5t12.5 65.5t17 87.5t25 123t32.5 159t42.5 208.5t52.5 259h173q-25 -128 -50 -252.5t-41 -204.5t-31.5 -158t-24.5 -123t-17 -88t-12 -65t-7 -43t-4 -32.5
t-1 -22.5q0 -140 82.5 -221.5t227.5 -81.5q175 0 308 111.5t168 290.5l177 890h173l-185 -910q-47 -245 -227.5 -396.5t-425.5 -151.5z" />
    <glyph glyph-name="umacron" unicode="&#x16b;" horiz-adv-x="1292" 
d="M480 1332l28 133h641l-28 -133h-641zM548 -24q-192 0 -304 104t-115 281q0 13 0.5 24t3 29.5t5 35t9 50.5t13 66t18.5 91t23.5 115t30.5 149.5t37 184.5h166q-17 -86 -34 -171l-28 -140t-21.5 -109.5t-17 -87t-13 -64.5t-9.5 -49.5t-5.5 -33.5t-3.5 -26.5t-1.5 -19
t-0.5 -18.5q0 -119 69 -185.5t193 -66.5q153 0 258 95t137 258l122 618h166l-131 -648q-45 -225 -194 -353.5t-373 -128.5z" />
    <glyph glyph-name="Ubreve" unicode="&#x16c;" horiz-adv-x="1480" 
d="M937 1584q-123 0 -197 64t-74 172q0 32 6 66h131q-5 -22 -5 -52q0 -68 39.5 -102.5t112.5 -34.5q87 0 144.5 49t75.5 140h135q-27 -143 -126 -222.5t-242 -79.5zM640 -24q-211 0 -343.5 124t-132.5 321q0 16 0.5 29.5t3.5 36.5t7 44.5t12.5 65.5t17 87.5t25 123t32.5 159
t42.5 208.5t52.5 259h173q-25 -128 -50 -252.5t-41 -204.5t-31.5 -158t-24.5 -123t-17 -88t-12 -65t-7 -43t-4 -32.5t-1 -22.5q0 -140 82.5 -221.5t227.5 -81.5q175 0 308 111.5t168 290.5l177 890h173l-185 -910q-47 -245 -227.5 -396.5t-425.5 -151.5z" />
    <glyph glyph-name="ubreve" unicode="&#x16d;" horiz-adv-x="1292" 
d="M789 1226q-127 0 -202.5 67.5t-75.5 181.5q0 23 8 73h131q-7 -39 -7 -60q0 -74 41.5 -111.5t117.5 -37.5q94 0 153.5 54.5t79.5 154.5h134q-29 -153 -130 -237.5t-250 -84.5zM548 -24q-192 0 -304 104t-115 281q0 13 0.5 24t3 29.5t5 35t9 50.5t13 66t18.5 91t23.5 115
t30.5 149.5t37 184.5h166q-17 -86 -34 -171l-28 -140t-21.5 -109.5t-17 -87t-13 -64.5t-9.5 -49.5t-5.5 -33.5t-3.5 -26.5t-1.5 -19t-0.5 -18.5q0 -119 69 -185.5t193 -66.5q153 0 258 95t137 258l122 618h166l-131 -648q-45 -225 -194 -353.5t-373 -128.5z" />
    <glyph glyph-name="Uring" unicode="&#x16e;" horiz-adv-x="1480" 
d="M932 1560q-90 0 -145 53.5t-55 137.5q0 119 80.5 195.5t201.5 76.5q92 0 147.5 -54t55.5 -138q0 -116 -83 -193.5t-202 -77.5zM947 1660q69 0 118 46.5t49 115.5q0 47 -31.5 74.5t-83.5 27.5q-69 0 -117 -46t-48 -116q0 -47 30.5 -74.5t82.5 -27.5zM640 -24
q-211 0 -343.5 124t-132.5 321q0 16 0.5 29.5t3.5 36.5t7 44.5t12.5 65.5t17 87.5t25 123t32.5 159t42.5 208.5t52.5 259h173q-25 -128 -50 -252.5t-41 -204.5t-31.5 -158t-24.5 -123t-17 -88t-12 -65t-7 -43t-4 -32.5t-1 -22.5q0 -140 82.5 -221.5t227.5 -81.5
q175 0 308 111.5t168 290.5l177 890h173l-185 -910q-47 -245 -227.5 -396.5t-425.5 -151.5z" />
    <glyph glyph-name="uring" unicode="&#x16f;" horiz-adv-x="1292" 
d="M781 1208q-85 0 -137 51t-52 129q0 112 76 184.5t190 72.5q86 0 138.5 -51t52.5 -131q0 -109 -77.5 -182t-190.5 -73zM795 1303q66 0 111.5 43.5t45.5 108.5q0 45 -29.5 71t-78.5 26q-65 0 -110 -43.5t-45 -110.5q0 -44 28.5 -69.5t77.5 -25.5zM548 -24q-192 0 -304 104
t-115 281q0 13 0.5 24t3 29.5t5 35t9 50.5t13 66t18.5 91t23.5 115t30.5 149.5t37 184.5h166q-17 -86 -34 -171l-28 -140t-21.5 -109.5t-17 -87t-13 -64.5t-9.5 -49.5t-5.5 -33.5t-3.5 -26.5t-1.5 -19t-0.5 -18.5q0 -119 69 -185.5t193 -66.5q153 0 258 95t137 258l122 618
h166l-131 -648q-45 -225 -194 -353.5t-373 -128.5z" />
    <glyph glyph-name="Uhungarumlaut" unicode="&#x170;" horiz-adv-x="1480" 
d="M678 1595l188 291h158l-222 -291h-124zM1016 1595l223 291h165l-263 -291h-125zM640 -24q-211 0 -343.5 124t-132.5 321q0 16 0.5 29.5t3.5 36.5t7 44.5t12.5 65.5t17 87.5t25 123t32.5 159t42.5 208.5t52.5 259h173q-25 -128 -50 -252.5t-41 -204.5t-31.5 -158
t-24.5 -123t-17 -88t-12 -65t-7 -43t-4 -32.5t-1 -22.5q0 -140 82.5 -221.5t227.5 -81.5q175 0 308 111.5t168 290.5l177 890h173l-185 -910q-47 -245 -227.5 -396.5t-425.5 -151.5z" />
    <glyph glyph-name="uhungarumlaut" unicode="&#x171;" horiz-adv-x="1292" 
d="M527 1236l192 312h169l-233 -312h-128zM882 1236l219 312h163l-257 -312h-125zM548 -24q-192 0 -304 104t-115 281q0 13 0.5 24t3 29.5t5 35t9 50.5t13 66t18.5 91t23.5 115t30.5 149.5t37 184.5h166q-17 -86 -34 -171l-28 -140t-21.5 -109.5t-17 -87t-13 -64.5
t-9.5 -49.5t-5.5 -33.5t-3.5 -26.5t-1.5 -19t-0.5 -18.5q0 -119 69 -185.5t193 -66.5q153 0 258 95t137 258l122 618h166l-131 -648q-45 -225 -194 -353.5t-373 -128.5z" />
    <glyph glyph-name="Uogonek" unicode="&#x172;" horiz-adv-x="1480" 
d="M1305 1434h172l-179 -897q-18 -91 -56.5 -170.5t-82.5 -133.5t-104.5 -104t-108 -79t-108.5 -61q-230 -122 -230 -255q0 -42 29 -66t80 -24q69 0 126 23l-22 -108q-75 -33 -163 -33q-85 0 -138.5 44.5t-53.5 117.5q0 83 54 160t142 133q-18 -1 -54 -1q-201 4 -321.5 123
t-120.5 310q0 17 0.5 31t3.5 37.5t6.5 45t12 66.5t17.5 88.5t25 123.5l32 160t42 209t52 260h171q-41 -206 -99 -491q-65 -321 -77.5 -389.5t-12.5 -103.5q0 -139 86.5 -221.5t232.5 -82.5q172 0 303 110t166 288z" />
    <glyph glyph-name="uogonek" unicode="&#x173;" horiz-adv-x="1290" 
d="M1079 1106h165l-130 -656q-32 -160 -117.5 -265.5t-245.5 -175.5q-98 -42 -165 -111.5t-67 -137.5q0 -48 35.5 -75t96.5 -27q47 0 107 19l-20 -99q-73 -35 -154 -35q-88 0 -143.5 44.5t-55.5 121.5q0 71 40.5 143.5t100.5 125.5h-8q-173 0 -280 106t-107 277
q0 51 11.5 118.5t69.5 352.5q33 166 55 274h166q-123 -614 -129 -662q-3 -25 -3 -50q0 -120 68 -187t192 -67q151 0 257.5 95t138.5 258z" />
    <glyph glyph-name="Wcircumflex" unicode="&#x174;" horiz-adv-x="2097" 
d="M1288 1792l-228 -197h-161l301 291h188l186 -291h-135zM2034 1434h190l-739 -1434h-149l-192 1036l-597 -1036h-153l-175 1434h173l131 -1153l652 1123h61l213 -1125z" />
    <glyph glyph-name="wcircumflex" unicode="&#x175;" horiz-adv-x="1730" 
d="M1035 1446l-232 -210h-158l304 312h188l184 -312h-137zM1637 1106h168l-597 -1106h-135l-163 768l-471 -768h-137l-153 1106h164l115 -828l505 810h60l180 -818z" />
    <glyph glyph-name="Ycircumflex" unicode="&#x176;" horiz-adv-x="1339" 
d="M897 1792l-228 -197h-161l300 291h189l186 -291h-135zM1465 1434l-703 -863l-115 -571h-176l114 571l-354 863h177l287 -701l572 701h198z" />
    <glyph glyph-name="ycircumflex" unicode="&#x177;" horiz-adv-x="1193" 
d="M775 1446l-231 -210h-159l304 312h189l183 -312h-136zM1088 1106h184l-763 -1164q-128 -194 -231 -265t-260 -71h-108l30 150h80q113 0 177.5 45.5t160.5 186.5l66 96l-285 1022h173l230 -846z" />
    <glyph glyph-name="Ydieresis" unicode="&#x178;" horiz-adv-x="1339" 
d="M780 1829l-38 -193h-192l38 193h192zM1222 1829l-37 -193h-192l37 193h192zM1465 1434l-703 -863l-115 -571h-176l114 571l-354 863h177l287 -701l572 701h198z" />
    <glyph glyph-name="Zacute" unicode="&#x179;" horiz-adv-x="1144" 
d="M1113 1886l-255 -291h-132l209 291h178zM1249 1434l-7 -33l-994 -1244h770l-33 -157h-1043l5 30l996 1247h-715l32 157h989z" />
    <glyph glyph-name="zacute" unicode="&#x17a;" horiz-adv-x="978" 
d="M924 1548l-247 -312h-131l201 312h177zM1021 1106l-5 -29l-774 -925h593l-30 -152h-864l5 25l777 931h-554l31 150h821z" />
    <glyph glyph-name="Zdotaccent" unicode="&#x17b;" horiz-adv-x="1144" 
d="M953 1829l-38 -193h-192l38 193h192zM1249 1434l-7 -33l-994 -1244h770l-33 -157h-1043l5 30l996 1247h-715l32 157h989z" />
    <glyph glyph-name="zdotaccent" unicode="&#x17c;" horiz-adv-x="978" 
d="M782 1495l-39 -193h-182l40 193h181zM1021 1106l-5 -29l-774 -925h593l-30 -152h-864l5 25l777 931h-554l31 150h821z" />
    <glyph glyph-name="Zcaron" unicode="&#x17d;" horiz-adv-x="1144" 
d="M904 1595h-188l-186 291h139l149 -196l226 196h160zM1249 1434l-7 -33l-994 -1244h770l-33 -157h-1043l5 30l996 1247h-715l32 157h989z" />
    <glyph glyph-name="zcaron" unicode="&#x17e;" horiz-adv-x="978" 
d="M738 1236h-188l-182 312h147l140 -214l227 214h162zM169 956l31 150h821l-5 -29l-774 -925h593l-30 -152h-864l5 25l777 931h-554z" />
    <glyph glyph-name="longs" unicode="&#x17f;" horiz-adv-x="563" 
d="M71 5l242 1210q59 285 346 285h198l-31 -151h-141q-94 0 -145.5 -43t-69.5 -135l-234 -1166h-165z" />
    <glyph glyph-name="florin" unicode="&#x192;" horiz-adv-x="897" 
d="M837 1245q-82 0 -146 -46t-89 -122l-56 -167h311l-43 -125h-308l-319 -926q-45 -131 -147.5 -207.5t-234.5 -76.5h-109l48 145h66q81 0 141.5 46t89.5 128l305 891h-204l43 125h203l64 186q41 124 145 198.5t236 74.5h178l-39 -124h-135z" />
    <glyph glyph-name="AEacute" unicode="&#x1fc;" horiz-adv-x="1832" 
d="M1547 1886l-255 -291h-131l208 291h178zM1858 1275h-637l-93 -461h586l-33 -156h-584l-99 -497h660l-32 -161h-832l65 322h-526l-257 -322h-207l1148 1434h873zM454 474h435l146 728z" />
    <glyph glyph-name="aeacute" unicode="&#x1fd;" horiz-adv-x="2271" 
d="M1573 1548l-247 -312h-131l201 312h177zM2174 489h-951q-2 -32 -2 -47q0 -143 85.5 -225t235.5 -82q119 0 222.5 52.5t172.5 147.5h185q-107 -172 -259 -265.5t-332 -93.5q-124 0 -223 52.5t-158 146.5l-40 -175h-126l21 150q-193 -174 -451 -174q-211 0 -343 130.5
t-132 333.5q0 182 92 341t251 254t345 95q129 0 229.5 -49.5t161.5 -139.5l39 165h125l-22 -153q89 84 201 130.5t235 46.5q212 0 337.5 -129.5t125.5 -333.5q0 -91 -25 -178zM1724 975q-157 0 -282.5 -93t-182.5 -239h783v11q0 149 -84.5 235t-233.5 86zM589 135
q134 0 251.5 72t186 191.5t68.5 253.5q0 145 -92.5 232t-247.5 87q-134 0 -251.5 -72t-186.5 -191t-69 -252q0 -144 93.5 -232.5t247.5 -88.5z" />
    <glyph glyph-name="Oslashacute" unicode="&#x1fe;" horiz-adv-x="1712" 
d="M1364 1886l-255 -291h-131l208 291h178zM1460 1304q95 -79 146.5 -197t51.5 -259q0 -175 -71 -336t-190 -278.5t-284.5 -187.5t-346.5 -70q-176 0 -316 66l-135 -169h-186l199 244q-101 80 -155 199.5t-54 263.5q0 233 120.5 435t327 321.5t446.5 119.5q180 0 326 -72
l142 177h186zM995 1290q-186 0 -348.5 -97t-258.5 -258t-96 -343q0 -211 151 -335l787 985q-104 48 -235 48zM780 142q141 0 272.5 58t225.5 153t150.5 223t56.5 262q0 200 -140 326l-783 -980q102 -41 218 -42z" />
    <glyph glyph-name="oslashacute" unicode="&#x1ff;" horiz-adv-x="1353" 
d="M1089 1548l-247 -312h-131l201 312h177zM1104 1029q81 -60 125.5 -158t44.5 -216q0 -184 -93.5 -340.5t-253 -247.5t-346.5 -91q-130 0 -230 47l-111 -148h-162l160 212q-76 61 -116.5 156t-40.5 207q0 184 94.5 341t254.5 248t347 91q117 0 211 -40l104 141h161z
M753 978q-140 0 -258.5 -73.5t-186 -193t-67.5 -253.5q0 -150 100 -239l555 740q-66 19 -143 19zM606 128q103 0 198.5 43t163 113.5t108 164.5t40.5 192q0 158 -115 251l-554 -738q70 -26 159 -26z" />
    <glyph glyph-name="uni0218" unicode="&#x218;" horiz-adv-x="1218" 
d="M506 -23q-206 0 -325.5 96t-119.5 270q0 46 9 97h175q-7 -38 -7 -62q0 -111 84 -173.5t215 -62.5q102 0 190 39t141.5 109.5t53.5 156.5q0 39 -18 71t-44 53t-71 39.5t-82.5 29.5t-95.5 25q-51 12 -82.5 20.5t-78 24.5t-75.5 31.5t-62.5 40t-52.5 52t-32 65.5t-13 83
q0 144 76 253t205 165.5t290 56.5q191 0 296.5 -88t105.5 -243q0 -40 -10 -97h-169q7 35 7 59q0 96 -73 151.5t-192 55.5q-151 0 -257 -76.5t-106 -195.5q0 -37 17.5 -66.5t42.5 -48.5t70 -37.5t80.5 -28.5t94.5 -24q54 -13 84.5 -21.5t80 -25.5t78.5 -32.5t64.5 -41
t55 -54.5t33 -69.5t13.5 -88.5q0 -149 -80 -266t-215.5 -179.5t-300.5 -62.5zM359 -459l17 78q39 8 65 34t34 63h-88l32 159h174l-28 -146q-15 -78 -71 -127t-135 -61z" />
    <glyph glyph-name="uni0219" unicode="&#x219;" horiz-adv-x="1044" 
d="M417 -24q-174 0 -278 80t-104 217q0 37 5 63h163q-4 -24 -4 -35q0 -85 71.5 -129t173.5 -44q132 0 219 58t87 155q0 26 -9 46.5t-28.5 35.5t-40.5 26.5t-53.5 20.5t-59.5 14.5t-67 12.5q-44 8 -71 13.5t-67 16.5t-65.5 23t-54.5 31t-45.5 42t-27.5 55.5t-11 71.5
q0 174 134.5 277t339.5 103q163 0 263.5 -75.5t100.5 -202.5q0 -28 -6 -61h-157q4 26 4 36q0 77 -65 116.5t-163 39.5q-128 0 -207.5 -54t-79.5 -140q0 -28 14 -50t34 -35.5t57 -25t66 -17.5t78 -14q34 -6 56 -10t55 -11t54.5 -14.5t49.5 -19t46 -25t37.5 -32t30.5 -40
t18 -49.5t7 -60q0 -190 -141 -300t-359 -110zM267 -466l17 80q39 8 64.5 34.5t33.5 64.5h-86l32 158h174l-28 -145q-14 -70 -72.5 -125t-134.5 -67z" />
    <glyph glyph-name="uni021A" unicode="&#x21a;" horiz-adv-x="1122" 
d="M1256 1434l-32 -157h-438l-255 -1277h-171l255 1277h-439l32 157h1048zM308 -275l32 159h174l-29 -146q-15 -78 -70.5 -127t-134.5 -61l17 78q39 8 64.5 34t33.5 63h-87z" />
    <glyph glyph-name="uni021B" unicode="&#x21b;" horiz-adv-x="800" 
d="M811 956h-351q-115 -579 -119 -608q-1 -13 -1 -25q0 -81 50.5 -125t142.5 -44h132l-31 -156h-142q-151 0 -237 77t-86 211q0 12 1 24t2.5 26.5t6.5 40.5t10.5 54t16 81t22 108t30 148t37.5 188h-194l8 30l403 351h27l-47 -231h350zM266 -275l32 159h174l-29 -146
q-14 -70 -72 -124.5t-134 -66.5l17 80q39 8 64.5 34t33.5 64h-86z" />
    <glyph glyph-name="circumflex" unicode="&#x2c6;" horiz-adv-x="1228" 
d="M1099 1236h-136l-150 210l-231 -210h-159l304 312h189z" />
    <glyph glyph-name="caron" unicode="&#x2c7;" horiz-adv-x="1226" 
d="M959 1548h162l-306 -312h-188l-181 312h147l140 -214z" />
    <glyph glyph-name="breve" unicode="&#x2d8;" horiz-adv-x="1228" 
d="M699 1226q-127 0 -203 67.5t-76 181.5q0 17 9 73h130q-6 -33 -6 -60q0 -74 41 -111.5t117 -37.5q94 0 154 54.5t80 154.5h134q-29 -153 -130 -237.5t-250 -84.5z" />
    <glyph glyph-name="dotaccent" unicode="&#x2d9;" horiz-adv-x="595" 
d="M242 1302l39 193h182l-40 -193h-181z" />
    <glyph glyph-name="ring" unicode="&#x2da;" horiz-adv-x="839" 
d="M555 1208q-85 0 -137 51t-52 129q0 112 76.5 184.5t190.5 72.5q86 0 138 -51t52 -131q0 -109 -77.5 -182t-190.5 -73zM569 1303q66 0 111.5 43.5t45.5 108.5q0 45 -29 71t-78 26q-66 0 -111 -43.5t-45 -110.5q0 -44 28.5 -69.5t77.5 -25.5z" />
    <glyph glyph-name="ogonek" unicode="&#x2db;" horiz-adv-x="886" 
d="M262 -466q-93 0 -146.5 45.5t-53.5 120.5q0 122 123 238t303 171l-13 -90q-111 -31 -195.5 -107.5t-84.5 -158.5q0 -49 35.5 -77.5t97.5 -28.5q51 0 104 22l-20 -101q-76 -34 -150 -34z" />
    <glyph glyph-name="tilde" unicode="&#x2dc;" horiz-adv-x="1228" 
d="M902 1251q-44 0 -80 15.5t-53.5 32t-42.5 46.5q-26 34 -47 50t-51 16q-95 0 -122 -151h-107q53 271 250 271q42 0 74.5 -14.5t49 -31t40.5 -47.5q28 -35 51 -51.5t58 -16.5q94 0 120 147h108q-26 -132 -90 -199t-158 -67z" />
    <glyph glyph-name="hungarumlaut" unicode="&#x2dd;" horiz-adv-x="1079" 
d="M332 1236l192 312h168l-232 -312h-128zM687 1236l219 312h163l-257 -312h-125z" />
    <glyph glyph-name="gravecomb" unicode="&#x300;" 
d="M-50 1236h-130l-125 312h177z" />
    <glyph glyph-name="acutecomb" unicode="&#x301;" 
d="M-384 1236l201 312h177l-247 -312h-131z" />
    <glyph glyph-name="uni0302" unicode="&#x302;" 
d="M-195 1236h-136l-150 210l-231 -210h-159l305 312h188z" />
    <glyph glyph-name="tildecomb" unicode="&#x303;" 
d="M-326 1251q-44 0 -80 15.5t-54 32t-43 46.5q-26 34 -47 50t-51 16q-95 0 -122 -151h-107q53 271 250 271q42 0 75 -14.5t50 -31t40 -47.5q28 -35 50.5 -51.5t57.5 -16.5q95 0 121 147h107q-26 -132 -89.5 -199t-157.5 -67z" />
    <glyph glyph-name="uni0304" unicode="&#x304;" 
d="M-684 1332l28 133h641l-28 -133h-641z" />
    <glyph glyph-name="uni0306" unicode="&#x306;" 
d="M-405 1226q-127 0 -202.5 67.5t-75.5 181.5q0 23 8 73h131q-7 -38 -7 -60q0 -74 41.5 -111.5t117.5 -37.5q94 0 153.5 54.5t79.5 154.5h134q-29 -153 -130 -237.5t-250 -84.5z" />
    <glyph glyph-name="uni0307" unicode="&#x307;" 
d="M-355 1302l40 193h181l-39 -193h-182z" />
    <glyph glyph-name="uni0308" unicode="&#x308;" 
d="M-758 1302l39 193h192l-39 -193h-192zM-359 1302l39 193h192l-39 -193h-192z" />
    <glyph glyph-name="uni030A" unicode="&#x30a;" 
d="M-285 1208q-85 0 -137 51t-52 129q0 112 76.5 184.5t190.5 72.5q86 0 138 -51t52 -131q0 -109 -77.5 -182t-190.5 -73zM-271 1303q66 0 111.5 43.5t45.5 108.5q0 45 -29 71t-78 26q-66 0 -111 -43.5t-45 -110.5q0 -44 28.5 -69.5t77.5 -25.5z" />
    <glyph glyph-name="uni030B" unicode="&#x30b;" 
d="M-793 1236l192 312h169l-233 -312h-128zM-437 1236l218 312h164l-258 -312h-124z" />
    <glyph glyph-name="uni030C" unicode="&#x30c;" 
d="M-267 1548h162l-306 -312h-188l-182 312h147l140 -214z" />
    <glyph glyph-name="uni0312" unicode="&#x312;" 
d="M-617 1298l28 146q13 69 71.5 122.5t134.5 65.5l-17 -79q-39 -8 -64.5 -33.5t-33.5 -62.5h87l-32 -159h-174z" />
    <glyph glyph-name="uni0326" unicode="&#x326;" 
d="M-444 -453l17 80q39 8 64.5 34t33.5 64h-86l32 159h174l-29 -146q-14 -70 -72 -124.5t-134 -66.5z" />
    <glyph glyph-name="uni0327" unicode="&#x327;" 
d="M-532 -90q73 -10 116.5 -55.5t43.5 -108.5q0 -100 -74.5 -160t-191.5 -60h-157l18 100h130q63 0 104.5 34t41.5 84q0 36 -27.5 57.5t-74.5 21.5h-60l-14 18l98 214h117z" />
    <glyph glyph-name="uni0328" unicode="&#x328;" 
d="M-625 -466q-93 0 -146 45.5t-53 120.5q0 122 122.5 238t302.5 171l-13 -90q-111 -31 -195.5 -107.5t-84.5 -158.5q0 -49 35.5 -77.5t97.5 -28.5q52 0 105 22l-20 -101q-76 -34 -151 -34z" />
    <glyph glyph-name="uni0335" unicode="&#x335;" 
d="M-874 1257l27 136h743l-27 -136h-743z" />
    <glyph glyph-name="uni0337" unicode="&#x337;" 
d="M-835 490l33 161l654 342l-33 -161z" />
    <glyph glyph-name="tonos" unicode="&#x384;" horiz-adv-x="727" 
d="M342 1236l201 312h177l-247 -312h-131z" />
    <glyph glyph-name="dieresistonos" unicode="&#x385;" horiz-adv-x="911" 
d="M350 1236l162 312h158l-192 -312h-128zM142 1327l29 147h159l-29 -147h-159zM693 1327l29 147h159l-29 -147h-159z" />
    <glyph glyph-name="Alphatonos" unicode="&#x386;" horiz-adv-x="1468" 
d="M1147 0l-76 349h-694l-212 -349h-192l875 1434h160l318 -1434h-179zM589 1434l-254 -291h-132l207 291h179zM885 1201l-419 -700h571z" />
    <glyph glyph-name="Epsilontonos" unicode="&#x388;" horiz-adv-x="1378" 
d="M312 1434h179l-254 -291h-132zM1402 1273h-637l-91 -458h585l-33 -155h-584l-100 -498h661l-33 -162h-831l287 1434h809z" />
    <glyph glyph-name="Etatonos" unicode="&#x389;" horiz-adv-x="1744" 
d="M312 1434h179l-254 -291h-132zM1552 1434h171l-286 -1434h-171l132 662h-755l-133 -662h-171l287 1434h171l-123 -617h755z" />
    <glyph glyph-name="Iotatonos" unicode="&#x38a;" horiz-adv-x="819" 
d="M105 1143l207 291h179l-254 -291h-132zM339 0l287 1434h171l-287 -1434h-171z" />
    <glyph glyph-name="Omicrontonos" unicode="&#x38c;" horiz-adv-x="1878" 
d="M929 -24q-187 0 -330.5 80t-220 218.5t-76.5 314.5t68.5 336t186 277.5t284.5 186.5t355 69q187 0 330.5 -80t220 -218.5t76.5 -314.5t-68 -336t-186 -277.5t-285 -186.5t-355 -69zM120 1143l206 291h179l-254 -291h-131zM955 142q147 0 277 56t221 150t144 220.5
t53 263.5q0 204 -132 332t-349 128q-146 0 -276.5 -56.5t-221 -150.5t-143.5 -219.5t-53 -261.5q0 -206 131.5 -334t348.5 -128z" />
    <glyph glyph-name="Upsilontonos" unicode="&#x38e;" horiz-adv-x="1734" 
d="M223 1143l207 291h179l-255 -291h-131zM1861 1434l-704 -863l-114 -571h-177l114 571l-354 863h177l288 -701l571 701h199z" />
    <glyph glyph-name="Omegatonos" unicode="&#x38f;" horiz-adv-x="1867" 
d="M1772 855q0 -210 -107 -392.5t-293 -305.5h282l-33 -157h-636l30 154q163 43 296 146t210.5 248.5t77.5 303.5q0 192 -132.5 316t-344.5 124q-136 0 -264 -56t-221.5 -148t-149.5 -215.5t-56 -252.5q0 -166 90.5 -291.5t249.5 -174.5l-31 -154h-637l33 157h325
q-96 88 -149.5 206.5t-53.5 256.5q0 169 69.5 324.5t187 267.5t279.5 179t338 67q184 0 331 -79.5t228 -217t81 -306.5zM551 1434l-255 -291h-131l207 291h179z" />
    <glyph glyph-name="iotadieresistonos" unicode="&#x390;" horiz-adv-x="692" 
d="M322 1236l137 312h146l-174 -312h-109zM111 1327l31 147h158l-30 -147h-159zM623 1327l31 147h159l-31 -147h-159zM443 -6q-151 0 -239 77.5t-88 211.5q0 29 12 94t61 308t85 421h166q-34 -171 -81 -405q-50 -249 -60.5 -305.5t-10.5 -81.5q0 -79 50 -122t144 -43h115
l-32 -155h-122z" />
    <glyph glyph-name="Alpha" unicode="&#x391;" horiz-adv-x="1425" 
d="M1104 0l-76 349h-695l-212 -349h-191l875 1434h159l318 -1434h-178zM842 1201l-419 -700h570z" />
    <glyph glyph-name="Beta" unicode="&#x392;" horiz-adv-x="1327" 
d="M1024 735q74 -35 114 -106t40 -163q0 -97 -40.5 -184t-109 -148.5t-162 -97.5t-196.5 -36h-583l287 1434h558q151 0 245.5 -89t94.5 -222q0 -117 -71.5 -225.5t-176.5 -162.5zM1087 1091q0 79 -52.5 129.5t-137.5 50.5h-387l-90 -451h390q110 0 193.5 81t83.5 190z
M684 164q130 0 221 88.5t91 209.5q0 89 -58.5 145t-153.5 56h-395l-100 -499h395z" />
    <glyph glyph-name="Gamma" unicode="&#x393;" horiz-adv-x="1009" 
d="M1140 1434l-32 -150h-592l-258 -1284h-171l287 1434h766z" />
    <glyph glyph-name="uni0394" unicode="&#x394;" horiz-adv-x="1425" 
d="M956 1434l326 -1434h-1352l876 1434h150zM844 1185l-617 -1030h832z" />
    <glyph glyph-name="Epsilon" unicode="&#x395;" horiz-adv-x="1126" 
d="M1150 1273h-637l-91 -458h585l-32 -155h-585l-99 -498h660l-33 -162h-831l287 1434h809z" />
    <glyph glyph-name="Zeta" unicode="&#x396;" horiz-adv-x="1144" 
d="M1249 1434l-7 -33l-994 -1244h770l-33 -157h-1043l5 30l996 1247h-715l32 157h989z" />
    <glyph glyph-name="Eta" unicode="&#x397;" horiz-adv-x="1492" 
d="M1300 1434h172l-287 -1434h-171l132 662h-755l-133 -662h-171l287 1434h171l-123 -617h755z" />
    <glyph glyph-name="Theta" unicode="&#x398;" horiz-adv-x="1697" 
d="M748 -24q-187 0 -330.5 80t-220 218.5t-76.5 314.5t68.5 336t186 277.5t284.5 186.5t355 69q187 0 330.5 -80t220 -218.5t76.5 -314.5t-68 -336t-186 -277.5t-285 -186.5t-355 -69zM775 142q148 0 278.5 56.5t220.5 151t142.5 220.5t52.5 262q0 204 -132 332t-349 128
q-148 0 -278.5 -57t-220.5 -151.5t-142.5 -219.5t-52.5 -260q0 -205 132 -333.5t349 -128.5zM464 636l32 162h796l-32 -162h-796z" />
    <glyph glyph-name="Iota" unicode="&#x399;" horiz-adv-x="567" 
d="M87 0l287 1434h171l-287 -1434h-171z" />
    <glyph glyph-name="Kappa" unicode="&#x39a;" horiz-adv-x="1286" 
d="M1419 1434l-667 -707l428 -727h-201l-388 661h-200l-133 -661h-171l287 1434h171l-122 -612h193l574 612h229z" />
    <glyph glyph-name="Lambda" unicode="&#x39b;" horiz-adv-x="1366" 
d="M1220 0h-175l-225 1185l-695 -1185h-191l849 1434h159z" />
    <glyph glyph-name="Mu" unicode="&#x39c;" horiz-adv-x="1955" 
d="M1632 1434h170l-48 -1434h-168l37 1132l-717 -1093h-47l-279 1093l-417 -1132h-181l527 1434h163l266 -1067z" />
    <glyph glyph-name="Nu" unicode="&#x39d;" horiz-adv-x="1533" 
d="M1340 1434h173l-287 -1434h-141l-599 1131l-226 -1131h-173l287 1434h151l591 -1120z" />
    <glyph glyph-name="Xi" unicode="&#x39e;" horiz-adv-x="1163" 
d="M267 1275l34 163h918l-34 -163h-918zM225 655l34 164h759l-35 -164h-758zM-2 4l34 166h949l-34 -166h-949z" />
    <glyph glyph-name="Omicron" unicode="&#x39f;" horiz-adv-x="1697" 
d="M748 -24q-187 0 -330.5 80t-220 218.5t-76.5 314.5t68.5 336t186 277.5t284.5 186.5t355 69q187 0 330.5 -80t220 -218.5t76.5 -314.5t-68 -336t-186 -277.5t-285 -186.5t-355 -69zM775 142q147 0 277 56t220.5 150t143.5 220.5t53 263.5q0 204 -132 332t-349 128
q-146 0 -276.5 -56.5t-221 -150.5t-143.5 -219.5t-53 -261.5q0 -206 132 -334t349 -128z" />
    <glyph glyph-name="Pi" unicode="&#x3a0;" horiz-adv-x="1435" 
d="M374 1434h1040l-287 -1434h-173l256 1277h-696l-256 -1277h-171z" />
    <glyph glyph-name="Rho" unicode="&#x3a1;" horiz-adv-x="1247" 
d="M873 1434q178 0 290 -107t112 -272q0 -145 -75 -268.5t-204 -195.5t-280 -72h-353l-105 -519h-171l287 1434h499zM721 682q154 0 267.5 109t113.5 256q0 102 -68 163t-185 61h-336l-118 -589h326z" />
    <glyph glyph-name="Sigma" unicode="&#x3a3;" horiz-adv-x="1142" 
d="M1230 1434l-32 -161h-717l303 -522l-7 -37l-493 -553h710l-32 -161h-1028l8 40l642 722l-358 631l7 41h997z" />
    <glyph glyph-name="Tau" unicode="&#x3a4;" horiz-adv-x="1122" 
d="M1256 1434l-32 -157h-438l-255 -1277h-171l255 1277h-439l32 157h1048z" />
    <glyph glyph-name="Upsilon" unicode="&#x3a5;" horiz-adv-x="1339" 
d="M1465 1434l-703 -863l-115 -571h-176l114 571l-354 863h177l287 -701l572 701h198z" />
    <glyph glyph-name="Phi" unicode="&#x3a6;" horiz-adv-x="1656" 
d="M1608 820q0 -204 -105.5 -376t-286.5 -274t-398 -108l-34 -167h-172l35 169q-127 10 -229.5 58.5t-167 124t-99 170.5t-34.5 201q0 208 104 379t285.5 272t403.5 109l30 154h171l-30 -154q245 -15 386 -173.5t141 -384.5zM680 221l200 1001q-118 -7 -227.5 -60
t-188.5 -136t-126.5 -192t-47.5 -222q0 -167 105 -276.5t285 -114.5zM848 222q160 6 296 92t213.5 223t77.5 291q0 168 -103.5 277t-283.5 116z" />
    <glyph glyph-name="Chi" unicode="&#x3a7;" horiz-adv-x="1224" 
d="M1346 1434l-587 -689l340 -745h-184l-277 609l-519 -609h-212l640 751l-314 683h184l253 -551l470 551h206z" />
    <glyph glyph-name="Psi" unicode="&#x3a8;" horiz-adv-x="1630" 
d="M1525 1434h171l-100 -505q-53 -263 -241 -418.5t-457 -155.5h-42l-71 -355h-173l71 355h-7q-230 0 -368.5 132.5t-138.5 344.5q0 24 2 47.5t5 46.5t13 73.5t19 95t29.5 146t38.5 193.5h171q-16 -81 -33 -166t-26.5 -129.5t-19 -92t-13.5 -70.5t-7.5 -48t-4.5 -40.5
t-1 -32.5q0 -151 93.5 -237t259.5 -86h26l182 902h165l-181 -902h27q198 0 337 117.5t180 316.5z" />
    <glyph glyph-name="uni03A9" unicode="&#x3a9;" horiz-adv-x="1765" 
d="M1670 855q0 -210 -107 -392.5t-293 -305.5h282l-33 -157h-636l30 154q163 43 296 146t210.5 248.5t77.5 303.5q0 192 -132.5 316t-344.5 124q-136 0 -264 -56t-221 -148t-149 -215.5t-56 -252.5q0 -166 90 -291.5t249 -174.5l-31 -154h-637l33 157h326
q-96 88 -149.5 206.5t-53.5 256.5q0 169 69.5 324.5t186.5 267.5t279 179t338 67q184 0 331 -79.5t228 -217t81 -306.5z" />
    <glyph glyph-name="Iotadieresis" unicode="&#x3aa;" horiz-adv-x="567" 
d="M273 1634l36 176h183l-36 -176h-183zM543 1634l36 176h184l-36 -176h-184zM87 0l287 1434h171l-287 -1434h-171z" />
    <glyph glyph-name="Upsilondieresis" unicode="&#x3ab;" horiz-adv-x="1339" 
d="M780 1829l-38 -193h-192l38 193h192zM1222 1829l-37 -193h-192l37 193h192zM1465 1434l-703 -863l-115 -571h-176l114 571l-354 863h177l287 -701l572 701h198z" />
    <glyph glyph-name="alphatonos" unicode="&#x3ac;" horiz-adv-x="1429" 
d="M1114 1548l-247 -312h-132l202 312h177zM1230 1106h133l-222 -1106h-137l15 161q-92 -87 -211 -136t-251 -49q-214 0 -346 132.5t-132 340.5q0 135 54 260t145 217.5t217.5 148t264.5 55.5q139 0 244 -56.5t165 -158.5zM587 135q100 0 193.5 43t161.5 113.5t108.5 165.5
t40.5 195q0 144 -92 231.5t-246 87.5q-133 0 -250 -72t-186 -191t-69 -252q0 -144 93 -232.5t246 -88.5z" />
    <glyph glyph-name="epsilontonos" unicode="&#x3ad;" horiz-adv-x="995" 
d="M928 1548l-247 -312h-131l201 312h177zM440 128q107 0 185 47t107 127h159q-30 -148 -155.5 -237t-300.5 -89q-168 0 -274.5 87t-106.5 220q0 103 57 184t157 124q-90 66 -90 193q0 157 123.5 251.5t308.5 94.5q160 0 256 -81.5t98 -216.5h-150q1 74 -53.5 118t-148.5 44
q-120 0 -198.5 -60t-78.5 -155q0 -61 44.5 -97.5t120.5 -36.5h166l-25 -125h-166q-107 0 -182.5 -66t-75.5 -162q0 -74 60.5 -119t162.5 -45z" />
    <glyph glyph-name="etatonos" unicode="&#x3ae;" horiz-adv-x="1314" 
d="M1119 1548l-247 -312h-131l201 312h177zM843 1130q166 0 257.5 -90t91.5 -251q0 -46 -14 -123.5t-81 -409.5q-22 -110 -36.5 -180.5t-41.5 -204.5t-53 -265h-166q198 985 207 1035q9 56 9 92q0 115 -62.5 175.5t-182.5 60.5q-144 0 -261 -101t-152 -251l-123 -617h-166
l221 1106h118l-3 -178q82 95 195.5 148.5t242.5 53.5z" />
    <glyph glyph-name="iotatonos" unicode="&#x3af;" horiz-adv-x="692" 
d="M297 1236l201 312h177l-247 -312h-131zM443 -6q-151 0 -239 77.5t-88 211.5q0 29 12 94t61 308t85 421h166q-34 -171 -81 -405q-50 -249 -60.5 -305.5t-10.5 -81.5q0 -79 50 -122t144 -43h115l-32 -155h-122z" />
    <glyph glyph-name="upsilondieresistonos" unicode="&#x3b0;" horiz-adv-x="1292" 
d="M667 1236l162 312h158l-192 -312h-128zM459 1327l29 147h158l-29 -147h-158zM1010 1327l29 147h158l-28 -147h-159zM548 -24q-192 0 -304 104t-115 281q0 13 0.5 24t3 29.5t5 35t9 50.5t13 66t18.5 91t23.5 115t30.5 149.5t37 184.5h166q-17 -86 -34 -171l-28 -140
t-21.5 -109.5t-17 -87t-13 -64.5t-9.5 -49.5t-5.5 -33.5t-3.5 -26.5t-1.5 -19t-0.5 -18.5q0 -119 69 -185.5t193 -66.5q153 0 258 95t137 258l122 618h166l-131 -648q-45 -225 -194 -353.5t-373 -128.5z" />
    <glyph glyph-name="alpha" unicode="&#x3b1;" horiz-adv-x="1429" 
d="M1230 1106h133l-222 -1106h-137l15 161q-92 -87 -211 -136t-251 -49q-214 0 -346 132.5t-132 340.5q0 135 54 260t145 217.5t217.5 148t264.5 55.5q139 0 244 -56.5t165 -158.5zM587 135q100 0 193.5 43t161.5 113.5t108.5 165.5t40.5 195q0 144 -92 231.5t-246 87.5
q-133 0 -250 -72t-186 -191t-69 -252q0 -144 93 -232.5t246 -88.5z" />
    <glyph glyph-name="beta" unicode="&#x3b2;" horiz-adv-x="1275" 
d="M1000 768q164 -73 164 -277q0 -149 -76.5 -267.5t-206.5 -183t-289 -64.5q-203 0 -346 90l-88 -439h-166l268 1342q109 555 577 555q183 0 296.5 -99t113.5 -251q0 -125 -68 -237.5t-179 -168.5zM581 135q180 0 301 98.5t121 252.5q0 98 -68 157.5t-183 59.5h-212l29 150
h206q134 0 229 88t95 216q0 99 -70 157.5t-192 58.5q-161 0 -267 -108.5t-147 -313.5l-146 -727q127 -89 304 -89z" />
    <glyph glyph-name="gamma" unicode="&#x3b3;" horiz-adv-x="1157" 
d="M1232 1106l-665 -1050l-89 -445h-162l88 442l-263 1053h168l206 -846l531 846h186z" />
    <glyph glyph-name="delta" unicode="&#x3b4;" horiz-adv-x="1247" 
d="M1271 1455l-29 -147h-621q234 -115 385 -306t151 -409q2 -168 -79 -310t-225 -224.5t-318 -82.5q-203 0 -333.5 125.5t-130.5 316.5q0 154 79.5 292t215.5 221t291 83q106 0 186 -37q-195 212 -557 328l29 150h956zM542 130q124 0 230.5 63t167 166.5t60.5 220.5
q0 131 -84.5 212.5t-224.5 81.5q-124 0 -230.5 -63.5t-167 -167.5t-60.5 -221q0 -130 84 -211t225 -81z" />
    <glyph glyph-name="epsilon" unicode="&#x3b5;" horiz-adv-x="995" 
d="M440 128q107 0 185 47t107 127h159q-30 -148 -155.5 -237t-300.5 -89q-168 0 -274.5 87t-106.5 220q0 103 57 184t157 124q-90 66 -90 193q0 157 123.5 251.5t308.5 94.5q160 0 256 -81.5t98 -216.5h-150q1 74 -53.5 118t-148.5 44q-120 0 -198.5 -60t-78.5 -155
q0 -61 44.5 -97.5t120.5 -36.5h166l-25 -125h-166q-107 0 -182.5 -66t-75.5 -162q0 -74 60.5 -119t162.5 -45z" />
    <glyph glyph-name="zeta" unicode="&#x3b6;" horiz-adv-x="1034" 
d="M1195 1379q-240 -159 -407.5 -284t-297.5 -246.5t-192.5 -228t-62.5 -203.5q0 -65 33.5 -114t87 -78.5t118.5 -54.5t130 -49.5t118.5 -55t87 -80.5t33.5 -116q0 -52 -24 -128.5t-53 -134.5h-161q23 46 43 105.5t20 93.5q0 45 -26 80.5t-68.5 58.5t-97 47t-111.5 44
t-111.5 51.5t-97 68t-68.5 94t-26 129.5q0 75 24 152t63 145t102 142t126.5 136t152.5 134.5t164 128.5t175 127h-567l33 157h883z" />
    <glyph glyph-name="eta" unicode="&#x3b7;" horiz-adv-x="1314" 
d="M843 1130q166 0 257.5 -90t91.5 -251q0 -46 -14 -123.5t-81 -409.5q-22 -110 -36.5 -180.5t-41.5 -204.5t-53 -265h-166q198 985 207 1035q9 56 9 92q0 115 -62.5 175.5t-182.5 60.5q-144 0 -261 -101t-152 -251l-123 -617h-166l221 1106h118l-3 -178q82 95 195.5 148.5
t242.5 53.5z" />
    <glyph glyph-name="theta" unicode="&#x3b8;" horiz-adv-x="1425" 
d="M882 1512q232 0 359.5 -155.5t127.5 -412.5q0 -146 -34 -288t-100.5 -264.5t-157 -215.5t-211.5 -146.5t-256 -53.5q-233 0 -359 155t-126 411q0 147 33.5 289.5t99.5 265t156.5 215.5t211.5 146.5t256 53.5zM866 1353q-99 0 -187 -42t-155 -116t-116 -168t-79 -203h866
q8 67 8 125q0 192 -88 298t-249 106zM625 135q98 0 186.5 42.5t156 117t117.5 169t80 204.5h-866q-8 -70 -8 -130q0 -191 87.5 -297t246.5 -106z" />
    <glyph glyph-name="iota" unicode="&#x3b9;" horiz-adv-x="692" 
d="M443 -6q-151 0 -239 77.5t-88 211.5q0 29 12 94t61 308t85 421h166q-34 -171 -81 -405q-50 -249 -60.5 -305.5t-10.5 -81.5q0 -79 50 -122t144 -43h115l-32 -155h-122z" />
    <glyph glyph-name="kappa" unicode="&#x3ba;" horiz-adv-x="1097" 
d="M1171 1106l-514 -530l333 -576h-188l-289 500h-178l-100 -500h-166l221 1106h166l-91 -453h150l439 453h217z" />
    <glyph glyph-name="lambda" unicode="&#x3bb;" horiz-adv-x="1153" 
d="M999 0h-171l-174 835l-551 -835h-191l692 1043l-21 81q-30 112 -66.5 145t-125.5 33h-62l30 156h75q134 0 205 -77t109 -252z" />
    <glyph glyph-name="uni03BC" unicode="&#x3bc;" horiz-adv-x="1331" 
d="M1099 1106h166l-221 -1106h-113l5 177q-83 -87 -196 -143t-225 -56q-185 0 -270 94l-93 -466h-163l301 1500h166q-20 -100 -41 -203t-32.5 -160.5t-23.5 -116.5t-17.5 -89l-11 -60t-7.5 -46.5t-3 -31.5t-1 -31q0 -112 59 -171t175 -59q144 0 269 104t155 249z" />
    <glyph glyph-name="nu" unicode="&#x3bd;" horiz-adv-x="1165" 
d="M1063 1106h177l-689 -1106h-151l-259 1106h166l203 -890z" />
    <glyph glyph-name="xi" unicode="&#x3be;" horiz-adv-x="1056" 
d="M763 1513q183 0 300.5 -112.5t97.5 -272.5h-161q0 115 -66.5 176t-178.5 61q-145 0 -245.5 -88.5t-100.5 -215.5q0 -86 56.5 -138.5t150.5 -52.5h202l-31 -148h-204q-140 0 -241.5 -103.5t-101.5 -236.5q0 -32 10 -60.5t22.5 -49t39.5 -41t46 -33t57.5 -29t58 -24
t63.5 -23.5q49 -17 74.5 -27.5t67 -29t64 -36.5t46.5 -43t34.5 -56.5t10.5 -68.5q0 -51 -23.5 -123t-53.5 -132h-168q24 43 43.5 105t19.5 92q0 56 -51 94.5t-180 83.5q-183 63 -271 150.5t-88 216.5q0 153 85.5 275t230.5 176q-68 37 -106 106.5t-38 154.5q0 132 71 236.5
t191.5 160.5t266.5 56z" />
    <glyph glyph-name="omicron" unicode="&#x3bf;" horiz-adv-x="1343" 
d="M569 -24q-220 0 -355 133t-135 342q0 137 55.5 262.5t148.5 216.5t222 145.5t269 54.5q220 0 355 -133t135 -342q0 -137 -55.5 -262.5t-148.5 -216.5t-222 -145.5t-269 -54.5zM588 135q137 0 254.5 71t184.5 190t67 255q0 146 -92.5 233t-247.5 87q-102 0 -196 -42
t-162 -111.5t-108 -164.5t-40 -198q0 -146 92.5 -233t247.5 -87z" />
    <glyph glyph-name="pi" unicode="&#x3c0;" horiz-adv-x="1292" 
d="M290 1106h936l-222 -1106h-164l192 956h-605l-192 -956h-166z" />
    <glyph glyph-name="rho" unicode="&#x3c1;" horiz-adv-x="1374" 
d="M823 1128q210 0 341.5 -134t131.5 -338q0 -179 -90 -335.5t-246.5 -250.5t-339.5 -94q-117 0 -220.5 52.5t-160.5 134.5l-112 -557h-167l191 952q52 257 236 413.5t436 156.5zM633 135q103 0 196 43.5t158.5 114.5t104 164.5t38.5 191.5q0 144 -89.5 232t-239.5 88
q-137 0 -252.5 -73t-180 -190.5t-64.5 -248.5q0 -144 89.5 -233t239.5 -89z" />
    <glyph glyph-name="uni03C2" unicode="&#x3c2;" horiz-adv-x="1218" 
d="M734 -394q64 133 64 200q0 27 -9 49.5t-30.5 41t-41 31t-58 27t-62 22t-72.5 21.5q-52 15 -89 27.5t-87 34t-84 44t-71 57t-59.5 74t-37 94t-14.5 118.5q0 188 88.5 344t245.5 246.5t349 90.5q194 0 319.5 -105.5t149.5 -286.5h-164q-29 113 -114.5 173t-210.5 60
q-101 0 -193 -40t-157 -106.5t-103.5 -156.5t-38.5 -187q0 -36 7.5 -68t17.5 -57t31 -48t37.5 -39t47.5 -33t51.5 -26.5t58.5 -23t58.5 -20t61.5 -18.5q3 -1 5.5 -1.5t4.5 -1.5q71 -21 125 -44t104.5 -56.5t78 -79.5t27.5 -101q0 -44 -24.5 -120t-52.5 -136h-159z" />
    <glyph glyph-name="sigma" unicode="&#x3c3;" horiz-adv-x="1411" 
d="M1479 1109l-30 -151h-335q62 -55 95.5 -140t33.5 -183q0 -180 -91.5 -331.5t-249 -239.5t-343.5 -88q-214 0 -346.5 132.5t-132.5 336.5q0 183 91 335.5t248.5 240.5t346.5 88h713zM581 135q138 0 253 69.5t180 185.5t65 250q0 144 -90 231t-243 87q-104 0 -197.5 -41.5
t-159 -111t-103.5 -161.5t-38 -190q0 -144 90 -231.5t243 -87.5z" />
    <glyph glyph-name="tau" unicode="&#x3c4;" horiz-adv-x="976" 
d="M980 956h-365q-116 -578 -120 -615q-2 -14 -2 -27q0 -79 50 -122t144 -43h116l-31 -155h-124q-151 0 -238.5 77.5t-87.5 211.5q0 44 95 513q20 101 32 160h-350l31 150h880z" />
    <glyph glyph-name="upsilon" unicode="&#x3c5;" horiz-adv-x="1292" 
d="M548 -24q-192 0 -304 104t-115 281q0 13 0.5 24t3 29.5t5 35t9 50.5t13 66t18.5 91t23.5 115t30.5 149.5t37 184.5h166q-17 -86 -34 -171l-28 -140t-21.5 -109.5t-17 -87t-13 -64.5t-9.5 -49.5t-5.5 -33.5t-3.5 -26.5t-1.5 -19t-0.5 -18.5q0 -119 69 -185.5t193 -66.5
q153 0 258 95t137 258l122 618h166l-131 -648q-45 -225 -194 -353.5t-373 -128.5z" />
    <glyph glyph-name="phi" unicode="&#x3c6;" horiz-adv-x="1501" 
d="M1421 646q0 -188 -92 -339t-252 -237.5t-358 -91.5l-75 -372h-162l75 372q-209 7 -343.5 141.5t-134.5 334.5q0 224 146 402.5t375 246.5l18 -141q-167 -60 -269 -198.5t-102 -301.5q0 -140 93 -228.5t249 -94.5l193 967h138q223 0 362 -128.5t139 -331.5zM748 139
q140 5 256 72t182.5 178t66.5 242q0 139 -93 224.5t-251 91.5z" />
    <glyph glyph-name="chi" unicode="&#x3c7;" horiz-adv-x="1044" 
d="M1111 1106l-485 -535l296 -571h-177l-230 450l-406 -450h-203l523 576l-267 530h177l205 -414l370 414h197z" />
    <glyph glyph-name="psi" unicode="&#x3c8;" horiz-adv-x="1607" 
d="M1400 1106h166l-120 -598q-47 -240 -219.5 -385t-407.5 -145h-42l-75 -372h-177l75 372h-18q-199 0 -321 123.5t-122 318.5q0 17 1 32.5t2.5 31t6.5 44.5t10 55.5t16 82t21.5 106.5t30 147.5t37.5 186.5h166q-113 -561 -119 -605q-4 -32 -4 -58q0 -136 83 -221t220 -85
h31l192 967h164l-192 -967h29q161 0 289.5 112t161.5 281z" />
    <glyph glyph-name="omega" unicode="&#x3c9;" horiz-adv-x="1810" 
d="M1685 1106q33 -138 33 -306q0 -127 -20 -245.5t-62.5 -223.5t-104 -183.5t-150.5 -124t-196 -45.5q-143 0 -232 65.5t-104 174.5q-60 -109 -176 -174.5t-257 -65.5q-155 0 -240 105t-85 291q0 325 251 732h175q-108 -161 -182 -354t-74 -347q0 -129 52.5 -199.5
t151.5 -70.5q122 0 216.5 85t120.5 215l75 376h154q-77 -386 -80 -413q-1 -14 -1 -30q0 -104 62 -169.5t163 -65.5q76 0 140 39.5t107 105t73 151.5t43.5 177t13.5 184q0 162 -40 316h173z" />
    <glyph glyph-name="iotadieresis" unicode="&#x3ca;" horiz-adv-x="692" 
d="M94 1302l39 193h192l-39 -193h-192zM493 1302l39 193h192l-39 -193h-192zM443 -6q-151 0 -239 77.5t-88 211.5q0 29 12 94t61 308t85 421h166q-34 -171 -81 -405q-50 -249 -60.5 -305.5t-10.5 -81.5q0 -79 50 -122t144 -43h115l-32 -155h-122z" />
    <glyph glyph-name="upsilondieresis" unicode="&#x3cb;" horiz-adv-x="1292" 
d="M490 1302l39 193h192l-39 -193h-192zM889 1302l39 193h192l-39 -193h-192zM548 -24q-192 0 -304 104t-115 281q0 13 0.5 24t3 29.5t5 35t9 50.5t13 66t18.5 91t23.5 115t30.5 149.5t37 184.5h166q-17 -86 -34 -171l-28 -140t-21.5 -109.5t-17 -87t-13 -64.5t-9.5 -49.5
t-5.5 -33.5t-3.5 -26.5t-1.5 -19t-0.5 -18.5q0 -119 69 -185.5t193 -66.5q153 0 258 95t137 258l122 618h166l-131 -648q-45 -225 -194 -353.5t-373 -128.5z" />
    <glyph glyph-name="omicrontonos" unicode="&#x3cc;" horiz-adv-x="1343" 
d="M718 1236l201 312h178l-247 -312h-132zM569 -24q-220 0 -355 133t-135 342q0 137 55.5 262.5t148.5 216.5t222 145.5t269 54.5q220 0 355 -133t135 -342q0 -137 -55.5 -262.5t-148.5 -216.5t-222 -145.5t-269 -54.5zM588 135q137 0 254.5 71t184.5 190t67 255
q0 146 -92.5 233t-247.5 87q-102 0 -196 -42t-162 -111.5t-108 -164.5t-40 -198q0 -146 92.5 -233t247.5 -87z" />
    <glyph glyph-name="upsilontonos" unicode="&#x3cd;" horiz-adv-x="1292" 
d="M692 1236l202 312h177l-247 -312h-132zM548 -24q-192 0 -304 104t-115 281q0 13 0.5 24t3 29.5t5 35t9 50.5t13 66t18.5 91t23.5 115t30.5 149.5t37 184.5h166q-17 -86 -34 -171l-28 -140t-21.5 -109.5t-17 -87t-13 -64.5t-9.5 -49.5t-5.5 -33.5t-3.5 -26.5t-1.5 -19
t-0.5 -18.5q0 -119 69 -185.5t193 -66.5q153 0 258 95t137 258l122 618h166l-131 -648q-45 -225 -194 -353.5t-373 -128.5z" />
    <glyph glyph-name="omegatonos" unicode="&#x3ce;" horiz-adv-x="1810" 
d="M1335 1548l-247 -312h-131l201 312h177zM1685 1106q33 -138 33 -306q0 -127 -20 -245.5t-62.5 -223.5t-104 -183.5t-150.5 -124t-196 -45.5q-143 0 -232 65.5t-104 174.5q-60 -109 -176 -174.5t-257 -65.5q-155 0 -240 105t-85 291q0 325 251 732h175
q-108 -161 -182 -354t-74 -347q0 -129 52.5 -199.5t151.5 -70.5q122 0 216.5 85t120.5 215l75 376h154q-77 -386 -80 -413q-1 -14 -1 -30q0 -104 62 -169.5t163 -65.5q76 0 140 39.5t107 105t73 151.5t43.5 177t13.5 184q0 162 -40 316h173z" />
    <glyph glyph-name="uni0401" unicode="&#x401;" horiz-adv-x="1126" 
d="M740 1822l-39 -193h-192l39 193h192zM1139 1822l-39 -193h-192l39 193h192zM1150 1273h-637l-91 -458h585l-32 -155h-585l-99 -498h660l-33 -162h-831l287 1434h809z" />
    <glyph glyph-name="uni0402" unicode="&#x402;" horiz-adv-x="1501" 
d="M1007 966q189 0 300 -109.5t111 -286.5q0 -255 -172 -422t-437 -167h-14l34 168h13q116 0 210 55t144.5 146.5t50.5 198.5q0 113 -72.5 181t-202.5 68q-81 0 -164.5 -33.5t-148.5 -90.5l-135 -674h-171l254 1273h-430l33 161h1038l-33 -161h-436l-81 -403q147 96 309 96z
" />
    <glyph glyph-name="uni0403" unicode="&#x403;" horiz-adv-x="1009" 
d="M1039 1886l-255 -291h-131l208 291h178zM1140 1434l-32 -150h-592l-258 -1284h-171l287 1434h766z" />
    <glyph glyph-name="uni0404" unicode="&#x404;" horiz-adv-x="1595" 
d="M751 142q189 0 344.5 95t249.5 265h176q-95 -241 -309.5 -383.5t-476.5 -142.5q-183 0 -324.5 79.5t-216.5 217.5t-75 312t69.5 335t187 279t281 188.5t342.5 70.5q254 0 411 -136.5t190 -367.5h-173q-35 160 -151 249t-293 89q-226 0 -407 -139.5t-250 -351.5h697
l-31 -157h-698q-2 -36 -2 -55q0 -200 125.5 -323.5t333.5 -123.5z" />
    <glyph glyph-name="uni0405" unicode="&#x405;" horiz-adv-x="1218" 
d="M506 -23q-206 0 -325.5 96t-119.5 270q0 46 9 97h175q-7 -38 -7 -62q0 -111 84 -173.5t215 -62.5q102 0 190 39t141.5 109.5t53.5 156.5q0 39 -18 71t-44 53t-71 39.5t-82.5 29.5t-95.5 25q-51 12 -82.5 20.5t-78 24.5t-75.5 31.5t-62.5 40t-52.5 52t-32 65.5t-13 83
q0 144 76 253t205 165.5t290 56.5q191 0 296.5 -88t105.5 -243q0 -40 -10 -97h-169q7 35 7 59q0 96 -73 151.5t-192 55.5q-151 0 -257 -76.5t-106 -195.5q0 -37 17.5 -66.5t42.5 -48.5t70 -37.5t80.5 -28.5t94.5 -24q54 -13 84.5 -21.5t80 -25.5t78.5 -32.5t64.5 -41
t55 -54.5t33 -69.5t13.5 -88.5q0 -149 -80 -266t-215.5 -179.5t-300.5 -62.5z" />
    <glyph glyph-name="uni0406" unicode="&#x406;" horiz-adv-x="567" 
d="M87 0l287 1434h171l-287 -1434h-171z" />
    <glyph glyph-name="uni0407" unicode="&#x407;" horiz-adv-x="567" 
d="M273 1634l36 176h183l-36 -176h-183zM543 1634l36 176h184l-36 -176h-184zM87 0l287 1434h171l-287 -1434h-171z" />
    <glyph glyph-name="uni0408" unicode="&#x408;" horiz-adv-x="1214" 
d="M445 -24q-192 0 -305.5 109t-113.5 291q0 49 14 126h168q-11 -64 -11 -98q0 -120 68 -191t191 -71q139 0 250 100t140 249l188 943h173l-192 -972q-43 -217 -199 -351.5t-371 -134.5z" />
    <glyph glyph-name="uni0409" unicode="&#x409;" horiz-adv-x="2209" 
d="M1730 919q182 0 294.5 -108.5t112.5 -276.5q0 -112 -43.5 -211.5t-118 -170t-179 -111.5t-222.5 -41h-537l256 1277h-552l-235 -830q-127 -449 -517 -449h-57l34 170h55q117 0 192.5 68t115.5 207l285 991h749l-1 -1h133l-103 -514h338zM1579 161q160 0 272.5 107.5
t112.5 255.5q0 107 -72 172t-192 65h-339l-121 -600h339z" />
    <glyph glyph-name="uni040A" unicode="&#x40a;" horiz-adv-x="2072" 
d="M1598 856q182 0 289.5 -100t107.5 -255q0 -221 -151.5 -361t-388.5 -140h-531l138 686h-666l-138 -686h-171l287 1434h171l-118 -591h666l118 591l171 -1l-115 -577h331zM1465 159q159 0 258 93.5t99 237.5q0 97 -65.5 152t-183.5 55h-338l-108 -538h338z" />
    <glyph glyph-name="uni040B" unicode="&#x40b;" horiz-adv-x="1538" 
d="M1032 941q184 0 292.5 -100t108.5 -280q0 -17 -1 -33.5t-2.5 -32t-6 -42.5t-8.5 -49.5t-13.5 -69t-17 -84l-22.5 -112.5t-28 -138h-173q14 68 30 147t23.5 116.5t16.5 83.5t12.5 66t7 45t4.5 40t1 31q0 125 -72.5 187.5t-204.5 62.5q-127 0 -304 -59l-144 -720h-171
l255 1277h-439l32 157h1048l-32 -157h-438l-79 -395q173 59 325 59z" />
    <glyph glyph-name="uni040E" unicode="&#x40e;" horiz-adv-x="1241" 
d="M1104 1691l-25 -130h-580l26 130h579zM1178 1434h203l-648 -1011q-87 -136 -152 -216t-135.5 -129t-141 -65.5t-172.5 -16.5h-76l30 160h82q118 0 189 49t178 202l-343 1027h183l281 -842z" />
    <glyph glyph-name="uni040F" unicode="&#x40f;" horiz-adv-x="1474" 
d="M1452 1434l-286 -1434h-457l-57 -289h-169l57 289h-453l287 1434h171l-255 -1277h733l256 1277h173z" />
    <glyph glyph-name="uni0410" unicode="&#x410;" horiz-adv-x="1425" 
d="M1104 0l-76 349h-695l-212 -349h-191l875 1434h159l318 -1434h-178zM842 1201l-419 -700h570z" />
    <glyph glyph-name="uni0411" unicode="&#x411;" horiz-adv-x="1255" 
d="M1217 1273h-704l-78 -390h336q175 0 282.5 -102t107.5 -262q0 -141 -71.5 -260.5t-196.5 -189t-275 -69.5h-531l287 1434h875zM741 719h-338l-111 -555h334q151 0 256.5 100t105.5 237q0 99 -67 158.5t-180 59.5z" />
    <glyph glyph-name="uni0412" unicode="&#x412;" horiz-adv-x="1327" 
d="M1024 735q74 -35 114 -106t40 -163q0 -97 -40.5 -184t-109 -148.5t-162 -97.5t-196.5 -36h-583l287 1434h558q151 0 245.5 -89t94.5 -222q0 -117 -71.5 -225.5t-176.5 -162.5zM1087 1091q0 79 -52.5 129.5t-137.5 50.5h-387l-90 -451h390q110 0 193.5 81t83.5 190z
M684 164q130 0 221 88.5t91 209.5q0 89 -58.5 145t-153.5 56h-395l-100 -499h395z" />
    <glyph glyph-name="uni0413" unicode="&#x413;" horiz-adv-x="1009" 
d="M1140 1434l-32 -150h-592l-258 -1284h-171l287 1434h766z" />
    <glyph glyph-name="uni0414" unicode="&#x414;" horiz-adv-x="1550" 
d="M1490 1434l-256 -1277h151l-88 -441h-159l56 284h-1094l-56 -284h-159l89 441h105q42 22 73.5 51.5t68.5 93t69 142.5t80.5 227.5t99 319t128.5 443.5h892zM725 1278q-171 -614 -252 -829t-182 -292h770l225 1121h-561z" />
    <glyph glyph-name="uni0415" unicode="&#x415;" horiz-adv-x="1126" 
d="M1150 1273h-637l-91 -458h585l-32 -155h-585l-99 -498h660l-33 -162h-831l287 1434h809z" />
    <glyph glyph-name="uni0416" unicode="&#x416;" horiz-adv-x="1947" 
d="M2074 1434l-645 -708l406 -726h-202l-367 661h-183l-132 -661h-172l133 661h-160l-624 -661h-235l707 746l-367 688h193l328 -612h190l122 612h171l-122 -612h177l554 612h228z" />
    <glyph glyph-name="uni0417" unicode="&#x417;" horiz-adv-x="1177" 
d="M892 752q68 -39 105.5 -113t37.5 -164q0 -143 -77 -257.5t-206.5 -177t-283.5 -62.5q-187 0 -299 99.5t-115 273.5q0 41 1 49h164q-3 -20 -3 -39q0 -97 76.5 -159.5t191.5 -62.5q163 0 272 94.5t109 236.5q0 93 -62 150.5t-165 57.5h-168l30 150h169q122 0 209 84t87 197
q0 88 -67 140.5t-182 52.5q-118 0 -211 -63.5t-129 -165.5h-168q40 169 186 276.5t336 107.5q179 0 290 -92.5t111 -237.5q0 -113 -66.5 -217.5t-172.5 -157.5z" />
    <glyph glyph-name="uni0418" unicode="&#x418;" horiz-adv-x="1511" 
d="M1366 1434h125l-287 -1434h-171l217 1085l-1044 -1085h-119l287 1434h171l-215 -1076z" />
    <glyph glyph-name="uni0419" unicode="&#x419;" horiz-adv-x="1511" 
d="M1269 1691l-25 -130h-580l26 130h579zM1366 1434h125l-287 -1434h-171l217 1085l-1044 -1085h-119l287 1434h171l-215 -1076z" />
    <glyph glyph-name="uni041A" unicode="&#x41a;" horiz-adv-x="1286" 
d="M1419 1434l-667 -707l428 -727h-201l-388 661h-200l-133 -661h-171l287 1434h171l-122 -612h193l574 612h229z" />
    <glyph glyph-name="uni041B" unicode="&#x41b;" horiz-adv-x="1517" 
d="M613 1434h882l-286 -1434h-172l256 1277h-552l-239 -829q-66 -230 -191.5 -340t-322.5 -110h-56l34 170h54q227 0 320 320z" />
    <glyph glyph-name="uni041C" unicode="&#x41c;" horiz-adv-x="1955" 
d="M1632 1434h170l-48 -1434h-168l37 1132l-717 -1093h-47l-279 1093l-417 -1132h-181l527 1434h163l266 -1067z" />
    <glyph glyph-name="uni041D" unicode="&#x41d;" horiz-adv-x="1492" 
d="M1300 1434h172l-287 -1434h-171l132 662h-755l-133 -662h-171l287 1434h171l-123 -617h755z" />
    <glyph glyph-name="uni041E" unicode="&#x41e;" horiz-adv-x="1697" 
d="M748 -24q-187 0 -330.5 80t-220 218.5t-76.5 314.5t68.5 336t186 277.5t284.5 186.5t355 69q187 0 330.5 -80t220 -218.5t76.5 -314.5t-68 -336t-186 -277.5t-285 -186.5t-355 -69zM775 142q147 0 277 56t220.5 150t143.5 220.5t53 263.5q0 204 -132 332t-349 128
q-146 0 -276.5 -56.5t-221 -150.5t-143.5 -219.5t-53 -261.5q0 -206 132 -334t349 -128z" />
    <glyph glyph-name="uni041F" unicode="&#x41f;" horiz-adv-x="1435" 
d="M374 1434h1040l-287 -1434h-173l256 1277h-696l-256 -1277h-171z" />
    <glyph glyph-name="uni0420" unicode="&#x420;" horiz-adv-x="1247" 
d="M873 1434q178 0 290 -107t112 -272q0 -145 -75 -268.5t-204 -195.5t-280 -72h-353l-105 -519h-171l287 1434h499zM721 682q154 0 267.5 109t113.5 256q0 102 -68 163t-185 61h-336l-118 -589h326z" />
    <glyph glyph-name="uni0421" unicode="&#x421;" horiz-adv-x="1587" 
d="M726 -22q-277 0 -442.5 161t-165.5 422q0 179 70 344t189 286t284 193t346 72q241 0 402 -137t180 -366h-171q-26 160 -136 248.5t-287 88.5q-142 0 -273 -58t-225 -155t-150 -228.5t-56 -273.5q0 -200 118.5 -315.5t329.5 -115.5q188 0 346.5 95t243.5 263h182
q-106 -251 -315.5 -387.5t-469.5 -136.5z" />
    <glyph glyph-name="uni0422" unicode="&#x422;" horiz-adv-x="1122" 
d="M1256 1434l-32 -157h-438l-255 -1277h-171l255 1277h-439l32 157h1048z" />
    <glyph glyph-name="uni0423" unicode="&#x423;" horiz-adv-x="1241" 
d="M1178 1434h203l-648 -1011q-87 -136 -152 -216t-135.5 -129t-141 -65.5t-172.5 -16.5h-76l30 160h82q118 0 189 49t178 202l-343 1027h183l281 -842z" />
    <glyph glyph-name="uni0424" unicode="&#x424;" horiz-adv-x="1781" 
d="M1725 846q0 -175 -67 -333t-182 -273.5t-275.5 -185.5t-340.5 -76l-44 -219h-168l44 220q-177 10 -308 95.5t-196 219t-65 295.5q0 173 68 331t183.5 273t276 185.5t338.5 76.5l38 196h168l-39 -196q134 -7 243 -58t179.5 -133.5t108.5 -189.5t38 -228zM893 143
q179 10 331.5 110t240 257t87.5 331q0 187 -114 311.5t-315 136.5zM725 143l230 1146q-178 -11 -330.5 -110.5t-240.5 -255.5t-88 -329q0 -187 114.5 -313t314.5 -138z" />
    <glyph glyph-name="uni0425" unicode="&#x425;" horiz-adv-x="1224" 
d="M1346 1434l-587 -689l340 -745h-184l-277 609l-519 -609h-212l640 751l-314 683h184l253 -551l470 551h206z" />
    <glyph glyph-name="uni0426" unicode="&#x426;" horiz-adv-x="1462" 
d="M1402 1434l-255 -1277h149l-89 -441h-159l57 284h-1018l287 1434h171l-255 -1277h685l256 1277h171z" />
    <glyph glyph-name="uni0427" unicode="&#x427;" horiz-adv-x="1300" 
d="M1105 1434h173l-287 -1434h-173l115 573q-184 -68 -338 -68q-193 0 -308 103t-115 287q0 16 0.5 29.5t4 36.5t7 42.5t12 64.5t17 85.5t24.5 122t31 158.5h173q-12 -62 -25 -126.5t-20.5 -101.5t-15.5 -77.5t-12 -60.5t-8 -43.5t-5.5 -34t-3 -24t-2 -22t-0.5 -19.5
q0 -122 73 -187t212 -65q138 0 334 75z" />
    <glyph glyph-name="uni0428" unicode="&#x428;" horiz-adv-x="1988" 
d="M1797 1434h171l-287 -1434h-1594l287 1434h171l-255 -1277h541l255 1277h168l-255 -1277h542z" />
    <glyph glyph-name="uni0429" unicode="&#x429;" horiz-adv-x="2029" 
d="M1968 1434l-256 -1277h155l-89 -441h-159l57 284h-1589l287 1434h171l-255 -1277h541l255 1277h168l-255 -1277h542l256 1277h171z" />
    <glyph glyph-name="uni042A" unicode="&#x42a;" horiz-adv-x="1466" 
d="M987 919q183 0 295 -107.5t112 -275.5q0 -151 -74 -274t-203 -192.5t-286 -69.5h-537l255 1273h-376l32 161h547l-103 -515h338zM836 157q160 0 272.5 109t112.5 258q0 108 -72 174t-192 66h-339l-122 -607h340z" />
    <glyph glyph-name="uni042B" unicode="&#x42b;" horiz-adv-x="1787" 
d="M780 919q183 0 295 -107.5t112 -275.5q0 -151 -74 -274t-203 -192.5t-286 -69.5h-537l287 1434h171l-103 -515h338zM1595 1434h171l-287 -1434h-171zM629 157q160 0 272.5 109t112.5 258q0 108 -72 174t-192 66h-339l-121 -607h339z" />
    <glyph glyph-name="uni042C" unicode="&#x42c;" horiz-adv-x="1259" 
d="M780 919q183 0 295 -107.5t112 -275.5q0 -151 -74 -274t-203 -192.5t-286 -69.5h-537l287 1434h171l-103 -515h338zM629 157q160 0 272.5 109t112.5 258q0 108 -72 174t-192 66h-339l-121 -607h339z" />
    <glyph glyph-name="uni042D" unicode="&#x42d;" horiz-adv-x="1597" 
d="M926 1458q182 0 323 -79.5t217 -218t76 -312.5q0 -175 -69 -336t-186.5 -278.5t-280.5 -187.5t-343 -70q-253 0 -419 147t-185 379h171q28 -169 147 -264.5t302 -95.5q229 0 410.5 143t247.5 359h-697l31 157h695q1 14 1 42q0 200 -124.5 324.5t-331.5 124.5
q-181 0 -331 -88t-251 -250h-177q100 240 308.5 372t465.5 132z" />
    <glyph glyph-name="uni042E" unicode="&#x42e;" horiz-adv-x="2136" 
d="M1462 1458q185 0 327 -80t218 -218.5t76 -313.5q0 -176 -70.5 -337t-189 -278t-283 -186t-345.5 -69t-321 79.5t-214.5 218.5t-74.5 313q0 35 1 52h-200l-128 -639h-171l287 1434h171l-127 -638h192q47 188 169.5 338.5t301.5 237t381 86.5zM1221 142q112 0 218 36.5
t190 101.5t148 150.5t98.5 189.5t34.5 212q0 204 -130.5 332t-344.5 128q-138 0 -264.5 -57t-216.5 -151t-143.5 -220t-53.5 -260q0 -205 127.5 -333.5t336.5 -128.5z" />
    <glyph glyph-name="uni042F" unicode="&#x42f;" horiz-adv-x="1325" 
d="M739 1434h565l-287 -1434h-173l112 562h-321l-449 -562h-205l472 586q-121 36 -190 129t-69 217q0 141 73 256.5t198 180.5t274 65zM988 719l111 556h-372q-153 0 -257.5 -98.5t-104.5 -237.5q0 -98 68 -158.5t181 -61.5h374z" />
    <glyph glyph-name="uni0430" unicode="&#x430;" horiz-adv-x="1429" 
d="M1230 1106h133l-222 -1106h-137l15 161q-92 -87 -211 -136t-251 -49q-214 0 -346 132.5t-132 340.5q0 135 54 260t145 217.5t217.5 148t264.5 55.5q139 0 244 -56.5t165 -158.5zM587 135q100 0 193.5 43t161.5 113.5t108.5 165.5t40.5 195q0 144 -92 231.5t-246 87.5
q-133 0 -250 -72t-186 -191t-69 -252q0 -144 93 -232.5t246 -88.5z" />
    <glyph glyph-name="uni0431" unicode="&#x431;" horiz-adv-x="1345" 
d="M986 1359q-130 -29 -235.5 -79t-178.5 -115t-122 -133t-81 -145q173 161 436 161q202 0 326 -120.5t126 -309.5q2 -179 -83.5 -326.5t-238 -231.5t-338.5 -84q-129 0 -234.5 54t-172 167.5t-68.5 269.5q0 109 19 215.5t57.5 212.5t102 200.5t147 173.5t198 138t250.5 89
l457 103l-33 -165zM768 905q-127 0 -236.5 -63t-174 -170t-64.5 -230q0 -137 87.5 -222t232.5 -85q97 0 185 38.5t151 102t100.5 148.5t37.5 176q0 134 -88 219.5t-231 85.5z" />
    <glyph glyph-name="uni0432" unicode="&#x432;" horiz-adv-x="1179" 
d="M890 570q64 -27 100 -86.5t36 -134.5q0 -152 -109 -250.5t-272 -98.5h-576l221 1106h523q122 0 198 -70t76 -177q0 -94 -54 -172.5t-143 -116.5zM923 831q0 56 -38 89.5t-102 33.5h-360l-63 -312h361q87 0 144.5 53.5t57.5 135.5zM632 154q95 0 161 59t66 147
q0 61 -44 99.5t-117 38.5h-367l-70 -344h371z" />
    <glyph glyph-name="uni0433" unicode="&#x433;" horiz-adv-x="901" 
d="M977 1106l-29 -147h-525l-192 -959h-162l221 1106h687z" />
    <glyph glyph-name="uni0434" unicode="&#x434;" horiz-adv-x="1331" 
d="M1215 1106l-190 -951h149l-87 -439h-152l56 284h-904l-56 -284h-152l87 439h118q37 27 63.5 62.5t54.5 91.5t64.5 167.5t77.5 250t108 379.5h763zM573 959q-108 -401 -168 -566.5t-126 -237.5h583l161 804h-450z" />
    <glyph glyph-name="uni0435" unicode="&#x435;" horiz-adv-x="1290" 
d="M1193 489h-951q0 -5 -1 -14.5t-1.5 -17.5t-0.5 -15q0 -143 86 -225t236 -82q120 0 223.5 52.5t171.5 147.5h186q-103 -172 -254 -265.5t-332 -93.5q-211 0 -343 133t-132 340q0 178 89 335t244 251.5t336 94.5q214 0 340 -132.5t126 -342.5q0 -81 -23 -166zM743 975
q-157 0 -282.5 -93t-182.5 -239h783v11q0 149 -84.5 235t-233.5 86z" />
    <glyph glyph-name="uni0436" unicode="&#x436;" horiz-adv-x="1640" 
d="M1708 1106l-504 -525l323 -581h-189l-277 500h-166l-100 -500h-166l100 500h-141l-475 -500h-217l557 583l-295 523h179l258 -458h163l92 458h166l-92 -458h138l438 458h208z" />
    <glyph glyph-name="uni0437" unicode="&#x437;" horiz-adv-x="993" 
d="M749 572q51 -32 78 -87t27 -123q0 -116 -64 -205t-172 -135t-242 -46q-165 0 -261 81t-106 245h150q2 -84 66 -126.5t164 -42.5q130 0 216.5 64.5t86.5 163.5q0 67 -50 108.5t-133 41.5h-166l27 136h166q97 0 163 55.5t66 137.5q0 66 -55 105t-150 39q-96 0 -166 -41
t-101 -113h-155q31 134 152 217t284 83q152 0 249 -80.5t97 -199.5q0 -89 -45 -161t-126 -117z" />
    <glyph glyph-name="uni0438" unicode="&#x438;" horiz-adv-x="1263" 
d="M1105 1106h92l-221 -1106h-157l157 787l-811 -787h-96l221 1106h159l-157 -785z" />
    <glyph glyph-name="uni0439" unicode="&#x439;" horiz-adv-x="1263" 
d="M1065 1377l-24 -126h-536l24 126h536zM1105 1106h92l-221 -1106h-157l157 787l-811 -787h-96l221 1106h159l-157 -785z" />
    <glyph glyph-name="uni043A" unicode="&#x43a;" horiz-adv-x="1097" 
d="M1171 1106l-514 -530l333 -576h-188l-289 500h-178l-100 -500h-166l221 1106h166l-91 -453h150l439 453h217z" />
    <glyph glyph-name="uni043B" unicode="&#x43b;" horiz-adv-x="1263" 
d="M475 1106h722l-221 -1106h-164l192 961h-405l-180 -587q-66 -216 -164.5 -297.5t-280.5 -81.5h-47l33 155h37q97 0 157.5 55t97.5 179z" />
    <glyph glyph-name="uni043C" unicode="&#x43c;" horiz-adv-x="1626" 
d="M1301 1106h142l-7 -1106h-150l5 833l-556 -808h-37l-230 811l-328 -836h-172l435 1106h139l220 -785z" />
    <glyph glyph-name="uni043D" unicode="&#x43d;" horiz-adv-x="1286" 
d="M1056 1106h163l-221 -1106h-163l99 492h-604l-99 -492h-162l221 1106h162l-92 -462h604z" />
    <glyph glyph-name="uni043E" unicode="&#x43e;" horiz-adv-x="1343" 
d="M569 -24q-220 0 -355 133t-135 342q0 137 55.5 262.5t148.5 216.5t222 145.5t269 54.5q220 0 355 -133t135 -342q0 -137 -55.5 -262.5t-148.5 -216.5t-222 -145.5t-269 -54.5zM588 135q137 0 254.5 71t184.5 190t67 255q0 146 -92.5 233t-247.5 87q-102 0 -196 -42
t-162 -111.5t-108 -164.5t-40 -198q0 -146 92.5 -233t247.5 -87z" />
    <glyph glyph-name="uni043F" unicode="&#x43f;" horiz-adv-x="1292" 
d="M290 1106h936l-222 -1106h-164l192 956h-605l-192 -956h-166z" />
    <glyph glyph-name="uni0440" unicode="&#x440;" horiz-adv-x="1419" 
d="M866 1130q214 0 344 -131.5t130 -339.5q0 -136 -53 -261.5t-142.5 -218t-215.5 -148t-264 -55.5q-129 0 -231.5 52t-164.5 144l-114 -566h-166l301 1500h115l-2 -170q93 91 212 142.5t251 51.5zM661 135q101 0 195 43t163 113.5t110.5 165.5t41.5 195q0 143 -90.5 231
t-242.5 88q-101 0 -195 -43t-162.5 -113.5t-109.5 -166.5t-41 -197q0 -142 89.5 -229t241.5 -87z" />
    <glyph glyph-name="uni0441" unicode="&#x441;" horiz-adv-x="1263" 
d="M559 -24q-214 0 -346 133t-132 341q0 135 54.5 260t146 217t218 147.5t264.5 55.5q195 0 320.5 -106.5t145.5 -286.5h-162q-29 110 -112 172t-206 62q-131 0 -247 -73t-184.5 -193t-68.5 -252q0 -142 89 -230t235 -88q127 0 237.5 63t183.5 177h173
q-83 -182 -247.5 -290.5t-361.5 -108.5z" />
    <glyph glyph-name="uni0442" unicode="&#x442;" horiz-adv-x="1050" 
d="M1130 1106l-30 -148h-410l-192 -958h-162l192 958h-420l31 148h991z" />
    <glyph glyph-name="uni0443" unicode="&#x443;" horiz-adv-x="1193" 
d="M1088 1106h184l-763 -1164q-128 -194 -231 -265t-260 -71h-108l30 150h80q113 0 177.5 45.5t160.5 186.5l66 96l-285 1022h173l230 -846z" />
    <glyph glyph-name="uni0444" unicode="&#x444;" horiz-adv-x="1488" 
d="M1409 643q0 -140 -54 -263t-146.5 -210t-221.5 -139t-275 -55l-64 -324h-166l65 325q-206 11 -336 144t-130 335q0 186 91.5 339t251 242t354.5 93l62 309h166l-62 -310q205 -11 335 -146t130 -340zM579 141l166 824q-137 -7 -251.5 -76.5t-180.5 -182.5t-66 -243
q0 -140 89 -227.5t243 -94.5zM745 141q210 10 354 154.5t144 343.5q0 140 -90 229.5t-243 96.5z" />
    <glyph glyph-name="uni0445" unicode="&#x445;" horiz-adv-x="1044" 
d="M1111 1106l-485 -535l296 -571h-177l-230 450l-406 -450h-203l523 576l-267 530h177l205 -414l370 414h197z" />
    <glyph glyph-name="uni0446" unicode="&#x446;" horiz-adv-x="1304" 
d="M1188 1106l-191 -956h153l-87 -434h-151l56 284h-899l221 1106h162l-190 -956h573l190 956h163z" />
    <glyph glyph-name="uni0447" unicode="&#x447;" horiz-adv-x="1114" 
d="M888 1106h160l-221 -1106h-161l85 424q-132 -47 -267 -47q-168 0 -266.5 91t-98.5 249q0 16 0.5 29.5t3.5 34t5 35.5t9 49t12 59t16 81.5t20 100.5h162q-46 -224 -55.5 -277t-9.5 -87q0 -98 60.5 -150t176.5 -52q135 0 268 61z" />
    <glyph glyph-name="uni0448" unicode="&#x448;" horiz-adv-x="1730" 
d="M1499 1106h164l-221 -1106h-1373l221 1106h162l-190 -954h444l191 954h159l-191 -954h444z" />
    <glyph glyph-name="uni0449" unicode="&#x449;" horiz-adv-x="1779" 
d="M1663 1106l-191 -956h154l-87 -434h-152l56 284h-1374l221 1106h162l-190 -956h444l191 956h159l-191 -956h444l190 956h164z" />
    <glyph glyph-name="uni044A" unicode="&#x44a;" horiz-adv-x="1241" 
d="M823 753q149 0 239.5 -87t90.5 -226q0 -191 -131 -315.5t-333 -124.5h-452l192 961h-322l29 145h485l-71 -353h273zM688 148q127 0 211.5 79.5t84.5 200.5q0 81 -55 129t-150 48h-259l-91 -457h259z" />
    <glyph glyph-name="uni044B" unicode="&#x44b;" horiz-adv-x="1499" 
d="M651 753q151 0 242.5 -88t91.5 -228q0 -189 -130 -313t-330 -124h-456l221 1106h162l-70 -353h269zM1267 1106h166l-221 -1106h-166zM518 146q127 0 212.5 80t85.5 202q0 82 -55 130.5t-150 48.5h-259l-92 -461h258z" />
    <glyph glyph-name="uni044C" unicode="&#x44c;" horiz-adv-x="1071" 
d="M651 753q151 0 242.5 -88t91.5 -228q0 -189 -130 -313t-330 -124h-456l221 1106h162l-70 -353h269zM518 146q127 0 212.5 80t85.5 202q0 82 -55 130.5t-150 48.5h-259l-92 -461h258z" />
    <glyph glyph-name="uni044D" unicode="&#x44d;" horiz-adv-x="1269" 
d="M711 1130q214 0 347 -136.5t133 -343.5q0 -134 -54.5 -258t-145.5 -215.5t-217.5 -146t-263.5 -54.5q-196 0 -321 115.5t-152 307.5h162q19 -126 107 -200.5t220 -74.5q167 0 299 104t184 261h-506l27 137h505q0 4 0.5 13t0.5 14q0 149 -91 239.5t-246 90.5
q-133 0 -249.5 -71t-184.5 -191h-162q70 183 238 296t370 113z" />
    <glyph glyph-name="uni044E" unicode="&#x44e;" horiz-adv-x="1753" 
d="M1195 1130q215 0 347.5 -133t132.5 -342q0 -109 -35 -212t-98.5 -186.5t-148 -147t-189 -98.5t-214.5 -35q-207 0 -334.5 133t-127.5 342v26h-198l-95 -479h-166l221 1108h166l-95 -475h191q59 217 238 358t405 141zM1009 138q133 0 248 71t182.5 189.5t67.5 252.5
q0 143 -90.5 229t-241.5 86q-127 0 -238.5 -70.5t-176.5 -188.5t-65 -252q0 -144 85 -230.5t229 -86.5z" />
    <glyph glyph-name="uni044F" unicode="&#x44f;" horiz-adv-x="1144" 
d="M562 1106h517l-222 -1106h-162l85 426h-274l-351 -426h-195l374 453q-86 31 -135.5 102.5t-49.5 164.5q0 165 119.5 275.5t293.5 110.5zM811 580l74 371h-328q-104 0 -172 -65.5t-68 -156.5q0 -68 44.5 -108.5t121.5 -40.5h328z" />
    <glyph glyph-name="uni0451" unicode="&#x451;" horiz-adv-x="1290" 
d="M724 1495l-39 -193h-192l39 193h192zM1123 1495l-39 -193h-192l39 193h192zM1193 489h-951q0 -5 -1 -14.5t-1.5 -17.5t-0.5 -15q0 -143 86 -225t236 -82q120 0 223.5 52.5t171.5 147.5h186q-103 -172 -254 -265.5t-332 -93.5q-211 0 -343 133t-132 340q0 178 89 335
t244 251.5t336 94.5q214 0 340 -132.5t126 -342.5q0 -81 -23 -166zM743 975q-157 0 -282.5 -93t-182.5 -239h783v11q0 149 -84.5 235t-233.5 86z" />
    <glyph glyph-name="uni0452" unicode="&#x452;" horiz-adv-x="1314" 
d="M835 1130q167 0 260.5 -95t93.5 -259q0 -16 -0.5 -28.5t-3 -32.5t-5 -36.5t-9 -52t-12.5 -66.5t-18.5 -92.5t-24 -117.5t-31 -154t-38.5 -190q-37 -179 -166.5 -287t-308.5 -108h-59l31 153h35q116 0 198 67.5t106 182.5q18 94 37 189t30.5 152t23 115.5t17.5 89.5t12 64
t8.5 48.5t4.5 32.5t2.5 27t0.5 23q0 109 -57.5 161.5t-176.5 52.5q-147 0 -273 -106.5t-157 -261.5l-120 -601h-166l244 1219h-189l27 139h190l29 142h165l-28 -142h386l-27 -139h-387l-52 -259q78 81 183.5 125.5t224.5 44.5z" />
    <glyph glyph-name="uni0453" unicode="&#x453;" horiz-adv-x="901" 
d="M941 1548l-247 -312h-131l201 312h177zM977 1106l-29 -147h-525l-192 -959h-162l221 1106h687z" />
    <glyph glyph-name="uni0454" unicode="&#x454;" horiz-adv-x="1269" 
d="M573 124q135 0 251.5 74t184.5 201h167q-70 -188 -241 -305.5t-374 -117.5q-212 0 -346 139t-134 348q0 135 54 258t145 212.5t217.5 143t264.5 53.5q195 0 319.5 -111t151.5 -298h-159q-21 120 -109 191t-219 71q-166 0 -297.5 -101t-184.5 -256h507l-27 -137h-507
q-1 -10 -1 -30q0 -150 92 -242.5t245 -92.5z" />
    <glyph glyph-name="uni0455" unicode="&#x455;" horiz-adv-x="1044" 
d="M417 -24q-174 0 -278 80t-104 217q0 37 5 63h163q-4 -24 -4 -35q0 -85 71.5 -129t173.5 -44q132 0 219 58t87 155q0 26 -9 46.5t-28.5 35.5t-40.5 26.5t-53.5 20.5t-59.5 14.5t-67 12.5q-44 8 -71 13.5t-67 16.5t-65.5 23t-54.5 31t-45.5 42t-27.5 55.5t-11 71.5
q0 174 134.5 277t339.5 103q163 0 263.5 -75.5t100.5 -202.5q0 -28 -6 -61h-157q4 26 4 36q0 77 -65 116.5t-163 39.5q-128 0 -207.5 -54t-79.5 -140q0 -28 14 -50t34 -35.5t57 -25t66 -17.5t78 -14q34 -6 56 -10t55 -11t54.5 -14.5t49.5 -19t46 -25t37.5 -32t30.5 -40
t18 -49.5t7 -60q0 -190 -141 -300t-359 -110z" />
    <glyph glyph-name="uni0456" unicode="&#x456;" horiz-adv-x="522" 
d="M316 1302l39 193h182l-40 -193h-181zM69 0l221 1106h166l-221 -1106h-166z" />
    <glyph glyph-name="uni0457" unicode="&#x457;" horiz-adv-x="522" 
d="M133 1302l39 193h183l-39 -193h-183zM517 1302l39 193h184l-40 -193h-183zM69 0l221 1106h166l-221 -1106h-166z" />
    <glyph glyph-name="uni0458" unicode="&#x458;" horiz-adv-x="546" 
d="M335 1302l39 193h182l-40 -193h-181zM-274 -394l31 151h55q108 0 183 63t96 171l224 1115h165l-228 -1143q-33 -165 -148.5 -261t-281.5 -96h-96z" />
    <glyph glyph-name="uni0459" unicode="&#x459;" horiz-adv-x="1773" 
d="M1357 753q149 0 239.5 -87t90.5 -226q0 -191 -131 -315.5t-333 -124.5h-452l193 965h-366l-181 -592q-67 -216 -164.5 -297t-279.5 -81h-48l33 155h38q97 0 157 54.5t97 178.5l224 723h677l-71 -353h277zM1219 148q127 0 212.5 80t85.5 200q0 81 -55 129t-150 48h-262
l-91 -457h260z" />
    <glyph glyph-name="uni045A" unicode="&#x45a;" horiz-adv-x="1744" 
d="M1333 723q149 0 235.5 -82.5t86.5 -214.5q0 -189 -122 -307.5t-320 -118.5h-448l104 519h-534l-104 -519h-162l221 1106h162l-87 -436h534l88 436h162l-76 -383h260zM1208 152q125 0 201.5 73.5t76.5 186.5q0 75 -51.5 117.5t-142.5 42.5h-250l-84 -420h250z" />
    <glyph glyph-name="uni045B" unicode="&#x45b;" horiz-adv-x="1314" 
d="M835 1130q167 0 260.5 -95t93.5 -259q0 -16 -0.5 -28.5t-3 -32.5t-5 -36.5t-9 -52.5t-12.5 -67t-18.5 -93.5t-24 -118.5t-31.5 -155t-39 -192h-166q26 131 64 323q53 264 64 327.5t11 105.5q0 108 -57.5 160.5t-176.5 52.5q-150 0 -274.5 -106t-155.5 -262l-120 -601
h-166l245 1222h-194l27 136h194l29 142h165l-28 -142h383l-27 -136h-383l-52 -260q162 168 407 168z" />
    <glyph glyph-name="uni045C" unicode="&#x45c;" horiz-adv-x="1097" 
d="M977 1548l-247 -312h-131l201 312h177zM1171 1106l-514 -530l333 -576h-188l-289 500h-178l-100 -500h-166l221 1106h166l-91 -453h150l439 453h217z" />
    <glyph glyph-name="uni045D" unicode="&#x45d;" horiz-adv-x="1263" 
d="M813 1236h-131l-124 312h177zM1105 1106h92l-221 -1106h-157l157 787l-811 -787h-96l221 1106h159l-157 -785z" />
    <glyph glyph-name="uni045E" unicode="&#x45e;" horiz-adv-x="1193" 
d="M1032 1377l-24 -126h-535l23 126h536zM1088 1106h184l-763 -1164q-128 -194 -231 -265t-260 -71h-108l30 150h80q113 0 177.5 45.5t160.5 186.5l66 96l-285 1022h173l230 -846z" />
    <glyph glyph-name="uni045F" unicode="&#x45f;" horiz-adv-x="1294" 
d="M1228 1106l-221 -1106h-389l-58 -289h-159l58 289h-390l221 1106h162l-190 -954h613l191 954h162z" />
    <glyph glyph-name="uni0490" unicode="&#x490;" horiz-adv-x="1011" 
d="M1183 1649l-73 -371h-595l-257 -1278h-171l287 1434h606l43 215h160z" />
    <glyph glyph-name="uni0491" unicode="&#x491;" horiz-adv-x="901" 
d="M1027 1350l-79 -391h-524l-193 -959h-162l221 1106h528l50 244h159z" />
    <glyph glyph-name="Wgrave" unicode="&#x1e80;" horiz-adv-x="2097" 
d="M1306 1595h-131l-140 291h177zM2034 1434h190l-739 -1434h-149l-192 1036l-597 -1036h-153l-175 1434h173l131 -1153l652 1123h61l213 -1125z" />
    <glyph glyph-name="wgrave" unicode="&#x1e81;" horiz-adv-x="1730" 
d="M1040 1236h-131l-124 312h177zM1637 1106h168l-597 -1106h-135l-163 768l-471 -768h-137l-153 1106h164l115 -828l505 810h60l180 -818z" />
    <glyph glyph-name="Wacute" unicode="&#x1e82;" horiz-adv-x="2097" 
d="M1554 1886l-254 -291h-132l209 291h177zM2034 1434h190l-739 -1434h-149l-192 1036l-597 -1036h-153l-175 1434h173l131 -1153l652 1123h61l213 -1125z" />
    <glyph glyph-name="wacute" unicode="&#x1e83;" horiz-adv-x="1730" 
d="M1276 1548l-247 -312h-131l201 312h177zM1637 1106h168l-597 -1106h-135l-163 768l-471 -768h-137l-153 1106h164l115 -828l505 810h60l180 -818z" />
    <glyph glyph-name="Wdieresis" unicode="&#x1e84;" horiz-adv-x="2097" 
d="M1171 1829l-38 -193h-192l38 193h192zM1614 1829l-38 -193h-192l37 193h193zM2034 1434h190l-739 -1434h-149l-192 1036l-597 -1036h-153l-175 1434h173l131 -1153l652 1123h61l213 -1125z" />
    <glyph glyph-name="wdieresis" unicode="&#x1e85;" horiz-adv-x="1730" 
d="M936 1495l-40 -193h-192l40 193h192zM1335 1495l-40 -193h-192l40 193h192zM1637 1106h168l-597 -1106h-135l-163 768l-471 -768h-137l-153 1106h164l115 -828l505 810h60l180 -818z" />
    <glyph glyph-name="uni1E9E" unicode="&#x1e9e;" horiz-adv-x="1402" 
d="M1370 1434l-6 -33l-381 -486q150 -21 233 -116t83 -242q0 -247 -169 -402t-435 -155h-206l32 164h191q177 0 295.5 107t118.5 266q0 110 -77 175.5t-212 65.5h-135l6 36l360 459h-244q-161 0 -260 -83.5t-132 -244.5l-188 -945h-172l196 981q43 219 186.5 336t366.5 117
h549z" />
    <glyph glyph-name="Ygrave" unicode="&#x1ef2;" horiz-adv-x="1339" 
d="M914 1595h-130l-140 291h176zM1465 1434l-703 -863l-115 -571h-176l114 571l-354 863h177l287 -701l572 701h198z" />
    <glyph glyph-name="ygrave" unicode="&#x1ef3;" horiz-adv-x="1193" 
d="M780 1236h-130l-125 312h177zM1088 1106h184l-763 -1164q-128 -194 -231 -265t-260 -71h-108l30 150h80q113 0 177.5 45.5t160.5 186.5l66 96l-285 1022h173l230 -846z" />
    <glyph glyph-name="endash" unicode="&#x2013;" horiz-adv-x="1314" 
d="M134 492l32 160h1026l-31 -160h-1027z" />
    <glyph glyph-name="emdash" unicode="&#x2014;" horiz-adv-x="1841" 
d="M134 492l32 160h1552l-32 -160h-1552z" />
    <glyph glyph-name="quoteleft" unicode="&#x2018;" horiz-adv-x="454" 
d="M222 1070l40 204q44 220 249 273l-18 -94q-110 -37 -139 -174h113l-41 -209h-204z" />
    <glyph glyph-name="quoteright" unicode="&#x2019;" horiz-adv-x="442" 
d="M221 994l19 93q110 37 139 174h-114l41 209h204l-40 -203q-44 -220 -249 -273z" />
    <glyph glyph-name="quotesinglbase" unicode="&#x201a;" horiz-adv-x="481" 
d="M0 -268l18 94q110 37 139 174h-113l41 209h204l-38 -195q-47 -223 -251 -282z" />
    <glyph glyph-name="quotedblleft" unicode="&#x201c;" horiz-adv-x="798" 
d="M222 1075l40 203q44 220 249 273l-18 -93q-110 -37 -139 -174h114l-42 -209h-204zM567 1075l40 203q44 220 249 273l-18 -93q-110 -37 -139 -174h113l-41 -209h-204z" />
    <glyph glyph-name="quotedblright" unicode="&#x201d;" horiz-adv-x="786" 
d="M221 994l19 93q110 37 139 174h-114l41 209h204l-40 -203q-44 -220 -249 -273zM566 994l19 93q110 37 139 174h-114l41 209h204l-40 -203q-44 -220 -249 -273z" />
    <glyph glyph-name="quotedblbase" unicode="&#x201e;" horiz-adv-x="825" 
d="M-1 -268l19 94q110 37 139 174h-114l42 209h203l-39 -203q-44 -221 -250 -274zM344 -268l19 94q110 37 139 174h-114l42 209h203l-39 -203q-44 -221 -250 -274z" />
    <glyph glyph-name="dagger" unicode="&#x2020;" horiz-adv-x="1044" 
d="M1079 1033l-31 -145h-385l-194 -970h-163l194 970h-374l31 145h372l81 401h162l-80 -401h387z" />
    <glyph glyph-name="daggerdbl" unicode="&#x2021;" horiz-adv-x="1114" 
d="M1085 888h-378l-85 -424h379l-29 -145h-379l-80 -401h-163l81 401h-380l29 145h380l84 424h-381l31 145h379l80 401h163l-80 -401h380z" />
    <glyph glyph-name="bullet" unicode="&#x2022;" horiz-adv-x="692" 
d="M319 426q-63 0 -101.5 41t-38.5 102q0 90 62.5 147.5t147.5 57.5q64 0 103 -41t39 -104q0 -87 -63 -145t-149 -58z" />
    <glyph glyph-name="ellipsis" unicode="&#x2026;" horiz-adv-x="1107" 
d="M42 0l41 211h193l-42 -211h-192zM365 0l41 211h192l-41 -211h-192zM687 0l41 211h192l-41 -211h-192z" />
    <glyph glyph-name="perthousand" unicode="&#x2030;" horiz-adv-x="2275" 
d="M424 771q-117 0 -189 69t-72 178q0 152 105.5 257t261.5 105q117 0 187.5 -68.5t70.5 -177.5q0 -152 -105 -257.5t-259 -105.5zM162 0l1094 1362h166l-1094 -1362h-166zM441 898q88 0 152.5 63.5t64.5 155.5q0 61 -39.5 98.5t-105.5 37.5q-88 0 -152.5 -63.5
t-64.5 -153.5q0 -63 39.5 -100.5t105.5 -37.5zM1073 -8q-117 0 -188.5 68t-71.5 176q0 149 105 254t259 105q116 0 187.5 -68.5t71.5 -177.5q0 -150 -105 -253.5t-258 -103.5zM1804 -8q-116 0 -187.5 67.5t-71.5 176.5q0 149 104.5 254t258.5 105q116 0 187.5 -68.5
t71.5 -177.5q0 -150 -105 -253.5t-258 -103.5zM1090 119q89 0 151.5 64t62.5 149q0 61 -39 98.5t-105 37.5q-88 0 -150.5 -62t-62.5 -153q0 -61 39 -97.5t104 -36.5zM1821 119q89 0 152 64t63 149q0 61 -39.5 98.5t-105.5 37.5q-88 0 -150.5 -62t-62.5 -153q0 -61 39 -97.5
t104 -36.5z" />
    <glyph glyph-name="guilsinglleft" unicode="&#x2039;" horiz-adv-x="731" 
d="M718 973l-455 -434l272 -419h-184l-273 420l6 31l419 402h215z" />
    <glyph glyph-name="guilsinglright" unicode="&#x203a;" horiz-adv-x="733" 
d="M381 973l272 -420l-5 -31l-418 -402h-223l463 443l-267 410h178z" />
    <glyph glyph-name="fraction" unicode="&#x2044;" horiz-adv-x="321" 
d="M-441 -61l1139 1556h135l-1139 -1556h-135z" />
    <glyph glyph-name="Euro" unicode="&#x20ac;" horiz-adv-x="1333" 
d="M1112 1250q-175 0 -330 -91t-251 -241h693l-64 -136h-697q-38 -99 -42 -199h650l-62 -135h-577q34 -152 157 -239t295 -87q114 0 230 41l-31 -149q-120 -40 -233 -40q-225 0 -386.5 130t-195.5 344h-220l62 135h151q5 103 33 199h-173l62 136h164q106 215 310.5 347.5
t448.5 132.5q180 0 311 -59l-63 -139q-107 50 -242 50z" />
    <glyph glyph-name="uni20BD" unicode="&#x20bd;" horiz-adv-x="1226" 
d="M754 561h-328l-33 -167h458l-24 -120h-458l-55 -274h-162l55 274h-155l24 120h155l34 172h-155l27 129h154l133 667h472q158 0 253.5 -90.5t95.5 -234.5q0 -98 -38 -186.5t-103.5 -152t-156.5 -100.5t-193 -37zM1085 1022q0 91 -61.5 146t-163.5 55h-302l-104 -522h303
q132 0 230 96.5t98 224.5z" />
    <glyph glyph-name="uni2113" unicode="&#x2113;" horiz-adv-x="927" 
d="M443 106q87 0 145 53.5t77 148.5h127q-28 -155 -121 -243.5t-235 -88.5q-127 0 -202.5 71t-75.5 192q0 41 24 166q-70 -29 -150 -55l27 136q67 24 152 62q57 281 115 564q34 165 130 254.5t244 89.5q121 0 191 -68t70 -184q0 -107 -50.5 -214t-139 -199.5t-200 -172.5
t-242.5 -146q-37 -183 -37 -217q0 -71 39.5 -110t111.5 -39zM457 1108q-23 -114 -55.5 -274t-42.5 -212q135 76 237 161.5t167.5 192t65.5 212.5q0 67 -38 103t-109 36q-179 0 -225 -219z" />
    <glyph glyph-name="uni2116" unicode="&#x2116;" horiz-adv-x="2250" 
d="M1283 1364h164l-272 -1364h-132l-571 1078l-216 -1078h-165l274 1364h141l563 -1067zM1820 590q-119 0 -192 72t-73 185q0 155 115.5 264t274.5 109q119 0 192 -72.5t73 -184.5q0 -155 -115.5 -264t-274.5 -109zM1922 1098q-98 0 -169 -69t-71 -167q0 -67 44 -108.5
t117 -41.5q100 0 170 71t70 164q0 67 -44.5 109t-116.5 42zM1416 232l27 140h664l-27 -140h-664z" />
    <glyph glyph-name="uni2117" unicode="&#x2117;" horiz-adv-x="1720" 
d="M1030 1452q290 0 464 -163t174 -425q0 -181 -72.5 -345t-195 -282.5t-292 -188.5t-356.5 -70q-287 0 -460 162t-173 424q0 181 71.5 345.5t193 283.5t290.5 189t356 70zM760 80q162 0 310 62.5t254 167.5t169 248t63 299q0 223 -144 357.5t-389 134.5q-163 0 -311 -62.5
t-253.5 -168t-168 -248.5t-62.5 -298q0 -223 143.5 -357.5t388.5 -134.5zM1065 1136q112 0 180.5 -67t68.5 -169q0 -144 -107 -241.5t-257 -97.5h-227l-64 -321h-111l178 896h339zM966 658q100 0 170.5 68t70.5 167q0 66 -44.5 107t-118.5 41h-227l-76 -383h225z" />
    <glyph glyph-name="trademark" unicode="&#x2122;" horiz-adv-x="1761" 
d="M884 1362h-171l-88 -440h-80l88 440h-183l15 72h434zM1430 1434h76l-17 -512h-78l13 382l-260 -382h-18l-106 382l-142 -382h-77l188 512h66l103 -376z" />
    <glyph glyph-name="estimated" unicode="&#x212e;" horiz-adv-x="1560" 
d="M1503 616h-1067v-373q160 -147 383 -147q126 0 243 47t197 129l148 -4q-94 -136 -255.5 -212t-332.5 -76q-188 0 -345 91t-248 248t-91 345q0 138 55 264.5t147 218.5t218.5 146.5t263.5 54.5q135 0 262 -54.5t220 -145t149.5 -213t56.5 -251.5q0 -29 -4 -68zM819 1231
q-107 0 -206 -39.5t-177 -111.5v-351h768v351q-78 71 -178 111t-207 40z" />
    <glyph glyph-name="uni2150" unicode="&#x2150;" horiz-adv-x="1701" 
d="M1258 1495h135l-1139 -1556h-135zM347 660h-134l131 657h-129l23 117h264zM1144 773h541l-4 -19l-452 -754h-136l399 660h-370z" />
    <glyph glyph-name="uni2151" unicode="&#x2151;" horiz-adv-x="1751" 
d="M1254 1495h135l-1139 -1556h-135zM344 660h-134l131 657h-130l24 117h263zM1443 788q107 0 174 -65t67 -165q0 -72 -34.5 -140t-100.5 -149l-210 -272h-145l189 249q13 15 33 40q-42 -15 -88 -15q-94 0 -155.5 60t-61.5 151q0 131 95.5 218.5t236.5 87.5zM1367 371
q78 0 133 51.5t55 127.5q0 51 -34.5 82.5t-92.5 31.5q-81 0 -134.5 -53.5t-53.5 -126.5q0 -51 34 -82t93 -31z" />
    <glyph glyph-name="uni2152" unicode="&#x2152;" horiz-adv-x="2152" 
d="M1254 1495h135l-1139 -1556h-135zM344 660h-134l131 657h-130l24 117h263zM1812 786q116 0 180 -78.5t64 -212.5t-44.5 -249t-135 -189.5t-209.5 -74.5q-116 0 -180 79t-64 214q0 99 26.5 190t75 163t123 115t164.5 43zM1117 657l23 116h264l-155 -773h-134l131 657h-129
zM1685 114q56 0 103 35t76 91t45 120.5t16 127.5q0 80 -33.5 123t-97.5 43q-72 0 -128.5 -60.5t-83.5 -144t-27 -167.5q0 -81 33.5 -124.5t96.5 -43.5z" />
    <glyph glyph-name="uni2153" unicode="&#x2153;" horiz-adv-x="1691" 
d="M1254 1495h135l-1139 -1556h-135zM344 660h-134l131 657h-130l24 117h263zM1629 773l-6 -28l-226 -261q71 -18 114 -74.5t43 -131.5q0 -125 -86 -209t-219 -84q-113 0 -177.5 68t-50.5 181h129q-10 -53 20 -89t86 -36q72 0 120.5 50.5t48.5 116.5q0 48 -34 77t-90 29
h-102l5 27l207 248h-284l24 116h478z" />
    <glyph glyph-name="uni2154" unicode="&#x2154;" horiz-adv-x="1949" 
d="M1521 1495h135l-1139 -1556h-135zM647 786l-27 -124h-528l5 32q28 26 83 75q75 67 111 100.5t93 87.5t84.5 86t58.5 71.5t43 70t12 57.5q0 41 -25.5 64.5t-67.5 23.5q-115 0 -145 -133h-130q53 253 290 253q94 0 152 -57t58 -145q0 -32 -10 -64.5t-22.5 -59.5t-43 -65
t-50 -61t-67.5 -68.5t-72 -67.5t-84 -76h282zM1896 773l-6 -28l-226 -261q71 -18 114 -74.5t43 -131.5q0 -125 -86 -209t-219 -84q-113 0 -177.5 68t-50.5 181h129q-10 -53 20.5 -89t86.5 -36q72 0 120 50.5t48 116.5q0 48 -34 77t-90 29h-102l5 27l207 248h-284l24 116h478
z" />
    <glyph glyph-name="uni2155" unicode="&#x2155;" horiz-adv-x="1732" 
d="M1254 1495h135l-1139 -1556h-135zM344 660h-134l131 657h-130l24 117h263zM1627 657h-294l-50 -164h83q104 0 168.5 -62t64.5 -156q0 -122 -89 -206t-219 -84q-116 0 -182 74t-42 174h130q-11 -51 21 -88.5t89 -37.5q66 0 113.5 48t47.5 117q0 48 -32.5 77t-87.5 29h-206
l-14 19l118 376h403z" />
    <glyph glyph-name="uni2156" unicode="&#x2156;" horiz-adv-x="1990" 
d="M1522 1495h135l-1139 -1556h-135zM648 786l-27 -124h-529l6 32q243 220 283 259q170 165 196 253q5 19 5 36q0 41 -25.5 64.5t-67.5 23.5q-114 0 -144 -133h-131q53 253 290 253q94 0 152.5 -57t58.5 -145q0 -32 -10 -64.5t-22.5 -59.5t-43 -65t-50 -61t-67.5 -68.5
t-72 -67.5t-84 -76h282zM1894 657h-293l-50 -164h82q104 0 168.5 -62t64.5 -156q0 -122 -89 -206t-219 -84q-116 0 -182 74t-42 174h131q-11 -52 20.5 -89t88.5 -37q66 0 113.5 48t47.5 117q0 48 -32 77t-87 29h-207l-13 19l118 376h402z" />
    <glyph glyph-name="uni2157" unicode="&#x2157;" horiz-adv-x="1984" 
d="M1510 1495h135l-1139 -1556h-135zM664 938q0 -125 -86 -208.5t-219 -83.5q-113 0 -177.5 67.5t-50.5 180.5h129q-10 -53 20 -89t86 -36q72 0 120.5 51t48.5 117q0 48 -34 77t-90 29h-102l4 26l207 248h-283l24 117h478l-6 -29l-226 -261q71 -18 114 -74.5t43 -131.5z
M1883 657h-294l-50 -164h83q104 0 168.5 -62t64.5 -156q0 -122 -89 -206t-219 -84q-116 0 -182 74t-42 174h131q-11 -52 20.5 -89t88.5 -37q66 0 113.5 48t47.5 117q0 48 -32.5 77t-87.5 29h-206l-14 19l118 376h403z" />
    <glyph glyph-name="uni2158" unicode="&#x2158;" horiz-adv-x="2066" 
d="M1582 1495h135l-1139 -1556h-135zM460 660l32 156h-383l6 26l380 592h139l-329 -505h212l63 212h103l-43 -212h76l-23 -113h-75l-31 -156h-127zM1955 657h-294l-50 -164h83q103 0 167.5 -62t64.5 -156q0 -122 -88.5 -206t-218.5 -84q-116 0 -182 74t-42 174h130
q-11 -51 21 -88.5t89 -37.5q66 0 113.5 48t47.5 117q0 48 -32.5 77t-87.5 29h-207l-13 19l118 376h402z" />
    <glyph glyph-name="uni2159" unicode="&#x2159;" horiz-adv-x="1746" 
d="M1258 1495h135l-1139 -1556h-135zM347 660h-134l131 657h-129l23 117h264zM1415 502q94 0 154.5 -60.5t60.5 -151.5q0 -129 -96.5 -217t-236.5 -88q-107 0 -173.5 64.5t-66.5 162.5q0 75 33 140.5t101 152.5l210 271h147l-192 -248q-15 -19 -35 -46q45 20 94 20z
M1313 109q79 0 133 51t54 126q0 53 -34.5 84.5t-93.5 31.5q-78 0 -132 -51.5t-54 -127.5q0 -51 34.5 -82.5t92.5 -31.5z" />
    <glyph glyph-name="uni215A" unicode="&#x215a;" horiz-adv-x="2033" 
d="M1546 1495h135l-1139 -1556h-135zM672 936q0 -122 -89 -206t-219 -84q-116 0 -182 73.5t-42 173.5h131q-11 -51 20.5 -88t88.5 -37q66 0 114 48t48 116q0 48 -32.5 77.5t-87.5 29.5h-207l-13 19l118 376h402l-22 -117h-293l-50 -164h82q104 0 168.5 -61.5t64.5 -155.5z
M1703 502q94 0 154.5 -60.5t60.5 -151.5q0 -129 -96.5 -217t-236.5 -88q-107 0 -173.5 64.5t-66.5 162.5q0 75 33 140.5t101 152.5l210 271h147l-192 -248q-15 -19 -35 -46q45 20 94 20zM1601 109q79 0 133 51t54 126q0 53 -34.5 84.5t-93.5 31.5q-78 0 -132 -51.5
t-54 -127.5q0 -51 34.5 -82.5t92.5 -31.5z" />
    <glyph glyph-name="oneeighth" unicode="&#x215b;" horiz-adv-x="1769" 
d="M1254 1495h135l-1139 -1556h-135zM344 660h-134l131 657h-130l24 117h263zM1561 404q71 -50 71 -146q0 -123 -91 -198.5t-231 -75.5q-109 0 -175 60t-66 151q0 154 146 228q-51 45 -51 123q0 112 81.5 177t209.5 65q100 0 161 -54t61 -135q0 -127 -116 -195zM1399 465
q62 0 106.5 36t44.5 90q0 40 -30 63.5t-79 23.5q-63 0 -106.5 -36.5t-43.5 -90.5q0 -40 29 -63t79 -23zM1326 100q77 0 126.5 43t49.5 108q0 47 -33 75t-92 28q-77 0 -128.5 -44t-51.5 -108q0 -46 35 -74t94 -28z" />
    <glyph glyph-name="threeeighths" unicode="&#x215c;" horiz-adv-x="2019" 
d="M1510 1495h135l-1139 -1556h-135zM664 938q0 -125 -86 -208.5t-219 -83.5q-113 0 -177.5 67.5t-50.5 180.5h129q-10 -53 20 -89t86 -36q72 0 120.5 51t48.5 117q0 48 -34 77t-90 29h-102l4 26l207 248h-283l24 117h478l-6 -29l-226 -261q71 -18 114 -74.5t43 -131.5z
M1817 404q72 -51 72 -146q0 -123 -91.5 -198.5t-231.5 -75.5q-109 0 -175 60t-66 151q0 154 147 228q-52 46 -52 123q0 112 81.5 177t209.5 65q100 0 161 -54t61 -135q0 -127 -116 -195zM1655 465q62 0 106.5 36t44.5 90q0 40 -30 63.5t-79 23.5q-63 0 -106.5 -36.5
t-43.5 -90.5q0 -40 29 -63t79 -23zM1582 100q77 0 126.5 43t49.5 108q0 47 -33 75t-92 28q-77 0 -128 -44t-51 -108q0 -47 35 -74.5t93 -27.5z" />
    <glyph glyph-name="fiveeighths" unicode="&#x215d;" horiz-adv-x="2045" 
d="M1537 1495h135l-1139 -1556h-135zM663 936q0 -122 -88.5 -206t-218.5 -84q-116 0 -182 73.5t-42 173.5h130q-11 -51 21 -88t89 -37q66 0 113.5 47.5t47.5 116.5q0 48 -32.5 77.5t-87.5 29.5h-207l-13 19l118 376h402l-21 -117h-294l-50 -164h83q104 0 168 -61.5
t64 -155.5zM1844 404q71 -50 71 -146q0 -123 -91 -198.5t-231 -75.5q-109 0 -175.5 60t-66.5 151q0 154 147 228q-52 46 -52 123q0 112 82 177t210 65q100 0 160.5 -54t60.5 -135q0 -128 -115 -195zM1682 465q62 0 106 36t44 90q0 40 -29.5 63.5t-78.5 23.5
q-63 0 -107 -36.5t-44 -90.5q0 -40 29.5 -63t79.5 -23zM1609 100q77 0 126.5 43t49.5 108q0 47 -33 75t-92 28q-77 0 -128.5 -44t-51.5 -108q0 -46 35 -74t94 -28z" />
    <glyph glyph-name="seveneighths" unicode="&#x215e;" horiz-adv-x="2011" 
d="M1490 1495h135l-1139 -1556h-135zM770 1434l-4 -19l-452 -755h-136l399 661h-370l22 113h541zM1796 404q72 -51 72 -146q0 -123 -91.5 -198.5t-231.5 -75.5q-109 0 -175 60t-66 151q0 154 147 228q-52 46 -52 123q0 112 82 177t210 65q100 0 160.5 -54t60.5 -135
q0 -127 -116 -195zM1634 465q62 0 106.5 36t44.5 90q0 40 -29.5 63.5t-78.5 23.5q-63 0 -107 -36.5t-44 -90.5q0 -40 29 -63t79 -23zM1561 100q77 0 127 43.5t50 107.5q0 47 -33.5 75t-92.5 28q-77 0 -128 -44t-51 -108q0 -47 35 -74.5t93 -27.5z" />
    <glyph glyph-name="uni215F" unicode="&#x215f;" horiz-adv-x="1036" 
d="M1433 1495h135l-1139 -1556h-135zM522 660h-134l131 657h-129l23 117h264z" />
    <glyph glyph-name="uni2189" unicode="&#x2189;" horiz-adv-x="2037" 
d="M1604 1495h135l-1139 -1556h-135zM787 1159q0 -134 -44.5 -249t-135 -189.5t-209.5 -74.5q-116 0 -180 79t-64 214q0 99 26.5 190t75 163t123 115t164.5 43q116 0 180 -78.5t64 -212.5zM416 778q74 0 131 60.5t83.5 144t26.5 169.5q0 80 -34 123t-98 43
q-72 0 -128.5 -60.5t-83.5 -144t-27 -167.5q0 -81 33.5 -124.5t96.5 -43.5zM1979 773l-6 -28l-226 -261q71 -18 113.5 -74.5t42.5 -131.5q0 -125 -86 -209t-218 -84q-113 0 -177.5 68t-50.5 181h129q-10 -53 20 -89t86 -36q72 0 120.5 50.5t48.5 116.5q0 48 -34 77t-90 29
h-102l4 27l207 248h-283l23 116h479z" />
    <glyph glyph-name="arrowleft" unicode="&#x2190;" horiz-adv-x="1357" 
d="M1299 707v-148h-949l400 -394l-103 -93l-555 549v24l555 549l103 -93l-400 -394h949z" />
    <glyph glyph-name="arrowup" unicode="&#x2191;" horiz-adv-x="1230" 
d="M1223 791l-92 -103l-394 400v-949h-149v949l-394 -400l-92 103l549 555h23z" />
    <glyph glyph-name="arrowright" unicode="&#x2192;" horiz-adv-x="1357" 
d="M742 1194l555 -549v-24l-555 -549l-103 93l400 394h-948v148h948l-400 394z" />
    <glyph glyph-name="arrowdown" unicode="&#x2193;" horiz-adv-x="1230" 
d="M1107 771l93 -103l-549 -555h-24l-549 555l93 103l394 -401v949h148v-949z" />
    <glyph glyph-name="uni2196" unicode="&#x2196;" horiz-adv-x="1292" 
d="M1192 306l-105 -104l-742 750v-598h-137v821l19 19h821v-138h-599z" />
    <glyph glyph-name="uni2197" unicode="&#x2197;" horiz-adv-x="1161" 
d="M1019 1194l20 -19v-821h-138v598l-742 -750l-105 104l743 750h-598v138h820z" />
    <glyph glyph-name="uni2198" unicode="&#x2198;" horiz-adv-x="1339" 
d="M993 991h138v-820l-19 -19h-821v137h599l-743 750l105 105l741 -751v598z" />
    <glyph glyph-name="uni2199" unicode="&#x2199;" horiz-adv-x="1202" 
d="M1181 1039l-743 -750h598v-137h-820l-19 19v820h137v-598l742 751z" />
    <glyph glyph-name="partialdiff" unicode="&#x2202;" horiz-adv-x="1259" 
d="M684 1463q256 0 391 -126.5t135 -367.5q0 -250 -90 -481q-93 -233 -271 -372.5t-415 -139.5q-188 0 -294 102.5t-106 262.5q0 126 54.5 242t146 200.5t215.5 134.5t258 50q237 0 336 -156q16 86 16 153q0 355 -410 355q-95 0 -234 -21l29 142q140 22 239 22zM464 122
q130 0 246 68.5t184.5 179.5t68.5 231q0 107 -71.5 169t-197.5 62q-98 0 -190 -39.5t-159.5 -104.5t-108 -151.5t-40.5 -176.5q0 -110 71.5 -174t196.5 -64z" />
    <glyph glyph-name="emptyset" unicode="&#x2205;" horiz-adv-x="1366" 
d="M1133 1004q145 -125 145 -343q0 -183 -92 -339.5t-250.5 -249t-344.5 -92.5q-138 0 -250 53l-87 -106h-160l145 173q-72 62 -110.5 151.5t-38.5 195.5q0 137 55 263t147.5 217t220 145t266.5 54q145 0 251 -54l83 103h160zM756 975q-136 0 -252.5 -72.5t-183 -191
t-66.5 -250.5q0 -142 96 -230l574 708q-75 36 -168 36zM612 131q101 0 194.5 43t160.5 113.5t107 165t40 194.5q0 140 -92 227l-573 -708q72 -35 163 -35z" />
    <glyph glyph-name="product" unicode="&#x220f;" horiz-adv-x="1501" 
d="M1608 1434l-33 -159h-214l-322 -1603h-174l321 1603h-582l-322 -1603h-174l321 1603h-218l33 159h1364z" />
    <glyph glyph-name="summation" unicode="&#x2211;" horiz-adv-x="1210" 
d="M1299 1434l-32 -156h-775l360 -717l-10 -52l-600 -682h745l-32 -157h-1065l6 33l755 862l-415 836l6 33h1057z" />
    <glyph glyph-name="minus" unicode="&#x2212;" horiz-adv-x="1277" 
d="M159 621l31 150h983l-31 -150h-983z" />
    <glyph glyph-name="radical" unicode="&#x221a;" horiz-adv-x="1366" 
d="M1397 1536h177l-978 -1536h-70l-185 831h-269l29 143h367l144 -684z" />
    <glyph glyph-name="infinity" unicode="&#x221e;" horiz-adv-x="1998" 
d="M1581 1085q156 0 251.5 -90t95.5 -233q0 -199 -141 -337t-347 -138q-133 0 -230.5 67.5t-194.5 218.5q-157 -149 -284 -217.5t-260 -68.5q-156 0 -252 91t-96 233q0 199 140.5 336.5t347.5 137.5q133 0 228 -67.5t197 -223.5q163 155 288 223t257 68zM271 627
q0 -91 60 -144.5t166 -53.5q100 0 190.5 56.5t250.5 212.5q-86 134 -162 190t-174 56q-144 0 -237.5 -92t-93.5 -225zM1451 429q146 0 237.5 91t91.5 228q0 92 -59 144t-165 52q-99 0 -186.5 -56.5t-255.5 -218.5q84 -131 161 -185.5t176 -54.5z" />
    <glyph glyph-name="integral" unicode="&#x222b;" horiz-adv-x="792" 
d="M-250 -616l29 152h42q143 0 234.5 76.5t120.5 218.5l329 1648q37 187 158 289t309 102h99l-29 -150h-44q-136 0 -223.5 -73t-114.5 -209l-329 -1648q-38 -193 -164 -299.5t-318 -106.5h-99z" />
    <glyph glyph-name="approxequal" unicode="&#x2248;" horiz-adv-x="1191" 
d="M856 755q-49 0 -93 19t-70.5 41t-63.5 60q-44 47 -76.5 69t-72.5 22q-57 0 -96 -52t-55 -152h-137q62 348 308 348q77 0 129 -32.5t105 -92.5q29 -31 45.5 -46t42 -28t52.5 -13q108 0 147 201h138q-33 -173 -107 -258.5t-196 -85.5zM765 297q-49 0 -93 19t-70.5 41
t-63.5 60q-43 46 -76.5 68t-73.5 22q-57 0 -95.5 -51.5t-54.5 -151.5h-138q62 348 308 348q77 0 129.5 -32.5t105.5 -92.5q29 -31 45.5 -46t42 -28t52.5 -13q108 0 147 201h138q-33 -173 -107 -258.5t-196 -85.5z" />
    <glyph glyph-name="notequal" unicode="&#x2260;" horiz-adv-x="1284" 
d="M1191 853h-373l-137 -304h451l-31 -150h-488l-141 -313h-156l142 313h-340l31 150h376l138 304h-455l31 150h491l137 304h156l-137 -304h336z" />
    <glyph glyph-name="lessequal" unicode="&#x2264;" horiz-adv-x="1138" 
d="M1163 1355l-38 -189l-725 -351l586 -340l-32 -166l-816 485l12 66zM27 53l30 155h879l-31 -155h-878z" />
    <glyph glyph-name="greaterequal" unicode="&#x2265;" horiz-adv-x="1126" 
d="M298 1355l814 -495l-13 -66l-1010 -485l38 195l709 341l-572 342zM36 53l30 155h879l-31 -155h-878z" />
    <glyph glyph-name="lozenge" unicode="&#x25ca;" horiz-adv-x="1144" 
d="M761 1432l350 -700l-6 -27l-630 -704h-27l-349 705l6 27l628 699h28zM973 734l-253 507l-482 -538l251 -510z" />
    <glyph glyph-name="K.ss01" horiz-adv-x="1255" 
d="M374 1434h171l-287 -1434h-171zM1399 1434l-769 -688l536 -746h-192l-540 754l4 23l733 657h228z" />
    <glyph glyph-name="K.ss03" horiz-adv-x="1255" 
d="M374 1434h171l-287 -1434h-171zM1399 1434l-769 -688l536 -746h-192l-540 754l4 23l733 657h228z" />
    <glyph glyph-name="K.ss04" horiz-adv-x="1255" 
d="M374 1434h171l-287 -1434h-171zM1399 1434l-769 -688l536 -746h-192l-540 754l4 23l733 657h228z" />
    <glyph glyph-name="germandbls.calt" horiz-adv-x="1388" 
d="M1367 1434l-6 -33l-381 -486q150 -21 233 -116t83 -242q0 -247 -169 -402t-435 -155h-207l33 164h190q177 0 296 107t119 266q0 110 -77.5 175.5t-212.5 65.5h-134l6 36l360 459h-244q-161 0 -260.5 -83.5t-131.5 -244.5l-189 -945h-171l196 981q43 219 186 336t366 117
h550z" />
    <glyph glyph-name="i.loclTRK" horiz-adv-x="522" 
d="M316 1302l39 193h182l-40 -193h-181zM69 0l221 1106h166l-221 -1106h-166z" />
    <glyph glyph-name="k.ss01" horiz-adv-x="1060" 
d="M370 1500h165l-300 -1500h-166zM1148 1106l-562 -535l373 -571h-188l-365 566l9 46l521 494h212z" />
    <glyph glyph-name="k.ss03" horiz-adv-x="1060" 
d="M370 1500h165l-300 -1500h-166zM1148 1106l-562 -535l373 -571h-188l-365 566l9 46l521 494h212z" />
    <glyph glyph-name="k.ss04" horiz-adv-x="1060" 
d="M370 1500h165l-300 -1500h-166zM1148 1106l-562 -535l373 -571h-188l-365 566l9 46l521 494h212z" />
    <glyph glyph-name="uni0414.loclBGR" horiz-adv-x="1548" 
d="M1290 159l119 -2l-88 -441h-159l56 284h-1103l-57 -284h-159l89 441l121 2l760 1275h156zM906 1183l-606 -1022h820z" />
    <glyph glyph-name="uni041B.loclBGR" horiz-adv-x="1366" 
d="M1216 0h-175l-225 1185l-695 -1185h-191l849 1434h159z" />
    <glyph glyph-name="uni0416.ss01" horiz-adv-x="1851" 
d="M851 779l-7 -39l-728 -740h-229l772 781l-432 653h195zM1017 1434h171l-287 -1434h-171zM1983 1434l-704 -690l470 -744h-198l-467 742l8 35l662 657h229z" />
    <glyph glyph-name="uni041A.ss01" horiz-adv-x="1255" 
d="M374 1434h171l-287 -1434h-171zM1399 1434l-769 -688l536 -746h-192l-540 754l4 23l733 657h228z" />
    <glyph glyph-name="uni0424.ss01" horiz-adv-x="1781" 
d="M1725 846q0 -175 -67 -333t-182 -273.5t-275.5 -185.5t-340.5 -76l-44 -219h-168l44 220q-177 10 -308 95.5t-196 219t-65 295.5q0 173 68 331t183.5 273t276 185.5t338.5 76.5l38 196h168l-39 -196q134 -7 243 -58t179.5 -133.5t108.5 -189.5t38 -228zM893 143
q179 10 331.5 110t240 257t87.5 331q0 187 -114 311.5t-315 136.5zM725 143l230 1146q-178 -11 -330.5 -110.5t-240.5 -255.5t-88 -329q0 -187 114.5 -313t314.5 -138z" />
    <glyph glyph-name="uni0414.ss02" horiz-adv-x="1548" 
d="M1290 159l119 -2l-88 -441h-159l56 284h-1103l-57 -284h-159l89 441l121 2l760 1275h156zM906 1183l-606 -1022h820z" />
    <glyph glyph-name="uni041B.ss02" horiz-adv-x="1366" 
d="M1216 0h-175l-225 1185l-695 -1185h-191l849 1434h159z" />
    <glyph glyph-name="uni0414.ss03" horiz-adv-x="1548" 
d="M1290 159l119 -2l-88 -441h-159l56 284h-1103l-57 -284h-159l89 441l121 2l760 1275h156zM906 1183l-606 -1022h820z" />
    <glyph glyph-name="uni0416.ss03" horiz-adv-x="1851" 
d="M851 779l-7 -39l-728 -740h-229l772 781l-432 653h195zM1017 1434h171l-287 -1434h-171zM1983 1434l-704 -690l470 -744h-198l-467 742l8 35l662 657h229z" />
    <glyph glyph-name="uni041A.ss03" horiz-adv-x="1255" 
d="M374 1434h171l-287 -1434h-171zM1399 1434l-769 -688l536 -746h-192l-540 754l4 23l733 657h228z" />
    <glyph glyph-name="uni041B.ss03" horiz-adv-x="1366" 
d="M1216 0h-175l-225 1185l-695 -1185h-191l849 1434h159z" />
    <glyph glyph-name="uni0416.ss04" horiz-adv-x="1851" 
d="M851 779l-7 -39l-728 -740h-229l772 781l-432 653h195zM1017 1434h171l-287 -1434h-171zM1983 1434l-704 -690l470 -744h-198l-467 742l8 35l662 657h229z" />
    <glyph glyph-name="uni041A.ss04" horiz-adv-x="1255" 
d="M374 1434h171l-287 -1434h-171zM1399 1434l-769 -688l536 -746h-192l-540 754l4 23l733 657h228z" />
    <glyph glyph-name="uni0424.ss04" horiz-adv-x="1656" 
d="M1608 820q0 -204 -105.5 -376t-286.5 -274t-398 -108l-34 -167h-172l35 169q-127 10 -229.5 58.5t-167 124t-99 170.5t-34.5 201q0 208 104 379t285.5 272t403.5 109l30 154h171l-30 -154q245 -15 386 -173.5t141 -384.5zM680 221l200 1001q-118 -7 -227.5 -60
t-188.5 -136t-126.5 -192t-47.5 -222q0 -167 105 -276.5t285 -114.5zM848 222q160 6 296 92t213.5 223t77.5 291q0 168 -103.5 277t-283.5 116z" />
    <glyph glyph-name="uni0424.ss05" horiz-adv-x="1656" 
d="M1608 820q0 -204 -105.5 -376t-286.5 -274t-398 -108l-34 -167h-172l35 169q-127 10 -229.5 58.5t-167 124t-99 170.5t-34.5 201q0 208 104 379t285.5 272t403.5 109l30 154h171l-30 -154q245 -15 386 -173.5t141 -384.5zM680 221l200 1001q-118 -7 -227.5 -60
t-188.5 -136t-126.5 -192t-47.5 -222q0 -167 105 -276.5t285 -114.5zM848 222q160 6 296 92t213.5 223t77.5 291q0 168 -103.5 277t-283.5 116z" />
    <glyph glyph-name="uni0432.loclBGR" horiz-adv-x="1275" 
d="M999 771q78 -43 120 -121t42 -172q0 -147 -77.5 -262t-206.5 -176.5t-284 -61.5q-214 0 -333 114t-124 316q0 19 1 36.5t2.5 33.5t6 45t8 50t13 69t16.5 83t22.5 112t27.5 136q55 273 205 413t387 140q187 0 302.5 -98.5t115.5 -252.5q0 -121 -67 -230.5t-177 -173.5z
M811 1369q-164 0 -272 -104.5t-147 -309.5q-4 -17 -10 -49t-9 -46h371q145 0 247 87.5t102 215.5q0 94 -75.5 150t-206.5 56zM607 137q164 0 276 97t112 246q0 102 -73 162.5t-200 60.5h-381q-43 -210 -43 -281q0 -141 78 -213t231 -72z" />
    <glyph glyph-name="uni0433.loclBGR" horiz-adv-x="1052" 
d="M430 -15q-178 0 -284 80.5t-106 211.5q0 56 14.5 102.5t36 79.5t60 60.5t73.5 44.5t90 32t96.5 23.5t104.5 19.5q43 8 68 13t64.5 15t63 19.5t52 25.5t44 34t26.5 43.5t11 55.5q0 61 -59.5 97.5t-164.5 36.5q-126 0 -201 -51.5t-93 -148.5h-158q16 165 143.5 256
t320.5 91q167 0 266.5 -78t99.5 -200q0 -47 -9.5 -87t-30 -70.5t-43 -54t-60 -42.5t-67.5 -32t-79 -25t-82.5 -18.5t-88.5 -16.5q-53 -9 -82.5 -15t-75.5 -18.5t-72.5 -27t-54 -36t-40 -51.5t-12.5 -68q0 -66 65.5 -103.5t180.5 -37.5q134 0 217 55t103 156h164
q-32 -178 -165 -274.5t-336 -96.5z" />
    <glyph glyph-name="uni0434.loclBGR" horiz-adv-x="1378" 
d="M1200 1106h111l-192 -960q-54 -268 -223 -416t-422 -148q-201 0 -320 98.5t-136 274.5h166q16 -105 101 -163.5t210 -58.5q172 0 298.5 111.5t163.5 298.5l10 51q-185 -158 -426 -158q-201 0 -327.5 126.5t-126.5 322.5q0 127 51.5 245.5t138 206t205.5 140.5t248 53
q134 0 239 -57.5t163 -158.5zM575 194q127 0 237.5 69t173.5 180t63 233q0 133 -87 214t-230 81q-127 0 -238 -68.5t-175.5 -179.5t-64.5 -233q0 -132 88.5 -214t232.5 -82z" />
    <glyph glyph-name="uni0436.loclBGR" horiz-adv-x="1634" 
d="M1702 1106l-501 -525l321 -581h-189l-274 500h-167l-100 -500h-166l100 500h-140l-473 -500h-217l555 583l-293 523h179l256 -458h163l171 856h166l-171 -856h137l436 458h207z" />
    <glyph glyph-name="uni0437.loclBGR" horiz-adv-x="1144" 
d="M777 377q95 -41 143.5 -121t48.5 -189q0 -113 -46.5 -206t-126 -153.5t-184 -93t-221.5 -32.5q-204 0 -324.5 105.5t-121.5 286.5h159q5 -110 85.5 -172t215.5 -62q166 0 280 88.5t114 227.5q0 112 -79.5 182.5t-208.5 70.5h-210l28 158h212q131 0 237 88.5t106 214.5
q0 92 -68.5 146.5t-178.5 54.5q-124 0 -221 -66t-134 -174h-164q39 178 186.5 288.5t346.5 110.5q175 0 287 -101t112 -259q0 -132 -73 -234t-200 -159z" />
    <glyph glyph-name="uni0438.loclBGR" horiz-adv-x="1314" 
d="M1082 1106h165l-221 -1106h-123l7 168q-79 -91 -189.5 -141.5t-238.5 -50.5q-167 0 -261 94.5t-94 258.5q0 14 0.5 26t1.5 25t4.5 33t6.5 39.5t10 55.5t14 69.5t19 92.5t23 115t29.5 145.5t35.5 175.5h166q-128 -634 -135 -680q-5 -35 -5 -62q0 -116 61 -175t180 -59
q144 0 264.5 102.5t155.5 253.5z" />
    <glyph glyph-name="uni0439.loclBGR" horiz-adv-x="1314" 
d="M1061 1377l-23 -126h-536l24 126h535zM1082 1106h165l-221 -1106h-123l7 168q-79 -91 -189.5 -141.5t-238.5 -50.5q-167 0 -261 94.5t-94 258.5q0 14 0.5 26t1.5 25t4.5 33t6.5 39.5t10 55.5t14 69.5t19 92.5t23 115t29.5 145.5t35.5 175.5h166q-128 -634 -135 -680
q-5 -35 -5 -62q0 -116 61 -175t180 -59q144 0 264.5 102.5t155.5 253.5z" />
    <glyph glyph-name="uni043A.loclBGR" horiz-adv-x="1097" 
d="M1170 1106l-513 -530l333 -576h-188l-289 500h-178l-100 -500h-166l301 1500h165l-169 -847h149l439 453h216z" />
    <glyph glyph-name="uni043B.loclBGR" horiz-adv-x="1087" 
d="M938 0h-157l-157 881l-517 -881h-179l653 1106h149z" />
    <glyph glyph-name="uni043F.loclBGR" horiz-adv-x="1314" 
d="M831 1130q168 0 263 -95t95 -259q0 -16 -0.5 -28.5t-3 -32.5t-5 -36.5t-9 -52.5t-12.5 -67t-18.5 -93.5t-24 -118.5t-31.5 -155t-39 -192h-166q127 628 134 676q5 36 5 65q0 235 -244 235q-144 0 -263 -103t-154 -256l-123 -617h-166l221 1106h118l-3 -169
q78 92 188 142.5t238 50.5z" />
    <glyph glyph-name="uni0442.loclBGR" horiz-adv-x="1945" 
d="M1508 1130q146 0 233.5 -88t87.5 -232q-3 -49 -75 -413q-46 -231 -79 -397h-166q18 92 36.5 182t30.5 149t23.5 117t18.5 93t13.5 68.5t10 52t6.5 35.5t4 27.5t1.5 19t0.5 18.5q0 104 -51.5 159t-147.5 55q-125 0 -233.5 -99t-141.5 -246q-9 -48 -24.5 -125.5t-46 -227
t-56.5 -278.5h-162q30 152 73 365q50 248 60.5 305.5t10.5 91.5q0 104 -51.5 159t-147.5 55q-126 0 -234.5 -99.5t-140.5 -245.5l-126 -631h-166l221 1106h120l-4 -145q77 81 176.5 125t206.5 44q114 0 193 -56t109 -154q78 99 187.5 154.5t229.5 55.5z" />
    <glyph glyph-name="uni0446.loclBGR" horiz-adv-x="1380" 
d="M1085 259q0 -77 41 -112.5t126 -35.5l-78 -394h-154l60 296q-67 10 -106 53t-46 113q-87 -93 -205 -147t-250 -54q-166 0 -257.5 90t-91.5 251q0 13 0.5 23.5t1.5 22.5t4 30.5t6.5 38t10 54.5t13.5 69.5t19 94t24 118.5t31 151.5t37 184.5h166q-29 -144 -70 -347
q-46 -231 -56.5 -288.5t-10.5 -93.5q0 -116 63.5 -177.5t184.5 -61.5q145 0 263 102.5t148 254.5l123 611h165q-47 -239 -105 -526q-57 -286 -57 -321z" />
    <glyph glyph-name="uni0448.loclBGR" horiz-adv-x="1945" 
d="M1712 1106h166l-221 -1106h-124l6 144q-77 -80 -176.5 -124t-205.5 -44q-113 0 -192 56t-109 154q-78 -99 -187.5 -154.5t-229.5 -55.5q-146 0 -233.5 88t-87.5 232q0 52 84 465q41 206 69 345h166q-30 -152 -73 -365q-50 -248 -60.5 -305.5t-10.5 -91.5
q0 -104 51.5 -159t147.5 -55q126 0 234.5 99.5t140.5 247.5q9 46 25.5 127.5t44.5 222.5t56 279h163q-18 -92 -36.5 -182t-30.5 -149t-23.5 -117t-18.5 -93t-13.5 -68.5t-10 -52t-6.5 -35.5t-4 -27.5t-1.5 -19t-0.5 -18.5q0 -104 51.5 -159t147.5 -55q126 0 235 99.5
t141 244.5z" />
    <glyph glyph-name="uni0449.loclBGR" horiz-adv-x="2011" 
d="M1716 258q0 -147 164 -147l-78 -395h-152l59 297q-125 23 -151 152q-78 -90 -182.5 -139.5t-218.5 -49.5q-113 0 -192 56t-109 154q-78 -99 -187.5 -154.5t-229.5 -55.5q-143 0 -229.5 88t-86.5 232q0 50 22.5 174t125.5 636l166 -1q-30 -151 -73 -364
q-50 -248 -60.5 -305.5t-10.5 -91.5q0 -104 51.5 -159t147.5 -55q126 0 234.5 100t140.5 247q9 46 25.5 127.5t44.5 222.5t56 279h163q-35 -175 -82 -407q-44 -218 -53.5 -270.5t-9.5 -84.5q0 -104 51.5 -159t147.5 -55q128 0 238.5 103t139.5 252v-1q92 463 124 622h166
q-155 -777 -159 -812q-3 -19 -3 -36z" />
    <glyph glyph-name="uni044E.loclBGR" horiz-adv-x="1755" 
d="M1197 1130q216 0 348 -132.5t132 -342.5q0 -182 -92.5 -338.5t-250.5 -248.5t-342 -92q-208 0 -335.5 133t-127.5 342v26h-199l-95 -479h-166l299 1502h166l-173 -869h192q59 217 238 358t406 141zM1011 138q133 0 248.5 70.5t183 189t67.5 253.5q0 143 -90.5 229
t-242.5 86q-128 0 -239 -70t-176 -188t-65 -253q0 -144 85 -230.5t229 -86.5z" />
    <glyph glyph-name="uni0436.ss01" horiz-adv-x="1601" 
d="M695 580l-4 -18l-598 -562h-217l625 590l-336 516h189zM838 1106h161l-222 -1106h-160zM1691 1106l-572 -547l373 -559h-190l-373 562l4 18l548 526h210z" />
    <glyph glyph-name="uni043A.ss01" horiz-adv-x="1064" 
d="M290 1106h166l-221 -1106h-166zM1164 1106l-581 -544l373 -562h-190l-367 566l3 18l554 522h208z" />
    <glyph glyph-name="uni0432.ss02" horiz-adv-x="1275" 
d="M999 771q78 -43 120 -121t42 -172q0 -147 -77.5 -262t-206.5 -176.5t-284 -61.5q-214 0 -333 114t-124 316q0 19 1 36.5t2.5 33.5t6 45t8 50t13 69t16.5 83t22.5 112t27.5 136q55 273 205 413t387 140q187 0 302.5 -98.5t115.5 -252.5q0 -121 -67 -230.5t-177 -173.5z
M811 1369q-164 0 -272 -104.5t-147 -309.5q-4 -17 -10 -49t-9 -46h371q145 0 247 87.5t102 215.5q0 94 -75.5 150t-206.5 56zM607 137q164 0 276 97t112 246q0 102 -73 162.5t-200 60.5h-381q-43 -210 -43 -281q0 -141 78 -213t231 -72z" />
    <glyph glyph-name="uni0433.ss02" horiz-adv-x="1052" 
d="M430 -15q-178 0 -284 80.5t-106 211.5q0 56 14.5 102.5t36 79.5t60 60.5t73.5 44.5t90 32t96.5 23.5t104.5 19.5q43 8 68 13t64.5 15t63 19.5t52 25.5t44 34t26.5 43.5t11 55.5q0 61 -59.5 97.5t-164.5 36.5q-126 0 -201 -51.5t-93 -148.5h-158q16 165 143.5 256
t320.5 91q167 0 266.5 -78t99.5 -200q0 -47 -9.5 -87t-30 -70.5t-43 -54t-60 -42.5t-67.5 -32t-79 -25t-82.5 -18.5t-88.5 -16.5q-53 -9 -82.5 -15t-75.5 -18.5t-72.5 -27t-54 -36t-40 -51.5t-12.5 -68q0 -66 65.5 -103.5t180.5 -37.5q134 0 217 55t103 156h164
q-32 -178 -165 -274.5t-336 -96.5z" />
    <glyph glyph-name="uni0434.ss02" horiz-adv-x="1378" 
d="M1200 1106h111l-192 -960q-54 -268 -223 -416t-422 -148q-201 0 -320 98.5t-136 274.5h166q16 -105 101 -163.5t210 -58.5q172 0 298.5 111.5t163.5 298.5l10 51q-185 -158 -426 -158q-201 0 -327.5 126.5t-126.5 322.5q0 127 51.5 245.5t138 206t205.5 140.5t248 53
q134 0 239 -57.5t163 -158.5zM575 194q127 0 237.5 69t173.5 180t63 233q0 133 -87 214t-230 81q-127 0 -238 -68.5t-175.5 -179.5t-64.5 -233q0 -132 88.5 -214t232.5 -82z" />
    <glyph glyph-name="uni0436.ss02" horiz-adv-x="1634" 
d="M1702 1106l-501 -525l321 -581h-189l-274 500h-167l-100 -500h-166l100 500h-140l-473 -500h-217l555 583l-293 523h179l256 -458h163l171 856h166l-171 -856h137l436 458h207z" />
    <glyph glyph-name="uni0437.ss02" horiz-adv-x="1144" 
d="M777 377q95 -41 143.5 -121t48.5 -189q0 -113 -46.5 -206t-126 -153.5t-184 -93t-221.5 -32.5q-204 0 -324.5 105.5t-121.5 286.5h159q5 -110 85.5 -172t215.5 -62q166 0 280 88.5t114 227.5q0 112 -79.5 182.5t-208.5 70.5h-210l28 158h212q131 0 237 88.5t106 214.5
q0 92 -68.5 146.5t-178.5 54.5q-124 0 -221 -66t-134 -174h-164q39 178 186.5 288.5t346.5 110.5q175 0 287 -101t112 -259q0 -132 -73 -234t-200 -159z" />
    <glyph glyph-name="uni0438.ss02" horiz-adv-x="1314" 
d="M1082 1106h165l-221 -1106h-123l7 168q-79 -91 -189.5 -141.5t-238.5 -50.5q-167 0 -261 94.5t-94 258.5q0 14 0.5 26t1.5 25t4.5 33t6.5 39.5t10 55.5t14 69.5t19 92.5t23 115t29.5 145.5t35.5 175.5h166q-128 -634 -135 -680q-5 -35 -5 -62q0 -116 61 -175t180 -59
q144 0 264.5 102.5t155.5 253.5z" />
    <glyph glyph-name="uni0439.ss02" horiz-adv-x="1314" 
d="M1061 1377l-23 -126h-536l24 126h535zM1082 1106h165l-221 -1106h-123l7 168q-79 -91 -189.5 -141.5t-238.5 -50.5q-167 0 -261 94.5t-94 258.5q0 14 0.5 26t1.5 25t4.5 33t6.5 39.5t10 55.5t14 69.5t19 92.5t23 115t29.5 145.5t35.5 175.5h166q-128 -634 -135 -680
q-5 -35 -5 -62q0 -116 61 -175t180 -59q144 0 264.5 102.5t155.5 253.5z" />
    <glyph glyph-name="uni043A.ss02" horiz-adv-x="1097" 
d="M1170 1106l-513 -530l333 -576h-188l-289 500h-178l-100 -500h-166l301 1500h165l-169 -847h149l439 453h216z" />
    <glyph glyph-name="uni043B.ss02" horiz-adv-x="1087" 
d="M938 0h-157l-157 881l-517 -881h-179l653 1106h149z" />
    <glyph glyph-name="uni043F.ss02" horiz-adv-x="1314" 
d="M831 1130q168 0 263 -95t95 -259q0 -16 -0.5 -28.5t-3 -32.5t-5 -36.5t-9 -52.5t-12.5 -67t-18.5 -93.5t-24 -118.5t-31.5 -155t-39 -192h-166q127 628 134 676q5 36 5 65q0 235 -244 235q-144 0 -263 -103t-154 -256l-123 -617h-166l221 1106h118l-3 -169
q78 92 188 142.5t238 50.5z" />
    <glyph glyph-name="uni0442.ss02" horiz-adv-x="1945" 
d="M1508 1130q146 0 233.5 -88t87.5 -232q-3 -49 -75 -413q-46 -231 -79 -397h-166q18 92 36.5 182t30.5 149t23.5 117t18.5 93t13.5 68.5t10 52t6.5 35.5t4 27.5t1.5 19t0.5 18.5q0 104 -51.5 159t-147.5 55q-125 0 -233.5 -99t-141.5 -246q-9 -48 -24.5 -125.5t-46 -227
t-56.5 -278.5h-162q30 152 73 365q50 248 60.5 305.5t10.5 91.5q0 104 -51.5 159t-147.5 55q-126 0 -234.5 -99.5t-140.5 -245.5l-126 -631h-166l221 1106h120l-4 -145q77 81 176.5 125t206.5 44q114 0 193 -56t109 -154q78 99 187.5 154.5t229.5 55.5z" />
    <glyph glyph-name="uni0446.ss02" horiz-adv-x="1380" 
d="M1085 259q0 -77 41 -112.5t126 -35.5l-78 -394h-154l60 296q-67 10 -106 53t-46 113q-87 -93 -205 -147t-250 -54q-166 0 -257.5 90t-91.5 251q0 13 0.5 23.5t1.5 22.5t4 30.5t6.5 38t10 54.5t13.5 69.5t19 94t24 118.5t31 151.5t37 184.5h166q-29 -144 -70 -347
q-46 -231 -56.5 -288.5t-10.5 -93.5q0 -116 63.5 -177.5t184.5 -61.5q145 0 263 102.5t148 254.5l123 611h165q-47 -239 -105 -526q-57 -286 -57 -321z" />
    </font>
</defs>
</svg>
