<svg xmlns="http://www.w3.org/2000/svg" width="111.011" height="96" viewBox="0 0 111.011 96">
  <g id="certificate" transform="translate(0 -17.081)">
    <path id="Path_26934" data-name="Path 26934" d="M103.321,17.081H7.689A7.7,7.7,0,0,0,0,24.77V89.651A7.7,7.7,0,0,0,7.689,97.34H63.454L61.77,107.609a4.439,4.439,0,0,0,6.694,4.822L80.495,106.1a2.53,2.53,0,0,1,1.6,0l12.031,6.333a5.365,5.365,0,0,0,2.492.649,4.22,4.22,0,0,0,2.491-.789,4.667,4.667,0,0,0,1.711-4.684L99.133,97.34h4.188a7.7,7.7,0,0,0,7.689-7.689V24.77A7.7,7.7,0,0,0,103.321,17.081ZM81.293,84.16a13.4,13.4,0,1,1,13.4-13.4A13.417,13.417,0,0,1,81.293,84.16Zm3.868,16.107a8.894,8.894,0,0,0-7.736,0l-8.506,4.477,2.7-16.495a19.942,19.942,0,0,0,19.341,0l1.054,6.431c0,.011,0,.022.006.033l1.645,10.032ZM104.42,89.651a1.113,1.113,0,0,1-1.1,1.1H98.052l-1.2-7.342c0-.029-.013-.057-.018-.086a19.993,19.993,0,1,0-31.073,0c-.006.029-.014.057-.018.085l-1.2,7.348c-.037,0-.072-.006-.109-.006H7.689a1.113,1.113,0,0,1-1.1-1.1V24.77a1.113,1.113,0,0,1,1.1-1.1h95.632a1.113,1.113,0,0,1,1.1,1.1Z" transform="translate(0 0)" fill="#006747"/>
    <path id="Path_26935" data-name="Path 26935" d="M109.112,60.243h-74.7a3.3,3.3,0,1,0,0,6.591h74.7a3.3,3.3,0,0,0,0-6.591Z" transform="translate(-17.445 -24.197)" fill="#006747"/>
    <path id="Path_26936" data-name="Path 26936" d="M66.051,100.911H34.414a3.3,3.3,0,0,0,0,6.591H66.051a3.3,3.3,0,0,0,0-6.591Z" transform="translate(-17.445 -46.995)" fill="#006747"/>
  </g>
</svg>
