<svg xmlns="http://www.w3.org/2000/svg" width="213.289" height="43" viewBox="0 0 213.289 43">
  <g id="logo" transform="translate(-140.652 -32)">
    <g id="Group_4373" data-name="Group 4373">
      <path id="Path_26900" data-name="Path 26900" d="M133.788,112.65h0l-.336-.525-.069-.107c-.089-.141-.176-.28-.265-.416h0v-.02l-.022-.034v-.01c-.092-.144-.186-.285-.279-.426-.064-.094-.126-.188-.19-.28s-.138-.2-.206-.3l-.2-.265c-.064-.092-.129-.183-.195-.273l-.193-.265c-.081-.112-.168-.223-.247-.336l-.4.1c-.084.02-.168.04-.25.057-.225.05-.451.091-.671.122a14.428,14.428,0,0,1-2.795.109,5.142,5.142,0,0,1-2.349-.958c-.168-.109-.336-.226-.518-.354l-.107-.075-.4-.289-.143.128-.225.2c-.136.121-.272.242-.409.359l-.091.079c-.128.111-.255.218-.384.325l-.263.233-.183.148-.034.027c-.1.079-.195.156-.292.233l-.372.289-.128.1-.5.383-.01.008.638.483.049.037h0l.023.017.047.035c.081.062.168.121.242.18h0a9.87,9.87,0,0,0,5.231,2.231c.317.012.627.018.933.018a15.558,15.558,0,0,0,4.362-.55h0L132.8,113l.248-.082h.01l.253-.087h.013l.455-.158h0Zm-6.419-.272a8.342,8.342,0,0,1-4.273-1.792l.057-.047.015-.012c.158-.126.314-.255.468-.384l.018-.015c.181-.151.359-.3.537-.458a6.525,6.525,0,0,0,3.228,1.342,14.931,14.931,0,0,0,3.666-.23c.109.153.218.307.325.463h0c.064.091.126.181.188.273l.158.233c.027.039.052.079.077.117s.054.079.081.119h0A15.685,15.685,0,0,1,127.37,112.378Z" transform="translate(39.893 -57.965)" fill="#006747"/>
      <path id="Path_26901" data-name="Path 26901" d="M141.971,119.779a15.484,15.484,0,0,1-4.548.389,8.342,8.342,0,0,1-4.273-1.792l.057-.047.015-.012c.158-.126.314-.255.468-.384l.018-.015c.181-.151.359-.3.537-.458a6.525,6.525,0,0,0,3.228,1.342,14.931,14.931,0,0,0,3.666-.23c.109.153.218.307.325.463h0c.064.091.126.181.188.273l.158.233c.027.039.052.079.077.117S141.946,119.732,141.971,119.779Z" transform="translate(29.84 -65.754)" fill="#fff"/>
      <path id="Path_26902" data-name="Path 26902" d="M10.866,122.241l-.141-.049q-.232-.081-.448-.168h-.017l-.213-.091c-.039-.015-.075-.032-.112-.05l-.111-.05-.128-.062-.039-.018-.109-.057q-.121-.062-.237-.131l-.082-.05c-.055-.032-.109-.065-.168-.1L9,121.375c-.154-.1-.3-.206-.443-.319l-.054-.042-.478-.384-.319.5-.05.081c-.1.151-.191.3-.284.453A57.581,57.581,0,0,0,.027,141.183a1.906,1.906,0,0,0,.357,1.436,1.882,1.882,0,0,0,1.268.747,1.712,1.712,0,0,0,.263.027,1.908,1.908,0,0,0,1.891-1.647,55.217,55.217,0,0,1,6.981-18.24v-.01l.252-.4c.07-.114.144-.228.216-.336l.2-.312ZM2.6,141.577a.7.7,0,0,1-.792.574.654.654,0,0,1-.438-.262.693.693,0,0,1-.129-.525,56.131,56.131,0,0,1,7.125-18.949h0l.037.023.018.012c.049.032.1.062.151.092.079.049.158.1.238.139l.233.126c.079.042.158.081.24.119s.22.1.336.149a.168.168,0,0,0-.013.023A56.713,56.713,0,0,0,2.6,141.577Z" transform="translate(140.648 -68.393)" fill="#006747"/>
      <path id="Path_26903" data-name="Path 26903" d="M15.653,131.944h0a56.91,56.91,0,0,0-7.008,18.478.7.7,0,0,1-.792.574.654.654,0,0,1-.438-.262.693.693,0,0,1-.129-.525,56.131,56.131,0,0,1,7.125-18.949h0l.037.023.018.012c.049.032.1.062.151.092.079.049.158.1.238.139l.233.126c.079.042.158.081.24.119s.218.1.336.149Z" transform="translate(134.596 -77.239)" fill="#fff"/>
      <path id="Path_26904" data-name="Path 26904" d="M131.253,40.95a3.72,3.72,0,0,0-.569-.367c-.183-.1-.367-.2-.555-.284s-.381-.168-.577-.235a7.87,7.87,0,0,0-.913-.267c-.1-.023-.2-.045-.3-.064a10.321,10.321,0,0,0-5.226.336l.255.181c.346.238.688.483,1.028.738a9.334,9.334,0,0,1,2.463-.216,8.16,8.16,0,0,1,1.24.168c.1.02.2.04.3.064l.188.047.107.029a6.068,6.068,0,0,1,.7.228q.1.04.2.086a.018.018,0,0,1,.012,0l.07.032q.087.04.176.086h0c.1.049.19.1.285.153a2.443,2.443,0,0,1,.394.257c.133.087.26.18.381.275a4.905,4.905,0,0,1,1.9,3.887,4.176,4.176,0,0,1-.782,2.684q.216.29.424.582c.107.149.213.3.314.441a5.178,5.178,0,0,0,1.267-3.708A6.1,6.1,0,0,0,131.253,40.95Zm2.587-1.268c-.178-.168-.364-.336-.557-.487-.131-.106-.265-.208-.4-.305a7.7,7.7,0,0,0-.7-.453c-.079-.047-.168-.091-.238-.134-.107-.059-.215-.116-.322-.168-.307-.158-.607-.292-.909-.411-.114-.045-.23-.089-.347-.129a13.16,13.16,0,0,0-10.1.81l-.275.134-1.1.555.718.349h0l.386.188a12.2,12.2,0,0,1,1.194.654c.5.312.992.622,1.466.963l.027.018.221.159h0l.294-.1a10.9,10.9,0,0,1,1.184-.336,9.334,9.334,0,0,1,2.463-.216,8.16,8.16,0,0,1,1.24.168c.1.02.2.04.3.064l.188.047.107.029a6.07,6.07,0,0,1,.713.228q.1.04.2.086a.018.018,0,0,1,.012,0l.07.032q.087.04.176.086h0c.1.049.19.1.285.153a2.443,2.443,0,0,1,.394.257c.133.087.26.18.381.275a4.905,4.905,0,0,1,1.9,3.887,4.176,4.176,0,0,1-.782,2.684,2.851,2.851,0,0,1-.3.336.671.671,0,0,1-.107.091l-.022.013-.5.336.03.042c.116.158.23.315.344.475l.153.213c.025.035.052.07.076.106l.075.106c.158.223.31.445.456.661.119.178.235.352.346.525l.022.034c.1.168.2.322.3.483l.022.035.315.5.488-.336.042-.029a4.293,4.293,0,0,0,.369-.289h0L134.21,52h0l.168-.148a7.639,7.639,0,0,0,2.245-5.775,8.789,8.789,0,0,0-2.783-6.4Zm-.28,11.286c-.124-.191-.25-.383-.383-.577s-.267-.389-.408-.589a5.178,5.178,0,0,0,1.267-3.708,6.1,6.1,0,0,0-2.777-5.144,3.72,3.72,0,0,0-.569-.367c-.183-.1-.367-.2-.555-.284s-.381-.168-.577-.235a7.871,7.871,0,0,0-.919-.267c-.1-.023-.2-.045-.3-.064a10.321,10.321,0,0,0-5.226.336l-.091-.062-.072-.049-.049-.032c-.092-.064-.188-.124-.282-.186l-.336-.215h-.008l-.429-.268-.2-.131a11.656,11.656,0,0,1,8.613-.273,9.711,9.711,0,0,1,1.094.518,7.923,7.923,0,0,1,1.156.772,7.509,7.509,0,0,1,2.891,5.951,6.482,6.482,0,0,1-1.847,4.874ZM131.253,40.95a3.72,3.72,0,0,0-.569-.367c-.183-.1-.367-.2-.555-.284s-.381-.168-.577-.235a7.87,7.87,0,0,0-.913-.267c-.1-.023-.2-.045-.3-.064a10.321,10.321,0,0,0-5.226.336l.255.181c.346.238.688.483,1.028.738a9.334,9.334,0,0,1,2.463-.216,8.16,8.16,0,0,1,1.24.168c.1.02.2.04.3.064l.188.047.107.029a6.068,6.068,0,0,1,.7.228q.1.04.2.086a.018.018,0,0,1,.012,0l.07.032q.087.04.176.086h0c.1.049.19.1.285.153a2.443,2.443,0,0,1,.394.257c.133.087.26.18.381.275a4.905,4.905,0,0,1,1.9,3.887,4.176,4.176,0,0,1-.782,2.684q.216.29.424.582c.107.149.213.3.314.441a5.178,5.178,0,0,0,1.267-3.708A6.1,6.1,0,0,0,131.253,40.95Z" transform="translate(41.707 1.262)" fill="#006747"/>
      <path id="Path_26905" data-name="Path 26905" d="M149.074,52.145a6.493,6.493,0,0,1-1.845,4.874c-.124-.191-.25-.383-.383-.577s-.267-.389-.408-.589a5.178,5.178,0,0,0,1.267-3.708A6.1,6.1,0,0,0,144.928,47a3.72,3.72,0,0,0-.569-.367c-.183-.1-.367-.2-.555-.284s-.381-.168-.577-.235a7.869,7.869,0,0,0-.914-.267c-.1-.023-.2-.045-.3-.064a10.321,10.321,0,0,0-5.226.336l-.091-.062-.072-.049-.049-.032c-.092-.064-.188-.124-.282-.186l-.336-.215h-.008l-.429-.268-.2-.131a11.656,11.656,0,0,1,8.613-.273,9.708,9.708,0,0,1,1.094.518,7.923,7.923,0,0,1,1.156.772A7.509,7.509,0,0,1,149.074,52.145Z" transform="translate(28.033 -4.79)" fill="#fff"/>
      <path id="Path_26906" data-name="Path 26906" d="M192.88.807h0A1.9,1.9,0,0,0,190.205.49c-.926.723-1.609,1.238-2.216,1.7l-.545.413c-1.342,1.018-2.517,1.9-5.389,4.328l-.273.23L181,7.83l.955.372a9.708,9.708,0,0,1,1.094.518,7.923,7.923,0,0,1,1.156.772l.388.305.386-.324.552-.463c2.124-1.782,3.132-2.552,4.385-3.486l.48-.377c.6-.453,1.267-.963,2.154-1.659A1.911,1.911,0,0,0,192.873.8Zm-.822,1.263a.671.671,0,0,1-.257.455c-.881.693-1.548,1.2-2.139,1.649l-.492.374c-1.3.968-2.34,1.765-4.607,3.671a7.7,7.7,0,0,0-.7-.453c-.079-.047-.168-.091-.238-.134-.107-.059-.215-.116-.322-.168,2.516-2.111,3.614-2.943,4.865-3.894l.545-.414c.611-.461,1.3-.981,2.231-1.71a.684.684,0,0,1,1.1.624Z" transform="translate(-9.982 31.933)" fill="#006747"/>
      <path id="Path_26907" data-name="Path 26907" d="M203.5,8.11a.671.671,0,0,1-.257.455c-.881.693-1.548,1.2-2.139,1.649l-.492.374c-1.3.968-2.34,1.765-4.607,3.671a7.7,7.7,0,0,0-.7-.453c-.079-.047-.168-.091-.238-.134-.107-.059-.215-.116-.322-.168,2.517-2.111,3.614-2.943,4.865-3.894l.545-.414c.611-.461,1.3-.981,2.231-1.71a.684.684,0,0,1,1.1.624Z" transform="translate(-21.426 25.893)" fill="#fff"/>
      <path id="Path_26908" data-name="Path 26908" d="M69.945,110.683l-.5-.381-.129-.1c-.124-.094-.247-.19-.371-.289s-.265-.21-.4-.317l-.02-.017-.178-.146-.087-.072-.089-.074q-.448-.372-.886-.765l-.191-.168-.178-.158-.4.289-.1.074c-.18.128-.352.245-.52.352a5.088,5.088,0,0,1-2.349.963,14.646,14.646,0,0,1-2.785-.111c-.226-.034-.453-.072-.671-.122-.084-.017-.168-.037-.248-.057l-.458-.017h-.017l-.185.25c-.134.183-.268.369-.4.557s-.23.336-.336.493a.274.274,0,0,1-.018.029c-.03.042-.059.086-.086.127-.1.149-.2.3-.3.451-.013.02-.027.04-.039.06l-.02.029-.077.122c-.091.139-.181.278-.268.419l-.064.1-.336.527-.015.023h0l.542.185.185.064c.153.052.307.1.465.148a15.267,15.267,0,0,0,4.335.545c.314,0,.636,0,.966-.018a9.937,9.937,0,0,0,5.228-2.231h0l.168-.126.037-.029.081-.06.081-.06.639-.487Zm-6.283,1.778a16.074,16.074,0,0,1-4.563-.389q.221-.336.451-.671l.168-.23.215-.32a15.156,15.156,0,0,0,3.666.233,6.529,6.529,0,0,0,3.236-1.342l.154.133.262.223.25.21c.143.119.287.237.431.352A8.356,8.356,0,0,1,63.662,112.461Z" transform="translate(93.031 -58.048)" fill="#006747"/>
      <path id="Path_26909" data-name="Path 26909" d="M77.253,118.319a8.426,8.426,0,0,1-4.27,1.79,16.074,16.074,0,0,1-4.563-.389q.221-.336.451-.671l.168-.23.215-.32a15.156,15.156,0,0,0,3.666.233,6.529,6.529,0,0,0,3.236-1.342l.154.133c.087.075.168.151.262.223s.168.141.25.21C76.964,118.086,77.109,118.2,77.253,118.319Z" transform="translate(83.711 -65.696)" fill="#fff"/>
      <path id="Path_26910" data-name="Path 26910" d="M35.811,50.606c-.253-.24-.493-.456-.726-.653-.346-.3-.671-.575-.978-.839l-.736-.624h0l-.393.317q-.287.233-.554.485a8.819,8.819,0,0,0-2.793,6.419,7.647,7.647,0,0,0,2.26,5.78l.153.138h0l.111.1c.1.087.206.168.31.247l.02.017L32.5,62l.418.305.1.069h0l.324-.522.023-.037c.1-.168.2-.319.3-.48.336-.532.713-1.075,1.131-1.651.089-.126.18-.25.27-.376l.067-.092-.451-.364-.025-.02a1.542,1.542,0,0,1-.136-.121,2.811,2.811,0,0,1-.3-.322,4.113,4.113,0,0,1-.772-2.684,4.865,4.865,0,0,1,1.894-3.874q.181-.144.377-.272l.649-.423Zm-3.575,5.105a5.141,5.141,0,0,0,1.258,3.7c-.278.4-.542.783-.782,1.164a6.472,6.472,0,0,1-1.845-4.865,7.5,7.5,0,0,1,2.5-5.625c.144.121.292.247.446.379l.235.2c.081.067.168.138.243.21.047.04.094.079.141.121a6.063,6.063,0,0,0-2.193,4.714Z" transform="translate(115.992 -8.355)" fill="#006747"/>
      <path id="Path_26911" data-name="Path 26911" d="M38.368,63.625a5.141,5.141,0,0,0,1.258,3.7c-.278.4-.542.783-.782,1.164A6.472,6.472,0,0,1,37,63.625,7.5,7.5,0,0,1,39.5,58c.144.121.292.247.446.379l.235.2c.081.067.168.138.243.21.047.04.094.079.141.121a6.063,6.063,0,0,0-2.193,4.714Z" transform="translate(109.859 -16.27)" fill="#fff"/>
      <path id="Path_26912" data-name="Path 26912" d="M188.053,122.955c.2-.1.4-.2.592-.315C188.454,122.752,188.249,122.856,188.053,122.955Zm9.269,18.256a57.578,57.578,0,0,0-7.355-19.516c-.1-.153-.191-.305-.289-.458-.119-.191-.24-.384-.366-.577l-.481.379-.05.039c-.144.112-.292.218-.448.319l-.067.042-.027.017-.015.01c-.062.04-.124.077-.186.114h0c-.086.049-.168.1-.262.144s-.168.089-.258.129l-.211.1h-.012c-.034.017-.067.03-.1.044l-.055.023a.606.606,0,0,1-.07.027h0c-.144.059-.292.112-.441.168l-.149.049-.6.2.232.366c.064.1.126.2.19.3l.25.4h0a55.594,55.594,0,0,1,7,18.258,1.923,1.923,0,0,0,1.889,1.622,1.526,1.526,0,0,0,.289-.02,1.909,1.909,0,0,0,1.6-2.181Zm-1.342.693a.735.735,0,0,1-.555.278.7.7,0,0,1-.686-.617,56.858,56.858,0,0,0-7.011-18.444l-.012-.018h0l.045-.02q.143-.06.282-.126c.2-.1.4-.2.592-.315l.084-.049.022-.013c.079-.045.156-.094.232-.144a56.034,56.034,0,0,1,7.128,18.958h0a.681.681,0,0,1-.112.512Z" transform="translate(-14.043 -68.418)" fill="#006747"/>
      <path id="Path_26913" data-name="Path 26913" d="M205.134,150.709a.735.735,0,0,1-.555.278.7.7,0,0,1-.686-.617,56.858,56.858,0,0,0-7.011-18.444h0l-.012-.018h0l.045-.02q.143-.06.282-.126c.2-.1.4-.2.592-.315l.084-.049.022-.013c.079-.045.156-.094.232-.144a56.035,56.035,0,0,1,7.128,18.958h0A.681.681,0,0,1,205.134,150.709Z" transform="translate(-23.189 -77.223)" fill="#fff"/>
      <path id="Path_26914" data-name="Path 26914" d="M71.226,41.56h0l-.322.5.2-.594c-.094-.059-.19-.116-.285-.168l-.168-.1c-.122-.07-.247-.139-.371-.2l-.2-.1c-.1-.05-.2-.1-.3-.146s-.216-.1-.325-.151l-.154-.065c-.087-.039-.176-.075-.265-.111s-.22-.086-.336-.126-.226-.082-.336-.121h0l-.292-.1a10.391,10.391,0,0,0-4.909-.4l.232.22c.3.292.607.586.914.886a9.328,9.328,0,0,1,2.471.221h0a10.958,10.958,0,0,1,1.183.336l.287.1h0c.087.032.168.064.26.1.149.057.3.119.443.185l.225.1q.277.129.549.272c.235.124.468.257.7.4l.148.092.325.208a29.61,29.61,0,0,1,2.641,1.906c.156-.153.314-.31.475-.471l.393-.391A30.794,30.794,0,0,0,71.226,41.56Zm5.479.8h0c-.144-.124-.289-.247-.431-.364h0q-.624-.518-1.247-.985c-.336-.255-.683-.5-1.028-.738l-.265-.181-.091-.062-.072-.049-.049-.032c-.092-.064-.188-.124-.282-.186l-.336-.215H72.9l-.429-.268-.19-.133c-.336-.2-.686-.391-1.1-.592l-.275-.134a13.217,13.217,0,0,0-10.084-.807c-.116.04-.232.084-.347.129l-.9.354.706.661c.119.112.25.223.383.336l.233.2c.136.117.272.237.409.359s.275.243.413.367c.277.25.557.5.839.778l.015.015.213.2h0l.314-.067a7.676,7.676,0,0,1,1.22-.168A9.328,9.328,0,0,1,66.786,41h0a10.959,10.959,0,0,1,1.183.336l.287.1h0c.087.032.168.064.26.1.149.057.3.119.443.185l.225.1q.277.129.549.272c.235.124.468.257.7.4l.148.092.325.208A29.61,29.61,0,0,1,73.542,44.7c.168.129.319.262.473.393l.037.032.428.367.149-.148.252-.25.681-.671.762-.747h0l.431-.438.433-.431h0l.015-.017Zm-5.479-.8h0l-.322.5.2-.594c-.094-.059-.19-.116-.285-.168l-.168-.1c-.122-.07-.247-.139-.371-.2l-.2-.1c-.1-.05-.2-.1-.3-.146s-.216-.1-.325-.151l-.154-.065c-.087-.039-.176-.075-.265-.111s-.22-.086-.336-.126-.226-.082-.336-.121h0l-.292-.1a10.391,10.391,0,0,0-4.909-.4c-.424-.4-.847-.778-1.262-1.139a12.193,12.193,0,0,1,8.348.911h0c.129.06.257.122.386.188a12.2,12.2,0,0,1,1.195.654c.5.312.992.622,1.466.963l.027.018.226.158c.627.441,1.24.908,1.854,1.413l-1,.995A30.794,30.794,0,0,0,71.226,41.56Zm0,0h0l-.322.5.2-.594c-.094-.059-.19-.116-.285-.168l-.168-.1c-.122-.07-.247-.139-.371-.2l-.2-.1c-.1-.05-.2-.1-.3-.146s-.216-.1-.325-.151l-.154-.065c-.087-.039-.176-.075-.265-.111s-.22-.086-.336-.126-.226-.082-.336-.121h0l-.292-.1a10.391,10.391,0,0,0-4.909-.4l.232.22c.3.292.607.586.914.886a9.328,9.328,0,0,1,2.471.221h0a10.958,10.958,0,0,1,1.183.336l.287.1h0c.087.032.168.064.26.1.149.057.3.119.443.185l.225.1q.277.129.549.272c.235.124.468.257.7.4l.148.092.325.208a29.61,29.61,0,0,1,2.641,1.906c.156-.153.314-.31.475-.471l.393-.391A30.794,30.794,0,0,0,71.226,41.56Z" transform="translate(91.076 1.243)" fill="#006747"/>
      <path id="Path_26915" data-name="Path 26915" d="M86.935,48.914l-.995.983a30.8,30.8,0,0,0-3.188-2.283h0l-.124-.084c-.094-.059-.19-.116-.285-.168l-.168-.1c-.122-.07-.247-.139-.371-.2l-.2-.1c-.1-.05-.2-.1-.3-.146s-.216-.1-.325-.151c-.05-.022-.1-.045-.154-.065-.087-.039-.176-.075-.265-.111s-.22-.087-.336-.126-.226-.082-.336-.121h0l-.292-.1a10.391,10.391,0,0,0-4.909-.4c-.424-.4-.847-.778-1.262-1.139a12.193,12.193,0,0,1,8.348.911h0l.386.188a12.2,12.2,0,0,1,1.195.654c.5.312.992.622,1.466.963l.027.018.221.159h0C85.709,47.942,86.321,48.409,86.935,48.914Z" transform="translate(79.541 -4.811)" fill="#fff"/>
      <path id="Path_26916" data-name="Path 26916" d="M75.076,80.993a7.717,7.717,0,0,1-2.349,1.235c-.478-.758-.98-1.51-1.53-2.25a36.643,36.643,0,0,0-3.792-4.453c-1.149,1.149-2.287,2.263-3.4,3.253-.7.624-1.394,1.2-2.067,1.713-.671-.513-1.371-1.089-2.067-1.713-1.114-1.007-2.251-2.1-3.4-3.253a36.809,36.809,0,0,0-3.793,4.461h-.012c-.539.733-1.052,1.491-1.528,2.25A7.729,7.729,0,0,1,48.8,80.993c.453-.735.943-1.456,1.456-2.166a39.816,39.816,0,0,1,4.362-5.149l1.933-1.758L58.4,73.765c1.174,1.174,2.384,2.335,3.547,3.355,1.161-1.017,2.372-2.181,3.547-3.355L67.35,71.92l1.908,1.762a39.817,39.817,0,0,1,4.362,5.149C74.133,79.54,74.623,80.261,75.076,80.993Z" transform="translate(100.039 -27.854)" fill="#006747"/>
      <path id="Path_26917" data-name="Path 26917" d="M71.884,76.933l-.284-.461c-.119-.191-.24-.384-.366-.577l-.008-.013c-.124-.191-.25-.383-.382-.577s-.267-.389-.408-.589c-.1-.144-.206-.292-.314-.441q-.21-.292-.424-.582a40.339,40.339,0,0,0-3.578-4.209q-.221-.228-.448-.453l-.431-.4L64.234,67.7h0l-.485-.448h0l-.413-.383a.1.1,0,0,0-.018.018h0l-.3.3-.567.562-1,.983-.4.394c-.168.168-.319.319-.475.471-.971.958-1.845,1.782-2.641,2.5-.807-.72-1.678-1.542-2.642-2.495-.156-.156-.314-.312-.473-.473l-1.845-1.845-.394-.394h0a.064.064,0,0,1-.015-.015l-.4.371-.015.013-.481.436h0l-1.018.934-.45.411c-.146.144-.289.289-.433.436a40.253,40.253,0,0,0-3.573,4.208q-.214.289-.423.582c-.107.148-.211.294-.314.438-.28.406-.544.785-.783,1.166l-.01.017-.319.5-.05.081L44,76.926h0l.114.091.31.247.02.017.018.013.418.305.1.065h0l.037.023.018.012c.049.032.1.062.151.092.079.049.158.1.238.139l.233.126c.079.042.158.081.24.119s.22.1.336.149c.168.072.346.143.528.208l.185.064.458.158v-.01l.252-.4c.07-.114.144-.228.216-.336s.146-.225.22-.336q.221-.336.451-.671l.168-.23.221-.317.052-.072.2-.253q.282-.389.577-.773a36.015,36.015,0,0,1,2.725-3.162c.871.864,1.668,1.629,2.412,2.317.195.181.388.356.575.525.121.109.242.215.364.322l.154.133.262.223.25.21c.143.119.287.237.431.352l.013.01q.312.252.627.492l.049.037h0l.023.017.047.035.237.183h0l.168-.129.037-.029.081-.06.081-.062q.315-.242.629-.493l.013-.01.057-.047.015-.012c.158-.126.314-.255.468-.384l.018-.015c.181-.151.359-.3.537-.458.122-.106.245-.213.366-.322q.289-.257.575-.522c.839-.773,1.668-1.579,2.412-2.32a36.056,36.056,0,0,1,2.725,3.169q.3.386.58.777c.079.107.158.215.235.324.109.153.218.307.325.463h0c.064.091.126.181.188.273l.158.233c.027.039.052.079.077.117s.054.079.079.119c.082.126.168.253.248.383.064.1.126.2.19.3l.25.4h0l.206-.067.248-.082h.01l.253-.087h.013c.149-.055.3-.114.443-.176h0l.045-.02q.143-.06.282-.126c.2-.1.4-.2.592-.315l.084-.049.022-.013c.079-.045.156-.094.232-.144.168-.107.325-.22.48-.336l.072-.054.336-.263h0l.086-.067Zm-1.7-.26-.027.017-.015.01c-.06.04-.122.077-.186.114h0c-.086.049-.168.1-.262.144s-.168.087-.258.129l-.211.1h-.012c-.034.015-.065.03-.1.044l-.055.023-.047.018-.023.01h0v-.01l-.022-.034v-.01c-.092-.144-.186-.285-.278-.426-.064-.094-.126-.188-.19-.28s-.138-.2-.206-.3l-.208-.265c-.064-.092-.129-.183-.195-.273l-.193-.265c-.081-.112-.168-.223-.247-.336a37.459,37.459,0,0,0-3.609-4.194l-.433-.433-.433.433c-.884.886-2.027,2.013-3.152,3.03l-.225.2c-.136.121-.272.242-.409.359l-.091.079c-.128.111-.255.218-.384.325l-.265.235-.183.148-.034.027c-.1.079-.195.156-.292.233-.133-.1-.265-.21-.4-.317l-.02-.017-.178-.146-.087-.072-.089-.074q-.448-.372-.886-.765l-.191-.168c-.958-.871-2-1.874-3.188-3.06l-.433-.433-.433.433a37.721,37.721,0,0,0-3.671,4.273l-.195.25c-.134.183-.268.369-.4.557s-.23.336-.336.493a.273.273,0,0,1-.018.029c-.03.042-.059.086-.086.127-.1.149-.2.3-.3.451-.013.02-.027.04-.039.06l-.02.029c-.027.039-.054.081-.079.121h-.017l-.213-.091-.112-.05-.111-.05-.128-.062-.039-.018-.109-.057q-.121-.062-.237-.131l-.087-.059c-.055-.032-.109-.065-.168-.1l-.062-.04c.336-.532.713-1.075,1.131-1.651.089-.126.18-.25.27-.376a39.365,39.365,0,0,1,4-4.659l.025-.02,1.414-1.3.075-.069L54.368,70.4c1.174,1.174,2.221,2.142,3.178,2.98l.4.351.4-.351c.948-.829,1.99-1.807,3.176-2.981l.149-.148.252-.25.681-.671.757-.757,1.461,1.342.012.012a39.257,39.257,0,0,1,3.916,4.546l.03.042c.116.158.23.315.344.475l.153.213c.025.035.052.07.076.106l.075.106c.158.223.31.445.456.661.119.178.235.352.346.525l.022.034Z" transform="translate(104.033 -23.652)" fill="#006747"/>
      <path id="Path_26918" data-name="Path 26918" d="M11.162,10.252l.564.533-.643.423q-.2.129-.377.272c.844.768,1.71,1.607,2.449,2.35.144-.148.287-.292.433-.436l.45-.411C13.176,12.124,12.141,11.119,11.162,10.252Zm5.211,1.382-.4-.393h0a.064.064,0,0,1-.015-.015c-.4-.4-.809-.8-1.213-1.188-.307-.307-.619-.6-.926-.884l-.232-.22c-.424-.4-.847-.778-1.262-1.139l-.2-.168-.24-.21c-.121-.1-.238-.2-.367-.325l-.267-.237C8.19,4.279,7.083,3.449,5.692,2.405l-.314-.242c-.627-.471-1.324-1-2.265-1.741A1.864,1.864,0,0,0,1.7.016,1.871,1.871,0,0,0,.43.734,1.9,1.9,0,0,0,.737,3.419c.887.7,1.56,1.206,2.156,1.659l.5.381c1.245.933,2.256,1.7,4.38,3.483l.54.455.351.3.047.04c.144.121.292.247.446.379.077.065.156.131.235.2s.168.138.243.21c.047.04.094.079.141.121.178.154.359.317.557.5.121.107.242.215.362.325.851.77,1.716,1.609,2.456,2.352l.433.431.414.414.411-.377,1.434-1.317.075-.069.45-.414.451-.418Zm-5.211-1.382c-.253-.24-.493-.456-.726-.653-.346-.3-.671-.575-.978-.839l-.352-.3-.386-.325c-2.258-1.892-3.3-2.688-4.59-3.652l-.5-.377c-.591-.45-1.258-.956-2.141-1.649a.674.674,0,0,1-.092-.96.671.671,0,0,1,.453-.26.649.649,0,0,1,.081,0,.671.671,0,0,1,.433.139c.955.753,1.658,1.285,2.287,1.762l.319.242C6.382,4.445,7.5,5.284,10.712,8c.119.112.25.223.383.336l.233.2c.136.117.272.237.409.359s.275.243.413.367c.277.25.557.5.839.778l.015.015.216.2c.612.574,1.23,1.174,1.845,1.788l-1.018.934C13.176,12.124,12.141,11.119,11.162,10.252Z" transform="translate(140.641 31.998)" fill="#006747"/>
      <path id="Path_26919" data-name="Path 26919" d="M21.113,18.183l-1.018.934c-.861-.859-1.9-1.864-2.876-2.731-.253-.24-.493-.456-.726-.653-.346-.3-.671-.575-.978-.839l-.736-.624h0c-2.26-1.891-3.3-2.686-4.592-3.651l-.5-.377c-.591-.45-1.258-.956-2.141-1.649A.7.7,0,0,1,7.9,7.374a.649.649,0,0,1,.081,0,.671.671,0,0,1,.433.139c.955.753,1.658,1.285,2.287,1.762l.319.242c1.418,1.064,2.537,1.9,5.748,4.619.119.112.25.223.383.336l.233.2c.136.117.272.237.409.359s.275.242.413.367c.277.25.557.5.839.778l.015.015.213.2h0C19.881,16.968,20.5,17.572,21.113,18.183Z" transform="translate(134.584 25.864)" fill="#fff"/>
      <path id="Path_26920" data-name="Path 26920" d="M96.177,57.131l-.124-.084c-.094-.059-.19-.116-.285-.168l-.168-.1c-.122-.07-.247-.139-.371-.2l-.2-.1c-.1-.05-.2-.1-.3-.146s-.216-.1-.325-.151l-.154-.065c-.087-.039-.176-.075-.265-.111s-.22-.086-.336-.126-.226-.082-.336-.121h0l-.292-.1-.252.168c-.352.247-.7.493-1.027.743h0q-.656.488-1.248.992h0c-.143.117-.282.237-.419.354l-.015.013-.5.429.013.013.433.433.441.435,1.832,1.834.429-.369.037-.032c.154-.131.312-.262.471-.391a29.558,29.558,0,0,1,2.642-1.914c.107-.07.216-.139.325-.208l.648-.589Zm-3.828,2.277-.981-.981c.57-.471,1.188-.943,1.845-1.411h0c.087.032.168.064.26.1.149.057.3.119.443.185l.225.1q.277.129.549.272C93.853,58.234,93.078,58.806,92.348,59.408Z" transform="translate(66.117 -14.322)" fill="#006747"/>
      <path id="Path_26921" data-name="Path 26921" d="M103.62,64.388c-.839.562-1.612,1.134-2.349,1.735l-.981-.981c.57-.471,1.188-.943,1.845-1.411h0c.087.032.168.064.26.1.149.057.3.119.443.185l.225.1Q103.348,64.245,103.62,64.388Z" transform="translate(57.188 -21.039)" fill="#fff"/>
      <path id="Path_26922" data-name="Path 26922" d="M160.531,54.545a3.72,3.72,0,0,0-.569-.367c-.183-.1-.367-.2-.555-.284s-.381-.168-.577-.235a7.871,7.871,0,0,0-.913-.267c-.106-.023-.211-.045-.319-.065l-.3-.057-.218.208q-.468.436-.936.891c-.4.388-.8.783-1.2,1.183a.1.1,0,0,0-.018.018h0l-.3.3-.554.539.45.414.45.424h0l1.461,1.342.012.012.436.4.413-.414h0l.431-.429c.736-.731,1.6-1.575,2.459-2.362l.366-.336.527-.473Zm-3.691,2.768-1.007-.931.015-.017c.606-.606,1.211-1.2,1.817-1.773l.188.047.107.029a6.07,6.07,0,0,1,.706.235c.065.027.131.054.2.086a.018.018,0,0,1,.012,0l.07.032q.087.04.176.086c-.8.755-1.594,1.53-2.277,2.208Z" transform="translate(12.43 -12.333)" fill="#006747"/>
      <path id="Path_26923" data-name="Path 26923" d="M167.893,61.675c-.8.743-1.594,1.51-2.277,2.2l-1.007-.931.015-.017c.606-.606,1.211-1.2,1.817-1.773l.188.047.107.029a6.07,6.07,0,0,1,.7.235q.1.04.2.086a.018.018,0,0,1,.012,0l.07.032Q167.8,61.628,167.893,61.675Z" transform="translate(3.658 -18.891)" fill="#fff"/>
    </g>
    <g id="Group_4372" data-name="Group 4372" transform="translate(0 3.843)">
      <path id="Path_26924" data-name="Path 26924" d="M319.75,82.994V75.26l-3.325,5.932h-.718l-3.34-5.932v7.734H311.1V73h1.342l3.62,6.494L319.695,73h1.324V83Z" transform="translate(-118.256 -28.753)" fill="#006747"/>
      <path id="Path_26925" data-name="Path 26925" d="M445.47,82.994,449.585,73h1.044l4.1,10h-1.352l-1.183-2.929H448L446.824,83Zm4.635-8.538-1.862,4.622h3.664Z" transform="translate(-230.084 -28.753)" fill="#006747"/>
      <path id="Path_26926" data-name="Path 26926" d="M577.078,75.359v7.635H575.81V73h.985L583,80.791V73h1.268v9.989H583.2Z" transform="translate(-338.557 -28.753)" fill="#006747"/>
      <path id="Path_26927" data-name="Path 26927" d="M701.45,82.994,705.569,73h1.042l4.1,10h-1.352l-1.174-2.929H703.99L702.816,83Zm4.634-8.538-1.857,4.622h3.664Z" transform="translate(-443.119 -28.753)" fill="#006747"/>
      <path id="Path_26928" data-name="Path 26928" d="M840.44,82.994V75.26l-3.325,5.932H836.4l-3.34-5.932v7.734H831.79V73h1.342l3.622,6.494L840.381,73h1.325V83Z" transform="translate(-551.592 -28.753)" fill="#006747"/>
      <path id="Path_26929" data-name="Path 26929" d="M975.68,81.924a2.84,2.84,0,0,0,1.451-.336,2.7,2.7,0,0,0,.923-.881,3.636,3.636,0,0,0,.487-1.24,7.149,7.149,0,0,0,.141-1.416V73h1.268v5.05a7.759,7.759,0,0,1-.233,1.923,4.564,4.564,0,0,1-.74,1.6,3.561,3.561,0,0,1-1.317,1.092,4.994,4.994,0,0,1-3.979-.022,3.644,3.644,0,0,1-1.324-1.119,4.58,4.58,0,0,1-.718-1.607,7.939,7.939,0,0,1-.218-1.866V73h1.272v5.05a6.916,6.916,0,0,0,.148,1.443,3.61,3.61,0,0,0,.493,1.233,2.668,2.668,0,0,0,.914.867A2.835,2.835,0,0,0,975.68,81.924Z" transform="translate(-667.797 -28.753)" fill="#006747"/>
      <path id="Path_26930" data-name="Path 26930" d="M1104.944,74.644a2.14,2.14,0,0,0-.45-.381,4.239,4.239,0,0,0-.634-.336,4.532,4.532,0,0,0-.768-.24,4.062,4.062,0,0,0-.866-.092,2.707,2.707,0,0,0-1.713.438,1.45,1.45,0,0,0-.542,1.2,1.328,1.328,0,0,0,.154.671,1.289,1.289,0,0,0,.487.458,3.733,3.733,0,0,0,.824.336q.493.141,1.174.3a12.7,12.7,0,0,1,1.4.388,4.071,4.071,0,0,1,1.07.544,2.169,2.169,0,0,1,.671.788,2.518,2.518,0,0,1,.233,1.141,2.616,2.616,0,0,1-.282,1.248,2.516,2.516,0,0,1-.768.872,3.317,3.317,0,0,1-1.148.5,6.076,6.076,0,0,1-1.438.168,6.625,6.625,0,0,1-2.191-.359,6.1,6.1,0,0,1-1.881-1.05l.606-1.07a3.356,3.356,0,0,0,.584.48,4.862,4.862,0,0,0,.819.429,6.118,6.118,0,0,0,.986.31,5.033,5.033,0,0,0,1.106.119,3.066,3.066,0,0,0,1.662-.381,1.407,1.407,0,0,0,.4-1.845,1.606,1.606,0,0,0-.555-.5,4.361,4.361,0,0,0-.911-.374q-.542-.168-1.231-.336a12.5,12.5,0,0,1-1.342-.394,3.614,3.614,0,0,1-.965-.5,1.9,1.9,0,0,1-.585-.718,2.4,2.4,0,0,1-.2-1.007,2.863,2.863,0,0,1,.267-1.267,2.671,2.671,0,0,1,.747-.931,3.278,3.278,0,0,1,1.142-.57,5.17,5.17,0,0,1,4.719.951Z" transform="translate(-773.373 -28.307)" fill="#006747"/>
      <path id="Path_26931" data-name="Path 26931" d="M1224.795,81.924a2.841,2.841,0,0,0,1.451-.336,2.7,2.7,0,0,0,.923-.881,3.635,3.635,0,0,0,.486-1.24,7.144,7.144,0,0,0,.141-1.416V73h1.268v5.05a7.757,7.757,0,0,1-.233,1.923,4.565,4.565,0,0,1-.74,1.6,3.56,3.56,0,0,1-1.317,1.092,4.994,4.994,0,0,1-3.979-.022,3.643,3.643,0,0,1-1.319-1.119,4.581,4.581,0,0,1-.718-1.607,7.942,7.942,0,0,1-.218-1.866V73h1.268v5.05a6.9,6.9,0,0,0,.148,1.443,3.608,3.608,0,0,0,.493,1.233,2.668,2.668,0,0,0,.914.867,2.835,2.835,0,0,0,1.431.331Z" transform="translate(-875.123 -28.753)" fill="#006747"/>
    </g>
  </g>
</svg>
