<svg xmlns="http://www.w3.org/2000/svg" width="100" height="180" viewBox="0 0 100 180">
  <g id="Group_4416" data-name="Group 4416" transform="translate(12567 -13)">
    <g id="student" transform="translate(-12587.994 67)">
      <path id="Path_26937" data-name="Path 26937" d="M100.994,46.047a6.989,6.989,0,0,0-5.581-6.836V31.674a2.093,2.093,0,0,0-2.828-1.96l-3.995,1.5a24.4,24.4,0,0,0-9.306-6.042,13.953,13.953,0,1,0-16.58,0A24.4,24.4,0,0,0,53.4,31.213l-3.995-1.5a2.093,2.093,0,0,0-2.828,1.96V39.21a6.977,6.977,0,0,0,0,13.673v8.094a2.093,2.093,0,0,0,1.358,1.96l22.326,8.372a2.117,2.117,0,0,0,1.47,0l22.326-8.372a2.093,2.093,0,0,0,1.358-1.96V52.883A6.989,6.989,0,0,0,100.994,46.047ZM61.227,13.953a9.767,9.767,0,1,1,9.767,9.767A9.779,9.779,0,0,1,61.227,13.953Zm9.767,13.953a20.2,20.2,0,0,1,13.242,4.939L70.994,37.811,57.752,32.846A20.2,20.2,0,0,1,70.994,27.907ZM45.18,46.047a2.794,2.794,0,0,1,2.791-2.791h1.4v5.581h-1.4A2.794,2.794,0,0,1,45.18,46.047Zm5.581,6.907a3.494,3.494,0,0,0,2.791-3.418V42.558a3.494,3.494,0,0,0-2.791-3.418V34.695L68.9,41.5V66.329l-18.14-6.8ZM73.087,66.329V41.5l18.14-6.8V39.14a3.494,3.494,0,0,0-2.791,3.418v6.977a3.494,3.494,0,0,0,2.791,3.418v6.573Zm20.93-17.491h-1.4V43.256h1.4a2.791,2.791,0,0,1,0,5.581Z" fill="#6c757d"/>
    </g>
    <rect id="Rectangle_17669" data-name="Rectangle 17669" width="100" height="180" transform="translate(-12567 13)" fill="none"/>
  </g>
</svg>
