<svg xmlns="http://www.w3.org/2000/svg" width="100" height="180" viewBox="0 0 100 180">
  <g id="Group_4415" data-name="Group 4415" transform="translate(12447 -2)">
    <g id="teacher" transform="translate(-12427 62)">
      <g id="Group_4412" data-name="Group 4412" transform="translate(8.789)">
        <g id="Group_4411" data-name="Group 4411">
          <path id="Path_26938" data-name="Path 26938" d="M82.031,0A7.126,7.126,0,0,0,75,7.148a7.031,7.031,0,0,0,14.063,0A7.127,7.127,0,0,0,82.031,0Zm0,10.664a3.52,3.52,0,0,1-3.516-3.516,3.518,3.518,0,1,1,7.031,0A3.52,3.52,0,0,1,82.031,10.664Z" transform="translate(-75)" fill="#6c757d"/>
        </g>
      </g>
      <g id="Group_4414" data-name="Group 4414">
        <g id="Group_4413" data-name="Group 4413">
          <path id="Path_26939" data-name="Path 26939" d="M54.727,0H29.883a5.279,5.279,0,0,0-5.273,5.273v12l-1.545-1.545a5.238,5.238,0,0,0-3.729-1.545H8.789A8.8,8.8,0,0,0,0,22.969V33.516a5.274,5.274,0,0,0,7.031,4.972V54.727a5.271,5.271,0,0,0,8.789,3.927,5.271,5.271,0,0,0,8.789-3.927V31.458a5.294,5.294,0,0,0,4.116-.257l5.919-2.959H54.727A5.279,5.279,0,0,0,60,22.969V5.273A5.279,5.279,0,0,0,54.727,0ZM34.185,24.541l-7.029,3.515a1.757,1.757,0,0,1-2.031-.329l-1.03-1.03a1.759,1.759,0,0,0-3,1.237s0,0,0,.005V54.727a1.758,1.758,0,0,1-3.516,0v-17.7a1.758,1.758,0,0,0-3.516,0v17.7a1.758,1.758,0,0,1-3.516,0V22.969a1.758,1.758,0,1,0-3.516,0V33.516a1.758,1.758,0,0,1-3.516,0c0-1.325,0-9.464,0-10.547A5.279,5.279,0,0,1,8.789,17.7H19.336a1.746,1.746,0,0,1,1.243.515l5.239,5.239a1.758,1.758,0,0,0,2.029.329L32.613,21.4a1.758,1.758,0,0,1,1.572,3.145Zm22.3-1.573a1.76,1.76,0,0,1-1.758,1.758H38.369c.011-.03.022-.06.032-.09a5.253,5.253,0,0,0,.232-2.32l9.613-4.806a1.758,1.758,0,1,0-1.572-3.144l-9.612,4.806a5.269,5.269,0,0,0-6.023-.92l-2.915,1.457V5.273a1.76,1.76,0,0,1,1.758-1.758H54.727a1.76,1.76,0,0,1,1.758,1.758Z" fill="#6c757d"/>
        </g>
      </g>
    </g>
    <rect id="Rectangle_17668" data-name="Rectangle 17668" width="100" height="180" transform="translate(-12447 2)" fill="none"/>
  </g>
</svg>
