<?xml version="1.0" standalone="no"?>
<!DOCTYPE svg PUBLIC "-//W3C//DTD SVG 1.1//EN" "http://www.w3.org/Graphics/SVG/1.1/DTD/svg11.dtd" >
<svg xmlns="http://www.w3.org/2000/svg" xmlns:xlink="http://www.w3.org/1999/xlink" version="1.1">
<metadata>
Created by FontForge 20170731 at Mon Apr 26 12:27:00 2021
 By Aleksey,,,
Modern and elegant sans serif font family.
</metadata>
<defs>
<font id="Mont-ExtraLightItalic" horiz-adv-x="0" >
  <font-face 
    font-family="Mont ExtraLight Italic"
    font-weight="300"
    font-style="italic"
    font-stretch="normal"
    units-per-em="2048"
    panose-1="0 0 4 0 0 0 0 0 0 0"
    ascent="1638"
    descent="-410"
    x-height="1106"
    cap-height="1434"
    bbox="-1520 -602 2301 1980"
    underline-thickness="102"
    underline-position="-307"
    slope="-11.31"
    unicode-range="U+0020-25CA"
  />
<missing-glyph horiz-adv-x="942" 
d="M773 1495v-1884h-598v1884h598zM627 1369h-310v-62h122v-70h-124v-62h312v62h-124v70h124v62zM503 1126h-188v-196h312v64h-124v132zM439 1062v-68h-62v68h62zM627 879h-312v-62h124v-70h-124v-62h188v132h124v62zM627 766h-62v-124h-250v-65h312v189zM627 536h-188v-106
h64v44h62v-89h-188v151h-62v-213h312v213zM627 210h-312v-213h312v213zM565 148v-89h-188v89h188zM627 -46h-312v-62h132l-132 -89v-62h312v62h-192l132 89h60v62z" />
    <glyph glyph-name="f_f.liga" unicode="ff" horiz-adv-x="1417" 
d="M1486 1495q-176 0 -253.5 -65.5t-113.5 -239.5l-18 -86h398l-9 -52h-398l-210 -1052h-59l210 1052h-608l-210 -1052h-60l210 1052h-239l9 52h241l17 89q41 199 133.5 276.5t293.5 77.5h90l-9 -52h-83q-176 0 -253.5 -65.5t-113.5 -239.5l-17 -86h609l18 89
q41 199 133.5 276.5t293.5 77.5h99l-9 -52h-92z" />
    <glyph glyph-name="f_f_t.liga" unicode="fft" horiz-adv-x="2035" 
d="M2105 1051h-406q-24 -119 -61 -303q-64 -318 -77 -388.5t-13 -105.5q0 -95 57.5 -146.5t164.5 -51.5h143l-11 -56h-142q-130 0 -201 65t-71 182q0 37 11.5 101t70.5 355q42 207 70 348h-254v1h-294l-210 -1052h-59l210 1052h-608l-210 -1052h-60l210 1052h-239l9 52h241
l17 89q41 199 133.5 276.5t293.5 77.5h99l-9 -52h-92q-176 0 -253.5 -65.5t-113.5 -239.5l-17 -86h609l18 89q41 199 133.5 276.5t293.5 77.5h99l-9 -52h-92q-176 0 -253.5 -65.5t-113.5 -239.5l-18 -86h549q9 47 31.5 155.5t34.5 171.5h59q-12 -61 -34 -170t-31 -157h405z
" />
    <glyph glyph-name="f_t.liga" unicode="ft" horiz-adv-x="1413" 
d="M1485 1051h-407q-24 -119 -61 -303q-64 -318 -77 -388.5t-13 -105.5q0 -95 57.5 -146.5t164.5 -51.5h142l-10 -56h-142q-131 0 -202 65t-71 182q0 37 11.5 101t70.5 355q13 65 21 104t22 109l27 135h-594l-209 -1051h-60l210 1051h-239l9 53h241l17 89q40 198 135.5 276
t291.5 78h99l-9 -52h-92q-172 0 -252 -66t-115 -239l-17 -86h595q9 47 31.5 155.5t34.5 171.5h59q-12 -61 -34 -169.5t-31 -157.5h405z" />
    <glyph glyph-name="f_t_t.liga" unicode="ftt" horiz-adv-x="2136" 
d="M2208 1051h-412q-24 -119 -61 -303q-64 -318 -77 -388.5t-13 -105.5q0 -95 57 -146.5t164 -51.5h143l-10 -56h-143q-130 0 -201 65t-71 182q0 37 11.5 101t70.5 355q42 207 70 348h-652q-24 -119 -61 -303q-64 -318 -77 -388.5t-13 -105.5q0 -95 57 -146.5t164 -51.5h143
l-10 -56h-143q-130 0 -201 65t-71 182q0 37 11.5 101t70.5 355q42 207 70 348h-600l-209 -1051h-60l210 1051h-239l9 53h241l17 89q41 199 133.5 276.5t293.5 77.5h99l-9 -52h-91q-121 0 -192 -29t-111.5 -93.5t-64.5 -182.5l-17 -86h601q10 49 31.5 157.5t33.5 169.5h60
q-12 -63 -34.5 -171.5t-31.5 -155.5h653q9 48 31 157t34 170h60q-12 -63 -34.5 -171.5t-31.5 -155.5h412z" />
    <glyph glyph-name="r_t.liga" unicode="rt" horiz-adv-x="1521" 
d="M1591 1051h-404q-141 -703 -146 -740q-5 -32 -5 -57q0 -96 58 -148.5t167 -52.5h139l-10 -57h-145q-130 0 -201 64.5t-71 180.5q0 28 13 99t57 290q49 242 85 421h-235l11 54h234q11 54 33 165.5t32 160.5h60q-12 -62 -34 -170t-31 -156h404zM318 842q76 124 193 195.5
t257 71.5h73l-11 -57h-76q-170 0 -301.5 -117t-172.5 -299l-126 -636h-60l221 1106h48z" />
    <glyph glyph-name="t_f.liga" unicode="tf" horiz-adv-x="1536" 
d="M1604 1495q-121 0 -192 -29t-111.5 -93.5t-64.5 -182.5l-17 -86h398l-10 -53h-397l-210 -1051h-59l209 1051h-672q-24 -119 -61 -303q-64 -318 -77 -388.5t-13 -105.5q0 -95 57.5 -146.5t164.5 -51.5h142l-10 -56h-142q-131 0 -202 65t-71 182q0 37 11.5 101t70.5 355
q42 207 70 348h-302l9 53h304q9 48 31 157t34 170h60q-12 -61 -33.5 -169.5t-31.5 -157.5h672l18 89q21 101 51.5 167t81.5 109t121 60.5t172 17.5h100l-10 -52h-91z" />
    <glyph glyph-name=".notdef" horiz-adv-x="942" 
d="M773 1495v-1884h-598v1884h598zM627 1369h-310v-62h122v-70h-124v-62h312v62h-124v70h124v62zM503 1126h-188v-196h312v64h-124v132zM439 1062v-68h-62v68h62zM627 879h-312v-62h124v-70h-124v-62h188v132h124v62zM627 766h-62v-124h-250v-65h312v189zM627 536h-188v-106
h64v44h62v-89h-188v151h-62v-213h312v213zM627 210h-312v-213h312v213zM565 148v-89h-188v89h188zM627 -46h-312v-62h132l-132 -89v-62h312v62h-192l132 89h60v62z" />
    <glyph glyph-name=".null" 
 />
    <glyph glyph-name="nonmarkingreturn" horiz-adv-x="682" 
 />
    <glyph glyph-name="space" unicode=" " horiz-adv-x="581" 
 />
    <glyph glyph-name="exclam" unicode="!" horiz-adv-x="505" 
d="M181 351l225 1124h60l-225 -1124h-60zM94 0l24 123h94l-24 -123h-94z" />
    <glyph glyph-name="quotedbl" unicode="&#x22;" horiz-adv-x="593" 
d="M235 975l92 463h57l-93 -463h-56zM461 975l92 463h57l-92 -463h-57z" />
    <glyph glyph-name="numbersign" unicode="#" horiz-adv-x="1288" 
d="M1291 945h-217l-143 -410h230l-10 -53h-240l-166 -482h-57l165 482h-528l-171 -482h-58l172 482h-204l10 53h214l147 410h-231l10 52h240l156 437h58l-155 -437h522l153 437h58l-154 -437h209zM873 535l143 410h-523l-148 -410h528z" />
    <glyph glyph-name="dollar" unicode="$" horiz-adv-x="1103" 
d="M751 1394q154 -8 242 -88.5t88 -212.5q0 -36 -8 -81h-58q27 157 -59 241t-245 84q-206 0 -328 -99.5t-122 -260.5q0 -34 11 -63t26.5 -49.5t44.5 -39t53.5 -30t66.5 -24t69 -19t75 -16.5q49 -11 81 -19t76 -22t73 -28t60.5 -36.5t49.5 -48t30 -61t12 -77.5
q0 -199 -143.5 -328t-374.5 -134l-38 -186h-53l38 187q-175 8 -274 95.5t-99 234.5q0 49 8 90h59q-33 -168 63 -265.5t282 -97.5q209 0 340.5 113t131.5 281q0 35 -10.5 64t-26 50t-43.5 39.5t-54 31t-66 24.5t-70 19t-76 17q-48 11 -79.5 18.5t-76 21.5t-73 28t-60.5 36
t-50.5 47.5t-30.5 60.5t-12 76q0 189 135 306t361 122l35 177h54z" />
    <glyph glyph-name="percent" unicode="%" horiz-adv-x="1480" 
d="M407 806q-109 0 -173.5 61.5t-64.5 162.5q0 146 100 247.5t249 101.5q109 0 173 -61.5t64 -162.5q0 -146 -99.5 -247.5t-248.5 -101.5zM175 -2l1097 1365h65l-1098 -1365h-64zM411 856q123 0 208.5 85t85.5 210q0 82 -51.5 130.5t-139.5 48.5q-123 0 -207.5 -85
t-86.5 -210q-1 -82 50.5 -130.5t140.5 -48.5zM1023 -8q-108 0 -172.5 60.5t-64.5 160.5q0 144 99 244.5t246 100.5q108 0 171.5 -60.5t63.5 -160.5q0 -144 -98 -244.5t-245 -100.5zM1027 42q122 0 205 84.5t83 206.5q0 81 -50.5 128t-137.5 47q-122 0 -205.5 -83.5
t-83.5 -207.5q0 -80 51 -127.5t138 -47.5z" />
    <glyph glyph-name="ampersand" unicode="&#x26;" horiz-adv-x="1214" 
d="M1111 601q-45 -225 -174 -380q67 -89 169 -221h-68q-74 96 -138 180q-196 -201 -488 -201q-166 0 -264 80t-98 211q0 72 25 138t62 115t97.5 98.5t114 83.5t129.5 76q-125 211 -125 340q0 149 105 241.5t278 92.5q123 0 197 -59t74 -154q0 -47 -15 -92.5t-37.5 -82
t-61.5 -75t-73 -65.5t-86 -60.5t-86.5 -53t-89.5 -49.5l-3 -1q102 -167 350 -499q112 138 153 337h53zM410 1131q0 -121 118 -322l5 2q55 30 83 46t80 48t81 55t67.5 58.5t58.5 67t34.5 71.5t14.5 81q0 74 -60 120t-160 46q-147 0 -234.5 -76t-87.5 -197zM418 35
q270 0 450 188q-250 333 -362 512q-72 -40 -120.5 -71t-106 -76.5t-91.5 -89t-57 -101.5t-23 -121q0 -110 83.5 -175.5t226.5 -65.5z" />
    <glyph glyph-name="quotesingle" unicode="'" horiz-adv-x="368" 
d="M235 975l92 463h57l-93 -463h-56z" />
    <glyph glyph-name="parenleft" unicode="(" horiz-adv-x="528" 
d="M241 -243q-133 266 -133 603q0 340 134.5 673.5t372.5 602.5h70q-240 -264 -379.5 -599t-139.5 -672q0 -338 142 -608h-67z" />
    <glyph glyph-name="parenright" unicode=")" horiz-adv-x="528" 
d="M-102 -243q244 265 382 598t138 670t-140 611h67q132 -273 132 -607q0 -341 -135 -673.5t-374 -598.5h-70z" />
    <glyph glyph-name="asterisk" unicode="*" horiz-adv-x="763" 
d="M792 1224l-258 -79l110 -209l-43 -30l-111 213l-200 -214l-37 33l202 213l-223 77l24 47l223 -78l49 251h51l-50 -253l255 78z" />
    <glyph glyph-name="plus" unicode="+" horiz-adv-x="1044" 
d="M1016 744l-12 -55h-425l-88 -438h-59l88 438h-426l12 55h426l86 430h59l-87 -430h426z" />
    <glyph glyph-name="comma" unicode="," horiz-adv-x="385" 
d="M6 -216l11 51q72 45 99 165h-71l24 121h112l-24 -118q-32 -156 -151 -219z" />
    <glyph glyph-name="hyphen" unicode="-" horiz-adv-x="948" 
d="M155 541l12 58h636l-13 -58h-635z" />
    <glyph glyph-name="period" unicode="." horiz-adv-x="366" 
d="M47 0l24 123h94l-24 -123h-94z" />
    <glyph glyph-name="slash" unicode="/" horiz-adv-x="808" 
d="M-49 -118l909 1677h62l-908 -1677h-63z" />
    <glyph glyph-name="zero" unicode="0" horiz-adv-x="1259" 
d="M518 -22q-183 0 -285 125.5t-102 348.5q0 110 18 220t53.5 214.5t91.5 194t127.5 157.5t167.5 106.5t205 38.5q183 0 285.5 -124.5t102.5 -345.5q0 -133 -25.5 -264.5t-80 -252.5t-131 -214t-187 -148.5t-240.5 -55.5zM523 36q118 0 218 52t169.5 139t118 200.5t71.5 236
t23 245.5q0 197 -87.5 306.5t-247.5 109.5q-118 0 -218.5 -52t-169 -138.5t-117 -200t-71 -235t-22.5 -244.5q0 -200 86.5 -309.5t246.5 -109.5z" />
    <glyph glyph-name="one" unicode="1" horiz-adv-x="614" 
d="M193 1362h363l-273 -1362h-58l262 1308h-304z" />
    <glyph glyph-name="two" unicode="2" horiz-adv-x="1026" 
d="M992 1098q0 -64 -21.5 -130t-57.5 -128t-96.5 -133.5t-124 -135.5t-155.5 -145.5t-176 -152t-199 -165.5q-49 -40 -74 -61h776l-11 -55h-879l7 35q378 313 458 382q287 251 397 414q98 146 98 272q0 107 -71 169t-196 62q-160 0 -260.5 -83t-130.5 -220l-9 -38h-58l9 38
q38 173 155.5 266.5t302.5 93.5q145 0 230.5 -78t85.5 -207z" />
    <glyph glyph-name="three" unicode="3" horiz-adv-x="1046" 
d="M1050 1362l-5 -25l-522 -507h29q163 -1 263.5 -97.5t100.5 -244.5q0 -137 -66 -253t-186 -186t-269 -70q-162 0 -259 95t-97 243q0 18 4 54h57q-20 -151 68 -243.5t237 -92.5q99 0 184.5 37.5t144 99.5t91.5 143.5t33 168.5q0 130 -90 212.5t-237 82.5h-111l5 23l521 506
h-660l10 54h754z" />
    <glyph glyph-name="four" unicode="4" horiz-adv-x="1064" 
d="M980 364l-10 -54h-174l-62 -310h-56l62 310h-737l5 29l715 1031h66l-701 -1006h663l102 510h56l-102 -510h173z" />
    <glyph glyph-name="five" unicode="5" horiz-adv-x="1046" 
d="M1012 1308h-582l-147 -476h273q167 0 269 -98.5t102 -248.5q0 -101 -38.5 -193.5t-106 -161.5t-165 -110t-209.5 -41q-162 0 -260 95t-98 241q0 20 4 56h58q-21 -150 66.5 -243t237.5 -93q98 0 183.5 36.5t144 98t92 143t33.5 169.5q0 131 -89.5 213.5t-236.5 82.5h-317
l-13 16l176 568h633z" />
    <glyph glyph-name="six" unicode="6" horiz-adv-x="1093" 
d="M629 846q165 0 271 -99t106 -252q0 -105 -41.5 -200t-113.5 -164.5t-175 -110.5t-221 -41q-170 0 -275.5 98.5t-105.5 253.5q0 132 69 268.5t184 288.5l375 493h66q-405 -535 -452 -603q-19 -27 -36 -54q148 122 349 122zM463 35q105 0 196.5 37t154.5 100t99 146.5
t36 174.5q0 134 -91.5 217t-242.5 83q-206 0 -345.5 -133.5t-139.5 -323.5q0 -134 91.5 -217.5t241.5 -83.5z" />
    <glyph glyph-name="seven" unicode="7" horiz-adv-x="966" 
d="M199 1364h871l-4 -22l-819 -1342h-63l800 1309h-795z" />
    <glyph glyph-name="eight" unicode="8" horiz-adv-x="1146" 
d="M781 734q104 -31 162 -107t58 -183q0 -209 -148.5 -337.5t-386.5 -128.5q-178 0 -283.5 87t-105.5 232q0 164 100.5 284t266.5 160q-81 30 -126 95t-45 153q0 178 128 286.5t334 108.5q154 0 246 -74.5t92 -197.5q0 -134 -80 -237t-212 -141zM331 992q0 -108 78.5 -169
t203.5 -61q175 0 289 96.5t114 250.5q0 101 -76.5 161.5t-209.5 60.5q-182 0 -290.5 -94.5t-108.5 -244.5zM471 32q214 0 343 113.5t129 294.5q0 128 -92.5 198.5t-241.5 70.5q-206 0 -340.5 -113.5t-134.5 -295.5q0 -122 90.5 -195t246.5 -73z" />
    <glyph glyph-name="nine" unicode="9" horiz-adv-x="1091" 
d="M694 1383q170 0 275.5 -98.5t105.5 -252.5q0 -224 -253 -558l-376 -490h-67q44 58 98 128t84 110t68 89.5t58 76t45 59.5t38.5 51t29 39.5t25 35t19 27.5t17.5 28q-144 -112 -341 -112q-167 0 -272 98.5t-105 251.5q0 106 41.5 201.5t113.5 165t175 110t221 40.5z
M200 869q0 -134 91.5 -217t242.5 -83q205 0 345 133t140 324q0 134 -91.5 217.5t-241.5 83.5q-139 0 -251.5 -63.5t-173.5 -168t-61 -226.5z" />
    <glyph glyph-name="colon" unicode=":" horiz-adv-x="409" 
d="M209 801l24 123h94l-24 -123h-94zM49 0l24 123h94l-24 -123h-94z" />
    <glyph glyph-name="semicolon" unicode=";" horiz-adv-x="432" 
d="M221 802l24 122h94l-25 -122h-93zM11 -216l11 51q72 45 99 165h-71l24 121h112l-24 -118q-32 -156 -151 -219z" />
    <glyph glyph-name="less" unicode="&#x3c;" horiz-adv-x="1052" 
d="M1078 1249l-14 -72l-889 -489l695 -480l-14 -62l-773 535l3 20z" />
    <glyph glyph-name="equal" unicode="=" horiz-adv-x="1310" 
d="M230 915l12 56h983l-12 -56h-983zM140 464l12 55h983l-12 -55h-983z" />
    <glyph glyph-name="greater" unicode="&#x3e;" horiz-adv-x="1052" 
d="M252 1249l771 -548l-3 -20l-988 -535l14 73l884 478l-690 491z" />
    <glyph glyph-name="question" unicode="?" horiz-adv-x="1001" 
d="M391 351q28 139 82.5 216t195.5 181q57 42 94 73.5t79 76t66.5 86.5t40.5 98t16 119q0 121 -79 189.5t-218 68.5q-159 0 -273 -84t-156 -225h-59q47 169 178.5 267.5t314.5 98.5q162 0 257.5 -84t95.5 -227q0 -68 -17.5 -129t-44 -108t-70.5 -95t-85.5 -83t-100.5 -79
q-132 -97 -181.5 -167t-75.5 -193h-60zM314 0l24 123h93l-24 -123h-93z" />
    <glyph glyph-name="at" unicode="@" horiz-adv-x="2101" 
d="M1215 1442q367 0 578.5 -190t211.5 -510q0 -94 -16 -185t-49 -173t-79.5 -144t-113.5 -98.5t-145 -36.5q-93 0 -150.5 58.5t-57.5 153.5q0 2 0.5 6t0.5 6q-75 -118 -197.5 -188t-270.5 -70q-169 0 -273.5 104t-104.5 267q0 150 73 280.5t203 209.5t286 79q140 0 236 -71
t126 -191l53 223h40q-15 -78 -30 -153.5t-25 -126t-20 -98.5t-16 -78t-11.5 -58t-8 -44t-5 -30t-3.5 -22.5t-1.5 -15.5t-0.5 -15q0 -79 43 -127.5t118 -48.5q85 0 154 54t110.5 141t63 189t21.5 206q0 298 -197 472.5t-541 174.5q-230 0 -432.5 -83t-344 -225t-223.5 -337
t-82 -413q0 -295 189 -467t520 -172q245 0 431 118l-11 -57q-185 -112 -424 -112q-350 0 -553 188t-203 505q0 230 86 434.5t235 352t359.5 233t450.5 85.5zM934 125q144 0 261 72.5t180.5 190t63.5 253.5q0 142 -89 229.5t-241 87.5q-141 0 -258.5 -72t-182 -189
t-64.5 -250q0 -143 90.5 -232.5t239.5 -89.5z" />
    <glyph glyph-name="A" unicode="A" horiz-adv-x="1390" 
d="M1170 0l-99 419h-794l-263 -419h-68l896 1434h51l340 -1434h-63zM852 1345l-541 -870h747z" />
    <glyph glyph-name="B" unicode="B" horiz-adv-x="1327" 
d="M959 753q93 -31 146.5 -110.5t53.5 -183.5q0 -124 -61 -228.5t-173.5 -167.5t-251.5 -63h-562l288 1434h553q134 0 218.5 -81.5t84.5 -205.5q0 -128 -87.5 -241t-208.5 -153zM448 1375l-118 -591h506q89 0 171.5 50.5t133 133t50.5 171.5q0 102 -69.5 169t-178.5 67h-495
zM676 59q91 0 170.5 32.5t133.5 87.5t85 127.5t31 151.5q0 117 -76 193t-197 76h-505l-134 -668h492z" />
    <glyph glyph-name="C" unicode="C" horiz-adv-x="1591" 
d="M733 -21q-276 0 -438.5 157t-162.5 414q0 182 67 347.5t183 288.5t283.5 195.5t358.5 72.5q229 0 382 -120t183 -329h-60q-33 184 -167 287t-341 103q-143 0 -273 -44t-230 -123t-173.5 -184t-112 -231t-38.5 -259q0 -234 145.5 -375t396.5 -141q231 0 407 108t289 308
h65q-119 -228 -313.5 -351.5t-450.5 -123.5z" />
    <glyph glyph-name="D" unicode="D" horiz-adv-x="1482" 
d="M815 1434q273 0 438 -156t165 -407q0 -175 -67.5 -334.5t-183.5 -278t-281 -188.5t-351 -70h-422l286 1434h416zM537 57q174 0 328 66.5t261 177.5t169 260t62 310q0 228 -148 367t-397 139h-363l-264 -1320h352z" />
    <glyph glyph-name="E" unicode="E" horiz-adv-x="1105" 
d="M1157 1375l-708 1l-120 -598h655l-11 -57h-655l-133 -662h730l-11 -59h-791l286 1434h769z" />
    <glyph glyph-name="F" unicode="F" horiz-adv-x="1052" 
d="M1150 1376h-701l-125 -625h646l-10 -57h-647l-139 -694h-61l286 1434h761z" />
    <glyph glyph-name="G" unicode="G" horiz-adv-x="1634" 
d="M775 612l11 58h770q-73 -314 -293.5 -501t-543.5 -187q-270 0 -428 157.5t-158 413.5q0 180 66 344.5t180.5 286.5t278 194.5t348.5 72.5q250 0 412.5 -141.5t166.5 -361.5h-61q-7 196 -151.5 320t-368.5 124q-173 0 -325.5 -68.5t-258 -184t-166 -269t-60.5 -320.5
q0 -233 141.5 -371t385.5 -138q285 0 482 155t273 416h-701z" />
    <glyph glyph-name="H" unicode="H" horiz-adv-x="1495" 
d="M1387 1434h61l-287 -1434h-61l144 720h-927l-144 -720h-60l286 1434h61l-131 -657h927z" />
    <glyph glyph-name="I" unicode="I" horiz-adv-x="507" 
d="M113 0l286 1434h61l-287 -1434h-60z" />
    <glyph glyph-name="J" unicode="J" horiz-adv-x="1198" 
d="M418 -21q-172 0 -278.5 106t-106.5 275q0 49 12 112h60q-11 -50 -11 -104q0 -145 88.5 -237.5t238.5 -92.5q189 0 322.5 121.5t170.5 307.5l194 967h61l-195 -978q-41 -211 -191 -344t-365 -133z" />
    <glyph glyph-name="K" unicode="K" horiz-adv-x="1228" 
d="M1350 1434l-728 -692l495 -742h-72l-478 717h-250l-144 -717h-60l286 1434h61l-132 -659h245l694 659h83z" />
    <glyph glyph-name="L" unicode="L" horiz-adv-x="1009" 
d="M185 57h703l-10 -57h-765l286 1434h61z" />
    <glyph glyph-name="M" unicode="M" horiz-adv-x="1931" 
d="M1691 1434h54l-35 -1434h-60l31 1313l-799 -1246h-27l-299 1250l-496 -1317h-64l540 1434h53l298 -1257z" />
    <glyph glyph-name="N" unicode="N" horiz-adv-x="1527" 
d="M1420 1434h61l-287 -1434h-52l-703 1326l-265 -1326h-61l286 1434h55l700 -1325z" />
    <glyph glyph-name="O" unicode="O" horiz-adv-x="1708" 
d="M741 -21q-184 0 -323 75t-212.5 207t-73.5 302q0 178 67 341t184 284.5t285.5 194t360.5 72.5q278 0 444 -163.5t166 -422.5q0 -179 -67 -341.5t-183.5 -283.5t-285.5 -193t-362 -72zM748 38q174 0 328.5 65t264 175.5t173.5 264t64 323.5q0 239 -152 384.5t-403 145.5
q-173 0 -327 -65.5t-264 -176.5t-174.5 -264t-64.5 -323q0 -238 152 -383.5t403 -145.5z" />
    <glyph glyph-name="P" unicode="P" horiz-adv-x="1226" 
d="M877 1434q167 0 270.5 -97t103.5 -250q0 -138 -69.5 -255.5t-193.5 -187.5t-276 -70h-424l-115 -574h-60l286 1434h478zM713 633q102 0 192 37t152 99.5t97.5 145t35.5 172.5q0 129 -87 208.5t-232 79.5h-422l-149 -742h413z" />
    <glyph glyph-name="Q" unicode="Q" horiz-adv-x="1708" 
d="M1639 869q0 -242 -118 -448.5t-323 -323.5l219 -309h-70l-200 282q-187 -91 -405 -91q-278 0 -444 163t-166 421q0 178 67 341t184 284.5t285.5 194t360.5 72.5q278 0 444 -163.5t166 -422.5zM748 38q196 0 365 80l-321 453h70l303 -427q192 108 302.5 302t110.5 420
q0 237 -151.5 383.5t-403.5 146.5q-179 0 -336 -68.5t-264 -182.5t-168.5 -264.5t-61.5 -313.5q0 -237 151 -383t404 -146z" />
    <glyph glyph-name="R" unicode="R" horiz-adv-x="1294" 
d="M1279 1111q0 -194 -130.5 -330t-336.5 -153l251 -628h-66l-249 626h-449l-126 -626h-60l286 1434h517q164 0 263.5 -89.5t99.5 -233.5zM761 683q201 0 329 123.5t128 301.5q0 121 -83.5 194.5t-224.5 73.5h-461l-139 -693h451z" />
    <glyph glyph-name="S" unicode="S" horiz-adv-x="1189" 
d="M495 -18q-197 0 -310.5 92.5t-113.5 253.5q0 44 9 92h62q-9 -43 -9 -83q0 -139 100.5 -217.5t269.5 -78.5q213 0 351.5 117t138.5 293q0 36 -11 67t-27 53t-45.5 41.5t-55.5 32t-68.5 25.5t-72.5 20.5t-79 18.5q-52 12 -82.5 19t-78.5 22t-76.5 29t-63 37t-53.5 48.5
t-32 62t-13 79.5q0 200 150 323t389 123q176 0 277 -85t101 -231q0 -38 -8 -83h-60q8 42 8 75q0 122 -88.5 193.5t-238.5 71.5q-209 0 -338 -104t-129 -271q0 -36 11 -66t27.5 -51.5t46.5 -41t55.5 -31.5t69 -25t72 -20t78.5 -18q52 -11 84 -19t79 -23t76 -29.5t62.5 -38
t52.5 -50t31.5 -63t12.5 -80.5q0 -210 -158.5 -345t-402.5 -135z" />
    <glyph glyph-name="T" unicode="T" horiz-adv-x="1071" 
d="M1203 1434l-11 -58h-470l-275 -1376h-60l275 1376h-469l11 58h999z" />
    <glyph glyph-name="U" unicode="U" horiz-adv-x="1472" 
d="M625 -21q-200 0 -320.5 117.5t-120.5 308.5q0 17 0.5 30t3.5 36.5t6.5 44.5t12 66t17.5 89t25.5 124.5t32.5 161.5t42.5 212.5t53.5 264.5h61q-27 -135 -52.5 -265t-42.5 -212.5t-33 -162.5l-25 -125t-17 -88.5t-12 -65t-7 -43.5t-3.5 -34t-0.5 -27q0 -170 103 -271.5
t279 -101.5q227 0 380 136t198 357l181 903h61l-183 -911q-48 -244 -219 -394t-421 -150z" />
    <glyph glyph-name="V" unicode="V" horiz-adv-x="1353" 
d="M1401 1434h70l-875 -1434h-51l-317 1434h63l294 -1339z" />
    <glyph glyph-name="W" unicode="W" horiz-adv-x="2072" 
d="M2114 1434h68l-747 -1434h-49l-211 1253l-705 -1253h-50l-184 1434h61l166 -1327l717 1271h30l216 -1271z" />
    <glyph glyph-name="X" unicode="X" horiz-adv-x="1181" 
d="M1292 1434l-622 -688l377 -746h-67l-354 700l-634 -700h-77l679 750l-345 684h67l322 -638l578 638h76z" />
    <glyph glyph-name="Y" unicode="Y" horiz-adv-x="1302" 
d="M1412 1434l-728 -870l-112 -564h-62l112 565l-374 869h64l350 -810l678 810h72z" />
    <glyph glyph-name="Z" unicode="Z" horiz-adv-x="1089" 
d="M1200 1434l-4 -15l-1150 -1362h913l-11 -57h-1012l3 17l1148 1359h-846l11 58h948z" />
    <glyph glyph-name="bracketleft" unicode="[" horiz-adv-x="657" 
d="M830 1561h-350l-350 -1747h354l-10 -54h-411l370 1854h406z" />
    <glyph glyph-name="backslash" unicode="\" horiz-adv-x="763" 
d="M505 -118l-239 1677h61l240 -1677h-62z" />
    <glyph glyph-name="bracketright" unicode="]" horiz-adv-x="659" 
d="M244 1614h406l-370 -1854h-410l10 54h354l350 1747h-350z" />
    <glyph glyph-name="asciicircum" unicode="^" horiz-adv-x="1032" 
d="M990 694h-64l-241 647l-502 -647h-73l579 744h20z" />
    <glyph glyph-name="underscore" unicode="_" horiz-adv-x="1056" 
d="M-140 -180l11 58h1056l-11 -58h-1056z" />
    <glyph glyph-name="grave" unicode="`" horiz-adv-x="1226" 
d="M573 1243h-53l-111 311h64z" />
    <glyph glyph-name="a" unicode="a" horiz-adv-x="1437" 
d="M1296 1106h51l-222 -1106h-52l51 283q-93 -140 -241 -222t-326 -82q-209 0 -336 126.5t-127 327.5q0 137 52.5 263.5t142.5 221.5t218.5 152t272.5 57q175 0 293 -88.5t154 -237.5zM564 36q134 0 251.5 53t198 141t127 204t46.5 241q0 178 -111.5 286.5t-297.5 108.5
q-131 0 -248 -52.5t-198.5 -139.5t-129.5 -203t-48 -240q0 -177 112.5 -288t297.5 -111z" />
    <glyph glyph-name="b" unicode="b" horiz-adv-x="1435" 
d="M882 1127q211 0 336.5 -125t125.5 -325q0 -186 -87 -345.5t-245.5 -256t-351.5 -96.5q-172 0 -290.5 87.5t-156.5 235.5l-69 -302h-50l300 1496h59l-133 -668q94 138 240.5 218.5t321.5 80.5zM661 36q134 0 251.5 53t198 141t127 204t46.5 241q0 178 -111.5 286.5
t-297.5 108.5q-131 0 -248 -52.5t-199 -140t-129.5 -203t-47.5 -239.5q0 -176 113 -287.5t297 -111.5z" />
    <glyph glyph-name="c" unicode="c" horiz-adv-x="1261" 
d="M561 -21q-209 0 -338 128t-129 328q0 183 89 341.5t248.5 254.5t352.5 96q178 0 296 -93.5t148 -251.5h-59q-32 135 -134.5 211.5t-253.5 76.5q-133 0 -251 -52.5t-199.5 -140t-129 -203t-47.5 -238.5q0 -176 113 -288t297 -112q169 0 299.5 75.5t216.5 215.5h64
q-90 -164 -240 -256t-343 -92z" />
    <glyph glyph-name="d" unicode="d" horiz-adv-x="1435" 
d="M1362 1496h59l-299 -1496h-50l46 273q-93 -136 -239 -215t-322 -79q-209 0 -336 126.5t-127 327.5q0 137 52.5 263.5t142.5 221.5t218.5 152t272.5 57q173 0 289.5 -85t154.5 -232zM564 37q133 0 250.5 52.5t198.5 140t127.5 203t46.5 240.5q0 179 -111 287.5t-298 108.5
q-174 0 -319 -89t-225.5 -234t-80.5 -311q0 -176 113 -287t298 -111z" />
    <glyph glyph-name="e" unicode="e" horiz-adv-x="1294" 
d="M1198 536h-1038q-8 -45 -8 -104q0 -177 108.5 -286.5t289.5 -109.5q312 0 502 278h69q-215 -335 -572 -335q-205 0 -330 127t-125 327q0 136 51.5 262.5t140 221.5t215.5 152.5t269 57.5q206 0 325.5 -124t119.5 -323q0 -70 -17 -144zM768 1070q-218 0 -381 -136
t-215 -342h979q7 51 7 85q0 177 -101.5 285t-288.5 108z" />
    <glyph glyph-name="f" unicode="f" horiz-adv-x="749" 
d="M819 1495q-176 0 -254.5 -65.5t-113.5 -239.5l-17 -86h398l-10 -52h-397l-210 -1052h-60l210 1052h-239l9 52h241l17 89q41 199 133.5 276.5t293.5 77.5h99l-9 -52h-91z" />
    <glyph glyph-name="g" unicode="g" horiz-adv-x="1382" 
d="M1246 1106h46l-189 -945q-54 -270 -220 -421.5t-414 -151.5q-182 0 -291.5 88t-131.5 248h60q22 -136 117.5 -208t250.5 -72q221 0 371 137.5t199 381.5l31 154q-89 -128 -227 -202.5t-304 -74.5q-199 0 -321.5 120.5t-122.5 310.5q0 128 50 248t136 210t208.5 144
t259.5 54q163 0 275 -83.5t149 -225.5zM552 97q168 0 304.5 85.5t210 222t73.5 291.5q0 166 -106.5 270t-279.5 104q-167 0 -305 -85t-213.5 -221.5t-75.5 -290.5q0 -167 108 -271.5t284 -104.5z" />
    <glyph glyph-name="h" unicode="h" horiz-adv-x="1312" 
d="M811 1127q168 0 261 -92.5t93 -256.5q0 -21 -1 -37.5t-5.5 -47t-9.5 -58t-17.5 -91.5t-25 -125t-36.5 -180.5t-48 -238.5h-60q22 109 43.5 216.5t34 169.5t24.5 123t18 92.5t11.5 61.5t7.5 47t3 32t1 32q0 141 -79.5 218t-227.5 77q-196 0 -338 -123.5t-178 -303.5
l-128 -642h-60l300 1496h59l-126 -630q78 120 203.5 190.5t280.5 70.5z" />
    <glyph glyph-name="i" unicode="i" horiz-adv-x="466" 
d="M346 1355l22 109h91l-22 -109h-91zM94 0l221 1106h60l-221 -1106h-60z" />
    <glyph glyph-name="j" unicode="j" horiz-adv-x="491" 
d="M368 1355l22 109h91l-22 -109h-91zM-271 -390l10 56h36q134 0 219.5 72.5t112.5 202.5l233 1165h59l-233 -1172q-30 -152 -133 -238t-259 -86h-45z" />
    <glyph glyph-name="k" unicode="k" horiz-adv-x="1030" 
d="M1097 1106l-568 -529l388 -577h-70l-368 549h-216l-109 -549h-60l300 1496h59l-178 -891h203l539 501h80z" />
    <glyph glyph-name="l" unicode="l" horiz-adv-x="466" 
d="M94 0l300 1496h59l-299 -1496h-60z" />
    <glyph glyph-name="m" unicode="m" horiz-adv-x="1959" 
d="M1520 1127q139 0 218.5 -85t79.5 -230q0 -13 -1 -24t-2 -23.5t-4.5 -32.5l-7 -40t-10.5 -56.5l-14 -73t-19.5 -98t-24.5 -121.5l-31 -155t-38 -188h-59q135 677 142 722q7 44 7 80q0 127 -65.5 198t-183.5 71q-178 0 -299.5 -110.5t-165.5 -297.5q-8 -44 -24 -123.5
t-47.5 -233.5t-61.5 -306h-58q19 93 38 187.5t31 154.5t24 121t19.5 96.5t14.5 71.5t10 55.5t6.5 39t4.5 31.5t1.5 22.5t0.5 22.5q0 127 -66 198t-184 71q-181 0 -304 -115t-164 -308l-129 -648h-60l221 1106h48l-35 -219q71 114 182.5 177t253.5 63q131 0 209 -75.5
t87 -206.5q69 133 187.5 207.5t272.5 74.5z" />
    <glyph glyph-name="n" unicode="n" horiz-adv-x="1312" 
d="M810 1127q169 0 262 -92.5t93 -256.5q0 -21 -1 -37.5t-5.5 -47t-9.5 -58t-17.5 -91.5t-25 -125t-36.5 -180.5t-48 -238.5h-60q21 107 43 215.5t34.5 169t25 122.5t18 93t11 61.5t7.5 47t3 31t1 31.5q0 143 -80.5 221.5t-228.5 78.5q-187 0 -333 -126t-181 -305l-128 -640
h-60l221 1106h48l-40 -252q78 125 207 199t280 74z" />
    <glyph glyph-name="o" unicode="o" horiz-adv-x="1357" 
d="M568 -21q-213 0 -343.5 127t-130.5 329q0 141 54 269t147 221t222.5 147.5t273.5 54.5q214 0 344 -127t130 -329q0 -141 -54 -269t-147 -221t-222.5 -147.5t-273.5 -54.5zM573 36q132 0 250 51t201.5 136.5t132 202.5t48.5 244q0 179 -114.5 289.5t-304.5 110.5
q-176 0 -321.5 -86t-228 -231.5t-82.5 -316.5q0 -179 114.5 -289.5t304.5 -110.5z" />
    <glyph glyph-name="p" unicode="p" horiz-adv-x="1435" 
d="M883 1127q211 0 336 -125.5t125 -325.5q0 -186 -87 -345t-245 -255.5t-351 -96.5q-171 0 -290 87.5t-157 235.5l-139 -692h-59l299 1496h47l-46 -286q94 140 242.5 223.5t324.5 83.5zM660 36q134 0 251.5 53t198.5 141t127.5 204t46.5 241q0 177 -111 286t-297 109
q-174 0 -319 -89t-225.5 -234.5t-80.5 -312.5q0 -176 112.5 -287t296.5 -111z" />
    <glyph glyph-name="q" unicode="q" horiz-adv-x="1433" 
d="M1297 1106h47l-299 -1496h-60l134 667q-93 -138 -238.5 -218t-322.5 -80q-209 0 -336.5 127t-127.5 328q0 136 52.5 263t142 221.5t218 151.5t272.5 57q176 0 294.5 -89.5t153.5 -240.5zM565 36q134 0 251 53t197.5 141t126.5 204t46 241q0 178 -110.5 286.5
t-296.5 108.5q-174 0 -319 -89t-225.5 -234.5t-80.5 -311.5q0 -176 113 -287.5t298 -111.5z" />
    <glyph glyph-name="r" unicode="r" horiz-adv-x="784" 
d="M768 1109h95l-11 -57h-98q-170 0 -301.5 -117t-172.5 -299l-126 -636h-60l221 1106h48l-45 -264q76 124 193 195.5t257 71.5z" />
    <glyph glyph-name="s" unicode="s" horiz-adv-x="1030" 
d="M405 -21q-171 0 -266 73.5t-95 203.5q0 22 3 43h58q-2 -24 -2 -34q0 -115 84.5 -172.5t224.5 -57.5q185 0 300.5 85t115.5 228q0 42 -18.5 75t-45 52.5t-73 35.5t-83.5 24t-96 18q-48 9 -72.5 13.5t-67.5 15.5t-66 21t-53 27.5t-45.5 38t-26.5 49.5t-11 64q0 155 124 250
t326 95q159 0 251 -68.5t92 -188.5q0 -5 -5 -50h-57q4 30 4 44q0 104 -81 156.5t-210 52.5q-175 0 -280 -77.5t-105 -203.5q0 -32 10.5 -56.5t34 -43t46 -30.5t64 -22.5t69.5 -16t79 -14.5q53 -9 86.5 -16t80 -20t76 -30.5t58 -42.5t42 -60.5t13.5 -80.5q0 -175 -136 -277.5
t-347 -102.5z" />
    <glyph glyph-name="t" unicode="t" horiz-adv-x="770" 
d="M839 1051h-405q-24 -119 -61 -303q-64 -318 -77 -388.5t-13 -105.5q0 -95 57.5 -146.5t164.5 -51.5h143l-11 -56h-142q-130 0 -201 65t-71 182q0 37 11.5 101t70.5 355q42 207 70 348h-254l10 53h254q9 47 31.5 155.5t34.5 171.5h59q-12 -61 -34 -170t-31 -157h404z" />
    <glyph glyph-name="u" unicode="u" horiz-adv-x="1290" 
d="M536 -21q-181 0 -282.5 97t-102.5 266q0 59 75 428q40 199 67 336h60q-20 -99 -39.5 -197t-31.5 -157.5l-24 -119t-18.5 -92t-12.5 -65t-8.5 -47.5t-4.5 -32t-2.5 -26.5t-0.5 -21.5q0 -148 86.5 -230t242.5 -82q202 0 328 115t168 321l127 634h59l-129 -644
q-45 -227 -187.5 -355t-369.5 -128z" />
    <glyph glyph-name="v" unicode="v" horiz-adv-x="1146" 
d="M1140 1106h65l-714 -1106h-50l-283 1106h60l261 -1022z" />
    <glyph glyph-name="w" unicode="w" horiz-adv-x="1726" 
d="M1726 1106h63l-613 -1106h-46l-189 956l-569 -956h-46l-160 1106h59l145 -1000l576 963h29l191 -966z" />
    <glyph glyph-name="x" unicode="x" horiz-adv-x="991" 
d="M1041 1106l-502 -530l318 -576h-65l-294 533l-505 -533h-76l550 581l-287 525h65l264 -484l457 484h75z" />
    <glyph glyph-name="y" unicode="y" horiz-adv-x="1165" 
d="M1157 1106h69l-807 -1208q-115 -171 -203 -229.5t-230 -58.5h-87l11 55h76q90 0 150 24t109.5 75t120.5 156l97 144l-307 1042h64l287 -977z" />
    <glyph glyph-name="z" unicode="z" horiz-adv-x="925" 
d="M971 1106l-3 -18l-920 -1032h727l-10 -56h-824l4 19l919 1031h-679l11 56h775z" />
    <glyph glyph-name="braceleft" unicode="{" horiz-adv-x="671" 
d="M648 1602h204l-10 -54h-188q-87 0 -140.5 -47t-69.5 -126l-101 -503q-13 -61 -53.5 -107t-94.5 -63q38 -17 60 -55t22 -85q0 -37 -55 -295t-55 -305q0 -66 37.5 -102t104.5 -36h193l-10 -55h-205q-81 0 -131 50.5t-50 130.5q0 55 56.5 319.5t56.5 293.5q0 50 -32.5 82
t-85.5 32h-12l10 53h12q61 0 111.5 41.5t62.5 102.5l102 513q20 100 88 157.5t173 57.5z" />
    <glyph glyph-name="bar" unicode="|" horiz-adv-x="499" 
d="M33 -389l422 2109h57l-422 -2109h-57z" />
    <glyph glyph-name="braceright" unicode="}" horiz-adv-x="671" 
d="M629 725h12l-10 -53h-11q-61 0 -111.5 -41.5t-62.5 -101.5l-109 -542q-20 -101 -87 -159.5t-173 -58.5h-209l10 55h193q87 0 140.5 47.5t69.5 127.5l106 532q13 61 54.5 107.5t95.5 62.5q-38 16 -61 54t-23 85q0 41 53.5 288.5t53.5 286.5q0 61 -38.5 97t-105.5 36h-188
l10 54h200q81 0 131.5 -49.5t50.5 -127.5q0 -30 -54.5 -292.5t-54.5 -291.5q0 -51 32.5 -83.5t85.5 -32.5z" />
    <glyph glyph-name="asciitilde" unicode="~" horiz-adv-x="1155" 
d="M786 504q-61 0 -104.5 31t-91.5 103q-50 74 -88.5 103t-88.5 29q-164 0 -212 -257h-52q31 159 98 235t174 76q63 0 110 -33.5t99 -112.5q45 -68 80 -94t84 -26q79 0 128.5 62t75.5 188h53q-32 -155 -94.5 -229.5t-170.5 -74.5z" />
    <glyph glyph-name="uni00A0" unicode="&#xa0;" horiz-adv-x="581" 
 />
    <glyph glyph-name="exclamdown" unicode="&#xa1;" horiz-adv-x="415" 
d="M364 1106l-24 -123h-94l24 123h94zM277 755l-225 -1124h-60l225 1124h60z" />
    <glyph glyph-name="cent" unicode="&#xa2;" horiz-adv-x="1216" 
d="M741 1019q-125 0 -237 -50.5t-189.5 -134t-123 -193t-45.5 -225.5q0 -168 108 -274t283 -106q155 0 279.5 72.5t212.5 204.5h61q-88 -151 -225.5 -239t-308.5 -94l-37 -184h-52l38 184q-187 9 -302 129.5t-115 303.5q0 171 83 321t229.5 242.5t322.5 98.5l38 188h52
l-39 -188q162 -7 269.5 -97t133.5 -237h-57q-30 130 -131 204t-248 74z" />
    <glyph glyph-name="sterling" unicode="&#xa3;" horiz-adv-x="1185" 
d="M817 1399q147 0 238.5 -91t91.5 -232q0 -40 -9 -82h-55q8 52 8 73q0 122 -77 199t-202 77q-159 0 -275.5 -104.5t-148.5 -263.5l-58 -293h456l-10 -52h-457l-116 -578h735l42 215h55l-53 -267h-1006l8 46l161 6l116 578h-147l11 52h146l61 302q37 184 170.5 299.5
t314.5 115.5z" />
    <glyph glyph-name="currency" unicode="&#xa4;" horiz-adv-x="1198" 
d="M1026 676q0 -97 -42.5 -187.5t-117.5 -159.5l144 -181l-41 -36l-145 183q-131 -97 -288 -97q-155 0 -252 105l-226 -191l-31 40l226 190q-55 81 -55 191q0 98 42.5 189t117.5 160l-146 182l41 36l147 -184q129 95 286 95q153 0 249 -101l227 190l33 -38l-228 -190
q59 -84 59 -196zM250 534q0 -122 81.5 -202.5t209.5 -80.5q88 0 169 36.5t138 95.5t91 136.5t34 156.5q0 122 -81.5 202t-209.5 80q-117 0 -218 -61.5t-157.5 -159t-56.5 -203.5z" />
    <glyph glyph-name="yen" unicode="&#xa5;" horiz-adv-x="1257" 
d="M665 612l-11 -54h449l-8 -46h-450l-42 -211h449l-8 -45h-450l-51 -256h-59l51 256h-449l8 45h450l42 211h-449l8 46h450l11 58l-370 746h60l347 -695l629 695h69z" />
    <glyph glyph-name="brokenbar" unicode="&#xa6;" horiz-adv-x="499" 
d="M275 819l180 901h57l-180 -901h-57zM33 -389l184 921h57l-184 -921h-57z" />
    <glyph glyph-name="section" unicode="&#xa7;" horiz-adv-x="997" 
d="M663 1455q144 0 225.5 -62.5t81.5 -169.5q0 -23 -7 -56h-52q22 115 -48.5 176.5t-203.5 61.5q-142 0 -223.5 -72t-81.5 -192q0 -35 13.5 -62.5t32 -45.5t54.5 -35t63.5 -26t76.5 -24q36 -11 50.5 -15.5t48.5 -15.5t49.5 -18.5t43 -22t41.5 -27t32.5 -31t27.5 -38.5
t15.5 -45.5t6.5 -54.5q0 -120 -73.5 -204.5t-195.5 -126.5q113 -64 113 -178q0 -142 -101.5 -225.5t-275.5 -83.5q-144 0 -227 63.5t-83 174.5q0 26 6 55h53q-22 -116 49 -179t207 -63q148 0 233.5 69.5t85.5 184.5q0 36 -15 65.5t-36 48t-60 36.5t-69 27.5t-82 24.5
q-56 16 -91 27.5t-81.5 35t-73.5 49t-46.5 66t-19.5 90.5q0 122 75.5 206.5t202.5 125.5q-103 60 -103 169q0 146 99 231.5t263 85.5zM855 673q0 42 -17 75.5t-36.5 53.5t-64 41t-70 29.5t-83.5 25.5q-4 1 -7 2l-6 2q-55 17 -108 38q-132 -33 -207.5 -112t-75.5 -187
q0 -27 5 -49.5t19 -41t25.5 -32.5t37.5 -28t40 -21.5t49 -19.5t49 -16t54 -16q71 -20 121 -40q132 34 203.5 113.5t71.5 182.5z" />
    <glyph glyph-name="dieresis" unicode="&#xa8;" horiz-adv-x="1228" 
d="M141 1355l22 109h94l-22 -109h-94zM480 1355l22 109h94l-22 -109h-94z" />
    <glyph glyph-name="copyright" unicode="&#xa9;" horiz-adv-x="1742" 
d="M757 -21q-287 0 -458 159t-171 418q0 182 71 347t192.5 285t293 191t363.5 71q288 0 460 -159.5t172 -418.5q0 -145 -45.5 -281t-130 -246t-197.5 -193t-255 -128t-295 -45zM760 24q182 0 345.5 68t278.5 182t182.5 270t67.5 326q0 242 -159.5 389t-429.5 147
q-183 0 -345.5 -68t-277.5 -182.5t-181.5 -270t-66.5 -326.5q0 -242 158.5 -388.5t427.5 -146.5zM831 345q-137 0 -221.5 82.5t-84.5 211.5q0 120 58 223.5t162.5 165.5t231.5 62q114 0 193 -60t98 -166h-46q-22 86 -87 133.5t-162 47.5q-172 0 -286.5 -121t-114.5 -281
q0 -111 72.5 -181.5t190.5 -70.5q206 0 322 180h52q-133 -226 -378 -226z" />
    <glyph glyph-name="ordfeminine" unicode="&#xaa;" horiz-adv-x="962" 
d="M930 1443h44l-136 -679h-44l28 163q-57 -81 -145 -128t-193 -47q-125 0 -203 79t-78 200q0 173 121.5 298.5t297.5 125.5q102 0 172.5 -49.5t95.5 -134.5zM492 800q153 0 260 109t107 267q0 104 -64.5 167.5t-172.5 63.5q-152 0 -260 -110t-108 -264q0 -105 65.5 -169
t172.5 -64z" />
    <glyph glyph-name="guillemotleft" unicode="&#xab;" horiz-adv-x="1087" 
d="M626 967l-460 -424l285 -416h-68l-283 412l2 20l443 408h81zM1047 967l-461 -424l286 -416h-69l-283 412l3 20l443 408h81z" />
    <glyph glyph-name="logicalnot" unicode="&#xac;" horiz-adv-x="1167" 
d="M166 766h877l-101 -512h-61l90 456h-816z" />
    <glyph glyph-name="registered" unicode="&#xae;" horiz-adv-x="923" 
d="M635 1454q128 0 210.5 -81t82.5 -204q0 -108 -57.5 -206.5t-157.5 -159t-215 -60.5q-130 0 -212.5 83t-82.5 208q0 108 59 205.5t159.5 156t213.5 58.5zM499 779q159 0 275.5 117.5t116.5 270.5q0 108 -72 179.5t-185 71.5q-157 0 -276 -117.5t-119 -268.5
q0 -110 72.5 -181.5t187.5 -71.5zM635 1297q43 0 70.5 -26.5t27.5 -66.5q0 -50 -31 -84.5t-84 -41.5l65 -167h-38l-66 166h-94l-33 -166h-37l77 386h143zM597 1111q46 0 73.5 26t27.5 65q0 27 -19 43.5t-51 16.5h-105l-31 -151h105z" />
    <glyph glyph-name="macron" unicode="&#xaf;" horiz-adv-x="1038" 
d="M365 1387l12 51h641l-12 -51h-641z" />
    <glyph glyph-name="degree" unicode="&#xb0;" horiz-adv-x="765" 
d="M491 1140q-103 0 -169 65.5t-66 165.5q0 142 105.5 245t245.5 103q104 0 172 -67.5t68 -168.5q0 -137 -108 -240t-248 -103zM497 1185q119 0 211 89.5t92 205.5q0 84 -55 138.5t-142 54.5q-120 0 -210 -89.5t-90 -208.5q0 -83 54 -136.5t140 -53.5z" />
    <glyph glyph-name="plusminus" unicode="&#xb1;" horiz-adv-x="1249" 
d="M714 850h462l-11 -56h-462l-87 -429h-58l86 429h-462l11 56h462l87 429h58zM38 68l12 57h983l-12 -57h-983z" />
    <glyph glyph-name="acute" unicode="&#xb4;" horiz-adv-x="677" 
d="M344 1243l222 311h65l-233 -311h-54z" />
    <glyph glyph-name="paragraph" unicode="&#xb6;" horiz-adv-x="1159" 
d="M1259 1434l-11 -54h-195l-299 -1499h-55l299 1499h-333l-299 -1499h-55l155 777q-144 4 -226.5 84t-82.5 213q0 202 135 340.5t347 138.5h620z" />
    <glyph glyph-name="periodcentered" unicode="&#xb7;" horiz-adv-x="405" 
d="M157 559l25 123h93l-24 -123h-94z" />
    <glyph glyph-name="cedilla" unicode="&#xb8;" horiz-adv-x="796" 
d="M223 -122q80 -4 127.5 -46t47.5 -103q0 -91 -70.5 -150t-185.5 -59h-132l7 44h126q92 0 148.5 47.5t56.5 114.5q0 51 -40.5 81.5t-110.5 30.5h-30l-6 9l79 168l51 2z" />
    <glyph glyph-name="ordmasculine" unicode="&#xba;" horiz-adv-x="915" 
d="M494 753q-130 0 -210.5 77.5t-80.5 199.5q0 177 124 300.5t304 123.5q130 0 209.5 -77.5t79.5 -200.5q0 -177 -123.5 -300t-302.5 -123zM498 802q156 0 264 107.5t108 263.5q0 104 -67 168t-177 64q-156 0 -264 -107.5t-108 -263.5q0 -104 67 -168t177 -64z" />
    <glyph glyph-name="guillemotright" unicode="&#xbb;" horiz-adv-x="1085" 
d="M565 555l-3 -22l-438 -406h-82l459 426l-286 414h67zM701 967l283 -412l-3 -22l-437 -406h-83l459 426l-286 414h67z" />
    <glyph glyph-name="onequarter" unicode="&#xbc;" horiz-adv-x="1634" 
d="M1259 1495h56l-1140 -1556h-56zM233 684l140 704h-150l9 46h202l-149 -750h-52zM1507 211l-9 -46h-90l-32 -165h-50l33 165h-397l4 23l389 561h57l-375 -538h332l58 269h44l-53 -269h89z" />
    <glyph glyph-name="onehalf" unicode="&#xbd;" horiz-adv-x="1593" 
d="M1258 1495h57l-1141 -1556h-56zM232 684l140 704h-150l9 46h202l-149 -750h-52zM1492 595q0 -59 -26 -115.5t-93.5 -127t-118.5 -116t-164 -140.5q-37 -31 -56 -47h384l-10 -49h-480l3 20q243 203 302 257q166 154 199 255q9 30 9 58q0 62 -37 94.5t-101 32.5
q-89 0 -138 -45.5t-68 -135.5h-51q22 118 87 173.5t179 55.5q83 0 131.5 -46t48.5 -124z" />
    <glyph glyph-name="threequarters" unicode="&#xbe;" horiz-adv-x="1867" 
d="M1495 1495h56l-1140 -1556h-57zM633 950q0 -119 -81 -200.5t-210 -81.5q-96 0 -151.5 59.5t-51.5 162.5h50q-2 -82 39.5 -127.5t115.5 -45.5q107 0 173 68.5t66 164.5q0 66 -47.5 109.5t-120.5 43.5h-79l6 26l269 257h-339l9 48h425l-3 -17l-285 -269h11q90 -1 147 -58.5
t57 -139.5zM1742 211l-9 -46h-89l-32 -165h-50l33 165h-398l5 23l389 561h57l-375 -538h332l57 269h44l-53 -269h89z" />
    <glyph glyph-name="questiondown" unicode="&#xbf;" horiz-adv-x="983" 
d="M557 983l24 123h94l-24 -123h-94zM313 -412q-161 0 -255 84t-94 228q0 69 17 130.5t42.5 107.5t70.5 94t85 81.5t101 79.5q96 73 143 121t72.5 102.5t40.5 141.5h59q-17 -96 -48.5 -161t-82.5 -116.5t-147 -123.5q-55 -41 -93.5 -73.5t-79.5 -76.5t-65.5 -86.5t-40.5 -98
t-16 -116.5q0 -122 79.5 -191.5t221.5 -69.5q157 0 268 82.5t159 226.5h57q-49 -169 -179.5 -267.5t-314.5 -98.5z" />
    <glyph glyph-name="Agrave" unicode="&#xc0;" horiz-adv-x="1390" 
d="M898 1603h-52l-133 291h64zM1170 0l-99 419h-794l-263 -419h-68l896 1434h51l340 -1434h-63zM852 1345l-541 -870h747z" />
    <glyph glyph-name="Aacute" unicode="&#xc1;" horiz-adv-x="1390" 
d="M1133 1894l-248 -291h-57l236 291h69zM1170 0l-99 419h-794l-263 -419h-68l896 1434h51l340 -1434h-63zM852 1345l-541 -870h747z" />
    <glyph glyph-name="Acircumflex" unicode="&#xc2;" horiz-adv-x="1390" 
d="M930 1851l-266 -248h-68l306 291h63l193 -291h-55zM1170 0l-99 419h-794l-263 -419h-68l896 1434h51l340 -1434h-63zM852 1345l-541 -870h747z" />
    <glyph glyph-name="Atilde" unicode="&#xc3;" horiz-adv-x="1390" 
d="M768 1837q-65 0 -104.5 -48.5t-60.5 -146.5h-45q48 242 215 242q50 0 85 -25.5t74 -87.5q35 -54 61.5 -74.5t65.5 -20.5q122 0 161 191h45q-48 -238 -210 -238q-50 0 -84.5 25t-74.5 85q-36 55 -63.5 76.5t-64.5 21.5zM842 1434h51l340 -1434h-63l-99 419h-794l-263 -419
h-68zM852 1345l-541 -870h747z" />
    <glyph glyph-name="Adieresis" unicode="&#xc4;" horiz-adv-x="1390" 
d="M757 1793l-21 -109h-94l22 109h93zM1172 1793l-22 -109h-93l21 109h94zM1170 0l-99 419h-794l-263 -419h-68l896 1434h51l340 -1434h-63zM852 1345l-541 -870h747z" />
    <glyph glyph-name="Aring" unicode="&#xc5;" horiz-adv-x="1390" 
d="M880 1567q-82 0 -130.5 45.5t-48.5 120.5q0 109 71 178t181 69q82 0 130.5 -46t48.5 -122q0 -105 -72.5 -175t-179.5 -70zM949 1937q-90 0 -147 -56.5t-57 -145.5q0 -58 36.5 -91.5t101.5 -33.5q90 0 147.5 59t57.5 141q0 59 -37 93t-102 34zM1170 0l-99 419h-794
l-263 -419h-68l896 1434h51l340 -1434h-63zM852 1345l-541 -870h747z" />
    <glyph glyph-name="AE" unicode="&#xc6;" horiz-adv-x="1769" 
d="M1821 1376h-711l-122 -608h655l-13 -56h-653l-131 -654h732l-11 -58h-794l75 374h-593l-304 -374h-74l1167 1434h788zM301 430h558l182 910z" />
    <glyph glyph-name="Ccedilla" unicode="&#xc7;" horiz-adv-x="1591" 
d="M1021 1395q-143 0 -273 -44t-230 -123t-173.5 -184t-112 -231t-38.5 -259q0 -234 145.5 -375t396.5 -141q231 0 407 108t289 308h65q-117 -223 -305.5 -346.5t-436.5 -128.5l-49 -101q76 -5 123.5 -46t47.5 -103q0 -90 -76.5 -149.5t-183.5 -59.5h-128l8 44h128
q83 0 141.5 46t58.5 115q0 49 -40.5 80t-107.5 31h-28l-7 11l63 133q-264 8 -418.5 164t-154.5 406q0 182 67 348t183 288.5t283.5 195.5t358.5 73q228 0 381.5 -120.5t183.5 -329.5h-60q-33 184 -167 287t-341 103z" />
    <glyph glyph-name="Egrave" unicode="&#xc8;" horiz-adv-x="1105" 
d="M829 1603h-52l-133 291h63zM1157 1375l-708 1l-120 -598h655l-11 -57h-655l-133 -662h730l-11 -59h-791l286 1434h769z" />
    <glyph glyph-name="Eacute" unicode="&#xc9;" horiz-adv-x="1105" 
d="M1063 1894l-248 -291h-57l237 291h68zM1157 1375l-708 1l-120 -598h655l-11 -57h-655l-133 -662h730l-11 -59h-791l286 1434h769z" />
    <glyph glyph-name="Ecircumflex" unicode="&#xca;" horiz-adv-x="1105" 
d="M861 1851l-267 -248h-67l305 291h64l192 -291h-55zM1157 1375l-708 1l-120 -598h655l-11 -57h-655l-133 -662h730l-11 -59h-791l286 1434h769z" />
    <glyph glyph-name="Edieresis" unicode="&#xcb;" horiz-adv-x="1105" 
d="M688 1793l-22 -109h-93l21 109h94zM1103 1793l-22 -109h-94l22 109h94zM1157 1376h-708l-120 -598h655l-11 -57h-655l-133 -662h730l-11 -59h-791l286 1434h769z" />
    <glyph glyph-name="Igrave" unicode="&#xcc;" horiz-adv-x="507" 
d="M480 1603h-54l-71 291h64zM113 0l286 1434h61l-287 -1434h-60z" />
    <glyph glyph-name="Iacute" unicode="&#xcd;" horiz-adv-x="507" 
d="M401 1605l178 290h64l-189 -290h-53zM113 0l286 1434h61l-287 -1434h-60z" />
    <glyph glyph-name="Icircumflex" unicode="&#xce;" horiz-adv-x="507" 
d="M682 1603h-54l-136 245l-233 -245h-63l272 291h57zM113 0l286 1434h61l-287 -1434h-60z" />
    <glyph glyph-name="Idieresis" unicode="&#xcf;" horiz-adv-x="507" 
d="M333 1684l21 105h91l-21 -105h-91zM527 1684l22 105h91l-21 -105h-92zM113 0l286 1434h61l-287 -1434h-60z" />
    <glyph glyph-name="Eth" unicode="&#xd0;" horiz-adv-x="1572" 
d="M905 1434q273 0 437.5 -156t164.5 -407q0 -175 -67.5 -334.5t-183 -278t-280.5 -188.5t-351 -70h-423l140 697h-300l10 53h300l137 684h416zM626 57q174 0 328 66.5t261 177.5t169 260t62 310q0 228 -147.5 367t-396.5 139h-363l-126 -627h437l-10 -53h-437l-128 -640
h351z" />
    <glyph glyph-name="Ntilde" unicode="&#xd1;" horiz-adv-x="1527" 
d="M860 1837q-126 0 -166 -195h-45q48 242 216 242q50 0 84.5 -25.5t73.5 -87.5q34 -54 61.5 -74.5t66.5 -20.5q121 0 160 191h46q-48 -238 -211 -238q-49 0 -83.5 25t-74.5 85q-36 55 -63.5 76.5t-64.5 21.5zM1420 1434h61l-287 -1434h-52l-703 1326l-265 -1326h-61
l286 1434h55l700 -1325z" />
    <glyph glyph-name="Ograve" unicode="&#xd2;" horiz-adv-x="1708" 
d="M1044 1603l-133 291h64l122 -291h-53zM742 -21q-278 0 -444 163t-166 421q0 178 67 341t184 284.5t285.5 194t360.5 72.5q278 0 444 -163.5t166 -422.5q0 -179 -66.5 -341.5t-183 -283.5t-285.5 -193t-362 -72zM748 38q174 0 328.5 65t264 175.5t173.5 264t64 323.5
q0 239 -152 384.5t-403 145.5q-173 0 -327 -65.5t-264 -176.5t-174.5 -264t-64.5 -323q0 -238 152 -383.5t403 -145.5z" />
    <glyph glyph-name="Oacute" unicode="&#xd3;" horiz-adv-x="1708" 
d="M1026 1603l237 291h68l-248 -291h-57zM741 -21q-184 0 -323 75t-212.5 207t-73.5 302q0 178 67 341t184 284.5t285.5 194t360.5 72.5q278 0 444 -163.5t166 -422.5q0 -179 -67 -341.5t-183.5 -283.5t-285.5 -193t-362 -72zM748 38q174 0 328.5 65t264 175.5t173.5 264
t64 323.5q0 239 -152 384.5t-403 145.5q-173 0 -327 -65.5t-264 -176.5t-174.5 -264t-64.5 -323q0 -238 152 -383.5t403 -145.5z" />
    <glyph glyph-name="Ocircumflex" unicode="&#xd4;" horiz-adv-x="1708" 
d="M1129 1851l-267 -248h-67l305 291h63l193 -291h-55zM1029 1455q278 0 444 -163.5t166 -422.5q0 -179 -67 -341.5t-183.5 -283.5t-285.5 -193t-362 -72q-184 0 -323 75t-212.5 207t-73.5 302q0 178 67 341t184 284.5t285.5 194t360.5 72.5zM748 38q174 0 328.5 65
t264 175.5t173.5 264t64 323.5q0 239 -152 384.5t-403 145.5q-173 0 -327 -65.5t-264 -176.5t-174.5 -264t-64.5 -323q0 -238 152 -383.5t403 -145.5z" />
    <glyph glyph-name="Otilde" unicode="&#xd5;" horiz-adv-x="1708" 
d="M1253 1629q-49 0 -83.5 25t-74.5 85q-36 55 -63.5 76.5t-65.5 21.5q-65 0 -104.5 -48.5t-60.5 -146.5h-45q48 242 216 242q50 0 84.5 -25.5t73.5 -87.5q34 -54 61.5 -74.5t66.5 -20.5q121 0 160 191h46q-48 -238 -211 -238zM742 -21q-278 0 -444 163t-166 421
q0 178 67 341t184 284.5t285.5 194t360.5 72.5q278 0 444 -163.5t166 -422.5q0 -179 -66.5 -341.5t-183 -283.5t-285.5 -193t-362 -72zM748 38q174 0 328.5 65t264 175.5t173.5 264t64 323.5q0 239 -152 384.5t-403 145.5q-173 0 -327 -65.5t-264 -176.5t-174.5 -264
t-64.5 -323q0 -238 152 -383.5t403 -145.5z" />
    <glyph glyph-name="Odieresis" unicode="&#xd6;" horiz-adv-x="1708" 
d="M840 1684l22 109h94l-22 -109h-94zM1255 1684l22 109h93l-21 -109h-94zM741 -21q-184 0 -323 75t-212.5 207t-73.5 302q0 178 67 341t184 284.5t285.5 194t360.5 72.5q278 0 444 -163.5t166 -422.5q0 -179 -67 -341.5t-183.5 -283.5t-285.5 -193t-362 -72zM748 38
q174 0 328.5 65t264 175.5t173.5 264t64 323.5q0 239 -152 384.5t-403 145.5q-173 0 -327 -65.5t-264 -176.5t-174.5 -264t-64.5 -323q0 -238 152 -383.5t403 -145.5z" />
    <glyph glyph-name="multiply" unicode="&#xd7;" horiz-adv-x="1005" 
d="M980 1054l-409 -345l271 -345l-43 -36l-271 344l-407 -344l-36 44l408 345l-271 344l44 36l270 -344l406 344z" />
    <glyph glyph-name="Oslash" unicode="&#xd8;" horiz-adv-x="1710" 
d="M1431 1331q102 -77 157 -196t55 -265q0 -179 -67.5 -342t-185 -284t-285.5 -193t-359 -72q-190 0 -333 79l-147 -185h-69l170 213q-113 76 -174.5 199t-61.5 276q0 177 68 341t185.5 285.5t286 194.5t358.5 73q206 0 358 -94l162 200h67zM192 564q0 -139 56 -249
t159 -180l941 1176q-135 84 -323 84q-142 0 -272 -44t-231 -122.5t-176 -182.5t-114.5 -228t-39.5 -254zM749 38q179 0 336 68t265 181.5t170 264.5t62 315q0 131 -50 237t-141 177l-938 -1174q129 -69 296 -69z" />
    <glyph glyph-name="Ugrave" unicode="&#xd9;" horiz-adv-x="1472" 
d="M892 1603l-133 291h64l121 -291h-52zM625 -21q-200 0 -320.5 117.5t-120.5 308.5q0 17 0.5 30t3.5 36.5t6.5 44.5t12 66t17.5 89t25.5 124.5t32.5 161.5t42.5 212.5t53.5 264.5h61q-27 -135 -52.5 -265t-42.5 -212.5t-33 -162.5l-25 -125t-17 -88.5t-12 -65t-7 -43.5
t-3.5 -34t-0.5 -27q0 -170 103 -271.5t279 -101.5q227 0 380 136t198 357l181 903h61l-183 -911q-48 -244 -219 -394t-421 -150z" />
    <glyph glyph-name="Uacute" unicode="&#xda;" horiz-adv-x="1472" 
d="M874 1603l236 291h69l-248 -291h-57zM625 -21q-200 0 -320.5 117.5t-120.5 308.5q0 17 0.5 30t3.5 36.5t6.5 44.5t12 66t17.5 89t25.5 124.5t32.5 161.5t42.5 212.5t53.5 264.5h61q-27 -135 -52.5 -265t-42.5 -212.5t-33 -162.5l-25 -125t-17 -88.5t-12 -65t-7 -43.5
t-3.5 -34t-0.5 -27q0 -170 103 -271.5t279 -101.5q227 0 380 136t198 357l181 903h61l-183 -911q-48 -244 -219 -394t-421 -150z" />
    <glyph glyph-name="Ucircumflex" unicode="&#xdb;" horiz-adv-x="1472" 
d="M976 1851l-266 -248h-68l306 291h63l193 -291h-55zM1387 1434h61l-183 -911q-48 -244 -219 -394t-421 -150q-200 0 -320.5 117.5t-120.5 308.5q0 17 0.5 30t3.5 36.5t6.5 44.5t12 66t17.5 89t25.5 124.5t32.5 161.5t42.5 212.5t53.5 264.5h61q-27 -135 -52.5 -265
t-42.5 -212.5t-33 -162.5l-25 -125t-17 -88.5t-12 -65t-7 -43.5t-3.5 -34t-0.5 -27q0 -170 103 -271.5t279 -101.5q227 0 380 136t198 357z" />
    <glyph glyph-name="Udieresis" unicode="&#xdc;" horiz-adv-x="1472" 
d="M688 1684l22 109h93l-21 -109h-94zM1103 1684l21 109h94l-22 -109h-93zM625 -21q-200 0 -320.5 117.5t-120.5 308.5q0 17 0.5 30t3.5 36.5t6.5 44.5t12 66t17.5 89t25.5 124.5t32.5 161.5t42.5 212.5t53.5 264.5h61q-27 -135 -52.5 -265t-42.5 -212.5t-33 -162.5
l-25 -125t-17 -88.5t-12 -65t-7 -43.5t-3.5 -34t-0.5 -27q0 -170 103 -271.5t279 -101.5q227 0 380 136t198 357l181 903h61l-183 -911q-48 -244 -219 -394t-421 -150z" />
    <glyph glyph-name="Yacute" unicode="&#xdd;" horiz-adv-x="1302" 
d="M1105 1894l-248 -291h-58l237 291h69zM1412 1434l-728 -870l-112 -564h-62l112 565l-374 869h64l350 -810l678 810h72z" />
    <glyph glyph-name="Thorn" unicode="&#xde;" horiz-adv-x="1253" 
d="M819 1148q167 0 270.5 -97t103.5 -250q0 -141 -68 -258.5t-192 -187t-278 -69.5h-425l-57 -286h-60l286 1434h61l-57 -286h416zM657 343q205 0 340 134t135 323q0 130 -87.5 210t-231.5 80h-422l-149 -747h415z" />
    <glyph glyph-name="germandbls" unicode="&#xdf;" horiz-adv-x="1228" 
d="M905 777q92 -26 145 -103.5t53 -181.5q0 -149 -75 -263.5t-206 -175.5t-296 -61h-141l8 58h141q225 0 368 122t143 318q0 115 -73.5 186t-196.5 71h-223l11 57h215q90 0 172 58.5t130 149t48 181.5q0 121 -82.5 194.5t-226.5 73.5q-375 0 -467 -466l-198 -995h-60
l199 1003q104 515 532 515q166 0 262.5 -89.5t96.5 -232.5q0 -130 -81 -252t-198 -167z" />
    <glyph glyph-name="agrave" unicode="&#xe0;" horiz-adv-x="1437" 
d="M851 1243h-52l-111 311h64zM1296 1106h51l-222 -1106h-52l51 283q-93 -140 -241 -222t-326 -82q-209 0 -336 126.5t-127 327.5q0 137 52.5 263.5t142.5 221.5t218.5 152t272.5 57q175 0 293 -88.5t154 -237.5zM564 36q134 0 251.5 53t198 141t127 204t46.5 241
q0 178 -111.5 286.5t-297.5 108.5q-131 0 -248 -52.5t-198.5 -139.5t-129.5 -203t-48 -240q0 -177 112.5 -288t297.5 -111z" />
    <glyph glyph-name="aacute" unicode="&#xe1;" horiz-adv-x="1437" 
d="M1039 1554l-234 -311h-53l222 311h65zM1296 1106h51l-222 -1106h-52l51 283q-93 -140 -241 -222t-326 -82q-209 0 -336 126.5t-127 327.5q0 137 52.5 263.5t142.5 221.5t218.5 152t272.5 57q175 0 293 -88.5t154 -237.5zM564 36q134 0 251.5 53t198 141t127 204t46.5 241
q0 178 -111.5 286.5t-297.5 108.5q-131 0 -248 -52.5t-198.5 -139.5t-129.5 -203t-48 -240q0 -177 112.5 -288t297.5 -111z" />
    <glyph glyph-name="acircumflex" unicode="&#xe2;" horiz-adv-x="1437" 
d="M869 1508l-270 -265h-66l310 311h62l188 -311h-55zM1296 1106h51l-222 -1106h-52l51 283q-93 -140 -241 -222t-326 -82q-209 0 -336 126.5t-127 327.5q0 137 52.5 263.5t142.5 221.5t218.5 152t272.5 57q175 0 293 -88.5t154 -237.5zM564 36q134 0 251.5 53t198 141
t127 204t46.5 241q0 178 -111.5 286.5t-297.5 108.5q-131 0 -248 -52.5t-198.5 -139.5t-129.5 -203t-48 -240q0 -177 112.5 -288t297.5 -111z" />
    <glyph glyph-name="atilde" unicode="&#xe3;" horiz-adv-x="1437" 
d="M695 1477q-65 0 -104.5 -48t-59.5 -145h-45q50 241 214 241q50 0 83.5 -24.5t74.5 -87.5q35 -53 61.5 -73.5t65.5 -20.5q126 0 158 184h45q-20 -111 -72.5 -171.5t-135.5 -60.5q-51 0 -85.5 25t-73.5 85q-35 54 -62 75t-64 21zM1296 1106h51l-222 -1106h-52l51 283
q-93 -140 -241 -222t-326 -82q-209 0 -336 126.5t-127 327.5q0 137 52.5 263.5t142.5 221.5t218.5 152t272.5 57q175 0 293 -88.5t154 -237.5zM564 36q134 0 251.5 53t198 141t127 204t46.5 241q0 178 -111.5 286.5t-297.5 108.5q-131 0 -248 -52.5t-198.5 -139.5
t-129.5 -203t-48 -240q0 -177 112.5 -288t297.5 -111z" />
    <glyph glyph-name="adieresis" unicode="&#xe4;" horiz-adv-x="1437" 
d="M738 1464l-22 -109h-94l22 109h94zM1077 1464l-22 -109h-94l22 109h94zM1296 1106h51l-222 -1106h-52l51 283q-93 -140 -241 -222t-326 -82q-209 0 -336 126.5t-127 327.5q0 137 52.5 263.5t142.5 221.5t218.5 152t272.5 57q175 0 293 -88.5t154 -237.5zM564 36
q134 0 251.5 53t198 141t127 204t46.5 241q0 178 -111.5 286.5t-297.5 108.5q-131 0 -248 -52.5t-198.5 -139.5t-129.5 -203t-48 -240q0 -177 112.5 -288t297.5 -111z" />
    <glyph glyph-name="aring" unicode="&#xe5;" horiz-adv-x="1437" 
d="M816 1218q-78 0 -124 43t-46 113q0 103 66.5 169t171.5 66q78 0 124.5 -44t46.5 -116q0 -98 -67.5 -164.5t-171.5 -66.5zM881 1568q-85 0 -139 -53.5t-54 -137.5q0 -53 35.5 -85t95.5 -32q86 0 139.5 55t53.5 133q0 55 -35 87.5t-96 32.5zM1296 1106h51l-222 -1106h-52
l51 283q-93 -140 -241 -222t-326 -82q-209 0 -336 126.5t-127 327.5q0 137 52.5 263.5t142.5 221.5t218.5 152t272.5 57q175 0 293 -88.5t154 -237.5zM564 36q134 0 251.5 53t198 141t127 204t46.5 241q0 178 -111.5 286.5t-297.5 108.5q-131 0 -248 -52.5t-198.5 -139.5
t-129.5 -203t-48 -240q0 -177 112.5 -288t297.5 -111z" />
    <glyph glyph-name="ae" unicode="&#xe6;" horiz-adv-x="2363" 
d="M2267 536h-1038q-8 -45 -8 -104q0 -177 108.5 -286.5t289.5 -109.5q160 0 280 69t222 209h69q-115 -168 -252.5 -251.5t-320.5 -83.5q-167 0 -283 89t-153 238l-63 -306h-50l52 278q-93 -138 -240 -218.5t-324 -80.5q-208 0 -335 126t-127 326q0 183 88.5 342.5
t248 256.5t351.5 97q172 0 289 -85.5t155 -231.5l61 296h50l-54 -286q91 141 237 224t320 83q206 0 325 -123t119 -321q0 -78 -17 -147zM1837 1070q-218 0 -381 -136t-215 -342h979q7 51 7 85q0 177 -101.5 285t-288.5 108zM565 36q134 0 251.5 53t198 141t127 204t46.5 241
q0 178 -111.5 286.5t-297.5 108.5q-131 0 -248 -52.5t-199 -139.5t-130 -203t-48 -240q0 -177 113 -288t298 -111z" />
    <glyph glyph-name="ccedilla" unicode="&#xe7;" horiz-adv-x="1261" 
d="M781 1070q-133 0 -251 -52.5t-199.5 -140t-129 -203t-47.5 -238.5q0 -176 113 -288t297 -112q169 0 299.5 75.5t216.5 215.5h64q-87 -160 -233 -252t-333 -96l-49 -101q80 -4 127 -46t47 -103q0 -91 -70 -150t-185 -59h-133l7 44h127q92 0 148 47.5t56 114.5
q0 51 -40 81.5t-110 30.5h-31l-6 9l63 132q-196 10 -315.5 137t-119.5 319q0 183 89 341.5t248.5 254.5t352.5 96q178 0 296 -93.5t148 -251.5h-59q-32 135 -134.5 211.5t-253.5 76.5z" />
    <glyph glyph-name="egrave" unicode="&#xe8;" horiz-adv-x="1294" 
d="M825 1243h-53l-111 311h64zM1198 536h-1038q-8 -45 -8 -104q0 -177 108.5 -286.5t289.5 -109.5q312 0 502 278h69q-215 -335 -572 -335q-205 0 -330 127t-125 327q0 136 51.5 262.5t140 221.5t215.5 152.5t269 57.5q206 0 325.5 -124t119.5 -323q0 -70 -17 -144z
M768 1070q-218 0 -381 -136t-215 -342h979q7 51 7 85q0 177 -101.5 285t-288.5 108z" />
    <glyph glyph-name="eacute" unicode="&#xe9;" horiz-adv-x="1294" 
d="M1012 1554l-233 -311h-54l222 311h65zM1198 536h-1038q-8 -45 -8 -104q0 -177 108.5 -286.5t289.5 -109.5q312 0 502 278h69q-215 -335 -572 -335q-205 0 -330 127t-125 327q0 136 51.5 262.5t140 221.5t215.5 152.5t269 57.5q206 0 325.5 -124t119.5 -323
q0 -70 -17 -144zM768 1070q-218 0 -381 -136t-215 -342h979q7 51 7 85q0 177 -101.5 285t-288.5 108z" />
    <glyph glyph-name="ecircumflex" unicode="&#xea;" horiz-adv-x="1294" 
d="M843 1508l-271 -265h-66l310 311h62l189 -311h-56zM1198 536h-1038q-8 -45 -8 -105q0 -177 108.5 -286t289.5 -109q312 0 502 278h69q-215 -335 -572 -335q-205 0 -330 127t-125 327q0 136 51.5 262.5t140 221.5t215.5 152.5t269 57.5q206 0 325.5 -124t119.5 -323
q0 -70 -17 -144zM768 1070q-218 0 -381 -136t-215 -342h979q7 51 7 85q0 177 -101.5 285t-288.5 108z" />
    <glyph glyph-name="edieresis" unicode="&#xeb;" horiz-adv-x="1294" 
d="M711 1464l-22 -109h-94l22 109h94zM1050 1464l-22 -109h-94l22 109h94zM1198 536h-1038q-8 -45 -8 -104q0 -177 108.5 -286.5t289.5 -109.5q312 0 502 278h69q-215 -335 -572 -335q-205 0 -330 127t-125 327q0 136 51.5 262.5t140 221.5t215.5 152.5t269 57.5
q206 0 325.5 -124t119.5 -323q0 -70 -17 -144zM768 1070q-218 0 -381 -136t-215 -342h979q7 51 7 85q0 177 -101.5 285t-288.5 108z" />
    <glyph glyph-name="igrave" unicode="&#xec;" horiz-adv-x="466" 
d="M403 1243h-54l-68 311h64zM94 0l221 1106h60l-221 -1106h-60z" />
    <glyph glyph-name="iacute" unicode="&#xed;" horiz-adv-x="466" 
d="M340 1243l180 311h65l-191 -311h-54zM94 0l221 1106h60l-221 -1106h-60z" />
    <glyph glyph-name="icircumflex" unicode="&#xee;" horiz-adv-x="466" 
d="M618 1243h-52l-144 264l-243 -264h-62l283 311h57zM94 0l221 1106h60l-221 -1106h-60z" />
    <glyph glyph-name="idieresis" unicode="&#xef;" horiz-adv-x="466" 
d="M198 1355l22 109h91l-22 -109h-91zM502 1355l22 109h92l-22 -109h-92zM94 0l221 1106h60l-221 -1106h-60z" />
    <glyph glyph-name="eth" unicode="&#xf0;" horiz-adv-x="1320" 
d="M926 1453q143 -100 217.5 -264t74.5 -375q0 -164 -29 -298q-49 -237 -223.5 -387t-423.5 -150q-204 0 -329 120.5t-125 309.5q0 126 49.5 242.5t134.5 203.5t207 139t259 52q154 0 267.5 -75.5t155.5 -203.5q1 19 1 57q0 199 -72 350.5t-210 243.5l-336 -252l-29 37
l322 241q-169 94 -406 95l9 51q262 -1 445 -110l196 146l28 -36zM544 35q167 0 304.5 82.5t213.5 215.5t76 284q0 164 -110 270t-288 106q-126 0 -237.5 -48t-188.5 -127.5t-122 -186t-45 -221.5q0 -166 108.5 -270.5t288.5 -104.5z" />
    <glyph glyph-name="ntilde" unicode="&#xf1;" horiz-adv-x="1312" 
d="M680 1477q-65 0 -104.5 -48t-59.5 -145h-45q50 241 215 241q50 0 83.5 -24.5t74.5 -87.5q35 -53 61.5 -73.5t65.5 -20.5q125 0 157 184h45q-20 -112 -72 -172t-135 -60q-51 0 -85.5 25t-73.5 85q-35 54 -62 75t-65 21zM810 1127q169 0 262 -92.5t93 -256.5
q0 -21 -1 -37.5t-5.5 -47t-9.5 -58t-17.5 -91.5t-25 -125t-36.5 -180.5t-48 -238.5h-60q21 107 43 215.5t34.5 169t25 122.5t18 93t11 61.5t7.5 47t3 31t1 31.5q0 143 -80.5 221.5t-228.5 78.5q-187 0 -333 -126t-181 -305l-128 -640h-60l221 1106h48l-40 -252
q78 125 207 199t280 74z" />
    <glyph glyph-name="ograve" unicode="&#xf2;" horiz-adv-x="1357" 
d="M850 1243h-52l-111 311h64zM568 -21q-213 0 -343.5 127t-130.5 329q0 141 54 269t147 221t222.5 147.5t273.5 54.5q214 0 344 -127t130 -329q0 -141 -54 -269t-147 -221t-222.5 -147.5t-273.5 -54.5zM573 36q132 0 250 51t201.5 136.5t132 202.5t48.5 244
q0 179 -114.5 289.5t-304.5 110.5q-176 0 -321.5 -86t-228 -231.5t-82.5 -316.5q0 -179 114.5 -289.5t304.5 -110.5z" />
    <glyph glyph-name="oacute" unicode="&#xf3;" horiz-adv-x="1357" 
d="M750 1243l223 311h65l-234 -311h-54zM568 -21q-213 0 -343.5 127t-130.5 329q0 141 54 269t147 221t222.5 147.5t273.5 54.5q214 0 344 -127t130 -329q0 -141 -54 -269t-147 -221t-222.5 -147.5t-273.5 -54.5zM573 36q132 0 250 51t201.5 136.5t132 202.5t48.5 244
q0 179 -114.5 289.5t-304.5 110.5q-176 0 -321.5 -86t-228 -231.5t-82.5 -316.5q0 -179 114.5 -289.5t304.5 -110.5z" />
    <glyph glyph-name="ocircumflex" unicode="&#xf4;" horiz-adv-x="1357" 
d="M1092 1243h-55l-169 265l-270 -265h-66l310 311h62zM568 -21q-213 0 -343.5 127t-130.5 329q0 141 54 269t147 221t222.5 147.5t273.5 54.5q214 0 344 -127t130 -329q0 -141 -54 -269t-147 -221t-222.5 -147.5t-273.5 -54.5zM573 36q132 0 250 51t201.5 136.5t132 202.5
t48.5 244q0 179 -114.5 289.5t-304.5 110.5q-176 0 -321.5 -86t-228 -231.5t-82.5 -316.5q0 -179 114.5 -289.5t304.5 -110.5z" />
    <glyph glyph-name="otilde" unicode="&#xf5;" horiz-adv-x="1357" 
d="M979 1271q-51 0 -85.5 25t-73.5 85q-35 54 -62 75t-64 21q-125 0 -165 -193h-45q50 241 215 241q50 0 83.5 -24.5t74.5 -87.5q35 -53 61.5 -73.5t65.5 -20.5q126 0 158 184h45q-20 -111 -72.5 -171.5t-135.5 -60.5zM568 -21q-213 0 -343.5 127t-130.5 329q0 141 54 269
t147 221t222.5 147.5t273.5 54.5q214 0 344 -127t130 -329q0 -141 -54 -269t-147 -221t-222.5 -147.5t-273.5 -54.5zM573 36q132 0 250 51t201.5 136.5t132 202.5t48.5 244q0 179 -114.5 289.5t-304.5 110.5q-176 0 -321.5 -86t-228 -231.5t-82.5 -316.5
q0 -179 114.5 -289.5t304.5 -110.5z" />
    <glyph glyph-name="odieresis" unicode="&#xf6;" horiz-adv-x="1357" 
d="M621 1355l22 109h94l-22 -109h-94zM960 1355l22 109h94l-22 -109h-94zM568 -21q-213 0 -343.5 127t-130.5 329q0 141 54 269t147 221t222.5 147.5t273.5 54.5q214 0 344 -127t130 -329q0 -141 -54 -269t-147 -221t-222.5 -147.5t-273.5 -54.5zM573 36q132 0 250 51
t201.5 136.5t132 202.5t48.5 244q0 179 -114.5 289.5t-304.5 110.5q-176 0 -321.5 -86t-228 -231.5t-82.5 -316.5q0 -179 114.5 -289.5t304.5 -110.5z" />
    <glyph glyph-name="divide" unicode="&#xf7;" horiz-adv-x="1284" 
d="M726 994q-18 0 -29.5 11t-11.5 29q0 25 19.5 44t43.5 19q19 0 30 -11.5t11 -29.5q0 -26 -19 -44t-44 -18zM174 686l11 55h983l-11 -55h-983zM593 328q-19 0 -30 12t-11 30q0 25 19 43t44 18q19 0 30 -11.5t11 -28.5q0 -25 -19.5 -44t-43.5 -19z" />
    <glyph glyph-name="oslash" unicode="&#xf8;" horiz-adv-x="1357" 
d="M1065 1056q97 -59 150 -159t53 -226q0 -138 -55.5 -265.5t-148.5 -221t-222.5 -149.5t-270.5 -56q-151 0 -263 66l-127 -170h-63l147 196q-85 62 -128 157t-43 208q0 137 56 264.5t149.5 221t223 149.5t269.5 56q126 0 228 -48l112 152h63zM152 437q0 -209 149 -318
l686 914q-92 38 -201 38q-173 0 -320 -89t-230.5 -234.5t-83.5 -310.5zM577 35q130 0 248 52.5t202 139t133.5 202.5t49.5 238q0 112 -47.5 201t-133.5 140l-686 -916q101 -57 234 -57z" />
    <glyph glyph-name="ugrave" unicode="&#xf9;" horiz-adv-x="1290" 
d="M818 1243h-53l-110 311h63zM536 -21q-181 0 -282.5 97t-102.5 266q0 59 75 428q40 199 67 336h60q-20 -99 -39.5 -197t-31.5 -157.5l-24 -119t-18.5 -92t-12.5 -65t-8.5 -47.5t-4.5 -32t-2.5 -26.5t-0.5 -21.5q0 -148 86.5 -230t242.5 -82q202 0 328 115t168 321l127 634
h59l-129 -644q-45 -227 -187.5 -355t-369.5 -128z" />
    <glyph glyph-name="uacute" unicode="&#xfa;" horiz-adv-x="1290" 
d="M718 1243l222 311h65l-233 -311h-54zM536 -21q-181 0 -282.5 97t-102.5 266q0 59 75 428q40 199 67 336h60q-20 -99 -39.5 -197t-31.5 -157.5l-24 -119t-18.5 -92t-12.5 -65t-8.5 -47.5t-4.5 -32t-2.5 -26.5t-0.5 -21.5q0 -148 86.5 -230t242.5 -82q202 0 328 115
t168 321l127 634h59l-129 -644q-45 -227 -187.5 -355t-369.5 -128z" />
    <glyph glyph-name="ucircumflex" unicode="&#xfb;" horiz-adv-x="1290" 
d="M1060 1243h-56l-168 265l-271 -265h-65l309 311h62zM536 -21q-181 0 -282.5 97t-102.5 266q0 59 75 428q40 199 67 336h60q-20 -99 -39.5 -197t-31.5 -157.5l-24 -119t-18.5 -92t-12.5 -65t-8.5 -47.5t-4.5 -32t-2.5 -26.5t-0.5 -21.5q0 -148 86.5 -230t242.5 -82
q202 0 328 115t168 321l127 634h59l-129 -644q-45 -227 -187.5 -355t-369.5 -128z" />
    <glyph glyph-name="udieresis" unicode="&#xfc;" horiz-adv-x="1290" 
d="M588 1355l22 109h94l-22 -109h-94zM927 1355l22 109h94l-22 -109h-94zM536 -21q-181 0 -282.5 97t-102.5 266q0 59 75 428q40 199 67 336h60q-20 -99 -39.5 -197t-31.5 -157.5l-24 -119t-18.5 -92t-12.5 -65t-8.5 -47.5t-4.5 -32t-2.5 -26.5t-0.5 -21.5q0 -148 86.5 -230
t242.5 -82q202 0 328 115t168 321l127 634h59l-129 -644q-45 -227 -187.5 -355t-369.5 -128z" />
    <glyph glyph-name="yacute" unicode="&#xfd;" horiz-adv-x="1165" 
d="M949 1554l-233 -311h-54l222 311h65zM1157 1106h69l-807 -1208q-115 -171 -203 -229.5t-230 -58.5h-87l11 55h76q90 0 150 24t109.5 75t120.5 156l97 144l-307 1042h64l287 -977z" />
    <glyph glyph-name="thorn" unicode="&#xfe;" horiz-adv-x="1435" 
d="M883 1127q211 0 336 -125.5t125 -325.5q0 -186 -87 -345t-245 -255.5t-351 -96.5q-171 0 -289.5 87t-157.5 235l-139 -691h-59l377 1885h60l-135 -672q94 139 241.5 221.5t323.5 82.5zM660 36q134 0 251.5 53t198.5 141t127.5 204t46.5 241q0 177 -111 286t-297 109
q-131 0 -248 -52.5t-199 -139.5t-129.5 -203t-47.5 -241q0 -176 112 -287t296 -111z" />
    <glyph glyph-name="ydieresis" unicode="&#xff;" horiz-adv-x="1165" 
d="M648 1464l-22 -109h-94l22 109h94zM987 1464l-22 -109h-94l23 109h93zM1157 1106h69l-807 -1208q-115 -171 -203 -229.5t-230 -58.5h-87l11 55h76q90 0 150 24t109.5 75t120.5 156l97 144l-307 1042h64l287 -977z" />
    <glyph glyph-name="Amacron" unicode="&#x100;" horiz-adv-x="1390" 
d="M1231 1764l-12 -55h-641l12 55h641zM1170 0l-99 419h-794l-263 -419h-68l896 1434h51l340 -1434h-63zM852 1345l-541 -870h747z" />
    <glyph glyph-name="amacron" unicode="&#x101;" horiz-adv-x="1437" 
d="M1181 1438l-11 -51h-641l11 51h641zM1296 1106h51l-222 -1106h-52l51 283q-93 -140 -241 -222t-326 -82q-209 0 -336 126.5t-127 327.5q0 137 52.5 263.5t142.5 221.5t218.5 152t272.5 57q175 0 293 -88.5t154 -237.5zM564 36q134 0 251.5 53t198 141t127 204t46.5 241
q0 178 -111.5 286.5t-297.5 108.5q-131 0 -248 -52.5t-198.5 -139.5t-129.5 -203t-48 -240q0 -177 112.5 -288t297.5 -111z" />
    <glyph glyph-name="Abreve" unicode="&#x102;" horiz-adv-x="1390" 
d="M880 1588q-111 0 -175.5 60t-64.5 168q0 46 7 78h51q-7 -30 -7 -73q0 -91 49.5 -139t142.5 -48q114 0 192 68t103 192h51q-28 -146 -122 -226t-227 -80zM1170 0l-99 419h-794l-263 -419h-68l896 1434h51l340 -1434h-63zM852 1345l-541 -870h747z" />
    <glyph glyph-name="abreve" unicode="&#x103;" horiz-adv-x="1437" 
d="M818 1231q-110 0 -175 64t-65 175q0 36 10 84h50q-9 -44 -9 -79q0 -94 50 -146t142 -52q247 0 301 277h52q-31 -157 -121.5 -240t-234.5 -83zM1296 1106h51l-222 -1106h-52l51 283q-93 -140 -241 -222t-326 -82q-209 0 -336 126.5t-127 327.5q0 137 52.5 263.5
t142.5 221.5t218.5 152t272.5 57q175 0 293 -88.5t154 -237.5zM564 36q134 0 251.5 53t198 141t127 204t46.5 241q0 178 -111.5 286.5t-297.5 108.5q-131 0 -248 -52.5t-198.5 -139.5t-129.5 -203t-48 -240q0 -177 112.5 -288t297.5 -111z" />
    <glyph glyph-name="Aogonek" unicode="&#x104;" horiz-adv-x="1390" 
d="M955 -308q0 -49 34 -77t93 -28q61 0 114 16l-10 -47q-52 -17 -121 -17q-75 0 -119.5 38t-44.5 101q0 82 74 172t194 158l-98 411h-794l-263 -419h-68l896 1434h51l340 -1434q-121 -64 -199.5 -150t-78.5 -158zM854 1345l-541 -868h745z" />
    <glyph glyph-name="aogonek" unicode="&#x105;" horiz-adv-x="1437" 
d="M1125 0q-126 -69 -199.5 -154t-73.5 -157q0 -48 33 -75t92 -27q64 0 117 16l-10 -47q-52 -17 -121 -17q-75 0 -120 38.5t-45 100.5q0 86 76.5 177t202.5 166l47 262q-93 -140 -241 -222t-326 -82q-209 0 -336 126.5t-127 327.5q0 137 52.5 263.5t142.5 221.5t218.5 152
t272.5 57q175 0 293 -88.5t154 -237.5l69 305h51zM564 36q134 0 251.5 53t198 141t127 204t46.5 241q0 178 -111.5 286.5t-297.5 108.5q-131 0 -248 -52.5t-198.5 -139.5t-129.5 -203t-48 -240q0 -177 112.5 -288t297.5 -111z" />
    <glyph glyph-name="Cacute" unicode="&#x106;" horiz-adv-x="1591" 
d="M1006 1603l236 291h69l-248 -291h-57zM733 -21q-276 0 -438.5 157t-162.5 414q0 182 67 347.5t183 288.5t283.5 195.5t358.5 72.5q229 0 382 -120t183 -329h-60q-33 184 -167 287t-341 103q-143 0 -273 -44t-230 -123t-173.5 -184t-112 -231t-38.5 -259
q0 -234 145.5 -375t396.5 -141q231 0 407 108t289 308h65q-119 -228 -313.5 -351.5t-450.5 -123.5z" />
    <glyph glyph-name="cacute" unicode="&#x107;" horiz-adv-x="1261" 
d="M738 1243l223 311h65l-234 -311h-54zM561 -21q-209 0 -338 128t-129 328q0 183 89 341.5t248.5 254.5t352.5 96q178 0 296 -93.5t148 -251.5h-59q-32 135 -134.5 211.5t-253.5 76.5q-133 0 -251 -52.5t-199.5 -140t-129 -203t-47.5 -238.5q0 -176 113 -288t297 -112
q169 0 299.5 75.5t216.5 215.5h64q-90 -164 -240 -256t-343 -92z" />
    <glyph glyph-name="Ccircumflex" unicode="&#x108;" horiz-adv-x="1591" 
d="M1109 1851l-267 -248h-68l306 291h63l193 -291h-55zM1021 1395q-143 0 -273 -44t-230 -123t-173.5 -184t-112 -231t-38.5 -259q0 -234 145.5 -375t396.5 -141q231 0 407 108t289 308h65q-119 -228 -313.5 -351.5t-450.5 -123.5q-276 0 -438.5 157t-162.5 414
q0 182 67 348t183 288.5t283.5 195.5t358.5 73q228 0 381.5 -120.5t183.5 -329.5h-60q-33 184 -167 287t-341 103z" />
    <glyph glyph-name="ccircumflex" unicode="&#x109;" horiz-adv-x="1261" 
d="M856 1508l-271 -265h-65l310 311h61l189 -311h-55zM781 1070q-133 0 -251 -52.5t-199.5 -140t-129 -203t-47.5 -238.5q0 -176 113 -288t297 -112q169 0 299.5 75.5t216.5 215.5h64q-90 -164 -240 -256t-343 -92q-209 0 -338 128t-129 328q0 183 89 341.5t248.5 254.5
t352.5 96q178 0 296 -93.5t148 -251.5h-59q-32 135 -134.5 211.5t-253.5 76.5z" />
    <glyph glyph-name="Cdotaccent" unicode="&#x10a;" horiz-adv-x="1591" 
d="M1027 1684l21 109h94l-22 -109h-93zM733 -21q-276 0 -438.5 157t-162.5 414q0 182 67 347.5t183 288.5t283.5 195.5t358.5 72.5q229 0 382 -120t183 -329h-60q-33 184 -167 287t-341 103q-143 0 -273 -44t-230 -123t-173.5 -184t-112 -231t-38.5 -259q0 -234 145.5 -375
t396.5 -141q231 0 407 108t289 308h65q-119 -228 -313.5 -351.5t-450.5 -123.5z" />
    <glyph glyph-name="cdotaccent" unicode="&#x10b;" horiz-adv-x="1261" 
d="M779 1355l22 109h91l-22 -109h-91zM561 -21q-209 0 -338 128t-129 328q0 183 89 341.5t248.5 254.5t352.5 96q178 0 296 -93.5t148 -251.5h-59q-32 135 -134.5 211.5t-253.5 76.5q-133 0 -251 -52.5t-199.5 -140t-129 -203t-47.5 -238.5q0 -176 113 -288t297 -112
q169 0 299.5 75.5t216.5 215.5h64q-90 -164 -240 -256t-343 -92z" />
    <glyph glyph-name="Ccaron" unicode="&#x10c;" horiz-adv-x="1591" 
d="M1087 1603h-64l-191 291h56l171 -248l264 248h66zM1021 1395q-143 0 -273 -44t-230 -123t-173.5 -184t-112 -231t-38.5 -259q0 -234 145.5 -375t396.5 -141q231 0 407 108t289 308h65q-119 -228 -313.5 -351.5t-450.5 -123.5q-276 0 -438.5 157t-162.5 414q0 182 67 348
t183 288.5t283.5 195.5t358.5 73q228 0 381.5 -120.5t183.5 -329.5h-60q-33 184 -167 287t-341 103z" />
    <glyph glyph-name="ccaron" unicode="&#x10d;" horiz-adv-x="1261" 
d="M830 1243h-60l-187 311h58l164 -265l269 265h66zM781 1070q-133 0 -251 -52.5t-199.5 -140t-129 -203t-47.5 -238.5q0 -176 113 -288t297 -112q169 0 299.5 75.5t216.5 215.5h64q-90 -164 -240 -256t-343 -92q-209 0 -338 128t-129 328q0 183 89 341.5t248.5 254.5
t352.5 96q178 0 296 -93.5t148 -251.5h-59q-32 135 -134.5 211.5t-253.5 76.5z" />
    <glyph glyph-name="Dcaron" unicode="&#x10e;" horiz-adv-x="1482" 
d="M849 1603h-63l-191 291h55l171 -248l265 248h65zM815 1434q273 0 438 -156t165 -407q0 -175 -67.5 -334.5t-183.5 -278t-281 -188.5t-351 -70h-422l286 1434h416zM537 57q174 0 328 66.5t261 177.5t169 260t62 310q0 228 -148 367t-397 139h-363l-264 -1320h352z" />
    <glyph glyph-name="dcaron" unicode="&#x10f;" horiz-adv-x="1437" 
d="M1225 812l137 684h59l-299 -1496h-50l47 277q-93 -137 -240.5 -217.5t-324.5 -80.5q-209 0 -335 125.5t-126 325.5q0 137 52.5 264.5t143 223t219.5 152.5t273 57q173 0 289.5 -84.5t154.5 -230.5zM1571 1496h97l-18 -88q-9 -48 -41 -86.5t-81 -54.5l11 51q51 23 64 82
h-52zM564 37q134 0 251.5 52t198 139t127 202.5t46.5 240.5q0 179 -111.5 289t-297.5 110q-174 0 -319 -88.5t-225.5 -233.5t-80.5 -312q0 -177 113 -288t298 -111z" />
    <glyph glyph-name="Dcroat" unicode="&#x110;" horiz-adv-x="1572" 
d="M905 1434q273 0 437.5 -156t164.5 -407q0 -175 -67.5 -334.5t-183 -278t-280.5 -188.5t-351 -70h-423l140 697h-300l10 53h300l137 684h416zM626 57q174 0 328 66.5t261 177.5t169 260t62 310q0 228 -147.5 367t-396.5 139h-363l-126 -627h437l-10 -53h-437l-128 -640
h351z" />
    <glyph glyph-name="dcroat" unicode="&#x111;" horiz-adv-x="1435" 
d="M1558 1302l-10 -52h-176l-250 -1250h-50l46 273q-93 -136 -239 -215t-322 -79q-209 0 -336 126.5t-127 327.5q0 137 52.5 263.5t142.5 221.5t218.5 152t272.5 57q173 0 289.5 -85t154.5 -232l89 440h-455l9 52h456l39 194h59l-38 -194h175zM564 37q133 0 250.5 52.5
t198.5 140t127.5 203t46.5 240.5q0 179 -111 287.5t-298 108.5q-174 0 -319 -89t-225.5 -234t-80.5 -311q0 -176 113 -287t298 -111z" />
    <glyph glyph-name="Emacron" unicode="&#x112;" horiz-adv-x="1105" 
d="M1162 1764l-12 -55h-641l12 55h641zM1157 1375l-708 1l-120 -598h655l-11 -57h-655l-133 -662h730l-11 -59h-791l286 1434h769z" />
    <glyph glyph-name="emacron" unicode="&#x113;" horiz-adv-x="1294" 
d="M1154 1438l-11 -51h-641l11 51h641zM1198 536h-1038q-8 -45 -8 -104q0 -177 108.5 -286.5t289.5 -109.5q312 0 502 278h69q-215 -335 -572 -335q-205 0 -330 127t-125 327q0 136 51.5 262.5t140 221.5t215.5 152.5t269 57.5q206 0 325.5 -124t119.5 -323q0 -70 -17 -144z
M768 1070q-218 0 -381 -136t-215 -342h979q7 51 7 85q0 177 -101.5 285t-288.5 108z" />
    <glyph glyph-name="Ebreve" unicode="&#x114;" horiz-adv-x="1105" 
d="M810 1588q-111 0 -175.5 60t-64.5 168q0 42 8 78h51q-7 -30 -7 -73q0 -91 49 -139t142 -48q114 0 192 68t103 192h52q-28 -145 -122 -225.5t-228 -80.5zM1157 1375l-708 1l-120 -598h655l-11 -57h-655l-133 -662h730l-11 -59h-791l286 1434h769z" />
    <glyph glyph-name="ebreve" unicode="&#x115;" horiz-adv-x="1294" 
d="M791 1231q-110 0 -175 64t-65 175q0 36 10 84h51q-10 -48 -10 -79q0 -94 50 -145.5t142 -51.5q247 0 301 276h52q-31 -157 -121.5 -240t-234.5 -83zM1198 536h-1038q-8 -45 -8 -104q0 -177 108.5 -286.5t289.5 -109.5q312 0 502 278h69q-215 -335 -572 -335
q-205 0 -330 127t-125 327q0 136 51.5 262.5t140 221.5t215.5 152.5t269 57.5q206 0 325.5 -124t119.5 -323q0 -70 -17 -144zM768 1071q-218 0 -381 -136.5t-215 -342.5h979q7 51 7 85q0 177 -101.5 285.5t-288.5 108.5z" />
    <glyph glyph-name="Edotaccent" unicode="&#x116;" horiz-adv-x="1105" 
d="M894 1793l-21 -109h-94l22 109h93zM1157 1376h-708l-120 -598h655l-11 -57h-655l-133 -662h730l-11 -59h-791l286 1434h769z" />
    <glyph glyph-name="edotaccent" unicode="&#x117;" horiz-adv-x="1294" 
d="M879 1464l-22 -109h-91l22 109h91zM1198 536h-1038q-8 -45 -8 -104q0 -177 108.5 -286.5t289.5 -109.5q312 0 502 278h69q-215 -335 -572 -335q-205 0 -330 127t-125 327q0 136 51.5 262.5t140 221.5t215.5 152.5t269 57.5q206 0 325.5 -124t119.5 -323q0 -70 -17 -144z
M768 1070q-218 0 -381 -136t-215 -342h979q7 51 7 85q0 177 -101.5 285t-288.5 108z" />
    <glyph glyph-name="Eogonek" unicode="&#x118;" horiz-adv-x="1105" 
d="M1157 1375h-708l-120 -597h655l-11 -57h-655l-133 -662h730l-11 -59q-122 -66 -197.5 -151t-75.5 -157q0 -49 34 -77t93 -28q67 0 113 14l-9 -45q-52 -17 -122 -17q-75 0 -119 38t-44 101q0 81 69.5 169t182.5 153h-716l286 1434h769z" />
    <glyph glyph-name="eogonek" unicode="&#x119;" horiz-adv-x="1292" 
d="M1197 536h-1038q-9 -51 -9 -104q0 -177 109 -286.5t290 -109.5q146 0 277.5 74t228.5 204h66q-153 -219 -391 -311q-106 -41 -190 -133.5t-84 -177.5q0 -49 34 -77t93 -28q70 0 117 18l-8 -47q-53 -19 -122 -19q-75 0 -121 40t-46 104q0 76 57.5 158t142.5 140
q-18 -2 -57 -2q-204 0 -329 126t-125 326q0 135 55 263t146 223t216.5 152.5t259.5 57.5q203 0 324 -122.5t121 -321.5q0 -78 -17 -147zM766 1070q-137 0 -261.5 -65t-210.5 -173.5t-122 -239.5h977q8 50 8 88q0 178 -105.5 284t-285.5 106z" />
    <glyph glyph-name="Ecaron" unicode="&#x11a;" horiz-adv-x="1105" 
d="M839 1603h-63l-191 291h56l170 -248l265 248h65zM1157 1375l-708 1l-120 -598h655l-11 -57h-655l-133 -662h730l-11 -59h-791l286 1434h769z" />
    <glyph glyph-name="ecaron" unicode="&#x11b;" horiz-adv-x="1294" 
d="M817 1243h-61l-186 311h58l164 -265l269 265h66zM1198 536h-1038q-8 -45 -8 -104q0 -177 108.5 -286.5t289.5 -109.5q312 0 502 278h69q-215 -335 -572 -335q-205 0 -330 127t-125 327q0 136 51.5 262.5t140 221.5t215.5 152.5t269 57.5q206 0 325.5 -124t119.5 -323
q0 -70 -17 -144zM768 1070q-218 0 -381 -136t-215 -342h979q7 51 7 85q0 177 -101.5 285t-288.5 108z" />
    <glyph glyph-name="Gcircumflex" unicode="&#x11c;" horiz-adv-x="1634" 
d="M1111 1851l-267 -248h-67l305 291h64l192 -291h-55zM775 612l11 58h770q-73 -314 -293.5 -501t-543.5 -187q-270 0 -428 157.5t-158 413.5q0 180 66 344.5t180.5 286.5t278 194.5t348.5 72.5q250 0 412.5 -141.5t166.5 -361.5h-61q-7 196 -151.5 320t-368.5 124
q-173 0 -325.5 -68.5t-258 -184t-166 -269t-60.5 -320.5q0 -233 141.5 -371t385.5 -138q285 0 482 155t273 416h-701z" />
    <glyph glyph-name="gcircumflex" unicode="&#x11d;" horiz-adv-x="1382" 
d="M847 1508l-271 -265h-65l310 311h61l189 -311h-55zM1246 1106h46l-189 -945q-54 -270 -220 -421.5t-414 -151.5q-182 0 -291.5 88t-131.5 248h60q22 -136 117.5 -208t250.5 -72q221 0 371 137.5t199 381.5l31 154q-89 -128 -227 -202.5t-304 -74.5q-199 0 -321.5 120.5
t-122.5 310.5q0 128 50 248t136 210t208.5 144t259.5 54q163 0 275 -83.5t149 -225.5zM552 97q168 0 304.5 85.5t210 222t73.5 291.5q0 166 -106.5 270t-279.5 104q-167 0 -305 -85t-213.5 -221.5t-75.5 -290.5q0 -167 108 -271.5t284 -104.5z" />
    <glyph glyph-name="Gbreve" unicode="&#x11e;" horiz-adv-x="1634" 
d="M1060 1588q-111 0 -175.5 60t-64.5 168q0 42 8 78h51q-8 -35 -8 -73q0 -91 49.5 -139t142.5 -48q114 0 192 68t103 192h52q-28 -145 -122 -225.5t-228 -80.5zM775 612l11 58h770q-73 -314 -293.5 -501t-543.5 -187q-270 0 -428 157.5t-158 413.5q0 180 66 344.5
t180.5 286.5t278 194.5t348.5 72.5q250 0 412.5 -141.5t166.5 -361.5h-61q-7 196 -151.5 320t-368.5 124q-173 0 -325.5 -68.5t-258 -184t-166 -269t-60.5 -320.5q0 -233 141.5 -371t385.5 -138q285 0 482 155t273 416h-701z" />
    <glyph glyph-name="gbreve" unicode="&#x11f;" horiz-adv-x="1382" 
d="M795 1231q-110 0 -174.5 63.5t-64.5 175.5q0 40 9 84h51q-9 -44 -9 -79q0 -94 50 -146t142 -52q247 0 301 277h51q-31 -157 -121.5 -240t-234.5 -83zM1246 1106h46l-189 -945q-54 -270 -220 -421.5t-414 -151.5q-182 0 -291.5 88t-131.5 248h60q22 -136 117.5 -208
t250.5 -72q221 0 371 137.5t199 381.5l31 154q-89 -128 -227 -202.5t-304 -74.5q-199 0 -321.5 120.5t-122.5 310.5q0 128 50 248t136 210t208.5 144t259.5 54q163 0 275 -83.5t149 -225.5zM552 97q168 0 304.5 85.5t210 222t73.5 291.5q0 166 -106.5 270t-279.5 104
q-167 0 -305 -85t-213.5 -221.5t-75.5 -290.5q0 -167 108 -271.5t284 -104.5z" />
    <glyph glyph-name="Gdotaccent" unicode="&#x120;" horiz-adv-x="1634" 
d="M1144 1793l-21 -109h-94l22 109h93zM775 612l11 58h770q-73 -314 -293.5 -501t-543.5 -187q-270 0 -428 157.5t-158 413.5q0 180 66 344.5t180.5 286.5t278 194.5t348.5 72.5q250 0 412.5 -141.5t166.5 -361.5h-61q-7 196 -151.5 320t-368.5 124q-173 0 -325.5 -68.5
t-258 -184t-166 -269t-60.5 -320.5q0 -233 141.5 -371t385.5 -138q285 0 482 155t273 416h-701z" />
    <glyph glyph-name="gdotaccent" unicode="&#x121;" horiz-adv-x="1382" 
d="M883 1464l-22 -109h-91l22 109h91zM1246 1106h46l-189 -945q-54 -270 -220 -421.5t-414 -151.5q-182 0 -291.5 88t-131.5 248h60q22 -136 117.5 -208t250.5 -72q221 0 371 137.5t199 381.5l31 154q-89 -128 -227 -202.5t-304 -74.5q-199 0 -321.5 120.5t-122.5 310.5
q0 128 50 248t136 210t208.5 144t259.5 54q163 0 275 -83.5t149 -225.5zM552 97q168 0 304.5 85.5t210 222t73.5 291.5q0 166 -106.5 270t-279.5 104q-167 0 -305 -85t-213.5 -221.5t-75.5 -290.5q0 -167 108 -271.5t284 -104.5z" />
    <glyph glyph-name="uni0122" unicode="&#x122;" horiz-adv-x="1634" 
d="M775 612l11 58h770q-73 -314 -293.5 -501t-543.5 -187q-270 0 -428 157.5t-158 413.5q0 180 66 344.5t180.5 286.5t278 194.5t348.5 72.5q250 0 412.5 -141.5t166.5 -361.5h-61q-7 196 -151.5 320t-368.5 124q-173 0 -325.5 -68.5t-258 -184t-166 -269t-60.5 -320.5
q0 -233 141.5 -371t385.5 -138q285 0 482 155t273 416h-701zM638 -239l18 96h97l-18 -88q-22 -109 -121 -141l8 43q56 24 71 90h-55z" />
    <glyph glyph-name="uni0123" unicode="&#x123;" horiz-adv-x="1382" 
d="M878 1442l-19 -96h-97l18 89q9 48 41 86t81 54l-11 -50q-52 -21 -64 -83h51zM1246 1106h46l-189 -945q-54 -270 -220 -421.5t-414 -151.5q-182 0 -291.5 88t-131.5 248h60q22 -136 117.5 -208t250.5 -72q221 0 371 137.5t199 381.5l31 154q-89 -128 -227 -202.5
t-304 -74.5q-199 0 -321.5 120.5t-122.5 310.5q0 128 50 248t136 210t208.5 144t259.5 54q163 0 275 -83.5t149 -225.5zM552 97q168 0 304.5 85.5t210 222t73.5 291.5q0 166 -106.5 270t-279.5 104q-167 0 -305 -85t-213.5 -221.5t-75.5 -290.5q0 -167 108 -271.5
t284 -104.5z" />
    <glyph glyph-name="Hcircumflex" unicode="&#x124;" horiz-adv-x="1495" 
d="M1018 1851l-266 -248h-68l306 291h63l193 -291h-55zM1387 1434h61l-287 -1434h-61l144 720h-927l-144 -720h-60l286 1434h61l-131 -657h927z" />
    <glyph glyph-name="hcircumflex" unicode="&#x125;" horiz-adv-x="1312" 
d="M496 1859l-267 -248h-67l305 291h64l192 -291h-55zM811 1127q168 0 261 -92.5t93 -256.5q0 -21 -1 -37.5t-5.5 -47t-9.5 -58t-17.5 -91.5t-25 -125t-36.5 -180.5t-48 -238.5h-60q22 109 43.5 216.5t34 169.5t24.5 123t18 92.5t11.5 61.5t7.5 47t3 32t1 32
q0 141 -79.5 218t-227.5 77q-196 0 -338 -123.5t-178 -303.5l-128 -642h-60l300 1496h59l-126 -630q78 120 203.5 190.5t280.5 70.5z" />
    <glyph glyph-name="Hbar" unicode="&#x126;" horiz-adv-x="1513" 
d="M1603 1184l-10 -51h-199l-226 -1133h-61l144 719h-927l-144 -719h-61l227 1133h-187l10 51h187l50 250h61l-50 -250h927l50 250h60l-50 -250h199zM1262 777l71 356h-926l-72 -356h927z" />
    <glyph glyph-name="hbar" unicode="&#x127;" horiz-adv-x="1312" 
d="M811 1127q168 0 261 -92.5t93 -256.5q0 -21 -1 -37.5t-5.5 -47t-9.5 -58t-17.5 -91.5t-25 -125t-36.5 -180.5t-48 -238.5h-60q22 109 43.5 216.5t34 169.5t24.5 123t18 92.5t11.5 61.5t7.5 47t3 32t1 32q0 141 -79.5 218t-227.5 77q-196 0 -338 -123.5t-178 -303.5
l-128 -642h-60l250 1250h-206l9 52h208l39 194h59l-39 -194h424l-10 -52h-424l-77 -384q78 120 203.5 190.5t280.5 70.5z" />
    <glyph glyph-name="Itilde" unicode="&#x128;" horiz-adv-x="507" 
d="M621 1629q-28 0 -50 8.5t-40.5 28.5t-28 33.5t-26.5 40.5q-32 53 -58 75t-60 22q-61 0 -97 -48.5t-55 -144.5h-45q43 243 200 243q28 0 51 -9t42 -28.5t30 -35t27 -42.5q19 -31 30.5 -47.5t34 -31.5t49.5 -15q57 0 91 45.5t55 138.5l47 -1q-48 -232 -197 -232zM113 0
l286 1434h61l-287 -1434h-60z" />
    <glyph glyph-name="itilde" unicode="&#x129;" horiz-adv-x="466" 
d="M535 1270q-28 0 -52 9.5t-42.5 29t-29.5 35t-26 41.5q-28 48 -52 71t-62 23q-61 0 -96.5 -47t-56.5 -146h-45q24 123 73.5 182.5t128.5 59.5q37 0 66 -18t44 -38t35 -55q27 -48 53 -73t65 -25q114 0 146 184h46q-40 -233 -195 -233zM94 0l221 1106h60l-221 -1106h-60z
" />
    <glyph glyph-name="Imacron" unicode="&#x12a;" horiz-adv-x="507" 
d="M221 1706l11 56h514l-11 -56h-514zM113 0l286 1434h61l-287 -1434h-60z" />
    <glyph glyph-name="imacron" unicode="&#x12b;" horiz-adv-x="466" 
d="M149 1387l11 51h502l-9 -51h-504zM94 0l221 1106h60l-221 -1106h-60z" />
    <glyph glyph-name="Ibreve" unicode="&#x12c;" horiz-adv-x="507" 
d="M455 1588q-126 0 -179.5 87.5t-27.5 218.5h51q-24 -118 19 -189t140 -71q220 0 270 260h51q-27 -148 -109.5 -227t-214.5 -79zM113 0l286 1434h61l-287 -1434h-60z" />
    <glyph glyph-name="ibreve" unicode="&#x12d;" horiz-adv-x="466" 
d="M370 1231q-126 0 -182 91.5t-27 231.5h50q-25 -124 17.5 -200t145.5 -76q229 0 280 276h52q-29 -157 -114.5 -240t-221.5 -83zM94 0l221 1106h60l-221 -1106h-60z" />
    <glyph glyph-name="Iogonek" unicode="&#x12e;" horiz-adv-x="507" 
d="M173 0q-122 -66 -197.5 -151t-75.5 -157q0 -49 34 -77t93 -28q67 0 113 14l-9 -45q-52 -17 -120 -17q-75 0 -120 38.5t-45 100.5q0 83 74.5 174.5t193.5 156.5l285 1425h61z" />
    <glyph glyph-name="iogonek" unicode="&#x12f;" horiz-adv-x="466" 
d="M368 1464h91l-22 -109h-91zM96 10l219 1096h60l-221 -1106q-122 -66 -198 -151t-76 -157q0 -49 34 -77t93 -28q67 0 113 14l-8 -45q-52 -17 -121 -17q-75 0 -120 38.5t-45 100.5q0 84 75.5 175.5t194.5 156.5z" />
    <glyph glyph-name="Idotaccent" unicode="&#x130;" horiz-adv-x="507" 
d="M423 1684l22 109h93l-21 -109h-94zM113 0l286 1434h61l-287 -1434h-60z" />
    <glyph glyph-name="dotlessi" unicode="&#x131;" horiz-adv-x="466" 
d="M94 0l221 1106h60l-221 -1106h-60z" />
    <glyph glyph-name="IJ" unicode="&#x132;" horiz-adv-x="1583" 
d="M113 0l286 1434h61l-287 -1434h-60zM804 -21q-172 0 -278.5 106t-106.5 275q0 49 12 112h60q-12 -54 -12 -104q0 -145 89 -237.5t239 -92.5q189 0 322.5 121.5t170.5 307.5l194 967h61l-195 -978q-41 -211 -191 -344t-365 -133z" />
    <glyph glyph-name="ij" unicode="&#x133;" horiz-adv-x="1124" 
d="M346 1355l22 109h91l-22 -109h-91zM1000 1355l22 109h91l-22 -109h-91zM94 0l221 1106h60l-221 -1106h-60zM361 -390l10 56h36q134 0 219.5 72.5t112.5 202.5l233 1165h59l-234 -1172q-30 -152 -132.5 -238t-258.5 -86h-45z" />
    <glyph glyph-name="Jcircumflex" unicode="&#x134;" horiz-adv-x="1198" 
d="M1398 1603h-53l-136 245l-233 -245h-63l271 291h57zM914 467l194 967h61l-195 -978q-41 -211 -191 -344t-365 -133q-172 0 -278.5 106t-106.5 275q0 49 12 112h60q-11 -50 -11 -104q0 -145 88.5 -237.5t238.5 -92.5q189 0 322.5 121.5t170.5 307.5z" />
    <glyph glyph-name="jcircumflex" unicode="&#x135;" horiz-adv-x="491" 
d="M636 1243h-53l-144 264l-242 -264h-63l284 311h57zM-266 -390l10 56h31q129 0 217.5 73t114.5 202l233 1165h59l-233 -1172q-30 -150 -135.5 -237t-256.5 -87h-40z" />
    <glyph glyph-name="uni0136" unicode="&#x136;" horiz-adv-x="1228" 
d="M1350 1434l-728 -692l495 -742h-72l-478 717h-250l-144 -717h-60l286 1434h61l-132 -659h245l694 659h83zM496 -239l19 96h97l-18 -88q-10 -50 -41 -87.5t-81 -53.5l9 43q56 24 71 90h-56z" />
    <glyph glyph-name="uni0137" unicode="&#x137;" horiz-adv-x="1030" 
d="M1097 1106l-568 -529l388 -577h-70l-368 549h-216l-109 -549h-60l300 1496h59l-178 -891h203l539 501h80zM323 -239l18 96h97l-17 -88q-9 -53 -41.5 -95.5t-83.5 -61.5l10 51q55 27 67 98h-50z" />
    <glyph glyph-name="kgreenlandic" unicode="&#x138;" horiz-adv-x="1030" 
d="M1099 1106l-570 -529l388 -577h-70l-368 549h-216l-109 -549h-60l221 1106h60l-100 -501h202l540 501h82z" />
    <glyph glyph-name="Lacute" unicode="&#x139;" horiz-adv-x="1009" 
d="M746 1894l-248 -291h-57l237 291h68zM185 57h703l-10 -57h-765l286 1434h61z" />
    <glyph glyph-name="lacute" unicode="&#x13a;" horiz-adv-x="466" 
d="M405 1666l236 291h69l-248 -291h-57zM94 0l300 1496h59l-299 -1496h-60z" />
    <glyph glyph-name="uni013B" unicode="&#x13b;" horiz-adv-x="1009" 
d="M185 57h703l-10 -57h-765l286 1434h61zM379 -239l18 96h97l-18 -88q-22 -109 -121 -141l8 43q56 24 71 90h-55z" />
    <glyph glyph-name="uni013C" unicode="&#x13c;" horiz-adv-x="466" 
d="M94 0l300 1496h59l-299 -1496h-60zM-2 -388l11 51q55 27 67 98h-51l19 96h97l-18 -88q-9 -53 -41.5 -95.5t-83.5 -61.5z" />
    <glyph glyph-name="Lcaron" unicode="&#x13d;" horiz-adv-x="1021" 
d="M970 1496h97l-18 -88q-9 -48 -41 -86.5t-80 -54.5l10 51q49 20 64 82h-51zM460 1434l-275 -1376h704l-11 -58h-765l286 1434h61z" />
    <glyph glyph-name="lcaron" unicode="&#x13e;" horiz-adv-x="468" 
d="M94 0l300 1496h59l-299 -1496h-60zM603 1496h97l-18 -88q-9 -48 -41 -86.5t-80 -54.5l8 44q24 8 44.5 33.5t25.5 55.5h-54z" />
    <glyph glyph-name="Ldot" unicode="&#x13f;" horiz-adv-x="1015" 
d="M185 58h704l-11 -58h-765l286 1434h61zM830 800l-25 -123h-94l26 123h93z" />
    <glyph glyph-name="ldot" unicode="&#x140;" horiz-adv-x="536" 
d="M94 0l300 1496h59l-299 -1496h-60zM483 686l24 123h93l-24 -123h-93z" />
    <glyph glyph-name="Lslash" unicode="&#x141;" horiz-adv-x="1034" 
d="M906 883l-597 -291l-107 -535h703l-10 -57h-765l112 559l-212 -103l10 59l213 104l163 815h61l-156 -783l597 292z" />
    <glyph glyph-name="lslash" unicode="&#x142;" horiz-adv-x="645" 
d="M682 1020l-13 -63l-271 -152l-161 -805h-60l154 768l-272 -152l12 63l273 152l133 665h59l-125 -628z" />
    <glyph glyph-name="Nacute" unicode="&#x143;" horiz-adv-x="1527" 
d="M1224 1894l-248 -291h-57l237 291h68zM1420 1434h61l-287 -1434h-52l-703 1326l-265 -1326h-61l286 1434h55l700 -1325z" />
    <glyph glyph-name="nacute" unicode="&#x144;" horiz-adv-x="1312" 
d="M1025 1554l-234 -311h-54l223 311h65zM810 1127q169 0 262 -92.5t93 -256.5q0 -21 -1 -37.5t-5.5 -47t-9.5 -58t-17.5 -91.5t-25 -125t-36.5 -180.5t-48 -238.5h-60q21 107 43 215.5t34.5 169t25 122.5t18 93t11 61.5t7.5 47t3 31t1 31.5q0 143 -80.5 221.5t-228.5 78.5
q-187 0 -333 -126t-181 -305l-128 -640h-60l221 1106h48l-40 -252q78 125 207 199t280 74z" />
    <glyph glyph-name="uni0145" unicode="&#x145;" horiz-adv-x="1527" 
d="M1420 1434h61l-287 -1434h-52l-703 1326l-265 -1326h-61l286 1434h55l700 -1325zM551 -239l18 96h97l-18 -88q-22 -109 -121 -141l9 43q55 24 70 90h-55z" />
    <glyph glyph-name="uni0146" unicode="&#x146;" horiz-adv-x="1312" 
d="M810 1127q169 0 262 -92.5t93 -256.5q0 -21 -1 -37.5t-5.5 -47t-9.5 -58t-17.5 -91.5t-25 -125t-36.5 -180.5t-48 -238.5h-60q21 107 43 215.5t34.5 169t25 122.5t18 93t11 61.5t7.5 47t3 31t1 31.5q0 143 -80.5 221.5t-228.5 78.5q-187 0 -333 -126t-181 -305l-128 -640
h-60l221 1106h48l-40 -252q78 125 207 199t280 74zM462 -239l18 96h97l-17 -88q-9 -53 -41.5 -95.5t-83.5 -61.5l10 51q55 27 67 98h-50z" />
    <glyph glyph-name="Ncaron" unicode="&#x147;" horiz-adv-x="1527" 
d="M1000 1603h-63l-191 291h56l170 -248l265 248h65zM1420 1434h61l-287 -1434h-52l-703 1326l-265 -1326h-61l286 1434h55l700 -1325z" />
    <glyph glyph-name="ncaron" unicode="&#x148;" horiz-adv-x="1312" 
d="M829 1243h-60l-187 311h58l164 -265l269 265h66zM810 1127q169 0 262 -92.5t93 -256.5q0 -21 -1 -37.5t-5.5 -47t-9.5 -58t-17.5 -91.5t-25 -125t-36.5 -180.5t-48 -238.5h-60q21 107 43 215.5t34.5 169t25 122.5t18 93t11 61.5t7.5 47t3 31t1 31.5q0 143 -80.5 221.5
t-228.5 78.5q-187 0 -333 -126t-181 -305l-128 -640h-60l221 1106h48l-40 -252q78 125 207 199t280 74z" />
    <glyph glyph-name="Eng" unicode="&#x14a;" horiz-adv-x="1527" 
d="M1421 1434h60l-287 -1431q-37 -184 -162 -288.5t-309 -104.5h-27l11 57h31q151 0 260.5 91t137.5 242l-698 1327l-266 -1327h-59l286 1434h55l700 -1331z" />
    <glyph glyph-name="eng" unicode="&#x14b;" horiz-adv-x="1312" 
d="M811 1127q171 0 262.5 -94t91.5 -258q0 -16 -0.5 -28.5t-3 -32.5t-5 -37t-9 -52.5t-13 -67.5t-19 -94t-24.5 -119.5t-32 -156.5t-39 -194q-35 -178 -156.5 -280t-303.5 -102h-34l11 56h23q158 0 264.5 88.5t136.5 242.5q19 96 39 193t32 156t24 119l18.5 92.5t13 66.5
t9 50.5t5 35.5t3 30.5t0.5 25.5q0 145 -79 223.5t-230 78.5q-171 0 -324 -125.5t-189 -295.5l-129 -648h-60l221 1106h48l-41 -257q81 125 214 201.5t275 76.5z" />
    <glyph glyph-name="Omacron" unicode="&#x14c;" horiz-adv-x="1708" 
d="M777 1709l11 55h641l-11 -55h-641zM741 -21q-184 0 -323 75t-212.5 207t-73.5 302q0 178 67 341t184 284.5t285.5 194t360.5 72.5q278 0 444 -163.5t166 -422.5q0 -179 -67 -341.5t-183.5 -283.5t-285.5 -193t-362 -72zM748 38q174 0 328.5 65t264 175.5t173.5 264
t64 323.5q0 239 -152 384.5t-403 145.5q-173 0 -327 -65.5t-264 -176.5t-174.5 -264t-64.5 -323q0 -238 152 -383.5t403 -145.5z" />
    <glyph glyph-name="omacron" unicode="&#x14d;" horiz-adv-x="1357" 
d="M528 1387l11 51h641l-11 -51h-641zM568 -21q-213 0 -343.5 127t-130.5 329q0 141 54 269t147 221t222.5 147.5t273.5 54.5q214 0 344 -127t130 -329q0 -141 -54 -269t-147 -221t-222.5 -147.5t-273.5 -54.5zM573 36q132 0 250 51t201.5 136.5t132 202.5t48.5 244
q0 179 -114.5 289.5t-304.5 110.5q-176 0 -321.5 -86t-228 -231.5t-82.5 -316.5q0 -179 114.5 -289.5t304.5 -110.5z" />
    <glyph glyph-name="Obreve" unicode="&#x14e;" horiz-adv-x="1708" 
d="M1078 1588q-111 0 -175.5 60t-64.5 168q0 42 8 78h50q-7 -30 -7 -73q0 -91 49.5 -139t142.5 -48q114 0 192 68t103 192h52q-28 -145 -122 -225.5t-228 -80.5zM741 -21q-184 0 -323 75t-212.5 207t-73.5 302q0 178 67 341t184 284.5t285.5 194t360.5 72.5
q278 0 444 -163.5t166 -422.5q0 -179 -67 -341.5t-183.5 -283.5t-285.5 -193t-362 -72zM748 38q174 0 328.5 65t264 175.5t173.5 264t64 323.5q0 239 -152 384.5t-403 145.5q-173 0 -327 -65.5t-264 -176.5t-174.5 -264t-64.5 -323q0 -238 152 -383.5t403 -145.5z" />
    <glyph glyph-name="obreve" unicode="&#x14f;" horiz-adv-x="1357" 
d="M817 1231q-110 0 -175 64t-65 175q0 36 10 84h50q-9 -44 -9 -79q0 -94 50 -146t142 -52q247 0 301 277h52q-31 -157 -121.5 -240t-234.5 -83zM568 -21q-213 0 -343.5 127t-130.5 329q0 141 54 269t147 221t222.5 147.5t273.5 54.5q214 0 344 -127t130 -329
q0 -141 -54 -269t-147 -221t-222.5 -147.5t-273.5 -54.5zM573 36q132 0 250 51t201.5 136.5t132 202.5t48.5 244q0 179 -114.5 289.5t-304.5 110.5q-176 0 -321.5 -86t-228 -231.5t-82.5 -316.5q0 -179 114.5 -289.5t304.5 -110.5z" />
    <glyph glyph-name="Ohungarumlaut" unicode="&#x150;" horiz-adv-x="1708" 
d="M878 1603l216 291h61l-225 -291h-52zM1187 1603l224 291h63l-235 -291h-52zM742 -21q-278 0 -444 163t-166 421q0 178 67 341t184 284.5t285.5 194t360.5 72.5q278 0 444 -163.5t166 -422.5q0 -179 -66.5 -341.5t-183 -283.5t-285.5 -193t-362 -72zM748 38
q174 0 328.5 65t264 175.5t173.5 264t64 323.5q0 239 -152 384.5t-403 145.5q-173 0 -327 -65.5t-264 -176.5t-174.5 -264t-64.5 -323q0 -238 152 -383.5t403 -145.5z" />
    <glyph glyph-name="ohungarumlaut" unicode="&#x151;" horiz-adv-x="1357" 
d="M619 1243l220 311h65l-230 -311h-55zM932 1243l227 311h63l-236 -311h-54zM568 -21q-213 0 -343.5 127t-130.5 329q0 141 54 269t147 221t222.5 147.5t273.5 54.5q214 0 344 -127t130 -329q0 -141 -54 -269t-147 -221t-222.5 -147.5t-273.5 -54.5zM573 36q132 0 250 51
t201.5 136.5t132 202.5t48.5 244q0 179 -114.5 289.5t-304.5 110.5q-176 0 -321.5 -86t-228 -231.5t-82.5 -316.5q0 -179 114.5 -289.5t304.5 -110.5z" />
    <glyph glyph-name="OE" unicode="&#x152;" horiz-adv-x="2000" 
d="M2052 1376h-791l-125 -624h738l-13 -56h-736l-128 -638h812l-11 -58h-871q-117 -21 -242 -21q-249 0 -400.5 160t-151.5 414q0 172 63 335.5t171.5 288.5t267 201.5t338.5 76.5q120 0 238 -22l1 1h851zM194 556q0 -230 136.5 -374t361.5 -144q117 0 245 23l262 1312
q-112 23 -233 23q-167 0 -313.5 -72t-245.5 -190.5t-156 -269.5t-57 -308z" />
    <glyph glyph-name="oe" unicode="&#x153;" horiz-adv-x="2379" 
d="M1247 536q-1 -3 -2.5 -9t-1.5 -8q-6 -43 -6 -87q0 -177 109 -286.5t290 -109.5q316 0 503 278h66q-105 -164 -251 -249.5t-321 -85.5q-185 0 -305.5 105t-142.5 277q-88 -171 -254.5 -276.5t-364.5 -105.5q-213 0 -343.5 127t-130.5 329q0 137 55.5 265t149 221.5
t222.5 149.5t270 56q192 0 317.5 -105t149.5 -278q87 171 248.5 277t352.5 106q203 0 323.5 -123t120.5 -324q0 -71 -17 -144h-1037zM1854 1070q-210 0 -376 -137.5t-220 -340.5h979q7 53 7 86q0 178 -105.5 285t-284.5 107zM571 36q225 0 399 146.5t220 360.5q1 5 2.5 15
t2.5 15q8 51 8 97q0 179 -114 289t-304 110q-129 0 -246.5 -52.5t-202 -139t-134.5 -202.5t-50 -239q0 -179 114.5 -289.5t304.5 -110.5z" />
    <glyph glyph-name="Racute" unicode="&#x154;" horiz-adv-x="1294" 
d="M1068 1894l-247 -291h-58l237 291h68zM1279 1111q0 -194 -130.5 -330t-336.5 -153l251 -628h-66l-249 626h-449l-126 -626h-60l286 1434h517q164 0 263.5 -89.5t99.5 -233.5zM761 683q201 0 329 123.5t128 301.5q0 121 -83.5 194.5t-224.5 73.5h-461l-139 -693h451z" />
    <glyph glyph-name="racute" unicode="&#x155;" horiz-adv-x="784" 
d="M829 1555l-234 -312h-54l223 312h65zM768 1109h95l-11 -57h-98q-170 0 -301.5 -117t-172.5 -299l-126 -636h-60l221 1106h48l-45 -264q76 124 193 195.5t257 71.5z" />
    <glyph glyph-name="uni0156" unicode="&#x156;" horiz-adv-x="1294" 
d="M1279 1111q0 -194 -130.5 -330t-336.5 -153l251 -628h-66l-249 626h-449l-126 -626h-60l286 1434h517q164 0 263.5 -89.5t99.5 -233.5zM761 683q201 0 329 123.5t128 301.5q0 121 -83.5 194.5t-224.5 73.5h-461l-139 -693h451zM471 -239l19 96h97l-18 -88
q-10 -50 -41 -87.5t-81 -53.5l9 43q56 24 71 90h-56z" />
    <glyph glyph-name="uni0157" unicode="&#x157;" horiz-adv-x="784" 
d="M768 1109h95l-11 -57h-98q-170 0 -301.5 -117t-172.5 -299l-126 -636h-60l221 1106h48l-45 -264q76 124 193 195.5t257 71.5zM26 -239l19 96h96l-17 -88q-9 -53 -41.5 -95.5t-83.5 -61.5l10 51q55 27 67 98h-50z" />
    <glyph glyph-name="Rcaron" unicode="&#x158;" horiz-adv-x="1294" 
d="M844 1603h-63l-191 291h56l170 -248l265 248h66zM1279 1111q0 -194 -130.5 -330t-336.5 -153l251 -628h-66l-249 626h-449l-126 -626h-60l286 1434h517q164 0 263.5 -89.5t99.5 -233.5zM761 683q201 0 329 123.5t128 301.5q0 121 -83.5 194.5t-224.5 73.5h-461l-139 -693
h451z" />
    <glyph glyph-name="rcaron" unicode="&#x159;" horiz-adv-x="784" 
d="M633 1243h-60l-187 312h58l164 -265l269 265h66zM318 842q76 124 193 195.5t257 71.5h95l-11 -57h-98q-170 0 -301.5 -117t-172.5 -299l-126 -636h-60l221 1106h48z" />
    <glyph glyph-name="Sacute" unicode="&#x15a;" horiz-adv-x="1189" 
d="M745 1603l236 291h69l-248 -291h-57zM495 -18q-197 0 -310.5 92.5t-113.5 253.5q0 44 9 92h62q-9 -43 -9 -83q0 -139 100.5 -217.5t269.5 -78.5q213 0 351.5 117t138.5 293q0 36 -11 67t-27 53t-45.5 41.5t-55.5 32t-68.5 25.5t-72.5 20.5t-79 18.5q-52 12 -82.5 19
t-78.5 22t-76.5 29t-63 37t-53.5 48.5t-32 62t-13 79.5q0 200 150 323t389 123q176 0 277 -85t101 -231q0 -38 -8 -83h-60q8 42 8 75q0 122 -88.5 193.5t-238.5 71.5q-209 0 -338 -104t-129 -271q0 -36 11 -66t27.5 -51.5t46.5 -41t55.5 -31.5t69 -25t72 -20t78.5 -18
q52 -11 84 -19t79 -23t76 -29.5t62.5 -38t52.5 -50t31.5 -63t12.5 -80.5q0 -210 -158.5 -345t-402.5 -135z" />
    <glyph glyph-name="sacute" unicode="&#x15b;" horiz-adv-x="1030" 
d="M587 1243l222 311h65l-233 -311h-54zM405 -21q-171 0 -266 73.5t-95 203.5q0 22 3 43h58q-2 -24 -2 -34q0 -115 84.5 -172.5t224.5 -57.5q185 0 300.5 85t115.5 228q0 42 -18.5 75t-45 52.5t-73 35.5t-83.5 24t-96 18q-48 9 -72.5 13.5t-67.5 15.5t-66 21t-53 27.5
t-45.5 38t-26.5 49.5t-11 64q0 155 124 250t326 95q159 0 251 -68.5t92 -188.5q0 -5 -5 -50h-57q4 30 4 44q0 104 -81 156.5t-210 52.5q-175 0 -280 -77.5t-105 -203.5q0 -32 10.5 -56.5t34 -43t46 -30.5t64 -22.5t69.5 -16t79 -14.5q53 -9 86.5 -16t80 -20t76 -30.5
t58 -42.5t42 -60.5t13.5 -80.5q0 -175 -136 -277.5t-347 -102.5z" />
    <glyph glyph-name="Scircumflex" unicode="&#x15c;" horiz-adv-x="1189" 
d="M847 1851l-266 -248h-68l306 291h63l192 -291h-54zM774 1452q176 0 277 -85t101 -231q0 -38 -8 -83h-60q8 42 8 75q0 122 -88.5 193.5t-238.5 71.5q-209 0 -338 -104t-129 -271q0 -36 11 -66t27.5 -51.5t46.5 -41t55.5 -31.5t69 -25t72 -20t78.5 -18q52 -11 84 -19
t79 -23t76 -29.5t62.5 -38t52.5 -50t31.5 -63t12.5 -80.5q0 -210 -158.5 -345t-402.5 -135q-197 0 -310.5 92.5t-113.5 253.5q0 44 9 92h62q-9 -43 -9 -83q0 -139 100.5 -217.5t269.5 -78.5q213 0 351.5 117t138.5 293q0 36 -11 67t-27 53t-45.5 41.5t-55.5 32t-68.5 25.5
t-72.5 20.5t-79 18.5q-52 12 -82.5 19t-78.5 22t-76.5 29t-63 37t-53.5 48.5t-32 62t-13 79.5q0 200 150 323t389 123z" />
    <glyph glyph-name="scircumflex" unicode="&#x15d;" horiz-adv-x="1030" 
d="M929 1243h-55l-169 265l-271 -265h-65l309 311h62zM405 -21q-171 0 -266 73.5t-95 203.5q0 22 3 43h58q-2 -24 -2 -34q0 -115 84.5 -172.5t224.5 -57.5q185 0 300.5 85t115.5 228q0 42 -18.5 75t-45 52.5t-73 35.5t-83.5 24t-96 18q-48 9 -72.5 13.5t-67.5 15.5t-66 21
t-53 27.5t-45.5 38t-26.5 49.5t-11 64q0 155 124 250t326 95q159 0 251 -68.5t92 -188.5q0 -5 -5 -50h-57q4 30 4 44q0 104 -81 156.5t-210 52.5q-175 0 -280 -77.5t-105 -203.5q0 -32 10.5 -56.5t34 -43t46 -30.5t64 -22.5t69.5 -16t79 -14.5q53 -9 86.5 -16t80 -20
t76 -30.5t58 -42.5t42 -60.5t13.5 -80.5q0 -175 -136 -277.5t-347 -102.5z" />
    <glyph glyph-name="Scedilla" unicode="&#x15e;" horiz-adv-x="1189" 
d="M774 1452q176 0 277 -85t101 -231q0 -38 -8 -83h-60q8 42 8 75q0 122 -88.5 193.5t-238.5 71.5q-209 0 -338 -104t-129 -271q0 -36 11 -66t27.5 -51.5t46.5 -41t55.5 -31.5t69 -25t72 -20t78.5 -18q52 -11 84 -19t79 -23t76 -29.5t62.5 -38t52.5 -50t31.5 -63t12.5 -80.5
q0 -201 -145.5 -334t-374.5 -145l-52 -107q76 -5 123.5 -46.5t47.5 -103.5q0 -90 -76 -149t-183 -59h-128l8 44h127q84 0 142 45.5t58 114.5q0 49 -40.5 80.5t-107.5 31.5h-28l-7 11l66 137q-193 2 -304 95t-111 251q0 44 9 92h62q-9 -43 -9 -83q0 -139 100.5 -217.5
t269.5 -78.5q213 0 351.5 117t138.5 293q0 36 -11 67t-27 53t-45.5 41.5t-55.5 32t-68.5 25.5t-72.5 20.5t-79 18.5q-52 12 -82.5 19t-78.5 22t-76.5 29t-63 37t-53.5 48.5t-32 62t-13 79.5q0 200 150 323t389 123z" />
    <glyph glyph-name="scedilla" unicode="&#x15f;" horiz-adv-x="1030" 
d="M620 1127q159 0 251 -68.5t92 -188.5q0 -5 -5 -50h-57q4 30 4 44q0 104 -81 156.5t-210 52.5q-175 0 -280 -77.5t-105 -203.5q0 -32 10.5 -56.5t34 -43t46 -30.5t64 -22.5t69.5 -16t79 -14.5q53 -9 86.5 -16t80 -20t76 -30.5t58 -42.5t42 -60.5t13.5 -80.5
q0 -169 -126.5 -270.5t-325.5 -109.5l-51 -104q80 -4 127.5 -46t47.5 -103q0 -91 -70.5 -150t-185.5 -59h-132l7 44h126q92 0 148 47t56 114q0 51 -40 81.5t-110 30.5h-30l-7 10l65 135q-163 4 -253 77t-90 200q0 22 3 43h58q-2 -24 -2 -34q0 -115 84.5 -172.5t224.5 -57.5
q185 0 300.5 85t115.5 228q0 42 -18.5 75t-45 52.5t-73 35.5t-83.5 24t-96 18q-48 9 -72.5 13.5t-67.5 15.5t-66 21t-53 27.5t-45.5 38t-26.5 49.5t-11 64q0 155 124 250t326 95z" />
    <glyph glyph-name="Scaron" unicode="&#x160;" horiz-adv-x="1189" 
d="M825 1603h-63l-191 291h56l170 -248l265 248h66zM774 1452q176 0 277 -85t101 -231q0 -38 -8 -83h-60q8 42 8 75q0 122 -88.5 193.5t-238.5 71.5q-209 0 -338 -104t-129 -271q0 -36 11 -66t27.5 -51.5t46.5 -41t55.5 -31.5t69 -25t72 -20t78.5 -18q52 -11 84 -19t79 -23
t76 -29.5t62.5 -38t52.5 -50t31.5 -63t12.5 -80.5q0 -210 -158.5 -345t-402.5 -135q-197 0 -310.5 92.5t-113.5 253.5q0 44 9 92h62q-9 -43 -9 -83q0 -139 100.5 -217.5t269.5 -78.5q213 0 351.5 117t138.5 293q0 36 -11 67t-27 53t-45.5 41.5t-55.5 32t-68.5 25.5
t-72.5 20.5t-79 18.5q-52 12 -82.5 19t-78.5 22t-76.5 29t-63 37t-53.5 48.5t-32 62t-13 79.5q0 200 150 323t389 123z" />
    <glyph glyph-name="scaron" unicode="&#x161;" horiz-adv-x="1030" 
d="M923 1554h66l-310 -311h-60l-187 311h58l164 -265zM405 -21q-171 0 -266 73.5t-95 203.5q0 22 3 43h58q-2 -24 -2 -34q0 -115 84.5 -172.5t224.5 -57.5q185 0 300.5 85t115.5 228q0 42 -18.5 75t-45 52.5t-73 35.5t-83.5 24t-96 18q-48 9 -72.5 13.5t-67.5 15.5t-66 21
t-53 27.5t-45.5 38t-26.5 49.5t-11 64q0 155 124 250t326 95q159 0 251 -68.5t92 -188.5q0 -5 -5 -50h-57q4 30 4 44q0 104 -81 156.5t-210 52.5q-175 0 -280 -77.5t-105 -203.5q0 -32 10.5 -56.5t34 -43t46 -30.5t64 -22.5t69.5 -16t79 -14.5q53 -9 86.5 -16t80 -20
t76 -30.5t58 -42.5t42 -60.5t13.5 -80.5q0 -175 -136 -277.5t-347 -102.5z" />
    <glyph glyph-name="uni0162" unicode="&#x162;" horiz-adv-x="1071" 
d="M447 0h-5l-57 -122q76 -4 123 -47.5t47 -106.5q0 -91 -75.5 -147.5t-181.5 -56.5h-130l8 44h128q83 0 141.5 46.5t58.5 114.5q0 49 -40.5 80t-107.5 31h-28l-7 11l73 153h-7l275 1376h-469l11 58h999l-11 -58h-470z" />
    <glyph glyph-name="uni0163" unicode="&#x163;" horiz-adv-x="770" 
d="M839 1051h-405q-24 -119 -61 -303q-64 -318 -77 -388.5t-13 -105.5q0 -95 57.5 -146.5t164.5 -51.5h143l-11 -56h-142h-9l-59 -122q80 -4 127 -44.5t47 -101.5q0 -91 -71 -151.5t-185 -60.5h-132l8 42h126q92 0 148 48.5t56 115.5q0 52 -39.5 82t-110.5 30h-29l-6 9
l74 156q-105 13 -161 76.5t-56 167.5q0 37 11.5 101t70.5 355q42 207 70 348h-254l10 53h254q9 47 31.5 155.5t34.5 171.5h59q-12 -61 -34 -170t-31 -157h404z" />
    <glyph glyph-name="Tcaron" unicode="&#x164;" horiz-adv-x="1071" 
d="M766 1603h-64l-191 291h56l171 -248l264 248h66zM1203 1434l-11 -58h-470l-275 -1376h-60l275 1376h-469l11 58h999z" />
    <glyph glyph-name="tcaron" unicode="&#x165;" horiz-adv-x="761" 
d="M931 1496h97l-18 -88q-9 -48 -41.5 -88.5t-80.5 -56.5l8 44q24 7 45 34.5t26 58.5h-54zM510 1431q-12 -61 -34 -170t-31 -157h383l-10 -53h-384q-141 -698 -147 -739q-4 -30 -4 -55q0 -96 58 -148.5t167 -52.5h140l-11 -56h-144q-130 0 -200 64.5t-70 181.5
q0 39 15 121.5t76 383.5q12 57 19 91.5t19 94t23 114.5h-254l9 53h255q9 47 31.5 155.5t34.5 171.5h59z" />
    <glyph glyph-name="Tbar" unicode="&#x166;" horiz-adv-x="1148" 
d="M1234 1376h-469l-123 -613h371l-12 -55h-370l-141 -708h-61l141 708h-368l12 55h367l123 613h-469l11 58h1000z" />
    <glyph glyph-name="tbar" unicode="&#x167;" horiz-adv-x="817" 
d="M867 1051h-403q-16 -81 -45.5 -225.5t-40.5 -201.5h394l-10 -53h-395q-54 -272 -54 -317q0 -95 57.5 -146.5t164.5 -51.5h143l-11 -56h-142q-131 0 -202 65t-71 182q0 33 9.5 88.5t45.5 235.5h-247l12 53h246q11 57 40.5 201.5t45.5 225.5h-253l9 53h255q9 47 31.5 155.5
t34.5 171.5h59q-12 -61 -34 -169.5t-31 -157.5h402z" />
    <glyph glyph-name="Utilde" unicode="&#x168;" horiz-adv-x="1472" 
d="M1101 1629q-50 0 -84.5 25t-74.5 85q-36 55 -63.5 76.5t-64.5 21.5q-65 0 -104.5 -48.5t-60.5 -146.5h-45q48 242 215 242q50 0 85 -25.5t74 -87.5q35 -54 61.5 -74.5t65.5 -20.5q122 0 161 191h45q-48 -238 -210 -238zM625 -21q-200 0 -320.5 117.5t-120.5 308.5
q0 17 0.5 30t3.5 36.5t6.5 44.5t12 66t17.5 89t25.5 124.5t32.5 161.5t42.5 212.5t53.5 264.5h61q-27 -135 -52.5 -265t-42.5 -212.5t-33 -162.5l-25 -125t-17 -88.5t-12 -65t-7 -43.5t-3.5 -34t-0.5 -27q0 -170 103 -271.5t279 -101.5q227 0 380 136t198 357l181 903h61
l-183 -911q-48 -244 -219 -394t-421 -150z" />
    <glyph glyph-name="utilde" unicode="&#x169;" horiz-adv-x="1290" 
d="M946 1271q-51 0 -85.5 25t-73.5 85q-35 54 -62 75t-64 21q-65 0 -104.5 -48t-59.5 -145h-45q50 241 214 241q50 0 83.5 -24.5t74.5 -87.5q35 -53 61.5 -73.5t65.5 -20.5q126 0 158 184h45q-20 -111 -72.5 -171.5t-135.5 -60.5zM536 -21q-181 0 -282.5 97t-102.5 266
q0 59 75 428q40 199 67 336h60q-20 -99 -39.5 -197t-31.5 -157.5l-24 -119t-18.5 -92t-12.5 -65t-8.5 -47.5t-4.5 -32t-2.5 -26.5t-0.5 -21.5q0 -148 86.5 -230t242.5 -82q202 0 328 115t168 321l127 634h59l-129 -644q-45 -227 -187.5 -355t-369.5 -128z" />
    <glyph glyph-name="Umacron" unicode="&#x16a;" horiz-adv-x="1472" 
d="M624 1709l12 55h641l-12 -55h-641zM625 -21q-200 0 -320.5 117.5t-120.5 308.5q0 17 0.5 30t3.5 36.5t6.5 44.5t12 66t17.5 89t25.5 124.5t32.5 161.5t42.5 212.5t53.5 264.5h61q-27 -135 -52.5 -265t-42.5 -212.5t-33 -162.5l-25 -125t-17 -88.5t-12 -65t-7 -43.5
t-3.5 -34t-0.5 -27q0 -170 103 -271.5t279 -101.5q227 0 380 136t198 357l181 903h61l-183 -911q-48 -244 -219 -394t-421 -150z" />
    <glyph glyph-name="umacron" unicode="&#x16b;" horiz-adv-x="1290" 
d="M495 1387l11 51h641l-11 -51h-641zM536 -21q-181 0 -282.5 97t-102.5 266q0 59 75 428q40 199 67 336h60q-20 -99 -39.5 -197t-31.5 -157.5l-24 -119t-18.5 -92t-12.5 -65t-8.5 -47.5t-4.5 -32t-2.5 -26.5t-0.5 -21.5q0 -148 86.5 -230t242.5 -82q202 0 328 115t168 321
l127 634h59l-129 -644q-45 -227 -187.5 -355t-369.5 -128z" />
    <glyph glyph-name="Ubreve" unicode="&#x16c;" horiz-adv-x="1472" 
d="M926 1588q-111 0 -175.5 60t-64.5 168q0 46 7 78h51q-7 -30 -7 -73q0 -91 49.5 -139t142.5 -48q114 0 192 68t103 192h51q-28 -146 -122 -226t-227 -80zM625 -21q-200 0 -320.5 117.5t-120.5 308.5q0 17 0.5 30t3.5 36.5t6.5 44.5t12 66t17.5 89t25.5 124.5t32.5 161.5
t42.5 212.5t53.5 264.5h61q-27 -135 -52.5 -265t-42.5 -212.5t-33 -162.5l-25 -125t-17 -88.5t-12 -65t-7 -43.5t-3.5 -34t-0.5 -27q0 -170 103 -271.5t279 -101.5q227 0 380 136t198 357l181 903h61l-183 -911q-48 -244 -219 -394t-421 -150z" />
    <glyph glyph-name="ubreve" unicode="&#x16d;" horiz-adv-x="1290" 
d="M784 1231q-110 0 -175 64t-65 175q0 36 10 84h51q-10 -48 -10 -79q0 -94 50 -146t142 -52q248 0 302 277h51q-31 -157 -121.5 -240t-234.5 -83zM536 -21q-181 0 -282.5 97t-102.5 266q0 59 75 428q40 199 67 336h60q-20 -99 -39.5 -197t-31.5 -157.5l-24 -119t-18.5 -92
t-12.5 -65t-8.5 -47.5t-4.5 -32t-2.5 -26.5t-0.5 -21.5q0 -148 86.5 -230t242.5 -82q202 0 328 115t168 321l127 634h59l-129 -644q-45 -227 -187.5 -355t-369.5 -128z" />
    <glyph glyph-name="Uring" unicode="&#x16e;" horiz-adv-x="1472" 
d="M926 1567q-82 0 -130.5 45.5t-48.5 120.5q0 109 71 178t181 69q82 0 130.5 -46t48.5 -122q0 -105 -72.5 -175t-179.5 -70zM929 1610q90 0 147.5 59t57.5 141q0 59 -37 93t-102 34q-90 0 -147 -56.5t-57 -145.5q0 -58 36.5 -91.5t101.5 -33.5zM625 -21
q-200 0 -320.5 117.5t-120.5 308.5q0 17 0.5 30t3.5 36.5t6.5 44.5t12 66t17.5 89t25.5 124.5t32.5 161.5t42.5 212.5t53.5 264.5h61q-27 -135 -52.5 -265t-42.5 -212.5t-33 -162.5l-25 -125t-17 -88.5t-12 -65t-7 -43.5t-3.5 -34t-0.5 -27q0 -170 103 -271.5t279 -101.5
q227 0 380 136t198 357l181 903h61l-183 -911q-48 -244 -219 -394t-421 -150z" />
    <glyph glyph-name="uring" unicode="&#x16f;" horiz-adv-x="1290" 
d="M782 1218q-78 0 -124 43t-46 113q0 103 66.5 169t171.5 66q78 0 124.5 -44t46.5 -116q0 -98 -67.5 -164.5t-171.5 -66.5zM785 1260q86 0 139.5 55t53.5 133q0 55 -35 87.5t-96 32.5q-85 0 -139 -53.5t-54 -137.5q0 -53 35.5 -85t95.5 -32zM536 -21q-181 0 -282.5 97
t-102.5 266q0 59 75 428q40 199 67 336h60q-20 -99 -39.5 -197t-31.5 -157.5l-24 -119t-18.5 -92t-12.5 -65t-8.5 -47.5t-4.5 -32t-2.5 -26.5t-0.5 -21.5q0 -148 86.5 -230t242.5 -82q202 0 328 115t168 321l127 634h59l-129 -644q-45 -227 -187.5 -355t-369.5 -128z" />
    <glyph glyph-name="Uhungarumlaut" unicode="&#x170;" horiz-adv-x="1472" 
d="M726 1603l216 291h60l-224 -291h-52zM1034 1603l225 291h62l-234 -291h-53zM625 -21q-200 0 -320.5 117.5t-120.5 308.5q0 17 0.5 30t3.5 36.5t6.5 44.5t12 66t17.5 89t25.5 124.5t32.5 161.5t42.5 212.5t53.5 264.5h61q-27 -135 -52.5 -265t-42.5 -212.5t-33 -162.5
l-25 -125t-17 -88.5t-12 -65t-7 -43.5t-3.5 -34t-0.5 -27q0 -170 103 -271.5t279 -101.5q227 0 380 136t198 357l181 903h61l-183 -911q-48 -244 -219 -394t-421 -150z" />
    <glyph glyph-name="uhungarumlaut" unicode="&#x171;" horiz-adv-x="1290" 
d="M587 1243l220 311h65l-231 -311h-54zM900 1243l226 311h64l-237 -311h-53zM536 -21q-181 0 -282.5 97t-102.5 266q0 59 75 428q40 199 67 336h60q-20 -99 -39.5 -197t-31.5 -157.5l-24 -119t-18.5 -92t-12.5 -65t-8.5 -47.5t-4.5 -32t-2.5 -26.5t-0.5 -21.5
q0 -148 86.5 -230t242.5 -82q202 0 328 115t168 321l127 634h59l-129 -644q-45 -227 -187.5 -355t-369.5 -128z" />
    <glyph glyph-name="Uogonek" unicode="&#x172;" horiz-adv-x="1472" 
d="M1387 1434h60l-181 -905q-21 -104 -67.5 -193.5t-109 -153t-132 -108t-145.5 -69.5q-35 -13 -81.5 -41.5t-95.5 -69t-82.5 -93.5t-33.5 -104q0 -50 35 -80t95 -30q66 0 113 16l-9 -47q-50 -17 -118 -17q-77 0 -124 40.5t-47 107.5q0 84 69 165t164 136q-31 -5 -80 -5
q-195 1 -314 118.5t-119 305.5q0 15 1 28.5t2 29t5.5 40t9 50t13.5 71.5t18 92.5t25 124t31.5 155t40 197.5t48.5 239h61q-27 -136 -53.5 -267t-43.5 -213t-33 -162t-25 -123.5t-17 -86.5t-11.5 -63.5t-6.5 -41.5t-3.5 -32.5t-0.5 -26.5q0 -170 106 -273t284 -103
q208 0 367 137t203 352z" />
    <glyph glyph-name="uogonek" unicode="&#x173;" horiz-adv-x="1290" 
d="M1162 1106h60l-130 -646q-36 -178 -134.5 -294.5t-256.5 -163.5q-101 -29 -182.5 -118.5t-81.5 -172.5q0 -57 40 -89t112 -32q47 0 95 14l-8 -44q-51 -17 -108 -17q-80 0 -131.5 43t-51.5 111q0 74 52 154t125 129q-6 0 -17 -0.5t-16 -0.5q-176 0 -277 97.5t-101 265.5
q0 12 0.5 23t1.5 23t4 30.5l6 37t10 53t13.5 68t18 91.5t23 114t29.5 146t36 178h59q-17 -85 -35 -174.5t-29 -143.5t-22.5 -112t-18 -90.5t-13 -67t-9.5 -53t-6 -37.5t-4 -31t-1.5 -23t-0.5 -24q0 -147 85 -229.5t241 -82.5q189 0 323 116t173 316z" />
    <glyph glyph-name="Wcircumflex" unicode="&#x174;" horiz-adv-x="2072" 
d="M1294 1851l-267 -248h-68l306 291h63l193 -291h-55zM2114 1434h68l-747 -1434h-49l-211 1253l-705 -1253h-50l-184 1434h61l166 -1327l717 1271h30l216 -1271z" />
    <glyph glyph-name="wcircumflex" unicode="&#x175;" horiz-adv-x="1726" 
d="M1048 1508l-271 -265h-66l310 311h62l189 -311h-56zM1726 1106h63l-613 -1106h-46l-189 956l-569 -956h-46l-160 1106h59l145 -1000l576 963h29l191 -966z" />
    <glyph glyph-name="Ycircumflex" unicode="&#x176;" horiz-adv-x="1302" 
d="M902 1851l-266 -248h-68l306 291h63l192 -291h-54zM1412 1434l-728 -870l-112 -564h-62l112 565l-374 869h64l350 -810l678 810h72z" />
    <glyph glyph-name="ycircumflex" unicode="&#x177;" horiz-adv-x="1165" 
d="M780 1508l-271 -265h-65l309 311h62l189 -311h-55zM1157 1106h69l-807 -1208q-115 -171 -203 -229.5t-230 -58.5h-87l11 55h76q90 0 150 24t109.5 75t120.5 156l97 144l-307 1042h64l287 -977z" />
    <glyph glyph-name="Ydieresis" unicode="&#x178;" horiz-adv-x="1302" 
d="M729 1793l-21 -109h-94l22 109h93zM1144 1793l-22 -109h-93l21 109h94zM1412 1434l-728 -870l-112 -564h-62l112 565l-374 869h64l350 -810l678 810h72z" />
    <glyph glyph-name="Zacute" unicode="&#x179;" horiz-adv-x="1089" 
d="M1038 1894l-248 -291h-57l237 291h68zM1200 1434l-4 -15l-1150 -1362h913l-11 -57h-1012l3 17l1148 1359h-846l11 58h948z" />
    <glyph glyph-name="zacute" unicode="&#x17a;" horiz-adv-x="925" 
d="M848 1554l-234 -311h-54l223 311h65zM971 1106l-3 -18l-920 -1032h727l-10 -56h-824l4 19l919 1031h-679l11 56h775z" />
    <glyph glyph-name="Zdotaccent" unicode="&#x17b;" horiz-adv-x="1089" 
d="M869 1793l-21 -109h-94l21 109h94zM1200 1434l-4 -15l-1150 -1362h913l-11 -57h-1012l3 17l1148 1359h-846l11 58h948z" />
    <glyph glyph-name="zdotaccent" unicode="&#x17c;" horiz-adv-x="925" 
d="M714 1464l-22 -109h-91l22 109h91zM971 1106l-3 -18l-920 -1032h727l-10 -56h-824l4 19l919 1031h-679l11 56h775z" />
    <glyph glyph-name="Zcaron" unicode="&#x17d;" horiz-adv-x="1089" 
d="M814 1603h-63l-191 291h55l171 -248l265 248h65zM1200 1434l-4 -15l-1150 -1362h913l-11 -57h-1012l3 17l1148 1359h-846l11 58h948z" />
    <glyph glyph-name="zcaron" unicode="&#x17e;" horiz-adv-x="925" 
d="M652 1243h-60l-186 311h57l165 -265l268 265h66zM971 1106l-3 -18l-920 -1032h727l-10 -56h-824l4 19l919 1031h-679l11 56h775z" />
    <glyph glyph-name="longs" unicode="&#x17f;" horiz-adv-x="507" 
d="M95 1l244 1224q28 142 105.5 206.5t224.5 64.5h144l-11 -56h-130q-124 0 -187.5 -53.5t-87.5 -172.5l-243 -1213h-59z" />
    <glyph glyph-name="florin" unicode="&#x192;" horiz-adv-x="856" 
d="M830 1364h131l-13 -49h-117q-115 0 -195 -59t-114 -160l-65 -191h345l-13 -49h-349l-348 -1005q-84 -240 -318 -240h-63l15 55h50q192 0 263 200l342 990h-226l14 49h229l70 202q42 119 135.5 188t226.5 69z" />
    <glyph glyph-name="AEacute" unicode="&#x1fc;" horiz-adv-x="1769" 
d="M1443 1894l-248 -291h-57l237 291h68zM1821 1376h-711l-122 -608h655l-13 -56h-653l-131 -654h732l-11 -58h-794l75 374h-593l-304 -374h-74l1167 1434h788zM301 430h558l182 910z" />
    <glyph glyph-name="aeacute" unicode="&#x1fd;" horiz-adv-x="2363" 
d="M1564 1554l-234 -311h-54l222 311h66zM2267 536h-1038q-8 -45 -8 -104q0 -177 108.5 -286.5t289.5 -109.5q160 0 280 69t222 209h69q-115 -168 -252.5 -251.5t-320.5 -83.5q-167 0 -283 89t-153 238l-63 -306h-50l52 278q-93 -138 -240 -218.5t-324 -80.5
q-208 0 -335 126t-127 326q0 183 88.5 342.5t248 256.5t351.5 97q172 0 289 -85.5t155 -231.5l61 296h50l-54 -286q91 141 237 224t320 83q206 0 325 -123t119 -321q0 -78 -17 -147zM1837 1070q-218 0 -381 -136t-215 -342h979q7 51 7 85q0 177 -101.5 285t-288.5 108z
M565 36q134 0 251.5 53t198 141t127 204t46.5 241q0 178 -111.5 286.5t-297.5 108.5q-131 0 -248 -52.5t-199 -139.5t-130 -203t-48 -240q0 -177 113 -288t298 -111z" />
    <glyph glyph-name="Oslashacute" unicode="&#x1fe;" horiz-adv-x="1710" 
d="M1315 1894l-248 -291h-58l237 291h69zM1431 1331q102 -77 157 -196t55 -265q0 -179 -67.5 -342t-185 -284t-285.5 -193t-359 -72q-190 0 -333 79l-147 -185h-69l170 213q-113 76 -174.5 199t-61.5 276q0 177 68 341t185.5 285.5t286 194.5t358.5 73q206 0 358 -94
l162 200h67zM192 564q0 -139 56 -249t159 -180l941 1176q-135 84 -323 84q-142 0 -272 -44t-231 -122.5t-176 -182.5t-114.5 -228t-39.5 -254zM749 38q179 0 336 68t265 181.5t170 264.5t62 315q0 131 -50 237t-141 177l-938 -1174q129 -69 296 -69z" />
    <glyph glyph-name="oslashacute" unicode="&#x1ff;" horiz-adv-x="1357" 
d="M1040 1554l-234 -311h-54l223 311h65zM1065 1056q97 -59 150 -159t53 -226q0 -138 -55.5 -265.5t-148.5 -221t-222.5 -149.5t-270.5 -56q-151 0 -263 66l-127 -170h-63l147 196q-85 62 -128 157t-43 208q0 137 56 264.5t149.5 221t223 149.5t269.5 56q126 0 228 -48
l112 152h63zM152 437q0 -209 149 -318l686 914q-92 38 -201 38q-173 0 -320 -89t-230.5 -234.5t-83.5 -310.5zM577 35q130 0 248 52.5t202 139t133.5 202.5t49.5 238q0 112 -47.5 201t-133.5 140l-686 -916q101 -57 234 -57z" />
    <glyph glyph-name="uni0218" unicode="&#x218;" horiz-adv-x="1189" 
d="M495 -18q-197 0 -310.5 92.5t-113.5 253.5q0 44 9 92h62q-9 -43 -9 -83q0 -139 100.5 -217.5t269.5 -78.5q213 0 351.5 117t138.5 293q0 36 -11 67t-27 53t-45.5 41.5t-55.5 32t-68.5 25.5t-72.5 20.5t-79 18.5q-52 12 -82.5 19t-78.5 22t-76.5 29t-63 37t-53.5 48.5
t-32 62t-13 79.5q0 200 150 323t389 123q176 0 277 -85t101 -231q0 -38 -8 -83h-60q8 42 8 75q0 122 -88.5 193.5t-238.5 71.5q-209 0 -338 -104t-129 -271q0 -36 11 -66t27.5 -51.5t46.5 -41t55.5 -31.5t69 -25t72 -20t78.5 -18q52 -11 84 -19t79 -23t76 -29.5t62.5 -38
t52.5 -50t31.5 -63t12.5 -80.5q0 -210 -158.5 -345t-402.5 -135zM393 -374l8 43q56 24 71 90h-56l19 96h97l-18 -88q-22 -109 -121 -141z" />
    <glyph glyph-name="uni0219" unicode="&#x219;" horiz-adv-x="1030" 
d="M405 -21q-171 0 -266 73.5t-95 203.5q0 22 3 43h58q-2 -24 -2 -34q0 -115 84.5 -172.5t224.5 -57.5q185 0 300.5 85t115.5 228q0 42 -18.5 75t-45 52.5t-73 35.5t-83.5 24t-96 18q-48 9 -72.5 13.5t-67.5 15.5t-66 21t-53 27.5t-45.5 38t-26.5 49.5t-11 64q0 155 124 250
t326 95q159 0 251 -68.5t92 -188.5q0 -5 -5 -50h-57q4 30 4 44q0 104 -81 156.5t-210 52.5q-175 0 -280 -77.5t-105 -203.5q0 -32 10.5 -56.5t34 -43t46 -30.5t64 -22.5t69.5 -16t79 -14.5q53 -9 86.5 -16t80 -20t76 -30.5t58 -42.5t42 -60.5t13.5 -80.5q0 -175 -136 -277.5
t-347 -102.5zM302 -391l11 51q55 27 67 98h-51l19 96h97l-18 -88q-9 -53 -41.5 -95.5t-83.5 -61.5z" />
    <glyph glyph-name="uni021A" unicode="&#x21a;" horiz-adv-x="1071" 
d="M1203 1434l-11 -58h-470l-275 -1376h-60l275 1376h-469l11 58h999zM329 -239l19 96h97l-18 -88q-10 -50 -41 -87.5t-81 -53.5l9 43q55 24 70 90h-55z" />
    <glyph glyph-name="uni021B" unicode="&#x21b;" horiz-adv-x="757" 
d="M839 1051h-405q-24 -119 -61 -303q-64 -318 -77 -388.5t-13 -105.5q0 -95 57.5 -146.5t164.5 -51.5h143l-11 -56h-142q-130 0 -201 65t-71 182q0 37 11.5 101t70.5 355q42 207 70 348h-254l10 53h254q9 47 31.5 155.5t34.5 171.5h59q-12 -61 -34 -170t-31 -157h404z
M350 -239l18 96h97l-17 -88q-9 -53 -41.5 -95.5t-83.5 -61.5l10 51q55 27 67 98h-50z" />
    <glyph glyph-name="circumflex" unicode="&#x2c6;" horiz-adv-x="1224" 
d="M1018 1243h-55l-169 265l-271 -265h-65l309 311h62z" />
    <glyph glyph-name="caron" unicode="&#x2c7;" horiz-adv-x="1216" 
d="M993 1554h66l-310 -311h-60l-187 311h58l164 -265z" />
    <glyph glyph-name="breve" unicode="&#x2d8;" horiz-adv-x="1228" 
d="M692 1231q-110 0 -175 64t-65 175q0 36 10 84h51q-9 -44 -9 -79q0 -95 50 -146.5t141 -51.5q248 0 302 277h51q-31 -157 -121.5 -240t-234.5 -83z" />
    <glyph glyph-name="dotaccent" unicode="&#x2d9;" horiz-adv-x="501" 
d="M253 1355l22 109h91l-22 -109h-91z" />
    <glyph glyph-name="ring" unicode="&#x2da;" horiz-adv-x="841" 
d="M555 1218q-78 0 -124 43t-46 113q0 102 67 168.5t172 66.5q77 0 123.5 -44t46.5 -116q0 -98 -67.5 -164.5t-171.5 -66.5zM558 1260q87 0 140.5 55t53.5 133q0 55 -35.5 87.5t-96.5 32.5q-85 0 -139 -53.5t-54 -137.5q0 -53 35.5 -85t95.5 -32z" />
    <glyph glyph-name="ogonek" unicode="&#x2db;" horiz-adv-x="886" 
d="M261 -459q-86 0 -135 41.5t-49 110.5q0 101 95.5 201.5t231.5 147.5l2 -37q-113 -41 -195.5 -126.5t-82.5 -169.5q0 -56 41 -89t112 -33q45 0 94 17l-8 -45q-57 -18 -106 -18z" />
    <glyph glyph-name="tilde" unicode="&#x2dc;" horiz-adv-x="1228" 
d="M918 1271q-51 0 -85.5 25t-73.5 85q-35 54 -62 75t-64 21q-65 0 -104.5 -48t-59.5 -145h-45q50 241 214 241q50 0 83.5 -24.5t74.5 -87.5q35 -53 61.5 -73.5t65.5 -20.5q126 0 158 184h45q-20 -111 -72.5 -171.5t-135.5 -60.5z" />
    <glyph glyph-name="hungarumlaut" unicode="&#x2dd;" horiz-adv-x="950" 
d="M341 1243l220 311h65l-230 -311h-55zM654 1243l227 311h63l-236 -311h-54z" />
    <glyph glyph-name="gravecomb" unicode="&#x300;" 
d="M-62 1243h-52l-111 311h64z" />
    <glyph glyph-name="acutecomb" unicode="&#x301;" 
d="M-292 1243l222 311h65l-233 -311h-54z" />
    <glyph glyph-name="uni0302" unicode="&#x302;" 
d="M-273 1243h-56l-168 265l-271 -265h-65l309 311h62z" />
    <glyph glyph-name="tildecomb" unicode="&#x303;" 
d="M-310 1271q-51 0 -86 25.5t-74 84.5q-35 54 -62 75t-64 21q-65 0 -104.5 -48t-59.5 -145h-45q50 241 215 241q50 0 83 -24.5t74 -87.5q35 -53 61.5 -73.5t65.5 -20.5q126 0 158 184h45q-20 -112 -72 -172t-135 -60z" />
    <glyph glyph-name="uni0304" unicode="&#x304;" 
d="M-673 1387l11 51h641l-11 -51h-641z" />
    <glyph glyph-name="uni0306" unicode="&#x306;" 
d="M-412 1231q-110 0 -174.5 63.5t-64.5 175.5q0 40 9 84h51q-9 -44 -9 -79q0 -94 50 -146t142 -52q247 0 301 277h51q-31 -157 -121.5 -240t-234.5 -83z" />
    <glyph glyph-name="uni0307" unicode="&#x307;" 
d="M-249 1355l22 109h91l-22 -109h-91z" />
    <glyph glyph-name="uni0308" unicode="&#x308;" 
d="M-587 1355l22 109h94l-22 -109h-94zM-248 1355l23 109h93l-22 -109h-94z" />
    <glyph glyph-name="uni030A" unicode="&#x30a;" 
d="M-286 1218q-78 0 -124 43t-46 113q0 103 66.5 169t171.5 66q78 0 124.5 -44t46.5 -116q0 -98 -67.5 -164.5t-171.5 -66.5zM-283 1260q86 0 139.5 55t53.5 133q0 55 -35 87.5t-96 32.5q-85 0 -139 -53.5t-54 -137.5q0 -53 35.5 -85t95.5 -32z" />
    <glyph glyph-name="uni030B" unicode="&#x30b;" 
d="M-620 1243l220 311h65l-230 -311h-55zM-307 1243l227 311h63l-236 -311h-54z" />
    <glyph glyph-name="uni030C" unicode="&#x30c;" 
d="M-225 1554h66l-310 -311h-60l-187 311h58l164 -265z" />
    <glyph glyph-name="uni0312" unicode="&#x312;" 
d="M-533 1346l18 89q9 48 40.5 86t80.5 54l-10 -50q-52 -21 -64 -83h50l-18 -96h-97z" />
    <glyph glyph-name="uni0326" unicode="&#x326;" 
d="M-362 -388l10 51q26 13 44.5 39.5t23.5 58.5h-51l19 96h97l-18 -88q-9 -53 -41.5 -95.5t-83.5 -61.5z" />
    <glyph glyph-name="uni0327" unicode="&#x327;" 
d="M-573 -122q80 -4 127 -46t47 -103q0 -91 -70 -150t-185 -59h-133l8 44h126q92 0 148 47.5t56 114.5q0 51 -40 81.5t-110 30.5h-30l-7 9l80 168l50 2z" />
    <glyph glyph-name="uni0328" unicode="&#x328;" 
d="M-626 -459q-86 0 -135 41.5t-49 110.5q0 101 95.5 201.5t231.5 147.5l2 -37q-113 -41 -195.5 -126.5t-82.5 -169.5q0 -56 41 -89t113 -33q44 0 93 17l-8 -45q-57 -18 -106 -18z" />
    <glyph glyph-name="uni0335" unicode="&#x335;" 
d="M-851 1294l10 52h690l-9 -52h-691z" />
    <glyph glyph-name="uni0337" unicode="&#x337;" 
d="M-803 541l13 62l610 341l-13 -63z" />
    <glyph glyph-name="tonos" unicode="&#x384;" horiz-adv-x="634" 
d="M344 1243l222 311h65l-233 -311h-54z" />
    <glyph glyph-name="dieresistonos" unicode="&#x385;" horiz-adv-x="837" 
d="M293 1243l182 311h60l-189 -311h-53zM137 1364l19 98h86l-20 -98h-85zM592 1364l20 98h85l-19 -98h-86z" />
    <glyph glyph-name="Alphatonos" unicode="&#x386;" horiz-adv-x="1419" 
d="M1198 0l-100 419h-793l-263 -419h-69l897 1434h51l339 -1434h-62zM566 1434l-247 -291h-54l236 291h65zM880 1345l-541 -870h746z" />
    <glyph glyph-name="Epsilontonos" unicode="&#x388;" horiz-adv-x="1290" 
d="M356 1434h66l-248 -291h-54zM1341 1375l-708 1l-120 -598h655l-11 -57h-655l-133 -662h730l-11 -59h-791l286 1434h769z" />
    <glyph glyph-name="Etatonos" unicode="&#x389;" horiz-adv-x="1679" 
d="M356 1434h66l-248 -291h-54zM1571 1434h61l-287 -1434h-61l144 720h-927l-144 -720h-60l286 1434h61l-131 -657h927z" />
    <glyph glyph-name="Iotatonos" unicode="&#x38a;" horiz-adv-x="690" 
d="M120 1143l236 291h66l-248 -291h-54zM297 0l286 1434h61l-287 -1434h-60z" />
    <glyph glyph-name="Omicrontonos" unicode="&#x38c;" horiz-adv-x="1861" 
d="M896 -21q-278 0 -444 163t-166 421q0 178 67.5 341t184.5 284.5t285.5 194t360.5 72.5q278 0 443.5 -163.5t165.5 -422.5q0 -179 -66.5 -341.5t-183 -283.5t-285.5 -193t-362 -72zM162 1143l236 291h66l-248 -291h-54zM902 38q174 0 328.5 65t264 175.5t173.5 264
t64 323.5q0 239 -152 384.5t-403 145.5q-173 0 -327 -65.5t-264 -176.5t-174.5 -264t-64.5 -323q0 -238 152 -383.5t403 -145.5z" />
    <glyph glyph-name="Upsilontonos" unicode="&#x38e;" horiz-adv-x="1619" 
d="M240 1143l236 291h66l-248 -291h-54zM1730 1434l-728 -870l-112 -564h-62l112 565l-374 869h64l350 -810l678 810h72z" />
    <glyph glyph-name="Omegatonos" unicode="&#x38f;" horiz-adv-x="1824" 
d="M1744 871q0 -263 -157 -486.5t-413 -327.5h427l-12 -57h-616l10 56q201 38 362 160t249.5 294.5t88.5 361.5q0 229 -154 376.5t-401 147.5q-170 0 -324 -67t-263.5 -177t-174 -257.5t-64.5 -304.5q0 -200 114 -345.5t309 -188.5l-10 -56h-617l11 57h447
q-147 76 -231 216.5t-84 316.5q0 172 70 331t188.5 276.5t284 187.5t347.5 70q272 0 442.5 -164.5t170.5 -419.5zM492 1434l-248 -291h-54l237 291h65z" />
    <glyph glyph-name="iotadieresistonos" unicode="&#x390;" horiz-adv-x="661" 
d="M323 1243l145 311h55l-154 -311h-46zM172 1366l20 98h86l-20 -98h-86zM589 1366l20 98h85l-20 -98h-85zM418 -6q-135 0 -209.5 65.5t-74.5 184.5q0 32 13 102t82 412q42 210 70 348h59q-150 -746 -157 -794q-5 -34 -5 -60q0 -97 59.5 -149t171.5 -52h129l-11 -57h-127z
" />
    <glyph glyph-name="Alpha" unicode="&#x391;" horiz-adv-x="1390" 
d="M1170 0l-99 419h-794l-263 -419h-68l896 1434h51l340 -1434h-63zM852 1345l-541 -870h747z" />
    <glyph glyph-name="Beta" unicode="&#x392;" horiz-adv-x="1327" 
d="M959 753q93 -31 146.5 -110.5t53.5 -183.5q0 -124 -61 -228.5t-173.5 -167.5t-251.5 -63h-562l288 1434h553q134 0 218.5 -81.5t84.5 -205.5q0 -128 -87.5 -241t-208.5 -153zM448 1375l-118 -591h506q89 0 171.5 50.5t133 133t50.5 171.5q0 102 -69.5 169t-178.5 67h-495
zM676 59q91 0 170.5 32.5t133.5 87.5t85 127.5t31 151.5q0 117 -76 193t-197 76h-505l-134 -668h492z" />
    <glyph glyph-name="Gamma" unicode="&#x393;" horiz-adv-x="1005" 
d="M1128 1434l-11 -56h-668l-276 -1378h-60l286 1434h729z" />
    <glyph glyph-name="uni0394" unicode="&#x394;" horiz-adv-x="1384" 
d="M888 1434l337 -1434h-1279l887 1434h55zM849 1347l-797 -1290h1094z" />
    <glyph glyph-name="Epsilon" unicode="&#x395;" horiz-adv-x="1105" 
d="M1157 1375l-708 1l-120 -598h655l-11 -57h-655l-133 -662h730l-11 -59h-791l286 1434h769z" />
    <glyph glyph-name="Zeta" unicode="&#x396;" horiz-adv-x="1089" 
d="M1200 1434l-4 -15l-1150 -1362h913l-11 -57h-1012l3 17l1148 1359h-846l11 58h948z" />
    <glyph glyph-name="Eta" unicode="&#x397;" horiz-adv-x="1495" 
d="M1387 1434h61l-287 -1434h-61l144 720h-927l-144 -720h-60l286 1434h61l-131 -657h927z" />
    <glyph glyph-name="Theta" unicode="&#x398;" horiz-adv-x="1708" 
d="M741 -21q-184 0 -323 75t-212.5 207t-73.5 302q0 178 67 341t184 284.5t285.5 194t360.5 72.5q278 0 444 -163.5t166 -422.5q0 -179 -67 -341.5t-183.5 -283.5t-285.5 -193t-362 -72zM748 38q181 0 338 67.5t263.5 181t167.5 264t61 315.5q0 237 -151.5 383.5
t-403.5 146.5q-179 0 -336 -68.5t-264 -182.5t-168.5 -264.5t-61.5 -313.5q0 -237 151 -383t404 -146zM392 688l11 58h966l-11 -58h-966z" />
    <glyph glyph-name="Iota" unicode="&#x399;" horiz-adv-x="507" 
d="M113 0l286 1434h61l-287 -1434h-60z" />
    <glyph glyph-name="Kappa" unicode="&#x39a;" horiz-adv-x="1228" 
d="M1350 1434l-728 -692l495 -742h-72l-478 717h-250l-144 -717h-60l286 1434h61l-132 -659h245l694 659h83z" />
    <glyph glyph-name="Lambda" unicode="&#x39b;" horiz-adv-x="1329" 
d="M1166 0h-61l-281 1340l-804 -1340h-69l862 1434h52z" />
    <glyph glyph-name="Mu" unicode="&#x39c;" horiz-adv-x="1931" 
d="M1691 1434h54l-35 -1434h-60l31 1313l-799 -1246h-27l-299 1250l-496 -1317h-64l540 1434h53l298 -1257z" />
    <glyph glyph-name="Nu" unicode="&#x39d;" horiz-adv-x="1527" 
d="M1420 1434h61l-287 -1434h-52l-703 1326l-265 -1326h-61l286 1434h55l700 -1325z" />
    <glyph glyph-name="Xi" unicode="&#x39e;" horiz-adv-x="1228" 
d="M336 1399l11 59h904l-11 -59h-904zM279 720l13 59h744l-13 -59h-744zM44 24l12 60h934l-11 -60h-935z" />
    <glyph glyph-name="Omicron" unicode="&#x39f;" horiz-adv-x="1708" 
d="M741 -21q-184 0 -323 75t-212.5 207t-73.5 302q0 178 67 341t184 284.5t285.5 194t360.5 72.5q278 0 444 -163.5t166 -422.5q0 -179 -67 -341.5t-183.5 -283.5t-285.5 -193t-362 -72zM748 38q174 0 328.5 65t264 175.5t173.5 264t64 323.5q0 239 -152 384.5t-403 145.5
q-173 0 -327 -65.5t-264 -176.5t-174.5 -264t-64.5 -323q0 -238 152 -383.5t403 -145.5z" />
    <glyph glyph-name="Pi" unicode="&#x3a0;" horiz-adv-x="1425" 
d="M399 1434h979l-287 -1434h-61l276 1376h-857l-276 -1376h-60z" />
    <glyph glyph-name="Rho" unicode="&#x3a1;" horiz-adv-x="1226" 
d="M877 1434q167 0 270.5 -97t103.5 -250q0 -138 -69.5 -255.5t-193.5 -187.5t-276 -70h-424l-115 -574h-60l286 1434h478zM713 633q102 0 192 37t152 99.5t97.5 145t35.5 172.5q0 129 -87 208.5t-232 79.5h-422l-149 -742h413z" />
    <glyph glyph-name="Sigma" unicode="&#x3a3;" horiz-adv-x="1114" 
d="M1218 1434l-11 -59h-886l355 -634l-3 -23l-614 -660h902l-11 -58h-1006l5 28l660 711l-371 666l5 29h975z" />
    <glyph glyph-name="Tau" unicode="&#x3a4;" horiz-adv-x="1071" 
d="M1203 1434l-11 -58h-470l-275 -1376h-60l275 1376h-469l11 58h999z" />
    <glyph glyph-name="Upsilon" unicode="&#x3a5;" horiz-adv-x="1302" 
d="M1412 1434l-728 -870l-112 -564h-62l112 565l-374 869h64l350 -810l678 810h72z" />
    <glyph glyph-name="Phi" unicode="&#x3a6;" horiz-adv-x="1613" 
d="M1551 850q0 -159 -64 -306.5t-172.5 -256t-259.5 -173.5t-318 -66l-35 -174h-60l35 174q-252 7 -400.5 156.5t-148.5 379.5q0 160 64 307.5t172.5 256t260 173.5t319.5 67l33 162h61l-33 -163q249 -5 397.5 -155t148.5 -382zM689 105l244 1226q-153 -3 -291.5 -66
t-237.5 -165t-157 -237.5t-58 -279.5q0 -210 136.5 -343.5t363.5 -134.5zM749 106q153 2 291.5 64.5t236 164.5t155 237.5t57.5 279.5q0 211 -135 344t-361 134z" />
    <glyph glyph-name="Chi" unicode="&#x3a7;" horiz-adv-x="1181" 
d="M1292 1434l-622 -688l377 -746h-67l-354 700l-634 -700h-77l679 750l-345 684h67l322 -638l578 638h76z" />
    <glyph glyph-name="Psi" unicode="&#x3a8;" horiz-adv-x="1597" 
d="M1596 1434h61l-89 -452q-56 -281 -249.5 -446.5t-482.5 -165.5h-50l-74 -370h-61l73 370h-39q-235 0 -372 129t-137 345q0 20 1 36.5t4.5 43.5t7.5 49.5t14 72t18.5 92.5t26 130t33.5 166h61q-16 -81 -34 -169.5t-26.5 -131l-18.5 -92.5t-13.5 -71.5t-7 -47t-4.5 -41
t-1 -33.5q0 -193 120 -304.5t333 -111.5h47l202 1002h59l-201 -1002h42q265 0 442 152t228 410z" />
    <glyph glyph-name="uni03A9" unicode="&#x3a9;" horiz-adv-x="1734" 
d="M1654 871q0 -263 -157 -486.5t-413 -327.5h427l-11 -57h-617l10 56q201 38 362 160t249.5 294.5t88.5 361.5q0 229 -154 376.5t-401 147.5q-170 0 -324 -67t-263.5 -177t-174 -257.5t-64.5 -304.5q0 -199 114.5 -345t309.5 -189l-11 -56h-617l11 57h447
q-147 76 -231 216.5t-84 316.5q0 172 70 331t188.5 276.5t284 187.5t347.5 70q272 0 442.5 -164.5t170.5 -419.5z" />
    <glyph glyph-name="Iotadieresis" unicode="&#x3aa;" horiz-adv-x="507" 
d="M333 1684l21 105h91l-21 -105h-91zM527 1684l22 105h91l-21 -105h-92zM113 0l286 1434h61l-287 -1434h-60z" />
    <glyph glyph-name="Upsilondieresis" unicode="&#x3ab;" horiz-adv-x="1302" 
d="M729 1793l-21 -109h-94l22 109h93zM1144 1793l-22 -109h-93l21 109h94zM1412 1434l-728 -870l-112 -564h-62l112 565l-374 869h64l350 -810l678 810h72z" />
    <glyph glyph-name="alphatonos" unicode="&#x3ac;" horiz-adv-x="1437" 
d="M1063 1554l-234 -311h-54l223 311h65zM1296 1106h51l-222 -1106h-52l51 283q-93 -140 -241 -222t-326 -82q-209 0 -336 126.5t-127 327.5q0 137 52.5 263.5t142.5 221.5t218.5 152t272.5 57q175 0 293 -88.5t154 -237.5zM564 36q134 0 251.5 53t198 141t127 204t46.5 241
q0 178 -111.5 286.5t-297.5 108.5q-131 0 -248 -52.5t-198.5 -139.5t-129.5 -203t-48 -240q0 -177 112.5 -288t297.5 -111z" />
    <glyph glyph-name="epsilontonos" unicode="&#x3ad;" horiz-adv-x="980" 
d="M860 1554l-234 -311h-54l223 311h65zM629 1075q-164 0 -265 -83t-101 -209q0 -78 53.5 -126.5t147.5 -48.5h206l-9 -49h-208q-127 0 -221 -90.5t-94 -209.5q0 -101 79 -162.5t211 -61.5q263 0 368 203h60q-50 -122 -159.5 -190.5t-269.5 -68.5q-155 0 -251 77.5
t-96 200.5q0 112 72 203t182 127q-61 25 -95.5 77t-34.5 119q0 149 119 246.5t306 97.5q139 0 225.5 -69t94.5 -185h-56q-7 92 -78 147t-186 55z" />
    <glyph glyph-name="etatonos" unicode="&#x3ae;" horiz-adv-x="1312" 
d="M1047 1554l-233 -311h-54l222 311h65zM813 1127q168 0 260.5 -91.5t92.5 -254.5q0 -18 -0.5 -31.5t-4 -38t-7.5 -48t-13.5 -73t-19.5 -100t-28.5 -142t-38 -186t-50 -245.5t-61.5 -307h-59q49 246 117 583q74 363 88.5 444t14.5 132q0 142 -80.5 221t-228.5 79
q-185 0 -330 -123t-182 -297l-129 -649h-60l221 1106h48l-41 -254q79 125 209 200t282 75z" />
    <glyph glyph-name="iotatonos" unicode="&#x3af;" horiz-adv-x="661" 
d="M314 1243l222 311h65l-233 -311h-54zM418 -6q-135 0 -209.5 65.5t-74.5 184.5q0 32 13 102t82 412q42 210 70 348h59q-150 -746 -157 -794q-5 -34 -5 -60q0 -97 59.5 -149t171.5 -52h129l-11 -57h-127z" />
    <glyph glyph-name="upsilondieresistonos" unicode="&#x3b0;" horiz-adv-x="1290" 
d="M712 1243l182 311h61l-190 -311h-53zM556 1364l19 98h86l-20 -98h-85zM1011 1364l20 98h85l-19 -98h-86zM536 -21q-181 0 -282.5 97t-102.5 266q0 59 75 428q40 199 67 336h60q-20 -99 -39.5 -197t-31.5 -157.5l-24 -119t-18.5 -92t-12.5 -65t-8.5 -47.5t-4.5 -32
t-2.5 -26.5t-0.5 -21.5q0 -148 86.5 -230t242.5 -82q202 0 328 115t168 321l127 634h59l-129 -644q-45 -227 -187.5 -355t-369.5 -128z" />
    <glyph glyph-name="alpha" unicode="&#x3b1;" horiz-adv-x="1437" 
d="M1296 1106h51l-222 -1106h-52l51 283q-93 -140 -241 -222t-326 -82q-209 0 -336 126.5t-127 327.5q0 137 52.5 263.5t142.5 221.5t218.5 152t272.5 57q175 0 293 -88.5t154 -237.5zM564 36q134 0 251.5 53t198 141t127 204t46.5 241q0 178 -111.5 286.5t-297.5 108.5
q-131 0 -248 -52.5t-198.5 -139.5t-129.5 -203t-48 -240q0 -177 112.5 -288t297.5 -111z" />
    <glyph glyph-name="beta" unicode="&#x3b2;" horiz-adv-x="1277" 
d="M940 777q100 -30 154 -105.5t54 -184.5q0 -220 -153.5 -364t-391.5 -144q-300 0 -417 192l-111 -556h-60l265 1328q57 288 196.5 431.5t376.5 143.5q184 0 289 -88t105 -232q0 -143 -85.5 -261t-221.5 -160zM600 36q218 0 354 127.5t136 323.5q0 122 -79.5 193.5
t-220.5 71.5h-271l10 55h270q164 0 278.5 114.5t114.5 272.5q0 123 -89 195.5t-250 72.5q-211 0 -336 -131.5t-178 -395.5l-139 -693q98 -206 400 -206z" />
    <glyph glyph-name="gamma" unicode="&#x3b3;" horiz-adv-x="1132" 
d="M1191 1106l-688 -1050l-89 -445h-58l88 446l-286 1049h60l266 -975l640 975h67z" />
    <glyph glyph-name="delta" unicode="&#x3b4;" horiz-adv-x="1243" 
d="M1267 1439l-10 -55h-821q114 -48 215.5 -108t191 -136.5t154.5 -160.5t102.5 -184t37.5 -204q0 -167 -79 -307t-222 -222.5t-317 -82.5q-193 0 -313.5 115t-120.5 296q0 120 46.5 230.5t127 193t194.5 131.5t241 49q185 0 299 -111q-90 149 -264 278t-410 216l12 62h936z
M521 35q119 0 224.5 45.5t178 121t114.5 175t42 206.5q0 159 -104 258.5t-273 99.5q-120 0 -225.5 -45.5t-177.5 -121t-114 -175t-42 -205.5q0 -159 103 -259t274 -100z" />
    <glyph glyph-name="epsilon" unicode="&#x3b5;" horiz-adv-x="980" 
d="M629 1075q-164 0 -265 -83t-101 -209q0 -78 53.5 -126.5t147.5 -48.5h206l-9 -49h-208q-127 0 -221 -90.5t-94 -209.5q0 -101 79 -162.5t211 -61.5q263 0 368 203h60q-50 -122 -159.5 -190.5t-269.5 -68.5q-155 0 -251 77.5t-96 200.5q0 112 72 203t182 127
q-61 25 -95.5 77t-34.5 119q0 149 119 246.5t306 97.5q139 0 225.5 -69t94.5 -185h-56q-7 92 -78 147t-186 55z" />
    <glyph glyph-name="zeta" unicode="&#x3b6;" horiz-adv-x="1001" 
d="M1179 1448q-386 -267 -536 -383q-342 -265 -451 -462q-59 -108 -59 -207q0 -71 36.5 -127t95.5 -92.5t130 -66.5t142 -57.5t130 -57.5t95.5 -74.5t36.5 -101.5q0 -36 -20.5 -103.5t-40.5 -105.5h-61q22 43 41 100.5t19 91.5q0 43 -28.5 79.5t-75.5 61t-106.5 50.5
t-122 48.5t-122 55t-106.5 70t-75.5 93.5t-28.5 125q0 59 19 120.5t47.5 116.5t80 119t99 114.5t123.5 116t133.5 111.5t149.5 113.5t151 109t157 110.5q7 5 11 8t10.5 7t11.5 8h-728l13 57h838z" />
    <glyph glyph-name="eta" unicode="&#x3b7;" horiz-adv-x="1312" 
d="M813 1127q168 0 260.5 -91.5t92.5 -254.5q0 -18 -0.5 -31.5t-4 -38t-7.5 -48t-13.5 -73t-19.5 -100t-28.5 -142t-38 -186t-50 -245.5t-61.5 -307h-59q49 246 117 583q74 363 88.5 444t14.5 132q0 142 -80.5 221t-228.5 79q-185 0 -330 -123t-182 -297l-129 -649h-60
l221 1106h48l-41 -254q79 125 209 200t282 75z" />
    <glyph glyph-name="theta" unicode="&#x3b8;" horiz-adv-x="1427" 
d="M900 1515q219 0 336.5 -147t117.5 -395q0 -147 -32 -290.5t-96.5 -270.5t-153.5 -223.5t-210.5 -153t-260.5 -56.5q-220 0 -337 146.5t-117 392.5q0 148 32 292.5t96.5 271.5t153 223.5t210.5 153t261 56.5zM896 1457q-130 0 -243 -54.5t-195.5 -149t-139.5 -215.5
t-86 -261h1048q15 97 15 198q0 229 -105 355.5t-294 126.5zM605 36q130 0 243.5 55t196 150.5t139.5 217t85 261.5h-1047q-16 -97 -16 -203q0 -228 105 -354.5t294 -126.5z" />
    <glyph glyph-name="iota" unicode="&#x3b9;" horiz-adv-x="661" 
d="M418 -6q-135 0 -209.5 65.5t-74.5 184.5q0 32 13 102t82 412q42 210 70 348h59q-150 -746 -157 -794q-5 -34 -5 -60q0 -97 59.5 -149t171.5 -52h129l-11 -57h-127z" />
    <glyph glyph-name="kappa" unicode="&#x3ba;" horiz-adv-x="1030" 
d="M1099 1106l-570 -529l388 -577h-70l-368 549h-216l-109 -549h-60l221 1106h60l-100 -501h202l540 501h82z" />
    <glyph glyph-name="lambda" unicode="&#x3bb;" horiz-adv-x="1128" 
d="M948 0h-60l-214 993l-684 -993h-69l737 1069l-31 140q-25 109 -67.5 149t-131.5 40h-55l9 57h58q106 0 161 -54.5t83 -182.5z" />
    <glyph glyph-name="uni03BC" unicode="&#x3bc;" horiz-adv-x="1316" 
d="M1164 1106h60l-221 -1106h-47l43 263q-77 -123 -210 -203.5t-269 -80.5q-276 0 -328 216l-118 -585h-58l299 1496h60q-22 -107 -44 -216t-34.5 -170.5t-25 -123.5t-18.5 -93.5t-11.5 -62.5t-7.5 -48t-3 -32.5t-1 -32.5q0 -290 303 -290q166 0 317.5 126t185.5 294z" />
    <glyph glyph-name="nu" unicode="&#x3bd;" horiz-adv-x="1146" 
d="M1140 1106h65l-714 -1106h-50l-283 1106h60l261 -1022z" />
    <glyph glyph-name="xi" unicode="&#x3be;" horiz-adv-x="1024" 
d="M751 1510q169 0 276 -101t102 -253h-58q0 136 -90.5 217.5t-231.5 81.5q-195 0 -317.5 -112t-122.5 -279q0 -104 68 -169t178 -65h256l-10 -55h-259q-108 0 -202 -62t-149 -163t-55 -212q0 -43 11.5 -80t28.5 -63.5t47.5 -51.5t56 -40t68.5 -32.5t70 -26.5t74 -23
q53 -16 84 -26.5t72 -29.5t63.5 -38t39 -48t16.5 -64q0 -38 -20.5 -99t-43.5 -106h-61q21 41 41.5 101t20.5 89q0 26 -13 47.5t-30.5 36.5t-54.5 31t-66 26.5t-83 27.5q-48 15 -82 27t-76.5 31t-72.5 38t-60.5 46.5t-49 58.5t-30.5 72t-12 88q0 164 98 297.5t249 177.5
q-80 29 -126.5 98.5t-46.5 160.5q0 194 141 320t362 126z" />
    <glyph glyph-name="omicron" unicode="&#x3bf;" horiz-adv-x="1357" 
d="M568 -21q-213 0 -343.5 127t-130.5 329q0 141 54 269t147 221t222.5 147.5t273.5 54.5q214 0 344 -127t130 -329q0 -141 -54 -269t-147 -221t-222.5 -147.5t-273.5 -54.5zM573 36q132 0 250 51t201.5 136.5t132 202.5t48.5 244q0 179 -114.5 289.5t-304.5 110.5
q-176 0 -321.5 -86t-228 -231.5t-82.5 -316.5q0 -179 114.5 -289.5t304.5 -110.5z" />
    <glyph glyph-name="pi" unicode="&#x3c0;" horiz-adv-x="1292" 
d="M315 1106h885l-221 -1106h-59l211 1050h-767l-210 -1050h-60z" />
    <glyph glyph-name="rho" unicode="&#x3c1;" horiz-adv-x="1388" 
d="M842 1127q205 0 329.5 -128t124.5 -328q0 -182 -87.5 -340.5t-244.5 -255t-345 -96.5q-169 0 -287.5 92t-148.5 242l-141 -703h-60l188 944q50 254 233 413.5t439 159.5zM625 36q129 0 244 53t195 140.5t126.5 202.5t46.5 237q0 178 -110.5 289t-293.5 111
q-174 0 -316.5 -89t-220.5 -233t-78 -310q0 -178 111 -289.5t296 -111.5z" />
    <glyph glyph-name="uni03C2" unicode="&#x3c2;" horiz-adv-x="1222" 
d="M808 -390q21 43 41 104t20 93q0 25 -9.5 47t-21.5 37.5t-38.5 31t-45.5 25t-58.5 22t-61 18.5t-68.5 19q-59 16 -94.5 27t-91 32.5t-90 42.5t-75 55.5t-63.5 73.5t-38.5 93.5t-15.5 119.5q0 142 51.5 267t141 215t217.5 142t275 52q179 0 299.5 -93.5t150.5 -256.5h-59
q-31 138 -136 215t-260 77q-178 0 -320.5 -82t-221 -221t-78.5 -307q0 -79 29 -142t61 -99t106.5 -71t111.5 -47t130 -38q1 -1 2 -1q52 -14 83.5 -23.5t76 -25.5t71 -33.5t52.5 -40t38 -52.5t12 -65q0 -38 -20.5 -100.5t-43.5 -110.5h-59z" />
    <glyph glyph-name="sigma" unicode="&#x3c3;" horiz-adv-x="1425" 
d="M1491 1107l-11 -56h-487q117 -47 183.5 -152t66.5 -242q0 -136 -51.5 -260t-141 -216.5t-218.5 -147t-275 -54.5q-208 0 -336.5 126t-128.5 324q0 137 51.5 261t141 216t218 146.5t275.5 54.5h713zM1184 655q0 176 -113 286t-301 110q-134 0 -251 -51t-196.5 -136
t-125 -197t-45.5 -234q0 -177 113 -287t301 -110q177 0 320 86.5t220.5 228t77.5 304.5z" />
    <glyph glyph-name="tau" unicode="&#x3c4;" horiz-adv-x="954" 
d="M984 1050h-410q-35 -174 -83 -410q-48 -240 -58.5 -297.5t-10.5 -90.5q0 -97 60 -149t172 -52h129l-11 -57h-128q-135 0 -209.5 65.5t-74.5 184.5q0 31 13 100.5t71 358.5q42 207 70 347h-402l11 56h871z" />
    <glyph glyph-name="upsilon" unicode="&#x3c5;" horiz-adv-x="1290" 
d="M536 -21q-181 0 -282.5 97t-102.5 266q0 59 75 428q40 199 67 336h60q-20 -99 -39.5 -197t-31.5 -157.5l-24 -119t-18.5 -92t-12.5 -65t-8.5 -47.5t-4.5 -32t-2.5 -26.5t-0.5 -21.5q0 -148 86.5 -230t242.5 -82q202 0 328 115t168 321l127 634h59l-129 -644
q-45 -227 -187.5 -355t-369.5 -128z" />
    <glyph glyph-name="phi" unicode="&#x3c6;" horiz-adv-x="1462" 
d="M1369 662q0 -189 -92 -344t-257.5 -246t-372.5 -93l-75 -369h-58l75 369q-220 1 -357.5 130t-137.5 330q0 229 141.5 410.5t381.5 249.5l9 -53q-219 -65 -346 -232.5t-127 -373.5q0 -177 122 -289t325 -114l212 1069h52q230 0 367.5 -121.5t137.5 -322.5zM657 37
q141 2 263 52t207 134t133.5 197.5t48.5 239.5q0 176 -121 281.5t-329 106.5z" />
    <glyph glyph-name="chi" unicode="&#x3c7;" horiz-adv-x="991" 
d="M1041 1106l-502 -530l318 -576h-65l-294 533l-505 -533h-76l550 581l-287 525h65l264 -484l457 484h75z" />
    <glyph glyph-name="psi" unicode="&#x3c8;" horiz-adv-x="1574" 
d="M1453 1106h59l-116 -580q-48 -244 -220.5 -395.5t-418.5 -151.5h-54l-73 -369h-62l73 369h-47q-198 0 -317 120t-119 312q0 14 0.5 26.5t1.5 25.5t4 32t5.5 36.5t9 50t12 62t16.5 82t20.5 100l25.5 127.5t31 153h60q-114 -569 -120 -616q-6 -39 -6 -74q0 -170 104 -274.5
t279 -104.5h55l213 1067h59l-213 -1067h46q221 0 377 139t200 359z" />
    <glyph glyph-name="omega" unicode="&#x3c9;" horiz-adv-x="1851" 
d="M1702 1106q35 -146 35 -307q0 -129 -18.5 -245.5t-60 -222t-102.5 -182.5t-151.5 -122.5t-201.5 -45.5q-138 0 -230.5 71.5t-106.5 186.5q-56 -117 -169 -187.5t-261 -70.5q-155 0 -238 99t-83 279q0 169 72.5 371t182.5 376h63q-110 -173 -184 -375.5t-74 -365.5
q0 -158 70 -242.5t203 -84.5q157 0 269 91t141 233l80 394h57q-18 -89 -44 -214q-42 -215 -43 -243q0 -113 82.5 -187.5t209.5 -74.5q101 0 182.5 43.5t135.5 116.5t90.5 172.5t52.5 206t16 221.5q0 157 -36 309h61z" />
    <glyph glyph-name="iotadieresis" unicode="&#x3ca;" horiz-adv-x="661" 
d="M161 1355l22 109h93l-22 -109h-93zM500 1355l22 109h93l-22 -109h-93zM418 -6q-135 0 -209.5 65.5t-74.5 184.5q0 32 13 102t82 412q42 210 70 348h59q-150 -746 -157 -794q-5 -34 -5 -60q0 -97 59.5 -149t171.5 -52h129l-11 -57h-127z" />
    <glyph glyph-name="upsilondieresis" unicode="&#x3cb;" horiz-adv-x="1290" 
d="M588 1355l22 109h94l-22 -109h-94zM927 1355l22 109h94l-22 -109h-94zM536 -21q-181 0 -282.5 97t-102.5 266q0 59 75 428q40 199 67 336h60q-20 -99 -39.5 -197t-31.5 -157.5l-24 -119t-18.5 -92t-12.5 -65t-8.5 -47.5t-4.5 -32t-2.5 -26.5t-0.5 -21.5q0 -148 86.5 -230
t242.5 -82q202 0 328 115t168 321l127 634h59l-129 -644q-45 -227 -187.5 -355t-369.5 -128z" />
    <glyph glyph-name="omicrontonos" unicode="&#x3cc;" horiz-adv-x="1357" 
d="M774 1243l223 311h65l-234 -311h-54zM568 -21q-213 0 -343.5 127t-130.5 329q0 141 54 269t147 221t222.5 147.5t273.5 54.5q214 0 344 -127t130 -329q0 -141 -54 -269t-147 -221t-222.5 -147.5t-273.5 -54.5zM573 36q132 0 250 51t201.5 136.5t132 202.5t48.5 244
q0 179 -114.5 289.5t-304.5 110.5q-176 0 -321.5 -86t-228 -231.5t-82.5 -316.5q0 -179 114.5 -289.5t304.5 -110.5z" />
    <glyph glyph-name="upsilontonos" unicode="&#x3cd;" horiz-adv-x="1290" 
d="M742 1243l222 311h65l-233 -311h-54zM536 -21q-181 0 -282.5 97t-102.5 266q0 59 75 428q40 199 67 336h60q-20 -99 -39.5 -197t-31.5 -157.5l-24 -119t-18.5 -92t-12.5 -65t-8.5 -47.5t-4.5 -32t-2.5 -26.5t-0.5 -21.5q0 -148 86.5 -230t242.5 -82q202 0 328 115
t168 321l127 634h59l-129 -644q-45 -227 -187.5 -355t-369.5 -128z" />
    <glyph glyph-name="omegatonos" unicode="&#x3ce;" horiz-adv-x="1851" 
d="M1303 1554l-234 -311h-54l223 311h65zM1702 1106q35 -146 35 -307q0 -129 -18.5 -245.5t-60 -222t-102.5 -182.5t-151.5 -122.5t-201.5 -45.5q-138 0 -230.5 71.5t-106.5 186.5q-56 -117 -169 -187.5t-261 -70.5q-155 0 -238 99t-83 279q0 169 72.5 371t182.5 376h63
q-110 -173 -184 -375.5t-74 -365.5q0 -158 70 -242.5t203 -84.5q157 0 269 91t141 233l80 394h57q-18 -89 -44 -214q-42 -215 -43 -243q0 -113 82.5 -187.5t209.5 -74.5q101 0 182.5 43.5t135.5 116.5t90.5 172.5t52.5 206t16 221.5q0 157 -36 309h61z" />
    <glyph glyph-name="uni0401" unicode="&#x401;" horiz-adv-x="1105" 
d="M724 1792l-22 -110h-94l22 110h94zM1063 1792l-22 -110h-94l23 110h93zM1157 1375l-708 1l-120 -598h655l-11 -57h-655l-133 -662h730l-11 -59h-791l286 1434h769z" />
    <glyph glyph-name="uni0402" unicode="&#x402;" horiz-adv-x="1486" 
d="M986 962q189 0 298 -103t109 -276q0 -169 -71.5 -305t-210.5 -217t-322 -81h-13l12 60h9q165 0 288.5 74.5t185 195t61.5 268.5q0 150 -94.5 237t-260.5 87q-104 0 -202 -36t-176 -98l-153 -768h-61l275 1375h-467l11 59h997l-11 -59h-469l-107 -534q172 121 372 121z
" />
    <glyph glyph-name="uni0403" unicode="&#x403;" horiz-adv-x="1005" 
d="M994 1894l-248 -291h-57l236 291h69zM1128 1434l-11 -56h-668l-276 -1378h-60l286 1434h729z" />
    <glyph glyph-name="uni0404" unicode="&#x404;" horiz-adv-x="1609" 
d="M1020 1396q-151 0 -288 -50.5t-240 -138t-175 -205t-103 -251.5h814l-12 -57h-814q-10 -60 -10 -129q0 -236 150 -381.5t399 -145.5q474 0 709 418h65q-114 -226 -314 -351.5t-464 -125.5q-181 0 -319.5 75t-212.5 207.5t-74 302.5q0 141 43 275t123.5 244.5t189 194.5
t247.5 130.5t290 46.5q240 0 394.5 -122t193.5 -331h-61q-41 187 -180 290.5t-351 103.5z" />
    <glyph glyph-name="uni0405" unicode="&#x405;" horiz-adv-x="1189" 
d="M495 -18q-197 0 -310.5 92.5t-113.5 253.5q0 44 9 92h62q-9 -43 -9 -83q0 -139 100.5 -217.5t269.5 -78.5q213 0 351.5 117t138.5 293q0 36 -11 67t-27 53t-45.5 41.5t-55.5 32t-68.5 25.5t-72.5 20.5t-79 18.5q-52 12 -82.5 19t-78.5 22t-76.5 29t-63 37t-53.5 48.5
t-32 62t-13 79.5q0 200 150 323t389 123q176 0 277 -85t101 -231q0 -38 -8 -83h-60q8 42 8 75q0 122 -88.5 193.5t-238.5 71.5q-209 0 -338 -104t-129 -271q0 -36 11 -66t27.5 -51.5t46.5 -41t55.5 -31.5t69 -25t72 -20t78.5 -18q52 -11 84 -19t79 -23t76 -29.5t62.5 -38
t52.5 -50t31.5 -63t12.5 -80.5q0 -210 -158.5 -345t-402.5 -135z" />
    <glyph glyph-name="uni0406" unicode="&#x406;" horiz-adv-x="507" 
d="M113 0l286 1434h61l-287 -1434h-60z" />
    <glyph glyph-name="uni0407" unicode="&#x407;" horiz-adv-x="507" 
d="M333 1684l21 105h91l-21 -105h-91zM527 1684l22 105h91l-21 -105h-92zM113 0l286 1434h61l-287 -1434h-60z" />
    <glyph glyph-name="uni0408" unicode="&#x408;" horiz-adv-x="1198" 
d="M418 -21q-172 0 -278.5 106t-106.5 275q0 49 12 112h60q-11 -50 -11 -104q0 -145 88.5 -237.5t238.5 -92.5q189 0 322.5 121.5t170.5 307.5l194 967h61l-195 -978q-41 -211 -191 -344t-365 -133z" />
    <glyph glyph-name="uni0409" unicode="&#x409;" horiz-adv-x="2220" 
d="M1755 861q169 0 272 -96.5t103 -250.5q0 -219 -152 -366.5t-388 -147.5h-499l275 1376h-699l-269 -993q-53 -194 -159.5 -288.5t-282.5 -94.5h-36l11 60h32q151 0 239.5 80t133.5 247l284 1047h774v-1l44 -3l-114 -569h431zM1591 58q139 0 249.5 62t169.5 165.5t59 226.5
q0 131 -87.5 211t-233.5 80h-435l-150 -745h428z" />
    <glyph glyph-name="uni040A" unicode="&#x40a;" horiz-adv-x="2078" 
d="M1612 805q177 0 275 -86.5t98 -230.5q0 -217 -142 -352.5t-386 -135.5h-481l149 745h-803l-149 -745h-60l286 1434h61l-126 -632h803l126 632l61 -4l-125 -625h413zM1460 58q219 0 341.5 119t122.5 308q0 123 -83.5 192.5t-235.5 69.5h-418l-138 -689h411z" />
    <glyph glyph-name="uni040B" unicode="&#x40b;" horiz-adv-x="1513" 
d="M1010 926q185 0 287 -90t102 -258q0 -19 -1 -35.5t-4.5 -42.5t-7.5 -48t-13.5 -70t-18 -90.5l-25.5 -127.5t-33 -164h-61q14 68 29.5 145t23.5 117.5t17.5 87t13.5 69.5t8.5 49t6 41t2.5 30t1 31q0 146 -87.5 222t-252.5 76q-167 0 -392 -79l-158 -789h-60l275 1376h-469
l11 58h999l-11 -58h-469l-106 -528q218 78 393 78z" />
    <glyph glyph-name="uni040E" unicode="&#x40e;" horiz-adv-x="1181" 
d="M1058 1642l-11 -50h-551l11 50h551zM1247 1434h72l-681 -1018q-62 -93 -105 -152.5t-87.5 -110.5t-79.5 -78.5t-78.5 -46.5t-87 -25.5t-103.5 -6.5h-77l11 58h78q50 0 85.5 5t71.5 21.5t63 37t64.5 63t71.5 88.5t88 123l-356 1042h65l334 -977z" />
    <glyph glyph-name="uni040F" unicode="&#x40f;" horiz-adv-x="1501" 
d="M1454 1434l-287 -1434h-499l-61 -310h-61l62 310h-495l286 1434h61l-275 -1377h931l277 1377h61z" />
    <glyph glyph-name="uni0410" unicode="&#x410;" horiz-adv-x="1390" 
d="M1170 0l-99 419h-794l-263 -419h-68l896 1434h51l340 -1434h-63zM852 1345l-541 -870h747z" />
    <glyph glyph-name="uni0411" unicode="&#x411;" horiz-adv-x="1251" 
d="M1229 1375h-780l-108 -537h423q171 0 274 -92t103 -241q0 -216 -152.5 -360.5t-394.5 -144.5h-481l286 1434h841zM757 779h-427l-145 -720h411q218 0 351 127t133 314q0 127 -87.5 203t-235.5 76z" />
    <glyph glyph-name="uni0412" unicode="&#x412;" horiz-adv-x="1327" 
d="M959 753q93 -31 146.5 -110.5t53.5 -183.5q0 -124 -61 -228.5t-173.5 -167.5t-251.5 -63h-562l288 1434h553q134 0 218.5 -81.5t84.5 -205.5q0 -128 -87.5 -241t-208.5 -153zM448 1375l-118 -591h506q89 0 171.5 50.5t133 133t50.5 171.5q0 102 -69.5 169t-178.5 67h-495
zM676 59q91 0 170.5 32.5t133.5 87.5t85 127.5t31 151.5q0 117 -76 193t-197 76h-505l-134 -668h492z" />
    <glyph glyph-name="uni0413" unicode="&#x413;" horiz-adv-x="1005" 
d="M1128 1434l-11 -56h-668l-276 -1378h-60l286 1434h729z" />
    <glyph glyph-name="uni0414" unicode="&#x414;" horiz-adv-x="1523" 
d="M1457 1434l-276 -1377h160l-72 -366h-58l61 309h-1289l-62 -309h-57l72 366h102q40 17 71.5 43t63.5 67t65.5 114.5t69.5 165.5t83.5 241.5t99.5 321t125 424.5h841zM662 1377q-75 -260 -127 -431.5t-101.5 -322t-84.5 -238.5t-73 -158.5t-71.5 -107.5t-73.5 -62h988
l264 1320h-721z" />
    <glyph glyph-name="uni0415" unicode="&#x415;" horiz-adv-x="1105" 
d="M1157 1375l-708 1l-120 -598h655l-11 -57h-655l-133 -662h730l-11 -59h-791l286 1434h769z" />
    <glyph glyph-name="uni0416" unicode="&#x416;" horiz-adv-x="1826" 
d="M1943 1434l-693 -692l460 -742h-71l-445 717h-214l-144 -717h-61l144 717h-204l-730 -717h-84l760 747l-418 687h69l402 -659h216l132 659h61l-132 -659h208l662 659h82z" />
    <glyph glyph-name="uni0417" unicode="&#x417;" horiz-adv-x="1161" 
d="M811 764q83 -31 131 -108.5t48 -178.5q0 -214 -152 -355t-392 -141q-178 0 -284 98t-107 264v29h59q0 -5 -0.5 -13.5t-0.5 -13.5q0 -138 91.5 -222t245.5 -84q215 0 347 125t132 311q0 116 -70.5 189.5t-185.5 73.5h-199l10 56h199q144 0 248.5 106.5t104.5 244.5
q0 113 -86 182.5t-230 69.5q-159 0 -265 -77t-159 -212h-61q54 159 179.5 252t308.5 93q169 0 270.5 -83.5t101.5 -219.5q0 -126 -80.5 -236t-203.5 -150z" />
    <glyph glyph-name="uni0418" unicode="&#x418;" horiz-adv-x="1507" 
d="M1417 1434h43l-287 -1434h-60l260 1305l-1219 -1305h-41l286 1434h61l-261 -1303z" />
    <glyph glyph-name="uni0419" unicode="&#x419;" horiz-adv-x="1507" 
d="M1239 1642l-11 -50h-550l11 50h550zM1417 1434h43l-287 -1434h-60l260 1305l-1219 -1305h-41l286 1434h61l-261 -1303z" />
    <glyph glyph-name="uni041A" unicode="&#x41a;" horiz-adv-x="1228" 
d="M1350 1434l-728 -692l495 -742h-72l-478 717h-250l-144 -717h-60l286 1434h61l-132 -659h245l694 659h83z" />
    <glyph glyph-name="uni041B" unicode="&#x41b;" horiz-adv-x="1484" 
d="M617 1434h821l-287 -1434h-60l275 1376h-701l-268 -989q-53 -196 -160 -291.5t-285 -95.5h-32l11 60h29q151 0 241 84t137 257z" />
    <glyph glyph-name="uni041C" unicode="&#x41c;" horiz-adv-x="1931" 
d="M1691 1434h54l-35 -1434h-60l31 1313l-799 -1246h-27l-299 1250l-496 -1317h-64l540 1434h53l298 -1257z" />
    <glyph glyph-name="uni041D" unicode="&#x41d;" horiz-adv-x="1495" 
d="M1387 1434h61l-287 -1434h-61l144 720h-927l-144 -720h-60l286 1434h61l-131 -657h927z" />
    <glyph glyph-name="uni041E" unicode="&#x41e;" horiz-adv-x="1708" 
d="M741 -21q-184 0 -323 75t-212.5 207t-73.5 302q0 178 67 341t184 284.5t285.5 194t360.5 72.5q278 0 444 -163.5t166 -422.5q0 -179 -67 -341.5t-183.5 -283.5t-285.5 -193t-362 -72zM748 38q174 0 328.5 65t264 175.5t173.5 264t64 323.5q0 239 -152 384.5t-403 145.5
q-173 0 -327 -65.5t-264 -176.5t-174.5 -264t-64.5 -323q0 -238 152 -383.5t403 -145.5z" />
    <glyph glyph-name="uni041F" unicode="&#x41f;" horiz-adv-x="1425" 
d="M399 1434h979l-287 -1434h-61l276 1376h-857l-276 -1376h-60z" />
    <glyph glyph-name="uni0420" unicode="&#x420;" horiz-adv-x="1226" 
d="M877 1434q167 0 270.5 -97t103.5 -250q0 -138 -69.5 -255.5t-193.5 -187.5t-276 -70h-424l-115 -574h-60l286 1434h478zM713 633q102 0 192 37t152 99.5t97.5 145t35.5 172.5q0 129 -87 208.5t-232 79.5h-422l-149 -742h413z" />
    <glyph glyph-name="uni0421" unicode="&#x421;" horiz-adv-x="1591" 
d="M733 -21q-276 0 -438.5 157t-162.5 414q0 182 67 347.5t183 288.5t283.5 195.5t358.5 72.5q229 0 382 -120t183 -329h-60q-33 184 -167 287t-341 103q-143 0 -273 -44t-230 -123t-173.5 -184t-112 -231t-38.5 -259q0 -234 145.5 -375t396.5 -141q231 0 407 108t289 308
h65q-119 -228 -313.5 -351.5t-450.5 -123.5z" />
    <glyph glyph-name="uni0422" unicode="&#x422;" horiz-adv-x="1071" 
d="M1203 1434l-11 -58h-470l-275 -1376h-60l275 1376h-469l11 58h999z" />
    <glyph glyph-name="uni0423" unicode="&#x423;" horiz-adv-x="1181" 
d="M1247 1434h72l-681 -1018q-62 -93 -105 -152.5t-87.5 -110.5t-79.5 -78.5t-78.5 -46.5t-87 -25.5t-103.5 -6.5h-77l11 58h78q50 0 85.5 5t71.5 21.5t63 37t64.5 63t71.5 88.5t88 123l-356 1042h65l334 -977z" />
    <glyph glyph-name="uni0424" unicode="&#x424;" horiz-adv-x="1738" 
d="M1672 868q0 -140 -44 -273.5t-125 -243.5t-189.5 -193.5t-244.5 -130.5t-283 -48l-43 -217h-60l43 217q-179 3 -314.5 80t-207.5 209t-72 298q0 174 70 336t188.5 282.5t284 194t347.5 75.5l38 198h60l-38 -198q178 -3 313 -79.5t206 -208t71 -298.5zM797 38
q168 3 320.5 72.5t260 183t170.5 263.5t63 309q0 231 -147 378t-394 151zM193 568q0 -231 149 -378.5t396 -151.5l272 1357q-167 -3 -319.5 -73t-261 -183.5t-172.5 -263t-64 -307.5z" />
    <glyph glyph-name="uni0425" unicode="&#x425;" horiz-adv-x="1181" 
d="M1292 1434l-622 -688l377 -746h-67l-354 700l-634 -700h-77l679 750l-345 684h67l322 -638l578 638h76z" />
    <glyph glyph-name="uni0426" unicode="&#x426;" horiz-adv-x="1437" 
d="M1370 1434l-275 -1377h160l-73 -366h-58l62 309h-1073l286 1434h61l-275 -1377h849l276 1377h60z" />
    <glyph glyph-name="uni0427" unicode="&#x427;" horiz-adv-x="1267" 
d="M1160 1434h61l-287 -1434h-61l125 622q-228 -81 -408 -81q-192 0 -299.5 92t-107.5 262q0 17 1 31.5t4.5 39.5t6.5 44.5t12 66t17 85t24.5 120t30.5 152.5h61q-15 -75 -31 -156t-24 -120.5t-16.5 -84.5t-12 -64.5t-7 -42.5t-4 -35.5t-0.5 -28.5q0 -146 90.5 -223.5
t263.5 -77.5t411 83z" />
    <glyph glyph-name="uni0428" unicode="&#x428;" horiz-adv-x="1984" 
d="M1876 1434h61l-287 -1434h-1537l286 1434h61l-275 -1377h677l276 1377h60l-276 -1377h680z" />
    <glyph glyph-name="uni0429" unicode="&#x429;" horiz-adv-x="2004" 
d="M1937 1434l-275 -1377h162l-74 -366h-58l62 309h-1641l286 1434h61l-275 -1377h677l276 1377h60l-276 -1377h680l274 1377h61z" />
    <glyph glyph-name="uni042A" unicode="&#x42a;" horiz-adv-x="1409" 
d="M945 861q169 0 272 -96.5t103 -249.5q0 -220 -152 -367.5t-388 -147.5h-499l275 1375h-371l11 59h432l-114 -573h431zM782 57q210 0 343.5 132.5t133.5 322.5q0 131 -87.5 211.5t-233.5 80.5h-435l-149 -747h428z" />
    <glyph glyph-name="uni042B" unicode="&#x42b;" horiz-adv-x="1728" 
d="M777 861q169 0 272 -96.5t103 -249.5q0 -220 -152 -367.5t-388 -147.5h-499l286 1434h61l-114 -573h431zM1620 1434h61l-287 -1434h-61zM613 57q210 0 344 132.5t134 322.5q0 131 -87.5 211.5t-233.5 80.5h-436l-149 -747h428z" />
    <glyph glyph-name="uni042C" unicode="&#x42c;" horiz-adv-x="1241" 
d="M777 861q169 0 272 -96.5t103 -249.5q0 -220 -152 -367.5t-388 -147.5h-499l286 1434h61l-114 -573h431zM613 57q210 0 344 132.5t134 322.5q0 131 -87.5 211.5t-233.5 80.5h-436l-149 -747h428z" />
    <glyph glyph-name="uni042D" unicode="&#x42d;" horiz-adv-x="1609" 
d="M940 1455q270 0 436 -164.5t166 -422.5q0 -177 -67.5 -339.5t-184.5 -283.5t-284.5 -193.5t-356.5 -72.5q-243 0 -401.5 128t-192.5 349h60q36 -197 178.5 -307.5t359.5 -110.5q154 0 292 51.5t241.5 140.5t175 208.5t100.5 255.5h-815l12 57h813q9 68 9 117
q0 234 -149.5 381t-395.5 147q-444 0 -698 -394h-65q127 223 321 338t446 115z" />
    <glyph glyph-name="uni042E" unicode="&#x42e;" horiz-adv-x="2109" 
d="M1439 1455q275 0 439.5 -163.5t164.5 -422.5q0 -178 -67 -341t-183.5 -284t-284 -193t-357.5 -72q-273 0 -437 163t-164 421q0 63 9 125h-248l-138 -688h-60l286 1434h61l-138 -688h246q30 148 107.5 278t189.5 225.5t261 150.5t313 55zM1158 38q178 0 333 67.5
t261.5 181t167.5 264.5t61 315q0 237 -150 383.5t-399 146.5q-176 0 -331 -68.5t-261 -182.5t-167.5 -265t-61.5 -313q0 -237 149.5 -383t397.5 -146z" />
    <glyph glyph-name="uni042F" unicode="&#x42f;" horiz-adv-x="1296" 
d="M728 1434h522l-286 -1434h-62l125 625h-431l-516 -625h-74l521 629q-147 13 -233 101t-86 222q0 206 145.5 344t374.5 138zM571 682h468l138 694h-452q-136 0 -241.5 -58.5t-160 -154t-54.5 -209.5q0 -120 82.5 -195t219.5 -77z" />
    <glyph glyph-name="uni0430" unicode="&#x430;" horiz-adv-x="1439" 
d="M1296 1106h51l-222 -1106h-52l51 283q-93 -140 -241 -222t-326 -82q-209 0 -336 126.5t-127 327.5q0 137 52.5 263.5t142.5 221.5t218.5 152t272.5 57q175 0 293 -88.5t154 -237.5zM564 36q134 0 251.5 53t198 141t127 204t46.5 241q0 178 -111.5 286.5t-297.5 108.5
q-131 0 -248 -52.5t-198.5 -139.5t-129.5 -203t-48 -240q0 -177 112.5 -288t297.5 -111z" />
    <glyph glyph-name="uni0431" unicode="&#x431;" horiz-adv-x="1337" 
d="M1065 1469q-319 -71 -536 -251.5t-295 -477.5q86 146 232.5 225.5t327.5 79.5q199 0 319.5 -117.5t120.5 -304.5q0 -134 -47.5 -252.5t-132 -205t-206.5 -136.5t-264 -50q-201 0 -324 126t-124 334q0 267 100.5 486t306 376t496.5 221l330 73l-13 -61zM785 992
q-161 0 -296 -73t-213.5 -201.5t-78.5 -284.5q0 -176 105.5 -286.5t282.5 -110.5q129 0 240 47t187 126.5t119 186t43 224.5q0 165 -106.5 268.5t-282.5 103.5z" />
    <glyph glyph-name="uni0432" unicode="&#x432;" horiz-adv-x="1173" 
d="M829 581q79 -24 124 -84.5t45 -141.5q0 -154 -106 -254.5t-278 -100.5h-521l224 1106h498q115 0 183.5 -60.5t68.5 -160.5q0 -108 -66.5 -191t-171.5 -113zM365 1050l-90 -441h438q124 0 209.5 76.5t85.5 192.5q0 79 -53.5 125.5t-147.5 46.5h-442zM611 56
q148 0 237.5 85t89.5 216q0 88 -64 143t-170 55h-440l-101 -499h448z" />
    <glyph glyph-name="uni0433" unicode="&#x433;" horiz-adv-x="897" 
d="M968 1106l-11 -55h-594l-210 -1051h-59l221 1106h653z" />
    <glyph glyph-name="uni0434" unicode="&#x434;" horiz-adv-x="1288" 
d="M1170 1106l-210 -1049h160l-73 -366h-56l62 309h-1077l-61 -309h-56l72 366h125q30 22 52 47t43 56t44.5 91.5t45.5 122t56.5 181.5t67 235.5t86.5 315.5h719zM496 1051q-79 -295 -123.5 -450t-87.5 -276.5t-75.5 -174.5t-75.5 -93h766l199 994h-603z" />
    <glyph glyph-name="uni0435" unicode="&#x435;" horiz-adv-x="1294" 
d="M1198 536h-1038q-8 -45 -8 -104q0 -177 108.5 -286.5t289.5 -109.5q312 0 502 278h69q-215 -335 -572 -335q-205 0 -330 127t-125 327q0 136 51.5 262.5t140 221.5t215.5 152.5t269 57.5q206 0 325.5 -124t119.5 -323q0 -70 -17 -144zM768 1070q-218 0 -381 -136
t-215 -342h979q7 51 7 85q0 177 -101.5 285t-288.5 108z" />
    <glyph glyph-name="uni0436" unicode="&#x436;" horiz-adv-x="1531" 
d="M1589 1106l-543 -529l363 -577h-68l-348 549h-195l-110 -549h-59l110 549h-188l-565 -549h-80l598 581l-335 525h67l320 -502h194l100 502h59l-100 -502h187l516 502h77z" />
    <glyph glyph-name="uni0437" unicode="&#x437;" horiz-adv-x="978" 
d="M663 579q67 -27 105 -86t38 -135q0 -167 -128 -273t-334 -106q-142 0 -232.5 67.5t-106.5 200.5h56q13 -105 91 -158t195 -53q180 0 290.5 90.5t110.5 229.5q0 87 -58.5 144t-156.5 57h-205l10 52h203q121 0 204.5 76.5t83.5 183.5q0 90 -72.5 147t-192.5 57
q-245 0 -345 -194h-58q47 115 151.5 181.5t254.5 66.5q142 0 230.5 -72t88.5 -183q0 -101 -62.5 -180t-160.5 -113z" />
    <glyph glyph-name="uni0438" unicode="&#x438;" horiz-adv-x="1265" 
d="M1138 1106h35l-221 -1106h-57l196 985l-961 -985h-36l221 1106h58l-197 -985z" />
    <glyph glyph-name="uni0439" unicode="&#x439;" horiz-adv-x="1265" 
d="M1034 1330l-9 -49h-512l9 49h512zM1138 1106h35l-221 -1106h-57l196 985l-961 -985h-36l221 1106h58l-197 -985z" />
    <glyph glyph-name="uni043A" unicode="&#x43a;" horiz-adv-x="1030" 
d="M1099 1106l-570 -529l388 -577h-70l-368 549h-216l-109 -549h-60l221 1106h60l-100 -501h202l540 501h82z" />
    <glyph glyph-name="uni043B" unicode="&#x43b;" horiz-adv-x="1236" 
d="M486 1106h659l-221 -1106h-59l211 1052h-546l-222 -713q-59 -193 -139 -266.5t-240 -73.5h-16l11 56h10q132 0 198.5 64t117.5 229z" />
    <glyph glyph-name="uni043C" unicode="&#x43c;" horiz-adv-x="1611" 
d="M1406 0h-55l-17 995l-617 -949h-22l-235 953l-415 -999h-62l459 1106h46l235 -952l619 952h48z" />
    <glyph glyph-name="uni043D" unicode="&#x43d;" horiz-adv-x="1282" 
d="M1132 1106h59l-221 -1106h-59l109 544h-759l-108 -544h-59l221 1106h59l-101 -506h758z" />
    <glyph glyph-name="uni043E" unicode="&#x43e;" horiz-adv-x="1357" 
d="M568 -21q-213 0 -343.5 127t-130.5 329q0 141 54 269t147 221t222.5 147.5t273.5 54.5q214 0 344 -127t130 -329q0 -141 -54 -269t-147 -221t-222.5 -147.5t-273.5 -54.5zM573 36q132 0 250 51t201.5 136.5t132 202.5t48.5 244q0 179 -114.5 289.5t-304.5 110.5
q-176 0 -321.5 -86t-228 -231.5t-82.5 -316.5q0 -179 114.5 -289.5t304.5 -110.5z" />
    <glyph glyph-name="uni043F" unicode="&#x43f;" horiz-adv-x="1292" 
d="M315 1106h885l-221 -1106h-59l211 1050h-767l-210 -1050h-60z" />
    <glyph glyph-name="uni0440" unicode="&#x440;" horiz-adv-x="1435" 
d="M883 1127q211 0 336 -125.5t125 -325.5q0 -186 -87 -345t-245 -255.5t-351 -96.5q-171 0 -290 87.5t-157 235.5l-139 -692h-59l299 1496h47l-46 -286q94 140 242.5 223.5t324.5 83.5zM660 36q134 0 251.5 53t198.5 141t127.5 204t46.5 241q0 177 -111 286t-297 109
q-174 0 -319 -89t-225.5 -234.5t-80.5 -312.5q0 -176 112.5 -287t296.5 -111z" />
    <glyph glyph-name="uni0441" unicode="&#x441;" horiz-adv-x="1261" 
d="M561 -21q-209 0 -338 128t-129 328q0 183 89 341.5t248.5 254.5t352.5 96q178 0 296 -93.5t148 -251.5h-59q-32 135 -134.5 211.5t-253.5 76.5q-133 0 -251 -52.5t-199.5 -140t-129 -203t-47.5 -238.5q0 -176 113 -288t297 -112q169 0 299.5 75.5t216.5 215.5h64
q-90 -164 -240 -256t-343 -92z" />
    <glyph glyph-name="uni0442" unicode="&#x442;" horiz-adv-x="1032" 
d="M1110 1106l-10 -55h-458l-211 -1051h-58l210 1051h-458l11 55h974z" />
    <glyph glyph-name="uni0443" unicode="&#x443;" horiz-adv-x="1165" 
d="M1157 1106h69l-807 -1208q-115 -171 -203 -229.5t-230 -58.5h-87l11 55h76q90 0 150 24t109.5 75t120.5 156l97 144l-307 1042h64l287 -977z" />
    <glyph glyph-name="uni0444" unicode="&#x444;" horiz-adv-x="1464" 
d="M1372 671q0 -145 -54 -272.5t-148.5 -219.5t-230 -145.5t-291.5 -54.5l-66 -327h-59l66 327q-224 4 -359.5 127.5t-135.5 326.5q0 145 54 273t149 220.5t230 146t291 54.5l62 308h59l-61 -308q223 -4 358.5 -128.5t135.5 -327.5zM660 38q142 2 264.5 52.5t207.5 135
t133 199.5t48 243q0 180 -120.5 289t-327.5 111zM153 435q0 -180 120 -287.5t328 -109.5l205 1030q-142 -2 -264.5 -52.5t-207.5 -136t-133 -200.5t-48 -244z" />
    <glyph glyph-name="uni0445" unicode="&#x445;" horiz-adv-x="991" 
d="M1041 1106l-502 -530l318 -576h-65l-294 533l-505 -533h-76l550 581l-287 525h65l264 -484l457 484h75z" />
    <glyph glyph-name="uni0446" unicode="&#x446;" horiz-adv-x="1275" 
d="M1158 1106l-210 -1051h161l-72 -364h-56l62 309h-949l221 1106h59l-211 -1051h726l211 1051h58z" />
    <glyph glyph-name="uni0447" unicode="&#x447;" horiz-adv-x="1081" 
d="M930 1106h58l-221 -1106h-58l97 485q-166 -66 -329 -66q-159 0 -252.5 77.5t-93.5 223.5q0 15 0.5 28.5t3.5 33.5t5.5 35t9 49.5t11.5 59t16.5 81t20.5 99.5h59q-63 -311 -66 -348q-1 -15 -1 -32q0 -120 76.5 -184.5t219.5 -64.5q150 0 333 73z" />
    <glyph glyph-name="uni0448" unicode="&#x448;" horiz-adv-x="1726" 
d="M1576 1106h59l-221 -1106h-1320l221 1106h59l-210 -1050h572l210 1050h58l-210 -1050h572z" />
    <glyph glyph-name="uni0449" unicode="&#x449;" horiz-adv-x="1753" 
d="M1635 1106l-210 -1051h161l-72 -364h-56l61 309h-1425l221 1106h59l-210 -1051h572l210 1051h58l-210 -1051h572l210 1051h59z" />
    <glyph glyph-name="uni044A" unicode="&#x44a;" horiz-adv-x="1226" 
d="M822 704q136 0 219.5 -77.5t83.5 -204.5q0 -180 -122.5 -301t-317.5 -121h-421l210 1052h-353l10 54h412l-80 -402h359zM685 55q170 0 275 105t105 257q0 105 -69 168.5t-185 63.5h-359l-119 -594h352z" />
    <glyph glyph-name="uni044B" unicode="&#x44b;" horiz-adv-x="1415" 
d="M651 704q137 0 221 -78t84 -205q0 -179 -122.5 -300t-316.5 -121h-423l221 1106h59l-81 -402h358zM1264 1106h60l-221 -1106h-60zM515 55q170 0 275 105t105 257q0 105 -69 169t-185 64h-358l-120 -595h352z" />
    <glyph glyph-name="uni044C" unicode="&#x44c;" horiz-adv-x="1056" 
d="M651 704q137 0 221 -78t84 -205q0 -179 -122.5 -300t-316.5 -121h-423l221 1106h59l-81 -402h358zM515 55q170 0 275 105t105 257q0 105 -69 169t-185 64h-358l-120 -595h352z" />
    <glyph glyph-name="uni044D" unicode="&#x44d;" horiz-adv-x="1280" 
d="M723 1127q209 0 337.5 -127.5t128.5 -326.5q0 -136 -53 -263t-143.5 -222t-219.5 -152t-272 -57q-189 0 -311.5 110.5t-143.5 289.5h59q19 -157 127.5 -251t272.5 -94q114 0 218 39.5t182 107.5t133 158.5t78 192.5h-588l12 53h586q6 43 6 88q0 178 -113 289t-299 111
q-177 0 -315 -89.5t-221 -244.5h-61q84 179 241 283.5t359 104.5z" />
    <glyph glyph-name="uni044E" unicode="&#x44e;" horiz-adv-x="1734" 
d="M1179 1127q209 0 336.5 -127t127.5 -329q0 -138 -53 -265t-143.5 -221t-219 -150t-272.5 -56q-206 0 -332.5 127t-126.5 329q0 54 5 90h-242l-105 -529h-60l221 1110h60l-105 -525h241q50 235 234.5 390.5t433.5 155.5zM960 37q176 0 320.5 89t223.5 233.5t79 310.5
q0 179 -111.5 288.5t-297.5 109.5q-131 0 -247.5 -52t-197 -139t-127 -202t-46.5 -239q0 -179 110.5 -289t293.5 -110z" />
    <glyph glyph-name="uni044F" unicode="&#x44f;" horiz-adv-x="1118" 
d="M568 1106h459l-222 -1106h-58l93 466h-378l-405 -466h-73l409 471q-108 13 -171 82t-63 172q0 165 113.5 273t295.5 108zM445 523h407l105 526h-391q-158 0 -252.5 -92.5t-94.5 -229.5q0 -93 61.5 -148.5t164.5 -55.5z" />
    <glyph glyph-name="uni0451" unicode="&#x451;" horiz-adv-x="1294" 
d="M711 1464l-22 -109h-94l22 109h94zM1050 1464l-22 -109h-94l22 109h94zM1198 536h-1038q-8 -45 -8 -104q0 -177 108.5 -286.5t289.5 -109.5q312 0 502 278h69q-215 -335 -572 -335q-205 0 -330 127t-125 327q0 136 51.5 262.5t140 221.5t215.5 152.5t269 57.5
q206 0 325.5 -124t119.5 -323q0 -70 -17 -144zM768 1070q-218 0 -381 -136t-215 -342h979q7 51 7 85q0 177 -101.5 285t-288.5 108z" />
    <glyph glyph-name="uni0452" unicode="&#x452;" horiz-adv-x="1312" 
d="M811 1127q168 0 261 -92.5t93 -256.5q0 -19 -1 -35.5t-3 -35t-8 -50l-12 -63t-18.5 -93.5t-25 -122.5t-34.5 -168t-43 -213.5q-34 -176 -160 -281t-302 -105h-32l12 56h21q155 0 263.5 90.5t138.5 244.5q24 122 48 240t37 180.5t25.5 124.5t17.5 89.5t9.5 56.5t5.5 44.5
t1 35.5q0 144 -79 220t-228 76q-178 0 -329.5 -126.5t-186.5 -300.5l-128 -642h-60l250 1250h-198l10 52h199l39 194h59l-39 -194h433l-10 -52h-433l-79 -396q81 123 211.5 198t274.5 75z" />
    <glyph glyph-name="uni0453" unicode="&#x453;" horiz-adv-x="897" 
d="M877 1554l-234 -311h-54l223 311h65zM968 1106l-11 -55h-594l-210 -1051h-59l221 1106h653z" />
    <glyph glyph-name="uni0454" unicode="&#x454;" horiz-adv-x="1280" 
d="M778 1073q-226 0 -393.5 -140.5t-216.5 -347.5h588l-11 -53h-588q-6 -45 -6 -90q0 -180 113.5 -294t298.5 -114q178 0 318 92t224 253h61q-84 -183 -243 -291.5t-363 -108.5q-207 0 -336.5 131t-129.5 333q0 135 53 260.5t144 218.5t219.5 149t271.5 56q188 0 310.5 -106
t142.5 -282h-58q-19 151 -127 242.5t-272 91.5z" />
    <glyph glyph-name="uni0455" unicode="&#x455;" horiz-adv-x="1030" 
d="M405 -21q-171 0 -266 73.5t-95 203.5q0 22 3 43h58q-2 -24 -2 -34q0 -115 84.5 -172.5t224.5 -57.5q185 0 300.5 85t115.5 228q0 42 -18.5 75t-45 52.5t-73 35.5t-83.5 24t-96 18q-48 9 -72.5 13.5t-67.5 15.5t-66 21t-53 27.5t-45.5 38t-26.5 49.5t-11 64q0 155 124 250
t326 95q159 0 251 -68.5t92 -188.5q0 -5 -5 -50h-57q4 30 4 44q0 104 -81 156.5t-210 52.5q-175 0 -280 -77.5t-105 -203.5q0 -32 10.5 -56.5t34 -43t46 -30.5t64 -22.5t69.5 -16t79 -14.5q53 -9 86.5 -16t80 -20t76 -30.5t58 -42.5t42 -60.5t13.5 -80.5q0 -175 -136 -277.5
t-347 -102.5z" />
    <glyph glyph-name="uni0456" unicode="&#x456;" horiz-adv-x="466" 
d="M346 1355l22 109h91l-22 -109h-91zM94 0l221 1106h60l-221 -1106h-60z" />
    <glyph glyph-name="uni0457" unicode="&#x457;" horiz-adv-x="466" 
d="M198 1355l22 109h91l-22 -109h-91zM502 1355l22 109h92l-22 -109h-92zM94 0l221 1106h60l-221 -1106h-60z" />
    <glyph glyph-name="uni0458" unicode="&#x458;" horiz-adv-x="491" 
d="M368 1355l22 109h91l-22 -109h-91zM-271 -390l10 56h36q134 0 219.5 72.5t112.5 202.5l233 1165h59l-233 -1172q-30 -152 -133 -238t-259 -86h-45z" />
    <glyph glyph-name="uni0459" unicode="&#x459;" horiz-adv-x="1775" 
d="M1370 704q136 0 219.5 -77.5t83.5 -204.5q0 -180 -122 -301t-317 -121h-422l210 1053h-493l-223 -719q-60 -192 -137.5 -263.5t-236.5 -71.5h-20l11 56h14q130 0 195.5 63t115.5 225l238 763h605l-81 -402h360zM1233 55q170 0 275 105t105 257q0 105 -69 168.5t-185 63.5
h-360l-118 -594h352z" />
    <glyph glyph-name="uni045A" unicode="&#x45a;" horiz-adv-x="1724" 
d="M1332 647q134 0 210 -67.5t76 -182.5q0 -175 -109.5 -286t-300.5 -111h-407l116 578h-649l-115 -578h-59l221 1106h59l-94 -472h648l94 472h59l-91 -459h342zM1207 56q167 0 259 95t92 242q0 93 -62.5 145.5t-173.5 52.5h-344l-107 -535h336z" />
    <glyph glyph-name="uni045B" unicode="&#x45b;" horiz-adv-x="1312" 
d="M811 1127q168 0 261 -92.5t93 -256.5q0 -21 -1 -37.5t-5.5 -47t-9.5 -58t-17.5 -91.5t-25 -125t-36.5 -180.5t-48 -238.5h-60q22 109 43.5 216.5t34 169.5t24.5 123t18 92.5t11.5 61.5t7.5 47t3 32t1 32q0 141 -79.5 218t-227.5 77q-196 0 -338 -123.5t-178 -303.5
l-128 -642h-60l250 1250h-206l9 52h208l39 194h59l-39 -194h424l-10 -52h-424l-77 -384q78 120 203.5 190.5t280.5 70.5z" />
    <glyph glyph-name="uni045C" unicode="&#x45c;" horiz-adv-x="1030" 
d="M870 1554l-233 -311h-54l222 311h65zM1099 1106l-570 -529l388 -577h-70l-368 549h-216l-109 -549h-60l221 1106h60l-100 -501h202l540 501h82z" />
    <glyph glyph-name="uni045D" unicode="&#x45d;" horiz-adv-x="1265" 
d="M795 1243h-53l-111 311h64zM1138 1106h35l-221 -1106h-57l196 985l-961 -985h-36l221 1106h58l-197 -985z" />
    <glyph glyph-name="uni045E" unicode="&#x45e;" horiz-adv-x="1165" 
d="M1001 1330l-9 -49h-511l9 49h511zM1157 1106h69l-807 -1208q-115 -171 -203 -229.5t-230 -58.5h-87l11 55h76q90 0 150 24t109.5 75t120.5 156l97 144l-307 1042h64l287 -977z" />
    <glyph glyph-name="uni045F" unicode="&#x45f;" horiz-adv-x="1316" 
d="M1224 1106l-221 -1106h-425l-62 -310h-58l62 310h-426l221 1106h59l-210 -1050h791l210 1050h59z" />
    <glyph glyph-name="uni0490" unicode="&#x490;" horiz-adv-x="1007" 
d="M1171 1649l-53 -272h-669l-276 -1377h-60l286 1434h671l43 215h58z" />
    <glyph glyph-name="uni0491" unicode="&#x491;" horiz-adv-x="897" 
d="M1020 1364l-63 -313h-593l-211 -1051h-59l221 1106h595l52 258h58z" />
    <glyph glyph-name="Wgrave" unicode="&#x1e80;" horiz-adv-x="2072" 
d="M1262 1603h-53l-133 291h64zM2114 1434h68l-747 -1434h-49l-211 1253l-705 -1253h-50l-184 1434h61l166 -1327l717 1271h30l216 -1271z" />
    <glyph glyph-name="wgrave" unicode="&#x1e81;" horiz-adv-x="1726" 
d="M1030 1243h-53l-111 311h64zM1726 1106h63l-613 -1106h-46l-189 956l-569 -956h-46l-160 1106h59l145 -1000l576 963h29l191 -966z" />
    <glyph glyph-name="Wacute" unicode="&#x1e82;" horiz-adv-x="2072" 
d="M1496 1894l-248 -291h-57l236 291h69zM2114 1434h68l-747 -1434h-49l-211 1253l-705 -1253h-50l-184 1434h61l166 -1327l717 1271h30l216 -1271z" />
    <glyph glyph-name="wacute" unicode="&#x1e83;" horiz-adv-x="1726" 
d="M1217 1554l-234 -311h-53l222 311h65zM1726 1106h63l-613 -1106h-46l-189 956l-569 -956h-46l-160 1106h59l145 -1000l576 963h29l191 -966z" />
    <glyph glyph-name="Wdieresis" unicode="&#x1e84;" horiz-adv-x="2072" 
d="M1120 1793l-21 -109h-94l22 109h93zM1535 1793l-22 -109h-93l21 109h94zM2114 1434h68l-747 -1434h-49l-211 1253l-705 -1253h-50l-184 1434h61l166 -1327l717 1271h30l216 -1271z" />
    <glyph glyph-name="wdieresis" unicode="&#x1e85;" horiz-adv-x="1726" 
d="M916 1464l-22 -109h-94l22 109h94zM1255 1464l-22 -109h-94l22 109h94zM1726 1106h63l-613 -1106h-46l-189 956l-569 -956h-46l-160 1106h59l145 -1000l576 963h29l191 -966z" />
    <glyph glyph-name="uni1E9E" unicode="&#x1e9e;" horiz-adv-x="1329" 
d="M1284 1434l-5 -21l-445 -516q179 -8 281 -101.5t102 -247.5q0 -241 -166.5 -394.5t-437.5 -153.5h-185l11 59h181q239 0 387.5 137t148.5 345q0 140 -100 222t-273 82h-51l3 21l440 510h-316q-428 0 -513 -427l-190 -949h-61l192 961q46 231 189.5 352t381.5 121h426z
" />
    <glyph glyph-name="Ygrave" unicode="&#x1ef2;" horiz-adv-x="1302" 
d="M870 1603h-52l-133 291h63zM1412 1434l-728 -870l-112 -564h-62l112 565l-374 869h64l350 -810l678 810h72z" />
    <glyph glyph-name="ygrave" unicode="&#x1ef3;" horiz-adv-x="1165" 
d="M762 1243h-53l-110 311h63zM1157 1106h69l-807 -1208q-115 -171 -203 -229.5t-230 -58.5h-87l11 55h76q90 0 150 24t109.5 75t120.5 156l97 144l-307 1042h64l287 -977z" />
    <glyph glyph-name="endash" unicode="&#x2013;" horiz-adv-x="1316" 
d="M155 541l11 58h1004l-10 -58h-1005z" />
    <glyph glyph-name="emdash" unicode="&#x2014;" horiz-adv-x="1832" 
d="M155 541l12 58h1520l-11 -58h-1521z" />
    <glyph glyph-name="quoteleft" unicode="&#x2018;" horiz-adv-x="380" 
d="M256 1193l24 118q32 155 151 218l-11 -50q-72 -45 -99 -165h71l-24 -121h-112z" />
    <glyph glyph-name="quoteright" unicode="&#x2019;" horiz-adv-x="374" 
d="M249 1121l11 51q72 45 99 165h-71l24 121h112l-24 -118q-32 -156 -151 -219z" />
    <glyph glyph-name="quotesinglbase" unicode="&#x201a;" horiz-adv-x="389" 
d="M8 -216l10 51q72 45 99 165h-71l24 121h112l-23 -116q-34 -157 -151 -221z" />
    <glyph glyph-name="quotedblleft" unicode="&#x201c;" horiz-adv-x="624" 
d="M257 1199l24 118q32 155 151 218l-11 -51q-72 -45 -99 -165h71l-24 -120h-112zM499 1199l24 118q32 155 151 218l-11 -51q-72 -45 -99 -165h71l-24 -120h-112z" />
    <glyph glyph-name="quotedblright" unicode="&#x201d;" horiz-adv-x="616" 
d="M249 1121l11 51q72 45 99 165h-71l24 121h112l-24 -118q-32 -156 -151 -219zM491 1121l11 51q72 45 99 165h-71l24 121h112l-24 -118q-32 -156 -151 -219z" />
    <glyph glyph-name="quotedblbase" unicode="&#x201e;" horiz-adv-x="626" 
d="M6 -216l11 51q72 45 99 165h-71l24 121h112l-24 -118q-32 -156 -151 -219zM248 -216l11 51q72 45 99 165h-71l24 121h112l-24 -118q-32 -156 -151 -219z" />
    <glyph glyph-name="dagger" unicode="&#x2020;" horiz-adv-x="1040" 
d="M1067 986l-12 -54h-433l-202 -1014h-59l203 1014h-431l12 54h430l89 448h59l-90 -448h434z" />
    <glyph glyph-name="daggerdbl" unicode="&#x2021;" horiz-adv-x="1110" 
d="M1091 932h-430l-102 -511h432l-12 -54h-431l-90 -449h-58l89 449h-432l12 54h431l102 511h-432l12 54h431l90 448h58l-89 -448h432z" />
    <glyph glyph-name="bullet" unicode="&#x2022;" horiz-adv-x="602" 
d="M289 494q-39 0 -62.5 24t-23.5 61q0 55 38.5 91t90.5 36q40 0 64 -23.5t24 -62.5q0 -52 -39 -89t-92 -37z" />
    <glyph glyph-name="ellipsis" unicode="&#x2026;" horiz-adv-x="864" 
d="M47 0l24 123h94l-24 -123h-94zM297 0l24 123h93l-24 -123h-93zM546 0l24 123h94l-25 -123h-93z" />
    <glyph glyph-name="perthousand" unicode="&#x2030;" horiz-adv-x="2183" 
d="M407 806q-109 0 -173.5 61.5t-64.5 162.5q0 146 100 247.5t249 101.5q109 0 173 -61.5t64 -162.5q0 -146 -99.5 -247.5t-248.5 -101.5zM175 -2l1097 1365h65l-1098 -1365h-64zM411 856q123 0 208.5 85t85.5 210q0 82 -51.5 130.5t-139.5 48.5q-123 0 -207.5 -85
t-86.5 -210q-1 -82 50.5 -130.5t140.5 -48.5zM1023 -8q-108 0 -172.5 60.5t-64.5 160.5q0 144 99 244.5t246 100.5q108 0 171.5 -60.5t63.5 -160.5q0 -144 -98 -244.5t-245 -100.5zM1726 -8q-108 0 -172 60.5t-64 160.5q0 144 99 244.5t246 100.5q108 0 171.5 -60.5
t63.5 -160.5q0 -144 -98.5 -244.5t-245.5 -100.5zM1027 42q122 0 205 84.5t83 206.5q0 81 -50.5 128t-137.5 47q-122 0 -205.5 -83.5t-83.5 -207.5q0 -80 51 -127.5t138 -47.5zM1730 42q122 0 205.5 84.5t83.5 206.5q0 81 -50.5 128t-137.5 47q-123 0 -206.5 -84t-83.5 -207
q0 -80 51 -127.5t138 -47.5z" />
    <glyph glyph-name="guilsinglleft" unicode="&#x2039;" horiz-adv-x="665" 
d="M626 967l-460 -424l285 -416h-68l-283 412l2 20l443 408h81z" />
    <glyph glyph-name="guilsinglright" unicode="&#x203a;" horiz-adv-x="667" 
d="M282 967l283 -412l-3 -22l-438 -406h-82l459 426l-286 414h67z" />
    <glyph glyph-name="fraction" unicode="&#x2044;" horiz-adv-x="294" 
d="M-416 -61l1140 1556h57l-1140 -1556h-57z" />
    <glyph glyph-name="Euro" unicode="&#x20ac;" horiz-adv-x="1331" 
d="M1120 1342q-236 0 -430 -128t-293 -333h812l-25 -52h-810q-56 -140 -56 -286h735l-25 -52h-708q17 -207 162 -332.5t369 -125.5q121 0 234 36l-12 -56q-111 -35 -231 -35q-247 0 -405 142t-175 371h-201l25 52h174q1 148 52 286h-179l25 52h175q102 229 314 372.5
t471 143.5q168 0 298 -59l-24 -51q-116 55 -272 55z" />
    <glyph glyph-name="uni20BD" unicode="&#x20bd;" horiz-adv-x="1212" 
d="M724 561h-400l-42 -211h562l-11 -48h-561l-60 -302h-59l61 302h-167l9 48h167l43 212h-166l9 51h167l150 749h454q155 0 251 -89t96 -230q0 -199 -146 -340.5t-357 -141.5zM474 1309l-139 -695h390q123 0 226 59.5t160.5 157t57.5 209.5q0 119 -82 194t-216 75h-397z" />
    <glyph glyph-name="uni2113" unicode="&#x2113;" horiz-adv-x="909" 
d="M415 28q117 0 191.5 69t102.5 197h49q-31 -151 -118.5 -234t-226.5 -83q-115 0 -179.5 64t-64.5 177q0 46 36 227q-85 -38 -169 -65l9 53q85 30 171 69q12 61 52 259.5t70 348.5q70 345 359 345q113 0 176 -60t63 -165q0 -111 -55 -223t-150.5 -209t-214 -179.5
t-254.5 -147.5q-42 -214 -42 -249q0 -94 50.5 -144t144.5 -50zM389 1106q-112 -557 -116 -576q126 63 233.5 139.5t193.5 165t135.5 190t49.5 201.5q0 86 -49.5 132t-142.5 46q-128 0 -200.5 -74.5t-103.5 -223.5z" />
    <glyph glyph-name="uni2116" unicode="&#x2116;" horiz-adv-x="2222" 
d="M1355 1362h59l-273 -1362h-49l-669 1261l-252 -1261h-59l273 1362h51l666 -1258zM1807 593q-111 0 -179.5 65t-68.5 168q0 146 107.5 248.5t257.5 102.5q111 0 178.5 -65.5t67.5 -167.5q0 -147 -106.5 -249t-256.5 -102zM1918 1129q-127 0 -218 -88t-91 -211
q0 -84 55.5 -136t147.5 -52q131 0 219.5 89.5t88.5 208.5q0 84 -56 136.5t-146 52.5zM1411 284l11 53h664l-12 -53h-663z" />
    <glyph glyph-name="uni2117" unicode="&#x2117;" horiz-adv-x="1742" 
d="M1047 1450q289 0 461 -159.5t172 -418.5q0 -181 -72 -346t-194.5 -285t-294.5 -191t-363 -71q-287 0 -457.5 159t-170.5 418q0 182 71 347t192.5 285t292.5 191t363 71zM758 23q182 0 345.5 68t279 182.5t183.5 270.5t68 326q0 242 -159.5 389.5t-429.5 147.5
q-183 0 -346 -68t-277.5 -183t-181.5 -271t-67 -327q0 -242 158.5 -388.5t426.5 -146.5zM1096 1172q114 0 184 -66.5t70 -170.5q0 -150 -106.5 -252.5t-267.5 -102.5h-298l-79 -396h-46l199 988h344zM980 622q141 0 233 90t92 223q0 88 -58 141.5t-156 53.5h-302l-102 -508
h293z" />
    <glyph glyph-name="trademark" unicode="&#x2122;" horiz-adv-x="1746" 
d="M877 1397h-192l-95 -475h-39l96 475h-195l7 37h426zM1441 1434h38l-16 -512h-38l14 444l-287 -444h-16l-109 449l-166 -449h-39l189 512h36l108 -445z" />
    <glyph glyph-name="estimated" unicode="&#x212e;" horiz-adv-x="1574" 
d="M1511 616h-1067v-374q160 -147 383 -147q126 0 243 47t197 129l148 -3q-94 -136 -255.5 -212t-332.5 -76q-188 0 -345 91t-248 248t-91 345q0 138 55 264.5t147 218.5t218.5 146.5t263.5 54.5q135 0 262 -54.5t220 -145t149.5 -213t56.5 -251.5q0 -29 -4 -68zM827 1232
q-107 0 -206 -39.5t-177 -111.5v-352h768v352q-78 71 -178 111t-207 40z" />
    <glyph glyph-name="uni2150" unicode="&#x2150;" horiz-adv-x="1593" 
d="M1259 1495h56l-1140 -1556h-56zM233 684l140 704h-150l9 46h202l-149 -750h-52zM1081 749h484l-3 -11l-447 -738h-56l429 703h-415z" />
    <glyph glyph-name="uni2151" unicode="&#x2151;" horiz-adv-x="1630" 
d="M1258 1495h57l-1141 -1556h-56zM232 684l140 704h-150l9 46h202l-149 -750h-52zM1343 765q93 0 151 -55.5t58 -139.5q0 -122 -136 -300l-214 -285h-59l217 288q31 42 47 67q-69 -48 -161 -48q-91 0 -149 54.5t-58 137.5q0 118 87.5 199.5t216.5 81.5zM1090 487
q0 -68 46 -110t122 -42q103 0 173.5 66t70.5 165q0 68 -45.5 109t-121.5 41q-106 0 -175.5 -68t-69.5 -161z" />
    <glyph glyph-name="uni2152" unicode="&#x2152;" horiz-adv-x="2011" 
d="M118 -61l1140 1556h57l-1141 -1556h-56zM232 684l140 704h-150l9 46h202l-149 -750h-52zM1684 765q103 0 159.5 -69.5t56.5 -193.5q0 -128 -43 -245t-129.5 -195.5t-196.5 -78.5q-103 0 -159.5 70.5t-56.5 194.5q0 94 25.5 185.5t71.5 166t117 120t155 45.5zM1072 704
l8 45h203l-149 -749h-52l140 704h-150zM1536 34q95 0 169 74.5t109.5 179.5t35.5 213q0 103 -43.5 158t-126.5 55q-72 0 -133 -43t-99.5 -111.5t-60 -150t-21.5 -161.5q0 -102 44 -158t126 -56z" />
    <glyph glyph-name="uni2153" unicode="&#x2153;" horiz-adv-x="1615" 
d="M1258 1495h57l-1141 -1556h-56zM232 684l140 704h-150l9 46h202l-149 -750h-52zM1536 749l-3 -16l-285 -270h11q90 -1 147 -58t57 -139q0 -119 -81 -200.5t-210 -81.5q-96 0 -151.5 59.5t-51.5 162.5h51q-2 -82 39 -127.5t115 -45.5q107 0 173 68.5t66 164.5
q0 66 -47.5 109t-120.5 43h-79l6 27l269 257h-339l9 47h425z" />
    <glyph glyph-name="uni2154" unicode="&#x2154;" horiz-adv-x="1828" 
d="M1491 1495h56l-1140 -1556h-57zM590 734l-10 -49h-480l3 20q243 203 302 257q166 154 199 255q9 30 9 58q0 62 -37 94.5t-101 32.5q-89 0 -138 -45.5t-68 -135.5h-51q22 118 87 173.5t179 55.5q83 0 131.5 -46t48.5 -124q0 -59 -26 -115.5t-93.5 -127t-118.5 -116
t-164 -140.5q-37 -31 -56 -47h384zM1768 749l-3 -16l-285 -270h11q90 -1 147.5 -58t57.5 -139q0 -119 -81 -200.5t-210 -81.5q-96 0 -151.5 59.5t-51.5 162.5h50q-2 -82 39 -127.5t115 -45.5q107 0 173 68.5t66 164.5q0 66 -47 109t-120 43h-80l6 27l269 257h-339l9 47h425z
" />
    <glyph glyph-name="uni2155" unicode="&#x2155;" horiz-adv-x="1609" 
d="M1258 1495h57l-1141 -1556h-56zM232 684l140 704h-150l9 46h202l-149 -750h-52zM1504 702h-315l-79 -250h139q93 0 151.5 -54.5t58.5 -138.5q0 -116 -78 -195.5t-203 -79.5q-102 0 -158 65t-41 152h51q-10 -74 32.5 -121t119.5 -47q101 0 163.5 64t62.5 161
q0 65 -45.5 106t-118.5 41h-185l-9 12l104 332h359z" />
    <glyph glyph-name="uni2156" unicode="&#x2156;" horiz-adv-x="1824" 
d="M1492 1495h57l-1141 -1556h-56zM592 734l-10 -49h-481l3 20q243 203 302 257q166 154 199 255q9 30 9 58q0 62 -36.5 94.5t-100.5 32.5q-89 0 -138.5 -45.5t-68.5 -135.5h-51q22 118 87 173.5t179 55.5q83 0 131.5 -46t48.5 -124q0 -59 -26 -115.5t-93.5 -127
t-118.5 -116t-164 -140.5q-37 -31 -56 -47h385zM1738 702h-315l-78 -250h138q93 0 151.5 -54.5t58.5 -138.5q0 -116 -78 -195.5t-203 -79.5q-102 0 -158 65t-41 152h51q-10 -74 32.5 -121t119.5 -47q101 0 163.5 64t62.5 161q0 65 -45.5 106t-118.5 41h-185l-9 12l105 332
h358z" />
    <glyph glyph-name="uni2157" unicode="&#x2157;" horiz-adv-x="1828" 
d="M1486 1495h57l-1140 -1556h-57zM625 950q0 -119 -81 -200.5t-210 -81.5q-96 0 -151.5 59.5t-51.5 162.5h50q-2 -82 39.5 -127.5t115.5 -45.5q107 0 173 68.5t66 164.5q0 66 -47.5 109.5t-120.5 43.5h-79l5 26l270 257h-339l9 48h425l-3 -17l-285 -269h11q90 -1 147 -58.5
t57 -139.5zM1733 702h-316l-78 -250h138q93 0 151.5 -54.5t58.5 -138.5q0 -116 -78 -195.5t-203 -79.5q-102 0 -158 65t-41 152h51q-10 -74 32.5 -121t119.5 -47q101 0 163.5 64t62.5 161q0 65 -45 106t-118 41h-186l-9 12l105 332h358z" />
    <glyph glyph-name="uni2158" unicode="&#x2158;" horiz-adv-x="1888" 
d="M1538 1495h56l-1140 -1556h-56zM484 684l33 165h-398l5 24l388 561h58l-375 -538h331l58 268h44l-53 -268h89l-9 -47h-89l-32 -165h-50zM1784 702h-315l-79 -250h139q93 0 151.5 -54.5t58.5 -138.5q0 -116 -78 -195.5t-203 -79.5q-102 0 -158 65t-41 152h51
q-10 -74 32.5 -121t119.5 -47q101 0 163.5 64t62.5 161q0 65 -45.5 106t-118.5 41h-185l-9 12l104 332h359z" />
    <glyph glyph-name="uni2159" unicode="&#x2159;" horiz-adv-x="1632" 
d="M1259 1495h56l-1140 -1556h-56zM233 684l140 704h-150l9 46h202l-149 -750h-52zM1299 457q90 0 147.5 -55t57.5 -138q0 -119 -86 -199.5t-217 -80.5q-93 0 -152 55.5t-59 140.5q0 116 138 299l214 285h60l-217 -288q-17 -22 -47 -68q70 49 161 49zM1208 33q107 0 176 67
t69 163q0 68 -46.5 109.5t-122.5 41.5q-104 0 -173.5 -68t-69.5 -161q0 -68 45.5 -110t121.5 -42z" />
    <glyph glyph-name="uni215A" unicode="&#x215a;" horiz-adv-x="1861" 
d="M1495 1495h57l-1141 -1556h-56zM626 944q0 -116 -78.5 -196t-203.5 -80q-102 0 -157.5 65t-40.5 152h50q-10 -74 32.5 -121t119.5 -47q101 0 164 64.5t63 161.5q0 65 -45.5 105.5t-118.5 40.5h-185l-10 13l105 332h359l-9 -48h-315l-79 -250h138q93 0 152 -54t59 -138z
M1536 457q90 0 147 -55t57 -138q0 -119 -86 -199.5t-217 -80.5q-93 0 -151.5 55.5t-58.5 140.5q0 116 138 299l213 285h60l-217 -288q-17 -22 -47 -68q70 49 162 49zM1444 33q107 0 176 67t69 163q0 68 -46.5 109.5t-122.5 41.5q-104 0 -173.5 -68t-69.5 -161
q0 -68 45.5 -110t121.5 -42z" />
    <glyph glyph-name="oneeighth" unicode="&#x215b;" horiz-adv-x="1658" 
d="M1258 1495h57l-1141 -1556h-56zM232 684l140 704h-150l9 46h202l-149 -750h-52zM1399 402q52 -21 80 -63t28 -98q0 -113 -84.5 -185t-213.5 -72q-100 0 -160 50.5t-60 132.5q0 89 51 153t138 89q-81 40 -81 133q0 100 71.5 161.5t185.5 61.5q88 0 140.5 -44.5
t52.5 -116.5q0 -71 -39.5 -124.5t-108.5 -77.5zM1147 543q0 -54 39 -85.5t106 -31.5q91 0 148.5 51.5t57.5 126.5q0 53 -39.5 84.5t-107.5 31.5q-92 0 -148 -49.5t-56 -127.5zM1213 31q114 0 179.5 62.5t65.5 144.5q0 61 -45 101.5t-129 40.5q-109 0 -177 -59.5t-68 -151.5
q0 -63 46.5 -100.5t127.5 -37.5z" />
    <glyph glyph-name="threeeighths" unicode="&#x215c;" horiz-adv-x="1878" 
d="M1486 1495h57l-1140 -1556h-57zM625 950q0 -119 -81 -200.5t-210 -81.5q-96 0 -151.5 59.5t-51.5 162.5h50q-2 -82 39.5 -127.5t115.5 -45.5q107 0 173 68.5t66 164.5q0 66 -47.5 109.5t-120.5 43.5h-79l5 26l270 257h-339l9 48h425l-3 -17l-285 -269h11q90 -1 147 -58.5
t57 -139.5zM1627 402q52 -21 80.5 -63t28.5 -98q0 -113 -85 -185t-214 -72q-100 0 -160 50.5t-60 132.5q0 89 51 153t138 89q-81 40 -81 133q0 100 71.5 161.5t185.5 61.5q88 0 141 -44.5t53 -116.5q0 -71 -40 -124.5t-109 -77.5zM1375 543q0 -54 39.5 -85.5t106.5 -31.5
q91 0 148 51.5t57 126.5q0 53 -39.5 84.5t-107.5 31.5q-92 0 -148 -49.5t-56 -127.5zM1441 31q114 0 179.5 62.5t65.5 144.5q0 61 -45 101.5t-129 40.5q-109 0 -177 -59.5t-68 -151.5q0 -63 46.5 -100.5t127.5 -37.5z" />
    <glyph glyph-name="fiveeighths" unicode="&#x215d;" horiz-adv-x="1867" 
d="M1484 1495h56l-1140 -1556h-57zM614 944q0 -116 -78 -196t-203 -80q-102 0 -158 65t-41 152h51q-10 -74 32.5 -121t119.5 -47q101 0 163.5 64.5t62.5 161.5q0 65 -45 105.5t-118 40.5h-186l-9 13l105 332h358l-8 -48h-316l-78 -250h138q93 0 151.5 -54t58.5 -138z
M1624 402q52 -21 80.5 -63t28.5 -98q0 -113 -85 -185t-214 -72q-100 0 -160 50.5t-60 132.5q0 89 51.5 153t138.5 89q-81 40 -81 133q0 100 71.5 161.5t185.5 61.5q88 0 140.5 -44.5t52.5 -116.5q0 -71 -40 -124.5t-109 -77.5zM1372 543q0 -54 39.5 -85.5t106.5 -31.5
q91 0 148 51.5t57 126.5q0 53 -39.5 84.5t-107.5 31.5q-92 0 -148 -49.5t-56 -127.5zM1438 31q114 0 180 62.5t66 144.5q0 61 -45 101.5t-130 40.5q-109 0 -176.5 -59.5t-67.5 -151.5q0 -63 46 -100.5t127 -37.5z" />
    <glyph glyph-name="seveneighths" unicode="&#x215e;" horiz-adv-x="1869" 
d="M1464 1495h57l-1141 -1556h-56zM710 1434l-3 -11l-447 -739h-56l429 703h-415l8 47h484zM1605 402q52 -21 80 -63t28 -98q0 -113 -84.5 -185t-213.5 -72q-100 0 -160 50.5t-60 132.5q0 89 51 153t138 89q-81 40 -81 133q0 100 71.5 161.5t185.5 61.5q88 0 141 -44.5
t53 -116.5q0 -71 -40 -124.5t-109 -77.5zM1353 543q0 -54 39 -85.5t106 -31.5q91 0 148.5 51.5t57.5 126.5q0 53 -39.5 84.5t-107.5 31.5q-92 0 -148 -49.5t-56 -127.5zM1419 31q114 0 179.5 62.5t65.5 144.5q0 61 -45 101.5t-129 40.5q-109 0 -177 -59.5t-68 -151.5
q0 -63 46.5 -100.5t127.5 -37.5z" />
    <glyph glyph-name="uni215F" unicode="&#x215f;" horiz-adv-x="962" 
d="M1440 1495h56l-1140 -1556h-57zM414 684l140 704h-151l9 46h202l-149 -750h-51z" />
    <glyph glyph-name="uni2189" unicode="&#x2189;" horiz-adv-x="1908" 
d="M1567 1495h56l-1140 -1556h-57zM742 1187q0 -128 -43 -245t-129.5 -195.5t-196.5 -78.5q-103 0 -159.5 71t-56.5 195q0 94 25.5 185.5t71.5 165.5t117 119.5t155 45.5q103 0 159.5 -69.5t56.5 -193.5zM377 720q95 0 169 74.5t109.5 179.5t35.5 213q0 102 -43.5 157
t-126.5 55q-72 0 -133 -43t-99 -111.5t-59.5 -149.5t-21.5 -161q0 -102 44 -158t125 -56zM1844 749l-3 -16l-285 -270h11q90 -1 147.5 -58t57.5 -139q0 -119 -81 -200.5t-210 -81.5q-96 0 -151.5 59.5t-51.5 162.5h50q-2 -82 39 -127.5t115 -45.5q107 0 173 68.5t66 164.5
q0 66 -47.5 109t-120.5 43h-79l6 27l269 257h-339l9 47h425z" />
    <glyph glyph-name="arrowleft" unicode="&#x2190;" horiz-adv-x="1353" 
d="M1300 660v-55h-1112l498 -475l-37 -37l-555 531v18l555 530l37 -36l-498 -476h1112z" />
    <glyph glyph-name="arrowup" unicode="&#x2191;" horiz-adv-x="1196" 
d="M1187 791l-36 -38l-476 498v-1112h-55v1112l-475 -498l-37 38l531 555h18z" />
    <glyph glyph-name="arrowright" unicode="&#x2192;" horiz-adv-x="1355" 
d="M735 1172l555 -530v-18l-555 -531l-37 37l498 475h-1112v55h1112l-498 476z" />
    <glyph glyph-name="arrowdown" unicode="&#x2193;" horiz-adv-x="1198" 
d="M1122 705l36 -37l-530 -555h-18l-531 555l37 37l475 -498v1112h55v-1112z" />
    <glyph glyph-name="uni2196" unicode="&#x2196;" horiz-adv-x="1325" 
d="M1212 273l-38 -38l-860 868v-749h-53v826l14 14h826v-52h-750z" />
    <glyph glyph-name="uni2197" unicode="&#x2197;" horiz-adv-x="1191" 
d="M1017 1194l14 -14v-826h-53v749l-860 -868l-38 38l860 869h-749v52h826z" />
    <glyph glyph-name="uni2198" unicode="&#x2198;" horiz-adv-x="1333" 
d="M1052 991h52v-825l-14 -14h-825v52h749l-861 868l39 39l860 -869v749z" />
    <glyph glyph-name="uni2199" unicode="&#x2199;" horiz-adv-x="1216" 
d="M1168 1072l-861 -868h749v-52h-825l-14 14v825h52v-749l860 869z" />
    <glyph glyph-name="partialdiff" unicode="&#x2202;" horiz-adv-x="1218" 
d="M664 1458q252 0 373 -128t121 -361t-95 -504q-77 -217 -250 -351.5t-399 -134.5q-175 0 -275 93t-100 247q0 167 87.5 311.5t239.5 230.5t332 86q153 0 250 -67t120 -187q34 165 34 281q0 214 -113 322t-333 108q-108 0 -229 -22l10 55q136 21 227 21zM421 33
q122 0 235 50t193 130.5t127.5 186t47.5 213.5q0 130 -87 206t-243 76q-123 0 -234.5 -47.5t-190 -126t-125 -183.5t-46.5 -216q0 -133 86 -211t237 -78z" />
    <glyph glyph-name="emptyset" unicode="&#x2205;" horiz-adv-x="1366" 
d="M1113 1021q75 -62 116 -152.5t41 -199.5q0 -138 -54 -264.5t-145.5 -220t-220.5 -149t-272 -55.5q-159 0 -277 73l-106 -125h-64l130 153q-163 129 -163 356q0 138 54 265t146 220t221 148.5t272 55.5q163 0 282 -76l110 130h64zM157 441q0 -202 144 -313l733 875
q-106 67 -249 67q-131 0 -249 -52t-200.5 -138t-130.5 -201t-48 -238zM583 35q131 0 248.5 52t200 138.5t131 202t48.5 238.5q0 196 -138 309l-733 -874q105 -66 243 -66z" />
    <glyph glyph-name="product" unicode="&#x220f;" horiz-adv-x="1486" 
d="M1598 1434l-11 -58h-250l-342 -1704h-61l341 1704h-739l-341 -1704h-62l342 1704h-252l11 58h1364z" />
    <glyph glyph-name="summation" unicode="&#x2211;" horiz-adv-x="1167" 
d="M1272 1434l-11 -57h-934l417 -807l-6 -25l-727 -818h928l-11 -57h-1035l3 21l779 878l-435 844l5 21h1027z" />
    <glyph glyph-name="minus" unicode="&#x2212;" horiz-adv-x="1288" 
d="M175 684l11 56h983l-11 -56h-983z" />
    <glyph glyph-name="radical" unicode="&#x221a;" horiz-adv-x="1323" 
d="M1457 1536h65l-983 -1536h-33l-186 831h-256l12 54h291l173 -785z" />
    <glyph glyph-name="infinity" unicode="&#x221e;" horiz-adv-x="2033" 
d="M1629 1071q150 0 237.5 -81t87.5 -217q0 -201 -132 -336.5t-342 -135.5q-80 0 -146.5 25t-119.5 75t-92.5 104.5t-83.5 132.5q-48 -49 -75 -75.5t-72 -68t-77 -64.5t-77.5 -51.5t-85.5 -43t-90 -24.5t-101 -10q-151 0 -239.5 82.5t-88.5 220.5q0 199 132 333t339 134
q68 0 126.5 -19t101 -47.5t84.5 -77.5t70 -92.5t64 -108.5q70 73 109 111t103 90.5t113.5 78.5t116.5 45.5t138 19.5zM467 354q48 0 93.5 10t80.5 22t80 42t70.5 48t74 65t69 67.5t76.5 78.5q-35 64 -61.5 106t-65.5 89t-77.5 73.5t-91.5 44.5t-115 18q-186 0 -299.5 -118.5
t-113.5 -292.5q0 -116 75 -184.5t205 -68.5zM1483 354q190 0 303 119t113 296q0 117 -73 183t-203 66q-63 0 -121 -16.5t-104 -41.5t-100.5 -70t-96 -85.5t-103.5 -104.5q-15 -15 -22 -23q43 -77 80 -129.5t86 -100t109 -70.5t132 -23z" />
    <glyph glyph-name="integral" unicode="&#x222b;" horiz-adv-x="741" 
d="M-268 -602l11 56h25q179 0 289.5 95t144.5 269l328 1635q37 183 152.5 282t303.5 99h47l-11 -55h-29q-168 0 -270.5 -88.5t-135.5 -251.5l-328 -1634q-39 -193 -163 -300t-321 -107h-43z" />
    <glyph glyph-name="approxequal" unicode="&#x2248;" horiz-adv-x="1161" 
d="M845 773q-61 0 -104.5 31t-91.5 103q-50 74 -88.5 103t-88.5 29q-164 0 -212 -257h-52q31 159 98 235t174 76q63 0 110 -33.5t99 -112.5q45 -68 80 -94.5t84 -26.5q79 0 128.5 62t75.5 188h53q-31 -154 -94 -228.5t-171 -74.5zM758 336q-61 0 -104.5 31t-91.5 103
q-50 74 -88.5 103t-89.5 29q-163 0 -211 -257h-53q31 159 98 235t174 76q63 0 110 -34t99 -113q45 -68 80 -94t84 -26q80 0 129.5 62.5t75.5 187.5h52q-32 -155 -94 -229t-170 -74z" />
    <glyph glyph-name="notequal" unicode="&#x2260;" horiz-adv-x="1310" 
d="M1216 915h-408l-179 -395h510l-13 -56h-522l-167 -369h-58l166 369h-402l13 56h414l179 395h-516l13 56h528l156 345h58l-155 -345h396z" />
    <glyph glyph-name="lessequal" unicode="&#x2264;" horiz-adv-x="1134" 
d="M1160 1334l-14 -70l-913 -464l729 -453l-12 -59l-811 503l6 27zM27 13l10 57h877l-10 -57h-877z" />
    <glyph glyph-name="greaterequal" unicode="&#x2265;" horiz-adv-x="1120" 
d="M294 1334l809 -516l-6 -27l-1013 -503l14 71l908 453l-723 461zM21 13l11 57h877l-11 -57h-877z" />
    <glyph glyph-name="lozenge" unicode="&#x25ca;" horiz-adv-x="1148" 
d="M757 1427l350 -699l-4 -23l-628 -700h-22l-351 706l4 22l626 694h25zM1054 722l-318 639l-581 -645l317 -643z" />
    <glyph glyph-name="K.ss01" horiz-adv-x="1200" 
d="M399 1434h61l-287 -1434h-60zM1331 1434l-852 -690l620 -744h-72l-621 744l5 15l834 675h86z" />
    <glyph glyph-name="K.ss03" horiz-adv-x="1200" 
d="M399 1434h61l-287 -1434h-60zM1331 1434l-852 -690l620 -744h-72l-621 744l5 15l834 675h86z" />
    <glyph glyph-name="K.ss04" horiz-adv-x="1200" 
d="M399 1434h61l-287 -1434h-60zM1331 1434l-852 -690l620 -744h-72l-621 744l5 15l834 675h86z" />
    <glyph glyph-name="germandbls.calt" horiz-adv-x="1325" 
d="M1283 1434l-5 -21l-445 -516q179 -8 281 -101.5t102 -247.5q0 -241 -166.5 -394.5t-437.5 -153.5h-185l11 59h181q239 0 387.5 137t148.5 345q0 140 -100 222t-273 82h-51l3 21l440 510h-316q-428 0 -513 -427l-190 -949h-61l192 961q46 231 189.5 352t381.5 121h426z
" />
    <glyph glyph-name="i.loclTRK" horiz-adv-x="466" 
d="M346 1355l22 109h91l-22 -109h-91zM94 0l221 1106h60l-221 -1106h-60z" />
    <glyph glyph-name="k.ss01" horiz-adv-x="995" 
d="M394 1496h59l-299 -1496h-60zM1078 1106l-634 -532l450 -574h-71l-445 568l4 24l614 514h82z" />
    <glyph glyph-name="k.ss03" horiz-adv-x="995" 
d="M394 1496h59l-299 -1496h-60zM1078 1106l-634 -532l450 -574h-71l-445 568l4 24l614 514h82z" />
    <glyph glyph-name="k.ss04" horiz-adv-x="995" 
d="M394 1496h59l-299 -1496h-60zM1078 1106l-634 -532l450 -574h-71l-445 568l4 24l614 514h82z" />
    <glyph glyph-name="uni0414.loclBGR" horiz-adv-x="1552" 
d="M1268 58l124 -1l-73 -366h-57l60 309h-1299l-61 -309h-58l73 366l127 1l819 1376h50zM933 1339l-760 -1281h1035z" />
    <glyph glyph-name="uni041B.loclBGR" horiz-adv-x="1327" 
d="M1164 0h-62l-281 1340l-803 -1340h-69l862 1434h51z" />
    <glyph glyph-name="uni0416.ss01" horiz-adv-x="1742" 
d="M799 761l-3 -18l-820 -743h-83l836 759l-494 675h71zM1021 1434h60l-286 -1434h-61zM1870 1434l-769 -688l534 -746h-72l-532 743l4 18l751 673h84z" />
    <glyph glyph-name="uni041A.ss01" horiz-adv-x="1200" 
d="M399 1434h61l-287 -1434h-60zM1331 1434l-852 -690l620 -744h-72l-621 744l5 15l834 675h86z" />
    <glyph glyph-name="uni0424.ss01" horiz-adv-x="1738" 
d="M1672 868q0 -140 -44 -273.5t-125 -243.5t-189.5 -193.5t-244.5 -130.5t-283 -48l-43 -217h-60l43 217q-179 3 -314.5 80t-207.5 209t-72 298q0 174 70 336t188.5 282.5t284 194t347.5 75.5l38 198h60l-38 -198q178 -3 313 -79.5t206 -208t71 -298.5zM797 38
q168 3 320.5 72.5t260 183t170.5 263.5t63 309q0 231 -147 378t-394 151zM193 568q0 -231 149 -378.5t396 -151.5l272 1357q-167 -3 -319.5 -73t-261 -183.5t-172.5 -263t-64 -307.5z" />
    <glyph glyph-name="uni0414.ss02" horiz-adv-x="1552" 
d="M1268 58l124 -1l-73 -366h-57l60 309h-1299l-61 -309h-58l73 366l127 1l819 1376h50zM933 1339l-760 -1281h1035z" />
    <glyph glyph-name="uni041B.ss02" horiz-adv-x="1327" 
d="M1164 0h-62l-281 1340l-803 -1340h-69l862 1434h51z" />
    <glyph glyph-name="uni0414.ss03" horiz-adv-x="1552" 
d="M1268 58l124 -1l-73 -366h-57l60 309h-1299l-61 -309h-58l73 366l127 1l819 1376h50zM933 1339l-760 -1281h1035z" />
    <glyph glyph-name="uni0416.ss03" horiz-adv-x="1742" 
d="M799 761l-3 -18l-820 -743h-83l836 759l-494 675h71zM1021 1434h60l-286 -1434h-61zM1870 1434l-769 -688l534 -746h-72l-532 743l4 18l751 673h84z" />
    <glyph glyph-name="uni041A.ss03" horiz-adv-x="1200" 
d="M399 1434h61l-287 -1434h-60zM1331 1434l-852 -690l620 -744h-72l-621 744l5 15l834 675h86z" />
    <glyph glyph-name="uni041B.ss03" horiz-adv-x="1327" 
d="M1164 0h-62l-281 1340l-803 -1340h-69l862 1434h51z" />
    <glyph glyph-name="uni0416.ss04" horiz-adv-x="1742" 
d="M799 761l-3 -18l-820 -743h-83l836 759l-494 675h71zM1021 1434h60l-286 -1434h-61zM1870 1434l-769 -688l534 -746h-72l-532 743l4 18l751 673h84z" />
    <glyph glyph-name="uni041A.ss04" horiz-adv-x="1200" 
d="M399 1434h61l-287 -1434h-60zM1331 1434l-852 -690l620 -744h-72l-621 744l5 15l834 675h86z" />
    <glyph glyph-name="uni0424.ss04" horiz-adv-x="1613" 
d="M1551 850q0 -159 -64 -306.5t-172.5 -256t-259.5 -173.5t-318 -66l-35 -174h-60l35 174q-252 7 -400.5 156.5t-148.5 379.5q0 160 64 307.5t172.5 256t260 173.5t319.5 67l33 162h61l-33 -163q249 -5 397.5 -155t148.5 -382zM689 105l244 1226q-153 -3 -291.5 -66
t-237.5 -165t-157 -237.5t-58 -279.5q0 -210 136.5 -343.5t363.5 -134.5zM749 106q153 2 291.5 64.5t236 164.5t155 237.5t57.5 279.5q0 211 -135 344t-361 134z" />
    <glyph glyph-name="uni0424.ss05" horiz-adv-x="1613" 
d="M1551 850q0 -159 -64 -306.5t-172.5 -256t-259.5 -173.5t-318 -66l-35 -174h-60l35 174q-252 7 -400.5 156.5t-148.5 379.5q0 160 64 307.5t172.5 256t260 173.5t319.5 67l33 162h61l-33 -163q249 -5 397.5 -155t148.5 -382zM689 105l244 1226q-153 -3 -291.5 -66
t-237.5 -165t-157 -237.5t-58 -279.5q0 -210 136.5 -343.5t363.5 -134.5zM749 106q153 2 291.5 64.5t236 164.5t155 237.5t57.5 279.5q0 211 -135 344t-361 134z" />
    <glyph glyph-name="uni0432.loclBGR" horiz-adv-x="1271" 
d="M930 778q99 -33 155 -114.5t56 -190.5q0 -143 -72.5 -256t-200.5 -175.5t-288 -62.5q-204 0 -312 106.5t-110 303.5q0 63 13.5 142.5t62.5 323.5q12 57 18 88q59 289 201 432t388 143q183 0 291 -88.5t108 -235.5q0 -136 -88.5 -253.5t-221.5 -162.5zM837 1461
q-221 0 -347.5 -129.5t-179.5 -395.5q-7 -39 -26 -127h501q160 0 279.5 115t119.5 269q0 124 -93 196t-254 72zM583 37q220 0 359.5 123.5t139.5 314.5q0 124 -83 200.5t-222 76.5h-504q-36 -182 -46 -245t-10 -116q0 -174 92.5 -264t273.5 -90z" />
    <glyph glyph-name="uni0433.loclBGR" horiz-adv-x="1044" 
d="M418 -10q-172 0 -272.5 70.5t-100.5 188.5q0 53 14.5 98t37.5 77t61 59t75 44t90 32.5t95 24t101 18.5q53 9 87 16t81 19.5t77 25.5t63.5 34t52.5 46t31.5 60t12.5 77q0 86 -77 136.5t-211 50.5q-343 0 -397 -273h-59q27 160 144.5 244t314.5 84q157 0 249 -66.5
t92 -175.5q0 -39 -8.5 -73.5t-22 -61t-36.5 -49.5t-46 -39.5t-57 -31.5t-63 -25t-70.5 -20t-72.5 -16t-76 -14q-63 -11 -106.5 -20.5t-97.5 -25.5t-89.5 -37t-68 -51t-48 -71.5t-15.5 -93.5q0 -94 85.5 -148.5t233.5 -54.5q365 0 426 290h59q-33 -169 -155 -258.5
t-334 -89.5z" />
    <glyph glyph-name="uni0434.loclBGR" horiz-adv-x="1384" 
d="M1246 1106h46l-189 -945q-54 -270 -220 -421.5t-414 -151.5q-182 0 -291.5 88t-131.5 248h60q22 -136 117.5 -208t250.5 -72q221 0 371 137.5t199 381.5l31 154q-89 -128 -227 -202.5t-304 -74.5q-199 0 -321.5 120.5t-122.5 310.5q0 128 50 248t136 210t208.5 144
t259.5 54q163 0 275 -83.5t149 -225.5zM552 97q168 0 304.5 85.5t210 222t73.5 291.5q0 166 -106.5 270t-279.5 104q-167 0 -305 -85t-213.5 -221.5t-75.5 -290.5q0 -167 108 -271.5t284 -104.5z" />
    <glyph glyph-name="uni0436.loclBGR" horiz-adv-x="1503" 
d="M1560 1106l-529 -529l349 -577h-68l-334 549h-195l-109 -549h-60l110 549h-187l-551 -549h-80l584 581l-318 525h65l305 -502h193l179 893h59l-179 -893h187l502 502h77z" />
    <glyph glyph-name="uni0437.loclBGR" horiz-adv-x="1134" 
d="M732 389q98 -31 153.5 -113t55.5 -195q0 -143 -73.5 -256t-202 -175t-286.5 -62q-194 0 -312 104t-118 275h58q1 -149 105 -235t270 -86q220 0 359.5 125t139.5 308q0 127 -79 205.5t-209 78.5h-237l11 58h236q97 0 185 53t139.5 139t51.5 179q0 125 -87.5 201.5
t-232.5 76.5q-167 0 -284.5 -81t-170.5 -221h-61q59 170 195 264.5t324 94.5q168 0 272 -92.5t104 -242.5q0 -135 -87 -248t-219 -155z" />
    <glyph glyph-name="uni0438.loclBGR" horiz-adv-x="1310" 
d="M1160 1106h60l-222 -1106h-49l42 253q-78 -125 -207.5 -199.5t-280.5 -74.5q-168 0 -261 92.5t-93 256.5q0 52 19.5 157t123.5 621h59q-104 -516 -123 -619t-19 -152q0 -142 80 -221t228 -79q180 0 324 118.5t186 288.5z" />
    <glyph glyph-name="uni0439.loclBGR" horiz-adv-x="1310" 
d="M1044 1330l-9 -49h-512l9 49h512zM1160 1106h60l-222 -1106h-49l42 253q-78 -125 -207.5 -199.5t-280.5 -74.5q-168 0 -261 92.5t-93 256.5q0 52 19.5 157t123.5 621h59q-104 -516 -123 -619t-19 -152q0 -142 80 -221t228 -79q180 0 324 118.5t186 288.5z" />
    <glyph glyph-name="uni043A.loclBGR" horiz-adv-x="1030" 
d="M1097 1106l-568 -529l388 -577h-70l-368 549h-216l-109 -549h-60l300 1496h59l-178 -891h203l539 501h80z" />
    <glyph glyph-name="uni043B.loclBGR" horiz-adv-x="1056" 
d="M890 0h-59l-203 1012l-617 -1012h-66l674 1106h45z" />
    <glyph glyph-name="uni043F.loclBGR" horiz-adv-x="1312" 
d="M810 1127q169 0 262 -92.5t93 -256.5q0 -21 -1 -37.5t-5.5 -47t-9.5 -58t-17.5 -91.5t-25 -125t-36.5 -180.5t-48 -238.5h-60q21 107 43 215.5t34.5 169t25 122.5t18 93t11 61.5t7.5 47t3 31t1 31.5q0 143 -80.5 221.5t-228.5 78.5q-187 0 -333 -126t-181 -305l-128 -640
h-60l221 1106h48l-40 -252q78 125 207 199t280 74z" />
    <glyph glyph-name="uni0442.loclBGR" horiz-adv-x="1959" 
d="M1520 1127q139 0 218.5 -85t79.5 -230q0 -13 -1 -24t-2 -23.5t-4.5 -32.5l-7 -40t-10.5 -56.5l-14 -73t-19.5 -98t-24.5 -121.5l-31 -155t-38 -188h-59q135 677 142 722q7 44 7 80q0 127 -65.5 198t-183.5 71q-178 0 -299.5 -110.5t-165.5 -297.5q-8 -44 -24 -123.5
t-47.5 -233.5t-61.5 -306h-58q19 93 38 187.5t31 154.5t24 121t19.5 96.5t14.5 71.5t10 55.5t6.5 39t4.5 31.5t1.5 22.5t0.5 22.5q0 127 -66 198t-184 71q-181 0 -304 -115t-164 -308l-129 -648h-60l221 1106h48l-35 -219q71 114 182.5 177t253.5 63q131 0 209 -75.5
t87 -206.5q69 133 187.5 207.5t272.5 74.5z" />
    <glyph glyph-name="uni0446.loclBGR" horiz-adv-x="1353" 
d="M1047 204q0 -87 42.5 -122.5t135.5 -35.5l-70 -352h-56l61 309q-171 11 -171 186q0 16 4 50q-81 -119 -208.5 -189.5t-280.5 -70.5q-170 0 -263 92.5t-93 257.5q0 20 1 36t5.5 45.5t9.5 57t17.5 90.5t25 125t37 182t48.5 241h59q-19 -96 -38.5 -193.5t-31.5 -155.5
t-24 -118t-18 -91.5t-12.5 -65.5t-9 -50t-4.5 -34.5t-2.5 -30t-0.5 -26.5q0 -145 81 -224.5t231 -79.5q180 0 323.5 111.5t176.5 275.5l138 682h60q-34 -174 -68.5 -342.5t-51 -248t-30.5 -151.5t-18.5 -104.5t-4.5 -55.5z" />
    <glyph glyph-name="uni0448.loclBGR" horiz-adv-x="1959" 
d="M1808 1106h59l-221 -1106h-49l37 222q-72 -116 -183.5 -179.5t-253.5 -63.5q-131 0 -209 75.5t-87 207.5q-70 -135 -187.5 -209t-272.5 -74q-139 0 -218.5 85t-79.5 230q0 45 12.5 116.5t66.5 335.5q43 213 73 360h60q-30 -151 -74 -367q-53 -265 -64.5 -329.5
t-11.5 -105.5q0 -127 66 -198t184 -71q179 0 301.5 113t164.5 304q9 46 24.5 124t46.5 232.5t60 297.5h58q-24 -122 -62 -309q-62 -306 -74.5 -377.5t-12.5 -115.5q0 -127 65.5 -198t183.5 -71q179 0 301.5 113t165.5 302z" />
    <glyph glyph-name="uni0449.loclBGR" horiz-adv-x="2000" 
d="M1695 201q0 -80 42.5 -117.5t134.5 -37.5l-70 -355h-56l62 313q-177 17 -172 208q0 3 1 7.5t1 6.5q-71 -118 -184 -182.5t-257 -64.5q-131 0 -209 75.5t-87 207.5q-69 -134 -187 -208.5t-273 -74.5q-138 0 -217 85t-79 230q0 50 14.5 131.5t91.5 461.5q28 137 44 219
l60 -3q-21 -103 -41 -204.5t-33 -164t-25.5 -125t-19.5 -97t-13.5 -69t-9 -51.5t-5 -35t-3 -28.5t-0.5 -23.5q0 -129 65.5 -199.5t184.5 -70.5q179 0 301 113.5t164 302.5q1 8 132 655h58q-18 -92 -37 -186t-31 -154t-24 -121t-19 -96.5t-14 -71.5t-10.5 -56t-7 -39.5
t-4.5 -31.5t-1.5 -22.5t-0.5 -22.5q0 -129 65 -199.5t184 -70.5q183 0 306.5 116.5t161.5 310.5l27.5 137.5t47 233.5t55.5 273h59q-130 -651 -151 -759.5t-21 -145.5z" />
    <glyph glyph-name="uni044E.loclBGR" horiz-adv-x="1751" 
d="M1190 1127q211 0 340 -127t129 -329q0 -140 -53 -267t-144 -220.5t-220.5 -149t-274.5 -55.5q-209 0 -337 127t-128 329q0 46 6 90h-249l-105 -529h-60l299 1500h60l-183 -915h247q24 115 84 215.5t146.5 173.5t201 115t241.5 42zM972 37q134 0 251.5 51.5t199.5 138
t129 202t47 241.5q0 179 -113 288.5t-301 109.5q-133 0 -250.5 -51.5t-198.5 -137.5t-127.5 -201.5t-46.5 -241.5q0 -179 112 -289t298 -110z" />
    <glyph glyph-name="uni0436.ss01" horiz-adv-x="1509" 
d="M630 584l-3 -16l-657 -568h-81l671 582l-401 524h70zM839 1106h58l-221 -1106h-58zM1584 1106l-620 -535l435 -571h-70l-433 568l2 16l604 522h82z" />
    <glyph glyph-name="uni043A.ss01" horiz-adv-x="995" 
d="M94 0l221 1106h60l-221 -1106h-60zM1082 1106l-639 -534l452 -572h-72l-447 568l3 17l622 521h81z" />
    <glyph glyph-name="uni0432.ss02" horiz-adv-x="1271" 
d="M930 778q99 -33 155 -114.5t56 -190.5q0 -143 -72.5 -256t-200.5 -175.5t-288 -62.5q-204 0 -312 106.5t-110 303.5q0 63 13.5 142.5t62.5 323.5q12 57 18 88q59 289 201 432t388 143q183 0 291 -88.5t108 -235.5q0 -136 -88.5 -253.5t-221.5 -162.5zM837 1461
q-221 0 -347.5 -129.5t-179.5 -395.5q-7 -39 -26 -127h501q160 0 279.5 115t119.5 269q0 124 -93 196t-254 72zM583 37q220 0 359.5 123.5t139.5 314.5q0 124 -83 200.5t-222 76.5h-504q-36 -182 -46 -245t-10 -116q0 -174 92.5 -264t273.5 -90z" />
    <glyph glyph-name="uni0433.ss02" horiz-adv-x="1044" 
d="M418 -10q-172 0 -272.5 70.5t-100.5 188.5q0 53 14.5 98t37.5 77t61 59t75 44t90 32.5t95 24t101 18.5q53 9 87 16t81 19.5t77 25.5t63.5 34t52.5 46t31.5 60t12.5 77q0 86 -77 136.5t-211 50.5q-343 0 -397 -273h-59q27 160 144.5 244t314.5 84q157 0 249 -66.5
t92 -175.5q0 -39 -8.5 -73.5t-22 -61t-36.5 -49.5t-46 -39.5t-57 -31.5t-63 -25t-70.5 -20t-72.5 -16t-76 -14q-63 -11 -106.5 -20.5t-97.5 -25.5t-89.5 -37t-68 -51t-48 -71.5t-15.5 -93.5q0 -94 85.5 -148.5t233.5 -54.5q365 0 426 290h59q-33 -169 -155 -258.5
t-334 -89.5z" />
    <glyph glyph-name="uni0434.ss02" horiz-adv-x="1384" 
d="M1246 1106h46l-189 -945q-54 -270 -220 -421.5t-414 -151.5q-182 0 -291.5 88t-131.5 248h60q22 -136 117.5 -208t250.5 -72q221 0 371 137.5t199 381.5l31 154q-89 -128 -227 -202.5t-304 -74.5q-199 0 -321.5 120.5t-122.5 310.5q0 128 50 248t136 210t208.5 144
t259.5 54q163 0 275 -83.5t149 -225.5zM552 97q168 0 304.5 85.5t210 222t73.5 291.5q0 166 -106.5 270t-279.5 104q-167 0 -305 -85t-213.5 -221.5t-75.5 -290.5q0 -167 108 -271.5t284 -104.5z" />
    <glyph glyph-name="uni0436.ss02" horiz-adv-x="1503" 
d="M1560 1106l-529 -529l349 -577h-68l-334 549h-195l-109 -549h-60l110 549h-187l-551 -549h-80l584 581l-318 525h65l305 -502h193l179 893h59l-179 -893h187l502 502h77z" />
    <glyph glyph-name="uni0437.ss02" horiz-adv-x="1134" 
d="M732 389q98 -31 153.5 -113t55.5 -195q0 -143 -73.5 -256t-202 -175t-286.5 -62q-194 0 -312 104t-118 275h58q1 -149 105 -235t270 -86q220 0 359.5 125t139.5 308q0 127 -79 205.5t-209 78.5h-237l11 58h236q97 0 185 53t139.5 139t51.5 179q0 125 -87.5 201.5
t-232.5 76.5q-167 0 -284.5 -81t-170.5 -221h-61q59 170 195 264.5t324 94.5q168 0 272 -92.5t104 -242.5q0 -135 -87 -248t-219 -155z" />
    <glyph glyph-name="uni0438.ss02" horiz-adv-x="1310" 
d="M1160 1106h60l-222 -1106h-49l42 253q-78 -125 -207.5 -199.5t-280.5 -74.5q-168 0 -261 92.5t-93 256.5q0 52 19.5 157t123.5 621h59q-104 -516 -123 -619t-19 -152q0 -142 80 -221t228 -79q180 0 324 118.5t186 288.5z" />
    <glyph glyph-name="uni0439.ss02" horiz-adv-x="1310" 
d="M1044 1330l-9 -49h-512l9 49h512zM1160 1106h60l-222 -1106h-49l42 253q-78 -125 -207.5 -199.5t-280.5 -74.5q-168 0 -261 92.5t-93 256.5q0 52 19.5 157t123.5 621h59q-104 -516 -123 -619t-19 -152q0 -142 80 -221t228 -79q180 0 324 118.5t186 288.5z" />
    <glyph glyph-name="uni043A.ss02" horiz-adv-x="1030" 
d="M1097 1106l-568 -529l388 -577h-70l-368 549h-216l-109 -549h-60l300 1496h59l-178 -891h203l539 501h80z" />
    <glyph glyph-name="uni043B.ss02" horiz-adv-x="1056" 
d="M890 0h-59l-203 1012l-617 -1012h-66l674 1106h45z" />
    <glyph glyph-name="uni043F.ss02" horiz-adv-x="1312" 
d="M810 1127q169 0 262 -92.5t93 -256.5q0 -21 -1 -37.5t-5.5 -47t-9.5 -58t-17.5 -91.5t-25 -125t-36.5 -180.5t-48 -238.5h-60q21 107 43 215.5t34.5 169t25 122.5t18 93t11 61.5t7.5 47t3 31t1 31.5q0 143 -80.5 221.5t-228.5 78.5q-187 0 -333 -126t-181 -305l-128 -640
h-60l221 1106h48l-40 -252q78 125 207 199t280 74z" />
    </font>
</defs>
</svg>
