<?xml version="1.0" standalone="no"?>
<!DOCTYPE svg PUBLIC "-//W3C//DTD SVG 1.1//EN" "http://www.w3.org/Graphics/SVG/1.1/DTD/svg11.dtd" >
<svg xmlns="http://www.w3.org/2000/svg" xmlns:xlink="http://www.w3.org/1999/xlink" version="1.1">
<metadata>
Created by FontForge 20170731 at Mon Apr 26 12:26:49 2021
 By Aleksey,,,
Modern and elegant sans serif font family.
</metadata>
<defs>
<font id="Mont-SemiBoldItalic" horiz-adv-x="0" >
  <font-face 
    font-family="Mont SemiBold Italic"
    font-weight="700"
    font-style="italic"
    font-stretch="normal"
    units-per-em="2048"
    panose-1="0 0 8 0 0 0 0 0 0 0"
    ascent="1638"
    descent="-410"
    x-height="1106"
    cap-height="1434"
    bbox="-1532 -622 2422 2040"
    underline-thickness="102"
    underline-position="-307"
    slope="-11.31"
    unicode-range="U+0020-25CA"
  />
<missing-glyph horiz-adv-x="942" 
d="M773 1495v-1884h-598v1884h598zM627 1369h-310v-62h122v-70h-124v-62h312v62h-124v70h124v62zM503 1126h-188v-196h312v64h-124v132zM439 1062v-68h-62v68h62zM627 879h-312v-62h124v-70h-124v-62h188v132h124v62zM627 766h-62v-124h-250v-65h312v189zM627 536h-188v-106
h64v44h62v-89h-188v151h-62v-213h312v213zM627 210h-312v-213h312v213zM565 148v-89h-188v89h188zM627 -46h-312v-62h132l-132 -89v-62h312v62h-192l132 89h60v62z" />
    <glyph glyph-name="f_f.liga" unicode="ff" horiz-adv-x="1542" 
d="M1533 1364q-97 0 -147 -42t-70 -140l-17 -86h324l-36 -180h-317l-184 -916h-217l184 916h-516l-183 -916h-217l183 916h-210l36 180h210l20 99q34 172 135 258.5t280 86.5h165l-34 -176h-122q-97 0 -146.5 -42t-69.5 -140l-18 -86h523l20 99q34 172 135 258.5t280 86.5
h185l-33 -176h-143z" />
    <glyph glyph-name="f_f_t.liga" unicode="fft" horiz-adv-x="2299" 
d="M2316 913h-345q-12 -60 -32 -159q-73 -369 -74 -399q0 -74 47 -114t132 -40h131l-40 -203h-152q-160 0 -251 80.5t-91 222.5q0 38 12 105t72 363q6 30 9.5 47t9 45t10.5 52h-249l1 3h-236l-184 -916h-217l184 916h-516l-183 -916h-217l183 916h-210l36 180h210l20 99
q34 172 135 258.5t280 86.5h186l-34 -176h-143q-97 0 -146.5 -42t-69.5 -140l-18 -86h523l20 99q34 172 135 258.5t280 86.5h185l-33 -176h-143q-97 0 -147 -42t-70 -140l-17 -86h492q6 30 18.5 93.5t24 120.5t22.5 111h217q-11 -54 -22.5 -111t-24 -120.5t-18.5 -93.5h344z
" />
    <glyph glyph-name="f_t.liga" unicode="ft" horiz-adv-x="1609" 
d="M1624 917h-344q-76 -379 -91 -457.5t-15 -104.5q0 -74 46.5 -114t131.5 -40h131l-40 -203h-152q-160 0 -251 80.5t-91 222.5q0 37 13.5 110.5t67.5 343.5q21 102 33 162h-526l-183 -917h-217l183 917h-209l35 179h210l20 99q34 172 135 258.5t280 86.5h186l-34 -176h-143
q-97 0 -146.5 -42t-69.5 -140l-18 -86h533q6 30 18.5 93.5t24 120.5t22.5 111h217q-11 -54 -22.5 -111t-24 -120.5t-18.5 -93.5h343z" />
    <glyph glyph-name="f_t_t.liga" unicode="ftt" horiz-adv-x="2371" 
d="M2387 917h-346q-12 -59 -32 -159q-75 -372 -75 -403q0 -74 46.5 -114t131.5 -40h132l-40 -203h-153q-160 0 -250.5 80.5t-90.5 222.5q0 42 15.5 125t97.5 491h-565q-12 -59 -32 -159q-75 -372 -75 -403q0 -74 46.5 -114t131.5 -40h132l-40 -203h-153q-160 0 -250.5 80.5
t-90.5 222.5q0 42 15.5 125t97.5 491h-503l-183 -917h-217l183 917h-209l35 179h210l20 99q34 172 135 258.5t280 86.5h186l-34 -174h-142q-97 0 -147 -42t-70 -140l-18 -88h510q7 35 29.5 145.5t36.5 179.5h217q-11 -54 -22.5 -111t-24 -120.5t-18.5 -93.5h565
q7 35 29.5 145.5t36.5 179.5h217q-11 -54 -22.5 -111t-24 -120.5t-18.5 -93.5h345z" />
    <glyph glyph-name="r_t.liga" unicode="rt" horiz-adv-x="1683" 
d="M1697 917h-341q-103 -512 -106 -538q-1 -11 -1 -23q0 -75 45.5 -115t132.5 -40h132l-40 -203h-159q-158 0 -246.5 81t-88.5 224q0 42 14.5 118.5t98.5 495.5h-230l37 182h230q7 37 29.5 145.5t35.5 176.5h217q-4 -23 -65 -322h342zM431 956q150 156 374 156h70l-42 -205
h-91q-136 0 -223.5 -74t-122.5 -215l-123 -618h-217l221 1106h148z" />
    <glyph glyph-name="t_f.liga" unicode="tf" horiz-adv-x="1540" 
d="M1535 1386q-97 0 -146.5 -42.5t-69.5 -140.5l-22 -107h324l-35 -179h-318l-184 -917h-217l184 917h-548q-103 -522 -105 -547q-1 -7 -1 -15q0 -74 46 -114t132 -40h126l-40 -203h-145q-160 0 -251.5 82t-91.5 225q0 12 1 24t2.5 26t6 38.5t9.5 50t14.5 74t19.5 97
t26.5 132t33.5 167.5h-200l6 30l474 417h27l-54 -265h548l24 118q35 174 135.5 259.5t279.5 85.5h185l-33 -173h-143z" />
    <glyph glyph-name=".notdef" horiz-adv-x="942" 
d="M773 1495v-1884h-598v1884h598zM627 1369h-310v-62h122v-70h-124v-62h312v62h-124v70h124v62zM503 1126h-188v-196h312v64h-124v132zM439 1062v-68h-62v68h62zM627 879h-312v-62h124v-70h-124v-62h188v132h124v62zM627 766h-62v-124h-250v-65h312v189zM627 536h-188v-106
h64v44h62v-89h-188v151h-62v-213h312v213zM627 210h-312v-213h312v213zM565 148v-89h-188v89h188zM627 -46h-312v-62h132l-132 -89v-62h312v62h-192l132 89h60v62z" />
    <glyph glyph-name=".null" 
 />
    <glyph glyph-name="nonmarkingreturn" horiz-adv-x="682" 
 />
    <glyph glyph-name="space" unicode=" " horiz-adv-x="522" 
 />
    <glyph glyph-name="exclam" unicode="!" horiz-adv-x="593" 
d="M158 416l212 1059h219l-211 -1059h-220zM66 0l49 253h240l-49 -253h-240z" />
    <glyph glyph-name="quotedbl" unicode="&#x22;" horiz-adv-x="821" 
d="M203 922l103 516h202l-103 -516h-202zM554 922l102 516h202l-102 -516h-202z" />
    <glyph glyph-name="numbersign" unicode="#" horiz-adv-x="1316" 
d="M1291 872h-177l-102 -296h175l-38 -185h-204l-137 -389h-199l134 389h-329l-141 -389h-199l140 389h-157l38 185h186l106 296h-188l38 178h214l137 384h200l-136 -384h324l135 384h199l-136 -384h155zM811 576l103 296h-326l-107 -296h330z" />
    <glyph glyph-name="dollar" unicode="$" horiz-adv-x="1169" 
d="M1135 975h-211q22 102 -43.5 160t-175.5 58q-120 0 -210 -58.5t-90 -151.5q0 -27 9 -48.5t29.5 -38t40.5 -28.5t56.5 -23.5t61 -18t70.5 -17.5q66 -16 112.5 -30.5t104 -42.5t93.5 -61.5t60.5 -86.5t24.5 -118q0 -204 -139.5 -336t-357.5 -154l-30 -152h-178l31 154
q-162 21 -255 111.5t-93 238.5q0 54 8 98h218q-25 -112 47 -178.5t198 -66.5q128 0 228 70t100 172q0 24 -8.5 44.5t-20.5 35.5t-35.5 29t-42.5 23t-53.5 20t-56 16.5t-61.5 15.5q-65 16 -110.5 30.5t-100.5 41.5t-89 58.5t-57.5 81.5t-23.5 111q0 194 130 315.5t340 143.5
l30 147h183l-31 -150q145 -22 227.5 -104.5t82.5 -208.5q0 -49 -12 -102z" />
    <glyph glyph-name="percent" unicode="%" horiz-adv-x="1587" 
d="M430 756q-121 0 -195.5 72t-74.5 185q0 155 108 262t268 107q121 0 194.5 -72t73.5 -185q0 -156 -108 -262.5t-266 -106.5zM165 0l1093 1362h207l-1093 -1362h-207zM453 918q75 0 129.5 53.5t54.5 131.5q0 52 -34 84.5t-90 32.5q-74 0 -128.5 -54t-54.5 -130
q0 -53 33.5 -85.5t89.5 -32.5zM1106 -11q-120 0 -194.5 71.5t-74.5 183.5q0 153 107.5 259.5t266.5 106.5q120 0 194.5 -72t74.5 -185q0 -154 -108 -259t-266 -105zM1129 151q75 0 128.5 55t53.5 126q0 52 -33.5 84t-89.5 32q-74 0 -127.5 -52.5t-53.5 -129.5
q0 -52 33 -83.5t89 -31.5z" />
    <glyph glyph-name="ampersand" unicode="&#x26;" horiz-adv-x="1277" 
d="M1206 652q-50 -247 -202 -419q93 -133 164 -233h-233q-15 21 -40.5 57.5t-34.5 48.5q-188 -129 -425 -129q-175 0 -281.5 91t-106.5 237q0 86 28 160t81.5 133t113.5 104.5t141 91.5q-84 163 -84 277q0 179 119.5 282t312.5 103q147 0 237 -74.5t90 -191.5
q0 -56 -15.5 -106t-47 -93t-66.5 -78.5t-86 -70t-94 -60t-101 -55.5q82 -135 222 -341q94 116 125 266h183zM739 1290q-93 0 -155.5 -53t-62.5 -135q0 -81 67 -216q45 22 63.5 31.5t58.5 32t59 36.5t47 38t41 44.5t23.5 47.5t10.5 55q0 54 -41 86.5t-111 32.5zM469 170
q151 0 285 86q-165 237 -253 380q-116 -65 -181 -135t-65 -165q0 -76 57.5 -121t156.5 -45z" />
    <glyph glyph-name="quotesingle" unicode="'" horiz-adv-x="471" 
d="M203 922l103 516h202l-103 -516h-202z" />
    <glyph glyph-name="parenleft" unicode="(" horiz-adv-x="651" 
d="M220 -283q-135 272 -135 618t136 680.5t378 601.5h241q-242 -253 -391 -591.5t-149 -666.5q0 -357 158 -642h-238z" />
    <glyph glyph-name="parenright" unicode=")" horiz-adv-x="651" 
d="M-144 -283q242 251 391 589.5t149 666.5q0 359 -158 644h238q136 -277 136 -619q0 -347 -134.5 -683t-372.5 -598h-249z" />
    <glyph glyph-name="asterisk" unicode="*" horiz-adv-x="833" 
d="M872 1144l-220 -69l99 -164l-139 -102l-105 181l-185 -188l-115 109l176 172l-191 70l85 153l185 -70l42 212h166l-42 -213l215 71z" />
    <glyph glyph-name="plus" unicode="+" horiz-adv-x="1085" 
d="M1066 790l-40 -194h-368l-79 -390h-212l78 390h-371l40 194h370l77 382h213l-77 -382h369z" />
    <glyph glyph-name="comma" unicode="," horiz-adv-x="516" 
d="M-9 -290l24 113q128 33 158 177h-135l50 251h248l-47 -243q-50 -254 -298 -298z" />
    <glyph glyph-name="hyphen" unicode="-" horiz-adv-x="931" 
d="M122 468l42 210h656l-42 -210h-656z" />
    <glyph glyph-name="period" unicode="." horiz-adv-x="501" 
d="M36 0l50 253h240l-50 -253h-240z" />
    <glyph glyph-name="slash" unicode="/" horiz-adv-x="970" 
d="M-73 -149l949 1708h227l-947 -1708h-229z" />
    <glyph glyph-name="zero" unicode="0" horiz-adv-x="1282" 
d="M537 -25q-200 0 -312.5 136t-112.5 370q0 138 29.5 270.5t88 247.5t139.5 201.5t192 136.5t238 50q201 0 312 -135t111 -369q0 -137 -29.5 -269.5t-88.5 -247.5t-140.5 -202.5t-191.5 -138t-235 -50.5zM569 181q101 0 186 63.5t138.5 163.5t83.5 219t30 236
q0 152 -63 235t-179 83q-101 0 -186.5 -63t-139.5 -163.5t-83.5 -219.5t-29.5 -238q0 -151 63 -233.5t180 -82.5z" />
    <glyph glyph-name="one" unicode="1" horiz-adv-x="688" 
d="M212 1362h452l-272 -1362h-212l235 1176h-241z" />
    <glyph glyph-name="two" unicode="2" horiz-adv-x="1089" 
d="M1052 1049q0 -180 -164 -384q-104 -130 -353 -356q-33 -30 -127 -115h526l-39 -194h-930l12 59q48 43 141 124q331 293 454 417q231 234 263 378q6 26 6 51q0 72 -48 115t-130 43q-99 0 -169 -56.5t-93 -150.5l-8 -32h-209l7 32q48 201 180 304.5t320 103.5
q160 0 260.5 -94t100.5 -245z" />
    <glyph glyph-name="three" unicode="3" horiz-adv-x="1097" 
d="M1110 1362l-9 -45l-395 -468q128 -28 202 -123t74 -227q0 -144 -73.5 -264.5t-200.5 -190t-278 -69.5q-175 0 -280 100.5t-105 264.5q0 11 5 69h206q-15 -104 43 -168t164 -64q128 0 219 93.5t91 216.5q0 92 -63 147t-168 55h-168l6 38l375 447h-511l37 188h829z" />
    <glyph glyph-name="four" unicode="4" horiz-adv-x="1112" 
d="M1043 464l-37 -185h-137l-56 -279h-200l56 279h-682l8 44l676 1039h218l-587 -898h407l113 388h162l-78 -388h137z" />
    <glyph glyph-name="five" unicode="5" horiz-adv-x="1085" 
d="M1035 1176h-525l-95 -306h178q177 0 283 -107t106 -270q0 -142 -73.5 -261.5t-198.5 -188t-272 -68.5q-175 0 -284 99t-109 256q0 42 7 78h207q-17 -101 42 -168t164 -67q122 0 214.5 90t92.5 217q0 92 -61.5 148t-163.5 56h-355l-22 31l201 647h701z" />
    <glyph glyph-name="six" unicode="6" horiz-adv-x="1136" 
d="M682 894q163 0 273.5 -105.5t110.5 -268.5q0 -152 -77.5 -277.5t-211 -196.5t-293.5 -71q-189 0 -304.5 111.5t-115.5 283.5q0 128 62 250.5t178 273.5l367 477h232q-268 -352 -392 -510q86 33 171 33zM510 176q143 0 245.5 98t102.5 233q0 96 -65 154.5t-173 58.5
q-142 0 -245.5 -97.5t-103.5 -230.5q0 -97 65.5 -156.5t173.5 -59.5z" />
    <glyph glyph-name="seven" unicode="7" horiz-adv-x="1034" 
d="M208 1362h940l-7 -33l-796 -1329h-217l710 1176h-667z" />
    <glyph glyph-name="eight" unicode="8" horiz-adv-x="1183" 
d="M937 717q58 -41 89.5 -107.5t31.5 -145.5q0 -143 -77.5 -255.5t-207.5 -173t-286 -60.5q-191 0 -306 100t-115 259q0 131 68.5 237t184.5 168q-85 79 -85 218q0 194 147 312t368 118q174 0 279.5 -89.5t105.5 -230.5q0 -101 -55 -197.5t-142 -152.5zM644 813
q117 0 200 69.5t83 169.5q0 71 -55 115t-149 44q-118 0 -199.5 -68t-81.5 -169q0 -73 54.5 -117t147.5 -44zM512 159q141 0 237.5 81.5t96.5 204.5q0 86 -64 138t-174 52q-139 0 -236 -82t-97 -203q0 -87 63.5 -139t173.5 -52z" />
    <glyph glyph-name="nine" unicode="9" horiz-adv-x="1136" 
d="M708 1387q188 0 302.5 -109.5t114.5 -281.5q0 -89 -34.5 -184t-82 -170.5t-122.5 -172.5l-367 -469h-231q348 447 385 495q-81 -27 -165 -27q-169 0 -276.5 108t-107.5 269q0 151 78.5 275.5t212.5 195.5t293 71zM571 641q143 0 246.5 96t103.5 234q0 97 -66 157.5
t-175 60.5q-145 0 -249 -98.5t-104 -234.5q0 -97 66.5 -156t177.5 -59z" />
    <glyph glyph-name="colon" unicode=":" horiz-adv-x="518" 
d="M182 766l51 253h240l-51 -253h-240zM29 0l50 253h240l-50 -253h-240z" />
    <glyph glyph-name="semicolon" unicode=";" horiz-adv-x="528" 
d="M190 768l49 252h240l-49 -252h-240zM-14 -290l23 113q129 33 159 177h-136l50 251h249l-48 -243q-50 -254 -297 -298z" />
    <glyph glyph-name="less" unicode="&#x3c;" horiz-adv-x="1089" 
d="M1081 1273l-50 -258l-615 -342l479 -338l-48 -230l-769 560l7 36z" />
    <glyph glyph-name="equal" unicode="=" horiz-adv-x="1271" 
d="M197 818l40 197h983l-40 -197h-983zM107 364l40 197h983l-40 -197h-983z" />
    <glyph glyph-name="greater" unicode="&#x3e;" horiz-adv-x="1087" 
d="M298 1273l765 -572l-7 -36l-992 -560l52 265l609 336l-473 344z" />
    <glyph glyph-name="question" unicode="?" horiz-adv-x="1064" 
d="M363 412q31 159 84 241t183 165q44 28 70.5 46t64 51t58.5 62.5t37 72.5t16 90q0 82 -56.5 128.5t-148.5 46.5q-104 0 -190.5 -61.5t-112.5 -165.5h-205q30 136 113.5 235t192.5 146t231 47q167 0 278 -96t111 -257q0 -67 -16 -125t-42 -102t-68 -87t-83.5 -74.5
t-99.5 -69.5q-104 -68 -140.5 -122.5t-58.5 -170.5h-218zM276 0l50 253h240l-50 -253h-240z" />
    <glyph glyph-name="at" unicode="@" horiz-adv-x="2058" 
d="M1166 1377q236 0 418.5 -87t285 -249t102.5 -374q0 -167 -54 -307t-161 -228t-248 -88q-85 0 -149.5 39t-90.5 105q-74 -77 -170.5 -120.5t-204.5 -43.5q-170 0 -276.5 107t-106.5 271q0 110 43 211t116 175.5t175.5 119t214.5 44.5q99 0 177.5 -40t126.5 -111l50 102
h111q-15 -73 -29 -143t-23 -116t-18 -90t-14.5 -70t-10.5 -51t-7 -38t-4 -25.5t-2.5 -19.5t-0.5 -14q0 -58 32.5 -93t86.5 -35q80 0 143 70.5t93 171t30 207.5q0 250 -171 401.5t-463 151.5q-189 0 -362.5 -70t-299.5 -188.5t-200.5 -282.5t-74.5 -344q0 -246 162 -391.5
t441 -145.5q212 0 374 79l-34 -168q-183 -80 -373 -80q-222 0 -390.5 88t-259.5 247t-91 366q0 222 86.5 418.5t234.5 336.5t352.5 221t433.5 81zM936 208q140 0 241 103t101 242q0 98 -61.5 158t-167.5 60q-138 0 -240 -102.5t-102 -240.5q0 -98 62.5 -159t166.5 -61z" />
    <glyph glyph-name="A" unicode="A" horiz-adv-x="1439" 
d="M1071 0l-64 318h-646l-189 -318h-250l865 1434h211l308 -1434h-235zM839 1141l-367 -629h495z" />
    <glyph glyph-name="B" unicode="B" horiz-adv-x="1325" 
d="M1045 737q69 -37 105.5 -107t36.5 -159q0 -100 -42 -188t-112.5 -150t-165.5 -97.5t-197 -35.5h-595l286 1434h566q156 0 254.5 -91t98.5 -226q0 -114 -66.5 -218.5t-168.5 -161.5zM799 835q98 0 170.5 70.5t72.5 168.5q0 70 -45.5 113.5t-120.5 43.5h-335l-79 -396h337z
M686 209q111 0 189.5 76.5t78.5 181.5q0 77 -50 125t-134 48h-347l-86 -431h349z" />
    <glyph glyph-name="C" unicode="C" horiz-adv-x="1585" 
d="M725 -25q-277 0 -445 166t-168 429q0 179 70.5 343.5t189 283.5t282.5 190t343 71q247 0 412 -146t179 -383h-225q-23 148 -123.5 230.5t-262.5 82.5q-170 0 -317.5 -90.5t-234 -241.5t-86.5 -323q0 -183 108.5 -289t299.5 -106q171 0 316 89t219 244h235
q-102 -264 -314 -407t-478 -143z" />
    <glyph glyph-name="D" unicode="D" horiz-adv-x="1503" 
d="M845 1434q276 0 444 -162.5t168 -420.5q0 -171 -68.5 -328.5t-184 -272t-275.5 -182.5t-336 -68h-518l286 1434h484zM604 204q166 0 311 89.5t230 238t85 315.5q0 176 -109.5 280t-298.5 104h-277l-206 -1027h265z" />
    <glyph glyph-name="E" unicode="E" horiz-adv-x="1132" 
d="M1148 1227h-603l-79 -395h551l-41 -200h-551l-85 -424h627l-41 -208h-851l286 1434h829z" />
    <glyph glyph-name="F" unicode="F" horiz-adv-x="1079" 
d="M1144 1229h-597l-86 -428h545l-41 -199h-544l-120 -602h-225l285 1434h823z" />
    <glyph glyph-name="G" unicode="G" horiz-adv-x="1634" 
d="M775 530l40 193h767q-64 -345 -290 -547t-559 -202q-277 0 -448.5 169.5t-171.5 435.5q0 175 68.5 337t184 281t276.5 190t338 71q170 0 308.5 -68t218.5 -189.5t83 -272.5h-226q-21 143 -127 228.5t-268 85.5q-171 0 -316.5 -91.5t-229 -244.5t-83.5 -328
q0 -181 107 -284.5t298 -103.5q193 0 335 91.5t210 248.5h-515z" />
    <glyph glyph-name="H" unicode="H" horiz-adv-x="1490" 
d="M1258 1434h225l-287 -1434h-225l128 637h-673l-127 -637h-224l286 1434h225l-119 -596h672z" />
    <glyph glyph-name="I" unicode="I" horiz-adv-x="593" 
d="M75 0l286 1434h225l-287 -1434h-224z" />
    <glyph glyph-name="J" unicode="J" horiz-adv-x="1224" 
d="M460 -26q-201 0 -318 110.5t-118 298.5q0 60 14 132h221q-10 -58 -10 -96q0 -108 58 -169t168 -61q120 0 217.5 88.5t123.5 221.5l186 935h225l-191 -972q-43 -221 -200 -354.5t-376 -133.5z" />
    <glyph glyph-name="K" unicode="K" horiz-adv-x="1312" 
d="M1450 1434l-633 -708l394 -726h-259l-340 634h-186l-127 -634h-224l286 1434h225l-118 -589h171l522 589h289z" />
    <glyph glyph-name="L" unicode="L" horiz-adv-x="1040" 
d="M339 203h602l-40 -203h-826l286 1434h225z" />
    <glyph glyph-name="M" unicode="M" horiz-adv-x="1970" 
d="M1604 1434h226l-55 -1434h-221l41 1050l-677 -1025h-57l-267 1025l-383 -1050h-235l520 1434h218l247 -983z" />
    <glyph glyph-name="N" unicode="N" horiz-adv-x="1538" 
d="M1302 1434h226l-286 -1434h-186l-547 1045l-208 -1045h-226l286 1434h200l535 -1029z" />
    <glyph glyph-name="O" unicode="O" horiz-adv-x="1693" 
d="M753 -26q-189 0 -335 81.5t-224.5 223t-78.5 318.5t69 336.5t187.5 275t284.5 183.5t352 68q284 0 460 -176t176 -446q0 -177 -69 -337t-187 -275.5t-283.5 -183.5t-351.5 -68zM785 189q134 0 252.5 52t201 139t130.5 202.5t48 238.5q0 188 -121.5 306t-321.5 118
q-133 0 -252 -52t-201.5 -138.5t-130.5 -201.5t-48 -237q0 -189 121.5 -308t321.5 -119z" />
    <glyph glyph-name="P" unicode="P" horiz-adv-x="1257" 
d="M874 1434q182 0 297 -112t115 -282q0 -149 -77 -275.5t-208.5 -199.5t-285.5 -73h-317l-99 -492h-224l286 1434h513zM726 701q134 0 233.5 97.5t99.5 229.5q0 90 -58.5 143.5t-161.5 53.5h-295l-105 -524h287z" />
    <glyph glyph-name="Q" unicode="Q" horiz-adv-x="1697" 
d="M1644 838q0 -209 -93 -390t-256 -301l213 -313h-240l-146 214q-173 -74 -369 -74q-189 0 -335 81.5t-224.5 223t-78.5 318.5t69 336.5t187.5 275t284.5 183.5t352 68q284 0 460 -176t176 -446zM785 189q114 0 216 37l-252 370h240l186 -273q113 90 177.5 221.5
t64.5 276.5q0 188 -121.5 306t-321.5 118q-133 0 -252 -52t-201.5 -138.5t-130.5 -201.5t-48 -237q0 -189 121.5 -308t321.5 -119z" />
    <glyph glyph-name="R" unicode="R" horiz-adv-x="1329" 
d="M1312 1058q0 -174 -107.5 -308.5t-276.5 -186.5l218 -563h-241l-205 536h-293l-108 -536h-224l286 1434h541q182 0 296 -105.5t114 -270.5zM761 742q134 0 228.5 89.5t94.5 213.5q0 84 -57.5 133.5t-159.5 49.5h-322l-97 -486h313z" />
    <glyph glyph-name="S" unicode="S" horiz-adv-x="1234" 
d="M514 -26q-210 0 -333 99t-123 277q0 55 9 100h228q-5 -24 -5 -53q0 -99 74 -155t190 -56q136 0 236.5 74.5t100.5 188.5q0 29 -10 53t-32 43t-45.5 33t-61 27.5t-66.5 22t-74 19.5q-51 13 -82 22t-77.5 25.5t-75.5 32t-62.5 41t-52.5 54t-32 68t-13 85.5q0 225 164 355
t419 130q197 0 306.5 -91t109.5 -252q0 -47 -9 -100h-222q5 21 5 51q0 86 -64.5 135t-170.5 49q-128 0 -219.5 -63.5t-91.5 -165.5q0 -32 16 -58t38.5 -43t63.5 -34t74 -26.5t87 -23.5q53 -14 83.5 -22.5t80.5 -26t79.5 -33.5t65.5 -43t55.5 -57t33.5 -72t14 -92
q0 -156 -82 -275t-220 -181t-309 -62z" />
    <glyph glyph-name="T" unicode="T" horiz-adv-x="1146" 
d="M1281 1434l-41 -202h-422l-246 -1232h-224l246 1232h-426l41 202h1072z" />
    <glyph glyph-name="U" unicode="U" horiz-adv-x="1482" 
d="M644 -26q-216 0 -353.5 127t-137.5 327q0 16 1 31t4.5 39.5t7.5 48.5t12.5 69.5t17.5 90.5t25 123.5t32 156t41 201t50 246.5h227q-45 -229 -106 -531q-54 -274 -67 -344t-13 -102q0 -125 73.5 -196.5t204.5 -71.5q154 0 274.5 101t151.5 261l175 883h226l-186 -915
q-47 -246 -229 -395.5t-431 -149.5z" />
    <glyph glyph-name="V" unicode="V" horiz-adv-x="1404" 
d="M1290 1434h257l-847 -1434h-209l-287 1434h236l207 -1109z" />
    <glyph glyph-name="W" unicode="W" horiz-adv-x="2107" 
d="M1999 1434h245l-736 -1434h-195l-180 942l-548 -942h-202l-172 1434h226l116 -1072l621 1051h72l211 -1056z" />
    <glyph glyph-name="X" unicode="X" horiz-adv-x="1245" 
d="M1373 1434l-572 -691l323 -743h-242l-240 564l-465 -564h-273l622 752l-301 682h242l219 -509l420 509h267z" />
    <glyph glyph-name="Y" unicode="Y" horiz-adv-x="1357" 
d="M1491 1434l-692 -859l-115 -575h-232l115 575l-344 859h230l259 -651l522 651h257z" />
    <glyph glyph-name="Z" unicode="Z" horiz-adv-x="1165" 
d="M1267 1434l-10 -47l-927 -1186h712l-40 -201h-1060l8 41l932 1192h-661l41 201h1005z" />
    <glyph glyph-name="bracketleft" unicode="[" horiz-adv-x="692" 
d="M812 1444h-244l-311 -1552h250l-38 -185h-452l382 1919h449z" />
    <glyph glyph-name="backslash" unicode="\" horiz-adv-x="923" 
d="M512 -149l-265 1708h227l266 -1708h-228z" />
    <glyph glyph-name="bracketright" unicode="]" horiz-adv-x="694" 
d="M274 1626h448l-382 -1919h-453l37 185h249l311 1552h-245z" />
    <glyph glyph-name="asciicircum" unicode="^" horiz-adv-x="1118" 
d="M1086 694h-230l-168 399l-327 -399h-262l625 744h36z" />
    <glyph glyph-name="underscore" unicode="_" horiz-adv-x="1058" 
d="M-164 -298l42 208h1057l-42 -208h-1057z" />
    <glyph glyph-name="grave" unicode="`" horiz-adv-x="1228" 
d="M726 1234h-168l-131 311h231z" />
    <glyph glyph-name="a" unicode="a" horiz-adv-x="1425" 
d="M1200 1106h171l-221 -1106h-173l5 131q-184 -157 -425 -157q-216 0 -350 136t-134 346q0 180 90.5 335.5t247 248t339.5 92.5q126 0 226 -49.5t163 -138.5zM598 180q117 0 220.5 64t165.5 170.5t62 225.5q0 129 -83.5 207.5t-221.5 78.5q-116 0 -219.5 -64t-165.5 -170.5
t-62 -224.5q0 -129 83.5 -208t220.5 -79z" />
    <glyph glyph-name="b" unicode="b" horiz-adv-x="1406" 
d="M855 1132q217 0 348.5 -133.5t131.5 -343.5q0 -183 -90 -340t-246 -249t-341 -92q-120 0 -217 45t-160 127l-60 -146h-165l301 1502h217l-101 -500q175 130 382 130zM668 180q87 0 169 38t142.5 101t97.5 147.5t37 173.5q0 129 -83 207.5t-220 78.5q-117 0 -221 -65.5
t-165 -171.5t-61 -222q0 -128 83.5 -207.5t220.5 -79.5z" />
    <glyph glyph-name="c" unicode="c" horiz-adv-x="1263" 
d="M558 -26q-215 0 -349.5 136t-134.5 346q0 134 54.5 259t146.5 216.5t218 146t263 54.5q202 0 331 -114.5t144 -301.5h-214q-26 99 -100 154.5t-183 55.5q-85 0 -165.5 -39t-140 -102t-96 -148t-36.5 -173q0 -127 78 -205.5t206 -78.5q111 0 209.5 57.5t164.5 160.5h223
q-81 -195 -248.5 -309.5t-370.5 -114.5z" />
    <glyph glyph-name="d" unicode="d" horiz-adv-x="1404" 
d="M1215 1502h217l-301 -1502h-163l-3 123q-184 -149 -413 -149q-212 0 -345.5 135t-133.5 346q0 180 91 336t248 248.5t340 92.5q227 0 358 -152zM601 184q177 0 310.5 137t133.5 317q0 129 -83 207t-222 78q-117 0 -221 -64.5t-165 -169.5t-61 -219q0 -129 84.5 -207.5
t223.5 -78.5z" />
    <glyph glyph-name="e" unicode="e" horiz-adv-x="1286" 
d="M1193 477h-911q-1 -10 -1 -29q0 -129 75.5 -200.5t211.5 -71.5q103 0 194.5 45.5t149.5 124.5h239q-100 -177 -255.5 -274.5t-341.5 -97.5q-212 0 -346 136t-134 345q0 134 52.5 258.5t141 216.5t212.5 147t261 55q215 0 346 -136.5t131 -346.5q0 -82 -25 -172zM729 936
q-133 0 -240 -77t-162 -200h687q-4 131 -79 204t-206 73z" />
    <glyph glyph-name="f" unicode="f" horiz-adv-x="808" 
d="M800 1364q-97 0 -146.5 -42t-69.5 -140l-18 -86h324l-36 -180h-317l-183 -916h-217l183 916h-210l36 180h210l20 99q34 172 135 258.5t280 86.5h186l-34 -176h-143z" />
    <glyph glyph-name="g" unicode="g" horiz-adv-x="1374" 
d="M1178 1106h142l-193 -968q-54 -267 -225.5 -413.5t-427.5 -146.5q-209 0 -333 104.5t-136 285.5h217q13 -93 91 -145t189 -52q150 0 264 98t147 260l6 31q-174 -127 -380 -127q-201 0 -330 129t-129 328q0 126 52 245t138.5 205.5t204 139t243.5 52.5q125 0 226.5 -51
t162.5 -143zM585 236q111 0 208.5 61t155 160.5t57.5 208.5q0 119 -77.5 191t-206.5 72q-111 0 -209 -61t-155.5 -160.5t-57.5 -208.5q0 -118 78 -190.5t207 -72.5z" />
    <glyph glyph-name="h" unicode="h" horiz-adv-x="1312" 
d="M850 1132q164 0 257 -94.5t93 -257.5q0 -15 -0.5 -27.5t-3 -32t-5 -37t-9 -52.5t-13 -67.5t-19 -94t-24 -120t-31.5 -156.5t-39 -193h-217q17 87 34.5 174t28.5 143.5t22.5 112.5t18 89.5t13 66t9.5 51t6 35.5t4 27.5t1.5 20t0.5 19.5q0 95 -49.5 140.5t-152.5 45.5
q-134 0 -244.5 -96t-140.5 -244v1l-117 -586h-217l301 1502h217l-103 -513q157 143 379 143z" />
    <glyph glyph-name="i" unicode="i" horiz-adv-x="546" 
d="M300 1281l46 228h230l-46 -228h-230zM56 0l221 1106h217l-221 -1106h-217z" />
    <glyph glyph-name="j" unicode="j" horiz-adv-x="571" 
d="M319 1281l46 228h230l-46 -228h-230zM-276 -396l40 198h68q97 0 164 56.5t86 153.5l219 1094h218l-227 -1132q-35 -171 -154.5 -270.5t-291.5 -99.5h-122z" />
    <glyph glyph-name="k" unicode="k" horiz-adv-x="1126" 
d="M1203 1106l-485 -531l305 -575h-242l-252 476h-161l-95 -476h-217l301 1502h217l-166 -825h131l389 429h275z" />
    <glyph glyph-name="l" unicode="l" horiz-adv-x="546" 
d="M56 0l301 1502h217l-301 -1502h-217z" />
    <glyph glyph-name="m" unicode="m" horiz-adv-x="1935" 
d="M1510 1132q145 0 233 -90.5t88 -235.5q-2 -49 -70 -393q-47 -237 -82 -413h-217q28 141 69 343q51 251 61.5 310t10.5 91q0 92 -44.5 139.5t-129.5 47.5q-110 0 -206 -89.5t-126 -224.5q-7 -35 -47 -233.5t-77 -383.5h-212q132 655 137 694q4 27 4 50q0 91 -44 139
t-129 48q-111 0 -206.5 -88.5t-125.5 -221.5l-124 -621h-217l221 1106h154l7 -132q76 75 173 116.5t200 41.5q107 0 184.5 -51.5t110.5 -141.5q77 91 183 142t221 51z" />
    <glyph glyph-name="n" unicode="n" horiz-adv-x="1312" 
d="M848 1132q165 0 258.5 -95.5t93.5 -258.5q0 -18 -1 -34t-3 -33.5t-8 -49.5t-11.5 -63.5t-18.5 -94t-25 -122.5t-34 -168t-43 -213h-217l34 168t28 138.5t22.5 109.5t18 88.5t13 66t10 51t6.5 36t4 28.5t1.5 20t0.5 19q0 206 -212 206q-130 0 -234.5 -92t-137.5 -235
l-120 -604h-217l221 1106h152l9 -149q77 83 183 129t227 46z" />
    <glyph glyph-name="o" unicode="o" horiz-adv-x="1335" 
d="M572 -26q-222 0 -360.5 136.5t-138.5 347.5q0 181 93 336.5t252.5 246.5t345.5 91q222 0 360.5 -136t138.5 -348q0 -181 -93 -336.5t-252.5 -246.5t-345.5 -91zM595 180q122 0 225.5 64t162.5 170t59 227q0 130 -81.5 207.5t-219.5 77.5q-121 0 -224.5 -63.5t-163 -169.5
t-59.5 -228q0 -130 81.5 -207.5t219.5 -77.5z" />
    <glyph glyph-name="p" unicode="p" horiz-adv-x="1409" 
d="M857 1132q215 0 348 -135t133 -346q0 -135 -53 -260t-142.5 -216.5t-215 -146t-262.5 -54.5q-231 0 -365 159l-107 -529h-217l301 1502h147l11 -138q187 164 422 164zM664 180q117 0 221.5 64t167.5 171t63 226q0 128 -81.5 206.5t-217.5 78.5q-119 0 -223.5 -64.5
t-166 -172t-61.5 -227.5q0 -127 81 -204.5t217 -77.5z" />
    <glyph glyph-name="q" unicode="q" horiz-adv-x="1409" 
d="M1209 1106h147l-301 -1502h-217l100 495q-170 -125 -375 -125q-217 0 -353 136.5t-136 346.5q0 179 90 334.5t246 248t338 92.5q125 0 223.5 -48t161.5 -135zM601 181q116 0 218.5 64t163 170.5t60.5 225.5q0 129 -81.5 207t-218.5 78q-118 0 -221.5 -65t-164.5 -171
t-61 -223q0 -128 84 -207t221 -79z" />
    <glyph glyph-name="r" unicode="r" horiz-adv-x="817" 
d="M805 1112h98l-42 -205h-119q-135 0 -222.5 -73.5t-122.5 -213.5l-124 -620h-217l221 1106h148l6 -150q150 156 374 156z" />
    <glyph glyph-name="s" unicode="s" horiz-adv-x="1054" 
d="M422 -26q-176 0 -283.5 83.5t-107.5 224.5q0 32 6 67h211q-3 -18 -3 -33q0 -73 62 -112t150 -39q108 0 182.5 48t74.5 129q0 32 -17.5 55t-54.5 38.5t-71 24t-90 18.5q-43 8 -69.5 13.5t-66.5 16.5t-65 23t-54.5 32t-46 43.5t-27.5 57t-11 73.5q0 182 138.5 288.5
t348.5 106.5q167 0 270.5 -79.5t103.5 -209.5q0 -30 -6 -63h-205q4 22 4 32q0 66 -55.5 101t-141.5 35q-106 0 -174 -45.5t-68 -117.5q0 -30 16.5 -51.5t52.5 -35.5t69.5 -22t88.5 -17q44 -7 71 -12.5t68 -16.5t67 -23t56 -32t47.5 -44.5t29 -59t11.5 -76.5
q0 -131 -68.5 -228t-183 -145t-259.5 -48z" />
    <glyph glyph-name="t" unicode="t" horiz-adv-x="829" 
d="M838 910h-334q-17 -87 -44 -221q-43 -217 -52 -265t-9 -68q0 -75 46 -115t132 -40h131l-40 -203h-150q-160 0 -251.5 82t-91.5 225q0 10 0.5 19t1.5 19t3.5 25.5t5 30.5t8 43t10.5 54.5t14.5 73t18 89.5t23 113.5t27.5 137.5h-198l9 41l462 410h36l-51 -255h333z" />
    <glyph glyph-name="u" unicode="u" horiz-adv-x="1292" 
d="M550 -26q-197 0 -313 107.5t-118 286.5q0 14 0.5 25.5t3 30t5 35t9 51t12.5 65t18 90t23 113.5t30 147t37 181h217q-123 -620 -128 -653q-4 -29 -4 -53q0 -106 60 -163t170 -57q132 0 226 86.5t123 231.5l120 608h217l-131 -651q-44 -224 -197 -352.5t-380 -128.5z" />
    <glyph glyph-name="v" unicode="v" horiz-adv-x="1173" 
d="M1029 1106h229l-678 -1106h-199l-248 1106h219l174 -831z" />
    <glyph glyph-name="w" unicode="w" horiz-adv-x="1732" 
d="M1596 1106h219l-591 -1106h-176l-149 686l-430 -686h-178l-150 1106h215l103 -754l471 742h71l174 -756z" />
    <glyph glyph-name="x" unicode="x" horiz-adv-x="1071" 
d="M1146 1106l-477 -537l285 -569h-231l-199 411l-360 -411h-263l510 577l-258 529h232l178 -380l328 380h255z" />
    <glyph glyph-name="y" unicode="y" horiz-adv-x="1208" 
d="M1056 1106h239l-741 -1143q-134 -207 -243.5 -283t-275.5 -76h-119l40 195h82q109 0 171 43.5t152 178.5l46 67l-276 1018h226l204 -788z" />
    <glyph glyph-name="z" unicode="z" horiz-adv-x="997" 
d="M1042 1106l-7 -36l-708 -871h536l-40 -199h-884l7 33l713 876h-498l40 197h841z" />
    <glyph glyph-name="braceleft" unicode="{" horiz-adv-x="722" 
d="M681 1611h191l-38 -190h-101q-61 0 -103.5 -35.5t-54.5 -95.5l-83 -411q-15 -71 -61.5 -124.5t-108.5 -76.5q41 -23 65.5 -70t24.5 -105q0 -46 -43 -246t-49 -253q-2 -47 26 -73.5t83 -26.5h103l-38 -191h-168q-97 0 -163 67.5t-66 164.5q0 39 52 288.5t52 272.5
q0 38 -26 63t-67 25h-34l36 180h34q47 0 86.5 33t48.5 80l95 470q22 110 109.5 182t197.5 72z" />
    <glyph glyph-name="bar" unicode="|" horiz-adv-x="573" 
d="M-3 -389l422 2109h203l-422 -2109h-203z" />
    <glyph glyph-name="braceright" unicode="}" horiz-adv-x="720" 
d="M660 750h34l-35 -181h-34q-47 0 -86.5 -32.5t-48.5 -79.5l-99 -489q-23 -111 -107.5 -183t-194.5 -72h-196l38 191h102q61 0 103 35.5t54 95.5l88 435q15 72 61.5 126.5t108.5 76.5q-41 22 -65.5 68t-24.5 104q0 47 43.5 251t43.5 228q0 46 -28 71.5t-81 25.5h-103
l38 190h167q97 0 163.5 -67.5t66.5 -163.5q0 -40 -50 -279t-50 -263q0 -39 25.5 -63.5t66.5 -24.5z" />
    <glyph glyph-name="asciitilde" unicode="~" horiz-adv-x="1200" 
d="M801 476q-50 0 -97.5 19t-72 37t-65.5 53q-30 26 -46 38.5t-41.5 24.5t-49.5 12q-51 0 -85.5 -46t-47.5 -132h-171q34 187 115.5 276.5t212.5 89.5q53 0 101 -19t74 -39t62 -54q32 -28 44 -38t38 -23t51 -13q51 0 82 44t49 134h171q-36 -185 -114.5 -274.5t-209.5 -89.5z
" />
    <glyph glyph-name="uni00A0" unicode="&#xa0;" horiz-adv-x="522" 
 />
    <glyph glyph-name="exclamdown" unicode="&#xa1;" horiz-adv-x="559" 
d="M513 1106l-50 -253h-240l50 253h240zM420 690l-211 -1059h-220l212 1059h219z" />
    <glyph glyph-name="cent" unicode="&#xa2;" horiz-adv-x="1228" 
d="M566 177q105 0 198 54.5t155 150.5h209q-66 -163 -204.5 -270.5t-308.5 -129.5l-31 -154h-173l31 157q-165 29 -264.5 150.5t-99.5 292.5q0 161 77 302.5t210.5 232.5t294.5 110l34 168h173l-35 -171q153 -26 247 -129.5t106 -258.5h-208q-26 92 -98 143.5t-176 51.5
q-109 0 -205.5 -61t-153 -160.5t-56.5 -208.5q0 -120 76.5 -195t201.5 -75z" />
    <glyph glyph-name="sterling" unicode="&#xa3;" horiz-adv-x="1218" 
d="M1162 971h-193q6 28 6 62q0 81 -49 126.5t-131 45.5q-98 0 -174.5 -67.5t-96.5 -169.5l-45 -225h340l-37 -174h-338l-77 -391h499l35 176h193l-70 -354h-1040l29 144l143 29l79 396h-114l36 174h112l52 257q37 182 175 291.5t328 109.5q160 0 254.5 -88.5t94.5 -237.5
q0 -46 -11 -104z" />
    <glyph glyph-name="currency" unicode="&#xa4;" horiz-adv-x="1226" 
d="M1031 857q40 -80 40 -169q0 -177 -125 -321l120 -153l-142 -123l-123 157q-121 -70 -252 -70q-132 0 -229 75l-187 -161l-105 128l188 161q-35 73 -35 160q0 184 134 333l-117 148l142 123l125 -154q114 61 238 61q125 0 220 -68l195 163l105 -128zM360 561
q0 -88 61.5 -146t154.5 -58q120 0 217 97.5t97 219.5q0 87 -59 144t-152 57q-121 0 -220 -96.5t-99 -217.5z" />
    <glyph glyph-name="yen" unicode="&#xa5;" horiz-adv-x="1327" 
d="M775 607l-9 -45h372l-27 -134h-372l-23 -116h372l-26 -131h-372l-36 -181h-214l36 181h-371l26 131h371l23 116h-370l26 134h371l9 45l-342 755h213l259 -586l499 586h233z" />
    <glyph glyph-name="brokenbar" unicode="&#xa6;" horiz-adv-x="573" 
d="M239 819l180 901h203l-181 -901h-202zM-3 -389l184 921h203l-184 -921h-203z" />
    <glyph glyph-name="section" unicode="&#xa7;" horiz-adv-x="1067" 
d="M1032 1120h-181q15 85 -38.5 129t-147.5 44q-87 0 -149 -45t-62 -119q0 -30 15.5 -53.5t47 -40.5t63.5 -28.5t81 -24.5q54 -15 93 -28.5t87 -38t78 -53.5t51 -74t21 -100q0 -204 -213 -317q66 -64 66 -164q0 -165 -118 -255.5t-308 -90.5q-158 0 -254.5 72t-96.5 201
q0 33 6 67h181q-14 -87 39.5 -130t149.5 -43q92 0 156 44t64 117q0 24 -11 44t-28.5 34t-47 27t-57 21.5t-68.5 19.5q-51 13 -92.5 28t-87.5 40.5t-77.5 56.5t-52 77.5t-20.5 101.5q0 117 56.5 190.5t165.5 123.5q-70 62 -70 163q0 163 115 254t302 91q157 0 252.5 -74.5
t95.5 -199.5q0 -33 -6 -67zM803 661q0 36 -16 63.5t-48 46.5t-65.5 32.5t-81.5 29.5q-21 6 -31 10q-43 15 -68 25q-85 -28 -135.5 -83.5t-50.5 -124.5q0 -26 8 -46.5t26.5 -37.5t36 -28.5t50.5 -24t54 -19t61 -18.5q45 -13 88 -29q79 28 125.5 80t46.5 124z" />
    <glyph glyph-name="dieresis" unicode="&#xa8;" horiz-adv-x="1228" 
d="M119 1281l46 228h240l-46 -228h-240zM547 1281l46 228h239l-46 -228h-239z" />
    <glyph glyph-name="copyright" unicode="&#xa9;" horiz-adv-x="1710" 
d="M758 -23q-289 0 -466 166t-177 430q0 180 71.5 343t192.5 280.5t289 186.5t353 69q288 0 464 -165t176 -429q0 -181 -71 -344t-191.5 -280.5t-288 -187t-352.5 -69.5zM772 111q154 0 293.5 59t239 158.5t158 235.5t58.5 284q0 213 -138.5 342t-372.5 129
q-154 0 -294 -59.5t-240 -158.5t-159.5 -234.5t-59.5 -282.5q0 -214 140 -343.5t375 -129.5zM820 341q-140 0 -229 88t-89 221q0 119 61 221.5t166 162.5t228 60q130 0 217 -77t87 -192h-143q-16 62 -63.5 96.5t-118.5 34.5q-117 0 -203 -88t-86 -201q0 -81 53.5 -133
t141.5 -52q71 0 131.5 35.5t101.5 99.5h147q-55 -126 -163.5 -201t-238.5 -75z" />
    <glyph glyph-name="ordfeminine" unicode="&#xaa;" horiz-adv-x="944" 
d="M855 1446h122l-137 -682h-126v84q-113 -94 -252 -94q-121 0 -200 86t-79 208q0 170 121.5 289t284.5 119q145 0 226 -104zM505 900q98 0 172.5 73.5t74.5 176.5q0 71 -44.5 116.5t-118.5 45.5q-99 0 -173.5 -74t-74.5 -175q0 -72 45 -117.5t119 -45.5z" />
    <glyph glyph-name="guillemotleft" unicode="&#xab;" horiz-adv-x="1273" 
d="M757 977l-441 -434l266 -426h-244l-267 428l7 34l403 398h276zM1271 977l-444 -437l263 -423h-244l-264 425l6 33l407 402h276z" />
    <glyph glyph-name="logicalnot" unicode="&#xac;" horiz-adv-x="1208" 
d="M161 838h954l-117 -584h-214l77 387h-742z" />
    <glyph glyph-name="registered" unicode="&#xae;" horiz-adv-x="983" 
d="M656 1454q147 0 243 -96t96 -239q0 -121 -66 -230t-177 -175t-236 -66q-146 0 -242.5 97.5t-96.5 239.5q0 124 66.5 232.5t177 172.5t235.5 64zM524 737q99 0 188.5 54t142.5 141t53 182q0 108 -72.5 180t-186.5 72q-151 0 -268 -114.5t-117 -264.5q0 -108 73 -179
t187 -71zM654 1260q52 0 84.5 -35t32.5 -86t-27 -88t-74 -52l57 -147h-93l-52 137h-62l-27 -137h-90l83 408h168zM613 1069q31 0 52 18.5t21 47.5q0 44 -50 44h-78l-22 -110h77z" />
    <glyph glyph-name="macron" unicode="&#xaf;" horiz-adv-x="1038" 
d="M349 1308l35 170h641l-35 -170h-641z" />
    <glyph glyph-name="degree" unicode="&#xb0;" horiz-adv-x="759" 
d="M483 1116q-111 0 -181.5 71t-70.5 177q0 96 53.5 179t139.5 130.5t181 47.5q112 0 184.5 -72t72.5 -179q0 -94 -55 -176.5t-142 -130t-182 -47.5zM513 1256q79 0 141 58t62 136q0 57 -38 94t-99 37q-80 0 -141 -58.5t-61 -137.5q0 -57 37 -93t99 -36z" />
    <glyph glyph-name="plusminus" unicode="&#xb1;" horiz-adv-x="1228" 
d="M801 968h385l-40 -197h-385l-72 -357h-212l72 357h-384l40 197h384l72 359h213zM23 32l39 196h983l-39 -196h-983z" />
    <glyph glyph-name="acute" unicode="&#xb4;" horiz-adv-x="1007" 
d="M342 1233l190 311h231l-254 -311h-167z" />
    <glyph glyph-name="paragraph" unicode="&#xb6;" horiz-adv-x="1304" 
d="M1396 1434l-40 -189h-176l-274 -1374h-200l274 1374h-216l-274 -1374h-200l144 718q-134 22 -212 108.5t-78 215.5q0 142 76 262t204.5 189.5t278.5 69.5h693z" />
    <glyph glyph-name="periodcentered" unicode="&#xb7;" horiz-adv-x="514" 
d="M138 559l50 253h240l-50 -253h-240z" />
    <glyph glyph-name="cedilla" unicode="&#xb8;" horiz-adv-x="796" 
d="M281 -75q71 -12 113 -57t42 -108q0 -105 -79 -168.5t-199 -63.5h-157l23 123h129q52 0 87.5 29.5t35.5 72.5q0 30 -23 48t-63 18h-71l-14 20l109 235h140z" />
    <glyph glyph-name="ordmasculine" unicode="&#xba;" horiz-adv-x="884" 
d="M484 754q-133 0 -218 80t-85 202q0 171 127.5 294.5t303.5 123.5q134 0 217 -80t83 -204q0 -171 -127 -293.5t-301 -122.5zM508 904q102 0 173.5 72t71.5 173q0 70 -45 112.5t-120 42.5q-101 0 -173.5 -72t-72.5 -173q0 -70 45 -112.5t121 -42.5z" />
    <glyph glyph-name="guillemotright" unicode="&#xbb;" horiz-adv-x="1282" 
d="M693 556l-6 -34l-412 -405h-279l452 445l-257 415h239zM947 977l264 -421l-7 -34l-412 -405h-279l453 445l-258 415h239z" />
    <glyph glyph-name="onequarter" unicode="&#xbc;" horiz-adv-x="1785" 
d="M1274 1495h171l-1139 -1556h-171zM374 647h-166l129 646h-127l28 141h293zM1678 289l-28 -136h-72l-31 -153h-155l31 153h-382l6 29l381 604h168l-316 -497h175l68 198h122l-40 -198h73z" />
    <glyph glyph-name="onehalf" unicode="&#xbd;" horiz-adv-x="1746" 
d="M1270 1495h171l-1138 -1556h-171zM371 647h-167l130 646h-128l29 141h293zM1662 589q0 -52 -21 -102.5t-71.5 -110t-95 -103t-131.5 -122.5h253l-32 -151h-553l7 38q31 28 85.5 78.5t82.5 77t73 68.5t69 67t56.5 59t49 57t33.5 49t24 47t7 40q0 34 -22 55t-57 21
q-97 0 -124 -119h-161q25 132 103.5 198.5t199.5 66.5q100 0 162.5 -61t62.5 -153z" />
    <glyph glyph-name="threequarters" unicode="&#xbe;" horiz-adv-x="2033" 
d="M1522 1495h171l-1139 -1556h-171zM691 931q0 -129 -90 -213.5t-227 -84.5q-119 0 -186 70.5t-50 188.5h155q-11 -44 16 -77.5t77 -33.5q62 0 105 45t43 104q0 42 -29.5 66.5t-80.5 24.5h-111l5 30l191 243h-272l28 140h502l-6 -32l-215 -263q67 -22 106 -78t39 -130z
M1926 289l-28 -136h-72l-31 -153h-155l32 153h-383l6 29l382 604h167l-316 -497h175l68 198h122l-40 -198h73z" />
    <glyph glyph-name="questiondown" unicode="&#xbf;" horiz-adv-x="1046" 
d="M488 853l49 253h240l-49 -253h-240zM350 -418q-167 0 -278 96t-111 257q0 67 16 125t42 102t68 87t83.5 74.5t99.5 69.5q105 67 142 123t57 170h218q-29 -158 -83 -239.5t-184 -166.5q-34 -22 -50 -33t-47 -34.5t-48 -40t-39 -43t-33.5 -50.5t-20 -56t-8.5 -66
q0 -82 56 -128t149 -46q104 0 190.5 61t112.5 165h205q-30 -136 -113.5 -234.5t-192.5 -145.5t-231 -47z" />
    <glyph glyph-name="Agrave" unicode="&#xc0;" horiz-adv-x="1439" 
d="M979 1588h-167l-144 291h232zM1071 0l-64 318h-646l-189 -318h-250l865 1434h211l308 -1434h-235zM839 1141l-367 -629h495z" />
    <glyph glyph-name="Aacute" unicode="&#xc1;" horiz-adv-x="1439" 
d="M1234 1879l-257 -291h-168l194 291h231zM1071 0l-64 318h-646l-189 -318h-250l865 1434h211l308 -1434h-235zM839 1141l-367 -629h495z" />
    <glyph glyph-name="Acircumflex" unicode="&#xc2;" horiz-adv-x="1439" 
d="M940 1761l-208 -173h-205l297 291h247l183 -291h-174zM1071 0l-64 318h-646l-189 -318h-250l865 1434h211l308 -1434h-235zM839 1141l-367 -629h495z" />
    <glyph glyph-name="Atilde" unicode="&#xc3;" horiz-adv-x="1439" 
d="M777 1730q-40 0 -69.5 -35t-40.5 -101h-134q28 143 98.5 215t174.5 72q42 0 76 -13.5t50.5 -28.5t40.5 -42q18 -20 29.5 -31t32 -21t43.5 -10q83 0 108 135h137q-26 -140 -98 -212.5t-173 -72.5q-41 0 -76.5 14.5t-54.5 29.5t-46 42q-55 59 -98 59zM787 1434h211
l308 -1434h-235l-64 318h-646l-189 -318h-250zM839 1141l-367 -629h495z" />
    <glyph glyph-name="Adieresis" unicode="&#xc4;" horiz-adv-x="1439" 
d="M850 1841l-44 -227h-240l44 227h240zM1306 1841l-44 -227h-240l45 227h239zM787 1434h211l308 -1434h-235l-64 318h-646l-189 -318h-250zM839 1141l-367 -629h495z" />
    <glyph glyph-name="Aring" unicode="&#xc5;" horiz-adv-x="1439" 
d="M914 1554q-96 0 -154 56.5t-58 145.5q0 124 84.5 204t212.5 80q97 0 155.5 -56.5t58.5 -144.5q0 -123 -86.5 -204t-212.5 -81zM980 1920q-63 0 -108 -42.5t-45 -107.5q0 -43 28 -68.5t76 -25.5q63 0 109.5 43t46.5 107q0 43 -29.5 68.5t-77.5 25.5zM1071 0l-64 318h-646
l-189 -318h-250l865 1434h211l308 -1434h-235zM839 1141l-367 -629h495z" />
    <glyph glyph-name="AE" unicode="&#xc6;" horiz-adv-x="1861" 
d="M1877 1229h-600l-80 -396h549l-41 -201h-548l-85 -425h624l-42 -207h-847l60 300h-495l-237 -300h-270l1140 1434h914zM526 494h380l129 645z" />
    <glyph glyph-name="Ccedilla" unicode="&#xc7;" horiz-adv-x="1585" 
d="M747 192q171 0 316 89t219 244h235q-97 -251 -293.5 -392.5t-445.5 -155.5l-26 -54q69 -13 108.5 -53.5t39.5 -100.5q0 -103 -89 -172t-214 -69h-142l25 124h139q48 0 82 28t34 70q0 29 -23 47t-61 18h-63l-16 26l62 139q-239 28 -380.5 189t-141.5 401q0 179 70.5 343.5
t189 283.5t282.5 190t343 71q247 0 412 -146t179 -383h-225q-23 148 -123.5 230.5t-262.5 82.5q-170 0 -317.5 -90.5t-234 -241.5t-86.5 -323q0 -183 108.5 -289t299.5 -106z" />
    <glyph glyph-name="Egrave" unicode="&#xc8;" horiz-adv-x="1132" 
d="M873 1588h-168l-143 291h231zM1148 1227h-603l-79 -395h551l-41 -200h-551l-85 -424h627l-41 -208h-851l286 1434h829z" />
    <glyph glyph-name="Eacute" unicode="&#xc9;" horiz-adv-x="1132" 
d="M1128 1879l-258 -291h-168l195 291h231zM1148 1227h-603l-79 -395h551l-41 -200h-551l-85 -424h627l-41 -208h-851l286 1434h829z" />
    <glyph glyph-name="Ecircumflex" unicode="&#xca;" horiz-adv-x="1132" 
d="M833 1761l-208 -173h-205l297 291h247l183 -291h-173zM1148 1227h-603l-79 -395h551l-41 -200h-551l-85 -424h627l-41 -208h-851l286 1434h829z" />
    <glyph glyph-name="Edieresis" unicode="&#xcb;" horiz-adv-x="1132" 
d="M744 1841l-45 -227h-240l45 227h240zM1200 1841l-44 -227h-240l44 227h240zM75 0l286 1434h829l-42 -207h-603l-79 -395h551l-41 -200h-551l-85 -424h627l-41 -208h-851z" />
    <glyph glyph-name="Igrave" unicode="&#xcc;" horiz-adv-x="593" 
d="M577 1588h-170l-89 291h226zM75 0l286 1434h225l-287 -1434h-224z" />
    <glyph glyph-name="Iacute" unicode="&#xcd;" horiz-adv-x="593" 
d="M405 1588l152 291h221l-210 -291h-163zM75 0l286 1434h225l-287 -1434h-224z" />
    <glyph glyph-name="Icircumflex" unicode="&#xce;" horiz-adv-x="593" 
d="M650 1879l154 -291h-166l-107 168l-174 -168h-192l268 291h217zM75 0l286 1434h225l-287 -1434h-224z" />
    <glyph glyph-name="Idieresis" unicode="&#xcf;" horiz-adv-x="593" 
d="M231 1612l43 212h230l-43 -212h-230zM558 1612l43 212h230l-43 -212h-230zM75 0l286 1434h225l-287 -1434h-224z" />
    <glyph glyph-name="Eth" unicode="&#xd0;" horiz-adv-x="1540" 
d="M882 1434q276 0 444 -162.5t168 -420.5q0 -171 -68.5 -328.5t-184 -272t-275.5 -182.5t-336 -68h-518l125 627h-187l38 184h186l124 623h484zM641 204q166 0 311 89.5t230 238t85 315.5q0 176 -109.5 280t-298.5 104h-277l-84 -420h389l-38 -184h-388l-85 -423h265z" />
    <glyph glyph-name="Ntilde" unicode="&#xd1;" horiz-adv-x="1538" 
d="M850 1730q-40 0 -69.5 -35t-40.5 -101h-135q28 143 98.5 215t174.5 72q42 0 76 -13.5t51.5 -28.5t40.5 -42q18 -21 29 -31.5t31.5 -20.5t43.5 -10q84 0 109 135h136q-26 -140 -98 -212.5t-173 -72.5q-41 0 -76.5 14.5t-54 29.5t-45.5 42q-55 59 -98 59zM1302 1434h226
l-286 -1434h-186l-547 1045l-208 -1045h-226l286 1434h200l535 -1029z" />
    <glyph glyph-name="Ograve" unicode="&#xd2;" horiz-adv-x="1693" 
d="M957 1588l-143 291h231l80 -291h-168zM753 -26q-189 0 -335 81.5t-224.5 223t-78.5 318.5t69 336.5t187.5 275t284.5 183.5t352 68q284 0 460 -176t176 -446q0 -177 -69 -337t-187 -275.5t-283.5 -183.5t-351.5 -68zM785 189q134 0 252.5 52t201 139t130.5 202.5
t48 238.5q0 188 -121.5 306t-321.5 118q-133 0 -252 -52t-201.5 -138.5t-130.5 -201.5t-48 -237q0 -189 121.5 -308t321.5 -119z" />
    <glyph glyph-name="Oacute" unicode="&#xd3;" horiz-adv-x="1693" 
d="M955 1588l194 291h231l-258 -291h-167zM753 -26q-189 0 -335 81.5t-224.5 223t-78.5 318.5t69 336.5t187.5 275t284.5 183.5t352 68q284 0 460 -176t176 -446q0 -177 -69 -337t-187 -275.5t-283.5 -183.5t-351.5 -68zM785 189q134 0 252.5 52t201 139t130.5 202.5
t48 238.5q0 188 -121.5 306t-321.5 118q-133 0 -252 -52t-201.5 -138.5t-130.5 -201.5t-48 -237q0 -189 121.5 -308t321.5 -119z" />
    <glyph glyph-name="Ocircumflex" unicode="&#xd4;" horiz-adv-x="1693" 
d="M1085 1761l-208 -173h-205l298 291h247l183 -291h-174zM1008 1460q284 0 460 -176t176 -446q0 -177 -69 -337t-187 -275.5t-283.5 -183.5t-351.5 -68q-189 0 -335 81.5t-224.5 223t-78.5 318.5t69 336.5t187.5 275t284.5 183.5t352 68zM785 189q134 0 252.5 52t201 139
t130.5 202.5t48 238.5q0 188 -121.5 306t-321.5 118q-133 0 -252 -52t-201.5 -138.5t-130.5 -201.5t-48 -237q0 -189 121.5 -308t321.5 -119z" />
    <glyph glyph-name="Otilde" unicode="&#xd5;" horiz-adv-x="1693" 
d="M1198 1585q-41 0 -76.5 14.5t-54.5 29.5t-46 42q-55 59 -98 59q-40 0 -69.5 -35t-40.5 -101h-134q28 143 98.5 215t173.5 72q42 0 76 -13.5t51.5 -28.5t40.5 -42q18 -20 29.5 -31t32 -21t43.5 -10q83 0 108 135h136q-26 -140 -98 -212.5t-172 -72.5zM753 -26
q-189 0 -335 81.5t-224.5 223t-78.5 318.5t69 336.5t187.5 275t284.5 183.5t352 68q284 0 460 -176t176 -446q0 -177 -69 -337t-187 -275.5t-283.5 -183.5t-351.5 -68zM785 189q134 0 252.5 52t201 139t130.5 202.5t48 238.5q0 188 -121.5 306t-321.5 118q-133 0 -252 -52
t-201.5 -138.5t-130.5 -201.5t-48 -237q0 -189 121.5 -308t321.5 -119z" />
    <glyph glyph-name="Odieresis" unicode="&#xd6;" horiz-adv-x="1693" 
d="M712 1614l44 227h240l-44 -227h-240zM1168 1614l44 227h240l-44 -227h-240zM753 -26q-189 0 -335 81.5t-224.5 223t-78.5 318.5t69 336.5t187.5 275t284.5 183.5t352 68q284 0 460 -176t176 -446q0 -177 -69 -337t-187 -275.5t-283.5 -183.5t-351.5 -68zM785 189
q134 0 252.5 52t201 139t130.5 202.5t48 238.5q0 188 -121.5 306t-321.5 118q-133 0 -252 -52t-201.5 -138.5t-130.5 -201.5t-48 -237q0 -189 121.5 -308t321.5 -119z" />
    <glyph glyph-name="multiply" unicode="&#xd7;" horiz-adv-x="1064" 
d="M1048 974l-346 -292l230 -292l-161 -133l-229 290l-344 -290l-126 151l347 293l-231 291l166 130l226 -286l339 286z" />
    <glyph glyph-name="Oslash" unicode="&#xd8;" horiz-adv-x="1712" 
d="M1472 1292q92 -81 142 -197t50 -253q0 -176 -71.5 -337t-191.5 -277t-285.5 -185t-345.5 -69q-169 0 -303 61l-129 -162h-244l215 262q-95 80 -145.5 196.5t-50.5 255.5q0 176 72 337.5t193 278t286.5 186t344.5 69.5q171 0 306 -63l131 166h243zM981 1243
q-125 0 -243.5 -52.5t-205 -139t-139 -203.5t-52.5 -240q0 -177 121 -290l710 890q-89 35 -191 35zM794 189q170 0 319 89.5t236 236t87 308.5q0 174 -115 287l-708 -888q84 -32 181 -33z" />
    <glyph glyph-name="Ugrave" unicode="&#xd9;" horiz-adv-x="1482" 
d="M834 1588l-143 291h231l80 -291h-168zM644 -26q-216 0 -353.5 127t-137.5 327q0 16 1 31t4.5 39.5t7.5 48.5t12.5 69.5t17.5 90.5t25 123.5t32 156t41 201t50 246.5h227q-45 -229 -106 -531q-54 -274 -67 -344t-13 -102q0 -125 73.5 -196.5t204.5 -71.5q154 0 274.5 101
t151.5 261l175 883h226l-186 -915q-47 -246 -229 -395.5t-431 -149.5z" />
    <glyph glyph-name="Uacute" unicode="&#xda;" horiz-adv-x="1482" 
d="M831 1588l194 291h232l-258 -291h-168zM644 -26q-216 0 -353.5 127t-137.5 327q0 16 1 31t4.5 39.5t7.5 48.5t12.5 69.5t17.5 90.5t25 123.5t32 156t41 201t50 246.5h227q-45 -229 -106 -531q-54 -274 -67 -344t-13 -102q0 -125 73.5 -196.5t204.5 -71.5q154 0 274.5 101
t151.5 261l175 883h226l-186 -915q-47 -246 -229 -395.5t-431 -149.5z" />
    <glyph glyph-name="Ucircumflex" unicode="&#xdb;" horiz-adv-x="1482" 
d="M962 1761l-208 -173h-205l297 291h247l183 -291h-173zM1264 1434h226l-186 -915q-47 -246 -229 -395.5t-431 -149.5q-216 0 -353.5 127t-137.5 327q0 16 1 31t4.5 39.5t7.5 48.5t12.5 69.5t17.5 90.5t25 123.5t32 156t41 201t50 246.5h227q-45 -229 -106 -531
q-54 -274 -67 -344t-13 -102q0 -125 73.5 -196.5t204.5 -71.5q154 0 274.5 101t151.5 261z" />
    <glyph glyph-name="Udieresis" unicode="&#xdc;" horiz-adv-x="1482" 
d="M588 1614l45 227h239l-44 -227h-240zM1044 1614l45 227h240l-45 -227h-240zM644 -26q-216 0 -353.5 127t-137.5 327q0 16 1 31t4.5 39.5t7.5 48.5t12.5 69.5t17.5 90.5t25 123.5t32 156t41 201t50 246.5h227q-45 -229 -106 -531q-54 -274 -67 -344t-13 -102
q0 -125 73.5 -196.5t204.5 -71.5q154 0 274.5 101t151.5 261l175 883h226l-186 -915q-47 -246 -229 -395.5t-431 -149.5z" />
    <glyph glyph-name="Yacute" unicode="&#xdd;" horiz-adv-x="1357" 
d="M1195 1879l-258 -291h-168l195 291h231zM1491 1434l-692 -859l-115 -575h-232l115 575l-344 859h230l259 -651l522 651h257z" />
    <glyph glyph-name="Thorn" unicode="&#xde;" horiz-adv-x="1280" 
d="M824 1190q185 0 298.5 -112.5t113.5 -285.5q0 -155 -74.5 -280.5t-205 -196.5t-291.5 -71h-317l-49 -244h-224l286 1434h225l-49 -244h287zM683 450q137 0 232 96.5t95 229.5q0 94 -60.5 151t-162.5 57h-291l-107 -534h294z" />
    <glyph glyph-name="germandbls" unicode="&#xdf;" horiz-adv-x="1257" 
d="M1002 777q154 -79 154 -270q0 -151 -77.5 -267.5t-210 -178t-295.5 -61.5h-144l41 204h141q142 0 238.5 83t96.5 206q0 88 -64 139t-177 51h-121l39 197h99q128 0 218.5 78.5t90.5 191.5q0 82 -58.5 131.5t-157.5 49.5q-130 0 -219.5 -82t-118.5 -226l-204 -1023h-217
l207 1038q48 240 197 365t381 125q174 0 282.5 -100.5t108.5 -252.5q0 -118 -63.5 -227t-166.5 -171z" />
    <glyph glyph-name="agrave" unicode="&#xe0;" horiz-adv-x="1425" 
d="M888 1234h-168l-131 311h231zM1200 1106h171l-221 -1106h-173l5 131q-184 -157 -425 -157q-216 0 -350 136t-134 346q0 180 90.5 335.5t247 248t339.5 92.5q126 0 226 -49.5t163 -138.5zM598 180q117 0 220.5 64t165.5 170.5t62 225.5q0 129 -83.5 207.5t-221.5 78.5
q-116 0 -219.5 -64t-165.5 -170.5t-62 -224.5q0 -129 83.5 -208t220.5 -79z" />
    <glyph glyph-name="aacute" unicode="&#xe1;" horiz-adv-x="1425" 
d="M1133 1544l-254 -311h-168l191 311h231zM1200 1106h171l-221 -1106h-173l5 131q-184 -157 -425 -157q-216 0 -350 136t-134 346q0 180 90.5 335.5t247 248t339.5 92.5q126 0 226 -49.5t163 -138.5zM598 180q117 0 220.5 64t165.5 170.5t62 225.5q0 129 -83.5 207.5
t-221.5 78.5q-116 0 -219.5 -64t-165.5 -170.5t-62 -224.5q0 -129 83.5 -208t220.5 -79z" />
    <glyph glyph-name="acircumflex" unicode="&#xe2;" horiz-adv-x="1425" 
d="M864 1419l-211 -186h-204l301 311h248l180 -311h-175zM1200 1106h171l-221 -1106h-173l5 131q-184 -157 -425 -157q-216 0 -350 136t-134 346q0 180 90.5 335.5t247 248t339.5 92.5q126 0 226 -49.5t163 -138.5zM598 180q117 0 220.5 64t165.5 170.5t62 225.5
q0 129 -83.5 207.5t-221.5 78.5q-116 0 -219.5 -64t-165.5 -170.5t-62 -224.5q0 -129 83.5 -208t220.5 -79z" />
    <glyph glyph-name="atilde" unicode="&#xe3;" horiz-adv-x="1425" 
d="M708 1382q-39 0 -66.5 -33t-38.5 -97h-135q28 142 97 212.5t171 70.5q42 0 76.5 -14t50 -28t39.5 -41q20 -22 29.5 -30.5t29.5 -18.5t42 -10q83 0 106 130h134q-28 -139 -97 -209.5t-169 -70.5q-44 0 -82 15.5t-53 28.5t-44 41q-50 54 -90 54zM1200 1106h171l-221 -1106
h-173l5 131q-184 -157 -425 -157q-216 0 -350 136t-134 346q0 180 90.5 335.5t247 248t339.5 92.5q126 0 226 -49.5t163 -138.5zM598 180q117 0 220.5 64t165.5 170.5t62 225.5q0 129 -83.5 207.5t-221.5 78.5q-116 0 -219.5 -64t-165.5 -170.5t-62 -224.5q0 -129 83.5 -208
t220.5 -79z" />
    <glyph glyph-name="adieresis" unicode="&#xe4;" horiz-adv-x="1425" 
d="M782 1509l-46 -228h-240l46 228h240zM1209 1509l-46 -228h-239l46 228h239zM1200 1106h171l-221 -1106h-173l5 131q-184 -157 -425 -157q-216 0 -350 136t-134 346q0 180 90.5 335.5t247 248t339.5 92.5q126 0 226 -49.5t163 -138.5zM598 180q117 0 220.5 64t165.5 170.5
t62 225.5q0 129 -83.5 207.5t-221.5 78.5q-116 0 -219.5 -64t-165.5 -170.5t-62 -224.5q0 -129 83.5 -208t220.5 -79z" />
    <glyph glyph-name="aring" unicode="&#xe5;" horiz-adv-x="1425" 
d="M828 1204q-89 0 -144 53.5t-55 135.5q0 117 80.5 193.5t200.5 76.5q91 0 146 -53.5t55 -137.5q0 -115 -82 -191.5t-201 -76.5zM892 1550q-60 0 -102.5 -40.5t-42.5 -101.5q0 -40 27 -64.5t72 -24.5q60 0 103 40t43 100q0 42 -27.5 66.5t-72.5 24.5zM1200 1106h171
l-221 -1106h-173l5 131q-184 -157 -425 -157q-216 0 -350 136t-134 346q0 180 90.5 335.5t247 248t339.5 92.5q126 0 226 -49.5t163 -138.5zM598 180q117 0 220.5 64t165.5 170.5t62 225.5q0 129 -83.5 207.5t-221.5 78.5q-116 0 -219.5 -64t-165.5 -170.5t-62 -224.5
q0 -129 83.5 -208t220.5 -79z" />
    <glyph glyph-name="ae" unicode="&#xe6;" horiz-adv-x="2226" 
d="M2133 477h-911q-1 -10 -1 -29q0 -129 75.5 -200.5t211.5 -71.5q103 0 194.5 45.5t149.5 124.5h237q-102 -176 -258 -274t-338 -98q-111 0 -202 43t-153 122l-34 -139h-151l11 118q-181 -144 -411 -144q-213 0 -346.5 133.5t-133.5 339.5q0 182 92.5 340t249.5 251.5
t338 93.5q118 0 212.5 -43t157.5 -120l34 137h149l-11 -120q177 146 391 146q212 0 342.5 -133t130.5 -339q0 -90 -26 -183zM1669 936q-133 0 -240 -76.5t-162 -200.5h688q-4 131 -79.5 204t-206.5 73zM600 180q117 0 221 64t166 170.5t62 225.5q0 129 -83.5 207.5
t-222.5 78.5q-117 0 -221 -64t-166 -170.5t-62 -224.5q0 -129 84 -208t222 -79z" />
    <glyph glyph-name="ccedilla" unicode="&#xe7;" horiz-adv-x="1263" 
d="M580 180q111 0 209.5 57.5t164.5 160.5h223q-77 -186 -233.5 -299t-348.5 -124l-24 -50q71 -12 113 -57t42 -108q0 -105 -79 -168.5t-199 -63.5h-157l23 123h129q52 0 87.5 29.5t35.5 72.5q0 30 -23 48t-63 18h-71l-14 20l66 143q-176 31 -281.5 160.5t-105.5 313.5
q0 134 54.5 259t146.5 216.5t218 146t263 54.5q202 0 331 -114.5t144 -301.5h-214q-26 99 -100 154.5t-183 55.5q-85 0 -165.5 -39t-140 -102t-96 -148t-36.5 -173q0 -127 78 -205.5t206 -78.5z" />
    <glyph glyph-name="egrave" unicode="&#xe8;" horiz-adv-x="1286" 
d="M841 1234h-168l-131 311h231zM1193 477h-911q-1 -10 -1 -29q0 -129 75.5 -200.5t211.5 -71.5q103 0 194.5 45.5t149.5 124.5h239q-100 -177 -255.5 -274.5t-341.5 -97.5q-212 0 -346 136t-134 345q0 134 52.5 258.5t141 216.5t212.5 147t261 55q215 0 346 -136.5
t131 -346.5q0 -82 -25 -172zM729 936q-133 0 -240 -77t-162 -200h688q-4 131 -79.5 204t-206.5 73z" />
    <glyph glyph-name="eacute" unicode="&#xe9;" horiz-adv-x="1286" 
d="M1086 1544l-254 -311h-168l191 311h231zM1193 477h-911q-1 -10 -1 -29q0 -129 75.5 -200.5t211.5 -71.5q103 0 194.5 45.5t149.5 124.5h239q-100 -177 -255.5 -274.5t-341.5 -97.5q-212 0 -346 136t-134 345q0 134 52.5 258.5t141 216.5t212.5 147t261 55
q215 0 346 -136.5t131 -346.5q0 -82 -25 -172zM729 936q-133 0 -240 -77t-162 -200h687q-4 131 -79 204t-206 73z" />
    <glyph glyph-name="ecircumflex" unicode="&#xea;" horiz-adv-x="1286" 
d="M817 1419l-211 -186h-204l301 311h247l181 -311h-175zM1193 477h-911q-1 -10 -1 -29q0 -129 75.5 -200.5t211.5 -71.5q103 0 194.5 45.5t149.5 124.5h239q-100 -177 -255.5 -274.5t-341.5 -97.5q-212 0 -346 136t-134 345q0 134 52.5 258.5t141 216.5t212.5 147t261 55
q215 0 346 -136.5t131 -346.5q0 -82 -25 -172zM729 936q-133 0 -240 -77t-162 -200h687q-4 131 -79 204t-206 73z" />
    <glyph glyph-name="edieresis" unicode="&#xeb;" horiz-adv-x="1286" 
d="M735 1509l-46 -228h-240l46 228h240zM1162 1509l-46 -228h-240l46 228h240zM1193 477h-911q-1 -10 -1 -29q0 -129 75.5 -200.5t211.5 -71.5q103 0 194.5 45.5t149.5 124.5h239q-100 -177 -255.5 -274.5t-341.5 -97.5q-212 0 -346 136t-134 345q0 134 52.5 258.5
t141 216.5t212.5 147t261 55q215 0 346 -136.5t131 -346.5q0 -82 -25 -172zM729 936q-133 0 -240 -77t-162 -200h687q-4 131 -79 204t-206 73z" />
    <glyph glyph-name="igrave" unicode="&#xec;" horiz-adv-x="546" 
d="M493 1233h-171l-88 311h227zM56 0l221 1106h217l-221 -1106h-217z" />
    <glyph glyph-name="iacute" unicode="&#xed;" horiz-adv-x="546" 
d="M318 1233l154 311h227l-211 -311h-170zM56 0l221 1106h217l-221 -1106h-217z" />
    <glyph glyph-name="icircumflex" unicode="&#xee;" horiz-adv-x="546" 
d="M728 1233h-165l-124 180l-168 -180h-200l277 311h225zM56 0l221 1106h217l-221 -1106h-217z" />
    <glyph glyph-name="idieresis" unicode="&#xef;" horiz-adv-x="546" 
d="M102 1281l46 228h229l-46 -228h-229zM518 1281l46 228h229l-46 -228h-229zM56 0l221 1106h217l-221 -1106h-217z" />
    <glyph glyph-name="eth" unicode="&#xf0;" horiz-adv-x="1308" 
d="M987 1434q123 -96 187.5 -241.5t64.5 -327.5q0 -176 -39 -326q-63 -261 -231 -412.5t-428 -151.5q-215 0 -343.5 124.5t-128.5 324.5q0 174 81.5 318.5t226 228.5t320.5 84q100 0 190.5 -34t152.5 -98q-1 120 -56.5 218t-154.5 164l-256 -210l-87 103l211 172
q-120 43 -261 43l36 178q224 0 394 -82l178 146l84 -105zM557 175q111 0 211.5 60t160.5 160t60 210q0 121 -78.5 194t-207.5 73q-112 0 -210.5 -59.5t-157 -159.5t-58.5 -213q0 -120 75.5 -192.5t204.5 -72.5z" />
    <glyph glyph-name="ntilde" unicode="&#xf1;" horiz-adv-x="1312" 
d="M696 1382q-39 0 -66.5 -33t-38.5 -97h-135q28 142 97 212.5t171 70.5q42 0 76.5 -14t50 -28t39.5 -41q20 -21 30 -30.5t30 -19t42 -9.5q82 0 105 130h135q-28 -139 -97 -209.5t-169 -70.5q-44 0 -82 15.5t-53.5 28.5t-44.5 41q-50 54 -90 54zM848 1132q165 0 258.5 -95.5
t93.5 -258.5q0 -18 -1 -34t-3 -33.5t-8 -49.5t-11.5 -63.5t-18.5 -94t-25 -122.5t-34 -168t-43 -213h-217l34 168t28 138.5t22.5 109.5t18 88.5t13 66t10 51t6.5 36t4 28.5t1.5 20t0.5 19q0 206 -212 206q-130 0 -234.5 -92t-137.5 -235l-120 -604h-217l221 1106h152l9 -149
q77 83 183 129t227 46z" />
    <glyph glyph-name="ograve" unicode="&#xf2;" horiz-adv-x="1335" 
d="M862 1234h-167l-131 311h231zM572 -26q-222 0 -360.5 136.5t-138.5 347.5q0 181 93 336.5t252.5 246.5t345.5 91q222 0 360.5 -136t138.5 -348q0 -181 -93 -336.5t-252.5 -246.5t-345.5 -91zM595 180q122 0 225.5 64t162.5 170t59 227q0 130 -81.5 207.5t-219.5 77.5
q-121 0 -224.5 -63.5t-163 -169.5t-59.5 -228q0 -130 81.5 -207.5t219.5 -77.5z" />
    <glyph glyph-name="oacute" unicode="&#xf3;" horiz-adv-x="1335" 
d="M686 1233l190 311h231l-253 -311h-168zM572 -26q-222 0 -360.5 136.5t-138.5 347.5q0 181 93 336.5t252.5 246.5t345.5 91q222 0 360.5 -136t138.5 -348q0 -181 -93 -336.5t-252.5 -246.5t-345.5 -91zM595 180q122 0 225.5 64t162.5 170t59 227q0 130 -81.5 207.5
t-219.5 77.5q-121 0 -224.5 -63.5t-163 -169.5t-59.5 -228q0 -130 81.5 -207.5t219.5 -77.5z" />
    <glyph glyph-name="ocircumflex" unicode="&#xf4;" horiz-adv-x="1335" 
d="M1152 1233h-174l-140 186l-211 -186h-204l302 311h247zM572 -26q-222 0 -360.5 136.5t-138.5 347.5q0 181 93 336.5t252.5 246.5t345.5 91q222 0 360.5 -136t138.5 -348q0 -181 -93 -336.5t-252.5 -246.5t-345.5 -91zM595 180q122 0 225.5 64t162.5 170t59 227
q0 130 -81.5 207.5t-219.5 77.5q-121 0 -224.5 -63.5t-163 -169.5t-59.5 -228q0 -130 81.5 -207.5t219.5 -77.5z" />
    <glyph glyph-name="otilde" unicode="&#xf5;" horiz-adv-x="1335" 
d="M952 1243q-44 0 -82 15.5t-53.5 28.5t-44.5 41q-50 54 -90 54q-39 0 -66.5 -33t-38.5 -97h-135q28 142 97 212.5t171 70.5q42 0 76.5 -14t50 -28t39.5 -41q20 -21 30 -30.5t30 -19t42 -9.5q82 0 105 130h135q-28 -139 -97 -209.5t-169 -70.5zM572 -26
q-222 0 -360.5 136.5t-138.5 347.5q0 181 93 336.5t252.5 246.5t345.5 91q222 0 360.5 -136t138.5 -348q0 -181 -93 -336.5t-252.5 -246.5t-345.5 -91zM595 180q122 0 225.5 64t162.5 170t59 227q0 130 -81.5 207.5t-219.5 77.5q-121 0 -224.5 -63.5t-163 -169.5t-59.5 -228
q0 -130 81.5 -207.5t219.5 -77.5z" />
    <glyph glyph-name="odieresis" unicode="&#xf6;" horiz-adv-x="1335" 
d="M471 1281l46 228h240l-47 -228h-239zM898 1281l46 228h240l-46 -228h-240zM572 -26q-222 0 -360.5 136.5t-138.5 347.5q0 181 93 336.5t252.5 246.5t345.5 91q222 0 360.5 -136t138.5 -348q0 -181 -93 -336.5t-252.5 -246.5t-345.5 -91zM595 180q122 0 225.5 64
t162.5 170t59 227q0 130 -81.5 207.5t-219.5 77.5q-121 0 -224.5 -63.5t-163 -169.5t-59.5 -228q0 -130 81.5 -207.5t219.5 -77.5z" />
    <glyph glyph-name="divide" unicode="&#xf7;" horiz-adv-x="1179" 
d="M668 950q-43 0 -69.5 26.5t-26.5 67.5q0 56 43.5 98.5t99.5 42.5q44 0 71 -27t27 -69q0 -58 -44.5 -98.5t-100.5 -40.5zM105 591l39 195h983l-39 -195h-983zM517 192q-44 0 -71 27.5t-27 69.5q0 55 44.5 96.5t100.5 41.5q42 0 69.5 -26.5t27.5 -66.5q0 -57 -43.5 -99.5
t-100.5 -42.5z" />
    <glyph glyph-name="oslash" unicode="&#xf8;" horiz-adv-x="1349" 
d="M1119 1017q76 -62 117.5 -159t41.5 -211q0 -185 -93.5 -340t-253 -244t-346.5 -89q-119 0 -216 40l-105 -139h-207l168 221q-72 62 -111 156.5t-39 204.5q0 185 94 340.5t254.5 245t348.5 89.5q110 0 200 -35l99 134h206zM739 936q-125 0 -231 -66t-165.5 -173
t-59.5 -228q0 -123 76 -201l491 655q-54 13 -111 13zM617 170q124 0 229.5 65.5t165 171.5t59.5 224q0 128 -86 206l-490 -650q56 -17 122 -17z" />
    <glyph glyph-name="ugrave" unicode="&#xf9;" horiz-adv-x="1292" 
d="M840 1234h-167l-131 311h231zM550 -26q-197 0 -313 107.5t-118 286.5q0 14 0.5 25.5t3 30t5 35t9 51t12.5 65t18 90t23 113.5t30 147t37 181h217q-123 -620 -128 -653q-4 -29 -4 -53q0 -106 60 -163t170 -57q132 0 226 86.5t123 231.5l120 608h217l-131 -651
q-44 -224 -197 -352.5t-380 -128.5z" />
    <glyph glyph-name="uacute" unicode="&#xfa;" horiz-adv-x="1292" 
d="M664 1233l190 311h231l-253 -311h-168zM550 -26q-197 0 -313 107.5t-118 286.5q0 14 0.5 25.5t3 30t5 35t9 51t12.5 65t18 90t23 113.5t30 147t37 181h217q-123 -620 -128 -653q-4 -29 -4 -53q0 -106 60 -163t170 -57q132 0 226 86.5t123 231.5l120 608h217l-131 -651
q-44 -224 -197 -352.5t-380 -128.5z" />
    <glyph glyph-name="ucircumflex" unicode="&#xfb;" horiz-adv-x="1292" 
d="M1130 1233h-174l-140 186l-211 -186h-204l302 311h247zM550 -26q-197 0 -313 107.5t-118 286.5q0 14 0.5 25.5t3 30t5 35t9 51t12.5 65t18 90t23 113.5t30 147t37 181h217q-123 -620 -128 -653q-4 -29 -4 -53q0 -106 60 -163t170 -57q132 0 226 86.5t123 231.5l120 608
h217l-131 -651q-44 -224 -197 -352.5t-380 -128.5z" />
    <glyph glyph-name="udieresis" unicode="&#xfc;" horiz-adv-x="1292" 
d="M449 1281l46 228h240l-47 -228h-239zM876 1281l46 228h240l-46 -228h-240zM550 -26q-197 0 -313 107.5t-118 286.5q0 14 0.5 25.5t3 30t5 35t9 51t12.5 65t18 90t23 113.5t30 147t37 181h217q-123 -620 -128 -653q-4 -29 -4 -53q0 -106 60 -163t170 -57q132 0 226 86.5
t123 231.5l120 608h217l-131 -651q-44 -224 -197 -352.5t-380 -128.5z" />
    <glyph glyph-name="yacute" unicode="&#xfd;" horiz-adv-x="1208" 
d="M1046 1544l-254 -311h-167l190 311h231zM1056 1106h239l-741 -1143q-134 -207 -243.5 -283t-275.5 -76h-119l40 195h82q109 0 171 43.5t152 178.5l46 67l-276 1018h226l204 -788z" />
    <glyph glyph-name="thorn" unicode="&#xfe;" horiz-adv-x="1409" 
d="M858 1132q214 0 347 -135t133 -345q0 -136 -53.5 -261t-143 -216.5t-213.5 -146t-259 -54.5q-115 0 -210 41.5t-159 117.5l-107 -529h-217l379 1891h217l-98 -495q175 132 384 132zM665 180q116 0 220.5 64t167.5 170.5t63 225.5q0 129 -81.5 207.5t-218.5 78.5
q-117 0 -220.5 -64.5t-165 -172t-61.5 -227.5q0 -128 80 -205t216 -77z" />
    <glyph glyph-name="ydieresis" unicode="&#xff;" horiz-adv-x="1208" 
d="M695 1509l-46 -228h-240l47 228h239zM1123 1509l-46 -228h-240l46 228h240zM1056 1106h239l-741 -1143q-134 -207 -243.5 -283t-275.5 -76h-119l40 195h82q109 0 171 43.5t152 178.5l46 67l-276 1018h226l204 -788z" />
    <glyph glyph-name="Amacron" unicode="&#x100;" horiz-adv-x="1439" 
d="M1277 1827l-37 -183h-641l37 183h641zM1071 0l-64 318h-646l-189 -318h-250l865 1434h211l308 -1434h-235zM839 1141l-367 -629h495z" />
    <glyph glyph-name="amacron" unicode="&#x101;" horiz-adv-x="1425" 
d="M1198 1478l-35 -170h-641l35 170h641zM1200 1106h171l-221 -1106h-173l5 131q-184 -157 -425 -157q-216 0 -350 136t-134 346q0 180 90.5 335.5t247 248t339.5 92.5q126 0 226 -49.5t163 -138.5zM598 180q117 0 220.5 64t165.5 170.5t62 225.5q0 129 -83.5 207.5
t-221.5 78.5q-116 0 -219.5 -64t-165.5 -170.5t-62 -224.5q0 -129 83.5 -208t220.5 -79z" />
    <glyph glyph-name="Abreve" unicode="&#x102;" horiz-adv-x="1439" 
d="M910 1576q-129 0 -206.5 64.5t-77.5 174.5q0 30 6 64h169q-4 -15 -4 -44q0 -57 34.5 -86t96.5 -29q75 0 123.5 41t63.5 118h173q-28 -143 -128.5 -223t-249.5 -80zM1071 0l-64 318h-646l-189 -318h-250l865 1434h211l308 -1434h-235zM839 1141l-367 -629h495z" />
    <glyph glyph-name="abreve" unicode="&#x103;" horiz-adv-x="1425" 
d="M838 1220q-134 0 -214 70t-80 186q0 26 7 68h169q-6 -28 -6 -50q0 -64 37.5 -96.5t104.5 -32.5q81 0 133 47t69 132h173q-29 -153 -134 -238.5t-259 -85.5zM1200 1106h171l-221 -1106h-173l5 131q-184 -157 -425 -157q-216 0 -350 136t-134 346q0 180 90.5 335.5t247 248
t339.5 92.5q126 0 226 -49.5t163 -138.5zM598 180q117 0 220.5 64t165.5 170.5t62 225.5q0 129 -83.5 207.5t-221.5 78.5q-116 0 -219.5 -64t-165.5 -170.5t-62 -224.5q0 -129 83.5 -208t220.5 -79z" />
    <glyph glyph-name="Aogonek" unicode="&#x104;" horiz-adv-x="1439" 
d="M1024 -250q0 -38 26.5 -60t72.5 -22q58 0 107 16l-27 -134q-80 -31 -167 -31q-88 0 -142 42t-54 115q0 92 63 180t169 149l-63 313h-648l-189 -318h-250l865 1434h211l308 -1434q-113 -34 -197.5 -107t-84.5 -143zM847 1139l-368 -619h491z" />
    <glyph glyph-name="aogonek" unicode="&#x105;" horiz-adv-x="1425" 
d="M1150 0q-245 -125 -245 -259q0 -73 91 -73q66 0 115 16l-27 -134q-80 -31 -167 -31q-88 0 -142 42t-54 115q0 200 258 360l3 95q-184 -157 -425 -157q-216 0 -350 136t-134 346q0 180 90.5 335.5t247 248t339.5 92.5q126 0 226 -49.5t163 -138.5l61 162h171zM598 180
q117 0 220.5 64t165.5 170.5t62 225.5q0 129 -83.5 207.5t-221.5 78.5q-116 0 -219.5 -64t-165.5 -170.5t-62 -224.5q0 -129 83.5 -208t220.5 -79z" />
    <glyph glyph-name="Cacute" unicode="&#x106;" horiz-adv-x="1585" 
d="M925 1588l194 291h232l-258 -291h-168zM725 -25q-277 0 -445 166t-168 429q0 179 70.5 343.5t189 283.5t282.5 190t343 71q247 0 412 -146t179 -383h-225q-23 148 -123.5 230.5t-262.5 82.5q-170 0 -317.5 -90.5t-234 -241.5t-86.5 -323q0 -183 108.5 -289t299.5 -106
q171 0 316 89t219 244h235q-102 -264 -314 -407t-478 -143z" />
    <glyph glyph-name="cacute" unicode="&#x107;" horiz-adv-x="1263" 
d="M671 1233l190 311h231l-253 -311h-168zM558 -26q-215 0 -349.5 136t-134.5 346q0 134 54.5 259t146.5 216.5t218 146t263 54.5q202 0 331 -114.5t144 -301.5h-214q-26 99 -100 154.5t-183 55.5q-85 0 -165.5 -39t-140 -102t-96 -148t-36.5 -173q0 -127 78 -205.5
t206 -78.5q111 0 209.5 57.5t164.5 160.5h223q-81 -195 -248.5 -309.5t-370.5 -114.5z" />
    <glyph glyph-name="Ccircumflex" unicode="&#x108;" horiz-adv-x="1585" 
d="M1056 1761l-208 -173h-205l297 291h247l183 -291h-173zM747 192q171 0 316 89t219 244h235q-102 -264 -314 -407t-478 -143q-277 0 -445 166t-168 429q0 179 70.5 343.5t189 283.5t282.5 190t343 71q247 0 412 -146t179 -383h-225q-23 148 -123.5 230.5t-262.5 82.5
q-170 0 -317.5 -90.5t-234 -241.5t-86.5 -323q0 -183 108.5 -289t299.5 -106z" />
    <glyph glyph-name="ccircumflex" unicode="&#x109;" horiz-adv-x="1263" 
d="M824 1419l-212 -186h-204l302 311h247l181 -311h-175zM580 180q111 0 209.5 57.5t164.5 160.5h223q-81 -195 -248.5 -309.5t-370.5 -114.5q-215 0 -349.5 136t-134.5 346q0 134 54.5 259t146.5 216.5t218 146t263 54.5q202 0 331 -114.5t144 -301.5h-214
q-26 99 -100 154.5t-183 55.5q-85 0 -165.5 -39t-140 -102t-96 -148t-36.5 -173q0 -127 78 -205.5t206 -78.5z" />
    <glyph glyph-name="Cdotaccent" unicode="&#x10a;" horiz-adv-x="1585" 
d="M913 1614l45 227h238l-45 -227h-238zM725 -25q-277 0 -445 166t-168 429q0 179 70.5 343.5t189 283.5t282.5 190t343 71q247 0 412 -146t179 -383h-225q-23 148 -123.5 230.5t-262.5 82.5q-170 0 -317.5 -90.5t-234 -241.5t-86.5 -323q0 -183 108.5 -289t299.5 -106
q171 0 316 89t219 244h235q-102 -264 -314 -407t-478 -143z" />
    <glyph glyph-name="cdotaccent" unicode="&#x10b;" horiz-adv-x="1263" 
d="M678 1281l46 228h230l-46 -228h-230zM558 -26q-215 0 -349.5 136t-134.5 346q0 134 54.5 259t146.5 216.5t218 146t263 54.5q202 0 331 -114.5t144 -301.5h-214q-26 99 -100 154.5t-183 55.5q-85 0 -165.5 -39t-140 -102t-96 -148t-36.5 -173q0 -127 78 -205.5t206 -78.5
q111 0 209.5 57.5t164.5 160.5h223q-81 -195 -248.5 -309.5t-370.5 -114.5z" />
    <glyph glyph-name="Ccaron" unicode="&#x10c;" horiz-adv-x="1585" 
d="M1150 1588h-247l-183 291h181l139 -173l207 173h201zM747 192q171 0 316 89t219 244h235q-102 -264 -314 -407t-478 -143q-277 0 -445 166t-168 429q0 179 70.5 343.5t189 283.5t282.5 190t343 71q247 0 412 -146t179 -383h-225q-23 148 -123.5 230.5t-262.5 82.5
q-170 0 -317.5 -90.5t-234 -241.5t-86.5 -323q0 -183 108.5 -289t299.5 -106z" />
    <glyph glyph-name="ccaron" unicode="&#x10d;" horiz-adv-x="1263" 
d="M912 1233h-247l-179 311h190l130 -188l207 188h202zM580 180q111 0 209.5 57.5t164.5 160.5h223q-81 -195 -248.5 -309.5t-370.5 -114.5q-215 0 -349.5 136t-134.5 346q0 134 54.5 259t146.5 216.5t218 146t263 54.5q202 0 331 -114.5t144 -301.5h-214q-26 99 -100 154.5
t-183 55.5q-85 0 -165.5 -39t-140 -102t-96 -148t-36.5 -173q0 -127 78 -205.5t206 -78.5z" />
    <glyph glyph-name="Dcaron" unicode="&#x10e;" horiz-adv-x="1503" 
d="M935 1588h-247l-183 291h181l139 -173l207 173h201zM845 1434q276 0 444 -162.5t168 -420.5q0 -171 -68.5 -328.5t-184 -272t-275.5 -182.5t-336 -68h-518l286 1434h484zM604 204q166 0 311 89.5t230 238t85 315.5q0 176 -109.5 280t-298.5 104h-277l-206 -1027h265z" />
    <glyph glyph-name="dcaron" unicode="&#x10f;" horiz-adv-x="1437" 
d="M1113 987l104 515h217l-301 -1502h-163l-4 133q-191 -159 -424 -159q-213 0 -341.5 129.5t-128.5 335.5q0 138 55 266.5t147.5 221.5t220 149t265.5 56q222 0 353 -145zM1538 1502h211l-34 -173q-17 -83 -85.5 -142.5t-160.5 -69.5l20 94q46 7 76.5 34t42.5 68h-109z
M601 182q179 0 312.5 134t133.5 315q0 131 -83.5 213t-222.5 82q-118 0 -221 -61t-164 -165.5t-61 -224.5q0 -131 83.5 -212t222.5 -81z" />
    <glyph glyph-name="Dcroat" unicode="&#x110;" horiz-adv-x="1540" 
d="M882 1434q276 0 444 -162.5t168 -420.5q0 -171 -68.5 -328.5t-184 -272t-275.5 -182.5t-336 -68h-518l125 627h-187l38 184h186l124 623h484zM641 204q166 0 311 89.5t230 238t85 315.5q0 176 -109.5 280t-298.5 104h-277l-84 -420h389l-38 -184h-388l-85 -423h265z" />
    <glyph glyph-name="dcroat" unicode="&#x111;" horiz-adv-x="1404" 
d="M1564 1379l-32 -162h-157l-244 -1217h-163l-3 123q-184 -149 -413 -149q-212 0 -345.5 135t-133.5 346q0 180 91 336t248 248.5t340 92.5q227 0 358 -152l48 237h-394l33 162h393l25 123h217l-25 -123h157zM601 184q177 0 310.5 137t133.5 317q0 129 -83 207t-222 78
q-117 0 -221 -64.5t-165 -169.5t-61 -219q0 -129 84.5 -207.5t223.5 -78.5z" />
    <glyph glyph-name="Emacron" unicode="&#x112;" horiz-adv-x="1132" 
d="M1171 1827l-37 -183h-641l37 183h641zM1148 1227h-603l-79 -395h551l-41 -200h-551l-85 -424h627l-41 -208h-851l286 1434h829z" />
    <glyph glyph-name="emacron" unicode="&#x113;" horiz-adv-x="1286" 
d="M1151 1478l-35 -170h-641l35 170h641zM1193 477h-911q-1 -10 -1 -29q0 -129 75.5 -200.5t211.5 -71.5q103 0 194.5 45.5t149.5 124.5h239q-100 -177 -255.5 -274.5t-341.5 -97.5q-212 0 -346 136t-134 345q0 134 52.5 258.5t141 216.5t212.5 147t261 55q215 0 346 -136.5
t131 -346.5q0 -82 -25 -172zM729 936q-133 0 -240 -77t-162 -200h687q-4 131 -79 204t-206 73z" />
    <glyph glyph-name="Ebreve" unicode="&#x114;" horiz-adv-x="1132" 
d="M804 1576q-130 0 -207.5 64.5t-77.5 174.5q0 30 6 64h169q-4 -15 -4 -44q0 -57 34.5 -86t96.5 -29q75 0 124 41t64 118h173q-28 -143 -128.5 -223t-249.5 -80zM1148 1227h-603l-79 -395h551l-41 -200h-551l-85 -424h627l-41 -208h-851l286 1434h829z" />
    <glyph glyph-name="ebreve" unicode="&#x115;" horiz-adv-x="1286" 
d="M790 1220q-134 0 -214 70t-80 186q0 20 8 68h169q-6 -28 -6 -50q0 -64 37 -96.5t104 -32.5q81 0 133.5 47t69.5 132h173q-29 -153 -134.5 -238.5t-259.5 -85.5zM1193 477h-911q-1 -10 -1 -29q0 -129 75.5 -200.5t211.5 -71.5q103 0 194.5 45.5t149.5 124.5h239
q-100 -177 -255.5 -274.5t-341.5 -97.5q-212 0 -346 136t-134 345q0 134 52.5 258.5t141 216.5t212.5 147t261 55q215 0 346 -136.5t131 -346.5q0 -82 -25 -172zM729 936q-133 0 -240 -77.5t-162 -200.5h687q-5 131 -80 204.5t-205 73.5z" />
    <glyph glyph-name="Edotaccent" unicode="&#x116;" horiz-adv-x="1132" 
d="M973 1841l-44 -227h-239l45 227h238zM1148 1227h-603l-79 -395h551l-41 -200h-551l-85 -424h627l-41 -208h-851l286 1434h829z" />
    <glyph glyph-name="edotaccent" unicode="&#x117;" horiz-adv-x="1286" 
d="M947 1509l-46 -228h-230l46 228h230zM1193 477h-911q-1 -10 -1 -29q0 -129 75.5 -200.5t211.5 -71.5q103 0 194.5 45.5t149.5 124.5h239q-100 -177 -255.5 -274.5t-341.5 -97.5q-212 0 -346 136t-134 345q0 134 52.5 258.5t141 216.5t212.5 147t261 55q215 0 346 -136.5
t131 -346.5q0 -82 -25 -172zM729 936q-133 0 -240 -77t-162 -200h687q-4 131 -79 204t-206 73z" />
    <glyph glyph-name="Eogonek" unicode="&#x118;" horiz-adv-x="1132" 
d="M1148 1227h-603l-79 -395h551l-41 -200h-551l-85 -424h627l-41 -208q-105 -47 -175 -115.5t-70 -134.5q0 -38 26.5 -60t72.5 -22q58 0 107 16l-27 -134q-80 -31 -172 -31q-88 0 -139.5 41.5t-51.5 115.5q0 90 60 177.5t158 146.5h-640l286 1434h829z" />
    <glyph glyph-name="eogonek" unicode="&#x119;" horiz-adv-x="1286" 
d="M1193 477h-909q-1 -10 -1 -31q0 -128 75 -199t210 -71q104 0 193.5 44.5t154.5 125.5h228q-104 -196 -339 -329q-246 -134 -246 -267q0 -38 26.5 -60t72.5 -22q61 0 126 26l-27 -134q-87 -41 -174 -41q-88 0 -146 50.5t-58 128.5q0 72 45.5 145t121.5 131
q-209 2 -341 136t-132 339q0 135 53.5 260.5t143.5 218t215 148.5t262 56q216 0 344.5 -134t128.5 -341q0 -85 -27 -180zM731 936q-133 0 -240 -77t-162 -200h686q-4 131 -78.5 204t-205.5 73z" />
    <glyph glyph-name="Ecaron" unicode="&#x11a;" horiz-adv-x="1132" 
d="M927 1588h-247l-182 291h180l139 -173l207 173h201zM75 0l286 1434h829l-42 -207h-603l-79 -395h551l-41 -200h-551l-85 -424h627l-41 -208h-851z" />
    <glyph glyph-name="ecaron" unicode="&#x11b;" horiz-adv-x="1286" 
d="M905 1233h-247l-178 311h189l130 -188l207 188h203zM1193 477h-911q-1 -10 -1 -29q0 -129 75.5 -200.5t211.5 -71.5q103 0 194.5 45.5t149.5 124.5h239q-100 -177 -255.5 -274.5t-341.5 -97.5q-212 0 -346 136t-134 345q0 134 52.5 258.5t141 216.5t212.5 147t261 55
q215 0 346 -136.5t131 -346.5q0 -82 -25 -172zM729 936q-133 0 -240 -77t-162 -200h687q-4 131 -79 204t-206 73z" />
    <glyph glyph-name="Gcircumflex" unicode="&#x11c;" horiz-adv-x="1634" 
d="M1059 1761l-208 -173h-205l298 291h247l183 -291h-174zM775 530l40 193h767q-64 -345 -290 -547t-559 -202q-277 0 -448.5 169.5t-171.5 435.5q0 175 68.5 337t184 281t276.5 190t338 71q170 0 308.5 -68t218.5 -189.5t83 -272.5h-226q-21 143 -127 228.5t-268 85.5
q-171 0 -316.5 -91.5t-229 -244.5t-83.5 -328q0 -181 107 -284.5t298 -103.5q193 0 335 91.5t210 248.5h-515z" />
    <glyph glyph-name="gcircumflex" unicode="&#x11d;" horiz-adv-x="1374" 
d="M823 1419l-211 -186h-204l302 311h247l180 -311h-175zM1178 1106h142l-193 -968q-54 -267 -225.5 -413.5t-427.5 -146.5q-209 0 -333 104.5t-136 285.5h217q13 -93 91 -145t189 -52q150 0 264 98t147 260l6 31q-174 -127 -380 -127q-201 0 -330 129t-129 328
q0 126 52 245t138.5 205.5t204 139t243.5 52.5q125 0 226.5 -51t162.5 -143zM585 236q111 0 208.5 61t155 160.5t57.5 208.5q0 119 -77.5 191t-206.5 72q-111 0 -209 -61t-155.5 -160.5t-57.5 -208.5q0 -118 78 -190.5t207 -72.5z" />
    <glyph glyph-name="Gbreve" unicode="&#x11e;" horiz-adv-x="1634" 
d="M1030 1576q-129 0 -206.5 64.5t-77.5 174.5q0 30 6 64h169q-5 -19 -5 -44q0 -57 35 -86t97 -29q75 0 123.5 41t63.5 118h173q-28 -143 -128.5 -223t-249.5 -80zM775 530l40 193h767q-64 -345 -290 -547t-559 -202q-277 0 -448.5 169.5t-171.5 435.5q0 175 68.5 337
t184 281t276.5 190t338 71q170 0 308.5 -68t218.5 -189.5t83 -272.5h-226q-21 143 -127 228.5t-268 85.5q-171 0 -316.5 -91.5t-229 -244.5t-83.5 -328q0 -181 107 -284.5t298 -103.5q193 0 335 91.5t210 248.5h-515z" />
    <glyph glyph-name="gbreve" unicode="&#x11f;" horiz-adv-x="1374" 
d="M797 1220q-134 0 -214 70t-80 186q0 20 8 68h168q-5 -24 -5 -50q0 -64 37 -96.5t104 -32.5q81 0 133 47t69 132h174q-29 -153 -134.5 -238.5t-259.5 -85.5zM1178 1106h142l-193 -968q-54 -267 -225.5 -413.5t-427.5 -146.5q-209 0 -333 104.5t-136 285.5h217
q13 -93 91 -145t189 -52q150 0 264 98t147 260l6 31q-174 -127 -380 -127q-201 0 -330 129t-129 328q0 126 52 245t138.5 205.5t204 139t243.5 52.5q125 0 226.5 -51t162.5 -143zM585 236q111 0 208.5 61t155 160.5t57.5 208.5q0 119 -77.5 191t-206.5 72q-111 0 -209 -61
t-155.5 -160.5t-57.5 -208.5q0 -118 78 -190.5t207 -72.5z" />
    <glyph glyph-name="Gdotaccent" unicode="&#x120;" horiz-adv-x="1634" 
d="M1200 1841l-45 -227h-238l45 227h238zM775 530l40 193h767q-64 -345 -290 -547t-559 -202q-277 0 -448.5 169.5t-171.5 435.5q0 175 68.5 337t184 281t276.5 190t338 71q170 0 308.5 -68t218.5 -189.5t83 -272.5h-226q-21 143 -127 228.5t-268 85.5q-171 0 -316.5 -91.5
t-229 -244.5t-83.5 -328q0 -181 107 -284.5t298 -103.5q193 0 335 91.5t210 248.5h-515z" />
    <glyph glyph-name="gdotaccent" unicode="&#x121;" horiz-adv-x="1374" 
d="M954 1509l-46 -228h-231l47 228h230zM1178 1106h142l-193 -968q-54 -267 -225.5 -413.5t-427.5 -146.5q-209 0 -333 104.5t-136 285.5h217q13 -93 91 -145t189 -52q150 0 264 98t147 260l6 31q-174 -127 -380 -127q-201 0 -330 129t-129 328q0 126 52 245t138.5 205.5
t204 139t243.5 52.5q125 0 226.5 -51t162.5 -143zM585 236q111 0 208.5 61t155 160.5t57.5 208.5q0 119 -77.5 191t-206.5 72q-111 0 -209 -61t-155.5 -160.5t-57.5 -208.5q0 -118 78 -190.5t207 -72.5z" />
    <glyph glyph-name="uni0122" unicode="&#x122;" horiz-adv-x="1634" 
d="M775 530l40 193h767q-64 -345 -290 -547t-559 -202q-277 0 -448.5 169.5t-171.5 435.5q0 175 68.5 337t184 281t276.5 190t338 71q170 0 308.5 -68t218.5 -189.5t83 -272.5h-226q-21 143 -127 228.5t-268 85.5q-171 0 -316.5 -91.5t-229 -244.5t-83.5 -328
q0 -181 107 -284.5t298 -103.5q193 0 335 91.5t210 248.5h-515zM561 -292l38 189h211l-34 -174q-18 -91 -84 -146t-161 -65l19 94q47 7 77 33.5t38 68.5h-104z" />
    <glyph glyph-name="uni0123" unicode="&#x123;" horiz-adv-x="1374" 
d="M919 1464l-39 -189h-211l34 173q16 83 85 142.5t161 69.5l-20 -95q-47 -7 -77 -33.5t-38 -67.5h105zM1178 1106h142l-193 -968q-54 -267 -225.5 -413.5t-427.5 -146.5q-209 0 -333 104.5t-136 285.5h217q13 -93 91 -145t189 -52q150 0 264 98t147 260l6 31
q-174 -127 -380 -127q-201 0 -330 129t-129 328q0 126 52 245t138.5 205.5t204 139t243.5 52.5q125 0 226.5 -51t162.5 -143zM585 236q111 0 208.5 61t155 160.5t57.5 208.5q0 119 -77.5 191t-206.5 72q-111 0 -209 -61t-155.5 -160.5t-57.5 -208.5q0 -118 78 -190.5
t207 -72.5z" />
    <glyph glyph-name="Hcircumflex" unicode="&#x124;" horiz-adv-x="1490" 
d="M987 1761l-208 -173h-205l298 291h247l183 -291h-174zM1258 1434h225l-287 -1434h-225l128 637h-673l-127 -637h-224l286 1434h225l-119 -596h672z" />
    <glyph glyph-name="hcircumflex" unicode="&#x125;" horiz-adv-x="1312" 
d="M520 1807l-208 -173h-205l297 290h247l183 -290h-173zM850 1132q164 0 257 -94.5t93 -257.5q0 -15 -0.5 -27.5t-3 -32t-5 -37t-9 -52.5t-13 -67.5t-19 -94t-24 -120t-31.5 -156.5t-39 -193h-217q17 87 34.5 174t28.5 143.5t22.5 112.5t18 89.5t13 66t9.5 51t6 35.5
t4 27.5t1.5 20t0.5 19.5q0 95 -49.5 140.5t-152.5 45.5q-134 0 -244.5 -96t-140.5 -244v1l-117 -586h-217l301 1502h217l-103 -513q157 143 379 143z" />
    <glyph glyph-name="Hbar" unicode="&#x126;" horiz-adv-x="1533" 
d="M1625 1262l-35 -173h-158l-218 -1089h-224l126 632h-672l-127 -632h-224l217 1089h-154l35 173h154l34 172h225l-34 -172h672l34 172h225l-35 -172h159zM1158 841l49 248h-672l-50 -248h673z" />
    <glyph glyph-name="hbar" unicode="&#x127;" horiz-adv-x="1312" 
d="M850 1132q164 0 257 -94.5t93 -257.5q0 -15 -0.5 -27.5t-3 -32t-5 -37t-9 -52.5t-13 -67.5t-19 -94t-24 -120t-31.5 -156.5t-39 -193h-217q17 87 34.5 174t28.5 143.5t22.5 112.5t18 89.5t13 66t9.5 51t6 35.5t4 27.5t1.5 20t0.5 19.5q0 95 -49.5 140.5t-152.5 45.5
q-134 0 -244.5 -96t-140.5 -244v1l-117 -586h-217l244 1217h-190l33 162h189l25 123h217l-25 -123h361l-32 -162h-361l-46 -228q157 143 379 143z" />
    <glyph glyph-name="Itilde" unicode="&#x128;" horiz-adv-x="593" 
d="M643 1585q-39 0 -71.5 15.5t-47.5 30t-41 43.5q-37 42 -55 52q-14 7 -29 7q-41 0 -59.5 -29.5t-32.5 -100.5h-136q47 288 250 288q31 0 55 -7t44.5 -24.5t28.5 -26t28 -33.5q16 -20 25.5 -30.5t26.5 -20t35 -9.5q40 0 58 29.5t31 100.5h136q-19 -142 -82 -213.5
t-164 -71.5zM75 0l286 1434h225l-287 -1434h-224z" />
    <glyph glyph-name="itilde" unicode="&#x129;" horiz-adv-x="546" 
d="M554 1238q-39 0 -72 16t-50 32t-40 44q-1 1 -8.5 9.5t-9 10t-8 8.5t-9 8.5t-8 6.5t-9.5 6.5t-9.5 4t-10.5 3t-11 0.5q-41 0 -58.5 -28.5t-32.5 -101.5h-137q29 147 89.5 217t160.5 70q41 0 74 -15.5t48.5 -31t36.5 -43.5q16 -21 25.5 -31t26 -20t33.5 -10q40 0 57 29.5
t31 100.5h137q-27 -144 -87 -214.5t-159 -70.5zM56 0l221 1106h217l-221 -1106h-217z" />
    <glyph glyph-name="Imacron" unicode="&#x12a;" horiz-adv-x="593" 
d="M237 1619l38 190h539l-39 -190h-538zM75 0l286 1434h225l-287 -1434h-224z" />
    <glyph glyph-name="imacron" unicode="&#x12b;" horiz-adv-x="546" 
d="M170 1306l35 172h510l-34 -172h-511zM56 0l221 1106h217l-221 -1106h-217z" />
    <glyph glyph-name="Ibreve" unicode="&#x12c;" horiz-adv-x="593" 
d="M514 1576q-138 0 -210.5 84t-47.5 219h169q-16 -68 13.5 -113.5t93.5 -45.5q67 0 110.5 41t56.5 118h173q-26 -143 -121.5 -223t-236.5 -80zM75 0l286 1434h225l-287 -1434h-224z" />
    <glyph glyph-name="ibreve" unicode="&#x12d;" horiz-adv-x="546" 
d="M415 1220q-148 0 -222 89.5t-48 234.5h168q-15 -81 15.5 -130t104.5 -49q75 0 122.5 47t63.5 132h174q-28 -153 -129 -238.5t-249 -85.5zM56 0l221 1106h217l-221 -1106h-217z" />
    <glyph glyph-name="Iogonek" unicode="&#x12e;" horiz-adv-x="593" 
d="M299 0q-105 -47 -175 -115.5t-70 -134.5q0 -38 26.5 -60t72.5 -22q58 0 107 16l-27 -134q-80 -31 -166 -31q-88 0 -142 42t-54 115q0 90 59.5 177.5t157.5 146.5h-13l286 1434h225z" />
    <glyph glyph-name="iogonek" unicode="&#x12f;" horiz-adv-x="546" 
d="M346 1509h230l-46 -228h-230zM56 0l221 1106h217l-221 -1106q-105 -47 -175 -115.5t-70 -134.5q0 -38 26.5 -60t72.5 -22q54 0 107 17l-27 -135q-80 -31 -166 -31q-89 0 -143 42t-54 115q0 90 60 177.5t158 146.5h-6z" />
    <glyph glyph-name="Idotaccent" unicode="&#x130;" horiz-adv-x="593" 
d="M390 1614l45 227h238l-45 -227h-238zM75 0l286 1434h225l-287 -1434h-224z" />
    <glyph glyph-name="dotlessi" unicode="&#x131;" horiz-adv-x="546" 
d="M56 0l221 1106h217l-221 -1106h-217z" />
    <glyph glyph-name="IJ" unicode="&#x132;" horiz-adv-x="1740" 
d="M75 0l286 1434h225l-287 -1434h-224zM977 -26q-201 0 -318 110.5t-118 298.5q0 60 14 132h221q-10 -58 -10 -96q0 -108 58 -169t168 -61q120 0 218 88.5t124 221.5l186 935h225l-192 -972q-43 -221 -200 -354.5t-376 -133.5z" />
    <glyph glyph-name="ij" unicode="&#x133;" horiz-adv-x="1200" 
d="M300 1281l46 228h230l-46 -228h-230zM947 1281l46 228h231l-47 -228h-230zM56 0l221 1106h217l-221 -1106h-217zM352 -396l40 198h69q97 0 164 56.5t86 153.5l219 1094h217l-227 -1132q-35 -171 -154 -270.5t-291 -99.5h-123z" />
    <glyph glyph-name="Jcircumflex" unicode="&#x134;" horiz-adv-x="1224" 
d="M1286 1879l154 -291h-166l-107 168l-174 -168h-192l269 291h216zM816 499l186 935h225l-191 -972q-43 -221 -200 -354.5t-376 -133.5q-201 0 -318 110.5t-118 298.5q0 60 14 132h221q-10 -58 -10 -96q0 -108 58 -169t168 -61q120 0 217.5 88.5t123.5 221.5z" />
    <glyph glyph-name="jcircumflex" unicode="&#x135;" horiz-adv-x="571" 
d="M746 1233h-165l-124 180l-169 -180h-199l277 311h225zM-276 -396l40 198h68q97 0 164 56.5t86 153.5l219 1094h218l-227 -1132q-35 -171 -154.5 -270.5t-291.5 -99.5h-122z" />
    <glyph glyph-name="uni0136" unicode="&#x136;" horiz-adv-x="1308" 
d="M1450 1434l-633 -708l394 -726h-259l-340 634h-186l-127 -634h-224l286 1434h225l-118 -589h171l522 589h289zM428 -292l38 189h211l-34 -174q-18 -91 -84 -146t-161 -65l20 94q96 14 114 102h-104z" />
    <glyph glyph-name="uni0137" unicode="&#x137;" horiz-adv-x="1120" 
d="M1203 1106l-485 -531l305 -575h-242l-252 476h-161l-95 -476h-217l301 1502h217l-166 -825h131l389 429h275zM345 -292l38 189h212l-35 -174q-17 -83 -85 -142t-160 -69l20 94q96 14 114 102h-104z" />
    <glyph glyph-name="kgreenlandic" unicode="&#x138;" horiz-adv-x="1120" 
d="M1203 1106l-485 -531l305 -575h-242l-252 476h-161l-95 -476h-217l221 1106h217l-86 -429h131l389 429h275z" />
    <glyph glyph-name="Lacute" unicode="&#x139;" horiz-adv-x="1040" 
d="M848 1879l-258 -291h-168l194 291h232zM339 203h602l-40 -203h-826l286 1434h225z" />
    <glyph glyph-name="lacute" unicode="&#x13a;" horiz-adv-x="546" 
d="M397 1656l194 291h231l-258 -291h-167zM56 0l301 1502h217l-301 -1502h-217z" />
    <glyph glyph-name="uni013B" unicode="&#x13b;" horiz-adv-x="1040" 
d="M339 203h602l-40 -203h-826l286 1434h225zM324 -292l38 189h211l-34 -174q-18 -91 -84 -146t-161 -65l19 94q47 7 77 33.5t38 68.5h-104z" />
    <glyph glyph-name="uni013C" unicode="&#x13c;" horiz-adv-x="546" 
d="M56 0l301 1502h217l-301 -1502h-217zM-32 -488l20 94q47 7 77 33.5t38 68.5h-105l39 189h211l-34 -174q-17 -83 -85.5 -142t-160.5 -69z" />
    <glyph glyph-name="Lcaron" unicode="&#x13d;" horiz-adv-x="1062" 
d="M920 1502h212l-36 -173q-16 -83 -84.5 -142.5t-159.5 -69.5l18 94q47 7 77.5 34t38.5 68h-104zM586 1434l-245 -1224h602l-42 -210h-826l286 1434h225z" />
    <glyph glyph-name="lcaron" unicode="&#x13e;" horiz-adv-x="585" 
d="M56 0l301 1502h217l-301 -1502h-217zM696 1502h212l-36 -173q-17 -83 -85.5 -142.5t-158.5 -69.5l18 94q47 7 77.5 34t38.5 68h-104z" />
    <glyph glyph-name="Ldot" unicode="&#x13f;" horiz-adv-x="1052" 
d="M586 1434l-245 -1224h602l-42 -210h-826l286 1434h225zM964 824l-49 -253h-240l49 253h240z" />
    <glyph glyph-name="ldot" unicode="&#x140;" horiz-adv-x="772" 
d="M56 0l301 1502h217l-301 -1502h-217zM552 611l50 253h240l-50 -253h-240z" />
    <glyph glyph-name="Lslash" unicode="&#x141;" horiz-adv-x="1083" 
d="M377 203h602l-40 -203h-827l99 494l-184 -85l38 193l185 86l149 746h225l-126 -629l441 207l-40 -199l-441 -204z" />
    <glyph glyph-name="lslash" unicode="&#x142;" horiz-adv-x="729" 
d="M783 1118l-41 -205l-214 -109l-162 -804h-217l137 681l-216 -110l42 205l215 110l123 616h217l-98 -493z" />
    <glyph glyph-name="Nacute" unicode="&#x143;" horiz-adv-x="1538" 
d="M1307 1879l-258 -291h-167l194 291h231zM1302 1434h226l-286 -1434h-186l-547 1045l-208 -1045h-226l286 1434h200l535 -1029z" />
    <glyph glyph-name="nacute" unicode="&#x144;" horiz-adv-x="1312" 
d="M1121 1544l-254 -311h-167l190 311h231zM848 1132q165 0 258.5 -95.5t93.5 -258.5q0 -18 -1 -34t-3 -33.5t-8 -49.5t-11.5 -63.5t-18.5 -94t-25 -122.5t-34 -168t-43 -213h-217l34 168t28 138.5t22.5 109.5t18 88.5t13 66t10 51t6.5 36t4 28.5t1.5 20t0.5 19
q0 206 -212 206q-130 0 -234.5 -92t-137.5 -235l-120 -604h-217l221 1106h152l9 -149q77 83 183 129t227 46z" />
    <glyph glyph-name="uni0145" unicode="&#x145;" horiz-adv-x="1538" 
d="M1302 1434h226l-286 -1434h-186l-547 1045l-208 -1045h-226l286 1434h200l535 -1029zM506 -292l38 189h212l-35 -174q-18 -91 -84 -146t-161 -65l20 94q96 14 114 102h-104z" />
    <glyph glyph-name="uni0146" unicode="&#x146;" horiz-adv-x="1312" 
d="M848 1132q165 0 258.5 -95.5t93.5 -258.5q0 -18 -1 -34t-3 -33.5t-8 -49.5t-11.5 -63.5t-18.5 -94t-25 -122.5t-34 -168t-43 -213h-217l34 168t28 138.5t22.5 109.5t18 88.5t13 66t10 51t6.5 36t4 28.5t1.5 20t0.5 19q0 206 -212 206q-130 0 -234.5 -92t-137.5 -235
l-120 -604h-217l221 1106h152l9 -149q77 83 183 129t227 46zM405 -292l38 189h212l-34 -174q-17 -83 -85.5 -142t-160.5 -69l20 94q96 14 114 102h-104z" />
    <glyph glyph-name="Ncaron" unicode="&#x147;" horiz-adv-x="1538" 
d="M1107 1588h-248l-182 291h181l138 -173l207 173h201zM1302 1434h226l-286 -1434h-186l-547 1045l-208 -1045h-226l286 1434h200l535 -1029z" />
    <glyph glyph-name="ncaron" unicode="&#x148;" horiz-adv-x="1312" 
d="M941 1233h-247l-179 311h190l130 -188l207 188h202zM848 1132q165 0 258.5 -95.5t93.5 -258.5q0 -18 -1 -34t-3 -33.5t-8 -49.5t-11.5 -63.5t-18.5 -94t-25 -122.5t-34 -168t-43 -213h-217l34 168t28 138.5t22.5 109.5t18 88.5t13 66t10 51t6.5 36t4 28.5t1.5 20t0.5 19
q0 206 -212 206q-130 0 -234.5 -92t-137.5 -235l-120 -604h-217l221 1106h152l9 -149q77 83 183 129t227 46z" />
    <glyph glyph-name="Eng" unicode="&#x14a;" horiz-adv-x="1538" 
d="M1308 1434h220l-279 -1394q-42 -207 -179 -321.5t-342 -114.5h-52l43 207h68q94 0 164.5 59t86.5 151l-535 1021l-208 -1042h-220l286 1434h203l540 -1027z" />
    <glyph glyph-name="eng" unicode="&#x14b;" horiz-adv-x="1312" 
d="M853 1130q164 0 255.5 -93t91.5 -255q0 -52 -13.5 -131t-70.5 -359q-36 -180 -60 -297q-37 -182 -161 -283t-308 -101h-81l39 196h44q97 0 165 53.5t86 146.5q18 92 37 183.5t30.5 147.5t23 113t17.5 88t12 63t9 47.5t5 31.5t2.5 25t0.5 20q0 197 -210 197
q-129 0 -235 -90.5t-139 -229.5l-120 -603h-217l221 1106h152l9 -152q78 84 185.5 130t229.5 46z" />
    <glyph glyph-name="Omacron" unicode="&#x14c;" horiz-adv-x="1693" 
d="M745 1644l37 183h641l-37 -183h-641zM753 -26q-189 0 -335 81.5t-224.5 223t-78.5 318.5t69 336.5t187.5 275t284.5 183.5t352 68q284 0 460 -176t176 -446q0 -177 -69 -337t-187 -275.5t-283.5 -183.5t-351.5 -68zM785 189q134 0 252.5 52t201 139t130.5 202.5t48 238.5
q0 188 -121.5 306t-321.5 118q-133 0 -252 -52t-201.5 -138.5t-130.5 -201.5t-48 -237q0 -189 121.5 -308t321.5 -119z" />
    <glyph glyph-name="omacron" unicode="&#x14d;" horiz-adv-x="1335" 
d="M497 1308l34 170h641l-34 -170h-641zM572 -26q-222 0 -360.5 136.5t-138.5 347.5q0 181 93 336.5t252.5 246.5t345.5 91q222 0 360.5 -136t138.5 -348q0 -181 -93 -336.5t-252.5 -246.5t-345.5 -91zM595 180q122 0 225.5 64t162.5 170t59 227q0 130 -81.5 207.5
t-219.5 77.5q-121 0 -224.5 -63.5t-163 -169.5t-59.5 -228q0 -130 81.5 -207.5t219.5 -77.5z" />
    <glyph glyph-name="Obreve" unicode="&#x14e;" horiz-adv-x="1693" 
d="M1056 1576q-129 0 -206.5 64.5t-77.5 174.5q0 30 6 64h169q-5 -19 -5 -44q0 -57 35 -86t97 -29q75 0 123.5 41t63.5 118h173q-28 -143 -128.5 -223t-249.5 -80zM753 -26q-189 0 -335 81.5t-224.5 223t-78.5 318.5t69 336.5t187.5 275t284.5 183.5t352 68q284 0 460 -176
t176 -446q0 -177 -69 -337t-187 -275.5t-283.5 -183.5t-351.5 -68zM785 189q134 0 252.5 52t201 139t130.5 202.5t48 238.5q0 188 -121.5 306t-321.5 118q-133 0 -252 -52t-201.5 -138.5t-130.5 -201.5t-48 -237q0 -189 121.5 -308t321.5 -119z" />
    <glyph glyph-name="obreve" unicode="&#x14f;" horiz-adv-x="1335" 
d="M812 1220q-134 0 -214 70t-80 186q0 20 8 68h168q-5 -24 -5 -50q0 -64 37 -96.5t104 -32.5q81 0 133 47t69 132h174q-29 -153 -134.5 -238.5t-259.5 -85.5zM572 -26q-222 0 -360.5 136.5t-138.5 347.5q0 181 93 336.5t252.5 246.5t345.5 91q222 0 360.5 -136t138.5 -348
q0 -181 -93 -336.5t-252.5 -246.5t-345.5 -91zM595 180q122 0 225.5 64t162.5 170t59 227q0 130 -81.5 207.5t-219.5 77.5q-121 0 -224.5 -63.5t-163 -169.5t-59.5 -228q0 -130 81.5 -207.5t219.5 -77.5z" />
    <glyph glyph-name="Ohungarumlaut" unicode="&#x150;" horiz-adv-x="1693" 
d="M779 1588l175 291h204l-224 -291h-155zM1135 1588l219 291h214l-276 -291h-157zM753 -26q-189 0 -335 81.5t-224.5 223t-78.5 318.5t69 336.5t187.5 275t284.5 183.5t352 68q284 0 460 -176t176 -446q0 -177 -69 -337t-187 -275.5t-283.5 -183.5t-351.5 -68zM785 189
q134 0 252.5 52t201 139t130.5 202.5t48 238.5q0 188 -121.5 306t-321.5 118q-133 0 -252 -52t-201.5 -138.5t-130.5 -201.5t-48 -237q0 -189 121.5 -308t321.5 -119z" />
    <glyph glyph-name="ohungarumlaut" unicode="&#x151;" horiz-adv-x="1335" 
d="M521 1233l178 311h219l-235 -311h-162zM896 1233l216 311h211l-268 -311h-159zM572 -26q-222 0 -360.5 136.5t-138.5 347.5q0 181 93 336.5t252.5 246.5t345.5 91q222 0 360.5 -136t138.5 -348q0 -181 -93 -336.5t-252.5 -246.5t-345.5 -91zM595 180q122 0 225.5 64
t162.5 170t59 227q0 130 -81.5 207.5t-219.5 77.5q-121 0 -224.5 -63.5t-163 -169.5t-59.5 -228q0 -130 81.5 -207.5t219.5 -77.5z" />
    <glyph glyph-name="OE" unicode="&#x152;" horiz-adv-x="1953" 
d="M1969 1229h-603l-80 -397h550l-39 -200h-551l-85 -425h627l-42 -207h-774q-107 -26 -219 -26q-141 0 -260.5 47t-202 129.5t-128.5 197t-46 247.5q0 177 70 337.5t189.5 276t285 183.5t348.5 68q104 0 197 -26h804zM343 616q0 -190 121 -308.5t321 -118.5q77 0 152 20
l202 1011q-78 25 -164 25q-128 0 -246 -51.5t-202 -137.5t-134 -201.5t-50 -238.5z" />
    <glyph glyph-name="oe" unicode="&#x153;" horiz-adv-x="2234" 
d="M2142 477h-911q-1 -9 -1 -28q0 -129 74.5 -201t210.5 -72q103 0 195 45t153 125h232q-95 -176 -251.5 -274t-341.5 -98q-141 0 -249 63.5t-166 175.5q-95 -112 -229 -175.5t-286 -63.5q-222 0 -360.5 136.5t-138.5 347.5q0 136 55 260.5t148 215t221 144.5t267 54
q145 0 256 -64.5t171 -176.5q94 112 225.5 176.5t279.5 64.5q216 0 343.5 -136.5t127.5 -348.5q0 -78 -25 -170zM1680 932q-132 0 -239.5 -76t-163.5 -197h687q-3 128 -78.5 200.5t-205.5 72.5zM595 180q89 0 171.5 38t143 100.5t96.5 147.5t36 175q0 129 -81.5 206
t-219.5 77q-88 0 -170.5 -37.5t-143 -100t-97 -147t-36.5 -174.5q0 -130 81.5 -207.5t219.5 -77.5z" />
    <glyph glyph-name="Racute" unicode="&#x154;" horiz-adv-x="1329" 
d="M1146 1879l-257 -291h-168l194 291h231zM1312 1058q0 -174 -107.5 -308.5t-276.5 -186.5l218 -563h-241l-205 536h-293l-108 -536h-224l286 1434h541q182 0 296 -105.5t114 -270.5zM761 742q134 0 228.5 89.5t94.5 213.5q0 84 -57.5 133.5t-159.5 49.5h-322l-97 -486h313
z" />
    <glyph glyph-name="racute" unicode="&#x155;" horiz-adv-x="817" 
d="M915 1547l-254 -312h-168l191 312h231zM431 956q150 156 374 156h98l-42 -205h-119q-135 0 -222.5 -73.5t-122.5 -213.5l-124 -620h-217l221 1106h148z" />
    <glyph glyph-name="uni0156" unicode="&#x156;" horiz-adv-x="1329" 
d="M1312 1058q0 -174 -107.5 -308.5t-276.5 -186.5l218 -563h-241l-205 536h-293l-108 -536h-224l286 1434h541q182 0 296 -105.5t114 -270.5zM761 742q134 0 228.5 89.5t94.5 213.5q0 84 -57.5 133.5t-159.5 49.5h-322l-97 -486h313zM419 -292l38 189h211l-34 -174
q-18 -91 -84 -146t-161 -65l19 94q47 7 77 33.5t38 68.5h-104z" />
    <glyph glyph-name="uni0157" unicode="&#x157;" horiz-adv-x="817" 
d="M805 1112h98l-42 -205h-119q-135 0 -222.5 -73.5t-122.5 -213.5l-124 -620h-217l221 1106h148l6 -150q150 156 374 156zM0 -292l39 189h211l-34 -174q-17 -83 -85 -142t-160 -69l19 94q47 7 77 33.5t38 68.5h-105z" />
    <glyph glyph-name="Rcaron" unicode="&#x158;" horiz-adv-x="1329" 
d="M946 1588h-247l-183 291h181l139 -173l206 173h202zM1312 1058q0 -174 -107.5 -308.5t-276.5 -186.5l218 -563h-241l-205 536h-293l-108 -536h-224l286 1434h541q182 0 296 -105.5t114 -270.5zM761 742q134 0 228.5 89.5t94.5 213.5q0 84 -57.5 133.5t-159.5 49.5h-322
l-97 -486h313z" />
    <glyph glyph-name="rcaron" unicode="&#x159;" horiz-adv-x="817" 
d="M734 1235h-247l-178 312h189l130 -189l208 189h202zM431 956q150 156 374 156h98l-42 -205h-119q-135 0 -222.5 -73.5t-122.5 -213.5l-124 -620h-217l221 1106h148z" />
    <glyph glyph-name="Sacute" unicode="&#x15a;" horiz-adv-x="1234" 
d="M702 1588l194 291h231l-258 -291h-167zM514 -26q-210 0 -333 99t-123 277q0 55 9 100h228q-5 -24 -5 -53q0 -99 74 -155t190 -56q136 0 236.5 74.5t100.5 188.5q0 29 -10 53t-32 43t-45.5 33t-61 27.5t-66.5 22t-74 19.5q-51 13 -82 22t-77.5 25.5t-75.5 32t-62.5 41
t-52.5 54t-32 68t-13 85.5q0 225 164 355t419 130q197 0 306.5 -91t109.5 -252q0 -47 -9 -100h-222q5 21 5 51q0 86 -64.5 135t-170.5 49q-128 0 -219.5 -63.5t-91.5 -165.5q0 -32 16 -58t38.5 -43t63.5 -34t74 -26.5t87 -23.5q53 -14 83.5 -22.5t80.5 -26t79.5 -33.5
t65.5 -43t55.5 -57t33.5 -72t14 -92q0 -156 -82 -275t-220 -181t-309 -62z" />
    <glyph glyph-name="sacute" unicode="&#x15b;" horiz-adv-x="1054" 
d="M543 1233l191 311h231l-254 -311h-168zM422 -26q-176 0 -283.5 83.5t-107.5 224.5q0 32 6 67h211q-3 -18 -3 -33q0 -73 62 -112t150 -39q108 0 182.5 48t74.5 129q0 32 -17.5 55t-54.5 38.5t-71 24t-90 18.5q-43 8 -69.5 13.5t-66.5 16.5t-65 23t-54.5 32t-46 43.5
t-27.5 57t-11 73.5q0 182 138.5 288.5t348.5 106.5q167 0 270.5 -79.5t103.5 -209.5q0 -30 -6 -63h-205q4 22 4 32q0 66 -55.5 101t-141.5 35q-106 0 -174 -45.5t-68 -117.5q0 -30 16.5 -51.5t52.5 -35.5t69.5 -22t88.5 -17q44 -7 71 -12.5t68 -16.5t67 -23t56 -32
t47.5 -44.5t29 -59t11.5 -76.5q0 -131 -68.5 -228t-183 -145t-259.5 -48z" />
    <glyph glyph-name="Scircumflex" unicode="&#x15c;" horiz-adv-x="1234" 
d="M832 1761l-208 -173h-205l298 291h247l183 -291h-174zM1197 1017h-222q5 21 5 51q0 86 -64.5 135t-170.5 49q-128 0 -219.5 -63.5t-91.5 -165.5q0 -32 16 -58t38.5 -43t63.5 -34t74 -26.5t87 -23.5q53 -14 83.5 -22.5t80.5 -26t79.5 -33.5t65.5 -43t55.5 -57t33.5 -72
t14 -92q0 -156 -82 -275t-220 -181t-309 -62q-210 0 -333 99t-123 277q0 55 9 100h228q-5 -24 -5 -53q0 -99 74 -155t190 -56q136 0 236.5 74.5t100.5 188.5q0 29 -10 53t-32 43t-45.5 33t-61 27.5t-66.5 22t-74 19.5q-51 13 -82 22t-77.5 25.5t-75.5 32t-62.5 41t-52.5 54
t-32 68t-13 85.5q0 225 164 355t419 130q197 0 306.5 -91t109.5 -252q0 -47 -9 -100z" />
    <glyph glyph-name="scircumflex" unicode="&#x15d;" horiz-adv-x="1054" 
d="M1010 1233h-175l-139 186l-211 -186h-204l301 311h248zM422 -26q-176 0 -283.5 83.5t-107.5 224.5q0 32 6 67h211q-3 -18 -3 -33q0 -73 62 -112t150 -39q108 0 182.5 48t74.5 129q0 32 -17.5 55t-54.5 38.5t-71 24t-90 18.5q-43 8 -69.5 13.5t-66.5 16.5t-65 23t-54.5 32
t-46 43.5t-27.5 57t-11 73.5q0 182 138.5 288.5t348.5 106.5q167 0 270.5 -79.5t103.5 -209.5q0 -30 -6 -63h-205q4 22 4 32q0 66 -55.5 101t-141.5 35q-106 0 -174 -45.5t-68 -117.5q0 -30 16.5 -51.5t52.5 -35.5t69.5 -22t88.5 -17q44 -7 71 -12.5t68 -16.5t67 -23t56 -32
t47.5 -44.5t29 -59t11.5 -76.5q0 -131 -68.5 -228t-183 -145t-259.5 -48z" />
    <glyph glyph-name="Scedilla" unicode="&#x15e;" horiz-adv-x="1234" 
d="M1197 1017h-222q5 21 5 51q0 86 -64.5 135t-170.5 49q-128 0 -219.5 -63.5t-91.5 -165.5q0 -32 16 -58t38.5 -43t63.5 -34t74 -26.5t87 -23.5q53 -14 83.5 -22.5t80.5 -26t79.5 -33.5t65.5 -43t55.5 -57t33.5 -72t14 -92q0 -219 -154 -358t-392 -158l-31 -66
q69 -13 108.5 -53t39.5 -100q0 -103 -89 -172t-214 -69h-142l25 124h139q48 0 82 27.5t34 69.5q0 29 -23 47.5t-61 18.5h-63l-17 25l67 150q-176 18 -276 115t-100 257q0 55 9 100h228q-5 -24 -5 -53q0 -99 74 -155t190 -56q136 0 236.5 74.5t100.5 188.5q0 29 -10 53
t-32 43t-45.5 33t-61 27.5t-66.5 22t-74 19.5q-51 13 -82 22t-77.5 25.5t-75.5 32t-62.5 41t-52.5 54t-32 68t-13 85.5q0 225 164 355t419 130q197 0 306.5 -91t109.5 -252q0 -47 -9 -100z" />
    <glyph glyph-name="scedilla" unicode="&#x15f;" horiz-adv-x="1054" 
d="M996 780h-205q4 22 4 32q0 66 -55.5 101t-141.5 35q-106 0 -174 -45.5t-68 -117.5q0 -30 16.5 -51.5t52.5 -35.5t69.5 -22t88.5 -17q44 -7 71 -12.5t68 -16.5t67 -23t56 -32t47.5 -44.5t29 -59t11.5 -76.5q0 -181 -124 -292t-322 -127l-33 -68q71 -12 113 -57t42 -108
q0 -105 -79 -168t-199 -63h-157l23 123h129q52 0 87.5 29t35.5 72q0 30 -23.5 48.5t-62.5 18.5h-71l-14 20l72 155q-146 17 -232.5 98t-86.5 206q0 32 6 67h211q-3 -18 -3 -33q0 -73 62 -112t150 -39q108 0 182.5 48t74.5 129q0 32 -17.5 55t-54.5 38.5t-71 24t-90 18.5
q-43 8 -69.5 13.5t-66.5 16.5t-65 23t-54.5 32t-46 43.5t-27.5 57t-11 73.5q0 182 138.5 288.5t348.5 106.5q167 0 270.5 -79.5t103.5 -209.5q0 -30 -6 -63z" />
    <glyph glyph-name="Scaron" unicode="&#x160;" horiz-adv-x="1234" 
d="M927 1588h-247l-183 291h181l138 -173l207 173h201zM790 1460q197 0 306.5 -91t109.5 -252q0 -47 -9 -100h-222q5 21 5 51q0 86 -64.5 135t-170.5 49q-128 0 -219.5 -63.5t-91.5 -165.5q0 -32 16 -58t38.5 -43t63.5 -34t74 -26.5t87 -23.5q53 -14 83.5 -22.5t80.5 -26
t79.5 -33.5t65.5 -43t55.5 -57t33.5 -72t14 -92q0 -156 -82 -275t-220 -181t-309 -62q-210 0 -333 99t-123 277q0 55 9 100h228q-5 -24 -5 -53q0 -99 74 -155t190 -56q136 0 236.5 74.5t100.5 188.5q0 29 -10 53t-32 43t-45.5 33t-61 27.5t-66.5 22t-74 19.5q-51 13 -82 22
t-77.5 25.5t-75.5 32t-62.5 41t-52.5 54t-32 68t-13 85.5q0 225 164 355t419 130z" />
    <glyph glyph-name="scaron" unicode="&#x161;" horiz-adv-x="1054" 
d="M886 1544h202l-303 -311h-248l-178 311h189l131 -188zM422 -26q-176 0 -283.5 83.5t-107.5 224.5q0 32 6 67h211q-3 -18 -3 -33q0 -73 62 -112t150 -39q108 0 182.5 48t74.5 129q0 32 -17.5 55t-54.5 38.5t-71 24t-90 18.5q-43 8 -69.5 13.5t-66.5 16.5t-65 23t-54.5 32
t-46 43.5t-27.5 57t-11 73.5q0 182 138.5 288.5t348.5 106.5q167 0 270.5 -79.5t103.5 -209.5q0 -30 -6 -63h-205q4 22 4 32q0 66 -55.5 101t-141.5 35q-106 0 -174 -45.5t-68 -117.5q0 -30 16.5 -51.5t52.5 -35.5t69.5 -22t88.5 -17q44 -7 71 -12.5t68 -16.5t67 -23t56 -32
t47.5 -44.5t29 -59t11.5 -76.5q0 -131 -68.5 -228t-183 -145t-259.5 -48z" />
    <glyph glyph-name="uni0162" unicode="&#x162;" horiz-adv-x="1146" 
d="M572 0h-33l-37 -79q67 -16 105.5 -63t38.5 -109q0 -106 -82.5 -163.5t-210.5 -57.5h-148l25 124h140q48 0 81.5 28t33.5 70q0 29 -23 47t-61 18h-64l-16 26l71 159h-44l246 1232h-426l41 202h1072l-41 -202h-422z" />
    <glyph glyph-name="uni0163" unicode="&#x163;" horiz-adv-x="825" 
d="M838 910h-335q-101 -506 -103 -530q-2 -14 -2 -27q0 -152 180 -152h123l-40 -201h-152h-6l-37 -76q69 -12 108.5 -53t39.5 -102q0 -103 -88 -172t-208 -69h-136l23 118h129q52 0 87.5 30.5t35.5 76.5q0 32 -23.5 50t-63.5 18h-66l-11 20l81 177q-97 29 -148.5 102.5
t-51.5 182.5q0 14 1 26t2.5 25.5t5.5 37.5t9 48.5t14.5 73t19 96.5t26.5 132l34 168h-198l9 41l462 410h37l-52 -255h333z" />
    <glyph glyph-name="Tcaron" unicode="&#x164;" horiz-adv-x="1146" 
d="M902 1588h-248l-182 291h181l138 -173l207 173h201zM1281 1434l-41 -202h-422l-246 -1232h-224l246 1232h-426l41 202h1072z" />
    <glyph glyph-name="tcaron" unicode="&#x165;" horiz-adv-x="841" 
d="M974 1502h211l-36 -173q-18 -85 -88 -151.5t-159 -76.5l18 94q46 7 78.5 39.5t40.5 78.5h-104zM596 1361l-52 -255h304l-40 -196h-305q-17 -87 -44 -221q-43 -217 -52 -265t-9 -68q0 -75 46 -115t132 -40h131l-40 -203h-150q-160 0 -251.5 82t-91.5 225q0 10 0.5 19
t1.5 19t3.5 25.5t5 30.5t8 43t10.5 54.5t14.5 73t18 89.5t23 113.5t27.5 137.5h-198l8 41l463 410h37z" />
    <glyph glyph-name="Tbar" unicode="&#x166;" horiz-adv-x="1193" 
d="M1262 1232h-421l-84 -419h294l-39 -193h-293l-124 -620h-224l123 620h-290l40 193h289l84 419h-426l41 202h1072z" />
    <glyph glyph-name="tbar" unicode="&#x167;" horiz-adv-x="866" 
d="M863 910h-334q-44 -217 -51 -254h335l-36 -183h-335q-18 -93 -18 -117q0 -75 46 -115t132 -40h131l-40 -203h-150q-160 0 -251.5 82t-91.5 225q0 47 24 168h-194l38 183h193q30 143 51 254h-198l9 41l462 410h37l-52 -255h333z" />
    <glyph glyph-name="Utilde" unicode="&#x168;" horiz-adv-x="1482" 
d="M1074 1585q-41 0 -76.5 14.5t-54.5 29.5t-46 42q-55 59 -98 59q-40 0 -69 -35t-40 -101h-135q28 143 98.5 215t174.5 72q42 0 76 -13.5t50.5 -28.5t40.5 -42q18 -20 29.5 -31t32 -21t43.5 -10q83 0 108 135h137q-26 -140 -98 -212.5t-173 -72.5zM644 -26
q-216 0 -353.5 127t-137.5 327q0 16 1 31t4.5 39.5t7.5 48.5t12.5 69.5t17.5 90.5t25 123.5t32 156t41 201t50 246.5h227q-45 -229 -106 -531q-54 -274 -67 -344t-13 -102q0 -125 73.5 -196.5t204.5 -71.5q154 0 274.5 101t151.5 261l175 883h226l-186 -915
q-47 -246 -229 -395.5t-431 -149.5z" />
    <glyph glyph-name="utilde" unicode="&#x169;" horiz-adv-x="1292" 
d="M930 1243q-44 0 -82 15.5t-53.5 28.5t-44.5 41q-50 54 -90 54q-81 0 -104 -130h-136q28 142 97 212.5t171 70.5q42 0 76.5 -14t50 -28t39.5 -41q20 -21 30 -30.5t30 -19t42 -9.5q82 0 105 130h135q-28 -139 -97 -209.5t-169 -70.5zM550 -26q-197 0 -313 107.5t-118 286.5
q0 14 0.5 25.5t3 30t5 35t9 51t12.5 65t18 90t23 113.5t30 147t37 181h217q-123 -620 -128 -653q-4 -29 -4 -53q0 -106 60 -163t170 -57q132 0 226 86.5t123 231.5l120 608h217l-131 -651q-44 -224 -197 -352.5t-380 -128.5z" />
    <glyph glyph-name="Umacron" unicode="&#x16a;" horiz-adv-x="1482" 
d="M622 1644l36 183h641l-36 -183h-641zM644 -26q-216 0 -353.5 127t-137.5 327q0 16 1 31t4.5 39.5t7.5 48.5t12.5 69.5t17.5 90.5t25 123.5t32 156t41 201t50 246.5h227q-45 -229 -106 -531q-54 -274 -67 -344t-13 -102q0 -125 73.5 -196.5t204.5 -71.5q154 0 274.5 101
t151.5 261l175 883h226l-186 -915q-47 -246 -229 -395.5t-431 -149.5z" />
    <glyph glyph-name="umacron" unicode="&#x16b;" horiz-adv-x="1292" 
d="M475 1308l34 170h641l-34 -170h-641zM550 -26q-197 0 -313 107.5t-118 286.5q0 14 0.5 25.5t3 30t5 35t9 51t12.5 65t18 90t23 113.5t30 147t37 181h217q-123 -620 -128 -653q-4 -29 -4 -53q0 -106 60 -163t170 -57q132 0 226 86.5t123 231.5l120 608h217l-131 -651
q-44 -224 -197 -352.5t-380 -128.5z" />
    <glyph glyph-name="Ubreve" unicode="&#x16c;" horiz-adv-x="1482" 
d="M933 1576q-130 0 -207.5 64.5t-77.5 174.5q0 30 6 64h169q-4 -15 -4 -44q0 -57 34.5 -86t96.5 -29q75 0 123.5 41t63.5 118h174q-28 -143 -128.5 -223t-249.5 -80zM644 -26q-216 0 -353.5 127t-137.5 327q0 16 1 31t4.5 39.5t7.5 48.5t12.5 69.5t17.5 90.5t25 123.5
t32 156t41 201t50 246.5h227q-45 -229 -106 -531q-54 -274 -67 -344t-13 -102q0 -125 73.5 -196.5t204.5 -71.5q154 0 274.5 101t151.5 261l175 883h226l-186 -915q-47 -246 -229 -395.5t-431 -149.5z" />
    <glyph glyph-name="ubreve" unicode="&#x16d;" horiz-adv-x="1292" 
d="M790 1220q-134 0 -214 70t-80 186q0 20 8 68h168q-5 -24 -5 -50q0 -64 37 -96.5t104 -32.5q81 0 133.5 47t69.5 132h173q-29 -153 -134.5 -238.5t-259.5 -85.5zM550 -26q-197 0 -313 107.5t-118 286.5q0 14 0.5 25.5t3 30t5 35t9 51t12.5 65t18 90t23 113.5t30 147
t37 181h217q-123 -620 -128 -653q-4 -29 -4 -53q0 -106 60 -163t170 -57q132 0 226 86.5t123 231.5l120 608h217l-131 -651q-44 -224 -197 -352.5t-380 -128.5z" />
    <glyph glyph-name="Uring" unicode="&#x16e;" horiz-adv-x="1482" 
d="M936 1554q-96 0 -154 56.5t-58 145.5q0 124 85 204t213 80q97 0 155 -56.5t58 -144.5q0 -123 -86.5 -204t-212.5 -81zM954 1676q63 0 109.5 43t46.5 107q0 43 -30 68.5t-78 25.5q-63 0 -108 -42.5t-45 -107.5q0 -43 28.5 -68.5t76.5 -25.5zM644 -26q-216 0 -353.5 127
t-137.5 327q0 16 1 31t4.5 39.5t7.5 48.5t12.5 69.5t17.5 90.5t25 123.5t32 156t41 201t50 246.5h227q-45 -229 -106 -531q-54 -274 -67 -344t-13 -102q0 -125 73.5 -196.5t204.5 -71.5q154 0 274.5 101t151.5 261l175 883h226l-186 -915q-47 -246 -229 -395.5t-431 -149.5z
" />
    <glyph glyph-name="uring" unicode="&#x16f;" horiz-adv-x="1292" 
d="M781 1204q-90 0 -145 53.5t-55 135.5q0 117 80.5 193.5t200.5 76.5q91 0 146 -53.5t55 -137.5q0 -115 -81.5 -191.5t-200.5 -76.5zM798 1319q60 0 103 40t43 100q0 42 -27 66.5t-72 24.5q-60 0 -102.5 -40.5t-42.5 -101.5q0 -41 26.5 -65t71.5 -24zM550 -26
q-197 0 -313 107.5t-118 286.5q0 14 0.5 25.5t3 30t5 35t9 51t12.5 65t18 90t23 113.5t30 147t37 181h217q-123 -620 -128 -653q-4 -29 -4 -53q0 -106 60 -163t170 -57q132 0 226 86.5t123 231.5l120 608h217l-131 -651q-44 -224 -197 -352.5t-380 -128.5z" />
    <glyph glyph-name="Uhungarumlaut" unicode="&#x170;" horiz-adv-x="1482" 
d="M655 1588l175 291h204l-224 -291h-155zM1011 1588l220 291h213l-276 -291h-157zM644 -26q-216 0 -353.5 127t-137.5 327q0 16 1 31t4.5 39.5t7.5 48.5t12.5 69.5t17.5 90.5t25 123.5t32 156t41 201t50 246.5h227q-45 -229 -106 -531q-54 -274 -67 -344t-13 -102
q0 -125 73.5 -196.5t204.5 -71.5q154 0 274.5 101t151.5 261l175 883h226l-186 -915q-47 -246 -229 -395.5t-431 -149.5z" />
    <glyph glyph-name="uhungarumlaut" unicode="&#x171;" horiz-adv-x="1292" 
d="M499 1233l178 311h219l-235 -311h-162zM874 1233l216 311h211l-268 -311h-159zM550 -26q-197 0 -313 107.5t-118 286.5q0 14 0.5 25.5t3 30t5 35t9 51t12.5 65t18 90t23 113.5t30 147t37 181h217q-123 -620 -128 -653q-4 -29 -4 -53q0 -106 60 -163t170 -57
q132 0 226 86.5t123 231.5l120 608h217l-131 -651q-44 -224 -197 -352.5t-380 -128.5z" />
    <glyph glyph-name="Uogonek" unicode="&#x172;" horiz-adv-x="1482" 
d="M1264 1434h225l-178 -893q-14 -67 -38 -127t-51 -105.5t-66.5 -89t-71.5 -72.5t-79 -61t-76.5 -49.5t-75.5 -43.5q-219 -122 -219 -243q0 -38 26.5 -60t72.5 -22q67 0 129 24l-27 -134q-86 -39 -182 -39q-89 0 -145 46t-56 122q0 81 48.5 158t131.5 134h-30
q-204 6 -326 125.5t-122 311.5q0 20 1.5 38t4 39t9.5 60t15 81.5t24.5 123t33 163.5t45 225t57.5 288h225q-49 -244 -112 -555q-54 -268 -64.5 -326t-10.5 -88q0 -124 77.5 -197.5t208.5 -73.5q154 0 271 98t148 258z" />
    <glyph glyph-name="uogonek" unicode="&#x173;" horiz-adv-x="1290" 
d="M1039 1106h217l-130 -656q-31 -153 -109 -253.5t-237 -181.5q-96 -49 -159 -114t-63 -128q0 -44 31 -68t86 -24q45 0 110 20l-25 -127q-82 -39 -171 -39q-91 0 -148.5 44.5t-57.5 123.5q0 71 40.5 144.5t104.5 129.5h-5q-179 0 -290.5 109t-111.5 283q0 17 1 33.5t3 33.5
t7.5 48t11 60.5t17.5 89t23 115.5t32 158t40 199h217q-27 -134 -65 -325q-46 -232 -56 -286.5t-10 -86.5q0 -106 59.5 -163.5t169.5 -57.5q132 0 226 86.5t123 231.5z" />
    <glyph glyph-name="Wcircumflex" unicode="&#x174;" horiz-adv-x="2107" 
d="M1282 1761l-208 -173h-205l297 291h247l183 -291h-174zM1999 1434h245l-736 -1434h-195l-180 942l-548 -942h-202l-172 1434h226l116 -1072l621 1051h72l211 -1056z" />
    <glyph glyph-name="wcircumflex" unicode="&#x175;" horiz-adv-x="1732" 
d="M1034 1419l-212 -186h-203l301 311h247l181 -311h-175zM1596 1106h219l-591 -1106h-176l-149 686l-430 -686h-178l-150 1106h215l103 -754l471 742h71l174 -756z" />
    <glyph glyph-name="Ycircumflex" unicode="&#x176;" horiz-adv-x="1357" 
d="M900 1761l-208 -173h-205l298 291h247l183 -291h-174zM1491 1434l-692 -859l-115 -575h-232l115 575l-344 859h230l259 -651l522 651h257z" />
    <glyph glyph-name="ycircumflex" unicode="&#x177;" horiz-adv-x="1208" 
d="M777 1419l-211 -186h-204l302 311h247l180 -311h-175zM1056 1106h239l-741 -1143q-134 -207 -243.5 -283t-275.5 -76h-119l40 195h82q109 0 171 43.5t152 178.5l46 67l-276 1018h226l204 -788z" />
    <glyph glyph-name="Ydieresis" unicode="&#x178;" horiz-adv-x="1357" 
d="M811 1841l-44 -227h-240l44 227h240zM1267 1841l-44 -227h-240l44 227h240zM1491 1434l-692 -859l-115 -575h-232l115 575l-344 859h230l259 -651l522 651h257z" />
    <glyph glyph-name="Zacute" unicode="&#x179;" horiz-adv-x="1165" 
d="M1144 1879l-258 -291h-168l195 291h231zM1267 1434l-10 -47l-927 -1186h712l-40 -201h-1060l8 41l932 1192h-661l41 201h1005z" />
    <glyph glyph-name="zacute" unicode="&#x17a;" horiz-adv-x="997" 
d="M955 1544l-254 -311h-167l190 311h231zM1042 1106l-7 -36l-708 -871h536l-40 -199h-884l7 33l713 876h-498l40 197h841z" />
    <glyph glyph-name="Zdotaccent" unicode="&#x17b;" horiz-adv-x="1165" 
d="M989 1841l-44 -227h-238l45 227h237zM1267 1434l-10 -47l-927 -1186h712l-40 -201h-1060l8 41l932 1192h-661l41 201h1005z" />
    <glyph glyph-name="zdotaccent" unicode="&#x17c;" horiz-adv-x="997" 
d="M817 1509l-46 -228h-231l47 228h230zM1042 1106l-7 -36l-708 -871h536l-40 -199h-884l7 33l713 876h-498l40 197h841z" />
    <glyph glyph-name="Zcaron" unicode="&#x17d;" horiz-adv-x="1165" 
d="M944 1588h-248l-182 291h181l138 -173l207 173h201zM1267 1434l-10 -47l-927 -1186h712l-40 -201h-1060l8 41l932 1192h-661l41 201h1005z" />
    <glyph glyph-name="zcaron" unicode="&#x17e;" horiz-adv-x="997" 
d="M775 1233h-247l-179 311h190l130 -188l207 188h202zM161 909l40 197h841l-7 -36l-708 -871h536l-40 -199h-884l7 33l713 876h-498z" />
    <glyph glyph-name="longs" unicode="&#x17f;" horiz-adv-x="587" 
d="M57 5l242 1204q29 145 119.5 219t237.5 74h221l-40 -198h-146q-80 0 -125.5 -38t-61.5 -117l-230 -1144h-217z" />
    <glyph glyph-name="florin" unicode="&#x192;" horiz-adv-x="915" 
d="M838 1212q-69 0 -124 -39.5t-76 -104.5l-50 -154h293l-56 -163h-288l-307 -890q-48 -139 -158.5 -221t-251.5 -82h-133l64 188h74q73 0 131 43.5t84 118.5l287 843h-192l56 163h192l61 180q42 126 147 201.5t239 75.5h204l-52 -159h-144z" />
    <glyph glyph-name="AEacute" unicode="&#x1fc;" horiz-adv-x="1861" 
d="M1594 1879l-257 -291h-168l194 291h231zM1877 1229h-600l-80 -396h549l-41 -201h-548l-85 -425h624l-42 -207h-847l60 300h-495l-237 -300h-270l1140 1434h914zM526 494h380l129 645z" />
    <glyph glyph-name="aeacute" unicode="&#x1fd;" horiz-adv-x="2226" 
d="M1574 1544l-254 -311h-168l191 311h231zM2133 477h-911q-1 -10 -1 -29q0 -129 75.5 -200.5t211.5 -71.5q103 0 194.5 45.5t149.5 124.5h237q-102 -176 -258 -274t-338 -98q-111 0 -202 43t-153 122l-34 -139h-151l11 118q-181 -144 -411 -144q-213 0 -346.5 133.5
t-133.5 339.5q0 182 92.5 340t249.5 251.5t338 93.5q118 0 212.5 -43t157.5 -120l34 137h149l-11 -120q177 146 391 146q212 0 342.5 -133t130.5 -339q0 -90 -26 -183zM1669 936q-133 0 -240 -76.5t-162 -200.5h688q-4 131 -79.5 204t-206.5 73zM600 180q117 0 221 64
t166 170.5t62 225.5q0 129 -83.5 207.5t-222.5 78.5q-117 0 -221 -64t-166 -170.5t-62 -224.5q0 -129 84 -208t222 -79z" />
    <glyph glyph-name="Oslashacute" unicode="&#x1fe;" horiz-adv-x="1712" 
d="M1383 1879l-257 -291h-168l194 291h231zM1472 1292q92 -81 142 -197t50 -253q0 -176 -71.5 -337t-191.5 -277t-285.5 -185t-345.5 -69q-169 0 -303 61l-129 -162h-244l215 262q-95 80 -145.5 196.5t-50.5 255.5q0 176 72 337.5t193 278t286.5 186t344.5 69.5
q171 0 306 -63l131 166h243zM981 1243q-125 0 -243.5 -52.5t-205 -139t-139 -203.5t-52.5 -240q0 -177 121 -290l710 890q-89 35 -191 35zM794 189q170 0 319 89.5t236 236t87 308.5q0 174 -115 287l-708 -888q84 -32 181 -33z" />
    <glyph glyph-name="oslashacute" unicode="&#x1ff;" horiz-adv-x="1349" 
d="M1111 1544l-254 -311h-168l191 311h231zM1119 1017q76 -62 117.5 -159t41.5 -211q0 -185 -93.5 -340t-253 -244t-346.5 -89q-119 0 -216 40l-105 -139h-207l168 221q-72 62 -111 156.5t-39 204.5q0 185 94 340.5t254.5 245t348.5 89.5q110 0 200 -35l99 134h206zM739 936
q-125 0 -231 -66t-165.5 -173t-59.5 -228q0 -123 76 -201l491 655q-54 13 -111 13zM617 170q124 0 229.5 65.5t165 171.5t59.5 224q0 128 -86 206l-490 -650q56 -17 122 -17z" />
    <glyph glyph-name="uni0218" unicode="&#x218;" horiz-adv-x="1234" 
d="M514 -26q-210 0 -333 99t-123 277q0 55 9 100h228q-5 -24 -5 -53q0 -99 74 -155t190 -56q136 0 236.5 74.5t100.5 188.5q0 29 -10 53t-32 43t-45.5 33t-61 27.5t-66.5 22t-74 19.5q-51 13 -82 22t-77.5 25.5t-75.5 32t-62.5 41t-52.5 54t-32 68t-13 85.5q0 225 164 355
t419 130q197 0 306.5 -91t109.5 -252q0 -47 -9 -100h-222q5 21 5 51q0 86 -64.5 135t-170.5 49q-128 0 -219.5 -63.5t-91.5 -165.5q0 -32 16 -58t38.5 -43t63.5 -34t74 -26.5t87 -23.5q53 -14 83.5 -22.5t80.5 -26t79.5 -33.5t65.5 -43t55.5 -57t33.5 -72t14 -92
q0 -156 -82 -275t-220 -181t-309 -62zM347 -501l20 95q47 7 77 33.5t38 67.5h-105l39 189h211l-34 -173q-18 -91 -84.5 -146.5t-161.5 -65.5z" />
    <glyph glyph-name="uni0219" unicode="&#x219;" horiz-adv-x="1054" 
d="M422 -26q-176 0 -283.5 83.5t-107.5 224.5q0 32 6 67h211q-3 -18 -3 -33q0 -73 62 -112t150 -39q108 0 182.5 48t74.5 129q0 32 -17.5 55t-54.5 38.5t-71 24t-90 18.5q-43 8 -69.5 13.5t-66.5 16.5t-65 23t-54.5 32t-46 43.5t-27.5 57t-11 73.5q0 182 138.5 288.5
t348.5 106.5q167 0 270.5 -79.5t103.5 -209.5q0 -30 -6 -63h-205q4 22 4 32q0 66 -55.5 101t-141.5 35q-106 0 -174 -45.5t-68 -117.5q0 -30 16.5 -51.5t52.5 -35.5t69.5 -22t88.5 -17q44 -7 71 -12.5t68 -16.5t67 -23t56 -32t47.5 -44.5t29 -59t11.5 -76.5
q0 -131 -68.5 -228t-183 -145t-259.5 -48zM251 -505l20 95q47 7 76.5 33t37.5 68h-104l38 189h212l-35 -173q-17 -83 -85.5 -142.5t-159.5 -69.5z" />
    <glyph glyph-name="uni021A" unicode="&#x21a;" horiz-adv-x="1146" 
d="M1281 1434l-41 -202h-422l-246 -1232h-224l246 1232h-426l41 202h1072zM300 -292l39 189h211l-34 -174q-18 -91 -84 -146t-161 -65l19 94q47 7 77 33.5t38 68.5h-105z" />
    <glyph glyph-name="uni021B" unicode="&#x21b;" horiz-adv-x="829" 
d="M838 910h-334q-17 -87 -44 -221q-43 -217 -52 -265t-9 -68q0 -75 46 -115t132 -40h131l-40 -203h-150q-160 0 -251.5 82t-91.5 225q0 10 0.5 19t1.5 19t3.5 25.5t5 30.5t8 43t10.5 54.5t14.5 73t18 89.5t23 113.5t27.5 137.5h-198l9 41l462 410h36l-51 -255h333z
M214 -292l39 189h211l-34 -174q-17 -83 -85.5 -142t-160.5 -69l20 94q47 7 77 33.5t38 68.5h-105z" />
    <glyph glyph-name="circumflex" unicode="&#x2c6;" horiz-adv-x="1228" 
d="M1134 1233h-175l-139 186l-211 -186h-204l301 311h247z" />
    <glyph glyph-name="caron" unicode="&#x2c7;" horiz-adv-x="1228" 
d="M946 1544h202l-303 -311h-247l-179 311h190l130 -188z" />
    <glyph glyph-name="breve" unicode="&#x2d8;" horiz-adv-x="1228" 
d="M700 1220q-134 0 -214.5 70t-80.5 186q0 20 8 68h169q-6 -28 -6 -50q0 -64 37 -96.5t104 -32.5q81 0 133.5 47t69.5 132h173q-29 -153 -134 -238.5t-259 -85.5z" />
    <glyph glyph-name="dotaccent" unicode="&#x2d9;" horiz-adv-x="643" 
d="M236 1281l47 228h230l-47 -228h-230z" />
    <glyph glyph-name="ring" unicode="&#x2da;" horiz-adv-x="839" 
d="M555 1204q-89 0 -144 53.5t-55 135.5q0 117 80.5 193.5t200.5 76.5q91 0 146 -53.5t55 -137.5q0 -115 -82 -191.5t-201 -76.5zM573 1319q60 0 103 40t43 100q0 42 -27.5 66.5t-72.5 24.5q-60 0 -102.5 -40.5t-42.5 -101.5q0 -40 27 -64.5t72 -24.5z" />
    <glyph glyph-name="ogonek" unicode="&#x2db;" horiz-adv-x="886" 
d="M263 -469q-96 0 -152 47t-56 125q0 133 138 257t335 181l-19 -115q-112 -27 -197.5 -99t-85.5 -153q0 -44 33.5 -70.5t91.5 -26.5q54 0 109 23l-25 -126q-84 -43 -172 -43z" />
    <glyph glyph-name="tilde" unicode="&#x2dc;" horiz-adv-x="1228" 
d="M895 1243q-44 0 -82 15.5t-53 28.5t-44 41q-50 54 -90 54q-39 0 -66.5 -33t-38.5 -97h-135q28 142 97 212.5t171 70.5q42 0 76.5 -14t50 -28t39.5 -41q20 -22 29.5 -30.5t29.5 -18.5t42 -10q82 0 105 130h135q-28 -139 -97 -209.5t-169 -70.5z" />
    <glyph glyph-name="hungarumlaut" unicode="&#x2dd;" horiz-adv-x="1140" 
d="M328 1233l178 311h218l-234 -311h-162zM703 1233l216 311h211l-268 -311h-159z" />
    <glyph glyph-name="gravecomb" unicode="&#x300;" 
d="M-44 1234h-168l-131 311h231z" />
    <glyph glyph-name="acutecomb" unicode="&#x301;" 
d="M-428 1233l190 311h231l-253 -311h-168z" />
    <glyph glyph-name="uni0302" unicode="&#x302;" 
d="M-160 1233h-175l-139 186l-212 -186h-203l301 311h247z" />
    <glyph glyph-name="tildecomb" unicode="&#x303;" 
d="M-334 1243q-44 0 -82 15.5t-53 28.5t-44 41q-50 54 -90 54q-39 0 -66.5 -33t-38.5 -97h-135q28 142 97 212.5t171 70.5q42 0 76.5 -14t50 -28t39.5 -41q20 -22 29.5 -30.5t29.5 -18.5t42 -10q83 0 106 130h134q-28 -139 -97 -209.5t-169 -70.5z" />
    <glyph glyph-name="uni0304" unicode="&#x304;" 
d="M-689 1308l35 170h641l-35 -170h-641z" />
    <glyph glyph-name="uni0306" unicode="&#x306;" 
d="M-404 1220q-134 0 -214 70t-80 186q0 26 7 68h169q-6 -29 -6 -50q0 -64 37 -96.5t104 -32.5q81 0 133.5 47t69.5 132h173q-29 -153 -134 -238.5t-259 -85.5z" />
    <glyph glyph-name="uni0307" unicode="&#x307;" 
d="M-406 1281l47 228h230l-47 -228h-230z" />
    <glyph glyph-name="uni0308" unicode="&#x308;" 
d="M-859 1281l46 228h240l-46 -228h-240zM-432 1281l46 228h240l-46 -228h-240z" />
    <glyph glyph-name="uni030A" unicode="&#x30a;" 
d="M-285 1204q-89 0 -144 53.5t-55 135.5q0 117 80.5 193.5t200.5 76.5q91 0 146 -53.5t55 -137.5q0 -115 -82 -191.5t-201 -76.5zM-267 1319q60 0 103 40t43 100q0 42 -27.5 66.5t-72.5 24.5q-60 0 -102.5 -40.5t-42.5 -101.5q0 -40 27 -64.5t72 -24.5z" />
    <glyph glyph-name="uni030B" unicode="&#x30b;" 
d="M-876 1233l179 311h218l-235 -311h-162zM-501 1233l217 311h211l-268 -311h-160z" />
    <glyph glyph-name="uni030C" unicode="&#x30c;" 
d="M-283 1544h203l-304 -311h-247l-178 311h189l130 -188z" />
    <glyph glyph-name="uni0312" unicode="&#x312;" 
d="M-623 1275l34 173q16 83 85 142.5t161 69.5l-20 -95q-47 -7 -76.5 -33t-37.5 -68h104l-38 -189h-212z" />
    <glyph glyph-name="uni0326" unicode="&#x326;" 
d="M-483 -488l20 94q96 14 114 102h-104l38 189h212l-35 -174q-17 -83 -85 -142t-160 -69z" />
    <glyph glyph-name="uni0327" unicode="&#x327;" 
d="M-515 -75q71 -12 112.5 -57t41.5 -108q0 -105 -78.5 -168.5t-198.5 -63.5h-157l23 123h129q52 0 87 29.5t35 72.5q0 30 -23 48t-62 18h-71l-14 20l109 235h139z" />
    <glyph glyph-name="uni0328" unicode="&#x328;" 
d="M-624 -469q-96 0 -151.5 47t-55.5 125q0 133 138 257t335 181l-20 -115q-112 -27 -197.5 -99t-85.5 -153q0 -44 33.5 -70.5t91.5 -26.5q54 0 109 23l-25 -126q-84 -43 -172 -43z" />
    <glyph glyph-name="uni0335" unicode="&#x335;" 
d="M-883 1247l33 162h767l-32 -162h-768z" />
    <glyph glyph-name="uni0337" unicode="&#x337;" 
d="M-863 467l41 206l671 342l-41 -205z" />
    <glyph glyph-name="tonos" unicode="&#x384;" horiz-adv-x="770" 
d="M342 1233l190 311h231l-254 -311h-167z" />
    <glyph glyph-name="dieresistonos" unicode="&#x385;" horiz-adv-x="948" 
d="M371 1233l153 311h204l-193 -311h-164zM140 1312l33 169h187l-33 -169h-187zM737 1312l33 169h187l-33 -169h-187z" />
    <glyph glyph-name="Alphatonos" unicode="&#x386;" horiz-adv-x="1497" 
d="M1128 0l-65 318h-646l-189 -318h-250l865 1434h211l308 -1434h-234zM604 1434l-258 -296h-168l194 296h232zM895 1141l-367 -629h495z" />
    <glyph glyph-name="Epsilontonos" unicode="&#x388;" horiz-adv-x="1423" 
d="M293 1434h233l-259 -296h-168zM1439 1227h-603l-79 -395h551l-41 -200h-551l-85 -424h627l-41 -208h-851l286 1434h829z" />
    <glyph glyph-name="Etatonos" unicode="&#x389;" horiz-adv-x="1781" 
d="M293 1434h233l-259 -296h-168zM1549 1434h225l-287 -1434h-225l128 637h-673l-127 -637h-224l286 1434h225l-119 -596h672z" />
    <glyph glyph-name="Iotatonos" unicode="&#x38a;" horiz-adv-x="886" 
d="M99 1138l194 296h233l-259 -296h-168zM366 0l286 1434h225l-287 -1434h-224z" />
    <glyph glyph-name="Omicrontonos" unicode="&#x38c;" horiz-adv-x="1904" 
d="M964 -26q-142 0 -261.5 47.5t-201.5 130.5t-128 197.5t-46 247.5q0 177 69 336.5t187 275t284 183.5t352 68q188 0 334 -81t224.5 -222.5t78.5 -318.5t-69 -337t-187 -275.5t-284 -183.5t-352 -68zM107 1138l193 296h233l-258 -296h-168zM997 189q134 0 252.5 52t201 139
t130.5 202.5t48 238.5q0 188 -121.5 306t-321.5 118q-133 0 -252 -52t-201.5 -138.5t-130.5 -201.5t-48 -237q0 -189 121.5 -308t321.5 -119z" />
    <glyph glyph-name="Upsilontonos" unicode="&#x38e;" horiz-adv-x="1787" 
d="M214 1138l194 296h232l-258 -296h-168zM1922 1434l-692 -859l-116 -575h-231l115 575l-345 859h231l259 -651l522 651h257z" />
    <glyph glyph-name="Omegatonos" unicode="&#x38f;" horiz-adv-x="1884" 
d="M1789 856q0 -191 -93.5 -360t-257.5 -292h245l-42 -204h-648l39 199q225 70 376 250t151 395q0 175 -121.5 288t-314.5 113q-164 0 -309.5 -85.5t-232.5 -227t-87 -299.5q0 -151 79.5 -266.5t221.5 -167.5l-40 -199h-643l42 204h288q-172 186 -172 435q0 167 70.5 319.5
t188 262t278.5 174.5t335 65q139 0 260 -47t205.5 -127.5t133 -192t48.5 -237.5zM581 1434l-258 -296h-168l194 296h232z" />
    <glyph glyph-name="iotadieresistonos" unicode="&#x390;" horiz-adv-x="704" 
d="M319 1233l133 311h191l-184 -311h-140zM86 1312l35 169h187l-35 -169h-187zM644 1312l35 169h187l-35 -169h-187zM451 -6q-159 0 -251 82t-92 223q0 36 15.5 120.5t72.5 366.5q40 193 65 320h217q-141 -702 -145 -739q-2 -13 -2 -25q0 -72 45.5 -110.5t130.5 -38.5h108
l-41 -199h-123z" />
    <glyph glyph-name="Alpha" unicode="&#x391;" horiz-adv-x="1439" 
d="M1071 0l-64 318h-646l-189 -318h-250l865 1434h211l308 -1434h-235zM839 1141l-367 -629h495z" />
    <glyph glyph-name="Beta" unicode="&#x392;" horiz-adv-x="1325" 
d="M1045 737q69 -37 105.5 -107t36.5 -159q0 -100 -42 -188t-112.5 -150t-165.5 -97.5t-197 -35.5h-595l286 1434h566q156 0 254.5 -91t98.5 -226q0 -114 -66.5 -218.5t-168.5 -161.5zM799 835q98 0 170.5 70.5t72.5 168.5q0 70 -45.5 113.5t-120.5 43.5h-335l-79 -396h337z
M686 209q111 0 189.5 76.5t78.5 181.5q0 77 -50 125t-134 48h-347l-86 -431h349z" />
    <glyph glyph-name="Gamma" unicode="&#x393;" horiz-adv-x="1013" 
d="M1146 1434l-42 -198h-557l-248 -1236h-224l286 1434h785z" />
    <glyph glyph-name="uni0394" unicode="&#x394;" horiz-adv-x="1443" 
d="M989 1434l321 -1434h-1388l871 1434h196zM843 1113l-536 -910h714z" />
    <glyph glyph-name="Epsilon" unicode="&#x395;" horiz-adv-x="1132" 
d="M1148 1227h-603l-79 -395h551l-41 -200h-551l-85 -424h627l-41 -208h-851l286 1434h829z" />
    <glyph glyph-name="Zeta" unicode="&#x396;" horiz-adv-x="1165" 
d="M1267 1434l-10 -47l-927 -1186h712l-40 -201h-1060l8 41l932 1192h-661l41 201h1005z" />
    <glyph glyph-name="Eta" unicode="&#x397;" horiz-adv-x="1490" 
d="M1258 1434h225l-287 -1434h-225l128 637h-673l-127 -637h-224l286 1434h225l-119 -596h672z" />
    <glyph glyph-name="Theta" unicode="&#x398;" horiz-adv-x="1693" 
d="M753 -26q-189 0 -335 81.5t-224.5 223t-78.5 318.5t69 336.5t187.5 275t284.5 183.5t352 68q284 0 460 -176t176 -446q0 -177 -69 -337t-187 -275.5t-283.5 -183.5t-351.5 -68zM785 189q134 0 252.5 52t201 139t130.5 202.5t48 238.5q0 188 -121.5 306t-321.5 118
q-133 0 -252 -52t-201.5 -138.5t-130.5 -201.5t-48 -237q0 -189 121.5 -308t321.5 -119zM500 614l42 208h713l-41 -208h-714z" />
    <glyph glyph-name="Iota" unicode="&#x399;" horiz-adv-x="593" 
d="M75 0l286 1434h225l-287 -1434h-224z" />
    <glyph glyph-name="Kappa" unicode="&#x39a;" horiz-adv-x="1308" 
d="M1450 1434l-633 -708l394 -726h-259l-340 634h-186l-127 -634h-224l286 1434h225l-118 -589h171l522 589h289z" />
    <glyph glyph-name="Lambda" unicode="&#x39b;" horiz-adv-x="1384" 
d="M1246 0h-230l-196 1119l-644 -1119h-250l841 1434h211z" />
    <glyph glyph-name="Mu" unicode="&#x39c;" horiz-adv-x="1970" 
d="M1604 1434h226l-55 -1434h-221l41 1050l-677 -1025h-57l-267 1025l-383 -1050h-235l520 1434h218l247 -983z" />
    <glyph glyph-name="Nu" unicode="&#x39d;" horiz-adv-x="1538" 
d="M1302 1434h226l-286 -1434h-186l-547 1045l-208 -1045h-226l286 1434h200l535 -1029z" />
    <glyph glyph-name="Xi" unicode="&#x39e;" horiz-adv-x="1150" 
d="M246 1219l44 215h926l-45 -215h-925zM210 627l43 210h766l-44 -210h-765zM-13 0l45 219h956l-45 -219h-956z" />
    <glyph glyph-name="Omicron" unicode="&#x39f;" horiz-adv-x="1693" 
d="M753 -26q-189 0 -335 81.5t-224.5 223t-78.5 318.5t69 336.5t187.5 275t284.5 183.5t352 68q284 0 460 -176t176 -446q0 -177 -69 -337t-187 -275.5t-283.5 -183.5t-351.5 -68zM785 189q134 0 252.5 52t201 139t130.5 202.5t48 238.5q0 188 -121.5 306t-321.5 118
q-133 0 -252 -52t-201.5 -138.5t-130.5 -201.5t-48 -237q0 -189 121.5 -308t321.5 -119z" />
    <glyph glyph-name="Pi" unicode="&#x3a0;" horiz-adv-x="1439" 
d="M361 1434h1069l-286 -1434h-226l246 1229h-619l-246 -1229h-224z" />
    <glyph glyph-name="Rho" unicode="&#x3a1;" horiz-adv-x="1257" 
d="M874 1434q182 0 297 -112t115 -282q0 -149 -77 -275.5t-208.5 -199.5t-285.5 -73h-317l-99 -492h-224l286 1434h513zM726 701q134 0 233.5 97.5t99.5 229.5q0 90 -58.5 143.5t-161.5 53.5h-295l-105 -524h287z" />
    <glyph glyph-name="Sigma" unicode="&#x3a3;" horiz-adv-x="1153" 
d="M1236 1434l-41 -208h-644l277 -474l-8 -41l-439 -504h629l-42 -207h-1038l9 46l634 723l-353 619l9 46h1007z" />
    <glyph glyph-name="Tau" unicode="&#x3a4;" horiz-adv-x="1146" 
d="M1281 1434l-41 -202h-422l-246 -1232h-224l246 1232h-426l41 202h1072z" />
    <glyph glyph-name="Upsilon" unicode="&#x3a5;" horiz-adv-x="1357" 
d="M1491 1434l-692 -859l-115 -575h-232l115 575l-344 859h230l259 -651l522 651h257z" />
    <glyph glyph-name="Phi" unicode="&#x3a6;" horiz-adv-x="1681" 
d="M1637 813q0 -201 -104 -368.5t-282.5 -267t-393.5 -108.5l-33 -163h-226l34 165q-127 12 -227.5 61.5t-164 125.5t-96.5 169.5t-33 197.5q0 204 102.5 372t280.5 266.5t399 110.5l29 149h225l-29 -150q123 -9 223 -58t164 -125.5t98 -173t34 -203.5zM677 277l179 894
q-139 -11 -258.5 -89.5t-189.5 -200.5t-70 -256q0 -146 90 -243.5t249 -104.5zM894 277q140 8 259.5 85t188 198.5t68.5 257.5q0 96 -38 172.5t-115 125t-184 54.5z" />
    <glyph glyph-name="Chi" unicode="&#x3a7;" horiz-adv-x="1245" 
d="M1373 1434l-572 -691l323 -743h-242l-240 564l-465 -564h-273l622 752l-301 682h242l219 -509l420 509h267z" />
    <glyph glyph-name="Psi" unicode="&#x3a8;" horiz-adv-x="1646" 
d="M1490 1434h225l-105 -527q-51 -255 -239.5 -407t-451.5 -152h-30l-69 -348h-226l69 348q-225 1 -362 133t-137 340q0 20 1 36t4.5 43.5t7.5 50t14 74.5t19 96.5t27.5 137t35.5 175.5h225l-34.5 -172.5t-27 -132.5t-19 -93.5t-13.5 -70t-7.5 -46t-4.5 -38t-1 -29.5
q0 -130 80.5 -203.5t224.5 -73.5h17l172 859h217l-172 -859h18q170 0 290 100.5t155 272.5z" />
    <glyph glyph-name="uni03A9" unicode="&#x3a9;" horiz-adv-x="1771" 
d="M1676 856q0 -191 -93 -360t-257 -292h244l-42 -204h-648l40 199q225 69 375.5 249.5t150.5 395.5q0 175 -121.5 288t-314.5 113q-123 0 -239 -51t-201 -134.5t-136.5 -196t-51.5 -230.5q0 -151 79 -266.5t221 -167.5l-39 -199h-643l41 204h288q-172 186 -172 435
q0 167 70.5 319.5t188 262t278.5 174.5t335 65q139 0 260 -47t205.5 -127.5t133 -192t48.5 -237.5z" />
    <glyph glyph-name="Iotadieresis" unicode="&#x3aa;" horiz-adv-x="593" 
d="M231 1612l43 212h230l-43 -212h-230zM558 1612l43 212h230l-43 -212h-230zM75 0l286 1434h225l-287 -1434h-224z" />
    <glyph glyph-name="Upsilondieresis" unicode="&#x3ab;" horiz-adv-x="1357" 
d="M811 1841l-44 -227h-240l44 227h240zM1267 1841l-44 -227h-240l44 227h240zM1491 1434l-692 -859l-115 -575h-232l115 575l-344 859h230l259 -651l522 651h257z" />
    <glyph glyph-name="alphatonos" unicode="&#x3ac;" horiz-adv-x="1425" 
d="M1140 1544l-253 -311h-168l190 311h231zM1200 1106h171l-221 -1106h-173l5 131q-184 -157 -425 -157q-216 0 -350 136t-134 346q0 180 90.5 335.5t247 248t339.5 92.5q126 0 226 -49.5t163 -138.5zM598 180q117 0 220.5 64t165.5 170.5t62 225.5q0 129 -83.5 207.5
t-221.5 78.5q-116 0 -219.5 -64t-165.5 -170.5t-62 -224.5q0 -129 83.5 -208t220.5 -79z" />
    <glyph glyph-name="epsilontonos" unicode="&#x3ad;" horiz-adv-x="1005" 
d="M965 1544l-254 -311h-168l191 311h231zM974 813h-195q3 69 -43 108t-129 39q-102 0 -168.5 -50.5t-66.5 -130.5q0 -54 39.5 -85t109.5 -31h146l-32 -161h-149q-96 0 -162.5 -55t-66.5 -139q0 -64 51.5 -101.5t139.5 -37.5q97 0 166 43.5t92 118.5h205
q-27 -164 -158.5 -260.5t-317.5 -96.5q-172 0 -281 90.5t-109 228.5q0 102 53.5 180t149.5 123q-82 70 -82 185q0 107 60.5 188t160.5 122t222 41q167 0 268.5 -89t96.5 -230z" />
    <glyph glyph-name="etatonos" unicode="&#x3ae;" horiz-adv-x="1312" 
d="M1155 1544l-254 -311h-168l190 311h232zM859 1132q163 0 253.5 -91t90.5 -252q0 -14 -0.5 -26t-2 -27t-6 -39.5t-9.5 -52.5t-15.5 -78.5t-21 -105.5t-29 -144.5t-37.5 -184t-47.5 -237t-58.5 -290.5h-217q198 986 207 1038q7 45 7 75q0 102 -53.5 155t-157.5 53
q-129 0 -233 -90.5t-136 -231.5l-120 -603h-217l221 1106h152l10 -156q80 87 189 134.5t231 47.5z" />
    <glyph glyph-name="iotatonos" unicode="&#x3af;" horiz-adv-x="704" 
d="M289 1233l190 311h232l-254 -311h-168zM451 -6q-159 0 -251 82t-92 223q0 36 15.5 120.5t72.5 366.5q40 193 65 320h217q-141 -702 -145 -739q-2 -13 -2 -25q0 -72 45.5 -110.5t130.5 -38.5h108l-41 -199h-123z" />
    <glyph glyph-name="upsilondieresistonos" unicode="&#x3b0;" horiz-adv-x="1292" 
d="M644 1233l152 311h205l-194 -311h-163zM413 1312l33 169h186l-33 -169h-186zM1010 1312l33 169h186l-33 -169h-186zM550 -26q-197 0 -313 107.5t-118 286.5q0 14 0.5 25.5t3 30t5 35t9 51t12.5 65t18 90t23 113.5t30 147t37 181h217q-123 -620 -128 -653q-4 -29 -4 -53
q0 -106 60 -163t170 -57q132 0 226 86.5t123 231.5l120 608h217l-131 -651q-44 -224 -197 -352.5t-380 -128.5z" />
    <glyph glyph-name="alpha" unicode="&#x3b1;" horiz-adv-x="1425" 
d="M1200 1106h171l-221 -1106h-173l5 131q-184 -157 -425 -157q-216 0 -350 136t-134 346q0 180 90.5 335.5t247 248t339.5 92.5q126 0 226 -49.5t163 -138.5zM598 180q117 0 220.5 64t165.5 170.5t62 225.5q0 129 -83.5 207.5t-221.5 78.5q-116 0 -219.5 -64t-165.5 -170.5
t-62 -224.5q0 -129 83.5 -208t220.5 -79z" />
    <glyph glyph-name="beta" unicode="&#x3b2;" horiz-adv-x="1273" 
d="M1016 770q155 -78 155 -272q0 -152 -78 -271.5t-211 -184t-295 -64.5q-171 0 -307 64l-84 -419h-217l270 1357q53 270 200 408.5t383 138.5q182 0 299.5 -102.5t117.5 -257.5q0 -120 -63.5 -228.5t-169.5 -168.5zM585 182q161 0 268.5 86t107.5 221q0 87 -62.5 139.5
t-167.5 52.5h-180l37 192h173q121 0 207.5 78t86.5 192q0 87 -62.5 139t-165.5 52q-141 0 -235 -97t-130 -278l-142 -716q127 -61 265 -61z" />
    <glyph glyph-name="gamma" unicode="&#x3b3;" horiz-adv-x="1169" 
d="M1252 1106l-654 -1049l-89 -448h-213l89 446l-252 1051h218l178 -794l482 794h241z" />
    <glyph glyph-name="delta" unicode="&#x3b4;" horiz-adv-x="1253" 
d="M1273 1458l-37 -190h-555q219 -112 354 -291.5t135 -382.5q1 -169 -82 -311.5t-229 -225.5t-321 -83q-208 0 -341 128.5t-133 324.5q0 155 80 291t214.5 217t288.5 81q74 0 131 -18q-194 174 -507 270l37 190h965zM963 580q0 118 -76 191t-201 73q-111 0 -206 -57.5
t-149 -151.5t-54 -199q0 -117 75 -190t201 -73q167 0 288.5 122t121.5 285z" />
    <glyph glyph-name="epsilon" unicode="&#x3b5;" horiz-adv-x="1005" 
d="M974 813h-195q3 69 -43 108t-129 39q-102 0 -168.5 -50.5t-66.5 -130.5q0 -54 39.5 -85t109.5 -31h146l-32 -161h-149q-96 0 -162.5 -55t-66.5 -139q0 -64 51.5 -101.5t139.5 -37.5q97 0 166 43.5t92 118.5h205q-27 -164 -158.5 -260.5t-317.5 -96.5q-172 0 -281 90.5
t-109 228.5q0 102 53.5 180t149.5 123q-82 70 -82 185q0 107 60.5 188t160.5 122t222 41q167 0 268.5 -89t96.5 -230z" />
    <glyph glyph-name="zeta" unicode="&#x3b6;" horiz-adv-x="1044" 
d="M1204 1361q-472 -311 -696.5 -533.5t-224.5 -399.5q0 -62 32 -108t83 -73.5t113 -50.5t124 -47t113 -54.5t83 -82t32 -120.5q0 -59 -24.5 -140.5t-57.5 -147.5h-209q24 48 43.5 107.5t19.5 94.5q0 45 -25 80t-65.5 57.5t-93 45.5t-106.5 42t-106.5 49.5t-93 66.5
t-65.5 94t-25 131q0 75 21 150t57 142t91.5 137t115 130.5t138 127t150.5 121t162 118.5h-508l42 204h907z" />
    <glyph glyph-name="eta" unicode="&#x3b7;" horiz-adv-x="1312" 
d="M859 1132q163 0 253.5 -91t90.5 -252q0 -14 -0.5 -26t-2 -27t-6 -39.5t-9.5 -52.5t-15.5 -78.5t-21 -105.5t-29 -144.5t-37.5 -184t-47.5 -237t-58.5 -290.5h-217q198 986 207 1038q7 45 7 75q0 102 -53.5 155t-157.5 53q-129 0 -233 -90.5t-136 -231.5l-120 -603h-217
l221 1106h152l10 -156q80 87 189 134.5t231 47.5z" />
    <glyph glyph-name="theta" unicode="&#x3b8;" horiz-adv-x="1425" 
d="M1376 928q1 -183 -54 -355t-152 -305t-242 -213.5t-313 -80.5q-160 0 -274 75t-169.5 203.5t-55.5 297.5q0 146 34 286.5t100.5 260t157.5 210.5t211.5 143t255.5 52q237 0 368.5 -157.5t132.5 -416.5zM854 1296q-86 0 -164 -36.5t-138 -100t-105 -145.5t-73 -177h781
q5 52 5 92q0 175 -79.5 271t-226.5 96zM635 180q168 0 295 131t187 331h-781q-4 -43 -4 -95q0 -174 78.5 -270.5t224.5 -96.5z" />
    <glyph glyph-name="iota" unicode="&#x3b9;" horiz-adv-x="704" 
d="M451 -6q-159 0 -251 82t-92 223q0 36 15.5 120.5t72.5 366.5q40 193 65 320h217q-141 -702 -145 -739q-2 -13 -2 -25q0 -72 45.5 -110.5t130.5 -38.5h108l-41 -199h-123z" />
    <glyph glyph-name="kappa" unicode="&#x3ba;" horiz-adv-x="1120" 
d="M1203 1106l-485 -531l305 -575h-242l-252 476h-161l-95 -476h-217l221 1106h217l-86 -429h131l389 429h275z" />
    <glyph glyph-name="lambda" unicode="&#x3bb;" horiz-adv-x="1165" 
d="M1022 0h-222l-154 763l-493 -763h-247l677 1036l-12 48q-29 114 -64.5 149.5t-122.5 35.5h-72l39 199h84q148 0 226 -85t119 -282z" />
    <glyph glyph-name="uni03BC" unicode="&#x3bc;" horiz-adv-x="1337" 
d="M1067 1106h217l-221 -1106h-145l-9 160q-84 -82 -189.5 -131t-211.5 -49q-149 0 -231 67l-89 -443h-212l301 1502h217q-16 -79 -32.5 -161.5t-27 -133.5t-21.5 -105t-17 -85t-12.5 -64t-9.5 -51t-6 -36.5t-4 -30.5t-1.5 -23t-0.5 -23q0 -202 202 -202q135 0 246 93.5
t139 231.5z" />
    <glyph glyph-name="nu" unicode="&#x3bd;" horiz-adv-x="1175" 
d="M1028 1106h229l-678 -1106h-199l-247 1106h219l174 -831z" />
    <glyph glyph-name="xi" unicode="&#x3be;" horiz-adv-x="1067" 
d="M774 1514q125 0 224 -52.5t148 -145t32 -202.5h-212q3 103 -53.5 156.5t-155.5 53.5q-124 0 -212 -76.5t-88 -188.5q0 -77 51.5 -124.5t137.5 -47.5h175l-38 -189h-179q-130 0 -221.5 -90.5t-91.5 -209.5q0 -23 5.5 -43.5t12.5 -36t23.5 -32.5t27 -27.5t35.5 -24.5
t37 -20.5t43.5 -19.5t43 -17.5t46.5 -17.5q57 -21 90 -34.5t79 -39.5t71 -52t43.5 -66t18.5 -87q0 -55 -24.5 -132.5t-57.5 -143.5h-221q25 44 44.5 106t19.5 94q0 60 -51 100t-177 86q-175 61 -260 148t-85 215q0 150 83.5 269t226.5 177q-65 39 -100.5 107t-35.5 151
q0 134 75 239.5t198.5 161.5t271.5 56z" />
    <glyph glyph-name="omicron" unicode="&#x3bf;" horiz-adv-x="1335" 
d="M572 -26q-222 0 -360.5 136.5t-138.5 347.5q0 181 93 336.5t252.5 246.5t345.5 91q222 0 360.5 -136t138.5 -348q0 -181 -93 -336.5t-252.5 -246.5t-345.5 -91zM595 180q122 0 225.5 64t162.5 170t59 227q0 130 -81.5 207.5t-219.5 77.5q-121 0 -224.5 -63.5t-163 -169.5
t-59.5 -228q0 -130 81.5 -207.5t219.5 -77.5z" />
    <glyph glyph-name="pi" unicode="&#x3c0;" horiz-adv-x="1290" 
d="M277 1106h960l-221 -1106h-215l182 910h-528l-183 -910h-216z" />
    <glyph glyph-name="rho" unicode="&#x3c1;" horiz-adv-x="1372" 
d="M813 1131q214 0 350 -137t136 -344q0 -134 -54 -259t-145 -216t-215.5 -146t-259.5 -55q-102 0 -197 41.5t-156 107.5l-104 -519h-220l191 948q53 265 236.5 422t437.5 157zM639 180q121 0 224 65.5t160.5 171t57.5 222.5q0 128 -79.5 206.5t-213.5 78.5q-121 0 -224 -65
t-160.5 -170.5t-57.5 -222.5q0 -128 80 -207t213 -79z" />
    <glyph glyph-name="uni03C2" unicode="&#x3c2;" horiz-adv-x="1220" 
d="M700 -396q63 135 63 202q0 27 -8.5 49t-29 40t-39.5 31t-56 26.5t-60 21t-69 21.5q-50 15 -86 27t-83.5 33.5t-81 44t-69 56.5t-57 73.5t-35.5 93.5t-14 117q0 190 89 348.5t247 250.5t350 92q202 0 329.5 -112t144.5 -303h-215q-28 103 -103.5 155.5t-185.5 52.5
q-118 0 -218 -62t-156.5 -163.5t-56.5 -215.5q0 -33 6.5 -62t16.5 -52t29 -44t35.5 -35.5t45 -30t48.5 -25t55.5 -22t56.5 -18.5t60 -18q71 -20 125 -44t105 -58.5t78.5 -83t27.5 -107.5q0 -50 -25 -130t-57 -149h-207z" />
    <glyph glyph-name="sigma" unicode="&#x3c3;" horiz-adv-x="1406" 
d="M1474 1110l-40 -198h-281q91 -111 91 -286q0 -134 -54.5 -255t-146.5 -207.5t-218.5 -138t-264.5 -51.5q-217 0 -351.5 135.5t-134.5 342.5q0 182 90.5 333.5t247 238t344.5 86.5h718zM590 180q184 0 312 133t128 317q0 129 -80 207t-216 78q-122 0 -224 -62t-159 -165
t-57 -221q0 -131 80 -209t216 -78z" />
    <glyph glyph-name="tau" unicode="&#x3c4;" horiz-adv-x="983" 
d="M978 910h-341q-104 -520 -107 -550q-1 -9 -1 -18q0 -72 45.5 -110.5t130.5 -38.5h108l-40 -199h-124q-159 0 -251 82t-92 223q0 34 12 99.5t65 328.5q23 114 37 183h-328l40 196h885z" />
    <glyph glyph-name="upsilon" unicode="&#x3c5;" horiz-adv-x="1292" 
d="M550 -26q-197 0 -313 107.5t-118 286.5q0 14 0.5 25.5t3 30t5 35t9 51t12.5 65t18 90t23 113.5t30 147t37 181h217q-123 -620 -128 -653q-4 -29 -4 -53q0 -106 60 -163t170 -57q132 0 226 86.5t123 231.5l120 608h217l-131 -651q-44 -224 -197 -352.5t-380 -128.5z" />
    <glyph glyph-name="phi" unicode="&#x3c6;" horiz-adv-x="1521" 
d="M1447 642q0 -186 -91 -336t-248.5 -235.5t-352.5 -92.5l-75 -372h-212l75 372q-205 10 -338 144.5t-133 332.5q0 224 147 404.5t373 245.5l24 -183q-146 -56 -236 -181.5t-90 -270.5q0 -123 79.5 -201t214.5 -86l185 923h178q222 0 361 -130t139 -334zM791 183
q182 11 310 137t128 299q0 122 -79.5 198t-214.5 84z" />
    <glyph glyph-name="chi" unicode="&#x3c7;" horiz-adv-x="1071" 
d="M1146 1106l-477 -537l285 -569h-231l-199 411l-360 -411h-263l510 577l-258 529h232l178 -380l328 380h255z" />
    <glyph glyph-name="psi" unicode="&#x3c8;" horiz-adv-x="1622" 
d="M1372 1106h217l-120 -600q-48 -240 -220 -384.5t-405 -144.5h-34l-75 -371h-231l75 371h-6q-199 0 -322 125.5t-123 321.5q0 20 1 34.5t4.5 41.5t8 50.5t15.5 80t22 109t32 158t42 208.5h217q-21 -107 -54 -267q-48 -238 -58.5 -295.5t-10.5 -90.5q0 -118 72.5 -193.5
t191.5 -75.5h20l183 920h214l-183 -920h21q137 0 249.5 98.5t140.5 242.5z" />
    <glyph glyph-name="omega" unicode="&#x3c9;" horiz-adv-x="1789" 
d="M1676 1106q33 -141 33 -310q0 -160 -33.5 -305.5t-97.5 -261.5t-167 -185t-231 -69q-144 0 -233 67t-105 181q-62 -113 -177 -180.5t-252 -67.5q-158 0 -245.5 109t-87.5 297q0 318 250 725h227q-108 -159 -181.5 -346.5t-73.5 -336.5q0 -116 46 -179.5t131 -63.5
q106 0 189.5 81t107.5 207l73 370h201q-12 -62 -24.5 -124t-19.5 -97l-14 -70t-10.5 -53t-6.5 -35t-4 -27t-1.5 -18.5t-0.5 -18.5q0 -97 52 -156.5t140 -59.5q82 0 148 56t105 146.5t59 195t20 211.5q0 165 -41 318h224z" />
    <glyph glyph-name="iotadieresis" unicode="&#x3ca;" horiz-adv-x="704" 
d="M66 1281l46 228h240l-46 -228h-240zM494 1281l46 228h240l-46 -228h-240zM451 -6q-159 0 -251 82t-92 223q0 36 15.5 120.5t72.5 366.5q40 193 65 320h217q-141 -702 -145 -739q-2 -13 -2 -25q0 -72 45.5 -110.5t130.5 -38.5h108l-41 -199h-123z" />
    <glyph glyph-name="upsilondieresis" unicode="&#x3cb;" horiz-adv-x="1292" 
d="M449 1281l46 228h240l-47 -228h-239zM876 1281l46 228h240l-46 -228h-240zM550 -26q-197 0 -313 107.5t-118 286.5q0 14 0.5 25.5t3 30t5 35t9 51t12.5 65t18 90t23 113.5t30 147t37 181h217q-123 -620 -128 -653q-4 -29 -4 -53q0 -106 60 -163t170 -57q132 0 226 86.5
t123 231.5l120 608h217l-131 -651q-44 -224 -197 -352.5t-380 -128.5z" />
    <glyph glyph-name="omicrontonos" unicode="&#x3cc;" horiz-adv-x="1335" 
d="M693 1233l191 311h231l-254 -311h-168zM572 -26q-222 0 -360.5 136.5t-138.5 347.5q0 181 93 336.5t252.5 246.5t345.5 91q222 0 360.5 -136t138.5 -348q0 -181 -93 -336.5t-252.5 -246.5t-345.5 -91zM595 180q122 0 225.5 64t162.5 170t59 227q0 130 -81.5 207.5
t-219.5 77.5q-121 0 -224.5 -63.5t-163 -169.5t-59.5 -228q0 -130 81.5 -207.5t219.5 -77.5z" />
    <glyph glyph-name="upsilontonos" unicode="&#x3cd;" horiz-adv-x="1292" 
d="M671 1233l191 311h231l-254 -311h-168zM550 -26q-197 0 -313 107.5t-118 286.5q0 14 0.5 25.5t3 30t5 35t9 51t12.5 65t18 90t23 113.5t30 147t37 181h217q-123 -620 -128 -653q-4 -29 -4 -53q0 -106 60 -163t170 -57q132 0 226 86.5t123 231.5l120 608h217l-131 -651
q-44 -224 -197 -352.5t-380 -128.5z" />
    <glyph glyph-name="omegatonos" unicode="&#x3ce;" horiz-adv-x="1789" 
d="M1348 1544l-254 -311h-168l191 311h231zM1676 1106q33 -141 33 -310q0 -160 -33.5 -305.5t-97.5 -261.5t-167 -185t-231 -69q-144 0 -233 67t-105 181q-62 -113 -177 -180.5t-252 -67.5q-158 0 -245.5 109t-87.5 297q0 318 250 725h227q-108 -159 -181.5 -346.5
t-73.5 -336.5q0 -116 46 -179.5t131 -63.5q106 0 189.5 81t107.5 207l73 370h201q-12 -62 -24.5 -124t-19.5 -97l-14 -70t-10.5 -53t-6.5 -35t-4 -27t-1.5 -18.5t-0.5 -18.5q0 -97 52 -156.5t140 -59.5q82 0 148 56t105 146.5t59 195t20 211.5q0 165 -41 318h224z" />
    <glyph glyph-name="uni0401" unicode="&#x401;" horiz-adv-x="1132" 
d="M752 1837l-46 -228h-240l46 228h240zM1179 1837l-46 -228h-240l46 228h240zM1148 1227h-603l-79 -395h551l-41 -200h-551l-85 -424h627l-41 -208h-851l286 1434h829z" />
    <glyph glyph-name="uni0402" unicode="&#x402;" horiz-adv-x="1515" 
d="M1022 968q189 0 300 -112t111 -292q0 -168 -80 -301.5t-220 -207t-315 -73.5h-16l45 217h15q147 0 245.5 99.5t98.5 237.5q0 96 -62 155t-173 59q-73 0 -150.5 -33t-135.5 -90l-125 -627h-225l246 1230h-411l41 204h1057l-41 -204h-421l-70 -347q134 85 286 85z" />
    <glyph glyph-name="uni0403" unicode="&#x403;" horiz-adv-x="1013" 
d="M1058 1879l-258 -291h-168l195 291h231zM1146 1434l-42 -198h-557l-248 -1236h-224l286 1434h785z" />
    <glyph glyph-name="uni0404" unicode="&#x404;" horiz-adv-x="1589" 
d="M756 192q169 0 311 88.5t228 244.5h228q-59 -165 -179 -290.5t-278 -192.5t-332 -67q-184 0 -326.5 81.5t-218.5 221.5t-76 315q0 174 69.5 333.5t186.5 276t279.5 186t339.5 69.5q258 0 416.5 -142t189.5 -385h-225q-31 147 -136.5 229t-266.5 82q-196 0 -356.5 -118.5
t-229.5 -301.5h641l-40 -202h-642v-20q0 -182 114 -295t303 -113z" />
    <glyph glyph-name="uni0405" unicode="&#x405;" horiz-adv-x="1234" 
d="M514 -26q-210 0 -333 99t-123 277q0 55 9 100h228q-5 -24 -5 -53q0 -99 74 -155t190 -56q136 0 236.5 74.5t100.5 188.5q0 29 -10 53t-32 43t-45.5 33t-61 27.5t-66.5 22t-74 19.5q-51 13 -82 22t-77.5 25.5t-75.5 32t-62.5 41t-52.5 54t-32 68t-13 85.5q0 225 164 355
t419 130q197 0 306.5 -91t109.5 -252q0 -47 -9 -100h-222q5 21 5 51q0 86 -64.5 135t-170.5 49q-128 0 -219.5 -63.5t-91.5 -165.5q0 -32 16 -58t38.5 -43t63.5 -34t74 -26.5t87 -23.5q53 -14 83.5 -22.5t80.5 -26t79.5 -33.5t65.5 -43t55.5 -57t33.5 -72t14 -92
q0 -156 -82 -275t-220 -181t-309 -62z" />
    <glyph glyph-name="uni0406" unicode="&#x406;" horiz-adv-x="593" 
d="M75 0l286 1434h225l-287 -1434h-224z" />
    <glyph glyph-name="uni0407" unicode="&#x407;" horiz-adv-x="593" 
d="M231 1612l43 212h230l-43 -212h-230zM558 1612l43 212h230l-43 -212h-230zM75 0l286 1434h225l-287 -1434h-224z" />
    <glyph glyph-name="uni0408" unicode="&#x408;" horiz-adv-x="1224" 
d="M460 -26q-201 0 -318 110.5t-118 298.5q0 60 14 132h221q-10 -58 -10 -96q0 -108 58 -169t168 -61q120 0 217.5 88.5t123.5 221.5l186 935h225l-191 -972q-43 -221 -200 -354.5t-376 -133.5z" />
    <glyph glyph-name="uni0409" unicode="&#x409;" horiz-adv-x="2207" 
d="M1718 949q189 0 306 -114t117 -289q0 -154 -75.5 -279t-207 -196t-292.5 -71h-555l246 1229h-480l-221 -758q-70 -240 -205.5 -356.5t-342.5 -116.5h-70l44 221h66q206 0 278 250l286 965h911l-97 -485h292zM1573 208q140 0 240 96t100 227q0 96 -63.5 153.5t-171.5 57.5
h-294l-107 -534h296z" />
    <glyph glyph-name="uni040A" unicode="&#x40a;" horiz-adv-x="2068" 
d="M1592 879q184 0 295.5 -105t111.5 -266q0 -223 -155 -365.5t-391 -142.5h-554l132 659h-600l-132 -659h-224l286 1434h225l-115 -573h600l115 573h224l-110 -555h292zM1466 206q135 0 220.5 82t85.5 206q0 84 -56 131.5t-158 47.5h-300l-94 -467h302z" />
    <glyph glyph-name="uni040B" unicode="&#x40b;" horiz-adv-x="1550" 
d="M1037 948q187 0 299 -106.5t112 -292.5q0 -19 -1 -34.5t-4.5 -41.5t-7 -46.5t-12.5 -67.5t-17 -86t-24.5 -120t-30.5 -153h-228q14 68 29.5 145t23 114.5t16 82t12 64t7 42.5t4.5 36.5t1 28.5q0 114 -64 170t-182 56q-107 0 -262 -50l-137 -689h-225l247 1234h-425
l41 200h1071l-40 -200h-423l-67 -337q153 51 287 51z" />
    <glyph glyph-name="uni040E" unicode="&#x40e;" horiz-adv-x="1265" 
d="M1128 1715l-33 -169h-594l33 169h594zM1148 1434h261l-631 -1007q-112 -179 -203.5 -270.5t-187.5 -126t-241 -34.5h-76l41 210h84q110 0 176.5 41.5t153.5 165.5l-338 1021h240l254 -773z" />
    <glyph glyph-name="uni040F" unicode="&#x40f;" horiz-adv-x="1460" 
d="M1451 1434l-287 -1434h-433l-56 -279h-222l56 279h-434l286 1434h225l-246 -1230h638l247 1230h226z" />
    <glyph glyph-name="uni0410" unicode="&#x410;" horiz-adv-x="1439" 
d="M1071 0l-64 318h-646l-189 -318h-250l865 1434h211l308 -1434h-235zM839 1141l-367 -629h495z" />
    <glyph glyph-name="uni0411" unicode="&#x411;" horiz-adv-x="1259" 
d="M1212 1227h-669l-66 -328h298q177 0 286 -105t109 -269q0 -143 -72.5 -263.5t-198 -191t-274.5 -70.5h-550l286 1434h892zM732 689h-296l-96 -480h297q125 0 215 87t90 205q0 85 -57 136.5t-153 51.5z" />
    <glyph glyph-name="uni0412" unicode="&#x412;" horiz-adv-x="1325" 
d="M1045 737q69 -37 105.5 -107t36.5 -159q0 -100 -42 -188t-112.5 -150t-165.5 -97.5t-197 -35.5h-595l286 1434h566q156 0 254.5 -91t98.5 -226q0 -114 -66.5 -218.5t-168.5 -161.5zM799 835q98 0 170.5 70.5t72.5 168.5q0 70 -45.5 113.5t-120.5 43.5h-335l-79 -396h337z
M686 209q111 0 189.5 76.5t78.5 181.5q0 77 -50 125t-134 48h-347l-86 -431h349z" />
    <glyph glyph-name="uni0413" unicode="&#x413;" horiz-adv-x="1013" 
d="M1146 1434l-42 -198h-557l-248 -1236h-224l286 1434h785z" />
    <glyph glyph-name="uni0414" unicode="&#x414;" horiz-adv-x="1558" 
d="M1503 1434l-247 -1230h147l-96 -476h-208l54 272h-1000l-53 -272h-208l96 476h108q34 20 61.5 47t54 65t55.5 107t58.5 148t71 214t83.5 279.5t106 369.5h917zM751 1231q-145 -535 -220 -740t-167 -287h666l207 1027h-486z" />
    <glyph glyph-name="uni0415" unicode="&#x415;" horiz-adv-x="1132" 
d="M1148 1227h-603l-79 -395h551l-41 -200h-551l-85 -424h627l-41 -208h-851l286 1434h829z" />
    <glyph glyph-name="uni0416" unicode="&#x416;" horiz-adv-x="2002" 
d="M2131 1434l-621 -706l382 -728h-261l-330 634h-172l-127 -634h-225l127 634h-140l-576 -634h-302l682 746l-342 688h250l294 -590h176l118 590h224l-117 -590h156l514 590h290z" />
    <glyph glyph-name="uni0417" unicode="&#x417;" horiz-adv-x="1183" 
d="M920 749q65 -42 100.5 -113t35.5 -157q0 -145 -79.5 -261.5t-211.5 -179.5t-287 -63q-189 0 -307.5 99.5t-121.5 275.5q0 34 4 63h215q-4 -28 -4 -41q0 -84 68 -138t167 -54q141 0 238 82t97 206q0 82 -58 132t-155 50h-154l39 194h154q111 0 189.5 73t78.5 175
q0 78 -58.5 124.5t-156.5 46.5q-101 0 -184.5 -57.5t-111.5 -149.5h-219q37 180 189.5 292t345.5 112q180 0 296 -94t116 -246q0 -112 -61.5 -212t-163.5 -159z" />
    <glyph glyph-name="uni0418" unicode="&#x418;" horiz-adv-x="1513" 
d="M1342 1434h163l-286 -1434h-225l199 989l-962 -989h-156l286 1434h225l-196 -978z" />
    <glyph glyph-name="uni0419" unicode="&#x419;" horiz-adv-x="1513" 
d="M1286 1715l-33 -169h-593l33 169h593zM1342 1434h163l-286 -1434h-225l199 989l-962 -989h-156l286 1434h225l-196 -978z" />
    <glyph glyph-name="uni041A" unicode="&#x41a;" horiz-adv-x="1308" 
d="M1450 1434l-633 -708l394 -726h-259l-340 634h-186l-127 -634h-224l286 1434h225l-118 -589h171l522 589h289z" />
    <glyph glyph-name="uni041B" unicode="&#x41b;" horiz-adv-x="1531" 
d="M612 1434h911l-287 -1434h-225l246 1229h-480l-224 -758q-72 -245 -205 -359t-340 -114h-70l44 221h66q200 0 288 290z" />
    <glyph glyph-name="uni041C" unicode="&#x41c;" horiz-adv-x="1970" 
d="M1604 1434h226l-55 -1434h-221l41 1050l-677 -1025h-57l-267 1025l-383 -1050h-235l520 1434h218l247 -983z" />
    <glyph glyph-name="uni041D" unicode="&#x41d;" horiz-adv-x="1490" 
d="M1258 1434h225l-287 -1434h-225l128 637h-673l-127 -637h-224l286 1434h225l-119 -596h672z" />
    <glyph glyph-name="uni041E" unicode="&#x41e;" horiz-adv-x="1693" 
d="M753 -26q-189 0 -335 81.5t-224.5 223t-78.5 318.5t69 336.5t187.5 275t284.5 183.5t352 68q284 0 460 -176t176 -446q0 -177 -69 -337t-187 -275.5t-283.5 -183.5t-351.5 -68zM785 189q134 0 252.5 52t201 139t130.5 202.5t48 238.5q0 188 -121.5 306t-321.5 118
q-133 0 -252 -52t-201.5 -138.5t-130.5 -201.5t-48 -237q0 -189 121.5 -308t321.5 -119z" />
    <glyph glyph-name="uni041F" unicode="&#x41f;" horiz-adv-x="1439" 
d="M361 1434h1069l-286 -1434h-226l246 1229h-619l-246 -1229h-224z" />
    <glyph glyph-name="uni0420" unicode="&#x420;" horiz-adv-x="1257" 
d="M874 1434q182 0 297 -112t115 -282q0 -149 -77 -275.5t-208.5 -199.5t-285.5 -73h-317l-99 -492h-224l286 1434h513zM726 701q134 0 233.5 97.5t99.5 229.5q0 90 -58.5 143.5t-161.5 53.5h-295l-105 -524h287z" />
    <glyph glyph-name="uni0421" unicode="&#x421;" horiz-adv-x="1585" 
d="M725 -25q-277 0 -445 166t-168 429q0 179 70.5 343.5t189 283.5t282.5 190t343 71q247 0 412 -146t179 -383h-225q-23 148 -123.5 230.5t-262.5 82.5q-170 0 -317.5 -90.5t-234 -241.5t-86.5 -323q0 -183 108.5 -289t299.5 -106q171 0 316 89t219 244h235
q-102 -264 -314 -407t-478 -143z" />
    <glyph glyph-name="uni0422" unicode="&#x422;" horiz-adv-x="1146" 
d="M1281 1434l-41 -202h-422l-246 -1232h-224l246 1232h-426l41 202h1072z" />
    <glyph glyph-name="uni0423" unicode="&#x423;" horiz-adv-x="1265" 
d="M1148 1434h261l-631 -1007q-112 -179 -203.5 -270.5t-187.5 -126t-241 -34.5h-76l41 210h84q110 0 176.5 41.5t153.5 165.5l-338 1021h240l254 -773z" />
    <glyph glyph-name="uni0424" unicode="&#x424;" horiz-adv-x="1802" 
d="M1751 843q0 -175 -66 -332t-179.5 -271t-272 -184t-337.5 -78l-45 -221h-219l44 222q-133 10 -240.5 63t-176.5 137t-105.5 190t-36.5 225q0 173 66.5 329.5t181 270t273 184t335.5 78.5l38 194h219l-38 -195q134 -9 241.5 -62t176 -136.5t105 -189t36.5 -224.5zM937 191
q160 13 296 105.5t214 235t78 299.5q0 167 -99 280.5t-278 128.5zM719 192l211 1047q-159 -14 -295 -105.5t-214 -232.5t-78 -297q0 -167 99 -281.5t277 -130.5z" />
    <glyph glyph-name="uni0425" unicode="&#x425;" horiz-adv-x="1245" 
d="M1373 1434l-572 -691l323 -743h-242l-240 564l-465 -564h-273l622 752l-301 682h242l219 -509l420 509h267z" />
    <glyph glyph-name="uni0426" unicode="&#x426;" horiz-adv-x="1472" 
d="M1417 1434l-246 -1230h144l-96 -476h-208l55 272h-991l286 1434h225l-246 -1230h606l247 1230h224z" />
    <glyph glyph-name="uni0427" unicode="&#x427;" horiz-adv-x="1314" 
d="M1079 1434h226l-286 -1434h-226l109 548q-165 -60 -307 -60q-193 0 -310.5 109t-117.5 298q0 15 1 29t2.5 28t5.5 38t8 45.5t12.5 65t16.5 82.5t22.5 112t27.5 139h227q-14 -71 -28 -141.5t-22.5 -110t-16.5 -79.5t-11.5 -60.5t-7 -40t-5 -31t-2 -21t-0.5 -21.5
q0 -110 64 -168.5t187 -58.5q122 0 299 68z" />
    <glyph glyph-name="uni0428" unicode="&#x428;" horiz-adv-x="1990" 
d="M1758 1434h225l-287 -1434h-1621l286 1434h225l-246 -1230h476l245 1230h220l-245 -1230h476z" />
    <glyph glyph-name="uni0429" unicode="&#x429;" horiz-adv-x="2039" 
d="M1983 1434l-246 -1230h149l-95 -476h-208l54 272h-1562l286 1434h225l-246 -1230h476l245 1230h220l-245 -1230h476l246 1230h225z" />
    <glyph glyph-name="uni042A" unicode="&#x42a;" horiz-adv-x="1490" 
d="M1003 949q189 0 306 -113t117 -288q0 -155 -75.5 -280.5t-207.5 -196.5t-293 -71h-554l245 1224h-375l42 210h599l-97 -485h293zM858 205q140 0 240 97t100 229q0 97 -64 156t-171 59h-293l-109 -541h297z" />
    <glyph glyph-name="uni042B" unicode="&#x42b;" horiz-adv-x="1814" 
d="M782 949q189 0 305.5 -113t116.5 -288q0 -155 -75.5 -280.5t-207 -196.5t-292.5 -71h-554l286 1434h225l-97 -485h293zM1582 1434h224l-286 -1434h-225zM636 205q140 0 240.5 97t100.5 229q0 97 -64 156t-172 59h-293l-108 -541h296z" />
    <glyph glyph-name="uni042C" unicode="&#x42c;" horiz-adv-x="1269" 
d="M782 949q189 0 305.5 -113t116.5 -288q0 -155 -75.5 -280.5t-207 -196.5t-292.5 -71h-554l286 1434h225l-97 -485h293zM636 205q140 0 240.5 97t100.5 229q0 97 -64 156t-172 59h-293l-108 -541h296z" />
    <glyph glyph-name="uni042D" unicode="&#x42d;" horiz-adv-x="1593" 
d="M924 1458q182 0 324 -80.5t218.5 -220.5t76.5 -315t-69.5 -335t-187 -276.5t-280 -186t-340.5 -69.5q-259 0 -425.5 154t-180.5 396h224q23 -156 131 -244.5t275 -88.5q198 0 359 121t229 307h-640l39 202h639v10q0 183 -114 296.5t-302 113.5q-162 0 -299.5 -82
t-228.5 -229h-229q95 247 308 387t473 140z" />
    <glyph glyph-name="uni042E" unicode="&#x42e;" horiz-adv-x="2152" 
d="M1473 1459q187 0 331.5 -81t222 -221.5t77.5 -317.5t-70.5 -337.5t-189.5 -276t-283 -183.5t-344 -68q-182 0 -323.5 81t-217.5 222t-76 318v20h-178l-123 -615h-224l286 1434h225l-123 -613h167q76 280 310 459t533 179zM1250 189q168 0 313.5 88.5t229.5 234t84 309.5
q0 188 -120 305.5t-317 117.5q-166 0 -309.5 -88t-226.5 -232.5t-83 -307.5q0 -189 118 -308t311 -119z" />
    <glyph glyph-name="uni042F" unicode="&#x42f;" horiz-adv-x="1337" 
d="M745 1434h584l-287 -1434h-226l108 535h-269l-417 -535h-269l454 572q-111 44 -173.5 137.5t-62.5 212.5q0 144 75.5 262t203.5 184t279 66zM964 736l98 492h-331q-133 0 -225.5 -86t-92.5 -210q0 -88 60 -142t161 -54h330z" />
    <glyph glyph-name="uni0430" unicode="&#x430;" horiz-adv-x="1425" 
d="M1200 1106h171l-221 -1106h-173l5 131q-184 -157 -425 -157q-216 0 -350 136t-134 346q0 180 90.5 335.5t247 248t339.5 92.5q126 0 226 -49.5t163 -138.5zM598 180q117 0 220.5 64t165.5 170.5t62 225.5q0 129 -83.5 207.5t-221.5 78.5q-116 0 -219.5 -64t-165.5 -170.5
t-62 -224.5q0 -129 83.5 -208t220.5 -79z" />
    <glyph glyph-name="uni0431" unicode="&#x431;" horiz-adv-x="1345" 
d="M954 1307q-395 -88 -532 -383q162 127 384 127q205 0 330 -122.5t127 -314.5q2 -136 -48 -255t-138 -203.5t-212 -133t-265 -48.5q-101 0 -188 32.5t-153.5 95t-105 160t-39.5 220.5q0 126 24.5 249t81 245.5t140 222.5t210.5 177.5t284 112.5l489 112l-42 -214zM757 867
q-171 0 -296 -124.5t-125 -292.5q0 -121 78 -196t207 -75q171 0 296 125t125 289q0 121 -79 197.5t-206 76.5z" />
    <glyph glyph-name="uni0432" unicode="&#x432;" horiz-adv-x="1179" 
d="M913 568q60 -27 92.5 -85t32.5 -130q0 -154 -110.5 -253.5t-274.5 -99.5h-597l221 1106h540q124 0 203 -72.5t79 -181.5q0 -91 -50 -167t-136 -117zM712 654q73 0 121.5 45.5t48.5 115.5q0 48 -32 77t-87 29h-310l-54 -267h313zM631 190q78 0 134 50t56 124q0 52 -37 84
t-98 32h-322l-58 -290h325z" />
    <glyph glyph-name="uni0433" unicode="&#x433;" horiz-adv-x="905" 
d="M980 1106l-37 -189h-491l-184 -917h-212l221 1106h703z" />
    <glyph glyph-name="uni0434" unicode="&#x434;" horiz-adv-x="1347" 
d="M1234 1106l-182 -907h145l-94 -471h-198l54 272h-823l-53 -272h-198l94 471h115q35 25 61 59t53.5 89t62.5 160t75 239t104 360h784zM606 916q-89 -335 -146.5 -490.5t-118.5 -226.5h499l143 717h-377z" />
    <glyph glyph-name="uni0435" unicode="&#x435;" horiz-adv-x="1286" 
d="M1193 477h-911q-1 -10 -1 -29q0 -129 75.5 -200.5t211.5 -71.5q103 0 194.5 45.5t149.5 124.5h239q-100 -177 -255.5 -274.5t-341.5 -97.5q-212 0 -346 136t-134 345q0 134 52.5 258.5t141 216.5t212.5 147t261 55q215 0 346 -136.5t131 -346.5q0 -82 -25 -172zM729 936
q-133 0 -240 -77t-162 -200h687q-4 131 -79 204t-206 73z" />
    <glyph glyph-name="uni0436" unicode="&#x436;" horiz-adv-x="1669" 
d="M1749 1106l-483 -527l296 -579h-245l-236 476h-149l-95 -476h-215l95 476h-117l-430 -476h-280l535 585l-268 521h232l222 -436h145l87 436h215l-87 -436h117l393 436h268z" />
    <glyph glyph-name="uni0437" unicode="&#x437;" horiz-adv-x="1005" 
d="M778 571q98 -68 98 -208q0 -180 -137.5 -284.5t-347.5 -104.5q-180 0 -278 90t-102 264h196q-2 -77 53.5 -116.5t148.5 -39.5q110 0 183.5 54t73.5 137q0 59 -45.5 94.5t-121.5 35.5h-149l34 170h147q87 0 144.5 46t57.5 118q0 55 -46.5 88t-128.5 33q-83 0 -143.5 -37
t-85.5 -103h-201q25 144 151.5 234t298.5 90q157 0 258 -85t101 -209q0 -173 -159 -267z" />
    <glyph glyph-name="uni0438" unicode="&#x438;" horiz-adv-x="1261" 
d="M1086 1106h122l-221 -1106h-206l140 701l-739 -701h-126l221 1106h207l-139 -697z" />
    <glyph glyph-name="uni0439" unicode="&#x439;" horiz-adv-x="1261" 
d="M1083 1412l-31 -162h-547l31 162h547zM1086 1106h122l-221 -1106h-206l140 701l-739 -701h-126l221 1106h207l-139 -697z" />
    <glyph glyph-name="uni043A" unicode="&#x43a;" horiz-adv-x="1126" 
d="M1203 1106l-485 -531l305 -575h-242l-252 476h-161l-95 -476h-217l221 1106h217l-86 -429h131l389 429h275z" />
    <glyph glyph-name="uni043B" unicode="&#x43b;" horiz-adv-x="1271" 
d="M469 1106h749l-221 -1106h-214l183 917h-339l-160 -523q-47 -155 -111.5 -242.5t-150 -122.5t-214.5 -35h-60l41 200h51q82 0 138 50.5t89 156.5z" />
    <glyph glyph-name="uni043C" unicode="&#x43c;" horiz-adv-x="1636" 
d="M1280 1106h190l-19 -1106h-200l15 761l-523 -746h-46l-224 753l-291 -768h-219l423 1106h181l211 -718z" />
    <glyph glyph-name="uni043D" unicode="&#x43d;" horiz-adv-x="1284" 
d="M1019 1106h212l-221 -1106h-213l94 467h-529l-94 -467h-212l221 1106h212l-88 -442h529z" />
    <glyph glyph-name="uni043E" unicode="&#x43e;" horiz-adv-x="1335" 
d="M572 -26q-222 0 -360.5 136.5t-138.5 347.5q0 181 93 336.5t252.5 246.5t345.5 91q222 0 360.5 -136t138.5 -348q0 -181 -93 -336.5t-252.5 -246.5t-345.5 -91zM595 180q122 0 225.5 64t162.5 170t59 227q0 130 -81.5 207.5t-219.5 77.5q-121 0 -224.5 -63.5t-163 -169.5
t-59.5 -228q0 -130 81.5 -207.5t219.5 -77.5z" />
    <glyph glyph-name="uni043F" unicode="&#x43f;" horiz-adv-x="1290" 
d="M277 1106h960l-221 -1106h-215l182 910h-528l-183 -910h-216z" />
    <glyph glyph-name="uni0440" unicode="&#x440;" horiz-adv-x="1409" 
d="M857 1132q215 0 348 -135t133 -346q0 -135 -53 -260t-142.5 -216.5t-215 -146t-262.5 -54.5q-231 0 -365 159l-107 -529h-217l301 1502h147l11 -138q187 164 422 164zM664 180q117 0 221.5 64t167.5 171t63 226q0 128 -81.5 206.5t-217.5 78.5q-119 0 -223.5 -64.5
t-166 -172t-61.5 -227.5q0 -127 81 -204.5t217 -77.5z" />
    <glyph glyph-name="uni0441" unicode="&#x441;" horiz-adv-x="1263" 
d="M558 -26q-215 0 -349.5 136t-134.5 346q0 134 54.5 259t146.5 216.5t218 146t263 54.5q202 0 331 -114.5t144 -301.5h-214q-26 99 -100 154.5t-183 55.5q-85 0 -165.5 -39t-140 -102t-96 -148t-36.5 -173q0 -127 78 -205.5t206 -78.5q111 0 209.5 57.5t164.5 160.5h223
q-81 -195 -248.5 -309.5t-370.5 -114.5z" />
    <glyph glyph-name="uni0442" unicode="&#x442;" horiz-adv-x="1060" 
d="M1140 1106l-39 -191h-390l-183 -915h-212l183 915h-398l39 191h1000z" />
    <glyph glyph-name="uni0443" unicode="&#x443;" horiz-adv-x="1208" 
d="M1056 1106h239l-741 -1143q-134 -207 -243.5 -283t-275.5 -76h-119l40 195h82q109 0 171 43.5t152 178.5l46 67l-276 1018h226l204 -788z" />
    <glyph glyph-name="uni0444" unicode="&#x444;" horiz-adv-x="1503" 
d="M1429 636q0 -138 -53.5 -259.5t-145.5 -207.5t-219 -138t-270 -56l-65 -323h-209l64 324q-201 13 -329 148.5t-128 336.5q0 184 91 335.5t248.5 239.5t349.5 94l62 311h210l-63 -312q200 -14 328.5 -151.5t128.5 -341.5zM573 179l149 747q-180 -12 -307 -145.5
t-127 -307.5q0 -125 77 -205t208 -89zM780 179q180 12 307 143.5t127 305.5q0 125 -78 207t-208 91z" />
    <glyph glyph-name="uni0445" unicode="&#x445;" horiz-adv-x="1071" 
d="M1146 1106l-477 -537l285 -569h-231l-199 411l-360 -411h-263l510 577l-258 529h232l178 -380l328 380h255z" />
    <glyph glyph-name="uni0446" unicode="&#x446;" horiz-adv-x="1314" 
d="M1201 1106l-182 -912h149l-93 -466h-198l55 272h-876l221 1106h212l-181 -912h499l181 912h213z" />
    <glyph glyph-name="uni0447" unicode="&#x447;" horiz-adv-x="1132" 
d="M869 1106h210l-221 -1106h-210l79 398q-117 -40 -242 -40q-172 0 -272 94t-100 256q0 19 1.5 37.5t3.5 35t8.5 51.5t12 62t19 93t23.5 119h212q-64 -314 -66 -346q-1 -10 -1 -20q0 -87 53 -132.5t156 -45.5q119 0 236 55z" />
    <glyph glyph-name="uni0448" unicode="&#x448;" horiz-adv-x="1728" 
d="M1461 1106h214l-221 -1106h-1398l221 1106h212l-181 -911h382l182 911h208l-182 -911h382z" />
    <glyph glyph-name="uni0449" unicode="&#x449;" horiz-adv-x="1789" 
d="M1675 1106l-182 -912h150l-94 -466h-197l54 272h-1350l221 1106h212l-181 -912h382l182 912h208l-183 -912h382l182 912h214z" />
    <glyph glyph-name="uni044A" unicode="&#x44a;" horiz-adv-x="1251" 
d="M825 774q156 0 250.5 -91.5t94.5 -235.5q0 -196 -133.5 -321.5t-339.5 -125.5h-469l184 920h-312l37 186h525l-67 -332h230zM694 187q110 0 184 69.5t74 175.5q0 72 -48 113.5t-132 41.5h-214l-80 -400h216z" />
    <glyph glyph-name="uni044B" unicode="&#x44b;" horiz-adv-x="1536" 
d="M651 774q157 0 252 -92t95 -237q0 -195 -133 -320t-338 -125h-471l221 1106h212l-66 -332h228zM1265 1106h217l-221 -1106h-217zM520 185q110 0 185 70t75 177q0 72 -48 114.5t-132 42.5h-214l-81 -404h215z" />
    <glyph glyph-name="uni044C" unicode="&#x44c;" horiz-adv-x="1077" 
d="M651 774q157 0 252 -92t95 -237q0 -195 -133 -320t-338 -125h-471l221 1106h212l-66 -332h228zM520 185q110 0 185 70t75 177q0 72 -48 114.5t-132 42.5h-214l-81 -404h215z" />
    <glyph glyph-name="uni044D" unicode="&#x44d;" horiz-adv-x="1267" 
d="M706 1132q217 0 352.5 -140t135.5 -350q0 -134 -54 -257.5t-145 -213.5t-216.5 -143.5t-262.5 -53.5q-200 0 -328 119t-155 316h214q19 -112 96.5 -177t194.5 -65q141 0 254.5 85.5t164.5 218.5h-465l34 172h464q0 135 -81 216t-220 81q-116 0 -219 -62t-163 -166h-212
q66 188 236.5 304t374.5 116z" />
    <glyph glyph-name="uni044E" unicode="&#x44e;" horiz-adv-x="1765" 
d="M1202 1132q219 0 354.5 -136t135.5 -348q0 -181 -92.5 -336.5t-250 -246.5t-340.5 -91q-208 0 -338.5 134.5t-132.5 344.5h-176l-91 -455h-215l221 1108h216l-91 -452h166q64 209 239.5 343.5t394.5 134.5zM1032 183q117 0 219 63t162 169t60 226q0 128 -80 204t-215 76
q-171 0 -297.5 -136.5t-126.5 -319.5q0 -129 75 -205.5t203 -76.5z" />
    <glyph glyph-name="uni044F" unicode="&#x44f;" horiz-adv-x="1157" 
d="M564 1106h540l-221 -1106h-211l82 409h-231l-326 -409h-248l361 449q-77 37 -120.5 109t-43.5 160q0 166 121.5 277t296.5 111zM507 595h284l64 320h-287q-87 0 -146 -56.5t-59 -134.5q0 -59 38.5 -94t105.5 -35z" />
    <glyph glyph-name="uni0451" unicode="&#x451;" horiz-adv-x="1286" 
d="M735 1509l-46 -228h-240l46 228h240zM1162 1509l-46 -228h-240l46 228h240zM1193 477h-911q-1 -10 -1 -29q0 -129 75.5 -200.5t211.5 -71.5q103 0 194.5 45.5t149.5 124.5h239q-100 -177 -255.5 -274.5t-341.5 -97.5q-212 0 -346 136t-134 345q0 134 52.5 258.5
t141 216.5t212.5 147t261 55q215 0 346 -136.5t131 -346.5q0 -82 -25 -172zM729 936q-133 0 -240 -77t-162 -200h687q-4 131 -79 204t-206 73z" />
    <glyph glyph-name="uni0452" unicode="&#x452;" horiz-adv-x="1314" 
d="M850 1132q164 0 257 -94.5t93 -257.5q0 -15 -0.5 -28.5t-3.5 -35.5t-6 -41t-10 -57t-13.5 -70.5t-19 -94.5t-23.5 -116.5t-30 -150t-36 -180.5q-37 -179 -168 -287t-311 -108h-73l39 198h42q98 0 167 56.5t90 154.5q28 140 67 339q46 233 56 289.5t10 90.5
q0 95 -49.5 140t-152.5 45q-134 0 -244.5 -96t-140.5 -243l-117 -585h-217l242 1212h-185l33 167h186l25 123h217l-25 -123h364l-33 -167h-364l-45 -224q158 144 379 144z" />
    <glyph glyph-name="uni0453" unicode="&#x453;" horiz-adv-x="905" 
d="M967 1544l-253 -311h-168l190 311h231zM980 1106l-37 -189h-491l-184 -917h-212l221 1106h703z" />
    <glyph glyph-name="uni0454" unicode="&#x454;" horiz-adv-x="1267" 
d="M580 167q117 0 220 65t164 177h217q-66 -192 -239.5 -313.5t-378.5 -121.5q-215 0 -351.5 142t-136.5 354q0 134 54 257t145 211.5t216.5 141t262.5 52.5q199 0 326.5 -114t154.5 -306h-208q-22 104 -101 166t-194 62q-141 0 -253.5 -83t-163.5 -213h465l-34 -173h-465
v-2q0 -136 81.5 -219t218.5 -83z" />
    <glyph glyph-name="uni0455" unicode="&#x455;" horiz-adv-x="1054" 
d="M422 -26q-176 0 -283.5 83.5t-107.5 224.5q0 32 6 67h211q-3 -18 -3 -33q0 -73 62 -112t150 -39q108 0 182.5 48t74.5 129q0 32 -17.5 55t-54.5 38.5t-71 24t-90 18.5q-43 8 -69.5 13.5t-66.5 16.5t-65 23t-54.5 32t-46 43.5t-27.5 57t-11 73.5q0 182 138.5 288.5
t348.5 106.5q167 0 270.5 -79.5t103.5 -209.5q0 -30 -6 -63h-205q4 22 4 32q0 66 -55.5 101t-141.5 35q-106 0 -174 -45.5t-68 -117.5q0 -30 16.5 -51.5t52.5 -35.5t69.5 -22t88.5 -17q44 -7 71 -12.5t68 -16.5t67 -23t56 -32t47.5 -44.5t29 -59t11.5 -76.5
q0 -131 -68.5 -228t-183 -145t-259.5 -48z" />
    <glyph glyph-name="uni0456" unicode="&#x456;" horiz-adv-x="546" 
d="M300 1281l46 228h230l-46 -228h-230zM56 0l221 1106h217l-221 -1106h-217z" />
    <glyph glyph-name="uni0457" unicode="&#x457;" horiz-adv-x="546" 
d="M100 1281l46 228h229l-47 -228h-228zM516 1281l46 228h229l-46 -228h-229zM56 0l221 1106h217l-221 -1106h-217z" />
    <glyph glyph-name="uni0458" unicode="&#x458;" horiz-adv-x="571" 
d="M319 1281l46 228h230l-46 -228h-230zM-276 -396l40 198h68q97 0 164 56.5t86 153.5l219 1094h218l-227 -1132q-35 -171 -154.5 -270.5t-291.5 -99.5h-122z" />
    <glyph glyph-name="uni0459" unicode="&#x459;" horiz-adv-x="1775" 
d="M1350 774q156 0 250.5 -91.5t94.5 -235.5q0 -196 -133.5 -321.5t-340.5 -125.5h-468l184 921h-312l-159 -527q-47 -155 -111.5 -242.5t-150.5 -122.5t-215 -35h-60l42 200h51q82 0 138 50.5t89 156.5l218 705h715l-67 -332h235zM1217 187q110 0 185 69t75 176
q0 72 -48 114.5t-132 42.5h-219l-81 -402h220z" />
    <glyph glyph-name="uni045A" unicode="&#x45a;" horiz-adv-x="1753" 
d="M1332 752q156 0 248 -88t92 -228q0 -195 -127 -315.5t-331 -120.5h-467l98 490h-479l-98 -490h-212l221 1106h212l-83 -419h479l84 419h212l-71 -354h222zM1209 192q108 0 176 65t68 162q0 66 -45.5 103.5t-126.5 37.5h-209l-74 -368h211z" />
    <glyph glyph-name="uni045B" unicode="&#x45b;" horiz-adv-x="1312" 
d="M850 1132q164 0 257 -94.5t93 -257.5q0 -15 -0.5 -27.5t-3 -32t-5 -37t-9 -52.5t-13 -67.5t-19 -94t-24 -120t-31.5 -156.5t-39 -193h-217q17 87 34.5 174t28.5 143.5t22.5 112.5t18 89.5t13 66t9.5 51t6 35.5t4 27.5t1.5 20t0.5 19.5q0 95 -49.5 140.5t-152.5 45.5
q-134 0 -244.5 -96t-140.5 -244v1l-117 -586h-217l244 1217h-190l33 162h189l25 123h217l-25 -123h361l-32 -162h-361l-46 -228q157 143 379 143z" />
    <glyph glyph-name="uni045C" unicode="&#x45c;" horiz-adv-x="1120" 
d="M1014 1544l-254 -311h-167l190 311h231zM1203 1106l-485 -531l305 -575h-242l-252 476h-161l-95 -476h-217l221 1106h217l-86 -429h131l389 429h275z" />
    <glyph glyph-name="uni045D" unicode="&#x45d;" horiz-adv-x="1261" 
d="M833 1234h-168l-131 311h231zM1086 1106h122l-221 -1106h-206l140 701l-739 -701h-126l221 1106h207l-139 -697z" />
    <glyph glyph-name="uni045E" unicode="&#x45e;" horiz-adv-x="1208" 
d="M1051 1412l-31 -162h-546l31 162h546zM1056 1106h239l-741 -1143q-134 -207 -243.5 -283t-275.5 -76h-119l40 195h82q109 0 171 43.5t152 178.5l46 67l-276 1018h226l204 -788z" />
    <glyph glyph-name="uni045F" unicode="&#x45f;" horiz-adv-x="1282" 
d="M1229 1106l-221 -1106h-372l-56 -279h-207l55 279h-372l221 1106h212l-181 -911h527l181 911h213z" />
    <glyph glyph-name="uni0490" unicode="&#x490;" horiz-adv-x="1015" 
d="M1189 1649l-83 -418h-560l-247 -1231h-224l286 1434h576l43 215h209z" />
    <glyph glyph-name="uni0491" unicode="&#x491;" horiz-adv-x="905" 
d="M1029 1343l-86 -426h-491l-184 -917h-212l221 1106h498l48 237h206z" />
    <glyph glyph-name="Wgrave" unicode="&#x1e80;" horiz-adv-x="2107" 
d="M1321 1588h-168l-143 291h232zM1999 1434h245l-736 -1434h-195l-180 942l-548 -942h-202l-172 1434h226l116 -1072l621 1051h72l211 -1056z" />
    <glyph glyph-name="wgrave" unicode="&#x1e81;" horiz-adv-x="1732" 
d="M1058 1234h-168l-131 311h231zM1596 1106h219l-591 -1106h-176l-149 686l-430 -686h-178l-150 1106h215l103 -754l471 742h71l174 -756z" />
    <glyph glyph-name="Wacute" unicode="&#x1e82;" horiz-adv-x="2107" 
d="M1576 1879l-257 -291h-168l194 291h231zM1999 1434h245l-736 -1434h-195l-180 942l-548 -942h-202l-172 1434h226l116 -1072l621 1051h72l211 -1056z" />
    <glyph glyph-name="wacute" unicode="&#x1e83;" horiz-adv-x="1732" 
d="M1303 1544l-254 -311h-168l190 311h232zM1596 1106h219l-591 -1106h-176l-149 686l-430 -686h-178l-150 1106h215l103 -754l471 742h71l174 -756z" />
    <glyph glyph-name="Wdieresis" unicode="&#x1e84;" horiz-adv-x="2107" 
d="M1192 1841l-44 -227h-240l44 227h240zM1648 1841l-44 -227h-240l45 227h239zM1999 1434h245l-736 -1434h-195l-180 942l-548 -942h-202l-172 1434h226l116 -1072l621 1051h72l211 -1056z" />
    <glyph glyph-name="wdieresis" unicode="&#x1e85;" horiz-adv-x="1732" 
d="M952 1509l-46 -228h-240l46 228h240zM1379 1509l-46 -228h-240l46 228h240zM1596 1106h219l-591 -1106h-176l-149 686l-430 -686h-178l-150 1106h215l103 -754l471 742h71l174 -756z" />
    <glyph glyph-name="uni1E9E" unicode="&#x1e9e;" horiz-adv-x="1435" 
d="M1412 1434l-7 -39l-351 -475q136 -29 210.5 -124.5t74.5 -236.5q0 -249 -171 -404t-438 -155h-212l43 213h193q151 0 254.5 94t103.5 231q0 96 -67 153t-184 57h-153l7 41l323 437h-227q-136 0 -221.5 -71.5t-113.5 -208.5l-189 -946h-226l196 983q43 214 188 332.5
t362 118.5h605z" />
    <glyph glyph-name="Ygrave" unicode="&#x1ef2;" horiz-adv-x="1357" 
d="M940 1588h-168l-143 291h231zM1491 1434l-692 -859l-115 -575h-232l115 575l-344 859h230l259 -651l522 651h257z" />
    <glyph glyph-name="ygrave" unicode="&#x1ef3;" horiz-adv-x="1208" 
d="M801 1234h-168l-130 311h231zM1056 1106h239l-741 -1143q-134 -207 -243.5 -283t-275.5 -76h-119l40 195h82q109 0 171 43.5t152 178.5l46 67l-276 1018h226l204 -788z" />
    <glyph glyph-name="endash" unicode="&#x2013;" horiz-adv-x="1314" 
d="M123 468l42 210h1037l-40 -210h-1039z" />
    <glyph glyph-name="emdash" unicode="&#x2014;" horiz-adv-x="1845" 
d="M122 468l42 210h1570l-43 -210h-1569z" />
    <glyph glyph-name="quoteleft" unicode="&#x2018;" horiz-adv-x="489" 
d="M205 1011l47 241q25 129 103 204t196 97l-24 -114q-128 -33 -158 -176h135l-50 -252h-249z" />
    <glyph glyph-name="quoteright" unicode="&#x2019;" horiz-adv-x="475" 
d="M207 935l22 113q129 33 159 177h-135l50 251h248l-47 -241q-25 -129 -102.5 -203.5t-194.5 -96.5z" />
    <glyph glyph-name="quotesinglbase" unicode="&#x201a;" horiz-adv-x="516" 
d="M-9 -290l24 113q128 33 158 177h-135l50 251h248l-45 -232q-27 -130 -105 -207.5t-195 -101.5z" />
    <glyph glyph-name="quotedblleft" unicode="&#x201c;" horiz-adv-x="882" 
d="M205 1015l47 240q25 129 103 204t196 97l-24 -114q-128 -33 -158 -176h135l-50 -251h-249zM599 1015l47 240q25 129 103 204t195 97l-23 -114q-128 -33 -158 -176h135l-50 -251h-249z" />
    <glyph glyph-name="quotedblright" unicode="&#x201d;" horiz-adv-x="868" 
d="M207 935l22 113q129 33 159 177h-135l50 251h248l-47 -241q-25 -129 -102.5 -203.5t-194.5 -96.5zM601 935l22 113q129 33 159 177h-135l50 251h248l-47 -241q-25 -129 -102.5 -203.5t-194.5 -96.5z" />
    <glyph glyph-name="quotedblbase" unicode="&#x201e;" horiz-adv-x="909" 
d="M-9 -290l24 113q128 33 158 177h-135l50 251h248l-46 -241q-25 -129 -103 -203.5t-196 -96.5zM385 -290l23 113q129 33 159 177h-135l50 251h248l-46 -241q-25 -129 -103 -203.5t-196 -96.5z" />
    <glyph glyph-name="dagger" unicode="&#x2020;" horiz-adv-x="1044" 
d="M1084 1055l-40 -191h-360l-189 -946h-213l189 946h-349l40 191h348l75 379h213l-76 -379h362z" />
    <glyph glyph-name="daggerdbl" unicode="&#x2021;" horiz-adv-x="1116" 
d="M1081 864h-353l-75 -376h354l-38 -191h-355l-75 -379h-213l76 379h-355l38 191h355l75 376h-356l40 191h354l76 379h213l-76 -379h355z" />
    <glyph glyph-name="bullet" unicode="&#x2022;" horiz-adv-x="735" 
d="M334 393q-74 0 -120.5 48.5t-46.5 120.5q0 105 75 175t175 70q76 0 122.5 -48t46.5 -123q0 -102 -75 -172.5t-177 -70.5z" />
    <glyph glyph-name="ellipsis" unicode="&#x2026;" horiz-adv-x="1224" 
d="M36 0l50 253h240l-50 -253h-240zM398 0l50 253h240l-50 -253h-240zM760 0l50 253h240l-50 -253h-240z" />
    <glyph glyph-name="perthousand" unicode="&#x2030;" horiz-adv-x="2338" 
d="M430 756q-121 0 -195.5 72t-74.5 185q0 155 108 262t268 107q121 0 194.5 -72t73.5 -185q0 -156 -108 -262.5t-266 -106.5zM165 0l1093 1362h207l-1093 -1362h-207zM453 918q75 0 129.5 53.5t54.5 131.5q0 52 -34 84.5t-90 32.5q-74 0 -128.5 -54t-54.5 -130
q0 -53 33.5 -85.5t89.5 -32.5zM1106 -11q-120 0 -194.5 71.5t-74.5 183.5q0 153 107.5 259.5t266.5 106.5q120 0 194.5 -72t74.5 -185q0 -154 -108 -259t-266 -105zM1858 -11q-120 0 -194.5 71.5t-74.5 183.5q0 153 107.5 259.5t266.5 106.5q120 0 194.5 -72t74.5 -185
q0 -154 -108 -259t-266 -105zM1129 151q75 0 128.5 55t53.5 126q0 52 -33.5 84t-89.5 32q-74 0 -127.5 -52.5t-53.5 -129.5q0 -52 33 -83.5t89 -31.5zM1881 151q75 0 129 55t54 126q0 52 -33.5 84t-90.5 32q-74 0 -127.5 -52.5t-53.5 -129.5q0 -52 33 -83.5t89 -31.5z" />
    <glyph glyph-name="guilsinglleft" unicode="&#x2039;" horiz-adv-x="763" 
d="M761 977l-446 -438l264 -422h-246l-263 421l6 34l412 405h273z" />
    <glyph glyph-name="guilsinglright" unicode="&#x203a;" horiz-adv-x="763" 
d="M430 977l263 -421l-6 -34l-412 -405h-279l452 445l-257 415h239z" />
    <glyph glyph-name="fraction" unicode="&#x2044;" horiz-adv-x="333" 
d="M-453 -61l1139 1556h171l-1139 -1556h-171z" />
    <glyph glyph-name="Euro" unicode="&#x20ac;" horiz-adv-x="1333" 
d="M1102 1207q-152 0 -286.5 -74t-224.5 -199h638l-78 -168h-648q-29 -83 -35 -168h609l-77 -169h-514q39 -125 148.5 -194.5t258.5 -69.5q122 0 235 43l-40 -193q-120 -41 -236 -41q-220 0 -380 125t-200 330h-229l77 169h142q4 85 26 168h-171l76 168h161q108 209 310 337
t442 128q178 0 311 -59l-81 -180q-98 47 -234 47z" />
    <glyph glyph-name="uni20BD" unicode="&#x20bd;" horiz-adv-x="1232" 
d="M764 561h-290l-29 -146h407l-30 -154h-408l-52 -261h-213l53 261h-149l30 154h149l31 154h-149l35 168h148l125 625h482q158 0 253.5 -90t95.5 -234q0 -201 -141 -339t-348 -138zM1042 1011q0 77 -51 123.5t-136 46.5h-257l-88 -439h260q108 0 190 80.5t82 188.5z" />
    <glyph glyph-name="uni2113" unicode="&#x2113;" horiz-adv-x="935" 
d="M454 145q73 0 123.5 46t65.5 125h164q-30 -160 -125.5 -250.5t-241.5 -90.5q-130 0 -208.5 74.5t-78.5 199.5q0 42 18 138q-57 -23 -143 -50l35 176q81 29 145 58q28 136 111 544q34 164 133 253t248 89q125 0 198.5 -72.5t73.5 -191.5q0 -105 -48 -209.5t-134 -196
t-193.5 -170t-235.5 -144.5q-36 -181 -36 -202q0 -60 34 -93t95 -33zM488 1109q-21 -108 -51.5 -257.5t-36.5 -180.5q182 108 292 236.5t110 265.5q0 56 -32 87.5t-93 31.5q-74 0 -122.5 -48.5t-66.5 -134.5z" />
    <glyph glyph-name="uni2116" unicode="&#x2116;" horiz-adv-x="2265" 
d="M1249 1364h214l-272 -1364h-174l-523 992l-198 -992h-216l273 1364h186l514 -976zM1955 1240q122 0 197.5 -76t75.5 -192q0 -160 -118.5 -271.5t-283.5 -111.5q-122 0 -198 75.5t-76 193.5q0 159 119 270.5t284 111.5zM1857 746q86 0 146.5 61.5t60.5 143.5
q0 59 -38 95.5t-101 36.5q-85 0 -146.5 -60t-61.5 -146q0 -59 38.5 -95t101.5 -36zM1418 207l36 183h663l-36 -183h-663z" />
    <glyph glyph-name="uni2117" unicode="&#x2117;" horiz-adv-x="1710" 
d="M1021 1452q289 0 464.5 -165t175.5 -429q0 -181 -72 -344t-193.5 -280.5t-290 -187t-354.5 -69.5q-287 0 -461.5 164.5t-174.5 428.5q0 181 71 344.5t192.5 281.5t289 187t353.5 69zM761 107q154 0 294.5 60t242 160.5t161.5 237.5t60 286q0 214 -137.5 342.5
t-370.5 128.5q-154 0 -294.5 -60t-241.5 -160.5t-160.5 -237.5t-59.5 -285q0 -214 136 -343t370 -129zM1049 1118q111 0 179.5 -66.5t68.5 -168.5q0 -140 -105 -235.5t-252 -95.5h-195l-57 -285h-142l169 851h334zM957 675q83 0 142.5 58t59.5 141q0 56 -37 90t-99 34h-192
l-64 -323h190z" />
    <glyph glyph-name="trademark" unicode="&#x2122;" horiz-adv-x="1787" 
d="M892 1343h-162l-84 -421h-101l84 421h-177l19 91h440zM1437 1434h94l-19 -512h-96l12 351l-244 -351h-21l-102 350l-130 -350h-100l188 512h84l98 -343z" />
    <glyph glyph-name="estimated" unicode="&#x212e;" horiz-adv-x="1556" 
d="M1499 616h-1067v-372q161 -148 383 -148q126 0 243.5 47t197.5 129l147 -4q-94 -136 -255.5 -212t-332.5 -76q-188 0 -345 91t-248 248t-91 345q0 138 55 264.5t147 218.5t218.5 146.5t263.5 54.5q180 0 339.5 -92t254.5 -245.5t95 -326.5q0 -19 -5 -68zM815 1231
q-107 0 -206 -40t-177 -112v-350h768v350q-79 71 -179 111.5t-206 40.5z" />
    <glyph glyph-name="uni2150" unicode="&#x2150;" horiz-adv-x="1751" 
d="M1274 1495h171l-1139 -1556h-171zM374 647h-166l129 646h-127l28 141h294zM1183 786h557l-4 -21l-453 -765h-166l387 647h-348z" />
    <glyph glyph-name="uni2151" unicode="&#x2151;" horiz-adv-x="1810" 
d="M1270 1495h171l-1138 -1556h-171zM371 647h-167l130 646h-128l29 141h293zM1492 803q113 0 183.5 -68t70.5 -173q0 -75 -34.5 -142.5t-103.5 -152.5l-209 -267h-177l183 236q11 13 31 39q-37 -8 -67 -8q-97 0 -160 62.5t-63 156.5q0 136 99.5 226.5t246.5 90.5zM1418 387
q70 0 120.5 47t50.5 117q0 47 -31.5 75t-83.5 28q-72 0 -121.5 -49t-49.5 -116q0 -47 30.5 -74.5t84.5 -27.5z" />
    <glyph glyph-name="uni2152" unicode="&#x2152;" horiz-adv-x="2252" 
d="M1270 1495h171l-1138 -1556h-171zM371 647h-167l130 646h-128l29 141h293zM1904 800q121 0 188.5 -82.5t67.5 -221.5q0 -137 -45.5 -252t-138.5 -188.5t-216 -73.5q-121 0 -188.5 83t-67.5 221q0 102 27 194t77 163.5t126.5 114t169.5 42.5zM1146 646l28 140h294
l-158 -786h-166l129 646h-127zM1782 141q51 0 94 33.5t69 85.5t40 112t14 117q0 73 -30 112t-87 39q-65 0 -116.5 -57t-75.5 -134.5t-24 -154.5q0 -73 29.5 -113t86.5 -40z" />
    <glyph glyph-name="uni2153" unicode="&#x2153;" horiz-adv-x="1744" 
d="M1270 1495h171l-1138 -1556h-171zM371 647h-167l130 646h-128l29 141h293zM1687 786l-7 -32l-215 -262q67 -22 106 -78t39 -130q0 -129 -89.5 -213.5t-226.5 -84.5q-119 0 -186.5 70.5t-50.5 188.5h156q-11 -44 16 -77.5t77 -33.5q62 0 105 44.5t43 103.5q0 43 -30 67.5
t-80 24.5h-111l4 30l191 243h-272l29 139h502z" />
    <glyph glyph-name="uni2154" unicode="&#x2154;" horiz-adv-x="2002" 
d="M1535 1495h171l-1138 -1556h-172zM673 800l-32 -151h-554l8 38q31 28 85.5 78.5t82.5 77t73 68.5t69 67t56.5 59t49 57t33.5 49t24 47t7 40q0 34 -21.5 54.5t-57.5 20.5q-97 0 -124 -118h-161q25 132 103.5 198.5t199.5 66.5q100 0 162.5 -61t62.5 -153q0 -52 -21 -102.5
t-71.5 -110t-95 -103t-131.5 -122.5h253zM1952 786l-7 -32l-215 -262q67 -22 106 -78t39 -130q0 -129 -89.5 -213.5t-226.5 -84.5q-119 0 -186.5 70.5t-50.5 188.5h156q-11 -44 15.5 -77.5t76.5 -33.5q62 0 105 44.5t43 103.5q0 43 -30 67.5t-80 24.5h-110l4 30l191 243
h-272l29 139h502z" />
    <glyph glyph-name="uni2155" unicode="&#x2155;" horiz-adv-x="1792" 
d="M1270 1495h171l-1138 -1556h-171zM371 647h-167l130 646h-128l29 141h293zM1684 647h-292l-42 -137h69q108 0 175.5 -64.5t67.5 -161.5q0 -127 -93.5 -212.5t-227.5 -85.5q-122 0 -190 75t-44 184h158q-11 -46 17 -79.5t79 -33.5q57 0 99.5 43t42.5 102q0 43 -28.5 69
t-77.5 26h-218l-15 21l123 393h424z" />
    <glyph glyph-name="uni2156" unicode="&#x2156;" horiz-adv-x="2048" 
d="M1536 1495h171l-1139 -1556h-171zM674 800l-33 -151h-553l7 38q31 28 85.5 78.5t82.5 77t73 68.5t69 67t56.5 59t49 57t33.5 49t24 47t7 40q0 34 -21.5 54.5t-57.5 20.5q-97 0 -124 -118h-161q25 132 104 198.5t200 66.5q100 0 162 -61t62 -153q0 -52 -21 -103t-71 -110
t-95 -103t-131 -122h253zM1950 647h-292l-42 -137h69q108 0 175 -64.5t67 -161.5q0 -127 -93 -212.5t-227 -85.5q-122 0 -190.5 75t-44.5 184h159q-11 -46 16.5 -79.5t78.5 -33.5q57 0 99.5 43t42.5 102q0 43 -29 69t-77 26h-218l-15 21l123 393h424z" />
    <glyph glyph-name="uni2157" unicode="&#x2157;" horiz-adv-x="2031" 
d="M1514 1495h171l-1138 -1556h-171zM683 931q0 -129 -89.5 -213.5t-226.5 -84.5q-119 0 -186.5 70.5t-50.5 188.5h156q-11 -44 15.5 -77.5t76.5 -33.5q62 0 105 45t43 104q0 42 -29.5 66.5t-80.5 24.5h-110l4 30l191 243h-272l29 140h502l-7 -32l-215 -263q67 -22 106 -78
t39 -130zM1928 647h-292l-42 -137h69q108 0 175.5 -64.5t67.5 -161.5q0 -127 -93.5 -212.5t-227.5 -85.5q-122 0 -190 75t-44 184h158q-11 -46 17 -79.5t79 -33.5q57 0 99.5 43t42.5 102q0 43 -28.5 69t-77.5 26h-218l-15 21l122 393h425z" />
    <glyph glyph-name="uni2158" unicode="&#x2158;" horiz-adv-x="2115" 
d="M1586 1495h171l-1139 -1556h-171zM456 647l31 153h-383l6 29l382 605h167l-316 -498h175l69 198h121l-40 -198h73l-28 -136h-72l-30 -153h-155zM2000 647h-292l-42 -137h69q108 0 175.5 -64.5t67.5 -161.5q0 -127 -93.5 -212.5t-227.5 -85.5q-122 0 -190 75t-44 184h158
q-11 -46 17 -79.5t79 -33.5q57 0 99.5 43t42.5 102q0 43 -28.5 69t-77.5 26h-218l-15 21l122 393h425z" />
    <glyph glyph-name="uni2159" unicode="&#x2159;" horiz-adv-x="1798" 
d="M1274 1495h171l-1139 -1556h-171zM374 647h-166l129 646h-127l28 141h293zM1464 519q97 0 159 -62.5t62 -156.5q0 -135 -100.5 -225.5t-246.5 -90.5q-113 0 -182.5 67.5t-69.5 171.5q0 79 32.5 142t103.5 154l208 267h179l-187 -239q-5 -6 -15.5 -19t-15.5 -20
q38 11 73 11zM1358 132q71 0 120 46.5t49 115.5q0 48 -31 77t-85 29q-70 0 -119 -47t-49 -117q0 -47 31.5 -75.5t83.5 -28.5z" />
    <glyph glyph-name="uni215A" unicode="&#x215a;" horiz-adv-x="2076" 
d="M1553 1495h171l-1139 -1556h-171zM693 931q0 -127 -93 -212.5t-227 -85.5q-122 0 -190.5 75t-44.5 184h159q-11 -46 16.5 -79.5t78.5 -33.5q57 0 99.5 43t42.5 103q0 43 -28.5 68.5t-77.5 25.5h-218l-15 21l123 394h424l-26 -140h-292l-42 -137h68q108 0 175.5 -64.5
t67.5 -161.5zM1743 519q97 0 159 -62.5t62 -156.5q0 -135 -100.5 -225.5t-246.5 -90.5q-113 0 -182.5 67.5t-69.5 171.5q0 79 32.5 142t103.5 154l208 267h179l-187 -239q-5 -6 -15.5 -19t-15.5 -20q38 11 73 11zM1637 132q71 0 120 46.5t49 115.5q0 48 -31 77t-85 29
q-70 0 -119 -47t-49 -117q0 -47 31.5 -75.5t83.5 -28.5z" />
    <glyph glyph-name="oneeighth" unicode="&#x215b;" horiz-adv-x="1822" 
d="M1270 1495h171l-1138 -1556h-171zM371 647h-167l130 646h-128l29 141h293zM1626 411q66 -53 66 -143q0 -127 -94.5 -203.5t-237.5 -76.5q-110 0 -179.5 61.5t-69.5 156.5q0 150 140 227q-48 48 -48 121q0 117 85.5 184t218.5 67q102 0 166 -56t64 -142q0 -126 -111 -196z
M1452 484q54 0 93 31.5t39 80.5q0 35 -26 56.5t-68 21.5q-55 0 -94.5 -33t-39.5 -80q0 -36 26.5 -56.5t69.5 -20.5zM1380 126q66 0 110 38t44 97q0 42 -29.5 66t-79.5 24q-66 0 -112 -39t-46 -95q0 -42 31 -66.5t82 -24.5z" />
    <glyph glyph-name="threeeighths" unicode="&#x215c;" horiz-adv-x="2062" 
d="M1514 1495h171l-1138 -1556h-171zM683 931q0 -129 -89.5 -213.5t-226.5 -84.5q-119 0 -186.5 70.5t-50.5 188.5h156q-11 -44 15.5 -77.5t76.5 -33.5q62 0 105 45t43 104q0 42 -29.5 66.5t-80.5 24.5h-110l4 30l191 243h-272l29 140h502l-7 -32l-215 -263q67 -22 106 -78
t39 -130zM1870 411q66 -53 66 -143q0 -127 -94.5 -203.5t-237.5 -76.5q-110 0 -179.5 61.5t-69.5 156.5q0 150 140 227q-48 48 -48 121q0 117 85 184t218 67q102 0 166.5 -56t64.5 -142q0 -126 -111 -196zM1696 484q54 0 93 31.5t39 80.5q0 35 -26 56.5t-68 21.5
q-55 0 -94.5 -33t-39.5 -80q0 -36 26.5 -56.5t69.5 -20.5zM1624 126q66 0 110 38t44 97q0 42 -29.5 66t-80.5 24q-66 0 -111.5 -39t-45.5 -95q0 -42 31 -66.5t82 -24.5z" />
    <glyph glyph-name="fiveeighths" unicode="&#x215d;" horiz-adv-x="2093" 
d="M1544 1495h171l-1138 -1556h-171zM685 931q0 -127 -93.5 -212.5t-227.5 -85.5q-122 0 -190 75t-44 184h159q-11 -46 16.5 -79.5t78.5 -33.5q57 0 99.5 43t42.5 103q0 43 -28.5 68.5t-77.5 25.5h-218l-15 21l123 394h424l-27 -140h-292l-42 -137h69q108 0 175.5 -64.5
t67.5 -161.5zM1900 411q66 -53 66 -143q0 -127 -94.5 -203.5t-237.5 -76.5q-110 0 -179 61.5t-69 156.5q0 150 139 227q-48 48 -48 121q0 117 85.5 184t218.5 67q102 0 166 -56t64 -142q0 -126 -111 -196zM1726 484q54 0 93.5 31.5t39.5 80.5q0 35 -26.5 56.5t-68.5 21.5
q-55 0 -94.5 -33t-39.5 -80q0 -36 26.5 -56.5t69.5 -20.5zM1654 126q66 0 110.5 38t44.5 97q0 42 -29.5 66t-80.5 24q-66 0 -112 -39t-46 -95q0 -42 31 -66.5t82 -24.5z" />
    <glyph glyph-name="seveneighths" unicode="&#x215e;" horiz-adv-x="2045" 
d="M1488 1495h171l-1139 -1556h-171zM788 1434l-5 -21l-453 -766h-166l387 648h-348l27 139h558zM1844 411q66 -53 66 -143q0 -127 -94.5 -203.5t-237.5 -76.5q-110 0 -179.5 61.5t-69.5 156.5q0 150 140 227q-48 48 -48 121q0 117 85 184t218 67q102 0 166.5 -56t64.5 -142
q0 -126 -111 -196zM1669 484q54 0 93.5 31.5t39.5 80.5q0 35 -26 56.5t-68 21.5q-55 0 -94.5 -33t-39.5 -80q0 -36 26 -56.5t69 -20.5zM1598 126q66 0 110 38t44 97q0 42 -29.5 66t-80.5 24q-66 0 -111.5 -39t-45.5 -95q0 -42 31 -66.5t82 -24.5z" />
    <glyph glyph-name="uni215F" unicode="&#x215f;" horiz-adv-x="1087" 
d="M1448 1495h171l-1139 -1556h-171zM548 647h-166l129 646h-127l28 141h294z" />
    <glyph glyph-name="uni2189" unicode="&#x2189;" horiz-adv-x="2093" 
d="M1622 1495h171l-1139 -1556h-171zM809 1147q0 -101 -27 -193.5t-77 -164t-127 -114t-170 -42.5q-121 0 -188 83t-67 221q0 137 45.5 252.5t138 188.5t215.5 73q121 0 189 -82.5t68 -221.5zM430 793q67 0 119 57t75.5 134.5t23.5 155.5q0 73 -30 112t-87 39
q-65 0 -116.5 -57t-75.5 -134.5t-24 -154.5q0 -73 29 -112.5t86 -39.5zM2038 786l-6 -32l-215 -262q67 -22 106 -78t39 -130q0 -129 -90 -213.5t-227 -84.5q-119 0 -186 70.5t-50 188.5h155q-11 -44 16 -77.5t77 -33.5q62 0 105 44.5t43 103.5q0 43 -30 67.5t-80 24.5h-111
l5 30l191 243h-272l28 139h502z" />
    <glyph glyph-name="arrowleft" unicode="&#x2190;" horiz-adv-x="1357" 
d="M1296 729v-193h-871l355 -355l-135 -119l-555 558v26l555 558l135 -120l-355 -355h871z" />
    <glyph glyph-name="arrowup" unicode="&#x2191;" horiz-adv-x="1249" 
d="M1242 791l-120 -135l-355 355v-872h-193v872l-355 -355l-120 135l559 555h25z" />
    <glyph glyph-name="arrowright" unicode="&#x2192;" horiz-adv-x="1357" 
d="M745 1204l555 -558v-26l-555 -558l-135 119l355 355h-872v193h872l-355 355z" />
    <glyph glyph-name="arrowdown" unicode="&#x2193;" horiz-adv-x="1249" 
d="M1100 802l120 -134l-559 -555h-25l-559 555l120 134l355 -354v871h193v-871z" />
    <glyph glyph-name="uni2196" unicode="&#x2196;" horiz-adv-x="1290" 
d="M1195 322l-136 -136l-685 694v-526h-179v818l22 22h818v-178h-526z" />
    <glyph glyph-name="uni2197" unicode="&#x2197;" horiz-adv-x="1157" 
d="M1024 1194l22 -22v-818h-179v526l-685 -694l-136 136l686 694h-526v178h818z" />
    <glyph glyph-name="uni2198" unicode="&#x2198;" horiz-adv-x="1343" 
d="M964 991h179v-818l-22 -21h-818v178h526l-686 693l136 137l685 -694v525z" />
    <glyph glyph-name="uni2199" unicode="&#x2199;" horiz-adv-x="1196" 
d="M1188 1023l-686 -693h525v-178h-817l-22 21v818h178v-525l685 694z" />
    <glyph glyph-name="partialdiff" unicode="&#x2202;" horiz-adv-x="1277" 
d="M695 1466q260 0 400 -126.5t140 -369.5q0 -248 -85 -464q-96 -242 -280 -386.5t-429 -144.5q-99 0 -177.5 29.5t-129 80.5t-77 118t-26.5 144q0 127 56 244t148.5 202t218 135.5t259.5 50.5q211 0 316 -129q11 63 11 111q0 319 -391 319q-94 0 -237 -20l37 183
q151 23 246 23zM484 165q116 0 220.5 61.5t167 161t62.5 207.5q0 96 -64.5 152t-175.5 56q-116 0 -220.5 -60t-167 -158.5t-62.5 -206.5q0 -98 64 -155.5t176 -57.5z" />
    <glyph glyph-name="emptyset" unicode="&#x2205;" horiz-adv-x="1368" 
d="M1146 994q139 -124 139 -335q0 -136 -54.5 -261.5t-147 -217t-220.5 -146t-268 -54.5q-128 0 -236 47l-84 -102h-202l155 187q-68 61 -105 148.5t-37 189.5q0 137 55 262t148 215.5t221 144.5t267 54q135 0 236 -46l79 97h202zM743 928q-119 0 -221.5 -64t-161 -168.5
t-58.5 -221.5q0 -116 72 -191l502 622q-60 23 -133 23zM627 178q118 0 220.5 64t162 169.5t59.5 223.5q0 113 -69 188l-501 -623q54 -22 128 -22z" />
    <glyph glyph-name="product" unicode="&#x220f;" horiz-adv-x="1505" 
d="M1609 1434l-41 -204h-198l-312 -1558h-230l312 1558h-506l-312 -1558h-230l313 1558h-201l41 204h1364z" />
    <glyph glyph-name="summation" unicode="&#x2211;" horiz-adv-x="1228" 
d="M1312 1434l-42 -201h-710l335 -675l-10 -54l-551 -632h675l-41 -202h-1079l7 39l743 858l-405 828l7 39h1071z" />
    <glyph glyph-name="minus" unicode="&#x2212;" horiz-adv-x="1269" 
d="M150 591l39 195h983l-39 -195h-983z" />
    <glyph glyph-name="radical" unicode="&#x221a;" horiz-adv-x="1386" 
d="M1371 1536h228l-975 -1536h-88l-184 832h-276l37 185h401l133 -639z" />
    <glyph glyph-name="infinity" unicode="&#x221e;" horiz-adv-x="1980" 
d="M1557 1091q158 0 258 -95t100 -241q0 -130 -65.5 -239t-179 -172t-249.5 -63q-130 0 -227 64.5t-191 204.5q-150 -139 -273.5 -204t-253.5 -65q-158 0 -257.5 95.5t-99.5 240.5q0 132 65 241t178.5 171t250.5 62q129 0 224.5 -65t192.5 -208q155 143 277 208t250 65z
M310 635q0 -80 53.5 -127t147.5 -47q87 0 169 51.5t227 188.5q-78 114 -148 162t-157 48q-126 0 -209 -80t-83 -196zM1433 461q127 0 208.5 80t81.5 198q0 80 -52 126t-146 46q-87 0 -168 -50.5t-230 -192.5q77 -113 147 -160t159 -47z" />
    <glyph glyph-name="integral" unicode="&#x222b;" horiz-adv-x="813" 
d="M-243 -622l38 198h53q126 0 206.5 66.5t105.5 192.5l332 1662q37 188 158.5 289.5t308.5 101.5h129l-38 -196h-54q-122 0 -199 -64.5t-102 -186.5l-332 -1662q-38 -192 -162 -296.5t-314 -104.5h-130z" />
    <glyph glyph-name="approxequal" unicode="&#x2248;" horiz-adv-x="1206" 
d="M864 768q-50 0 -97.5 19t-72 37t-65.5 53q-29 25 -46 38t-42 24.5t-49 11.5q-51 0 -85.5 -46t-47.5 -132h-171q34 188 115.5 277.5t212.5 89.5q53 0 101 -19t74 -39t62 -54q3 -2 12.5 -11t12.5 -11.5l12 -10t13 -10.5t12.5 -8.5t13.5 -8l13 -6.5t14.5 -5t14 -2.5
t15.5 -1.5q51 0 82 44t49 134h171q-36 -185 -114 -274t-210 -89zM767 285q-50 0 -97.5 19t-72 37t-65.5 53q-29 25 -46 38t-42 24.5t-49 11.5q-51 0 -85 -45t-47 -132h-171q34 187 115.5 276.5t212.5 89.5q53 0 100.5 -19t73 -38.5t62.5 -54.5q32 -28 44 -38t38 -23t51 -13
q51 0 82.5 43.5t49.5 133.5h171q-36 -185 -114.5 -274t-210.5 -89z" />
    <glyph glyph-name="notequal" unicode="&#x2260;" horiz-adv-x="1271" 
d="M1179 818h-361l-116 -256h427l-40 -197h-476l-129 -286h-193l129 286h-314l40 197h363l116 256h-429l40 197h478l128 284h193l-128 -284h312z" />
    <glyph glyph-name="lessequal" unicode="&#x2264;" horiz-adv-x="1136" 
d="M1162 1366l-47 -236l-645 -306l524 -295l-41 -210l-818 476l16 85zM22 48l40 199h879l-40 -199h-879z" />
    <glyph glyph-name="greaterequal" unicode="&#x2265;" horiz-adv-x="1126" 
d="M300 1366l816 -486l-16 -85l-1009 -476l47 244l630 296l-511 298zM35 48l39 199h879l-39 -199h-879z" />
    <glyph glyph-name="lozenge" unicode="&#x25ca;" horiz-adv-x="1142" 
d="M763 1434l349 -700l-7 -31l-629 -703h-31l-348 703l7 31l627 700h32zM932 739l-221 442l-433 -483l220 -445z" />
    <glyph glyph-name="K.ss01" horiz-adv-x="1284" 
d="M361 1434h225l-287 -1434h-224zM1431 1434l-722 -687l488 -747h-249l-491 751l6 34l678 649h290z" />
    <glyph glyph-name="K.ss03" horiz-adv-x="1284" 
d="M361 1434h225l-287 -1434h-224zM1431 1434l-722 -687l488 -747h-249l-491 751l6 34l678 649h290z" />
    <glyph glyph-name="K.ss04" horiz-adv-x="1284" 
d="M361 1434h225l-287 -1434h-224zM1431 1434l-722 -687l488 -747h-249l-491 751l6 34l678 649h290z" />
    <glyph glyph-name="germandbls.calt" horiz-adv-x="1419" 
d="M1406 1434l-7 -39l-351 -475q136 -29 211 -125t75 -236q0 -249 -171 -404t-438 -155h-212l42 213h193q151 0 255 94t104 231q0 96 -67 153t-184 57h-154l7 41l324 437h-228q-136 0 -221 -71.5t-113 -208.5l-189 -946h-226l196 983q43 214 188 332.5t362 118.5h604z" />
    <glyph glyph-name="i.loclTRK" horiz-adv-x="546" 
d="M300 1281l46 228h230l-46 -228h-230zM56 0l221 1106h217l-221 -1106h-217z" />
    <glyph glyph-name="k.ss01" horiz-adv-x="1091" 
d="M357 1502h217l-301 -1502h-217zM1181 1106l-533 -536l344 -570h-241l-335 564l10 55l482 487h273z" />
    <glyph glyph-name="k.ss03" horiz-adv-x="1091" 
d="M357 1502h217l-301 -1502h-217zM1181 1106l-533 -536l344 -570h-241l-335 564l10 55l482 487h273z" />
    <glyph glyph-name="k.ss04" horiz-adv-x="1091" 
d="M357 1502h217l-301 -1502h-217zM1181 1106l-533 -536l344 -570h-241l-335 564l10 55l482 487h273z" />
    <glyph glyph-name="uni0414.loclBGR" horiz-adv-x="1546" 
d="M1302 203l115 -2l-95 -473h-207l53 272h-1009l-55 -272h-207l95 473l114 2l735 1231h208zM893 1117l-538 -913h724z" />
    <glyph glyph-name="uni041B.loclBGR" horiz-adv-x="1384" 
d="M1242 0h-230l-196 1119l-644 -1119h-250l841 1434h211z" />
    <glyph glyph-name="uni0416.ss01" horiz-adv-x="1904" 
d="M874 777l-5 -44l-691 -733h-297l745 782l-396 652h250zM1020 1434h224l-286 -1434h-225zM2042 1434l-677 -695l438 -739h-252l-432 735l5 40l629 659h289z" />
    <glyph glyph-name="uni041A.ss01" horiz-adv-x="1284" 
d="M361 1434h225l-287 -1434h-224zM1431 1434l-722 -687l488 -747h-249l-491 751l6 34l678 649h290z" />
    <glyph glyph-name="uni0424.ss01" horiz-adv-x="1802" 
d="M1751 843q0 -175 -66 -332t-179.5 -271t-272 -184t-337.5 -78l-45 -221h-219l44 222q-133 10 -240.5 63t-176.5 137t-105.5 190t-36.5 225q0 173 66.5 329.5t181 270t273 184t335.5 78.5l38 194h219l-38 -195q134 -9 241.5 -62t176 -136.5t105 -189t36.5 -224.5zM937 191
q160 13 296 105.5t214 235t78 299.5q0 167 -99 280.5t-278 128.5zM719 192l211 1047q-159 -14 -295 -105.5t-214 -232.5t-78 -297q0 -167 99 -281.5t277 -130.5z" />
    <glyph glyph-name="uni0414.ss02" horiz-adv-x="1546" 
d="M1302 203l115 -2l-95 -473h-207l53 272h-1009l-55 -272h-207l95 473l114 2l735 1231h208zM893 1117l-538 -913h724z" />
    <glyph glyph-name="uni041B.ss02" horiz-adv-x="1384" 
d="M1242 0h-230l-196 1119l-644 -1119h-250l841 1434h211z" />
    <glyph glyph-name="uni0414.ss03" horiz-adv-x="1546" 
d="M1302 203l115 -2l-95 -473h-207l53 272h-1009l-55 -272h-207l95 473l114 2l735 1231h208zM893 1117l-538 -913h724z" />
    <glyph glyph-name="uni0416.ss03" horiz-adv-x="1904" 
d="M874 777l-5 -44l-691 -733h-297l745 782l-396 652h250zM1020 1434h224l-286 -1434h-225zM2042 1434l-677 -695l438 -739h-252l-432 735l5 40l629 659h289z" />
    <glyph glyph-name="uni041A.ss03" horiz-adv-x="1284" 
d="M361 1434h225l-287 -1434h-224zM1431 1434l-722 -687l488 -747h-249l-491 751l6 34l678 649h290z" />
    <glyph glyph-name="uni041B.ss03" horiz-adv-x="1384" 
d="M1242 0h-230l-196 1119l-644 -1119h-250l841 1434h211z" />
    <glyph glyph-name="uni0416.ss04" horiz-adv-x="1904" 
d="M874 777l-5 -44l-691 -733h-297l745 782l-396 652h250zM1020 1434h224l-286 -1434h-225zM2042 1434l-677 -695l438 -739h-252l-432 735l5 40l629 659h289z" />
    <glyph glyph-name="uni041A.ss04" horiz-adv-x="1284" 
d="M361 1434h225l-287 -1434h-224zM1431 1434l-722 -687l488 -747h-249l-491 751l6 34l678 649h290z" />
    <glyph glyph-name="uni0424.ss04" horiz-adv-x="1681" 
d="M1637 813q0 -201 -104 -368.5t-282.5 -267t-393.5 -108.5l-33 -163h-226l34 165q-127 12 -227.5 61.5t-164 125.5t-96.5 169.5t-33 197.5q0 204 102.5 372t280.5 266.5t399 110.5l29 149h225l-29 -150q123 -9 223 -58t164 -125.5t98 -173t34 -203.5zM677 277l179 894
q-139 -11 -258.5 -89.5t-189.5 -200.5t-70 -256q0 -146 90 -243.5t249 -104.5zM894 277q140 8 259.5 85t188 198.5t68.5 257.5q0 96 -38 172.5t-115 125t-184 54.5z" />
    <glyph glyph-name="uni0424.ss05" horiz-adv-x="1681" 
d="M1637 813q0 -201 -104 -368.5t-282.5 -267t-393.5 -108.5l-33 -163h-226l34 165q-127 12 -227.5 61.5t-164 125.5t-96.5 169.5t-33 197.5q0 204 102.5 372t280.5 266.5t399 110.5l29 149h225l-29 -150q123 -9 223 -58t164 -125.5t98 -173t34 -203.5zM677 277l179 894
q-139 -11 -258.5 -89.5t-189.5 -200.5t-70 -256q0 -146 90 -243.5t249 -104.5zM894 277q140 8 259.5 85t188 198.5t68.5 257.5q0 96 -38 172.5t-115 125t-184 54.5z" />
    <glyph glyph-name="uni0432.loclBGR" horiz-adv-x="1275" 
d="M1019 770q73 -44 112 -119.5t39 -165.5q0 -149 -79 -266.5t-210 -179.5t-287 -62q-218 0 -341 117t-128 320q0 16 0.5 30t2.5 33.5t4 34t7 44.5t9 51t13 67.5t16 81l21 103.5t25 124q52 266 206 406t390 140q189 0 307 -101.5t118 -257.5q0 -117 -61 -224.5t-164 -175.5z
M799 1331q-141 0 -237.5 -94t-130.5 -275q-15 -71 -17 -83h317q135 0 227 77.5t92 194.5q0 83 -67 131.5t-184 48.5zM614 181q142 0 241.5 86t99.5 218q0 91 -66.5 144t-183.5 53h-331q-38 -189 -38 -251q0 -250 278 -250z" />
    <glyph glyph-name="uni0433.loclBGR" horiz-adv-x="1056" 
d="M437 -20q-183 0 -292 85t-109 222q0 57 14 103.5t35.5 80t60 61t72.5 44.5t89.5 33t96 24.5t104.5 20.5q34 7 48 9.5t46 9.5t46.5 12t40.5 14t39 17t30.5 20.5t26 26t14.5 31t6 37.5q0 52 -51.5 83t-141.5 31q-104 0 -168 -44.5t-80 -128.5h-202q18 172 146 264.5
t320 92.5q171 0 274.5 -82t103.5 -209q0 -43 -8.5 -80t-21.5 -66t-36.5 -53.5t-46 -42.5t-58 -34t-64 -26.5t-71.5 -21t-74 -17t-79 -15.5q-44 -8 -63.5 -11.5t-58.5 -13t-58 -17.5t-46.5 -22t-40.5 -30t-23 -38.5t-10 -49.5q0 -55 57 -87t155 -32q112 0 183.5 48t87.5 135
h212q-32 -184 -167 -284t-338 -100z" />
    <glyph glyph-name="uni0434.loclBGR" horiz-adv-x="1374" 
d="M1178 1106h142l-193 -968q-54 -267 -225.5 -413.5t-427.5 -146.5q-209 0 -333 104.5t-136 285.5h217q13 -93 91 -145t189 -52q150 0 264 98t147 260l6 31q-174 -127 -380 -127q-201 0 -330 129t-129 328q0 126 52 245t138.5 205.5t204 139t243.5 52.5q125 0 226.5 -51
t162.5 -143zM585 236q111 0 208.5 61t155 160.5t57.5 208.5q0 119 -77.5 191t-206.5 72q-111 0 -209 -61t-155.5 -160.5t-57.5 -208.5q0 -118 78 -190.5t207 -72.5z" />
    <glyph glyph-name="uni0436.loclBGR" horiz-adv-x="1669" 
d="M1749 1106l-479 -524l299 -582h-252l-236 476h-148l-95 -476h-217l95 476h-123l-427 -476h-276l532 582l-270 524h237l222 -436h144l167 835h217l-167 -835h121l393 436h263z" />
    <glyph glyph-name="uni0437.loclBGR" horiz-adv-x="1150" 
d="M803 377q181 -89 181 -308q0 -152 -81.5 -265.5t-213 -169.5t-291.5 -56q-211 0 -333.5 112.5t-117.5 304.5h207q2 -101 71.5 -156t191.5 -55q144 0 245.5 77t101.5 199q0 100 -75.5 163t-194.5 63h-195l37 204h195q76 0 147.5 33t118 95.5t46.5 137.5q0 78 -59 124
t-153 46q-107 0 -192.5 -58.5t-114.5 -152.5h-214q36 187 185 302t354 115q179 0 295 -104.5t116 -264.5q0 -127 -68.5 -225.5t-188.5 -160.5z" />
    <glyph glyph-name="uni0438.loclBGR" horiz-adv-x="1312" 
d="M1043 1106h217l-221 -1106h-160l-5 147q-78 -83 -183 -128t-226 -45q-164 0 -256.5 95.5t-92.5 258.5q0 14 0.5 26.5t1.5 26t4.5 34t6.5 40t10 55.5t13.5 69.5t18.5 92.5t23.5 114t29.5 145l35 175h217q-128 -633 -133 -669q-5 -33 -5 -58q0 -204 209 -204
q130 0 236.5 92.5t139.5 234.5z" />
    <glyph glyph-name="uni0439.loclBGR" horiz-adv-x="1312" 
d="M1077 1412l-31 -162h-547l31 162h547zM1043 1106h217l-221 -1106h-160l-5 147q-78 -83 -183 -128t-226 -45q-164 0 -256.5 95.5t-92.5 258.5q0 14 0.5 26.5t1.5 26t4.5 34t6.5 40t10 55.5t13.5 69.5t18.5 92.5t23.5 114t29.5 145l35 175h217q-128 -633 -133 -669
q-5 -33 -5 -58q0 -204 209 -204q130 0 236.5 92.5t139.5 234.5z" />
    <glyph glyph-name="uni043A.loclBGR" horiz-adv-x="1120" 
d="M1203 1106l-485 -531l305 -575h-242l-252 476h-161l-95 -476h-217l301 1502h217l-166 -825h131l389 429h275z" />
    <glyph glyph-name="uni043B.loclBGR" horiz-adv-x="1101" 
d="M961 0h-206l-134 818l-469 -818h-232l644 1106h198z" />
    <glyph glyph-name="uni043F.loclBGR" horiz-adv-x="1312" 
d="M848 1132q165 0 258.5 -95.5t93.5 -258.5q0 -18 -1 -34t-3 -33.5t-8 -49.5t-11.5 -63.5t-18.5 -94t-25 -122.5t-34 -168t-43 -213h-217l34 168t28 138.5t22.5 109.5t18 88.5t13 66t10 51t6.5 36t4 28.5t1.5 20t0.5 19q0 206 -212 206q-130 0 -234.5 -92t-137.5 -235
l-120 -604h-217l221 1106h152l9 -149q77 83 183 129t227 46z" />
    <glyph glyph-name="uni0442.loclBGR" horiz-adv-x="1935" 
d="M1510 1132q145 0 233 -90.5t88 -235.5q-2 -49 -70 -393q-47 -237 -82 -413h-217q28 141 69 343q51 251 61.5 310t10.5 91q0 92 -44.5 139.5t-129.5 47.5q-110 0 -206 -89.5t-126 -224.5q-7 -35 -47 -233.5t-77 -383.5h-212q132 655 137 694q4 27 4 50q0 91 -44 139
t-129 48q-111 0 -206.5 -88.5t-125.5 -221.5l-124 -621h-217l221 1106h154l7 -132q76 75 173 116.5t200 41.5q107 0 184.5 -51.5t110.5 -141.5q77 91 183 142t221 51z" />
    <glyph glyph-name="uni0446.loclBGR" horiz-adv-x="1388" 
d="M1103 286q0 -74 39.5 -109t120.5 -35l-82 -414h-200l58 289q-115 26 -140 150q-86 -89 -201 -140.5t-241 -51.5q-163 0 -253.5 91t-90.5 252q0 13 0.5 24t1.5 23t4 31t6.5 38t10 54t13.5 70t19 94t24 117.5t30.5 151t36.5 183.5h217q-125 -624 -130 -665q-4 -26 -4 -48
q0 -208 214 -208q132 0 236 94.5t133 239.5l118 589h217q-42 -213 -96 -481q-43 -216 -52 -265.5t-9 -73.5z" />
    <glyph glyph-name="uni0448.loclBGR" horiz-adv-x="1935" 
d="M1665 1106h217l-221 -1106h-157l-6 132q-76 -75 -173 -116.5t-198 -41.5q-107 0 -184.5 51.5t-110.5 141.5q-77 -91 -183.5 -142t-219.5 -51q-145 0 -233.5 90.5t-88.5 235.5q0 35 11.5 99t57.5 294q48 237 83 413h218q-133 -659 -138 -692q-4 -30 -4 -53
q0 -91 44.5 -138.5t129.5 -47.5q111 0 207 90t125 225q8 40 48 237t76 379h212q-36 -180 -83 -414q-41 -203 -50 -253t-9 -79q0 -91 44.5 -138t129.5 -47q111 0 206.5 88.5t125.5 221.5z" />
    <glyph glyph-name="uni0449.loclBGR" horiz-adv-x="2011" 
d="M1726 286q0 -144 158 -144l-82 -414h-199l58 291q-109 25 -139 137q-77 -86 -180.5 -134t-214.5 -48q-107 0 -184.5 51t-110.5 141q-77 -91 -182.5 -141.5t-220.5 -50.5q-143 0 -230 90.5t-87 235.5q0 49 21.5 165.5t126.5 640.5h217q-35 -172 -81 -400
q-42 -211 -51.5 -262.5t-9.5 -81.5q0 -92 44.5 -139.5t129.5 -47.5q110 0 206 89.5t126 223.5q24 120 124 618h212q-34 -167 -79 -391q-44 -218 -53.5 -270.5t-9.5 -82.5q0 -92 45 -139.5t129 -47.5q112 0 210 92.5t125 228.5q20 101 60.5 305t60.5 305h217
q-148 -746 -153 -780q-3 -22 -3 -40z" />
    <glyph glyph-name="uni044E.loclBGR" horiz-adv-x="1765" 
d="M1202 1132q219 0 354.5 -136t135.5 -348q0 -181 -92.5 -336.5t-250 -246.5t-340.5 -91q-208 0 -338.5 135t-132.5 345h-176l-91 -456h-215l299 1504h216l-169 -847h166q64 209 239.5 343t394.5 134zM1032 183q117 0 219 63t162 169t60 226q0 128 -80 204t-215 76
q-171 0 -297.5 -136.5t-126.5 -319.5q0 -129 75 -205.5t203 -76.5z" />
    <glyph glyph-name="uni0436.ss01" horiz-adv-x="1638" 
d="M715 580l-4 -21l-565 -559h-272l593 588l-306 518h246zM829 1106h210l-221 -1106h-210zM1729 1106l-542 -545l345 -561h-248l-344 560l4 19l521 527h264z" />
    <glyph glyph-name="uni043A.ss01" horiz-adv-x="1095" 
d="M277 1106h217l-221 -1106h-217zM1195 1106l-549 -544l343 -562h-243l-337 564l6 30l511 512h269z" />
    <glyph glyph-name="uni0432.ss02" horiz-adv-x="1275" 
d="M1019 770q73 -44 112 -119.5t39 -165.5q0 -149 -79 -266.5t-210 -179.5t-287 -62q-218 0 -341 117t-128 320q0 16 0.5 30t2.5 33.5t4 34t7 44.5t9 51t13 67.5t16 81l21 103.5t25 124q52 266 206 406t390 140q189 0 307 -101.5t118 -257.5q0 -117 -61 -224.5t-164 -175.5z
M799 1331q-141 0 -237.5 -94t-130.5 -275q-15 -71 -17 -83h317q135 0 227 77.5t92 194.5q0 83 -67 131.5t-184 48.5zM614 181q142 0 241.5 86t99.5 218q0 91 -66.5 144t-183.5 53h-331q-38 -189 -38 -251q0 -250 278 -250z" />
    <glyph glyph-name="uni0433.ss02" horiz-adv-x="1056" 
d="M437 -20q-183 0 -292 85t-109 222q0 57 14 103.5t35.5 80t60 61t72.5 44.5t89.5 33t96 24.5t104.5 20.5q34 7 48 9.5t46 9.5t46.5 12t40.5 14t39 17t30.5 20.5t26 26t14.5 31t6 37.5q0 52 -51.5 83t-141.5 31q-104 0 -168 -44.5t-80 -128.5h-202q18 172 146 264.5
t320 92.5q171 0 274.5 -82t103.5 -209q0 -43 -8.5 -80t-21.5 -66t-36.5 -53.5t-46 -42.5t-58 -34t-64 -26.5t-71.5 -21t-74 -17t-79 -15.5q-44 -8 -63.5 -11.5t-58.5 -13t-58 -17.5t-46.5 -22t-40.5 -30t-23 -38.5t-10 -49.5q0 -55 57 -87t155 -32q112 0 183.5 48t87.5 135
h212q-32 -184 -167 -284t-338 -100z" />
    <glyph glyph-name="uni0434.ss02" horiz-adv-x="1374" 
d="M1178 1106h142l-193 -968q-54 -267 -225.5 -413.5t-427.5 -146.5q-209 0 -333 104.5t-136 285.5h217q13 -93 91 -145t189 -52q150 0 264 98t147 260l6 31q-174 -127 -380 -127q-201 0 -330 129t-129 328q0 126 52 245t138.5 205.5t204 139t243.5 52.5q125 0 226.5 -51
t162.5 -143zM585 236q111 0 208.5 61t155 160.5t57.5 208.5q0 119 -77.5 191t-206.5 72q-111 0 -209 -61t-155.5 -160.5t-57.5 -208.5q0 -118 78 -190.5t207 -72.5z" />
    <glyph glyph-name="uni0436.ss02" horiz-adv-x="1675" 
d="M1749 1106l-479 -524l299 -582h-252l-236 476h-148l-95 -476h-217l95 476h-123l-427 -476h-276l532 582l-270 524h237l222 -436h144l167 835h217l-167 -835h121l393 436h263z" />
    <glyph glyph-name="uni0437.ss02" horiz-adv-x="1150" 
d="M803 377q181 -89 181 -308q0 -152 -81.5 -265.5t-213 -169.5t-291.5 -56q-211 0 -333.5 112.5t-117.5 304.5h207q2 -101 71.5 -156t191.5 -55q144 0 245.5 77t101.5 199q0 100 -75.5 163t-194.5 63h-195l37 204h195q76 0 147.5 33t118 95.5t46.5 137.5q0 78 -59 124
t-153 46q-107 0 -192.5 -58.5t-114.5 -152.5h-214q36 187 185 302t354 115q179 0 295 -104.5t116 -264.5q0 -127 -68.5 -225.5t-188.5 -160.5z" />
    <glyph glyph-name="uni0438.ss02" horiz-adv-x="1312" 
d="M1043 1106h217l-221 -1106h-160l-5 147q-78 -83 -183 -128t-226 -45q-164 0 -256.5 95.5t-92.5 258.5q0 14 0.5 26.5t1.5 26t4.5 34t6.5 40t10 55.5t13.5 69.5t18.5 92.5t23.5 114t29.5 145l35 175h217q-128 -633 -133 -669q-5 -33 -5 -58q0 -204 209 -204
q130 0 236.5 92.5t139.5 234.5z" />
    <glyph glyph-name="uni0439.ss02" horiz-adv-x="1312" 
d="M1077 1412l-31 -162h-547l31 162h547zM1043 1106h217l-221 -1106h-160l-5 147q-78 -83 -183 -128t-226 -45q-164 0 -256.5 95.5t-92.5 258.5q0 14 0.5 26.5t1.5 26t4.5 34t6.5 40t10 55.5t13.5 69.5t18.5 92.5t23.5 114t29.5 145l35 175h217q-128 -633 -133 -669
q-5 -33 -5 -58q0 -204 209 -204q130 0 236.5 92.5t139.5 234.5z" />
    <glyph glyph-name="uni043A.ss02" horiz-adv-x="1120" 
d="M1203 1106l-485 -531l305 -575h-242l-252 476h-161l-95 -476h-217l301 1502h217l-166 -825h131l389 429h275z" />
    <glyph glyph-name="uni043B.ss02" horiz-adv-x="1101" 
d="M961 0h-206l-134 818l-469 -818h-232l644 1106h198z" />
    <glyph glyph-name="uni043F.ss02" horiz-adv-x="1312" 
d="M848 1132q165 0 258.5 -95.5t93.5 -258.5q0 -18 -1 -34t-3 -33.5t-8 -49.5t-11.5 -63.5t-18.5 -94t-25 -122.5t-34 -168t-43 -213h-217l34 168t28 138.5t22.5 109.5t18 88.5t13 66t10 51t6.5 36t4 28.5t1.5 20t0.5 19q0 206 -212 206q-130 0 -234.5 -92t-137.5 -235
l-120 -604h-217l221 1106h152l9 -149q77 83 183 129t227 46z" />
    <glyph glyph-name="uni0442.ss02" horiz-adv-x="1935" 
d="M1510 1132q145 0 233 -90.5t88 -235.5q-2 -49 -70 -393q-47 -237 -82 -413h-217q28 141 69 343q51 251 61.5 310t10.5 91q0 92 -44.5 139.5t-129.5 47.5q-110 0 -206 -89.5t-126 -224.5q-7 -35 -47 -233.5t-77 -383.5h-212q132 655 137 694q4 27 4 50q0 91 -44 139
t-129 48q-111 0 -206.5 -88.5t-125.5 -221.5l-124 -621h-217l221 1106h154l7 -132q76 75 173 116.5t200 41.5q107 0 184.5 -51.5t110.5 -141.5q77 91 183 142t221 51z" />
    <glyph glyph-name="uni0446.ss02" horiz-adv-x="1388" 
d="M1103 286q0 -74 39.5 -109t120.5 -35l-82 -414h-200l58 289q-115 26 -140 150q-86 -89 -201 -140.5t-241 -51.5q-163 0 -253.5 91t-90.5 252q0 13 0.5 24t1.5 23t4 31t6.5 38t10 54t13.5 70t19 94t24 117.5t30.5 151t36.5 183.5h217q-125 -624 -130 -665q-4 -26 -4 -48
q0 -208 214 -208q132 0 236 94.5t133 239.5l118 589h217q-42 -213 -96 -481q-43 -216 -52 -265.5t-9 -73.5z" />
    <glyph glyph-name="uni0448.ss02" horiz-adv-x="1935" 
d="M1665 1106h217l-221 -1106h-157l-6 132q-76 -75 -173 -116.5t-198 -41.5q-107 0 -184.5 51.5t-110.5 141.5q-77 -91 -183.5 -142t-219.5 -51q-145 0 -233.5 90.5t-88.5 235.5q0 35 11.5 99t57.5 294q48 237 83 413h218q-133 -659 -138 -692q-4 -30 -4 -53
q0 -91 44.5 -138.5t129.5 -47.5q111 0 207 90t125 225q8 40 48 237t76 379h212q-36 -180 -83 -414q-41 -203 -50 -253t-9 -79q0 -91 44.5 -138t129.5 -47q111 0 206.5 88.5t125.5 221.5z" />
    <glyph glyph-name="uni0449.ss02" horiz-adv-x="2011" 
d="M1726 286q0 -144 158 -144l-82 -414h-199l58 291q-109 25 -139 137q-77 -86 -180.5 -134t-214.5 -48q-107 0 -184.5 51t-110.5 141q-77 -91 -182.5 -141.5t-220.5 -50.5q-143 0 -230 90.5t-87 235.5q0 49 21.5 165.5t126.5 640.5h217q-35 -172 -81 -400
q-42 -211 -51.5 -262.5t-9.5 -81.5q0 -92 44.5 -139.5t129.5 -47.5q110 0 206 89.5t126 223.5q24 120 124 618h212q-34 -167 -79 -391q-44 -218 -53.5 -270.5t-9.5 -82.5q0 -92 45 -139.5t129 -47.5q112 0 210 92.5t125 228.5q20 101 60.5 305t60.5 305h217
q-148 -746 -153 -780q-3 -22 -3 -40z" />
    <glyph glyph-name="uni044E.ss02" horiz-adv-x="1765" 
d="M1202 1132q219 0 354.5 -136t135.5 -348q0 -181 -92.5 -336.5t-250 -246.5t-340.5 -91q-208 0 -338.5 135t-132.5 345h-176l-91 -456h-215l299 1504h216l-169 -847h166q64 209 239.5 343t394.5 134zM1032 183q117 0 219 63t162 169t60 226q0 128 -80 204t-215 76
q-171 0 -297.5 -136.5t-126.5 -319.5q0 -129 75 -205.5t203 -76.5z" />
    <glyph glyph-name="uni0432.ss03" horiz-adv-x="1275" 
d="M1019 770q73 -44 112 -119.5t39 -165.5q0 -149 -79 -266.5t-210 -179.5t-287 -62q-218 0 -341 117t-128 320q0 16 0.5 30t2.5 33.5t4 34t7 44.5t9 51t13 67.5t16 81l21 103.5t25 124q52 266 206 406t390 140q189 0 307 -101.5t118 -257.5q0 -117 -61 -224.5t-164 -175.5z
M799 1331q-141 0 -237.5 -94t-130.5 -275q-15 -71 -17 -83h317q135 0 227 77.5t92 194.5q0 83 -67 131.5t-184 48.5zM614 181q142 0 241.5 86t99.5 218q0 91 -66.5 144t-183.5 53h-331q-38 -189 -38 -251q0 -250 278 -250z" />
    </font>
</defs>
</svg>
