<svg xmlns="http://www.w3.org/2000/svg" width="24.002" height="24.006" viewBox="0 0 24.002 24.006">
  <g id="language" transform="translate(-0.015 0.001)">
    <g id="Group_121" data-name="Group 121" transform="translate(0.016 -0.002)">
      <path id="Path_123" data-name="Path 123" d="M21.8,5.072a.2.2,0,0,0,0-.023c-.03-.043-.067-.08-.1-.122q-.336-.458-.712-.881c-.069-.077-.137-.153-.207-.229q-.387-.414-.811-.79c-.052-.046-.1-.094-.153-.14A12.018,12.018,0,0,0,17.541,1.35l-.1-.049A11.924,11.924,0,0,0,16.326.8c-.086-.031-.164-.06-.245-.086Q15.572.537,15.049.4c-.1-.027-.206-.056-.31-.08C14.4.24,14.053.179,13.7.129c-.1-.015-.209-.036-.316-.048a11.272,11.272,0,0,0-2.72,0c-.107.013-.212.033-.318.049-.351.05-.7.111-1.037.19C9.2.344,9.1.372,9,.4Q8.473.537,7.97.719c-.086.029-.164.058-.245.086a11.917,11.917,0,0,0-1.115.5c-.033.017-.068.032-.1.049A12.021,12.021,0,0,0,4.226,2.887c-.052.045-.1.093-.153.14a11.152,11.152,0,0,0-.811.79c-.07.075-.139.152-.207.229q-.376.423-.712.881c-.031.042-.068.079-.1.122a.2.2,0,0,0-.01.023,11.926,11.926,0,0,0,0,13.855.187.187,0,0,0,.01.023c.03.043.067.08.1.122q.335.458.712.881c.069.077.137.153.207.229q.388.414.811.79c.052.046.1.094.153.14A12.017,12.017,0,0,0,6.5,22.648l.1.049a11.926,11.926,0,0,0,1.115.5c.086.031.164.06.245.086q.507.183,1.029.32c.1.027.206.056.31.08.343.08.686.141,1.037.19.106.015.211.036.318.049a11.272,11.272,0,0,0,2.72,0c.107-.013.212-.033.318-.049.351-.05.7-.111,1.037-.19.1-.024.207-.052.31-.08q.526-.137,1.029-.32c.086-.029.164-.058.245-.086a11.918,11.918,0,0,0,1.115-.5c.033-.017.068-.032.1-.049A12.02,12.02,0,0,0,19.8,21.111c.052-.045.1-.093.153-.14a10.917,10.917,0,0,0,.811-.79c.07-.075.139-.152.207-.229q.376-.424.712-.881c.031-.042.068-.079.1-.122a.194.194,0,0,0,.01-.023A11.926,11.926,0,0,0,21.8,5.072Zm-.98,1.622a10.2,10.2,0,0,1,1.446,4.448H17.13a16,16,0,0,0-.48-3.026,15.408,15.408,0,0,0,4.17-1.422ZM14.2,1.946c.048.011.094.027.142.038a9.228,9.228,0,0,1,.909.257c.045.015.09.033.135.05q.442.154.87.343l.148.072q.409.195.8.421l.171.1q.37.226.72.484c.06.044.12.086.179.134a7.823,7.823,0,0,1,.657.551l.165.15c.22.208.429.429.631.657.026.03.053.057.079.086a14.383,14.383,0,0,1-3.657,1.175,21.8,21.8,0,0,0-2.308-4.58C13.963,1.909,14.085,1.921,14.2,1.946Zm-5.58,9.2A14.307,14.307,0,0,1,9.093,8.4a24.57,24.57,0,0,0,2.927.171A24.626,24.626,0,0,0,14.95,8.4a14.28,14.28,0,0,1,.469,2.748Zm6.8,1.715a14.307,14.307,0,0,1-.472,2.744,25.1,25.1,0,0,0-5.857,0,14.284,14.284,0,0,1-.469-2.744ZM12.02,2.273a20.71,20.71,0,0,1,2.39,4.459,22.694,22.694,0,0,1-2.39.127,22.866,22.866,0,0,1-2.387-.128,20.873,20.873,0,0,1,2.388-4.462ZM4.312,5.207c.2-.228.412-.448.631-.657.054-.051.111-.1.165-.15q.317-.289.657-.551c.059-.045.119-.086.179-.134q.35-.257.72-.484l.171-.1q.39-.228.8-.421l.148-.072q.427-.193.87-.343c.045-.016.086-.034.135-.05.3-.1.6-.182.909-.257.048-.011.094-.027.143-.037.117-.026.239-.038.358-.059A21.8,21.8,0,0,0,7.89,6.469,14.382,14.382,0,0,1,4.233,5.294C4.259,5.264,4.287,5.236,4.312,5.207ZM3.222,6.694A15.4,15.4,0,0,0,7.391,8.116a16,16,0,0,0-.479,3.026H1.775A10.2,10.2,0,0,1,3.222,6.694Zm0,10.61a10.2,10.2,0,0,1-1.446-4.448H6.911a16,16,0,0,0,.48,3.026A15.4,15.4,0,0,0,3.222,17.3ZM9.84,22.052c-.048-.011-.094-.027-.142-.038a9.227,9.227,0,0,1-.909-.257c-.045-.015-.09-.033-.135-.05q-.442-.154-.87-.343l-.148-.072q-.409-.195-.8-.421l-.171-.1q-.37-.226-.72-.484c-.06-.044-.12-.086-.179-.134a7.823,7.823,0,0,1-.657-.551l-.165-.15c-.22-.208-.429-.429-.631-.657-.026-.03-.053-.057-.079-.086A14.383,14.383,0,0,1,7.89,17.531a21.8,21.8,0,0,0,2.308,4.58c-.119-.021-.241-.033-.359-.059Zm2.181-.322a20.71,20.71,0,0,1-2.39-4.459,22.322,22.322,0,0,1,4.778,0h0a20.868,20.868,0,0,1-2.388,4.459Zm7.709-2.938c-.2.228-.412.448-.631.657-.054.051-.111.1-.165.15q-.317.29-.657.551l-.179.134q-.35.257-.72.484l-.171.1q-.389.227-.8.421l-.148.072q-.427.193-.87.343c-.045.016-.086.034-.135.05-.3.1-.6.182-.909.257-.048.011-.094.027-.143.037-.117.026-.239.038-.358.059a21.8,21.8,0,0,0,2.308-4.58A14.382,14.382,0,0,1,19.809,18.7c-.027.033-.054.06-.08.09ZM20.82,17.3a15.4,15.4,0,0,0-4.169-1.422,16,16,0,0,0,.479-3.026h5.136A10.2,10.2,0,0,1,20.82,17.3Z" transform="translate(-0.016 0.002)" fill="#006747"/>
    </g>
  </g>
</svg>
