<svg xmlns="http://www.w3.org/2000/svg" width="38.474" height="30" viewBox="0 0 38.474 30">
  <g id="books" transform="translate(0.042 -36.758)">
    <g id="Group_4087" data-name="Group 4087" transform="translate(-0.001 36.758)">
      <path id="Path_26734" data-name="Path 26734" d="M35.69,45.821c-.155-1.168-.177-3.18.908-3.856a.408.408,0,0,0,.051-.046c.887-.284,1.5-.682,1.019-1.218L24.581,36.758,3.39,39.7s-2.427.347-2.21,4.117a4.871,4.871,0,0,0,1.32,3.56L.765,47.9c-.483.536.131.934,1.018,1.217a.351.351,0,0,0,.051.046c1.084.676,1.064,2.688.908,3.857-3.9,1.106-2.5,1.467-2.5,1.467l.855.207A4.146,4.146,0,0,0,.013,58.221c.217,3.769,2.21,4.029,2.21,4.029L16.09,66.758l20.931-5.07s1.4-.361-2.5-1.467c-.157-1.167-.178-3.178.908-3.856a.32.32,0,0,0,.051-.045c.887-.284,1.5-.682,1.019-1.217l-.91-.275c.607-.366,1.518-1.322,1.661-3.806a4.408,4.408,0,0,0-.863-3.3l1.8-.435S39.586,46.927,35.69,45.821Zm-17.507-.048,3.52-.723L33.6,42.6l1.772-.365a6.136,6.136,0,0,0-.449,3.366c.021.206.044.4.067.538l-1.94.482-15.016,3.74ZM3.063,49.441l1.772.365,11.423,2.348,1,.2h0l2.993.615.148,4.589L4.966,53.723l-1.521-.378c.022-.143.046-.331.067-.538a6.137,6.137,0,0,0-.449-3.366Zm-.688-5.8a2.976,2.976,0,0,1,.518-2.1.941.941,0,0,1,.687-.284,1.165,1.165,0,0,1,.174.014l9.131,2.977,4.555,1.485-.149,4.621L4.511,46.772l-.674-.189a.408.408,0,0,0-.084-.013c-.053,0-1.317-.12-1.378-2.93ZM16.123,64.756,2.67,60.984a.4.4,0,0,0-.084-.013c-.054,0-1.318-.12-1.379-2.93a2.979,2.979,0,0,1,.518-2.1.943.943,0,0,1,.687-.284,1.216,1.216,0,0,1,.174.013h0l13.685,4.463Zm17.629-4.749c.021.207.045.4.068.538L16.867,64.763l.148-4.589,3.624-.745.535.129,2.006-.652,9.248-1.9,1.773-.365a6.13,6.13,0,0,0-.449,3.366Zm.934-6.237a.326.326,0,0,0-.091.014l-1.279.358L21.142,57.556l-.149-4.621,3.994-1.3,9.672-3.154a1.007,1.007,0,0,1,.881.266,2.98,2.98,0,0,1,.518,2.1c-.058,2.8-1.326,2.92-1.372,2.923Z" transform="translate(0.001 -36.758)" fill="#006747"/>
    </g>
  </g>
</svg>
