<svg id="class" xmlns="http://www.w3.org/2000/svg" width="30.357" height="30.357" viewBox="0 0 30.357 30.357">
  <g id="Group_4040" data-name="Group 4040" transform="translate(4.447)">
    <g id="Group_4039" data-name="Group 4039">
      <path id="Path_26728" data-name="Path 26728" d="M78.557,0A3.605,3.605,0,0,0,75,3.617a3.558,3.558,0,0,0,7.115,0A3.606,3.606,0,0,0,78.557,0Zm0,5.4a1.781,1.781,0,0,1-1.779-1.779,1.78,1.78,0,1,1,3.557,0A1.781,1.781,0,0,1,78.557,5.4Z" transform="translate(-75)" fill="#006747"/>
    </g>
  </g>
  <g id="Group_4042" data-name="Group 4042">
    <g id="Group_4041" data-name="Group 4041">
      <path id="Path_26729" data-name="Path 26729" d="M27.689,0H15.119a2.671,2.671,0,0,0-2.668,2.668V8.737l-.782-.782a2.65,2.65,0,0,0-1.886-.782H4.447A4.452,4.452,0,0,0,0,11.621v5.336a2.669,2.669,0,0,0,3.557,2.516v8.216A2.667,2.667,0,0,0,8,29.676a2.667,2.667,0,0,0,4.447-1.987V15.916a2.678,2.678,0,0,0,2.083-.13l2.994-1.5H27.689a2.671,2.671,0,0,0,2.668-2.668V2.668A2.671,2.671,0,0,0,27.689,0ZM17.3,12.417l-3.556,1.778a.889.889,0,0,1-1.028-.166l-.521-.521a.89.89,0,0,0-1.518.626V27.689a.889.889,0,0,1-1.779,0V18.736a.889.889,0,0,0-1.779,0v8.953a.889.889,0,1,1-1.779,0V11.621a.89.89,0,0,0-1.779,0v5.336a.889.889,0,0,1-1.779,0c0-.671,0-4.788,0-5.336A2.671,2.671,0,0,1,4.447,8.953H9.783a.883.883,0,0,1,.629.261l2.651,2.651a.889.889,0,0,0,1.027.167l2.41-1.207a.89.89,0,1,1,.8,1.591Zm11.283-.8a.89.89,0,0,1-.889.889H19.413c0-.015.011-.03.016-.046a2.658,2.658,0,0,0,.118-1.174l4.864-2.432a.89.89,0,0,0-.8-1.591L18.752,9.7A2.666,2.666,0,0,0,15.7,9.234l-1.475.737v-7.3a.89.89,0,0,1,.889-.889h12.57a.89.89,0,0,1,.889.889Z" fill="#006747"/>
    </g>
  </g>
</svg>
