<svg xmlns="http://www.w3.org/2000/svg" width="16.468" height="24.006" viewBox="0 0 16.468 24.006">
  <g id="flag" transform="translate(-80.335 0.003)">
    <g id="Group_4092" data-name="Group 4092" transform="translate(80.334)">
      <path id="Path_26737" data-name="Path 26737" d="M96.461.97A6.7,6.7,0,0,0,92.916,0a16.056,16.056,0,0,0-4.55.9,14.805,14.805,0,0,1-4.146.84h0a5.341,5.341,0,0,1-2.479-.58V.7a.7.7,0,1,0-1.406,0V23.3a.7.7,0,1,0,1.406,0V12.256a6.793,6.793,0,0,0,2.48.448,16.054,16.054,0,0,0,4.55-.9,14.8,14.8,0,0,1,4.146-.84,5.333,5.333,0,0,1,2.821.769.7.7,0,0,0,1.065-.6V1.573a.7.7,0,0,0-.342-.6Z" transform="translate(-80.334)" fill="#006747"/>
    </g>
  </g>
</svg>
