<svg xmlns="http://www.w3.org/2000/svg" width="30.007" height="30.003" viewBox="0 0 30.007 30.003">
  <path id="language" d="M27.244,6.34a.251.251,0,0,0,0-.029c-.037-.054-.084-.1-.122-.152q-.42-.572-.89-1.1c-.086-.1-.172-.192-.259-.286q-.483-.518-1.014-.987c-.065-.058-.126-.118-.192-.175A15.022,15.022,0,0,0,21.922,1.69L21.8,1.629a14.9,14.9,0,0,0-1.4-.622C20.293.968,20.2.932,20.094.9Q19.46.671,18.808.5C18.679.466,18.55.43,18.42.4c-.429-.1-.857-.176-1.3-.238-.133-.019-.264-.045-.4-.061a14.091,14.091,0,0,0-3.4,0c-.134.016-.265.042-.4.061-.438.062-.871.138-1.3.238-.131.03-.259.065-.388.1q-.657.171-1.286.4c-.107.036-.2.073-.307.107a14.9,14.9,0,0,0-1.393.621c-.042.021-.085.04-.125.061a15.026,15.026,0,0,0-2.842,1.92c-.065.057-.126.117-.192.175a13.94,13.94,0,0,0-1.014.987c-.088.094-.174.19-.259.286q-.471.528-.89,1.1c-.039.053-.085.1-.122.152a.243.243,0,0,0-.013.029,14.908,14.908,0,0,0,0,17.318.233.233,0,0,0,.013.029c.037.054.084.1.122.152q.419.572.89,1.1c.086.1.172.192.259.286q.484.518,1.014.987c.065.058.126.118.192.175A15.022,15.022,0,0,0,8.124,28.31l.125.061a14.906,14.906,0,0,0,1.393.621c.107.039.2.075.307.107q.633.228,1.286.4c.129.034.257.07.388.1.429.1.857.176,1.3.238.133.019.264.045.4.061a14.091,14.091,0,0,0,3.4,0c.134-.016.265-.042.4-.061.438-.062.871-.138,1.3-.238.131-.03.259-.065.388-.1q.658-.171,1.286-.4c.107-.036.2-.073.307-.107a14.9,14.9,0,0,0,1.393-.621c.042-.021.085-.04.125-.061a15.025,15.025,0,0,0,2.845-1.921c.065-.057.126-.117.192-.175a13.647,13.647,0,0,0,1.014-.987c.088-.094.174-.19.259-.286q.471-.53.89-1.1c.039-.053.085-.1.122-.152a.243.243,0,0,0,.013-.029,14.908,14.908,0,0,0-.013-17.32ZM26.021,8.368a12.753,12.753,0,0,1,1.808,5.56h-6.42a20,20,0,0,0-.6-3.782,19.26,19.26,0,0,0,5.212-1.778ZM17.749,2.433c.06.014.118.033.178.047a11.534,11.534,0,0,1,1.136.322c.057.019.113.042.168.062q.553.193,1.088.429c.062.029.123.061.185.09q.511.243,1,.526l.214.13q.463.283.9.606c.075.055.15.107.224.167a9.779,9.779,0,0,1,.821.689c.069.062.139.123.207.188.274.26.536.536.789.821.032.037.066.072.1.107a17.979,17.979,0,0,1-4.571,1.468A27.253,27.253,0,0,0,17.3,2.36C17.45,2.386,17.6,2.4,17.749,2.433Zm-6.976,11.5a17.883,17.883,0,0,1,.59-3.43,30.713,30.713,0,0,0,3.659.214,30.783,30.783,0,0,0,3.662-.22,17.851,17.851,0,0,1,.586,3.435Zm8.5,2.144a17.883,17.883,0,0,1-.59,3.43,31.369,31.369,0,0,0-7.322,0,17.855,17.855,0,0,1-.586-3.43ZM15.022,2.837A25.887,25.887,0,0,1,18.009,8.41a28.368,28.368,0,0,1-2.987.159,28.581,28.581,0,0,1-2.984-.16,26.091,26.091,0,0,1,2.984-5.572ZM5.386,6.509c.252-.285.514-.561.789-.821.068-.064.138-.125.207-.188q.4-.361.821-.689c.074-.057.149-.107.224-.167q.437-.322.9-.606l.214-.13q.488-.285,1-.526c.062-.029.123-.061.185-.09q.534-.241,1.088-.429c.056-.02.107-.043.168-.062.372-.124.75-.227,1.136-.322.06-.014.118-.033.179-.046.147-.032.3-.047.448-.074A27.255,27.255,0,0,0,9.859,8.086,17.978,17.978,0,0,1,5.288,6.618C5.32,6.58,5.354,6.546,5.386,6.509ZM4.023,8.368a19.257,19.257,0,0,0,5.211,1.777,20,20,0,0,0-.6,3.782H2.215A12.755,12.755,0,0,1,4.023,8.368Zm0,13.263a12.753,12.753,0,0,1-1.808-5.56h6.42a20,20,0,0,0,.6,3.782,19.256,19.256,0,0,0-5.212,1.778ZM12.3,27.565c-.06-.014-.118-.033-.178-.047a11.534,11.534,0,0,1-1.136-.322c-.057-.019-.113-.042-.168-.062q-.553-.193-1.088-.429c-.062-.029-.123-.061-.185-.09q-.511-.243-1-.526l-.214-.13q-.463-.283-.9-.606c-.075-.055-.15-.107-.224-.167a9.779,9.779,0,0,1-.821-.689c-.069-.062-.139-.123-.207-.188-.274-.26-.536-.536-.789-.821-.032-.037-.066-.072-.1-.107a17.978,17.978,0,0,1,4.571-1.468,27.253,27.253,0,0,0,2.885,5.726C12.594,27.613,12.442,27.6,12.3,27.565Zm2.727-.4a25.887,25.887,0,0,1-2.987-5.573,27.9,27.9,0,0,1,5.972,0h0a26.085,26.085,0,0,1-2.99,5.57Zm9.636-3.672c-.252.285-.514.561-.789.821-.068.064-.138.125-.207.188q-.4.362-.821.689c-.074.057-.149.113-.224.167q-.437.322-.9.606l-.214.13q-.487.284-1,.526c-.062.029-.123.061-.185.09q-.534.241-1.088.429c-.056.02-.107.043-.168.062-.372.124-.75.227-1.136.322-.06.014-.118.033-.179.046-.147.032-.3.047-.448.074a27.251,27.251,0,0,0,2.885-5.726,17.978,17.978,0,0,1,4.571,1.468,1.44,1.44,0,0,0-.1.1Zm1.363-1.86a19.257,19.257,0,0,0-5.211-1.777,20,20,0,0,0,.6-3.782h6.42a12.756,12.756,0,0,1-1.814,5.557Z" transform="translate(-0.017 0.002)" fill="#006747"/>
</svg>
