<svg xmlns="http://www.w3.org/2000/svg" width="19" height="19" viewBox="0 0 19 19">
  <path id="Path_2" data-name="Path 2" d="M11.491,2A9.5,9.5,0,1,0,21,11.5,9.5,9.5,0,0,0,11.491,2Zm6.583,5.7h-2.8a14.867,14.867,0,0,0-1.311-3.382A7.628,7.628,0,0,1,18.074,7.7ZM11.5,3.938A13.382,13.382,0,0,1,13.314,7.7H9.686A13.382,13.382,0,0,1,11.5,3.938ZM4.147,13.4a7.431,7.431,0,0,1,0-3.8H7.358a15.689,15.689,0,0,0-.133,1.9,15.689,15.689,0,0,0,.133,1.9Zm.779,1.9h2.8A14.867,14.867,0,0,0,9.04,18.682,7.587,7.587,0,0,1,4.926,15.3Zm2.8-7.6h-2.8A7.587,7.587,0,0,1,9.04,4.318,14.867,14.867,0,0,0,7.728,7.7ZM11.5,19.062A13.382,13.382,0,0,1,9.686,15.3h3.629A13.382,13.382,0,0,1,11.5,19.062ZM13.723,13.4H9.277a13.977,13.977,0,0,1-.152-1.9,13.856,13.856,0,0,1,.152-1.9h4.446a13.856,13.856,0,0,1,.152,1.9A13.977,13.977,0,0,1,13.723,13.4Zm.238,5.282A14.867,14.867,0,0,0,15.272,15.3h2.8A7.628,7.628,0,0,1,13.961,18.682ZM15.642,13.4a15.69,15.69,0,0,0,.133-1.9,15.69,15.69,0,0,0-.133-1.9h3.211a7.431,7.431,0,0,1,0,3.8Z" transform="translate(-2 -2)" fill="#212529"/>
</svg>
