<svg xmlns="http://www.w3.org/2000/svg" width="24.013" height="24.008" viewBox="0 0 24.013 24.008">
  <path id="mars" d="M23.987.871a.991.991,0,0,0-.062-.247.03.03,0,0,1,0-.007h0A1.018,1.018,0,0,0,23.788.39l-.04-.048a1.02,1.02,0,0,0-.191-.173h-.006a.985.985,0,0,0-.227-.108L23.263.04A1,1,0,0,0,23,0H16a1,1,0,0,0,0,2h4.585L14.617,7.968a9.006,9.006,0,1,0,1.414,1.415L22,3.414V8a1,1,0,0,0,2,0V1a.218.218,0,0,0-.006-.062c-.006-.021,0-.045-.007-.067ZM9,22a7,7,0,1,1,7-7,7,7,0,0,1-7,7Zm0,0" transform="translate(0.013)" fill="#006747"/>
</svg>
