<svg xmlns="http://www.w3.org/2000/svg" width="22.459" height="24.001" viewBox="0 0 22.459 24.001">
  <g id="party" transform="translate(-16.5)">
    <path id="Path_26739" data-name="Path 26739" d="M37.459,1.5H35.588V1.123a1.123,1.123,0,0,0-2.246,0V1.5H22.114V1.123a1.123,1.123,0,1,0-2.246,0V1.5H18A1.5,1.5,0,0,0,16.5,3V18.713a1.5,1.5,0,0,0,1.5,1.5h4.491a.375.375,0,0,0,0-.749H18a.75.75,0,0,1-.749-.749V5.988H38.208V18.713a.75.75,0,0,1-.749.749H32.968a.375.375,0,1,0,0,.749h4.491a1.5,1.5,0,0,0,1.5-1.5V2.994a1.5,1.5,0,0,0-1.5-1.494Zm-3.368-.374a.375.375,0,0,1,.749,0V2.994a.375.375,0,0,1-.749,0Zm-13.474,0a.374.374,0,1,1,.749,0V2.994a.375.375,0,0,1-.749,0Z" fill="#006747"/>
    <path id="Path_26740" data-name="Path 26740" d="M181.236,216.363a2.7,2.7,0,0,1-.4.119l.132.263a.375.375,0,0,1-.288.539v4.541a.374.374,0,1,1-.749,0v-4.538a.375.375,0,0,1-.343-.524l.128-.293a2.9,2.9,0,0,1-.346-.106c-2.3-.875-3.925-5.017-1.85-7.27a3.908,3.908,0,0,1,5.57,0C185.157,211.342,183.547,215.484,181.236,216.363Z" transform="translate(-152.573 -198.199)" fill="#006747"/>
    <path id="Path_26741" data-name="Path 26741" d="M293.413,241.5h0c1.845-.39,3.212-2.753,3.212-4.809a3.6,3.6,0,0,0-3.1-3.694.14.14,0,0,0-.141.21c1.462,2.494.126,6.244-2.179,7.522a.141.141,0,0,0-.015.238,3.042,3.042,0,0,0,1.1.521h0l-.128.293a.374.374,0,0,0,.343.524v3.4a.383.383,0,0,0,.349.386.374.374,0,0,0,.4-.373V242.3a.374.374,0,0,0,.288-.539Z" transform="translate(-261.786 -222.097)" fill="#006747"/>
    <path id="Path_26742" data-name="Path 26742" d="M109.917,240.73c-2.25-1.252-3.671-4.976-2.178-7.522a.14.14,0,0,0-.141-.21,3.6,3.6,0,0,0-3.1,3.694c0,2.035,1.338,4.37,3.154,4.8h0l-.128.293a.374.374,0,0,0,.343.524v3.4a.383.383,0,0,0,.349.386.374.374,0,0,0,.4-.373V242.3a.374.374,0,0,0,.288-.539l-.132-.263h0a3.022,3.022,0,0,0,1.159-.535.141.141,0,0,0-.014-.233Z" transform="translate(-83.883 -222.096)" fill="#006747"/>
  </g>
</svg>
