<svg xmlns="http://www.w3.org/2000/svg" width="16.502" height="23.999" viewBox="0 0 16.502 23.999">
  <g id="pin" transform="translate(-79.963)">
    <path id="Path_26738" data-name="Path 26738" d="M95.324,4.109A8.144,8.144,0,0,0,88.4,0h-.369A8.145,8.145,0,0,0,81.11,4.108,8.355,8.355,0,0,0,81,12.365l5.951,10.893.008.014a1.447,1.447,0,0,0,2.51,0l.008-.014,5.951-10.893a8.356,8.356,0,0,0-.109-8.256Zm-7.105,6.765A3.375,3.375,0,1,1,91.594,7.5a3.375,3.375,0,0,1-3.375,3.375Z" fill="#006747"/>
  </g>
</svg>
