<svg id="Group_20" data-name="Group 20" xmlns="http://www.w3.org/2000/svg" width="168.747" height="27.273" viewBox="0 0 168.747 27.273">
  <g id="star_1_" data-name="star (1)" transform="translate(0 0)">
    <path id="Path_92" data-name="Path 92" d="M27.924,21.729l-9.264-.859-3.68-8.545a.742.742,0,0,0-1.364,0L9.938,20.87l-9.264.859a.742.742,0,0,0-.421,1.3l6.989,6.14L5.2,38.242a.742.742,0,0,0,1.1.8l8-4.75,8,4.75a.742.742,0,0,0,1.1-.8l-2.045-9.076,6.989-6.14A.742.742,0,0,0,27.924,21.729Z" transform="translate(0 -11.877)" fill="#ffdc64"/>
    <path id="Path_93" data-name="Path 93" d="M14.981,12.325a.742.742,0,0,0-1.364,0L9.938,20.87l-9.264.859a.742.742,0,0,0-.421,1.3l6.989,6.14L5.2,38.242a.742.742,0,0,0,1.1.8l1.785-1.06A32.74,32.74,0,0,1,16.8,16.55Z" transform="translate(0 -11.877)" fill="#ffc850"/>
  </g>
  <g id="star_1_2" data-name="star (1)" transform="translate(35.037 0)">
    <path id="Path_92-2" data-name="Path 92" d="M27.924,21.729l-9.264-.859-3.68-8.545a.742.742,0,0,0-1.364,0L9.938,20.87l-9.264.859a.742.742,0,0,0-.421,1.3l6.989,6.14L5.2,38.242a.742.742,0,0,0,1.1.8l8-4.75,8,4.75a.742.742,0,0,0,1.1-.8l-2.045-9.076,6.989-6.14A.742.742,0,0,0,27.924,21.729Z" transform="translate(0 -11.877)" fill="#ffdc64"/>
    <path id="Path_93-2" data-name="Path 93" d="M14.981,12.325a.742.742,0,0,0-1.364,0L9.938,20.87l-9.264.859a.742.742,0,0,0-.421,1.3l6.989,6.14L5.2,38.242a.742.742,0,0,0,1.1.8l1.785-1.06A32.74,32.74,0,0,1,16.8,16.55Z" transform="translate(0 -11.877)" fill="#ffc850"/>
  </g>
  <g id="star_1_3" data-name="star (1)" transform="translate(70.074 0)">
    <path id="Path_92-3" data-name="Path 92" d="M27.924,21.729l-9.264-.859-3.68-8.545a.742.742,0,0,0-1.364,0L9.938,20.87l-9.264.859a.742.742,0,0,0-.421,1.3l6.989,6.14L5.2,38.242a.742.742,0,0,0,1.1.8l8-4.75,8,4.75a.742.742,0,0,0,1.1-.8l-2.045-9.076,6.989-6.14A.742.742,0,0,0,27.924,21.729Z" transform="translate(0 -11.877)" fill="#ffdc64"/>
    <path id="Path_93-3" data-name="Path 93" d="M14.981,12.325a.742.742,0,0,0-1.364,0L9.938,20.87l-9.264.859a.742.742,0,0,0-.421,1.3l6.989,6.14L5.2,38.242a.742.742,0,0,0,1.1.8l1.785-1.06A32.74,32.74,0,0,1,16.8,16.55Z" transform="translate(0 -11.877)" fill="#ffc850"/>
  </g>
  <g id="star_1_4" data-name="star (1)" transform="translate(105.11 0)">
    <path id="Path_92-4" data-name="Path 92" d="M27.924,21.729l-9.264-.859-3.68-8.545a.742.742,0,0,0-1.364,0L9.938,20.87l-9.264.859a.742.742,0,0,0-.421,1.3l6.989,6.14L5.2,38.242a.742.742,0,0,0,1.1.8l8-4.75,8,4.75a.742.742,0,0,0,1.1-.8l-2.045-9.076,6.989-6.14A.742.742,0,0,0,27.924,21.729Z" transform="translate(0 -11.877)" fill="#ffdc64"/>
    <path id="Path_93-4" data-name="Path 93" d="M14.981,12.325a.742.742,0,0,0-1.364,0L9.938,20.87l-9.264.859a.742.742,0,0,0-.421,1.3l6.989,6.14L5.2,38.242a.742.742,0,0,0,1.1.8l1.785-1.06A32.74,32.74,0,0,1,16.8,16.55Z" transform="translate(0 -11.877)" fill="#ffc850"/>
  </g>
  <g id="star_1_5" data-name="star (1)" transform="translate(140.147 0)">
    <path id="Path_92-5" data-name="Path 92" d="M27.924,21.729l-9.264-.859-3.68-8.545a.742.742,0,0,0-1.364,0L9.938,20.87l-9.264.859a.742.742,0,0,0-.421,1.3l6.989,6.14L5.2,38.242a.742.742,0,0,0,1.1.8l8-4.75,8,4.75a.742.742,0,0,0,1.1-.8l-2.045-9.076,6.989-6.14A.742.742,0,0,0,27.924,21.729Z" transform="translate(0 -11.877)" fill="#ffdc64"/>
    <path id="Path_93-5" data-name="Path 93" d="M14.981,12.325a.742.742,0,0,0-1.364,0L9.938,20.87l-9.264.859a.742.742,0,0,0-.421,1.3l6.989,6.14L5.2,38.242a.742.742,0,0,0,1.1.8l1.785-1.06A32.74,32.74,0,0,1,16.8,16.55Z" transform="translate(0 -11.877)" fill="#ffc850"/>
  </g>
</svg>
