<svg xmlns="http://www.w3.org/2000/svg" width="22.192" height="18.002" viewBox="0 0 22.192 18.002">
  <path id="twitter" d="M45.027,20A12.83,12.83,0,0,0,57.973,7.055V6.438A10.021,10.021,0,0,0,60.192,4.1a10.234,10.234,0,0,1-2.589.74,4.8,4.8,0,0,0,1.972-2.47,11.308,11.308,0,0,1-2.836,1.11A4.4,4.4,0,0,0,53.411,2a4.632,4.632,0,0,0-4.562,4.562,2.4,2.4,0,0,0,.123.986A12.747,12.747,0,0,1,39.6,2.74a4.721,4.721,0,0,0-.616,2.342A4.9,4.9,0,0,0,40.959,8.9a4.156,4.156,0,0,1-2.1-.616h0a4.506,4.506,0,0,0,3.7,4.438,3.8,3.8,0,0,1-1.233.123,2.1,2.1,0,0,1-.863-.123,4.671,4.671,0,0,0,4.315,3.2A9.308,9.308,0,0,1,39.11,17.9,3.413,3.413,0,0,1,38,17.781,11.637,11.637,0,0,0,45.027,20" transform="translate(-38 -2)" fill="#006747" fill-rule="evenodd"/>
</svg>
