<svg id="verified" xmlns="http://www.w3.org/2000/svg" width="30" height="30" viewBox="0 0 30 30">
  <g id="Group_3769" data-name="Group 3769">
    <rect id="Rectangle_1673" data-name="Rectangle 1673" width="30" height="30" fill="none"/>
  </g>
  <g id="Group_3770" data-name="Group 3770" transform="translate(1.25 1.875)">
    <path id="Path_26720" data-name="Path 26720" d="M28.5,14.625l-3.05-3.488.425-4.612L21.362,5.5,19,1.5,14.75,3.325,10.5,1.5,8.137,5.488,3.625,6.5l.425,4.625L1,14.625l3.05,3.487-.425,4.625,4.512,1.025L10.5,27.75l4.25-1.837L19,27.738l2.362-3.988,4.513-1.025-.425-4.613Zm-16.137,5.9-4.75-4.762,1.85-1.85,2.9,2.913,7.313-7.338,1.85,1.85Z" transform="translate(-1 -1.5)" fill="#006747"/>
  </g>
</svg>
